<svg id="Layer_1" data-name="Layer 1" xmlns="http://www.w3.org/2000/svg" viewBox="0 0 349 346.55"><defs><style>.cls-1{fill:none;stroke:#fff;stroke-miterlimit:10;stroke-width:10px;fill-rule:evenodd;}.cls-2{fill:#fff;}</style></defs><path class="cls-1" d="M232.89,67.93c-93.61,0-169.5,75.34-169.5,168.27s75.89,168.28,169.5,168.28,169.5-75.34,169.5-168.28S326.5,67.93,232.89,67.93Z" transform="translate(-58.39 -62.93)"/><path class="cls-2" d="M173.4,238.58A16.6,16.6,0,0,0,189,256.1h.91a16.57,16.57,0,1,0-16.56-17.52Z" transform="translate(-58.39 -62.93)"/><path class="cls-2" d="M111.62,234.37a5.06,5.06,0,1,0,5.07,5,5.06,5.06,0,0,0-5.07-5Z" transform="translate(-58.39 -62.93)"/><path class="cls-2" d="M172.35,142.41a5.12,5.12,0,1,0-5.15-5.1,5.12,5.12,0,0,0,5.15,5.1Z" transform="translate(-58.39 -62.93)"/><path class="cls-2" d="M189.16,171.75A8.28,8.28,0,1,0,178,168.07,8.28,8.28,0,0,0,189.16,171.75Z" transform="translate(-58.39 -62.93)"/><path class="cls-2" d="M132.58,191.91a6.83,6.83,0,1,0-1.94-9.46h0A6.82,6.82,0,0,0,132.58,191.91Z" transform="translate(-58.39 -62.93)"/><path class="cls-2" d="M142.66,231.37a8.28,8.28,0,1,0,7.79,8.74,8.28,8.28,0,0,0-7.79-8.74Z" transform="translate(-58.39 -62.93)"/><path class="cls-2" d="M133.51,287a6.83,6.83,0,1,0,9.16,3.06l0,0A6.83,6.83,0,0,0,133.51,287Z" transform="translate(-58.39 -62.93)"/><path class="cls-2" d="M165.66,214.27a9.74,9.74,0,1,0-2.81-13.49,9.73,9.73,0,0,0,2.81,13.49Z" transform="translate(-58.39 -62.93)"/><path class="cls-2" d="M267.7,171.1a8.29,8.29,0,1,0-2.41-11.47A8.29,8.29,0,0,0,267.7,171.1Z" transform="translate(-58.39 -62.93)"/><path class="cls-2" d="M284.69,141.89a5.36,5.36,0,1,0-1.55-7.42h0A5.36,5.36,0,0,0,284.69,141.89Z" transform="translate(-58.39 -62.93)"/><path class="cls-2" d="M269,222.81a16.58,16.58,0,1,0-1.9,33.11h.95a16.56,16.56,0,0,0,12.35-27.61A16.37,16.37,0,0,0,269,222.81Z" transform="translate(-58.39 -62.93)"/><path class="cls-2" d="M194.59,213.12a16.58,16.58,0,1,0-1.75-7.39A16.58,16.58,0,0,0,194.59,213.12Z" transform="translate(-58.39 -62.93)"/><path class="cls-2" d="M324.51,191.89a6.83,6.83,0,1,0-9.17-3v0A6.83,6.83,0,0,0,324.51,191.89Z" transform="translate(-58.39 -62.93)"/><path class="cls-2" d="M282.5,197.17a9.74,9.74,0,1,0,13.08,4.32h0a9.75,9.75,0,0,0-13.08-4.32Z" transform="translate(-58.39 -62.93)"/><path class="cls-2" d="M228.37,139.38a6.83,6.83,0,1,0-6.41-7.23v0h0A6.83,6.83,0,0,0,228.37,139.38Z" transform="translate(-58.39 -62.93)"/><path class="cls-2" d="M228.3,182.28A9.74,9.74,0,1,0,219.12,172a9.74,9.74,0,0,0,9.18,10.29Z" transform="translate(-58.39 -62.93)"/><path class="cls-2" d="M175.55,281.72a9.74,9.74,0,1,0-13.08-4.32h0a9.73,9.73,0,0,0,13.07,4.32Z" transform="translate(-58.39 -62.93)"/><path class="cls-2" d="M234.59,196.49A16.56,16.56,0,1,0,248.47,189,16.57,16.57,0,0,0,234.59,196.49Z" transform="translate(-58.39 -62.93)"/><path class="cls-2" d="M263.4,265.78a16.57,16.57,0,1,0-14.81,24,17,17,0,0,0,7.46-1.82A16.57,16.57,0,0,0,263.4,265.78Z" transform="translate(-58.39 -62.93)"/><path class="cls-2" d="M292.35,264.62a9.74,9.74,0,1,0,2.8,13.49h0a9.75,9.75,0,0,0-2.79-13.49Z" transform="translate(-58.39 -62.93)"/><path class="cls-2" d="M324.08,239.73a8.28,8.28,0,1,0-8.76,7.78,8.28,8.28,0,0,0,8.76-7.78Z" transform="translate(-58.39 -62.93)"/><path class="cls-2" d="M347,233.85a5.36,5.36,0,1,0,5,5.66h0A5.38,5.38,0,0,0,347,233.85Z" transform="translate(-58.39 -62.93)"/><path class="cls-2" d="M325.42,287a6.83,6.83,0,1,0,2,9.46h0A6.83,6.83,0,0,0,325.42,287Z" transform="translate(-58.39 -62.93)"/><path class="cls-2" d="M173.32,337a5.36,5.36,0,1,0,1.54,7.43A5.36,5.36,0,0,0,173.32,337Z" transform="translate(-58.39 -62.93)"/><path class="cls-2" d="M285.65,336.46a5.36,5.36,0,1,0,7.2,2.37h0a5.34,5.34,0,0,0-7.18-2.38Z" transform="translate(-58.39 -62.93)"/><path class="cls-2" d="M223.41,282.37a16.57,16.57,0,1,0-13.88,7.49A16.58,16.58,0,0,0,223.41,282.37Z" transform="translate(-58.39 -62.93)"/><path class="cls-2" d="M190.3,307.8a8.27,8.27,0,1,0,2.39,11.46,8.27,8.27,0,0,0-2.39-11.46Z" transform="translate(-58.39 -62.93)"/><path class="cls-2" d="M228.92,339.52a6.83,6.83,0,1,0,6.42,7.21v0a6.84,6.84,0,0,0-6.43-7.19Z" transform="translate(-58.39 -62.93)"/><path class="cls-2" d="M229,296.62a9.74,9.74,0,1,0,9.13,10.32h0v-.05A9.75,9.75,0,0,0,229,296.62Z" transform="translate(-58.39 -62.93)"/><path class="cls-2" d="M268.84,307.14A8.28,8.28,0,1,0,280,310.78h0a8.25,8.25,0,0,0-11.1-3.63h0Z" transform="translate(-58.39 -62.93)"/></svg>