<svg id="Layer_1" data-name="Layer 1" xmlns="http://www.w3.org/2000/svg" viewBox="0 0 349 346.55"><defs><style>.cls-1{fill:none;stroke:#fff;stroke-miterlimit:10;stroke-width:10px;fill-rule:evenodd;}.cls-2{fill:#fff;}</style></defs><path class="cls-1" d="M232.89,67.93c-93.61,0-169.5,75.34-169.5,168.27s75.89,168.28,169.5,168.28,169.5-75.34,169.5-168.28S326.5,67.93,232.89,67.93Z" transform="translate(-58.39 -62.93)"/><path class="cls-2" d="M232.9,168.27l59,33.9v67.94l-58.73,34-59-33.52V202.43Zm0-49.91L211.27,130.9,152.4,165.07,130.78,177.6V295.45l21.62,12.4,59,33.79L233,354.05l21.64-12.53,58.73-34.16L335,294.82v-118l-21.62-12.41-59-33.9L232.9,118.38Z" transform="translate(-58.39 -62.93)"/></svg>