<svg id="Layer_1" data-name="Layer 1" xmlns="http://www.w3.org/2000/svg" viewBox="0 0 349 346.55"><defs><style>.cls-1{fill:none;stroke:#fff;stroke-miterlimit:10;stroke-width:10px;fill-rule:evenodd;}.cls-2{fill:#fff;}</style></defs><path class="cls-1" d="M232.89,67.93c-93.61,0-169.5,75.34-169.5,168.27s75.89,168.28,169.5,168.28,169.5-75.34,169.5-168.28S326.5,67.93,232.89,67.93Z" transform="translate(-58.39 -62.93)"/><path class="cls-2" d="M340.49,187.82a23.54,23.54,0,0,0-3.17-10.49,15,15,0,0,0-8-7.18A23.58,23.58,0,0,0,318,167.67H171.71l-10.49,31.42H293.81L272.9,263.36H140.32l-10.49,31.39h147a40.24,40.24,0,0,0,12.83-2.48c4.12-2.33,8.83-4.71,12.82-8A63,63,0,0,0,313,273.78a71.34,71.34,0,0,0,6.46-12.1l19.42-61.07a22.55,22.55,0,0,0,1.61-12.79Z" transform="translate(-58.39 -62.93)"/><path class="cls-2" d="M213.49,216.64h-78l-10.49,29h78.81Z" transform="translate(-58.39 -62.93)"/></svg>