<svg id="Layer_1" data-name="Layer 1" xmlns="http://www.w3.org/2000/svg" viewBox="0 0 349 346.55"><defs><style>.cls-1{fill:none;stroke:#fff;stroke-miterlimit:10;stroke-width:10px;fill-rule:evenodd;}.cls-2{fill:#fff;}</style></defs><path class="cls-1" d="M248,67.93c-93.61,0-169.5,75.34-169.5,168.27S154.4,404.48,248,404.48s169.5-75.34,169.5-168.28S341.62,67.93,248,67.93Z" transform="translate(-73.51 -62.93)"/><path class="cls-2" d="M261.57,131.47a46.73,46.73,0,0,0-23.16,40.26c0,8.53,3.43,17.17,7.72,24.85,3.44,6.86,5.12,18.84-6.86,24.84-8.53,5.12-19.73,1.7-24.85-6.86-5.11-6.86-11.11-13.74-18.84-18.84a44.92,44.92,0,0,0-46.26,0,46.64,46.64,0,0,0,0,80.57,45,45,0,0,0,46.26,0c7.73-4.29,13.73-11.12,18-18.84,3.43-6,12.86-13.74,24.84-6.87,8.55,5.12,11.12,16.3,6.87,24.84a51.44,51.44,0,0,0-6.9,24.84,46.57,46.57,0,0,0,23.16,40.26,44.92,44.92,0,0,0,46.26,0,46.56,46.56,0,0,0,0-80.52c-7.72-4.29-16.3-6-25.7-6-7.74,0-18-5.12-18-18a17.58,17.58,0,0,1,18-18c8.52,0,18-1.71,25.7-6a46.55,46.55,0,0,0,0-80.53c-6.86-4.3-15.41-6-23.14-6s-16.29,1.7-23.11,6" transform="translate(-73.51 -62.93)"/></svg>