<svg id="Layer_1" data-name="Layer 1" xmlns="http://www.w3.org/2000/svg" viewBox="0 0 348 348"><defs><style>.cls-1{fill:none;stroke:#fff;stroke-miterlimit:10;stroke-width:10px;}.cls-2{fill:#fff;}</style></defs><path class="cls-1" d="M225.68,54.89a169,169,0,1,1-169,169,169,169,0,0,1,169-169" transform="translate(-51.68 -49.89)"/><path class="cls-2" d="M246.54,201.37V176.25H304V137.93H147.48v38.32H205v25.12c-46.73,2.17-81.86,11.4-81.86,22.49s35.15,20.32,81.86,22.5v80.55h41.57V246.36c46.65-2.18,81.71-11.4,81.71-22.5s-35.06-20.32-81.71-22.49m0,38.13h0c-1.16.08-7.2.43-20.61.43-10.73,0-18.28-.29-20.94-.44v0c-41.28-1.83-72.1-9-72.1-17.62s30.82-15.78,72.1-17.61v28.07c2.71.18,10.44.64,21.11.64,12.82,0,19.27-.54,20.45-.64V204.29c41.2,1.84,71.95,9,71.95,17.6s-30.8,15.77-72,17.61" transform="translate(-51.68 -49.89)"/></svg>