<svg id="Layer_1" data-name="Layer 1" xmlns="http://www.w3.org/2000/svg" xmlns:xlink="http://www.w3.org/1999/xlink" viewBox="0 0 124.15 101.51"><defs><style>.cls-1{fill:none;}.cls-2{fill:#00597c;}.cls-3{clip-path:url(#clip-path);}</style><clipPath id="clip-path" transform="translate(0.03 -0.05)"><path class="cls-1" d="M90.35,17,75.71,31.76c-1.62,1.65-3.74,4.07-3.17,6.17C72.9,39.27,67.8,49,67.8,49V73.47s1.28,2.59,3,3.49a15,15,0,0,0,8.06,1.7c4.06-.12,20.48.26,20.48.26l-18,35.73-52.76-5.11L-6.88,59.83-8.25,23.12S20.46,3.12,20.91,3s30-8,30-8L82.34,3.24Z"/></clipPath></defs><path class="cls-2" d="M122.66,45.55,97.84,20.73a5,5,0,0,0-7.07,0L77.18,34.36a5.07,5.07,0,0,0,0,7.14l2.25,2.33h5.23l-4.85-4.91a1.48,1.48,0,0,1,0-2l1.79-1.74,8.53,8.58h8.18L85.66,31.09l7.71-7.73a1.33,1.33,0,0,1,1.88,0l24.82,24.81a1.37,1.37,0,0,1,.38.94,1.33,1.33,0,0,1-.42.94l-1.37,1.31v5.2l4-4a5,5,0,0,0,0-7.07h0Z" transform="translate(0.03 -0.05)"/><path class="cls-2" d="M111,46.1H76a5.11,5.11,0,0,0-5.13,5V64.36H116V51.09a4.94,4.94,0,0,0-4.88-5H111ZM83,59.83a3.59,3.59,0,0,1-2.52-1,3.65,3.65,0,1,1,0-5.25A3.64,3.64,0,1,1,83,59.83Z" transform="translate(0.03 -0.05)"/><path class="cls-2" d="M70.79,70.36a5.13,5.13,0,0,0,5.13,5H111a5,5,0,0,0,4.94-5v-.3H70.79Z" transform="translate(0.03 -0.05)"/><g class="cls-3"><path class="cls-2" d="M101.71,55.49A51,51,0,0,1,.45,57.69v-.2c-.08-.65-.16-1.31-.22-2a4,4,0,0,0-.07-.92,12.44,12.44,0,0,1-.1-1.37c0-.81-.09-1.61-.09-2.37s0-1.61.06-2.41c0-.46.06-.91.1-1.37a7.28,7.28,0,0,1,.07-.93c.06-.67.14-1.33.23-2a.61.61,0,0,1,0-.19,51,51,0,0,1,101.26,2.2,3.51,3.51,0,0,0,.06.79c0,.49.08,1,.1,1.49,0,.8.07,1.6.07,2.4s0,1.61-.07,2.41c0,.51-.06,1-.1,1.51ZM93,70.69l.21-.46H79.08c-2.53,10.23-7,18.8-12.61,24.41l.22-.07.92-.35,1.17-.46.9-.4c.38-.17.76-.33,1.13-.51l.9-.45,1.08-.57.87-.49,1-.6.87-.54,1-.64c.28-.19.57-.38.84-.58s.65-.45,1-.68l.82-.62.92-.72c.27-.22.54-.44.8-.67l.88-.76.77-.7.84-.8.74-.74c.27-.27.53-.55.79-.83l.71-.78q.39-.42.75-.87c.23-.26.46-.54.68-.81l.71-.9.64-.84.66-.94.6-.87.62-1c.19-.3.38-.6.56-.9s.39-.67.58-1l.51-.93.53-1A8.25,8.25,0,0,0,93,70.69ZM66.66,7.06,66.44,7c5.62,5.61,10.08,14.17,12.61,24.4h14.1c-.06-.15-.13-.3-.2-.45-.15-.32-.31-.63-.47-1l-.53-1L91.44,28c-.19-.33-.38-.67-.58-1l-.56-.9-.62-1-.6-.87-.66-.94-.64-.84c-.24-.3-.47-.61-.71-.9s-.45-.55-.68-.81-.49-.59-.75-.87L85,19.1c-.24-.26-.52-.56-.79-.83l-.74-.74-.84-.8-.77-.7L81,15.27c-.26-.23-.53-.45-.8-.66l-.92-.73-.82-.62c-.32-.23-.64-.46-1-.68s-.56-.39-.84-.58l-1-.64-.91-.53-1-.6-.89-.5-1.08-.55-.9-.45-1.13-.46-.9-.39c-.39-.17-.78-.32-1.17-.47Zm8.82,28.77H53.19V65.75H75.51A79.44,79.44,0,0,0,76.9,50.83a80.36,80.36,0,0,0-1.39-15ZM53.16,70.23v26.9C62.64,95.67,70.67,85,74.49,70.23ZM74.51,31.36C70.66,16.58,62.66,6,53.19,4.5V31.36ZM97.45,50.83V48.67a4.81,4.81,0,0,0-.07-1c-.07-.3,0-.61-.07-.91a11.32,11.32,0,0,0-.16-1.54v-.11A46.42,46.42,0,0,0,95,35.88H80.1a83.8,83.8,0,0,1,0,29.88H95a46.54,46.54,0,0,0,2.15-9.25v-.06c.07-.52.12-1,.17-1.57l.06-.89a4.58,4.58,0,0,1,.07-1V50.86ZM7,65.72h14.9a82.63,82.63,0,0,1-1.35-14.89,83.83,83.83,0,0,1,1.33-15H7A46.83,46.83,0,0,0,4.84,45v.29c-.06.47-.11,1-.15,1.42s-.06.67-.08,1a8.39,8.39,0,0,1-.06,1c0,.71-.06,1.41-.06,2.12s0,1.42.06,2.13a5.6,5.6,0,0,0,.06,1c.06.35,0,.66.08,1s.09,1,.14,1.42v.29A47.69,47.69,0,0,0,7,65.75Zm19.43,0H48.71V35.83H26.38a81.56,81.56,0,0,0,0,29.88Zm1-34.36H48.71V4.5C39.23,6,31.2,16.58,27.38,31.36Zm0,38.84C31.21,85,39.25,95.64,48.73,97.1V70.2ZM8.72,31.36h14.1c2.52-10.23,7-18.79,12.6-24.4A46.82,46.82,0,0,0,8.72,31.36Zm26.7,63.25C29.8,89,25.34,80.43,22.81,70.2H8.72a46.76,46.76,0,0,0,26.7,24.44Z" transform="translate(0.03 -0.05)"/></g></svg>