<svg id="Layer_1" data-name="Layer 1" xmlns="http://www.w3.org/2000/svg" xmlns:xlink="http://www.w3.org/1999/xlink" viewBox="0 0 124.01 111.77"><defs><style>.cls-1,.cls-6{fill:none;}.cls-2{fill:#8353e0;}.cls-3{opacity:0.3;}.cls-4{clip-path:url(#clip-path);}.cls-5{clip-path:url(#clip-path-2);}.cls-6{stroke:#8353e0;stroke-miterlimit:10;stroke-width:3px;}</style><clipPath id="clip-path" transform="translate(0.02 0.04)"><rect class="cls-1" x="50.55" y="6.98" width="56.76" height="72.26"/></clipPath><clipPath id="clip-path-2" transform="translate(0.02 0.04)"><rect class="cls-1" x="0.44" y="4.88" width="50.12" height="67.74"/></clipPath></defs><path class="cls-2" d="M99.1,94.78H79.71c-3.85,0-5.4-1.5-5.41-5.32q-.06-13.87,0-27.75c0-4.58,1.79-5.91,6.29-4.87a80.08,80.08,0,0,0,38.13-.28c2.89-.73,4.52.33,5.1,3.29A11.49,11.49,0,0,1,124,62V89c0,4.31-1.44,5.73-5.75,5.74Q108.67,94.8,99.1,94.78Zm.09-9.1c.9,0,1.8-.07,2.69,0,2.3.22,2.67-.86,2.07-2.8-.53-1.71-.87-3.49-1.41-5.2a3,3,0,0,1,.67-3.48,5.14,5.14,0,0,0-.23-7.28l-.2-.18a5.41,5.41,0,0,0-7.35.07A5.19,5.19,0,0,0,95,74.14l.13.14a2.72,2.72,0,0,1,.65,3.25c-.33.92-.47,1.9-.72,2.85-1.57,6-1.82,5.27,4.14,5.3Z" transform="translate(0.02 0.04)"/><path class="cls-2" d="M89.34,54.59c-2.36-.44-4.43-.77-6.47-1.23a1.6,1.6,0,0,1-1-1.08c.19-4.4-.24-9,.88-13.14C85,30.74,93.6,25.79,102.47,26.91A18.06,18.06,0,0,1,117.9,43.54c.17,2.53,0,5.08.13,7.61.07,1.39-.59,1.89-1.78,2.1-1.85.33-3.68.7-5.9,1.12,0-3.26.09-6.34,0-9.42A10.5,10.5,0,0,0,103,35c-4.15-1.33-9,0-11.34,3.66a16.47,16.47,0,0,0-2.2,6.78C89.05,48.32,89.34,51.28,89.34,54.59Z" transform="translate(0.02 0.04)"/><path class="cls-2" d="M52.48,81.08a1.9,1.9,0,0,1-3.79.28,1.31,1.31,0,0,1,0-.28V2a1.9,1.9,0,0,1,3.79-.28,1.31,1.31,0,0,1,0,.28Z" transform="translate(0.02 0.04)"/><g class="cls-3"><g class="cls-4"><path class="cls-2" d="M4.25,41C12,33,19.45,25.63,28.42,20.05c16.36-10.18,32.74-9.67,49,.22,8.8,5.34,15.93,12.6,22.61,20.34a4.27,4.27,0,0,1,.3.51c-3.81,3.63-7.58,7.37-11.5,10.94A67.71,67.71,0,0,1,70.22,64.62C55.48,71,41.33,69.69,27.75,61.39c-6.2-3.82-11.4-8.86-16.56-13.93C9,45.23,6.64,43.16,4.25,41Zm68.14-.19A20,20,0,1,0,52.26,60.57,19.95,19.95,0,0,0,72.39,40.76Z" transform="translate(0.02 0.04)"/><path class="cls-2" d="M64.29,40.85c.32,5.29-4.42,11.62-11.45,11.8A11.91,11.91,0,0,1,40.47,41.22c0-.38,0-.75,0-1.13.4-7.56,7-11.65,11.79-11.32-1.87,3.76-1.79,7.37,1.21,10.49C56.56,42.55,60.31,42.76,64.29,40.85Z" transform="translate(0.02 0.04)"/></g></g><g class="cls-5"><path class="cls-2" d="M4.25,41C12,33,19.45,25.63,28.42,20.05c16.36-10.18,32.74-9.67,49,.22,8.8,5.34,15.93,12.6,22.61,20.34a4.27,4.27,0,0,1,.3.51c-3.81,3.63-7.58,7.37-11.5,10.94A67.71,67.71,0,0,1,70.22,64.62C55.48,71,41.33,69.69,27.75,61.39c-6.2-3.82-11.4-8.86-16.56-13.93C9,45.23,6.64,43.16,4.25,41Zm68.14-.19A20,20,0,1,0,52.26,60.57,19.95,19.95,0,0,0,72.39,40.76Z" transform="translate(0.02 0.04)"/><path class="cls-2" d="M64.29,40.85c.32,5.29-4.42,11.62-11.45,11.8A11.91,11.91,0,0,1,40.47,41.22c0-.38,0-.75,0-1.13.4-7.56,7-11.65,11.79-11.32-1.87,3.76-1.79,7.37,1.21,10.49C56.56,42.55,60.31,42.76,64.29,40.85Z" transform="translate(0.02 0.04)"/></g><path class="cls-6" d="M99.61,89.89v15.34a5,5,0,0,1-5,5H6.48a5,5,0,0,1-5-5V84.39a5,5,0,0,1,5-5h72.9" transform="translate(0.02 0.04)"/><path class="cls-2" d="M18.28,103.79v-4.4a8.39,8.39,0,0,1,.06-1,3.81,3.81,0,0,1,.22-1,5,5,0,0,1-.74.64c-.27.19-.56.37-.87.56l-3.71,2.16-1.83-3,3.71-2.17a9.18,9.18,0,0,1,1-.48,4.43,4.43,0,0,1,1-.3,5.06,5.06,0,0,1-1-.32,9.33,9.33,0,0,1-1-.5l-3.71-2.21,1.83-3L17,91c.31.19.6.38.88.57a5.14,5.14,0,0,1,.75.65,6.14,6.14,0,0,1-.3-2V85.78H22v4.4a6.73,6.73,0,0,1-.07,1,5.74,5.74,0,0,1-.21,1,4.6,4.6,0,0,1,.74-.65c.26-.19.55-.38.86-.57L27,88.77l1.83,3L25.14,94a10.21,10.21,0,0,1-1,.49,5.76,5.76,0,0,1-1,.3,5.06,5.06,0,0,1,1,.32,9.25,9.25,0,0,1,1,.49l3.71,2.22-1.83,3-3.71-2.21c-.32-.19-.62-.38-.89-.57a5.22,5.22,0,0,1-.76-.65,5.67,5.67,0,0,1,.33,2v4.44Z" transform="translate(0.02 0.04)"/><path class="cls-2" d="M38.61,103.79v-4.4a8.39,8.39,0,0,1,.06-1,4.82,4.82,0,0,1,.22-1,4.54,4.54,0,0,1-.74.64c-.27.19-.56.37-.87.56l-3.71,2.16-1.83-3,3.74-2.17a8.37,8.37,0,0,1,1-.48,4.43,4.43,0,0,1,1-.3,5.06,5.06,0,0,1-1-.32,9.33,9.33,0,0,1-1-.5l-3.72-2.21,1.83-3L37.3,91c.31.19.6.38.88.57a5.14,5.14,0,0,1,.75.65,6.14,6.14,0,0,1-.3-2V85.78h3.71v4.4a8.39,8.39,0,0,1-.06,1,5.76,5.76,0,0,1-.22,1,4.6,4.6,0,0,1,.74-.65c.27-.19.56-.38.86-.57l3.71-2.19,1.83,3L45.48,94a10.21,10.21,0,0,1-1,.49,5.76,5.76,0,0,1-1,.3,5.06,5.06,0,0,1,1,.32,9.25,9.25,0,0,1,1,.49l3.71,2.22-1.83,3-3.71-2.21c-.32-.19-.62-.38-.89-.57a5.22,5.22,0,0,1-.76-.65,5.67,5.67,0,0,1,.33,2v4.44Z" transform="translate(0.02 0.04)"/><path class="cls-2" d="M58.94,103.79v-4.4a8.39,8.39,0,0,1,.06-1,4.82,4.82,0,0,1,.22-1,4.54,4.54,0,0,1-.74.64c-.27.19-.56.37-.87.56l-3.71,2.16-1.82-3,3.71-2.17a8.37,8.37,0,0,1,1-.48,4.43,4.43,0,0,1,1-.3,5.06,5.06,0,0,1-1-.32,9.33,9.33,0,0,1-1-.5l-3.71-2.21,1.82-3L57.61,91c.31.19.6.38.88.57a5.14,5.14,0,0,1,.75.65,6.14,6.14,0,0,1-.3-2V85.78h3.71v4.4a8.39,8.39,0,0,1-.06,1,5.76,5.76,0,0,1-.22,1,4.6,4.6,0,0,1,.74-.65c.27-.19.56-.38.86-.57l3.71-2.19,1.83,3L65.8,94a10.21,10.21,0,0,1-1,.49,5.76,5.76,0,0,1-1,.3,5.06,5.06,0,0,1,1,.32,9.25,9.25,0,0,1,1,.49l3.71,2.22-1.83,3L64,98.59c-.32-.19-.62-.38-.89-.57a5.22,5.22,0,0,1-.76-.65,5.67,5.67,0,0,1,.33,2v4.44Z" transform="translate(0.02 0.04)"/><path class="cls-2" d="M79.27,103.79v-4.4a8.39,8.39,0,0,1,.06-1,4.82,4.82,0,0,1,.22-1,4.54,4.54,0,0,1-.74.64c-.27.19-.56.37-.86.56l-3.72,2.16-1.82-3,3.71-2.17a8.37,8.37,0,0,1,1-.48,4.43,4.43,0,0,1,1-.3,5.06,5.06,0,0,1-1-.32,9.33,9.33,0,0,1-1-.5l-3.71-2.21,1.82-3L78,91l.87.57a5.14,5.14,0,0,1,.75.65,6.14,6.14,0,0,1-.3-2V85.78H83v4.4a8.39,8.39,0,0,1-.06,1,5.76,5.76,0,0,1-.22,1,5.07,5.07,0,0,1,.74-.65c.27-.19.56-.38.86-.57L88,88.77l1.83,3L86.13,94a10.21,10.21,0,0,1-1,.49,5.76,5.76,0,0,1-1,.3,5.06,5.06,0,0,1,1,.32,9.25,9.25,0,0,1,1,.49l3.71,2.22-1.83,3L84.3,98.59c-.32-.19-.62-.38-.89-.57a5.22,5.22,0,0,1-.76-.65,5.67,5.67,0,0,1,.33,2v4.44Z" transform="translate(0.02 0.04)"/></svg>