<svg id="Layer_1" data-name="Layer 1" xmlns="http://www.w3.org/2000/svg" xmlns:xlink="http://www.w3.org/1999/xlink" viewBox="0 0 154.12 149.96"><defs><style>.cls-1{fill:none;}.cls-2{fill:#ef712b;}.cls-3{clip-path:url(#clip-path);}</style><clipPath id="clip-path" transform="translate(-38.81 -37.46)"><path class="cls-1" d="M88.65,163.14c-.52-1,0-31,0-31L121,129.6,133.28,119l18.58-21.64L101.29,29.76l-32.77-.28-47.73,47,4.91,68.3L50,163.14Z"/></clipPath></defs><path class="cls-2" d="M161,130.4h7.67c4.07,0,8.14,0,12.22,0A13.83,13.83,0,0,1,189,133a9.31,9.31,0,0,1,.28,15l-.51.41a8.25,8.25,0,0,1,3.36,7.66c-.36,3.05-1.65,5.54-4.5,7,3,5.1,2.09,9.61-2.46,12.5a25.88,25.88,0,0,1,1,3.64,6.87,6.87,0,0,1-6.31,7.89,23.79,23.79,0,0,1-2.8.18c-15.29,0-30.59,0-45.89,0-2.79,0-4.78-1.35-6.62-3.17a1.06,1.06,0,0,1-.19-.69q0-22.53,0-45.06a5.31,5.31,0,0,1,2.11-3.81c2.39-2.18,4.82-4.32,7.25-6.46,4.2-3.69,8.32-7.45,12.21-11.48,5.34-5.55,8.6-12.22,10.9-19.45.17-.53.34-1.06.52-1.59,1.26-3.74,4.33-4.54,7.35-4a8.09,8.09,0,0,1,5.71,4.13,15.75,15.75,0,0,1,1.68,10.57A42.42,42.42,0,0,1,166.92,120c-1.73,3.17-3.58,6.27-5.38,9.41Z" transform="translate(-38.81 -37.46)"/><path class="cls-2" d="M121,161.57c0,7.41,0,14.81,0,22.22a3.39,3.39,0,0,1-3.66,3.63c-5.63-.1-11.27,0-16.91,0-2.26,0-3.45-1.2-3.45-3.46V139.18c0-2.29,1.21-3.5,3.51-3.5,5.66,0,11.32,0,17,0,2.28,0,3.49,1.22,3.49,3.52Z" transform="translate(-38.81 -37.46)"/><g class="cls-3"><path class="cls-2" d="M143,90.27,93.15,40.41a10,10,0,0,0-14.22,0L51.63,67.7a10.24,10.24,0,0,0,0,14.36l4.53,4.64H66.61l-9.76-9.86a2.82,2.82,0,0,1-.77-2A2.73,2.73,0,0,1,56.85,73l3.61-3.5L77.59,86.7H94L68.68,61.22,84.16,45.68a2.68,2.68,0,0,1,3.79,0L137.8,95.49a2.68,2.68,0,0,1,.78,1.9,2.88,2.88,0,0,1-.85,1.89L134.9,102v10.44l8-8A10.06,10.06,0,0,0,143,90.27Zm0,0" transform="translate(-38.81 -37.46)"/><path class="cls-2" d="M119.62,91.38H49.12a10.24,10.24,0,0,0-10.31,10v26.67h90.74V101.4a9.92,9.92,0,0,0-9.93-10ZM63.45,119a7.3,7.3,0,0,1-5.07-2,7.32,7.32,0,1,1,0-10.55A7.31,7.31,0,1,1,63.45,119Zm0,0" transform="translate(-38.81 -37.46)"/><path class="cls-2" d="M38.81,140a10.29,10.29,0,0,0,10.31,10.08h70.5A10,10,0,0,0,129.55,140v-.59H38.81Zm0,0" transform="translate(-38.81 -37.46)"/></g></svg>