<svg id="Layer_1" data-name="Layer 1" xmlns="http://www.w3.org/2000/svg" xmlns:xlink="http://www.w3.org/1999/xlink" viewBox="0 0 64.3805 109.7277"><defs><style>.cls-1{fill:none;}.cls-2{fill:#8353e0;}.cls-3{fill:#fff;}.cls-4{clip-path:url(#clip-path);}.cls-5{clip-path:url(#clip-path-2);}.cls-6{clip-path:url(#clip-path-3);}</style><clipPath id="clip-path" transform="translate(-10.0295 -4.099)"><path class="cls-1" d="M52.21,47.159a22.17,22.17,0,0,0-4-20.1l4.13-5,7.05-3s9.33.67,9.63.67,8.93,3.44,9.23,4-.1,12.77,0,13.26-5.8,9.23-5.8,9.23l-11,3.73Z"/></clipPath><clipPath id="clip-path-2" transform="translate(-10.0295 -4.099)"><path class="cls-1" d="M34.77,19.089a22.09,22.09,0,0,1,12.7,7l-1.16.14a16.2,16.2,0,0,1,14-8.94l-.81-8-4.35-8L39.21-1.161s-9,4.43-8.74,5.26,1.68,8.79,1.87,9.47S34.77,19.089,34.77,19.089Z"/></clipPath><clipPath id="clip-path-3" transform="translate(-10.0295 -4.099)"><path class="cls-1" d="M9.07,46.919a22.7,22.7,0,0,0,44.08-.9l3.79.77,12.39.57,14.14.88-2.33,65.26H0l2-65.26Z"/></clipPath></defs><circle class="cls-2" cx="21.1405" cy="36.48" r="19.19"/><path class="cls-3" d="M39.51,41.459a4.5193,4.5193,0,0,0-2.64-1.55,3.55,3.55,0,0,0,2-3.89,3.9194,3.9194,0,0,0-.54-1.72,3.35,3.35,0,0,0-1.25-1.17,6.4968,6.4968,0,0,0-1.7-.68,12.7536,12.7536,0,0,0-2.17-.34v-3.79H30.93v3.68H29.09v-3.68H26.77v3.79H22.12v2.47h1.67a1.2,1.2,0,0,1,1.34,1v4.32h0v6.05a.81.81,0,0,1-.8468.7714L24.26,46.719H22.58l-.46,2.75h4.65v3.84h2.32v-3.8h1.84v3.78h2.28v-3.84a17.82,17.82,0,0,0,2.19-.23,8.5586,8.5586,0,0,0,1.83-.52,4.7307,4.7307,0,0,0,1.46-.88,4.1207,4.1207,0,0,0,1-1.34,5.8317,5.8317,0,0,0,.52-1.78,4.43,4.43,0,0,0-.67-3.22Zm-10.38-6.76h2.28a8.2431,8.2431,0,0,1,.93.12,4.742,4.742,0,0,1,.83.25,2.0687,2.0687,0,0,1,.72.42,1.9987,1.9987,0,0,1,.46.63,1.93,1.93,0,0,1,.19.88,2.1079,2.1079,0,0,1-.14.77,1.469,1.469,0,0,1-.4.58,4.2175,4.2175,0,0,1-.56.41,2.6527,2.6527,0,0,1-.73.28l-.78.16a5.5552,5.5552,0,0,1-.82.08H29.13Zm6.33,10.26a1.8854,1.8854,0,0,1-.96,1.05,5.4293,5.4293,0,0,1-.71.32,5.7134,5.7134,0,0,1-.84.21c-.33.06-.61.1-.86.13l-.88.06H29.13v-5.03h2.72a8.9807,8.9807,0,0,1,1.11.13c.3.07.63.16,1,.28a3.0791,3.0791,0,0,1,.87.46,2.1705,2.1705,0,0,1,.55.7,2.0005,2.0005,0,0,1,.23,1,1.92,1.92,0,0,1-.15.77Z" transform="translate(-10.0295 -4.099)"/><g class="cls-4"><path class="cls-2" d="M74.41,33.489A13.3,13.3,0,1,1,61.1,20.199h.01A13.3,13.3,0,0,1,74.41,33.489Zm-13.77,3.61.81-3.53,1.61-.61v-1.73l-1.17.44,1.32-5.57H58.49l-1.72,7.52-1.61.61v1.74l1.17-.44-1,4.3H66.44l.68-2.73Z" transform="translate(-10.0295 -4.099)"/></g><g class="cls-5"><path class="cls-2" d="M56.01,14.309a10.205,10.205,0,1,1,0-.01Zm-10.8-4.23a2.52,2.52,0,0,0,.3,2.07,1,1,0,0,1-.3171,1.3782l-.0029.0018a1,1,0,0,1-1.3783-.3168q-.0224-.0357-.0417-.0732a2.62,2.62,0,0,0-3.08-1.2,2.52,2.52,0,0,0,.58,4.93,2.63,2.63,0,0,0,2.55-1.34,1,1,0,0,1,1.349-.4245.9872.9872,0,0,1,.121.0745,1,1,0,0,1,.2564,1.3907l-.0064.0093a2.05,2.05,0,0,0-.35,1.38,2.61,2.61,0,0,0,5.15.35,2.49,2.49,0,0,0-1.23-2.61,2.9987,2.9987,0,0,0-1.5-.39,1,1,0,0,1,0-2,2.48,2.48,0,0,0,1.93-.81,2.37,2.37,0,0,0,.47-2.7,2.41,2.41,0,0,0-2.13-1.54A2.65,2.65,0,0,0,45.21,10.079Z" transform="translate(-10.0295 -4.099)"/></g><g class="cls-6"><path class="cls-2" d="M67.655,108.0645c0,.96.0045,1.8949-.001,2.8294a2.8812,2.8812,0,0,1-2.4566,2.8929,6.8588,6.8588,0,0,1-1.1372.0324q-2.5267-.0181-5.0535-.0465a2.8741,2.8741,0,0,1-2.8861-2.9056c-.0058-.9225-.001-1.8451-.001-2.7965H27.3179v.43c0,.7854.0029,1.5709-.0008,2.3563a2.8537,2.8537,0,0,1-2.8481,2.9405q-2.9067.0425-5.8146,0a2.8534,2.8534,0,0,1-2.85-2.9393c-.0045-.9222-.0008-1.8444-.0008-2.7838-.3607-.0433-.6861-.0685-1.0066-.123a5.7431,5.7431,0,0,1-4.7583-5.6014c-.0145-4.4974-.0014-8.9948-.0013-13.4922q0-8.3615-.0017-16.7228c-.0005-4.3961-.0168-8.7923.0045-13.1882a5.71,5.71,0,0,1,5.5745-5.6149c3.648-.04,7.2968-.0157,10.9453-.0165q9.9193-.0023,19.8389-.0009c7.107.0012,14.214-.0107,21.321.0137a5.7223,5.7223,0,0,1,5.7082,5.76c.0159,5.9036.0046,11.8073.0052,17.711q.0009,8.3624.0027,16.7248c0,2.9265.0137,5.8531-.0079,8.7795a5.766,5.766,0,0,1-5.51,5.7344C67.8555,108.0413,67.793,108.05,67.655,108.0645ZM64.714,79.236a15.9328,15.9328,0,0,0-3.6418-8.7238,4.6145,4.6145,0,0,1-.3115.39Q59.4295,72.2306,58.09,73.55a1.4146,1.4146,0,0,1-2.1433-.0886,1.3976,1.3976,0,0,1,.0721-1.8717c.8936-.9326,1.814-1.8394,2.7222-2.7579.1016-.1028.197-.2117.3116-.3354a15.85,15.85,0,0,0-8.67-3.5786c0,.2457.0008.4213,0,.5969-.0073,1.2665.0033,2.5336-.0308,3.7994a1.3809,1.3809,0,0,1-1.0469,1.2573,1.4215,1.4215,0,0,1-1.8039-1.4134c-.0234-1.2538-.0083-2.5083-.01-3.7625,0-.1458,0-.2915,0-.4858a15.9461,15.9461,0,0,0-8.6741,3.5882c.111.121.1915.215.2784.3025.8925.8985,1.794,1.7882,2.6766,2.6963a1.4351,1.4351,0,1,1-2.0174,2.0376c-.6374-.616-1.2632-1.2442-1.8861-1.875-.36-.3647-.7046-.7449-1.0825-1.1462a16,16,0,0,0-3.6295,8.72c.1823,0,.3185,0,.4548,0,1.2415.0012,2.4831-.0044,3.7245.0059a1.4433,1.4433,0,1,1-.0105,2.8807c-1.2414.0082-2.483.004-3.7245.0051-.1358,0-.2715,0-.4475,0a15.9362,15.9362,0,0,0,3.6392,8.7178c.1725-.2019.2947-.3654.4373-.5084q1.2343-1.2374,2.4774-2.4661a1.4328,1.4328,0,1,1,2.1212,1.925c-.895.9313-1.8142,1.8392-2.7222,2.758-.0941.0952-.1832.1953-.292.3117a15.8791,15.8791,0,0,0,8.677,3.5807c0-.207,0-.3568,0-.5065,0-1.2416-.0124-2.4833.0043-3.7246a1.4311,1.4311,0,0,1,1.9021-1.4012,1.4719,1.4719,0,0,1,.9825,1.5115c.0082,1.2161.0018,2.4323.0034,3.6485,0,.1458.012.2915.02.4755A15.9057,15.9057,0,0,0,59.1059,92.81c-1.023-.9989-2.0057-1.9484-2.9765-2.91a1.44,1.44,0,1,1,2.0345-2.0245q1.23,1.2151,2.4517,2.4385c.1565.1573.2849.3426.45.5444a15.9386,15.9386,0,0,0,3.6452-8.7336h-.446c-1.2542,0-2.5085.0056-3.7626-.0022a1.4445,1.4445,0,1,1-.0137-2.8871c.4558-.01.9121,0,1.3682,0C62.7921,79.2363,63.7272,79.236,64.714,79.236ZM15.832,74.95V86.4092l6.8678-5.73Z" transform="translate(-10.0295 -4.099)"/><path class="cls-2" d="M56.136,80.679a7.2,7.2,0,1,1-7.24-7.2092A7.2194,7.2194,0,0,1,56.136,80.679Z" transform="translate(-10.0295 -4.099)"/></g></svg>