<svg id="Layer_1" data-name="Layer 1" xmlns="http://www.w3.org/2000/svg" viewBox="0 0 141.318 103.9435"><defs><style>.cls-1{fill:#00a280;}.cls-2{fill:none;stroke:#fff;stroke-width:9px;}</style></defs><path class="cls-1" d="M19.8007,83.576q-.0013-21.7911.0033-43.5822c.0056-6.2694,1.9866-8.2037,8.3276-8.2042q34.9128-.0025,69.8256.0009c5.74.001,7.8271,2.0556,7.8307,7.8033.0143,22.9936.0372,45.9874-.0678,68.9806a6.7154,6.7154,0,0,1-1.7172,4.2355q-10.444,10.7729-21.21,21.2307a6.2879,6.2879,0,0,1-3.9665,1.6124c-17.2152.1066-34.4314.0778-51.6473.0657-5.1383-.0036-7.3566-2.2006-7.3671-7.4061Q19.767,105.9445,19.8007,83.576Zm55.24,45.8132c0-5.5363-.0025-10.7208.0007-15.9052.0041-6.5829,1.8407-8.44,8.3494-8.4441,5.3491-.0031,10.6981-.0006,16.1018-.0006V38.1729H26.1218v91.2163ZM81.4733,111.26v14.4788L95.79,111.26Z" transform="translate(-19.7954 -31.788)"/><path class="cls-1" d="M48.879,57.5314V90.9957H35.6312a4.6,4.6,0,0,1-.3171-1.2112c-.0252-8.5418-.0469-17.0839.01-25.6254a2.918,2.918,0,0,1,.8968-2.1813C40.0648,59.6431,44.0723,57.6693,48.879,57.5314Z" transform="translate(-19.7954 -31.788)"/><path class="cls-1" d="M72.2793,91.0143c0-3.8043-.0525-7.6226.0143-11.4388.0718-4.1023-.9389-8.8018.731-12.1331,1.6254-3.2424,6.0228-5.1138,9.2531-7.52A34.6456,34.6456,0,0,1,85.7709,57.93V91.0143Z" transform="translate(-19.7954 -31.788)"/><path class="cls-1" d="M67.487,91.099H53.9751V58.1507c2.178,1.6053,4.0028,2.8842,5.7538,4.2573q3.4966,2.7421,6.8826,5.6236a2.422,2.422,0,0,1,.8386,1.5757C67.5054,76.6917,67.487,83.7767,67.487,91.099Z" transform="translate(-19.7954 -31.788)"/><path class="cls-1" d="M71.8678,60.1338c3.7969-2.2075,7.2372-4.1293,10.5791-6.2094a5.25,5.25,0,0,0,1.7693-2.2923c.9286-2.09,2.407-3.1028,4.5688-2.26A3.0108,3.0108,0,0,1,90.6933,53.58c-.859,2.1138-2.4381,2.7209-4.6887,1.9579a3.9078,3.9078,0,0,0-2.79.2413C79.996,57.4968,76.8464,59.35,73.7371,61.26c-.8511.5229-1.38,1.5644-2.2259,2.1036-1.0511.67-2.3776,1.6154-3.3992,1.4279-1.0391-.1907-1.906-1.5658-2.7489-2.511-.8171-.9163-1.3189-2.2332-2.29-2.8707-2.8789-1.891-5.9208-3.5337-8.9631-5.3109-2.0759,1.9629-4.1055,2.6538-6.28.2737-.283-.31-1.2209-.2091-1.78-.0431a32.6487,32.6487,0,0,0-4.8758,1.73,4.72,4.72,0,0,0-2.008,2.0034c-1.0354,2.0432-2.4932,2.9648-4.6541,2.03a3.04,3.04,0,0,1-1.6947-4.312c.9182-2.13,2.6421-2.5615,4.7768-1.6485a3.0746,3.0746,0,0,0,2.0652.3132c3.0805-1.301,6.74-1.284,9.0045-4.5041,1.1453-1.6283,3.2677-.6454,5.0005.66a74.4084,74.4084,0,0,0,12.4167,7.986C67.6212,59.3224,70.3086,57.6949,71.8678,60.1338Z" transform="translate(-19.7954 -31.788)"/><path class="cls-1" d="M65.0032,103.3791v5.9993c-.8635.061-1.6923.1691-2.5212.17q-12.6652.0188-25.33.0064c-.48,0-.9623.017-1.4382-.0291-1.8584-.18-3.1623-1.0983-3.1452-3.0582.0181-2.0794,1.3009-3.0834,3.3658-3.0838q11.8017-.0024,23.6033-.0049C61.2548,103.3788,62.9723,103.3791,65.0032,103.3791Z" transform="translate(-19.7954 -31.788)"/><path class="cls-1" d="M64.9767,114.6372v6.1034c-4.8961,0-9.6644.0008-14.4327,0q-7.3357-.0015-14.6716-.005c-1.9225,0-3.1654-.9088-3.2948-2.8478a2.7678,2.7678,0,0,1,2.9118-3.2137C45.2508,114.5951,55.0132,114.6372,64.9767,114.6372Z" transform="translate(-19.7954 -31.788)"/><path class="cls-2" d="M154.464,79.3351,118.1381,42.9989a7.3063,7.3063,0,0,0-10.3326-.036l-.036.036L87.875,62.8831a7.45,7.45,0,0,0,0,10.4713l3.2986,3.3808h7.6146l-7.111-7.1932a2.0551,2.0551,0,0,1-.5652-1.4284,1.9831,1.9831,0,0,1,.5652-1.3975l2.6306-2.5485,12.4855,12.5676h11.9819l-18.497-18.5688,11.3037-11.3037a1.9628,1.9628,0,0,1,1.377-.5755,1.9422,1.9422,0,0,1,1.377.555l36.3465,36.3259a1.9627,1.9627,0,0,1,.5652,1.3872,2.0557,2.0557,0,0,1-.6166,1.377l-2.0552,2.0552v7.6146l5.8882-5.8985a7.3268,7.3268,0,0,0,.0068-10.3617Z" transform="translate(-19.7954 -31.788)"/><path class="cls-2" d="M137.4262,80.1469h-51.38a7.4707,7.4707,0,0,0-7.5118,7.3063v19.4423h66.1471V87.4532a7.1933,7.1933,0,0,0-7.0792-7.3056q-.0827-.0014-.1655-.0007Zm-40.95,20.1206a5.3335,5.3335,0,0,1-3.6891-1.48,5.3333,5.3333,0,1,1,0-7.6968,5.3333,5.3333,0,1,1,3.6891,9.1766Z" transform="translate(-19.7954 -31.788)"/><path class="cls-2" d="M78.5238,115.5891a7.5119,7.5119,0,0,0,7.5118,7.3577h51.38a7.2857,7.2857,0,0,0,7.2448-7.3264l0-.0313v-.4316H78.5238Z" transform="translate(-19.7954 -31.788)"/><path class="cls-1" d="M154.464,79.3351,118.1381,42.9989a7.3063,7.3063,0,0,0-10.3326-.036l-.036.036L87.875,62.8831a7.45,7.45,0,0,0,0,10.4713l3.2986,3.3808h7.6146l-7.111-7.1932a2.0551,2.0551,0,0,1-.5652-1.4284,1.9831,1.9831,0,0,1,.5652-1.3975l2.6306-2.5485,12.4855,12.5676h11.9819l-18.497-18.5688,11.3037-11.3037a1.9628,1.9628,0,0,1,1.377-.5755,1.9422,1.9422,0,0,1,1.377.555l36.3465,36.3259a1.9627,1.9627,0,0,1,.5652,1.3872,2.0557,2.0557,0,0,1-.6166,1.377l-2.0552,2.0552v7.6146l5.8882-5.8985a7.3268,7.3268,0,0,0,.0068-10.3617Z" transform="translate(-19.7954 -31.788)"/><path class="cls-1" d="M137.4262,80.1469h-51.38a7.4707,7.4707,0,0,0-7.5118,7.3063v19.4423h66.1471V87.4532a7.1933,7.1933,0,0,0-7.0792-7.3056q-.0827-.0014-.1655-.0007Zm-40.95,20.1206a5.3335,5.3335,0,0,1-3.6891-1.48,5.3333,5.3333,0,1,1,0-7.6968,5.3333,5.3333,0,1,1,3.6891,9.1766Z" transform="translate(-19.7954 -31.788)"/><path class="cls-1" d="M78.5238,115.5891a7.5119,7.5119,0,0,0,7.5118,7.3577h51.38a7.2857,7.2857,0,0,0,7.2448-7.3264l0-.0313v-.4316H78.5238Z" transform="translate(-19.7954 -31.788)"/></svg>