<svg id="Layer_1" data-name="Layer 1" xmlns="http://www.w3.org/2000/svg" xmlns:xlink="http://www.w3.org/1999/xlink" viewBox="0 0 120.58 126.86"><defs><style>.cls-1{fill:none;}.cls-2{fill:#8230db;}.cls-3{clip-path:url(#clip-path);}</style><clipPath id="clip-path" transform="translate(0 0)"><polygon class="cls-1" points="45.09 75.76 90.49 75.76 133.29 22.91 79.32 -14.35 -6.73 8.51 -16.44 68.9 1.09 78.42 33.22 64.9 38.99 66.42 45.09 75.76"/></clipPath></defs><path class="cls-2" d="M40.11,73.94A22,22,0,0,1,40,71.13a27.42,27.42,0,0,1,.17-3h-.28c-5.15.38-8.22,3.84-8.22,9.28v40.18c0,5.73,3.49,9.24,9.23,9.27H93.67c4.18,0,7.44-1.91,8.44-5.53.73-2.64.66-5.51,1-8.41H91.87a10.5,10.5,0,0,1,0-21c3.6-.1,7.21,0,10.78,0,.94-6.85-2.73-11.21-9.3-11.22H41.69c-2.76,0-4.38-1.3-4.39-3.45A3.24,3.24,0,0,1,39.9,74Z" transform="translate(0 0)"/><path class="cls-2" d="M97.46,110.32H92.11a8.11,8.11,0,0,1,0-16.22h0c3.7-.08,7.39,0,11.09,0,2.14,0,3.14,1,3.16,3.15v9.9c0,2.15-1,3.14-3.14,3.18C101.29,110.35,99.37,110.32,97.46,110.32Zm-2-8.13a2.4,2.4,0,1,0,0,.1v-.1Z" transform="translate(0 0)"/><g class="cls-3"><path class="cls-2" d="M48.13,47.06,87.58,0l33,27.7-53,63.22L40.9,68.57l.24-.55c4.09,1.27,8.17,2.58,12.28,3.79,6,1.75,11.16-1.24,12.58-7.18.92-3.86-.93-7.87-4.92-10.21C56.9,52,52.66,49.62,48.13,47.06Zm43.6-.58a15.3,15.3,0,0,0-15-15.13A13.1,13.1,0,0,0,63.41,44.23v.19a15.15,15.15,0,0,0,15,15.06A12.92,12.92,0,0,0,91.72,47C91.73,46.79,91.73,46.64,91.73,46.48Z" transform="translate(0 0)"/><path class="cls-2" d="M12.75,56.4V29.82c15.58-4.5,30.89-11.1,47.15-3.31-3.61,4.33-7.48,9.16-11.63,13.73-.82.91-2.82.64-4.14,1.23-1.59.7-3.93,1.48-4.26,2.68S41,47.66,42.3,48.47c5.16,3.22,10.57,6,15.86,9,3.53,2,4.69,4.7,3.35,7.6s-3.87,3.75-7.61,2.55c-6.36-2-12.76-3.88-19-6.23a17.85,17.85,0,0,1-6.67-4.57c-2.52-2.79-5.06-3.56-8.54-2.28A69.61,69.61,0,0,1,12.75,56.4Z" transform="translate(0 0)"/><path class="cls-2" d="M0,25.88H8V62.05H3.38Z" transform="translate(0 0)"/><path class="cls-2" d="M82.54,51.07a8.78,8.78,0,0,1-1.91,1.4,6.81,6.81,0,0,1-2,.75l-.56-1.66a1.09,1.09,0,0,1,0-.44.83.83,0,0,1,.18-.43,1.16,1.16,0,0,1,.4-.33c.18-.09.37-.17.59-.26s.46-.19.71-.31a3.85,3.85,0,0,0,.74-.47L77.8,46.67c-.41.31-.83.61-1.28.89a4.46,4.46,0,0,1-1.4.6,3.63,3.63,0,0,1-1.54,0,4.18,4.18,0,0,1-1.7-.81,4,4,0,0,1-1.08-1.23,4.38,4.38,0,0,1-.54-1.61,5.12,5.12,0,0,1,.13-1.87,5.43,5.43,0,0,1,1-1.94l-.87-.79a.89.89,0,0,1-.26-.53.74.74,0,0,1,.16-.61l.71-.94,1.5,1.39a6.44,6.44,0,0,1,1.69-1.14,8.34,8.34,0,0,1,1.61-.5l.45,1.32a1.47,1.47,0,0,1,.08.51.73.73,0,0,1-.16.42,1.12,1.12,0,0,1-.28.25l-.42.26-.5.28a3.17,3.17,0,0,0-.54.36l2.71,2.49c.28-.21.56-.41.85-.6a7.2,7.2,0,0,1,.89-.53,5.34,5.34,0,0,1,.93-.38,3.3,3.3,0,0,1,2,0,3.81,3.81,0,0,1,1,.57,5.35,5.35,0,0,1,1.27,1.37,4.63,4.63,0,0,1,.64,1.69,5.12,5.12,0,0,1-.08,1.91,6.37,6.37,0,0,1-.87,2l1,.88a.83.83,0,0,1,.1,1.13l-.71.94Zm-9.15-6.25a1.29,1.29,0,0,0,1,.28,3,3,0,0,0,1.12-.43L73.2,42.55a3.57,3.57,0,0,0-.31.76,1.92,1.92,0,0,0,0,.63,1.12,1.12,0,0,0,.18.5A1.49,1.49,0,0,0,73.39,44.82Zm8,.51a1.24,1.24,0,0,0-1-.26,3.23,3.23,0,0,0-1.07.44l2.58,2.31a1.81,1.81,0,0,0-.49-2.5l0,0Z" transform="translate(0 0)"/></g></svg>