<svg id="Layer_1" data-name="Layer 1" xmlns="http://www.w3.org/2000/svg" xmlns:xlink="http://www.w3.org/1999/xlink" viewBox="0 0 124.9 118.94"><defs><style>.cls-1{fill:none;}.cls-2{clip-path:url(#clip-path);}.cls-3{fill:#8c8cf9;}.cls-4{fill:#fff;}.cls-5{clip-path:url(#clip-path-2);}.cls-6{clip-path:url(#clip-path-3);}.cls-7{clip-path:url(#clip-path-4);}</style><clipPath id="clip-path" transform="translate(-45.08 -53.14)"><rect class="cls-1" x="76.93" y="44.86" width="88.04" height="57.92"/></clipPath><clipPath id="clip-path-2" transform="translate(-45.08 -53.14)"><path class="cls-1" d="M128.31,103.21a25.81,25.81,0,0,0-4.61-23.37l4.81-5.79,8.2-3.48s10.85.78,11.19.78,10.39,4,10.73,4.69-.11,14.85,0,15.42-6.73,10.73-6.73,10.73l-12.79,4.34Z"/></clipPath><clipPath id="clip-path-3" transform="translate(-45.08 -53.14)"><path class="cls-1" d="M108,70.57a25.74,25.74,0,0,1,14.77,8.15l-1.35.17a18.82,18.82,0,0,1,16.25-10.4l-.94-9.36-5.06-9.36L113.18,47s-10.5,5.15-10.16,6.11,2,10.22,2.17,11S108,70.57,108,70.57Z"/></clipPath><clipPath id="clip-path-4" transform="translate(-45.08 -53.14)"><path class="cls-1" d="M66.64,135.52h14.6l-.91,9.18s20,9.89,28.44,11.5l8.43,1.62h0v-.75s16.58-11.15,19-12.93a26.35,26.35,0,0,0,3.47-2.89L137.41,136l18-5.87-6.34-24L106.71,105s-26.54,1.13-26.38,0-1.16-15.92-1.16-15.92l-15,2.06Z"/></clipPath></defs><g class="cls-2"><circle class="cls-3" cx="58.72" cy="42.42" r="22.31"/><path class="cls-4" d="M113.49,96.58a5.32,5.32,0,0,0-3.06-1.8,4.15,4.15,0,0,0,2.29-4.52,4.42,4.42,0,0,0-.64-2,4,4,0,0,0-1.44-1.37,8.17,8.17,0,0,0-2-.78,15.47,15.47,0,0,0-2.45-.4V81.3h-2.7v4.29l-2.13,0V81.3h-2.7v4.41l-1.7,0-3.71,0v2.87h1.94a1.39,1.39,0,0,1,1.56,1.19v5a1.1,1.1,0,0,1,.28,0h-.28v7a.93.93,0,0,1-1,.9h-2l-.54,3.2h5.41v4.46h2.7V106l2.13,0v4.39h2.7V106a24.29,24.29,0,0,0,2.55-.26,10,10,0,0,0,2.12-.61,5.65,5.65,0,0,0,1.7-1,4.83,4.83,0,0,0,1.13-1.56,6.52,6.52,0,0,0,.57-2.19,5.2,5.2,0,0,0-.79-3.75Zm-12.06-7.8h.69l.95,0c.25,0,.58,0,1,0s.79.09,1.08.14a6.74,6.74,0,0,1,1,.29,2.78,2.78,0,0,1,.84.49,2.3,2.3,0,0,1,.53.74,2.25,2.25,0,0,1,.22,1,2.57,2.57,0,0,1-.15.9,1.79,1.79,0,0,1-.48.67,4.55,4.55,0,0,1-.64.47,3.21,3.21,0,0,1-.85.33l-.91.19a5.8,5.8,0,0,1-1,.09l-.87,0c-.2,0-.47,0-.82,0h-.6V88.78Zm7.36,11.92a2.35,2.35,0,0,1-.43.7,2.23,2.23,0,0,1-.69.52,4.94,4.94,0,0,1-.83.37,5.9,5.9,0,0,1-1,.25c-.38.07-.72.12-1,.15l-1,.07-.92,0h-1.49V96.85l.83,0,1.13,0c.29,0,.69,0,1.21,0a11.3,11.3,0,0,1,1.29.16,8.27,8.27,0,0,1,1.15.33,3.3,3.3,0,0,1,1,.53,2.69,2.69,0,0,1,.64.8,2.46,2.46,0,0,1,.1,2Zm0,0" transform="translate(-45.08 -53.14)"/><g class="cls-5"><path class="cls-3" d="M154.07,87.32a15.46,15.46,0,1,1-15.46-15.46A15.46,15.46,0,0,1,154.07,87.32Zm-16,4.2.95-4.11,1.87-.7v-2l-1.36.52L141,78.73h-5.49l-2,8.74-1.87.71v2l1.36-.51-1.14,5h12.92l.79-3.16Z" transform="translate(-45.08 -53.14)"/></g><g class="cls-6"><path class="cls-3" d="M132.69,65a11.87,11.87,0,1,1-11.87-11.87A11.87,11.87,0,0,1,132.69,65ZM120.06,60.1a2.91,2.91,0,0,0,.36,2.4,1.13,1.13,0,0,1-.38,1.61,1.18,1.18,0,0,1-1.65-.46,3,3,0,0,0-3.58-1.39,3,3,0,0,0-2.06,3.16A3,3,0,0,0,115.48,68a3.09,3.09,0,0,0,3-1.57,1.19,1.19,0,0,1,1.71-.41,1.14,1.14,0,0,1,.29,1.63,2.49,2.49,0,0,0-.41,1.61,3,3,0,0,0,6,.4,2.9,2.9,0,0,0-1.38-3,3.28,3.28,0,0,0-1.74-.45,1.16,1.16,0,1,1,0-2.32,2.88,2.88,0,0,0,2.24-.94,2.75,2.75,0,0,0,.55-3.14A2.8,2.8,0,0,0,123.26,58,3.09,3.09,0,0,0,120.06,60.1Z" transform="translate(-45.08 -53.14)"/></g></g><path class="cls-3" d="M45.08,140.83H76.2l-.53,6.09a86.76,86.76,0,0,0,13.91,6.76c7,2.51,16.11,6.22,17.86,6.75s2.4.8,2.4.8-6.49,4.37-13.11,5.16a70.45,70.45,0,0,1-16.82,0c-4.37-.53-6.62-.93-6.62-.93l-.66,6.63Z" transform="translate(-45.08 -53.14)"/><path class="cls-3" d="M101.1,166.92A135.07,135.07,0,0,0,124,156.46c8.74-5.17,19.73-14.31,19.73-14.31l-1.85-4L170,130,151,157.65l-1.33-3.58s-9.53,6.89-20.66,9.14S101.1,166.92,101.1,166.92Z" transform="translate(-45.08 -53.14)"/><g class="cls-7"><path class="cls-3" d="M78.3,99.36a23.22,23.22,0,0,1-.17-3,25.74,25.74,0,0,1,.19-3.18l-.31,0c-5.52.41-8.82,4.12-8.82,10q0,21.56,0,43.1c0,6.15,3.75,9.92,9.91,9.95,6.37,0,12.74,0,19.11,0,12.52,0,25.05,0,37.58,0,4.49,0,8-2,9.06-5.93.78-2.83.7-5.9,1-9-4.42,0-8.24.05-12.05,0a11.24,11.24,0,0,1,0-22.48c3.86-.11,7.74,0,11.57,0,1-7.35-2.94-12-10-12q-27.7,0-55.42,0c-3,0-4.7-1.39-4.72-3.7A3.48,3.48,0,0,1,78,99.44Z" transform="translate(-45.08 -53.14)"/><path class="cls-3" d="M139.52,138.69c-1.91,0-3.83,0-5.74,0a8.7,8.7,0,0,1,0-17.4c4-.08,7.93,0,11.89,0,2.3,0,3.37,1.08,3.39,3.39q.06,5.31,0,10.61c0,2.31-1.08,3.38-3.36,3.42C143.62,138.72,141.57,138.69,139.52,138.69ZM137.41,130a3.22,3.22,0,1,0-3.29,3.19A3.22,3.22,0,0,0,137.41,130Z" transform="translate(-45.08 -53.14)"/></g></svg>