<svg id="Layer_1" data-name="Layer 1" xmlns="http://www.w3.org/2000/svg" viewBox="0 0 136.4973 98.8612"><defs><style>.cls-1{fill:#8230db;}.cls-2{fill:#fff;}</style></defs><path class="cls-1" d="M90.45,83.14a30.6024,30.6024,0,0,1-6.13.76c-1.65.05-3.31,0-5,0,.09.35.12.57.18.78a19.93,19.93,0,0,0,38.32-1.7c.22-1,.4-2,.6-3V76.8c-.19-1-.35-1.92-.57-2.87A20,20,0,0,0,99.36,58.45a18.0493,18.0493,0,0,0-6.8.91,46.8458,46.8458,0,0,1,5.06,3.31,9.92,9.92,0,0,1,3,4.92v.13l1.11.42,1.49-3.82,2.33.91-1.46,3.74q1.26.45,1.86.69l1.44-3.71,2.34.91-1.49,3.81a14.341,14.341,0,0,1,2,1.17,7.3592,7.3592,0,0,1,1.44,1.34,3.7912,3.7912,0,0,1,.79,1.67,4.1,4.1,0,0,1-.12,2,3.85,3.85,0,0,1-3.51,3.13,4.23,4.23,0,0,1,1.46,6.1,6,6,0,0,1-1.22,1.7,4.49,4.49,0,0,1-1.51,1,5.3084,5.3084,0,0,1-1.81.32,10.0582,10.0582,0,0,1-2-.19,18.0622,18.0622,0,0,1-2.29-.64l-1.51,3.86-2.33-.9,1.48-3.8c-.8-.32-1.42-.56-1.84-.74l-1.55,3.75-2.33-.91,1.5-3.86-.82-.33-.83-.33-3-1.18.38-.64Z" transform="translate(0 0.5105)"/><path class="cls-1" d="M103.02,71.73l.6.22.82.31a7.4354,7.4354,0,0,1,.86.38,7.6644,7.6644,0,0,1,.89.48,4.9945,4.9945,0,0,1,.73.58,2.1783,2.1783,0,0,1,.56.7,2.2994,2.2994,0,0,1,.22.82,2.25,2.25,0,0,1-.16,1,2.34,2.34,0,0,1-.43.72,1.7784,1.7784,0,0,1-.64.42,3.8268,3.8268,0,0,1-.72.19,2.6418,2.6418,0,0,1-.84,0,4.6233,4.6233,0,0,1-.85-.13,6.5007,6.5007,0,0,1-.86-.24l-.77-.27-.71-.27-.51-.21,1.81-4.65Z" transform="translate(0 0.5105)"/><path class="cls-1" d="M105.37,84.52a2.3887,2.3887,0,0,1-.61.46,2.47,2.47,0,0,1-.78.22,6.1322,6.1322,0,0,1-.84,0,5.9989,5.9989,0,0,1-.92-.12,8.9974,8.9974,0,0,1-.91-.21c-.26-.07-.56-.16-.91-.28l-.81-.29-.73-.29-.56-.23,2-5.11.72.26,1,.37c.26.1.6.25,1,.45a9.2131,9.2131,0,0,1,1.07.57,7.62,7.62,0,0,1,.88.67,2.92,2.92,0,0,1,.69.8,2.43,2.43,0,0,1,.29.91,2.19,2.19,0,0,1-.15,1.06,2.3578,2.3578,0,0,1-.44.72Z" transform="translate(0 0.5105)"/><path class="cls-2" d="M105.37,84.52" transform="translate(0 0.5105)"/><path class="cls-1" d="M118.54,64.74a24.41,24.41,0,0,0-16.56-10.51l-.08-.08a18.12,18.12,0,1,1,16.71,10.57Zm3.25-6.3,1.4-.68a1.06,1.06,0,0,0,.56-.62,1.2,1.2,0,0,0,0-.77l-.61-1.6a8.4592,8.4592,0,0,0,2.23-1.85,6.52,6.52,0,0,0,1.24-2.19,5.9987,5.9987,0,0,0,.27-2.38,6.7187,6.7187,0,0,0-.68-2.38,4.79,4.79,0,0,0-.87-1.28,3.92,3.92,0,0,0-1.08-.81,4.3185,4.3185,0,0,0-1.21-.41,8.1993,8.1993,0,0,0-1.32-.11,10.4661,10.4661,0,0,0-1.36.09l-1.36.2-1.71-4.56a8.5453,8.5453,0,0,1,.85-.1h.77a5.9926,5.9926,0,0,0,.64,0,1.5206,1.5206,0,0,0,.48-.13.94.94,0,0,0,.44-.39,1.71,1.71,0,0,0,.21-.65l.26-1.82a9.232,9.232,0,0,0-2.19-.38,8.0028,8.0028,0,0,0-2.67.32l-.94-2.53-1.4.68a1.06,1.06,0,0,0-.56.62,1.16,1.16,0,0,0,0,.78l.55,1.45a7.24,7.24,0,0,0-2.3,1.71,6.7206,6.7206,0,0,0-1.26,2.13,5.54,5.54,0,0,0-.34,2.22,5.2991,5.2991,0,0,0,.54,2.09,5.39,5.39,0,0,0,1.51,2,4.67,4.67,0,0,0,1.84.88,6.1284,6.1284,0,0,0,2,.13,19.0864,19.0864,0,0,0,2-.28l1.82,4.87a5.35,5.35,0,0,1-1.16.1,7.755,7.755,0,0,1-1-.06,4.5748,4.5748,0,0,1-.85-.05,1.5693,1.5693,0,0,0-.67.14,1.24,1.24,0,0,0-.47.41,1.28,1.28,0,0,0-.23.54l-.34,2.28a8.9209,8.9209,0,0,0,2.85.35,12.1627,12.1627,0,0,0,3.1-.5Z" transform="translate(0 0.5105)"/><path class="cls-1" d="M113.79,42.91a1.75,1.75,0,0,0,1,.94,4.1511,4.1511,0,0,0,1.58.17l-1.45-3.89a4.29,4.29,0,0,0-.82.72,2.0012,2.0012,0,0,0-.43.7,1.5708,1.5708,0,0,0-.1.7A2.06,2.06,0,0,0,113.79,42.91Z" transform="translate(0 0.5105)"/><path class="cls-1" d="M122.88,48.3a1.61,1.61,0,0,0-1-.9,4.07,4.07,0,0,0-1.52-.12l1.59,4.24a2.35,2.35,0,0,0,.9494-3.1849Z" transform="translate(0 0.5105)"/><path class="cls-1" d="M0,38.57c.7-1.9,2.11-2.55,4.07-2.46,2.29.09,4.58,0,6.88,0s3.44,1.18,3.44,3.39V75.94c0,2.21-1.21,3.39-3.44,3.4s-4.59-.08-6.88,0c-2,.09-3.36-.57-4.07-2.45Z" transform="translate(0 0.5105)"/><path class="cls-1" d="M96.37,53.38a24.32,24.32,0,0,0-14.05,4,3.25,3.25,0,0,1-3.52-.07c-4.15-2.52-7.81-5.56-10.27-10.11-1.46,5.88-4.35,10.67-9.62,14.16.69,0,1,.07,1.4.07H80.16a22.6309,22.6309,0,0,1,8.19,1.29c3.67,1.43,5.52,4.09,5.47,7.83s-2,6.28-5.63,7.61a23.229,23.229,0,0,1-8,1.21c-5.11,0-10.22.08-15.34,0a20.63,20.63,0,0,0-7.6,1.28,32.66,32.66,0,0,1-12.53,2.31c-7.67-.3-15-2-21.53-6.11a32.073,32.073,0,0,1-4.63-4.05,2,2,0,0,1-.45-1.32V40.23c1.78-.15,3.49-.27,5.2-.43A53.0018,53.0018,0,0,0,40.2,34.88a171.9313,171.9313,0,0,1,25.08-9,12.24,12.24,0,0,1,12.75,3.64,161.5819,161.5819,0,0,1,17.87,23A8.0825,8.0825,0,0,1,96.37,53.38Z" transform="translate(0 0.5105)"/><path class="cls-1" d="M75.19,22.16v-1a21.21,21.21,0,0,1,42.41-.9208q.01.46,0,.9208a22.4534,22.4534,0,0,1-.16,2.61l-.06.43a22.59,22.59,0,0,0-20.95,18,.18.18,0,0,1-.17.11H95.02a145.1411,145.1411,0,0,0-13.3-16.19,13.1394,13.1394,0,0,0-6.44-3.89Zm21.53,9.72,7.84-11.1a.46.46,0,0,0-.24.08l-7.47,4.37a.39.39,0,0,0-.22.41v6.27Zm-.58,0V25.59a.38.38,0,0,0-.23-.39l-7.44-4.35-.25-.13.17.27,4.29,6.07q1.71,2.4,3.4,4.82Zm.54-26.54a.25.25,0,0,0,0,.08v9.26c0,.18.08.24.22.3l7.3,3.25.29.12-7.8-13Zm-8,12.83,7.33-3.2c.18-.08.18-.19.18-.34V5.28l-7.73,13Zm8.06,5.49,8-4.69-8-3.51Zm-8.57-4.69,8,4.69v-8.2Z" transform="translate(0 0.5105)"/></svg>