<svg id="Layer_1" data-name="Layer 1" xmlns="http://www.w3.org/2000/svg" viewBox="0 0 136.5 98.86"><defs><style>.cls-1{fill:#553a8b;}.cls-2{fill:#fff;}</style></defs><path class="cls-1" d="M90.45,83.65a30.87,30.87,0,0,1-6.13.76c-1.65,0-3.31,0-5,0,.09.35.12.57.18.78a19.93,19.93,0,0,0,38.32-1.7c.22-1,.4-2,.6-3V77.31c-.19-1-.35-1.92-.57-2.87A20,20,0,0,0,99.36,59a18.26,18.26,0,0,0-6.8.91,45.83,45.83,0,0,1,5.06,3.31,10,10,0,0,1,3,4.92v.13l1.11.42,1.49-3.82,2.33.91-1.46,3.74q1.26.45,1.86.69l1.44-3.71,2.34.91-1.49,3.81a14.73,14.73,0,0,1,2,1.17,7.32,7.32,0,0,1,1.44,1.34,3.74,3.74,0,0,1,.79,1.67,4.11,4.11,0,0,1-.12,2,3.84,3.84,0,0,1-3.51,3.13,4.23,4.23,0,0,1,1.68,5.74c-.07.12-.14.24-.22.36a6,6,0,0,1-1.22,1.7,4.53,4.53,0,0,1-1.51,1,5.31,5.31,0,0,1-1.81.32,10.34,10.34,0,0,1-2-.19,18.07,18.07,0,0,1-2.29-.64L100,92.64l-2.33-.9,1.48-3.8c-.8-.32-1.42-.56-1.84-.74L95.72,91,93.39,90l1.5-3.86-.82-.33-.83-.33-3-1.18.38-.64Z" transform="translate(0 0)"/><path class="cls-1" d="M103,72.24l.6.22.82.31a9.37,9.37,0,0,1,.86.38,7.63,7.63,0,0,1,.89.48,4.54,4.54,0,0,1,.73.58,2.25,2.25,0,0,1,.56.7,2.38,2.38,0,0,1,.22.82,2.45,2.45,0,0,1-.59,1.72,1.7,1.7,0,0,1-.64.42,3.47,3.47,0,0,1-.72.19,2.37,2.37,0,0,1-.84,0,4.85,4.85,0,0,1-.85-.13,6.46,6.46,0,0,1-.86-.24l-.77-.27-.71-.27-.51-.21L103,72.29Z" transform="translate(0 0)"/><path class="cls-1" d="M105.37,85a2.28,2.28,0,0,1-.61.46,2.4,2.4,0,0,1-.78.22,5.89,5.89,0,0,1-.84,0,9.59,9.59,0,0,1-1.83-.33c-.26-.07-.56-.16-.91-.28l-.81-.29-.73-.29-.56-.23,2-5.11.72.26,1,.37c.26.1.6.25,1,.45a9.93,9.93,0,0,1,1.07.57,8.16,8.16,0,0,1,.88.67,2.79,2.79,0,0,1,.69.8,2.43,2.43,0,0,1,.29.91,2.13,2.13,0,0,1-.15,1.06,2.33,2.33,0,0,1-.44.72Z" transform="translate(0 0)"/><path class="cls-2" d="M105.37,85" transform="translate(0 0)"/><path class="cls-1" d="M118.54,65.25A24.41,24.41,0,0,0,102,54.74l-.08-.08a18.12,18.12,0,1,1,24,8.92,17.9,17.9,0,0,1-7.31,1.65Zm3.25-6.3,1.4-.68a1,1,0,0,0,.56-.62,1.27,1.27,0,0,0,0-.77l-.61-1.6a8.44,8.44,0,0,0,2.23-1.85,6.61,6.61,0,0,0,1.24-2.19,6,6,0,0,0,.27-2.38,6.78,6.78,0,0,0-.68-2.38,4.83,4.83,0,0,0-.87-1.28,4.08,4.08,0,0,0-1.08-.81A4.32,4.32,0,0,0,123,44a8.4,8.4,0,0,0-1.32-.11,10.35,10.35,0,0,0-1.36.09l-1.36.2-1.71-4.56a8.2,8.2,0,0,1,.85-.1h1.41a1.55,1.55,0,0,0,.48-.13,1,1,0,0,0,.44-.39,1.84,1.84,0,0,0,.21-.65l.26-1.82a9.57,9.57,0,0,0-2.19-.38,8.05,8.05,0,0,0-2.67.32l-.94-2.53-1.4.68a1.07,1.07,0,0,0-.56.62,1.16,1.16,0,0,0,0,.78l.55,1.45a7.28,7.28,0,0,0-2.3,1.71,6.67,6.67,0,0,0-1.26,2.13,5.61,5.61,0,0,0-.34,2.22,5.22,5.22,0,0,0,.54,2.09,5.41,5.41,0,0,0,1.51,2,4.55,4.55,0,0,0,1.84.88,6.12,6.12,0,0,0,2,.13,19.24,19.24,0,0,0,2-.28l1.82,4.87a5,5,0,0,1-1.16.1,8.39,8.39,0,0,1-1-.06,4.85,4.85,0,0,1-.85-.05,1.71,1.71,0,0,0-.67.14,1.35,1.35,0,0,0-.7,1l-.34,2.28a8.85,8.85,0,0,0,2.85.35,12.09,12.09,0,0,0,3.1-.5Z" transform="translate(0 0)"/><path class="cls-1" d="M113.79,43.42a1.71,1.71,0,0,0,1,.94,4,4,0,0,0,1.58.17l-1.45-3.89a4.32,4.32,0,0,0-.82.72,2,2,0,0,0-.43.7,1.51,1.51,0,0,0-.1.7A2.23,2.23,0,0,0,113.79,43.42Z" transform="translate(0 0)"/><path class="cls-1" d="M122.88,48.81a1.62,1.62,0,0,0-1-.9,4.09,4.09,0,0,0-1.52-.12L122,52a2.34,2.34,0,0,0,1-3.18Z" transform="translate(0 0)"/><path class="cls-1" d="M0,39.08c.7-1.9,2.11-2.55,4.07-2.46,2.29.09,4.58,0,6.88,0S14.39,37.8,14.39,40V76.45c0,2.21-1.21,3.39-3.44,3.4s-4.59-.08-6.88,0c-2,.09-3.36-.57-4.07-2.45Z" transform="translate(0 0)"/><path class="cls-1" d="M96.37,53.89a24.32,24.32,0,0,0-14.05,4,3.25,3.25,0,0,1-3.52-.07C74.65,55.3,71,52.26,68.53,47.71c-1.46,5.88-4.35,10.67-9.62,14.16.69,0,1,.07,1.4.07H80.16a22.6,22.6,0,0,1,8.19,1.29c3.67,1.43,5.52,4.09,5.47,7.83s-2,6.28-5.63,7.61a23.14,23.14,0,0,1-8,1.21c-5.11,0-10.22.08-15.34,0a20.73,20.73,0,0,0-7.6,1.28,32.55,32.55,0,0,1-12.53,2.31c-7.67-.3-15-2-21.53-6.11a31.85,31.85,0,0,1-4.63-4A2,2,0,0,1,18.11,72V40.74c1.78-.15,3.49-.27,5.2-.43A53.11,53.11,0,0,0,40.2,35.39a172.64,172.64,0,0,1,25.08-9A12.24,12.24,0,0,1,78,30,161,161,0,0,1,95.9,53,8.92,8.92,0,0,1,96.37,53.89Z" transform="translate(0 0)"/><path class="cls-1" d="M75.19,22.67v-1a21.21,21.21,0,0,1,42.41-.92c0,.31,0,.61,0,.92a22.85,22.85,0,0,1-.16,2.61l-.06.43a22.58,22.58,0,0,0-20.95,18,.18.18,0,0,1-.17.11H95a145.23,145.23,0,0,0-13.3-16.19,13.1,13.1,0,0,0-6.44-3.89Zm21.53,9.72,7.84-11.1a.41.41,0,0,0-.24.08l-7.47,4.37a.38.38,0,0,0-.22.41v6.27Zm-.58,0V26.1a.38.38,0,0,0-.23-.39l-7.44-4.35-.25-.13.17.27,4.29,6.07q1.71,2.4,3.4,4.82Zm.54-26.54v9.34c0,.18.08.24.22.3l7.3,3.25.29.12-7.8-13Zm-8,12.83L96,15.48c.18-.08.18-.19.18-.34V5.79l-7.73,13Zm8.06,5.49,8-4.69-8-3.51Zm-8.57-4.69,8,4.69V16Z" transform="translate(0 0)"/></svg>