<svg id="Layer_1" data-name="Layer 1" xmlns="http://www.w3.org/2000/svg" xmlns:xlink="http://www.w3.org/1999/xlink" viewBox="0 0 137.33 123.68"><defs><style>.cls-1,.cls-6{fill:none;}.cls-2{fill:#ef712b;}.cls-3{opacity:0.3;}.cls-4{clip-path:url(#clip-path);}.cls-5{clip-path:url(#clip-path-2);}.cls-6{stroke:#ef712b;stroke-miterlimit:10;stroke-width:2px;}</style><clipPath id="clip-path" transform="translate(-38.95 -46.63)"><rect class="cls-1" x="94.54" y="54.4" width="63.16" height="80.42"/></clipPath><clipPath id="clip-path-2" transform="translate(-38.95 -46.63)"><rect class="cls-1" x="38.77" y="52.07" width="55.77" height="82.75"/></clipPath></defs><path class="cls-2" d="M148.56,152.12c-7.19,0-14.38,0-21.58,0-4.28,0-6-1.67-6-5.93q-.06-15.44,0-30.87c0-5.11,2-6.59,7-5.43a89.06,89.06,0,0,0,42.44-.31c3.22-.81,5,.37,5.67,3.66a12.53,12.53,0,0,1,.19,2.45q0,15,0,30c0,4.8-1.6,6.37-6.4,6.38C162.76,152.13,155.66,152.12,148.56,152.12Zm.1-10.13a30,30,0,0,1,3,0c2.55.23,3-1,2.3-3.13-.59-1.9-1-3.87-1.56-5.78a3.33,3.33,0,0,1,.74-3.88,5.72,5.72,0,0,0-.48-8.29,6,6,0,0,0-8.18.07,5.76,5.76,0,0,0-.34,8.31,3,3,0,0,1,.72,3.62c-.36,1-.52,2.12-.81,3.17C142.25,142.71,142,142,148.66,142Z" transform="translate(-38.95 -46.63)"/><path class="cls-2" d="M137.7,107.39c-2.63-.48-4.93-.85-7.2-1.37-.46-.11-1.14-.8-1.12-1.2.21-4.89-.27-10,1-14.62,2.52-9.35,12.07-14.86,21.95-13.61A20.09,20.09,0,0,1,169.48,95.1c.18,2.81,0,5.65.14,8.47.08,1.53-.65,2.1-2,2.33-2.06.37-4.1.78-6.56,1.25,0-3.63.1-7.06,0-10.48a11.7,11.7,0,0,0-8.16-11.14c-4.61-1.47-10,0-12.62,4.07a18.57,18.57,0,0,0-2.47,7.6C137.38,100.41,137.7,103.71,137.7,107.39Z" transform="translate(-38.95 -46.63)"/><rect class="cls-2" x="53.48" width="4.21" height="92.46" rx="2"/><g class="cls-3"><g class="cls-4"><path class="cls-2" d="M43,92.21c8.65-8.84,16.93-17,26.9-23.26,18.21-11.33,36.44-10.76,54.54.24,9.79,6,17.73,14,25.16,22.64a3.93,3.93,0,0,1,.33.57c-4.23,4-8.43,8.2-12.8,12.17-6.21,5.65-12.93,10.63-20.7,14-16.38,7.08-32.16,5.65-47.27-3.65-6.9-4.25-12.68-9.86-18.43-15.5C48.26,97,45.66,94.68,43,92.21ZM118.84,92a22.2,22.2,0,1,0-22.41,22A22.26,22.26,0,0,0,118.84,92Z" transform="translate(-38.95 -46.63)"/><path class="cls-2" d="M109.82,92.1c.37,5.88-4.91,12.93-12.74,13.13a13.25,13.25,0,0,1-13.73-14c.42-8.41,7.72-13,13.09-12.6-2.07,4.19-2,8.21,1.32,11.68C101.23,94,105.4,94.23,109.82,92.1Z" transform="translate(-38.95 -46.63)"/></g></g><g class="cls-5"><path class="cls-2" d="M43,92.21c8.65-8.84,16.93-17,26.9-23.26,18.21-11.33,36.44-10.76,54.54.24,9.79,6,17.73,14,25.16,22.64a3.93,3.93,0,0,1,.33.57c-4.23,4-8.43,8.2-12.8,12.17-6.21,5.65-12.93,10.63-20.7,14-16.38,7.08-32.16,5.65-47.27-3.65-6.9-4.25-12.68-9.86-18.43-15.5C48.26,97,45.66,94.68,43,92.21ZM118.84,92a22.2,22.2,0,1,0-22.41,22A22.26,22.26,0,0,0,118.84,92Z" transform="translate(-38.95 -46.63)"/><path class="cls-2" d="M109.82,92.1c.37,5.88-4.91,12.93-12.74,13.13a13.25,13.25,0,0,1-13.73-14c.42-8.41,7.72-13,13.09-12.6-2.07,4.19-2,8.21,1.32,11.68C101.23,94,105.4,94.23,109.82,92.1Z" transform="translate(-38.95 -46.63)"/></g><path class="cls-6" d="M149.13,146.67v17.64a5,5,0,0,1-5,5H45a5,5,0,0,1-5-5V139.93a5,5,0,0,1,5-5h81.67" transform="translate(-38.95 -46.63)"/><path class="cls-2" d="M58.62,162.15v-4.9a8.94,8.94,0,0,1,.07-1.14,4.71,4.71,0,0,1,.24-1.06,5.57,5.57,0,0,1-.82.71l-1,.62L53,158.78l-2-3.36L55.11,153a10.75,10.75,0,0,1,1.08-.53,4.68,4.68,0,0,1,1.1-.34,5.25,5.25,0,0,1-1.1-.36,11,11,0,0,1-1.08-.55L51,148.77l2-3.39,4.13,2.49c.34.2.67.42,1,.63a5.89,5.89,0,0,1,.84.72,6.4,6.4,0,0,1-.34-2.18V142.1h4.13V147a11,11,0,0,1-.07,1.16,5.22,5.22,0,0,1-.25,1.07,5.8,5.8,0,0,1,.83-.72c.3-.21.62-.43.95-.63l4.13-2.44,2,3.4-4.13,2.4a10.13,10.13,0,0,1-1.1.54,6.34,6.34,0,0,1-1.1.34,5.28,5.28,0,0,1,1.11.35,11.12,11.12,0,0,1,1.09.55l4.13,2.46-2,3.37-4.13-2.46c-.35-.21-.68-.42-1-.64a5.79,5.79,0,0,1-.85-.72,6.35,6.35,0,0,1,.37,2.18v5Z" transform="translate(-38.95 -46.63)"/><path class="cls-2" d="M81.24,162.15v-4.9a11.24,11.24,0,0,1,.07-1.14,4.71,4.71,0,0,1,.25-1.06,5.18,5.18,0,0,1-.83.71l-1,.62-4.13,2.4-2-3.36L77.74,153a9.66,9.66,0,0,1,1.07-.53,4.83,4.83,0,0,1,1.1-.34,5.44,5.44,0,0,1-1.1-.36,9.85,9.85,0,0,1-1.07-.55l-4.13-2.46,2-3.39,4.13,2.49c.34.2.67.42,1,.63a5.8,5.8,0,0,1,.83.72,6.65,6.65,0,0,1-.34-2.18V142.1h4.13V147a8.82,8.82,0,0,1-.07,1.16,6,6,0,0,1-.24,1.07,6.31,6.31,0,0,1,.82-.72c.3-.21.62-.43,1-.63L91,145.43l2,3.4-4.13,2.4c-.38.21-.75.39-1.1.54a6.19,6.19,0,0,1-1.11.34,5.18,5.18,0,0,1,1.12.35c.37.16.73.35,1.09.55L93,155.47l-2,3.37-4.13-2.46c-.35-.21-.69-.42-1-.64A6.36,6.36,0,0,1,85,155a6.12,6.12,0,0,1,.37,2.18v5Z" transform="translate(-38.95 -46.63)"/><path class="cls-2" d="M103.87,162.15v-4.9a8.94,8.94,0,0,1,.07-1.14,4.71,4.71,0,0,1,.24-1.06,5.57,5.57,0,0,1-.82.71l-1,.62-4.13,2.4-2-3.36,4.13-2.41a10.75,10.75,0,0,1,1.08-.53,4.68,4.68,0,0,1,1.1-.34,5.25,5.25,0,0,1-1.1-.36,11,11,0,0,1-1.08-.55l-4.13-2.46,2-3.39,4.13,2.49c.34.2.66.42,1,.63a5.89,5.89,0,0,1,.84.72,6.4,6.4,0,0,1-.34-2.18V142.1H108V147a11,11,0,0,1-.07,1.16,5.22,5.22,0,0,1-.25,1.07,6.4,6.4,0,0,1,.83-.72c.3-.21.62-.43,1-.63l4.13-2.44,2,3.4-4.12,2.4a11.24,11.24,0,0,1-1.11.54,6.34,6.34,0,0,1-1.1.34,5.1,5.1,0,0,1,1.11.35c.37.16.74.35,1.1.55l4.12,2.46-2,3.37-4.13-2.46a11.3,11.3,0,0,1-1-.64,5.79,5.79,0,0,1-.85-.72,6.35,6.35,0,0,1,.37,2.18v5Z" transform="translate(-38.95 -46.63)"/><path class="cls-2" d="M126.49,162.15v-4.9a11.24,11.24,0,0,1,.07-1.14,4.71,4.71,0,0,1,.25-1.06,5.18,5.18,0,0,1-.83.71l-1,.62-4.13,2.4-2-3.36L123,153a10.61,10.61,0,0,1,1.07-.53,5,5,0,0,1,1.1-.34,5.66,5.66,0,0,1-1.1-.36,10.86,10.86,0,0,1-1.07-.55l-4.13-2.46,2-3.39,4.13,2.49c.34.2.67.42,1,.63a5.89,5.89,0,0,1,.84.72,6.39,6.39,0,0,1-.35-2.18V142.1h4.13V147a8.82,8.82,0,0,1-.07,1.16,5.21,5.21,0,0,1-.24,1.07,6.31,6.31,0,0,1,.82-.72c.3-.21.63-.43,1-.63l4.13-2.44,2,3.4-4.13,2.4a11.11,11.11,0,0,1-1.1.54,6.34,6.34,0,0,1-1.1.34,5.28,5.28,0,0,1,1.11.35c.37.16.73.35,1.09.55l4.13,2.46-2,3.37-4.13-2.46c-.35-.21-.68-.42-1-.64a5.71,5.71,0,0,1-.84-.72,6.35,6.35,0,0,1,.36,2.18v5Z" transform="translate(-38.95 -46.63)"/></svg>