<svg id="Layer_1" data-name="Layer 1" xmlns="http://www.w3.org/2000/svg" viewBox="0 0 100.22 74.05"><defs><style>.cls-1{fill:#ef712b;}.cls-2,.cls-4{fill:none;stroke-width:4px;}.cls-2{stroke:#f5f3fa;}.cls-3{fill:#f5f3fa;}.cls-4{stroke:#f5f5fc;}</style></defs><path class="cls-1" d="M89.37,59q0-9.84,0-19.67c0-2.83.89-3.7,3.75-3.7h31.51c2.59,0,3.53.93,3.53,3.52,0,10.38,0,20.75,0,31.12a3,3,0,0,1-.77,1.92q-4.73,4.86-9.57,9.57a2.8,2.8,0,0,1-1.79.73c-7.77,0-15.54,0-23.31,0-2.31,0-3.32-1-3.32-3.34Q89.37,69.07,89.37,59ZM114.3,79.65V72.47c0-3,.83-3.81,3.77-3.81h7.26V38.49H92.23V79.65Zm2.9-8.18V78l6.46-6.53Z" transform="translate(-58.36 -35.61)"/><path class="cls-1" d="M102.49,47.22v15.1h-6a2.13,2.13,0,0,1-.15-.54c0-3.86,0-7.71,0-11.57a1.34,1.34,0,0,1,.4-1A11.68,11.68,0,0,1,102.49,47.22Z" transform="translate(-58.36 -35.61)"/><path class="cls-1" d="M113.05,62.33c0-1.71,0-3.44,0-5.16s-.42-4,.33-5.47,2.72-2.31,4.17-3.4c.44-.32,1-.54,1.58-.9V62.33Z" transform="translate(-58.36 -35.61)"/><path class="cls-1" d="M110.89,62.37h-6.1V47.5c1,.73,1.81,1.3,2.6,1.92,1,.83,2.09,1.67,3.11,2.54a1.1,1.1,0,0,1,.37.71C110.9,55.87,110.89,59.07,110.89,62.37Z" transform="translate(-58.36 -35.61)"/><path class="cls-1" d="M112.87,48.4c1.71-1,3.26-1.86,4.77-2.8a2.38,2.38,0,0,0,.8-1c.42-.94,1.08-1.4,2.06-1a1.36,1.36,0,0,1,.86,1.9,1.47,1.47,0,0,1-2.11.88,1.82,1.82,0,0,0-1.26.11c-1.46.78-2.88,1.61-4.28,2.48-.38.23-.62.7-1,1s-1.08.72-1.54.64-.86-.71-1.24-1.13-.59-1-1-1.3c-1.3-.85-2.67-1.59-4-2.39-.94.88-1.86,1.19-2.84.12-.13-.14-.55-.1-.8,0a14,14,0,0,0-2.2.78,2.19,2.19,0,0,0-.91.9c-.46.93-1.12,1.34-2.1.92a1.37,1.37,0,0,1-.76-2,1.44,1.44,0,0,1,2.15-.74,1.4,1.4,0,0,0,.94.14c1.39-.59,3-.58,4.06-2,.51-.74,1.47-.29,2.25.3a34.27,34.27,0,0,0,5.61,3.6C111,48,112.16,47.3,112.87,48.4Z" transform="translate(-58.36 -35.61)"/><path class="cls-1" d="M109.77,67.91v2.71c-.39,0-.76.07-1.14.07H97.2c-.21,0-.43,0-.65,0-.83-.08-1.42-.49-1.41-1.38s.58-1.39,1.51-1.39h13.12Z" transform="translate(-58.36 -35.61)"/><path class="cls-1" d="M109.76,73v2.75H96.63a1.31,1.31,0,0,1-1.49-1.28A1.24,1.24,0,0,1,96.45,73C100.86,73,105.26,73,109.76,73Z" transform="translate(-58.36 -35.61)"/><circle class="cls-2" cx="19.23" cy="36.68" r="17.23"/><circle class="cls-1" cx="19.23" cy="36.68" r="17.23"/><circle class="cls-2" cx="80.99" cy="36.68" r="17.23"/><circle class="cls-1" cx="80.99" cy="36.68" r="17.23"/><path class="cls-3" d="M77.9,83.78l6.63-9.37a.35.35,0,0,0-.21.07c-2.09,1.22-4.18,2.45-6.27,3.66a.34.34,0,0,0-.19.35v5.29Z" transform="translate(-58.36 -35.61)"/><path class="cls-3" d="M77.42,83.78c0-1.77,0-3.54,0-5.31a.33.33,0,0,0-.19-.33l-6.29-3.67-.21-.11.15.22,3.62,5.13c1,1.36,1.92,2.71,2.87,4.07Z" transform="translate(-58.36 -35.61)"/><path class="cls-3" d="M77.87,61.37s0,.05,0,.07v7.82c0,.15.07.2.19.25l6.21,2.72.24.09-6.59-11Z" transform="translate(-58.36 -35.61)"/><path class="cls-3" d="M71.07,72.21l6.19-2.71c.15-.06.16-.16.16-.29V61.55c0-.06,0-.12,0-.23l-6.53,11Z" transform="translate(-58.36 -35.61)"/><path class="cls-3" d="M77.88,76.84l6.76-4-6.76-3Z" transform="translate(-58.36 -35.61)"/><path class="cls-3" d="M70.64,72.88l6.76,4V69.92Z" transform="translate(-58.36 -35.61)"/><polygon class="cls-3" points="81.15 39.88 82.09 35.82 83.94 35.12 83.94 33.12 82.59 33.63 84.07 27.22 78.63 27.22 76.65 35.88 74.8 36.58 74.8 38.58 76.15 38.07 75.02 43.02 87.81 43.02 88.59 39.88 81.15 39.88"/><circle class="cls-4" cx="49.34" cy="51.44" r="20.61"/><circle class="cls-1" cx="49.34" cy="51.44" r="20.61"/><path class="cls-3" d="M117.42,87.71A4.89,4.89,0,0,0,114.57,86a3.88,3.88,0,0,0,2.13-4.2,4.25,4.25,0,0,0-.59-1.86,3.75,3.75,0,0,0-1.35-1.27,7.37,7.37,0,0,0-1.83-.73,15.09,15.09,0,0,0-2.28-.37v-4.1h-2.51v4l-2,0v-4h-2.51v4.1l-1.57,0-3.45,0v2.67h1.8a1.29,1.29,0,0,1,1.45,1.11v4.67h0v6.54a.87.87,0,0,1-.94.83H99.13l-.5,3h5v4.15h2.51v-4.1l2,0v4.08h2.51V96.43a18.91,18.91,0,0,0,2.37-.24,10.11,10.11,0,0,0,2-.56,5.4,5.4,0,0,0,1.58-.95,4.67,4.67,0,0,0,1.05-1.45,6.49,6.49,0,0,0,.53-2,4.88,4.88,0,0,0-.73-3.48Zm-11.21-7.25h.64l.88,0c.23,0,.55,0,.94,0s.73.08,1,.13a7.3,7.3,0,0,1,.9.27,2.64,2.64,0,0,1,.78.46,2.33,2.33,0,0,1,.49.68,2.11,2.11,0,0,1,.21.95,2.19,2.19,0,0,1-.15.83,1.56,1.56,0,0,1-.44.63,4.19,4.19,0,0,1-.6.44,3.11,3.11,0,0,1-.79.3q-.48.12-.84.18a8,8,0,0,1-.89.09l-.82,0q-.27,0-.75,0h-.56v-5Zm6.84,11.08a2.64,2.64,0,0,1-.4.65,2.33,2.33,0,0,1-.64.48,5.23,5.23,0,0,1-.78.35,6.6,6.6,0,0,1-.9.22,7.82,7.82,0,0,1-.93.14c-.26,0-.58.05-1,.07l-.86,0h-1.38V88l.77,0h1c.27,0,.64,0,1.12,0a10.2,10.2,0,0,1,1.21.15,9.76,9.76,0,0,1,1.06.3,3.07,3.07,0,0,1,.94.5,2.26,2.26,0,0,1,.6.75,2.19,2.19,0,0,1,.24,1,2.23,2.23,0,0,1-.15.83Zm0,0" transform="translate(-58.36 -35.61)"/><circle class="cls-1" cx="38.37" cy="11.46" r="1.63"/><circle class="cls-1" cx="45.08" cy="9.43" r="1.63"/><circle class="cls-1" cx="53.27" cy="13.53" r="1.63"/><circle class="cls-1" cx="61.5" cy="9.43" r="1.63"/></svg>