<svg id="Layer_1" data-name="Layer 1" xmlns="http://www.w3.org/2000/svg" xmlns:xlink="http://www.w3.org/1999/xlink" viewBox="0 0 124.14 101.96"><defs><style>.cls-1{fill:none;}.cls-2{fill:#ef712b;}.cls-3{clip-path:url(#clip-path);}</style><clipPath id="clip-path" transform="translate(-49.31 -53.47)"><path class="cls-1" d="M139.69,70.63,125.05,85.4c-1.62,1.65-3.74,4.11-3.17,6.17.36,1.34-4.74,11.08-4.74,11.08v24.46s1.28,2.59,3,3.49a15,15,0,0,0,8.06,1.7c4.06-.12,20.48.26,20.48.26l-18,35.73-52.76-5.11-35.46-49.7L41.09,76.76s28.71-20,29.16-20.14,30-8,30-8l31.43,8.26Z"/></clipPath></defs><path class="cls-2" d="M172,99.19,147.18,74.37a5,5,0,0,0-7.07,0L126.52,88a5.07,5.07,0,0,0,0,7.14l2.25,2.31H134l-4.85-4.91a1.37,1.37,0,0,1-.39-1,1.35,1.35,0,0,1,.39-1l1.79-1.74,8.53,8.58h8.18L135,84.73,142.71,77a1.33,1.33,0,0,1,1.88,0l24.82,24.81a1.34,1.34,0,0,1,.38.94,1.38,1.38,0,0,1-.42.94L168,105v5.2l4-4a5,5,0,0,0,0-7.08Zm0,0" transform="translate(-49.31 -53.47)"/><path class="cls-2" d="M160.36,99.74h-35.1a5.11,5.11,0,0,0-5.13,5V118H165.3V104.73a4.94,4.94,0,0,0-4.94-5Zm-28,13.74a3.6,3.6,0,0,1-2.52-1,3.65,3.65,0,1,1,0-5.25,3.64,3.64,0,1,1,2.52,6.26Zm0,0" transform="translate(-49.31 -53.47)"/><path class="cls-2" d="M120.13,124a5.13,5.13,0,0,0,5.13,5h35.1a5,5,0,0,0,4.94-5v-.3H120.13Zm0,0" transform="translate(-49.31 -53.47)"/><g class="cls-3"><path class="cls-2" d="M151.05,109.13a51,51,0,0,1-101.26,2.2l0-.2c-.08-.65-.16-1.31-.22-2,0-.3,0-.61-.07-.92s-.07-.91-.1-1.37c0-.81-.06-1.61-.06-2.42s0-1.61.06-2.41c0-.46.06-.91.1-1.37s0-.62.07-.93c.06-.67.14-1.33.23-2a1.11,1.11,0,0,1,0-.19,51,51,0,0,1,101.26,2.2c0,.27,0,.53.06.79,0,.49.08,1,.1,1.49,0,.8.07,1.6.07,2.4s0,1.61-.07,2.41c0,.51-.06,1-.1,1.51Zm-8.73,15.2.21-.46H128.42c-2.53,10.23-7,18.8-12.61,24.41l.22-.07.92-.35,1.17-.46.9-.4c.38-.17.76-.33,1.13-.51l.9-.45,1.08-.55L123,145l1-.6.87-.54,1-.64c.28-.19.57-.38.84-.58s.65-.45,1-.68l.82-.62.92-.72c.27-.22.54-.44.8-.67l.88-.76.77-.7.84-.8.74-.74c.27-.27.53-.55.79-.83l.71-.78q.39-.42.75-.87c.23-.26.46-.54.68-.81l.71-.9.64-.84.66-.94.6-.87.62-1c.19-.3.38-.6.56-.9s.39-.67.58-1l.51-.93.53-1C142,125,142.17,124.65,142.32,124.33ZM116,60.7l-.22-.07c5.62,5.61,10.08,14.17,12.61,24.4h14.1c-.06-.15-.13-.3-.2-.45-.15-.32-.31-.63-.47-1l-.53-1-.51-.93c-.19-.33-.38-.67-.58-1s-.37-.6-.56-.9l-.62-1-.6-.87-.66-.94-.64-.84c-.24-.3-.47-.61-.71-.9s-.45-.55-.68-.81-.49-.59-.75-.87-.47-.52-.71-.78-.52-.56-.79-.83-.49-.5-.74-.74l-.84-.8-.77-.7-.88-.76c-.26-.23-.53-.45-.8-.66s-.61-.49-.92-.73l-.82-.62c-.32-.23-.64-.46-1-.68s-.56-.39-.84-.58l-1-.64-.87-.54-1-.6-.89-.49-1.08-.55-.9-.45L119,61.91l-.9-.39c-.39-.17-.78-.32-1.17-.47Zm8.82,28.81H102.53v29.88h22.32a79.45,79.45,0,0,0,1.39-14.94A80.46,80.46,0,0,0,124.85,89.51Zm-22.32,34.36v26.9c9.48-1.46,17.51-12.09,21.33-26.9ZM123.85,85C120,70.22,112,59.6,102.53,58.14V85Zm22.94,19.42c0-.7,0-1.41,0-2.11,0-.35,0-.7-.07-1s0-.61-.07-.91c0-.52-.09-1-.16-1.54,0,0,0-.08,0-.11a46.79,46.79,0,0,0-2.15-9.23h-14.9a84,84,0,0,1,0,29.88h14.9a46.28,46.28,0,0,0,2.15-9.25v-.06c.07-.52.12-1,.17-1.57l.06-.89c0-.35.05-.7.07-1.05C146.77,105.86,146.79,105.16,146.79,104.45Zm-90.5,14.94h14.9a82.71,82.71,0,0,1-1.33-14.94,83.7,83.7,0,0,1,1.33-14.94H56.3a47,47,0,0,0-2.13,9.12l0,.29c-.06.47-.11,1-.15,1.42s-.06.67-.08,1,0,.65-.06,1c0,.71-.06,1.41-.06,2.12s0,1.42.06,2.13c0,.33,0,.65.06,1s.05.66.08,1,.09,1,.14,1.42c0,.1,0,.2,0,.29A47.1,47.1,0,0,0,56.29,119.39Zm19.43,0H98.05V89.51H75.72a81.56,81.56,0,0,0,0,29.88Zm1-34.36H98.05V58.14C88.57,59.6,80.54,70.22,76.72,85Zm0,38.84c3.81,14.81,11.85,25.44,21.33,26.9v-26.9ZM58.06,85h14.1c2.52-10.23,7-18.79,12.6-24.4A46.77,46.77,0,0,0,58.06,85Zm26.7,63.25c-5.62-5.62-10.08-14.18-12.61-24.41H58.06A46.73,46.73,0,0,0,84.76,148.28Z" transform="translate(-49.31 -53.47)"/></g></svg>