<svg id="Layer_1" data-name="Layer 1" xmlns="http://www.w3.org/2000/svg" viewBox="0 0 121.47 181.35"><defs><style>.cls-1{fill:#ef712b;}</style></defs><path class="cls-1" d="M144.77,137.44H70.67A10.77,10.77,0,0,0,59.84,148v28h95.37V148a10.44,10.44,0,0,0-10.44-10.54Zm-59,29a7.69,7.69,0,0,1-5.32-2.14,7.69,7.69,0,1,1,0-11.09,7.69,7.69,0,1,1,5.32,13.23Zm0,0" transform="translate(-46.79 -17.8)"/><path class="cls-1" d="M59.84,188.55a10.82,10.82,0,0,0,10.83,10.6h74.1a10.49,10.49,0,0,0,10.44-10.6v-.62H59.84Zm0,0" transform="translate(-46.79 -17.8)"/><polygon class="cls-1" points="104.64 16.95 109.84 27.49 121.47 29.18 113.05 37.38 115.04 48.97 104.64 43.5 94.24 48.97 96.22 37.38 87.81 29.18 99.44 27.49 104.64 16.95"/><polygon class="cls-1" points="16.83 16.95 22.03 27.49 33.66 29.18 25.25 37.38 27.23 48.97 16.83 43.5 6.43 48.97 8.42 37.38 0 29.18 11.63 27.49 16.83 16.95"/><polygon class="cls-1" points="58.88 0 65.8 14.02 81.28 16.27 70.08 27.19 72.72 42.6 58.88 35.33 45.04 42.6 47.68 27.19 36.48 16.27 51.96 14.02 58.88 0"/><path class="cls-1" d="M165.2,127.74h-23c-.82-12.42-6.24-22.13-16.72-29.13l12-20.83c2.91,2.25,5.77,4.18,8.31,6.48A57.27,57.27,0,0,1,164.68,120a15,15,0,0,0,.52,1.94Z" transform="translate(-46.79 -17.8)"/><path class="cls-1" d="M48.72,121.91c.78-3.58,1.34-7.22,2.38-10.72C55.29,97.06,63.75,86.12,76.41,78l12,20.65c-10.18,6.9-15.84,16.45-16.61,29.14h-23Z" transform="translate(-46.79 -17.8)"/><path class="cls-1" d="M79.62,76c18.42-8.9,36.33-8.92,54.6,0l-12,20.8a35.66,35.66,0,0,0-30.62,0Z" transform="translate(-46.79 -17.8)"/><path class="cls-1" d="M129.45,111.82c-6.5,6.19-12.94,12.45-19.54,18.53-2,1.89-5.46,1.1-7.16-1.24s-1.35-6.14,1.34-7.33c8.28-3.67,16.69-7,25-10.49Z" transform="translate(-46.79 -17.8)"/></svg>