<svg id="Layer_1" data-name="Layer 1" xmlns="http://www.w3.org/2000/svg" xmlns:xlink="http://www.w3.org/1999/xlink" viewBox="0 0 78.11 98.56"><defs><style>.cls-1{fill:none;}.cls-2{clip-path:url(#clip-path);}.cls-3{fill:#ef712b;}.cls-4{fill:#fff;}</style><clipPath id="clip-path" transform="translate(-60.7 -64.34)"><rect class="cls-1" x="68.27" y="54.03" width="86.08" height="56.63"/></clipPath></defs><g class="cls-2"><circle class="cls-3" cx="39.39" cy="27.34" r="27.34"/><path class="cls-4" d="M98.69,84.16a7.2,7.2,0,0,1-2.11,5.17,6.94,6.94,0,0,1-2.22,1.47,7,7,0,0,1-2.64.51,7.36,7.36,0,0,1-2.78-.51,6.4,6.4,0,0,1-2.19-1.47,6.7,6.7,0,0,1-1.45-2.26,7.81,7.81,0,0,1-.52-2.91,8.21,8.21,0,0,1,.52-3,6.78,6.78,0,0,1,1.45-2.3,6.45,6.45,0,0,1,2.19-1.49,7.17,7.17,0,0,1,2.78-.52,7.34,7.34,0,0,1,2.8.52,6.48,6.48,0,0,1,3.65,3.79A8.21,8.21,0,0,1,98.69,84.16ZM107.82,78a4.29,4.29,0,0,1,.74-.63,2.19,2.19,0,0,1,1.21-.29h4.51L92.39,105.28a2.2,2.2,0,0,1-1.83.88H85.94ZM94,84.16a7.07,7.07,0,0,0-.17-1.68,3,3,0,0,0-.47-1.07,1.66,1.66,0,0,0-.71-.56,2.5,2.5,0,0,0-1.76,0,1.58,1.58,0,0,0-.68.56,3.35,3.35,0,0,0-.44,1.07,7.78,7.78,0,0,0-.15,1.68,7,7,0,0,0,.15,1.59,3,3,0,0,0,.44,1,1.61,1.61,0,0,0,.68.54,2.5,2.5,0,0,0,1.76,0,1.69,1.69,0,0,0,.71-.54,2.69,2.69,0,0,0,.47-1A6.38,6.38,0,0,0,94,84.16Zm21.44,15.19a7.18,7.18,0,0,1-.58,2.92,7.09,7.09,0,0,1-1.53,2.27,6.75,6.75,0,0,1-2.22,1.46,6.86,6.86,0,0,1-2.64.52,7.17,7.17,0,0,1-2.78-.52,6.37,6.37,0,0,1-2.2-1.46,6.88,6.88,0,0,1-1.44-2.27,7.9,7.9,0,0,1-.52-2.92,8.14,8.14,0,0,1,.52-3,6.81,6.81,0,0,1,1.44-2.3,6.44,6.44,0,0,1,2.2-1.49,7.17,7.17,0,0,1,2.78-.53,7.35,7.35,0,0,1,2.8.53,6.48,6.48,0,0,1,3.65,3.79A8.14,8.14,0,0,1,115.39,99.35Zm-4.74,0a7.09,7.09,0,0,0-.17-1.67,2.9,2.9,0,0,0-.47-1.06,1.52,1.52,0,0,0-.71-.56,2.5,2.5,0,0,0-1.76,0,1.45,1.45,0,0,0-.68.56,3.28,3.28,0,0,0-.44,1.06,7.81,7.81,0,0,0-.15,1.67,7.15,7.15,0,0,0,.15,1.59,3,3,0,0,0,.44,1,1.51,1.51,0,0,0,.68.53,2.5,2.5,0,0,0,1.76,0A1.59,1.59,0,0,0,110,102a2.69,2.69,0,0,0,.47-1A6.5,6.5,0,0,0,110.65,99.35Z" transform="translate(-60.7 -64.34)"/></g><path class="cls-3" d="M69.61,107.32a23.87,23.87,0,0,1-.16-2.95,26.64,26.64,0,0,1,.18-3.11l-.29,0c-5.4.4-8.63,4-8.63,9.73q0,21.08,0,42.15c0,6,3.66,9.69,9.68,9.72,6.23,0,12.46,0,18.69,0q18.38,0,36.75,0c4.39,0,7.81-2,8.86-5.8.76-2.77.68-5.77,1-8.82-4.32,0-8.06.05-11.79,0a11,11,0,0,1,0-22c3.78-.11,7.57,0,11.31,0,1-7.19-2.87-11.77-9.76-11.78q-27.09,0-54.18,0c-2.9,0-4.6-1.36-4.61-3.62a3.41,3.41,0,0,1,2.7-3.45Z" transform="translate(-60.7 -64.34)"/><path class="cls-3" d="M129.47,145.78c-1.87,0-3.74,0-5.6,0a8.51,8.51,0,0,1,0-17c3.88-.08,7.75,0,11.63,0,2.25,0,3.29,1,3.32,3.3,0,3.46,0,6.93,0,10.39,0,2.25-1.07,3.3-3.3,3.34C133.49,145.81,131.48,145.78,129.47,145.78Zm-2.06-8.53a3.15,3.15,0,1,0-3.22,3.12A3.15,3.15,0,0,0,127.41,137.25Z" transform="translate(-60.7 -64.34)"/></svg>