<svg id="Layer_1" data-name="Layer 1" xmlns="http://www.w3.org/2000/svg" xmlns:xlink="http://www.w3.org/1999/xlink" viewBox="0 0 139.93 108.98"><defs><style>.cls-1,.cls-21,.cls-3,.cls-6,.cls-9{fill:none;}.cls-2{opacity:0.6;}.cls-3{stroke:#f5f3fa;}.cls-3,.cls-6{stroke-width:4px;}.cls-4{fill:url(#New_Gradient_Swatch_32);}.cls-5{fill:#f5f3fa;}.cls-21,.cls-6,.cls-9{stroke:#fbfbfb;}.cls-7{fill:url(#New_Gradient_Swatch_32-2);}.cls-8{fill:#fff;}.cls-9{stroke-width:7px;}.cls-10{fill:url(#New_Gradient_Swatch_32-3);}.cls-11{fill:#8c8cf9;}.cls-12{clip-path:url(#clip-path);}.cls-13{clip-path:url(#clip-path-2);}.cls-14{clip-path:url(#clip-path-3);}.cls-15{clip-path:url(#clip-path-4);}.cls-16{clip-path:url(#clip-path-5);}.cls-17{clip-path:url(#clip-path-6);}.cls-18{clip-path:url(#clip-path-7);}.cls-19{clip-path:url(#clip-path-8);}.cls-20{fill:url(#New_Gradient_Swatch_2);}.cls-21{stroke-miterlimit:10;stroke-width:5px;}.cls-22{fill:url(#linear-gradient);}</style><linearGradient id="New_Gradient_Swatch_32" x1="26.4" y1="70.68" x2="26.4" y2="21.88" gradientUnits="userSpaceOnUse"><stop offset="0" stop-color="#123962"/><stop offset="0.32" stop-color="#2754ba"/><stop offset="0.77" stop-color="#00aee6"/><stop offset="1" stop-color="#b1d4e5"/></linearGradient><linearGradient id="New_Gradient_Swatch_32-2" x1="114.13" y1="70.08" x2="114.13" y2="22.48" xlink:href="#New_Gradient_Swatch_32"/><linearGradient id="New_Gradient_Swatch_32-3" x1="70.07" y1="89.32" x2="70.07" y2="13.65" gradientTransform="translate(115.6 -22.59) rotate(85.27)" xlink:href="#New_Gradient_Swatch_32"/><clipPath id="clip-path" transform="translate(0 0.85)"><polygon class="cls-1" points="25.19 5.03 25.19 3.18 23.01 1 23.01 5.03 25.19 5.03"/></clipPath><clipPath id="clip-path-2" transform="translate(0 0.85)"><polygon class="cls-1" points="27.04 3.18 25.19 3.18 23.01 1 27.04 1 27.04 3.18"/></clipPath><clipPath id="clip-path-3" transform="translate(0 0.85)"><polygon class="cls-1" points="115.78 3.18 117.62 3.18 119.8 1 115.78 1 115.78 3.18"/></clipPath><clipPath id="clip-path-4" transform="translate(0 0.85)"><polygon class="cls-1" points="117.62 5.03 117.62 3.18 119.8 1 119.8 5.03 117.62 5.03"/></clipPath><clipPath id="clip-path-5" transform="translate(0 0.85)"><polygon class="cls-1" points="117.62 102.24 117.62 104.1 119.8 106.26 119.8 102.24 117.62 102.24"/></clipPath><clipPath id="clip-path-6" transform="translate(0 0.85)"><polygon class="cls-1" points="115.78 104.1 117.62 104.1 119.8 106.26 115.78 106.26 115.78 104.1"/></clipPath><clipPath id="clip-path-7" transform="translate(0 0.85)"><polygon class="cls-1" points="27.04 104.1 25.19 104.1 23.01 106.26 27.04 106.26 27.04 104.1"/></clipPath><clipPath id="clip-path-8" transform="translate(0 0.85)"><polygon class="cls-1" points="25.19 102.24 25.19 104.1 23.01 106.26 23.01 102.24 25.19 102.24"/></clipPath><linearGradient id="New_Gradient_Swatch_2" x1="21.15" y1="52.65" x2="121.66" y2="52.65" gradientTransform="translate(0 1.85)" xlink:href="#New_Gradient_Swatch_32"/><linearGradient id="linear-gradient" x1="82.72" y1="75.43" x2="120.74" y2="75.43" gradientUnits="userSpaceOnUse"><stop offset="0" stop-color="#b1d4e5"/><stop offset="0.23" stop-color="#00aee6"/><stop offset="0.68" stop-color="#2754ba"/><stop offset="1" stop-color="#123962"/></linearGradient></defs><g class="cls-2"><circle class="cls-3" cx="26.4" cy="46.28" r="24.4"/><circle class="cls-4" cx="26.4" cy="46.28" r="24.4"/><path class="cls-5" d="M26.84,61.71l9.39-13.28a.63.63,0,0,0-.29.1c-3,1.73-5.92,3.47-8.89,5.19a.48.48,0,0,0-.27.49v7.5Z" transform="translate(0 0.85)"/><path class="cls-5" d="M26.16,61.71V54.18a.47.47,0,0,0-.26-.46C22.9,52,20,50.25,17,48.51l-.3-.15c.1.15.15.24.21.32L22,55.94l4.07,5.77Z" transform="translate(0 0.85)"/><path class="cls-5" d="M26.8,30V41.14c0,.22.11.28.27.35l8.8,3.85.34.14L26.87,29.94Z" transform="translate(0 0.85)"/><path class="cls-5" d="M17.17,45.31l8.77-3.83c.21-.09.22-.22.22-.41V30.22a1.82,1.82,0,0,0,0-.33L16.92,45.42Z" transform="translate(0 0.85)"/><path class="cls-5" d="M26.81,51.87l9.58-5.6-9.58-4.2Z" transform="translate(0 0.85)"/><path class="cls-5" d="M16.56,46.27l9.58,5.61V42.07Z" transform="translate(0 0.85)"/><circle class="cls-6" cx="114.13" cy="46.28" r="23.8"/><circle class="cls-7" cx="114.13" cy="46.28" r="23.8"/><path class="cls-8" d="M125.75,45.52a5.33,5.33,0,0,0-3.14-1.85A4.18,4.18,0,0,0,125,39.06a4.66,4.66,0,0,0-.65-2.09,4.14,4.14,0,0,0-1.49-1.36,8.14,8.14,0,0,0-2-.81,14.92,14.92,0,0,0-2.48-.33V29.89h-2.75v4.39h-2.19V29.89h-2.76v4.54H105.1v2.92h2a1.44,1.44,0,0,1,1.62,1.22v0h0v5.13h0v7.2a1,1,0,0,1-1,.91h-2l-.56,3.28h5.53v4.54h2.76V55.17h2.19v4.48h2.75V55.1a25.15,25.15,0,0,0,2.6-.26,12,12,0,0,0,2.18-.63,5.69,5.69,0,0,0,1.73-1.05A4.57,4.57,0,0,0,126,51.57a6.62,6.62,0,0,0,.58-2.23,5.27,5.27,0,0,0-.81-3.83Zm-12.3-8h1.67a9,9,0,0,1,1,0,9.89,9.89,0,0,1,1.11.15,5.28,5.28,0,0,1,1,.29,2.94,2.94,0,0,1,.86.5,2.73,2.73,0,0,1,.55.76,2.47,2.47,0,0,1,.23,1,2.58,2.58,0,0,1-.17.91,1.87,1.87,0,0,1-.48.69,5,5,0,0,1-.66.48,3.09,3.09,0,0,1-.87.34l-.93.2a7.93,7.93,0,0,1-1,.09h-2.35ZM121,49.75a2.22,2.22,0,0,1-.44.72,2.52,2.52,0,0,1-.71.54,6.35,6.35,0,0,1-.84.38,10,10,0,0,1-1,.25c-.39.07-.73.11-1.05.14l-1,.08h-2.39V45.8h3.19A5.81,5.81,0,0,1,118,46a9.36,9.36,0,0,1,1.18.33,3.76,3.76,0,0,1,1,.55,2.91,2.91,0,0,1,.66.82,2.54,2.54,0,0,1,.1,2.09Z" transform="translate(0 0.85)"/></g><circle class="cls-9" cx="70.07" cy="51.49" r="37.84" transform="matrix(0.08, -1, 1, 0.08, 12.98, 117.92)"/><circle class="cls-10" cx="70.07" cy="51.49" r="37.84" transform="matrix(0.08, -1, 1, 0.08, 12.98, 117.92)"/><rect class="cls-11" x="23.01" y="91.66" width="2.18" height="5.71"/><rect class="cls-11" x="23.01" y="80.22" width="2.18" height="5.71"/><rect class="cls-11" x="23.01" y="68.78" width="2.18" height="5.71"/><rect class="cls-11" x="23.01" y="57.34" width="2.18" height="5.71"/><rect class="cls-11" x="23.01" y="45.9" width="2.18" height="5.71"/><rect class="cls-11" x="23.01" y="34.48" width="2.18" height="5.71"/><rect class="cls-11" x="23.01" y="23.04" width="2.18" height="5.71"/><rect class="cls-11" x="23.01" y="11.6" width="2.18" height="5.71"/><rect class="cls-11" x="32.95" y="1.85" width="5.91" height="2.18"/><rect class="cls-11" x="44.79" y="1.85" width="5.91" height="2.18"/><rect class="cls-11" x="56.61" y="1.85" width="5.91" height="2.18"/><rect class="cls-11" x="68.45" y="1.85" width="5.91" height="2.18"/><rect class="cls-11" x="80.28" y="1.85" width="5.91" height="2.18"/><rect class="cls-11" x="92.11" y="1.85" width="5.91" height="2.18"/><rect class="cls-11" x="103.94" y="1.85" width="5.91" height="2.18"/><rect class="cls-11" x="117.62" y="11.6" width="2.18" height="5.71"/><rect class="cls-11" x="117.62" y="23.04" width="2.18" height="5.71"/><rect class="cls-11" x="117.62" y="34.48" width="2.18" height="5.71"/><rect class="cls-11" x="117.62" y="45.9" width="2.18" height="5.71"/><rect class="cls-11" x="117.62" y="57.34" width="2.18" height="5.71"/><rect class="cls-11" x="117.62" y="68.78" width="2.18" height="5.71"/><rect class="cls-11" x="117.62" y="80.22" width="2.18" height="5.71"/><rect class="cls-11" x="117.62" y="91.66" width="2.18" height="5.71"/><rect class="cls-11" x="103.94" y="104.94" width="5.91" height="2.18"/><rect class="cls-11" x="92.11" y="104.94" width="5.91" height="2.18"/><rect class="cls-11" x="80.28" y="104.94" width="5.91" height="2.18"/><rect class="cls-11" x="68.45" y="104.94" width="5.91" height="2.18"/><rect class="cls-11" x="56.61" y="104.94" width="5.91" height="2.18"/><rect class="cls-11" x="44.79" y="104.94" width="5.91" height="2.18"/><rect class="cls-11" x="32.95" y="104.94" width="5.91" height="2.18"/><g class="cls-12"><rect class="cls-11" x="23.01" width="2.18" height="5.89"/></g><g class="cls-13"><rect class="cls-11" x="21.15" y="1.85" width="5.89" height="2.18"/></g><g class="cls-14"><rect class="cls-11" x="115.78" y="1.85" width="5.89" height="2.18"/></g><g class="cls-15"><rect class="cls-11" x="117.62" width="2.18" height="5.89"/></g><g class="cls-16"><rect class="cls-11" x="117.62" y="103.1" width="2.18" height="5.89"/></g><g class="cls-17"><rect class="cls-11" x="115.78" y="104.94" width="5.89" height="2.18"/></g><g class="cls-18"><rect class="cls-11" x="21.15" y="104.94" width="5.89" height="2.18"/></g><g class="cls-19"><rect class="cls-11" x="23.01" y="103.1" width="2.18" height="5.89"/></g><rect class="cls-20" x="23.01" y="91.66" width="2.18" height="5.71"/><rect class="cls-20" x="23.01" y="80.22" width="2.18" height="5.71"/><rect class="cls-20" x="23.01" y="68.78" width="2.18" height="5.71"/><rect class="cls-20" x="23.01" y="57.34" width="2.18" height="5.71"/><rect class="cls-20" x="23.01" y="45.9" width="2.18" height="5.71"/><rect class="cls-20" x="23.01" y="34.48" width="2.18" height="5.71"/><rect class="cls-20" x="23.01" y="23.04" width="2.18" height="5.71"/><rect class="cls-20" x="23.01" y="11.6" width="2.18" height="5.71"/><rect class="cls-20" x="32.95" y="1.85" width="5.91" height="2.18"/><rect class="cls-20" x="44.79" y="1.85" width="5.91" height="2.18"/><rect class="cls-20" x="56.61" y="1.85" width="5.91" height="2.18"/><rect class="cls-20" x="68.45" y="1.85" width="5.91" height="2.18"/><rect class="cls-20" x="80.28" y="1.85" width="5.91" height="2.18"/><rect class="cls-20" x="92.11" y="1.85" width="5.91" height="2.18"/><rect class="cls-20" x="103.94" y="1.85" width="5.91" height="2.18"/><rect class="cls-20" x="117.62" y="11.6" width="2.18" height="5.71"/><rect class="cls-20" x="117.62" y="23.04" width="2.18" height="5.71"/><rect class="cls-20" x="117.62" y="34.48" width="2.18" height="5.71"/><rect class="cls-20" x="117.62" y="45.9" width="2.18" height="5.71"/><rect class="cls-20" x="117.62" y="57.34" width="2.18" height="5.71"/><rect class="cls-20" x="117.62" y="68.78" width="2.18" height="5.71"/><rect class="cls-20" x="117.62" y="80.22" width="2.18" height="5.71"/><rect class="cls-20" x="117.62" y="91.66" width="2.18" height="5.71"/><rect class="cls-20" x="103.94" y="104.94" width="5.91" height="2.18"/><rect class="cls-20" x="92.11" y="104.94" width="5.91" height="2.18"/><rect class="cls-20" x="80.28" y="104.94" width="5.91" height="2.18"/><rect class="cls-20" x="68.45" y="104.94" width="5.91" height="2.18"/><rect class="cls-20" x="56.61" y="104.94" width="5.91" height="2.18"/><rect class="cls-20" x="44.79" y="104.94" width="5.91" height="2.18"/><rect class="cls-20" x="32.95" y="104.94" width="5.91" height="2.18"/><g class="cls-12"><rect class="cls-20" x="23.01" width="2.18" height="5.89"/></g><g class="cls-13"><rect class="cls-20" x="21.15" y="1.85" width="5.89" height="2.18"/></g><g class="cls-14"><rect class="cls-20" x="115.78" y="1.85" width="5.89" height="2.18"/></g><g class="cls-15"><rect class="cls-20" x="117.62" width="2.18" height="5.89"/></g><g class="cls-16"><rect class="cls-20" x="117.62" y="103.1" width="2.18" height="5.89"/></g><g class="cls-17"><rect class="cls-20" x="115.78" y="104.94" width="5.89" height="2.18"/></g><g class="cls-18"><rect class="cls-20" x="21.15" y="104.94" width="5.89" height="2.18"/></g><g class="cls-19"><rect class="cls-20" x="23.01" y="103.1" width="2.18" height="5.89"/></g><path class="cls-21" d="M112,92.25l-9.84-12.1L97.06,94.48C92.45,81.61,87.84,68.86,83.23,56l37.7,14.71v.11L107.5,75.23,117.37,87Z" transform="translate(0 0.85)"/><path class="cls-8" d="M70.26,61.57a17.94,17.94,0,0,1-5.07,2.37,17.6,17.6,0,0,1-11.45-.63,17.86,17.86,0,0,1-5.49-3.54,17.12,17.12,0,0,1-3.72-5.24,15.68,15.68,0,0,1,0-12.82,17,17,0,0,1,3.72-5.23,17.71,17.71,0,0,1,5.49-3.55,17.55,17.55,0,0,1,11.43-.63c.57.17,1.16.35,1.71.56a4.64,4.64,0,0,1,.56.3l-.1.1a9.8,9.8,0,0,0-.87,1.06,8.3,8.3,0,0,0-.7,1.23,10.13,10.13,0,0,0-.52,1.39,11.77,11.77,0,0,0-.34,1.54,11.92,11.92,0,0,0-.15,1.68c0,.18,0,.35,0,.52a5.69,5.69,0,0,0-.8-.43,10,10,0,0,0-3.61-.76,8.74,8.74,0,0,0-3.43.67A9.05,9.05,0,0,0,54.14,42a8.41,8.41,0,0,0-1.9,2.75,8.74,8.74,0,0,0,0,6.76,8.31,8.31,0,0,0,1.9,2.75,9.05,9.05,0,0,0,2.8,1.83,8.74,8.74,0,0,0,3.43.67,11.25,11.25,0,0,0,6-2.2c1.45-1,2.5-2,3.86-3.06,3.27-2.59,6.3-3.21,10.09-3.23l13.13,0V57H78.73V71.22l-8.43.12V61.55Z" transform="translate(0 0.85)"/><path class="cls-8" d="M68.6,47.71v-5c0-6.48,3.55-10.28,10.42-10.28H94.4a2,2,0,0,1,2,2V39a2,2,0,0,1-2,2H79.17c-1.66,0-2.26,1-2.26,2.63v.75a16.08,16.08,0,0,0-6.65,2.27C69.67,47,68.6,47.71,68.6,47.71Z" transform="translate(0 0.85)"/><path class="cls-22" d="M111.72,92.61,101.79,80.4,96.67,94.86C92,81.88,87.37,69,82.72,56l38,14.84V71l-13.55,4.48,10,11.91Z" transform="translate(0 0.85)"/></svg>