<svg id="Layer_1" data-name="Layer 1" xmlns="http://www.w3.org/2000/svg" viewBox="0 0 73.87 70.99"><defs><style>.cls-1{fill:#ef712b;}.cls-2{fill:none;stroke:#efeff9;stroke-width:3px;}.cls-3{fill:#f5f3fa;}</style></defs><path class="cls-1" d="M87.22,79.46a48.92,48.92,0,0,1-10-.92,14.54,14.54,0,0,1-4.35-1.48,4.93,4.93,0,0,1-1-.73,1.21,1.21,0,0,1,0-1.86,5.9,5.9,0,0,1,2.35-1.38,26.68,26.68,0,0,1,6-1.34,53.35,53.35,0,0,1,8.38-.4,43,43,0,0,1,9.52,1.14A10.92,10.92,0,0,1,102,74.07a3.27,3.27,0,0,1,.55.5,1.21,1.21,0,0,1-.06,1.72,6,6,0,0,1-2.43,1.43,25,25,0,0,1-6.16,1.34c-2.23.22-4.47.34-6.7.5Z" transform="translate(-71.45 -37.1)"/><path class="cls-1" d="M74.44,86.42a4.49,4.49,0,0,0,2.49,1.83,24.73,24.73,0,0,0,5.69,1.37,55,55,0,0,0,9.94.45,46.42,46.42,0,0,0,6.65-.69l.25,0v2.1a.74.74,0,0,0,.68.82c.42,0,.71-.3.72-.82s0-1.31,0-2c0-.34.07-.53.44-.56a3.4,3.4,0,0,0,.41-.1v.88c0,.25,0,.5,0,.75s.2.62.52.61.51-.22.51-.59c0-.57,0-1.14,0-1.7a.4.4,0,0,1,.29-.43,7.05,7.05,0,0,0,2.52-1.48c.12-.12.22-.25.39-.44v1.52c0,.54,0,1.08,0,1.63a1.29,1.29,0,0,1-.51,1.16,10.57,10.57,0,0,1-1.67,1.08,21.26,21.26,0,0,1-5.94,1.75,46,46,0,0,1-10.87.54,32.37,32.37,0,0,1-9.68-1.95,6.74,6.74,0,0,1-2.33-1.36,1.47,1.47,0,0,1-.49-1.15C74.45,88.6,74.44,87.56,74.44,86.42Z" transform="translate(-71.45 -37.1)"/><path class="cls-1" d="M71.46,77.55A4.92,4.92,0,0,0,74,79.27a24.57,24.57,0,0,0,5.73,1.38A52.24,52.24,0,0,0,90.45,81c1.91-.12,3.8-.4,5.7-.62l.34,0v1.82a4.9,4.9,0,0,0,0,.54.67.67,0,0,0,1.31,0,1.37,1.37,0,0,0,0-.4V80.06l.83-.23v1.33a3.27,3.27,0,0,0,0,.44.49.49,0,0,0,.52.48.47.47,0,0,0,.5-.49c0-.49,0-1,0-1.46,0-.65,0-.65.61-.91a5.71,5.71,0,0,0,2.53-1.76,2.48,2.48,0,0,1,0,.33c0,.89,0,1.77,0,2.65a1.73,1.73,0,0,1-.78,1.57,9.86,9.86,0,0,1-2.8,1.42,31.54,31.54,0,0,1-7.13,1.5,47.6,47.6,0,0,1-8,.21,33.2,33.2,0,0,1-10-2,6.66,6.66,0,0,1-2.35-1.38,1.48,1.48,0,0,1-.48-1.12C71.47,79.62,71.46,78.59,71.46,77.55Z" transform="translate(-71.45 -37.1)"/><path class="cls-1" d="M74.51,84.6c.39.15.71.28,1,.39a35.61,35.61,0,0,0,8.3,1.65,46,46,0,0,0,9.53-.3,28.3,28.3,0,0,0,6.93-1.56,16.3,16.3,0,0,0,2.31-1.2,1.66,1.66,0,0,0,.87-1.39,15.58,15.58,0,0,1,1.76,1.1c.94.76.87,1.67-.13,2.42A8.79,8.79,0,0,1,102.28,87a33.87,33.87,0,0,1-6.77,1.22,55.27,55.27,0,0,1-7.5.2,39.74,39.74,0,0,1-9.63-1.35,9.55,9.55,0,0,1-2.91-1.27A2.15,2.15,0,0,1,74.51,84.6Z" transform="translate(-71.45 -37.1)"/><circle class="cls-2" cx="15.75" cy="26.29" r="12.88"/><circle class="cls-1" cx="15.75" cy="26.29" r="12.88"/><path class="cls-3" d="M93.25,63.79a2.92,2.92,0,0,0-1.7-1,2.31,2.31,0,0,0,1.27-2.51,2.51,2.51,0,0,0-.35-1.12,2.25,2.25,0,0,0-.81-.75,4,4,0,0,0-1.1-.44,8.06,8.06,0,0,0-1.36-.22V55.28H87.7v2.39l-1.19,0V55.28H85v2.46H82v1.6h1.08A.78.78,0,0,1,84,60v2.79h0v3.92a.52.52,0,0,1-.57.5H82.3L82,69h3v2.48h1.5V69H87.7v2.44h1.5V69a11.07,11.07,0,0,0,1.42-.15,5.89,5.89,0,0,0,1.18-.33,3.38,3.38,0,0,0,1-.57,2.69,2.69,0,0,0,.62-.87,3.47,3.47,0,0,0,.32-1.22,2.83,2.83,0,0,0-.44-2.08Zm-6.71-4.35h.91a4,4,0,0,1,.57,0c.23,0,.43,0,.59.08a3.24,3.24,0,0,1,.54.16,1.71,1.71,0,0,1,.47.27,1.89,1.89,0,0,1,.3.41,1.32,1.32,0,0,1,.12.57,1.35,1.35,0,0,1-.09.5,1,1,0,0,1-.26.37,2.81,2.81,0,0,1-.36.27,2.2,2.2,0,0,1-.48.18l-.5.11-.53.05-.49,0h-.79v-3Zm4.1,6.64a1.51,1.51,0,0,1-.24.39,1.32,1.32,0,0,1-.39.29,3.57,3.57,0,0,1-.46.2,3,3,0,0,1-.54.14,4.69,4.69,0,0,1-.56.08l-.57,0-.51,0h-.83v-3.3h1.09l.67,0A5.39,5.39,0,0,1,89,64a4.85,4.85,0,0,1,.64.18,1.74,1.74,0,0,1,.56.3,1.33,1.33,0,0,1,.36.45,1.26,1.26,0,0,1,.15.62,1.35,1.35,0,0,1-.09.5Zm0,0" transform="translate(-71.45 -37.1)"/><path class="cls-1" d="M110.5,89a7.15,7.15,0,0,0,3,1.94.4.4,0,0,1,.2.32c0,.57,0,1.15,0,1.73,0,.39.2.63.51.63s.52-.24.52-.63,0-1.06,0-1.62a3.92,3.92,0,0,1,.68.19.34.34,0,0,1,.15.28c0,.73,0,1.45,0,2.18,0,.57.38.88.86.77s.53-.35.54-.8V91.91l1.62.24a54.92,54.92,0,0,0,9.59.5,47.27,47.27,0,0,0,6.39-.58,21,21,0,0,0,5.64-1.57A3.53,3.53,0,0,0,142,89a2,2,0,0,1,0,.29c0,.91,0,1.82,0,2.72a1.79,1.79,0,0,1-.83,1.61,9.93,9.93,0,0,1-2.95,1.42,35,35,0,0,1-8.36,1.57,45.09,45.09,0,0,1-9.29-.23,25.22,25.22,0,0,1-7.86-2,12.05,12.05,0,0,1-1.26-.72,2.31,2.31,0,0,1-1-1.12Z" transform="translate(-71.45 -37.1)"/><path class="cls-1" d="M126.62,67.55a49.64,49.64,0,0,1-10-.92,14.83,14.83,0,0,1-4.35-1.48,5,5,0,0,1-1-.74,1.21,1.21,0,0,1,0-1.86,6,6,0,0,1,2.35-1.37,26.68,26.68,0,0,1,6-1.34,54.59,54.59,0,0,1,8.38-.41,43.56,43.56,0,0,1,9.52,1.15,10.92,10.92,0,0,1,3.87,1.58,2.89,2.89,0,0,1,.55.5,1.21,1.21,0,0,1-.06,1.71,5.89,5.89,0,0,1-2.43,1.43,25,25,0,0,1-6.16,1.35c-2.23.22-4.47.33-6.7.5Z" transform="translate(-71.45 -37.1)"/><path class="cls-1" d="M113.84,74.51a4.49,4.49,0,0,0,2.49,1.83A25.26,25.26,0,0,0,122,77.71a56,56,0,0,0,9.94.45,47.9,47.9,0,0,0,6.65-.69l.25,0v2.1c0,.5.28.81.68.83s.71-.3.72-.82,0-1.31,0-2c0-.34.07-.53.44-.56a2.57,2.57,0,0,0,.41-.11v.89c0,.25,0,.5,0,.75s.2.61.52.61.5-.22.51-.6c0-.56,0-1.13,0-1.7a.38.38,0,0,1,.29-.42,6.93,6.93,0,0,0,2.52-1.49c.12-.12.22-.25.39-.43V76c0,.55,0,1.09,0,1.63a1.3,1.3,0,0,1-.51,1.17,11.33,11.33,0,0,1-1.67,1.08,21.34,21.34,0,0,1-5.94,1.74,45.5,45.5,0,0,1-10.87.55,32.38,32.38,0,0,1-9.68-2,6.59,6.59,0,0,1-2.33-1.36,1.44,1.44,0,0,1-.49-1.14C113.85,76.69,113.84,75.65,113.84,74.51Z" transform="translate(-71.45 -37.1)"/><path class="cls-1" d="M113.84,80.26a4.42,4.42,0,0,0,2.49,1.82A24.75,24.75,0,0,0,122,83.46a56.93,56.93,0,0,0,9.94.45,47.9,47.9,0,0,0,6.65-.69,2.19,2.19,0,0,1,.25,0v2.1c0,.5.28.81.68.82s.71-.3.72-.81c0-.66,0-1.32,0-2,0-.35.07-.54.44-.56a2.57,2.57,0,0,0,.41-.11v.89c0,.25,0,.5,0,.74,0,.4.2.62.52.61s.5-.22.51-.59c0-.57,0-1.13,0-1.7a.38.38,0,0,1,.29-.42,7.08,7.08,0,0,0,2.52-1.49c.12-.12.22-.25.39-.43v1.51c0,.54,0,1.09,0,1.63a1.32,1.32,0,0,1-.51,1.17,12.21,12.21,0,0,1-1.67,1.08,21.34,21.34,0,0,1-5.94,1.74,46,46,0,0,1-10.87.54,32.06,32.06,0,0,1-9.68-2,6.74,6.74,0,0,1-2.33-1.36,1.46,1.46,0,0,1-.49-1.15C113.85,82.43,113.84,81.39,113.84,80.26Z" transform="translate(-71.45 -37.1)"/><path class="cls-1" d="M110.86,65.64a5,5,0,0,0,2.51,1.72,24.55,24.55,0,0,0,5.73,1.37,53,53,0,0,0,10.75.39c1.91-.12,3.8-.41,5.7-.62l.34,0v1.82a4.9,4.9,0,0,0,0,.54.67.67,0,0,0,1.31.05,1.4,1.4,0,0,0,0-.41V68.15l.83-.23v1.32a3.2,3.2,0,0,0,0,.44.48.48,0,0,0,.52.48.46.46,0,0,0,.5-.48c0-.49,0-1,0-1.46,0-.66,0-.65.61-.91a5.79,5.79,0,0,0,2.53-1.76c0,.15,0,.24,0,.33,0,.88,0,1.77,0,2.65a1.72,1.72,0,0,1-.78,1.56,9.86,9.86,0,0,1-2.8,1.42A31,31,0,0,1,131.64,73a46.57,46.57,0,0,1-8,.2,32.88,32.88,0,0,1-9.95-2,6.66,6.66,0,0,1-2.35-1.38,1.48,1.48,0,0,1-.48-1.12C110.87,67.71,110.86,66.67,110.86,65.64Z" transform="translate(-71.45 -37.1)"/><path class="cls-1" d="M113.91,72.69c.39.15.71.28,1,.39a35.61,35.61,0,0,0,8.3,1.65,45.32,45.32,0,0,0,9.53-.31,27.85,27.85,0,0,0,6.93-1.56A15.27,15.27,0,0,0,142,71.67a1.69,1.69,0,0,0,.87-1.4,18.34,18.34,0,0,1,1.76,1.11c.94.76.87,1.66-.13,2.42a9,9,0,0,1-2.84,1.32,33.19,33.19,0,0,1-6.77,1.23,56.94,56.94,0,0,1-7.5.2,40.74,40.74,0,0,1-9.63-1.35,10.06,10.06,0,0,1-2.91-1.27A2.22,2.22,0,0,1,113.91,72.69Z" transform="translate(-71.45 -37.1)"/><path class="cls-1" d="M113,84.76a2.33,2.33,0,0,0,1.33,1.71,14.24,14.24,0,0,0,4.14,1.58,40.79,40.79,0,0,0,8.08,1.16c1.65.07,3.31.13,5,.06a32.61,32.61,0,0,0,10.15-2l.33-.11a2.18,2.18,0,0,1-1,1.23,9.69,9.69,0,0,1-2.91,1.27,34.93,34.93,0,0,1-6.75,1.17,59.15,59.15,0,0,1-8.42.13,37.32,37.32,0,0,1-8.66-1.36,9,9,0,0,1-2.83-1.29,2.17,2.17,0,0,1-.29-.24,1.32,1.32,0,0,1,.09-2.24A15.77,15.77,0,0,1,113,84.76Z" transform="translate(-71.45 -37.1)"/><path class="cls-1" d="M110.63,100.42a5.09,5.09,0,0,0,2.51,1.72,24.67,24.67,0,0,0,5.73,1.37,53,53,0,0,0,10.75.39c1.91-.12,3.81-.41,5.71-.62l.34,0c0,.62,0,1.22,0,1.82a3.26,3.26,0,0,0,0,.54.69.69,0,0,0,.64.56.7.7,0,0,0,.68-.51,1.84,1.84,0,0,0,0-.41c0-.76,0-1.51,0-2.31l.83-.23V104a3.2,3.2,0,0,0,0,.44c0,.3.21.49.52.48a.47.47,0,0,0,.51-.48c0-.49,0-1,0-1.46,0-.66,0-.65.62-.91a5.85,5.85,0,0,0,2.53-1.76c0,.15,0,.24,0,.33,0,.88,0,1.77,0,2.65a1.76,1.76,0,0,1-.78,1.56,10,10,0,0,1-2.81,1.42,31.05,31.05,0,0,1-7.12,1.51,46.62,46.62,0,0,1-8,.2,32.82,32.82,0,0,1-10-2,6.61,6.61,0,0,1-2.36-1.38,1.47,1.47,0,0,1-.47-1.12C110.64,102.49,110.63,101.45,110.63,100.42Z" transform="translate(-71.45 -37.1)"/><path class="cls-1" d="M110.63,94.8a5,5,0,0,0,2.51,1.72,24.69,24.69,0,0,0,5.73,1.38,53,53,0,0,0,10.75.39c1.91-.13,3.81-.41,5.71-.62l.34,0c0,.63,0,1.22,0,1.82a3.26,3.26,0,0,0,0,.54.68.68,0,0,0,1.32,0,1.81,1.81,0,0,0,0-.4c0-.76,0-1.52,0-2.32l.83-.23v1.33a3.2,3.2,0,0,0,0,.44.5.5,0,0,0,.52.48.48.48,0,0,0,.51-.49c0-.48,0-1,0-1.46,0-.65,0-.64.62-.91a5.83,5.83,0,0,0,2.53-1.75c0,.14,0,.23,0,.33,0,.88,0,1.76,0,2.65a1.77,1.77,0,0,1-.78,1.56,10,10,0,0,1-2.81,1.42,31.59,31.59,0,0,1-7.12,1.51,47.65,47.65,0,0,1-8,.2,33.13,33.13,0,0,1-10-2A6.64,6.64,0,0,1,111.1,99a1.44,1.44,0,0,1-.47-1.12C110.64,96.88,110.63,95.84,110.63,94.8Z" transform="translate(-71.45 -37.1)"/><circle class="cls-2" cx="55.15" cy="14.38" r="12.88"/><circle class="cls-1" cx="55.15" cy="14.38" r="12.88"/><path class="cls-3" d="M132.65,51.87a2.91,2.91,0,0,0-1.7-1,2.31,2.31,0,0,0,1.27-2.51,2.51,2.51,0,0,0-.35-1.12,2.28,2.28,0,0,0-.81-.76A4.29,4.29,0,0,0,130,46a9.21,9.21,0,0,0-1.36-.22V43.37h-1.5v2.39c-.26,0-.66,0-1.19,0V43.37h-1.5v2.45h-3v1.6h1.08a.78.78,0,0,1,.87.66v2.8h0v3.92a.52.52,0,0,1-.57.49H121.7l-.3,1.79h3v2.48h1.5V57.13h1.19v2.44h1.5V57.1A13.21,13.21,0,0,0,130,57a5.32,5.32,0,0,0,1.18-.34,3.16,3.16,0,0,0,1-.57,2.54,2.54,0,0,0,.62-.86,3.7,3.7,0,0,0,.32-1.22,2.91,2.91,0,0,0-.44-2.09Zm-6.71-4.34h.91l.56,0a4,4,0,0,1,.6.08,2.51,2.51,0,0,1,.54.16,1.21,1.21,0,0,1,.76.68,1.17,1.17,0,0,1,.13.57,1.35,1.35,0,0,1-.09.5,1,1,0,0,1-.26.37,2.7,2.7,0,0,1-.36.26,1.5,1.5,0,0,1-.48.18,4.68,4.68,0,0,1-.5.11,3.39,3.39,0,0,1-.53.06h-1.28v-3Zm4.1,6.63a1.84,1.84,0,0,1-.24.39,1.54,1.54,0,0,1-.39.3,3.57,3.57,0,0,1-.46.2,4.17,4.17,0,0,1-.54.14l-.56.08-.57,0h-1.34V52H127l.67,0a5.39,5.39,0,0,1,.72.09,4.85,4.85,0,0,1,.64.18,1.74,1.74,0,0,1,.56.3,1.36,1.36,0,0,1,.51,1.07,1.3,1.3,0,0,1-.09.49Zm0,0" transform="translate(-71.45 -37.1)"/></svg>