<svg id="Layer_1" data-name="Layer 1" xmlns="http://www.w3.org/2000/svg" xmlns:xlink="http://www.w3.org/1999/xlink" viewBox="0 0 142.07 101.89"><defs><style>.cls-1{fill:url(#New_Gradient_Swatch_32);}.cls-2{fill:#fbfbfb;}.cls-3{fill:url(#New_Gradient_Swatch_32-2);}.cls-4{fill:none;stroke:#fbfbfb;stroke-width:9px;}.cls-5{fill:#8c8cf9;}.cls-6{fill:url(#New_Gradient_Swatch_32-3);}</style><linearGradient id="New_Gradient_Swatch_32" x1="120.42" y1="62.71" x2="120.42" y2="20.12" gradientUnits="userSpaceOnUse"><stop offset="0" stop-color="#123962"/><stop offset="0.32" stop-color="#2754ba"/><stop offset="0.77" stop-color="#00aee6"/><stop offset="1" stop-color="#b1d4e5"/></linearGradient><linearGradient id="New_Gradient_Swatch_32-2" x1="21.68" y1="62.75" x2="21.68" y2="20.12" xlink:href="#New_Gradient_Swatch_32"/><linearGradient id="New_Gradient_Swatch_32-3" x1="72.29" y1="101.92" x2="72.29" y2="3.29" xlink:href="#New_Gradient_Swatch_32"/></defs><path class="cls-1" d="M108.34,23.75l2.48.47c.84.17,1.68.35,2.52.49a.65.65,0,0,0,.48-.15c1.34-1.22,2.66-2.47,4-3.71a2.41,2.41,0,0,1,3.41,0l0,0c1.32,1.24,2.66,2.47,4,3.72a.6.6,0,0,0,.56.14c1.75-.3,3.51-.52,5.23-.9A2.54,2.54,0,0,1,134,25.87c.28,1.62.57,3.24.84,4.86a.64.64,0,0,0,.39.54c1.56.73,3.11,1.49,4.67,2.23a2.16,2.16,0,0,1,1.35,1.73,2.45,2.45,0,0,1-.31,1.45c-.75,1.46-1.49,2.93-2.26,4.39a.6.6,0,0,0,.06.71q1.49,2.11,2.93,4.27a3,3,0,0,1,.42,1,1.93,1.93,0,0,1-1.23,2.27l-3.07,1.45c-.58.27-1.15.55-1.73.81a.53.53,0,0,0-.35.45c-.24,1.62-.5,3.23-.76,4.85A2.6,2.6,0,0,1,133,59a2.12,2.12,0,0,1-.71,0l-5.54-.92a.69.69,0,0,0-.68.2c-1.27,1.21-2.57,2.4-3.85,3.6a2.37,2.37,0,0,1-3.34.22,2.28,2.28,0,0,1-.22-.22l-3.92-3.56a.63.63,0,0,0-.61-.19c-1.75.3-3.52.54-5.27.91a2.54,2.54,0,0,1-2.83-2c-.29-1.65-.59-3.31-.87-5a.53.53,0,0,0-.35-.45l-4.54-2.18A2.36,2.36,0,0,1,99,46.34a1.15,1.15,0,0,1,.12-.25c.74-1.46,1.49-2.93,2.25-4.39a.52.52,0,0,0,0-.54c-.74-1.43-1.46-2.87-2.2-4.3-.07-.16-.15-.31-.22-.47a2.08,2.08,0,0,1,1-2.77l.09,0c.92-.47,1.87-.91,2.8-1.36.67-.32,1.34-.65,2-1a.51.51,0,0,0,.34-.46c.28-1.64.56-3.29.87-4.92a2.36,2.36,0,0,1,1.74-2.05A3.52,3.52,0,0,1,108.34,23.75Z" transform="translate(-0.02 -0.03)"/><path class="cls-2" d="M119.09,34.24a4.13,4.13,0,0,0,.51,3.45,1.63,1.63,0,0,1-.45,2.26l-.09.06a1.7,1.7,0,0,1-2.33-.6l0-.07a4.39,4.39,0,0,0-5.16-2,4.25,4.25,0,0,0-3,4.55,4.32,4.32,0,0,0,3.93,3.7,4.41,4.41,0,0,0,4.26-2.25,1.71,1.71,0,0,1,2.33-.68l.14.08a1.67,1.67,0,0,1,.44,2.32l0,0a3.47,3.47,0,0,0-.59,2.32,4.36,4.36,0,0,0,8.61.57,4.18,4.18,0,0,0-2-4.39,4.86,4.86,0,0,0-2.5-.65,1.69,1.69,0,0,1-1.78-1.61,1.73,1.73,0,0,1,.05-.51,1.68,1.68,0,0,1,1.78-1.21,4.11,4.11,0,0,0,3.22-1.36,3.92,3.92,0,0,0,.79-4.5,4,4,0,0,0-3.57-2.58A4.41,4.41,0,0,0,119.09,34.24Z" transform="translate(-0.02 -0.03)"/><path class="cls-3" d="M9.61,23.75l2.48.47c.84.17,1.67.35,2.52.49a.65.65,0,0,0,.48-.15c1.33-1.22,2.66-2.47,4-3.71a2.4,2.4,0,0,1,3.39-.05l.05.05c1.33,1.24,2.67,2.47,4,3.72a.6.6,0,0,0,.56.14c1.74-.3,3.5-.52,5.23-.9a2.53,2.53,0,0,1,2.88,2.06c.29,1.62.57,3.24.85,4.86a.62.62,0,0,0,.39.54C38,32,39.55,32.76,41.1,33.5a2.19,2.19,0,0,1,1.36,1.73,2.54,2.54,0,0,1-.32,1.45c-.74,1.46-1.48,2.93-2.25,4.39a.59.59,0,0,0,.06.71c1,1.41,2,2.83,2.92,4.27a2.79,2.79,0,0,1,.43,1A2,2,0,0,1,42,49.34l-3,1.47c-.58.27-1.15.55-1.74.81a.54.54,0,0,0-.34.45c-.24,1.62-.5,3.23-.76,4.85a2.6,2.6,0,0,1-1.92,2.14,2.12,2.12,0,0,1-.71,0L28,58.14a.68.68,0,0,0-.67.2c-1.28,1.21-2.57,2.4-3.85,3.6a2.38,2.38,0,0,1-3.36.21l-.21-.21L16,58.34a.63.63,0,0,0-.61-.19c-1.76.3-3.53.54-5.27.91a2.52,2.52,0,0,1-2.83-2c-.3-1.65-.59-3.31-.87-5a.55.55,0,0,0-.35-.45L1.56,49.43A2.36,2.36,0,0,1,.3,46.34a1.15,1.15,0,0,1,.12-.25L2.66,41.7a.52.52,0,0,0,0-.54c-.74-1.43-1.47-2.87-2.2-4.3-.08-.15-.15-.31-.22-.47a2.07,2.07,0,0,1,.92-2.78l.08,0c.93-.47,1.87-.91,2.81-1.36l2-1a.56.56,0,0,0,.34-.46c.28-1.64.56-3.29.87-4.92a2.36,2.36,0,0,1,1.77-2A3.85,3.85,0,0,1,9.61,23.75Z" transform="translate(-0.02 -0.03)"/><path class="cls-2" d="M28.5,42a3.6,3.6,0,0,0-2.16-1.27A2.93,2.93,0,0,0,28,37.5a3.21,3.21,0,0,0-.45-1.41,3,3,0,0,0-1-1,5.37,5.37,0,0,0-1.39-.55,11.44,11.44,0,0,0-1.75-.2V31.18H21.46v3H20v-3H18v3.16H14.24v2h1.37a1,1,0,0,1,1.1.84v3.55h0v5a.67.67,0,0,1-.68.61H14.62l-.38,2.26H18v3.15h1.91V48.64h1.5v3.1h1.91V48.59a13.4,13.4,0,0,0,1.79-.18,7.14,7.14,0,0,0,1.5-.43,4,4,0,0,0,1.2-.72,3.35,3.35,0,0,0,.8-1.1,4.61,4.61,0,0,0,.4-1.55A3.63,3.63,0,0,0,28.48,42ZM20,36.45H21.9a3.8,3.8,0,0,1,.77.1,4,4,0,0,1,.67.21,1.79,1.79,0,0,1,.6.34,1.59,1.59,0,0,1,.37.52,1.49,1.49,0,0,1,.16.72,1.94,1.94,0,0,1-.11.63,1.24,1.24,0,0,1-.34.48,2.36,2.36,0,0,1-.45.33A2.19,2.19,0,0,1,23,40l-.64.14c-.23,0-.45.05-.68.06H20Zm5.2,8.41a1.57,1.57,0,0,1-.79.87,6.21,6.21,0,0,1-.59.26,5.2,5.2,0,0,1-.68.17c-.27.05-.51.08-.71.1s-.48,0-.72,0H20V42.14h2.24a5.52,5.52,0,0,1,.91.11,4.42,4.42,0,0,1,.81.23,2.41,2.41,0,0,1,.71.37,1.81,1.81,0,0,1,.46.57,1.73,1.73,0,0,1,.07,1.42Z" transform="translate(-0.02 -0.03)"/><path class="cls-4" d="M74.18,3.34c2.19,2.05,4.4,4.09,6.58,6.15a.92.92,0,0,0,.92.23c2.89-.49,5.79-.86,8.65-1.48a4.18,4.18,0,0,1,4.76,3.4c.47,2.67.94,5.35,1.39,8a1,1,0,0,0,.64.88c2.58,1.21,5.14,2.46,7.71,3.69a3.58,3.58,0,0,1,2.2,2.84,4.07,4.07,0,0,1-.52,2.39c-1.24,2.42-2.46,4.85-3.72,7.26a1,1,0,0,0,.09,1.16c1.63,2.34,3.25,4.68,4.83,7a4.83,4.83,0,0,1,.7,1.71,3.21,3.21,0,0,1-2,3.75l-5.06,2.39c-1,.45-1.91.91-2.87,1.35a.86.86,0,0,0-.57.74c-.4,2.67-.82,5.33-1.25,8a4.28,4.28,0,0,1-3.17,3.53,3.34,3.34,0,0,1-1.18,0c-3-.49-6.11-1-9.16-1.52a1.18,1.18,0,0,0-1.11.33l-6.36,6a3.93,3.93,0,0,1-5.55.34,3.64,3.64,0,0,1-.34-.34l-6.41-6a1,1,0,0,0-1-.3c-2.9.49-5.82.88-8.7,1.49A4.18,4.18,0,0,1,49,63c-.48-2.73-1-5.46-1.43-8.2A.87.87,0,0,0,47,54.1l-7.5-3.6a3.91,3.91,0,0,1-2.08-5.11c.06-.14.13-.27.2-.4,1.23-2.42,2.46-4.84,3.71-7.26a.82.82,0,0,0,0-.88c-1.22-2.37-2.42-4.74-3.63-7.11a6,6,0,0,1-.36-.77,3.42,3.42,0,0,1,1.56-4.58l.11-.05c1.53-.77,3.08-1.5,4.63-2.24,1.11-.54,2.21-1.08,3.32-1.59a.87.87,0,0,0,.56-.75c.49-2.75,1-5.42,1.49-8.17a3.9,3.9,0,0,1,2.86-3.38,6.69,6.69,0,0,1,1-.14L57,8.86c1.39.27,2.78.56,4.17.8a1.08,1.08,0,0,0,.79-.24q3.32-3,6.59-6.13" transform="translate(-0.02 -0.03)"/><path class="cls-5" d="M74.18,3.34c2.19,2.05,4.4,4.09,6.58,6.15a.92.92,0,0,0,.92.23c2.89-.49,5.79-.86,8.65-1.48a4.18,4.18,0,0,1,4.76,3.4c.47,2.67.94,5.35,1.39,8a1,1,0,0,0,.64.88c2.58,1.21,5.14,2.46,7.71,3.69a3.58,3.58,0,0,1,2.2,2.84,4.07,4.07,0,0,1-.52,2.39c-1.24,2.42-2.46,4.85-3.72,7.26a1,1,0,0,0,.09,1.16c1.63,2.34,3.25,4.68,4.83,7a4.83,4.83,0,0,1,.7,1.71,3.21,3.21,0,0,1-2,3.75l-5.06,2.39c-1,.45-1.91.91-2.87,1.35a.86.86,0,0,0-.57.74c-.4,2.67-.82,5.33-1.25,8a4.28,4.28,0,0,1-3.17,3.53,3.34,3.34,0,0,1-1.18,0c-3-.49-6.11-1-9.16-1.52a1.18,1.18,0,0,0-1.11.33l-6.36,6a3.93,3.93,0,0,1-5.55.34,3.64,3.64,0,0,1-.34-.34l-6.41-6a1,1,0,0,0-1-.3c-2.9.49-5.82.88-8.7,1.49A4.18,4.18,0,0,1,49,63c-.48-2.73-1-5.46-1.43-8.2A.87.87,0,0,0,47,54.1l-7.5-3.6a3.91,3.91,0,0,1-2.08-5.11c.06-.14.13-.27.2-.4,1.23-2.42,2.46-4.84,3.71-7.26a.82.82,0,0,0,0-.88c-1.22-2.37-2.42-4.74-3.63-7.11a6,6,0,0,1-.36-.77,3.42,3.42,0,0,1,1.56-4.58l.11-.05c1.53-.77,3.08-1.5,4.63-2.24,1.11-.54,2.21-1.08,3.32-1.59a.87.87,0,0,0,.56-.75c.49-2.75,1-5.42,1.49-8.17a3.9,3.9,0,0,1,2.86-3.38,6.69,6.69,0,0,1,1-.14L57,8.86c1.39.27,2.78.56,4.17.8a1.08,1.08,0,0,0,.79-.24q3.32-3,6.59-6.13" transform="translate(-0.02 -0.03)"/><path class="cls-5" d="M90.23,101.81Q84,89,77.76,76.34a.62.62,0,0,1,.12-.87l.05,0c1.77-1.55,3.52-3.14,5.26-4.73a1.06,1.06,0,0,1,1-.28c2,.33,3.91.65,5.87.94A8.92,8.92,0,0,0,100,64.56c.53-2,1-4,1.46-6a3.51,3.51,0,0,1,.18-.65c5.33,10.57,10.61,21,15.94,31.55l-2.88-.38-14.58-2a.71.71,0,0,0-.83.43q-4.2,7.21-8.44,14.41" transform="translate(-0.02 -0.03)"/><path class="cls-5" d="M52.54,99.71,45.25,86.87a.67.67,0,0,0-.8-.4q-8.55,1.22-17.09,2.39H27c.09-.21.15-.37.23-.52q7.47-15,15-30a.75.75,0,0,1,.1-.2c.13-.11.28-.2.41-.31.1.14.25.27.27.42.24,1.34.46,2.68.68,4,.14.78.23,1.57.42,2.34a9.3,9.3,0,0,0,10.51,6.75q3-.51,6-.94a.89.89,0,0,1,.65.18c1.8,1.61,3.57,3.26,5.36,4.88a.54.54,0,0,1,.14.76h0Q60.53,89,54.28,101.85" transform="translate(-0.02 -0.03)"/><path class="cls-6" d="M74.18,3.34c2.19,2.05,4.4,4.09,6.58,6.15a.92.92,0,0,0,.92.23c2.89-.49,5.79-.86,8.65-1.48a4.18,4.18,0,0,1,4.76,3.4c.47,2.67.94,5.35,1.39,8a1,1,0,0,0,.64.88c2.58,1.21,5.14,2.46,7.71,3.69a3.58,3.58,0,0,1,2.2,2.84,4.07,4.07,0,0,1-.52,2.39c-1.24,2.42-2.46,4.85-3.72,7.26a1,1,0,0,0,.09,1.16c1.63,2.34,3.25,4.68,4.83,7a4.83,4.83,0,0,1,.7,1.71,3.21,3.21,0,0,1-2,3.75l-5.06,2.39c-1,.45-1.91.91-2.87,1.35a.86.86,0,0,0-.57.74c-.4,2.67-.82,5.33-1.25,8a4.28,4.28,0,0,1-3.17,3.53,3.34,3.34,0,0,1-1.18,0c-3-.49-6.11-1-9.16-1.52a1.18,1.18,0,0,0-1.11.33l-6.36,6a3.93,3.93,0,0,1-5.55.34,3.64,3.64,0,0,1-.34-.34l-6.41-6a1,1,0,0,0-1-.3c-2.9.49-5.82.88-8.7,1.49A4.18,4.18,0,0,1,49,63c-.48-2.73-1-5.46-1.43-8.2A.87.87,0,0,0,47,54.1l-7.5-3.6a3.91,3.91,0,0,1-2.08-5.11c.06-.14.13-.27.2-.4,1.23-2.42,2.46-4.84,3.71-7.26a.82.82,0,0,0,0-.88c-1.22-2.37-2.42-4.74-3.63-7.11a6,6,0,0,1-.36-.77,3.42,3.42,0,0,1,1.56-4.58l.11-.05c1.53-.77,3.08-1.5,4.63-2.24,1.11-.54,2.21-1.08,3.32-1.59a.87.87,0,0,0,.56-.75c.49-2.75,1-5.42,1.49-8.17a3.9,3.9,0,0,1,2.86-3.38,6.69,6.69,0,0,1,1-.14L57,8.86c1.39.27,2.78.56,4.17.8a1.08,1.08,0,0,0,.79-.24q3.32-3,6.59-6.13" transform="translate(-0.02 -0.03)"/><path class="cls-6" d="M90.23,101.81Q84,89,77.76,76.34a.62.62,0,0,1,.12-.87l.05,0c1.77-1.55,3.52-3.14,5.26-4.73a1.06,1.06,0,0,1,1-.28c2,.33,3.91.65,5.87.94A8.92,8.92,0,0,0,100,64.56c.53-2,1-4,1.46-6a3.51,3.51,0,0,1,.18-.65c5.33,10.57,10.61,21,15.94,31.55l-2.88-.38-14.58-2a.71.71,0,0,0-.83.43q-4.2,7.21-8.44,14.41" transform="translate(-0.02 -0.03)"/><path class="cls-6" d="M52.54,99.71,45.25,86.87a.67.67,0,0,0-.8-.4q-8.55,1.22-17.09,2.39H27c.09-.21.15-.37.23-.52q7.47-15,15-30a.75.75,0,0,1,.1-.2c.13-.11.28-.2.41-.31.1.14.25.27.27.42.24,1.34.46,2.68.68,4,.14.78.23,1.57.42,2.34a9.3,9.3,0,0,0,10.51,6.75q3-.51,6-.94a.89.89,0,0,1,.65.18c1.8,1.61,3.57,3.26,5.36,4.88a.54.54,0,0,1,.14.76h0Q60.53,89,54.28,101.85" transform="translate(-0.02 -0.03)"/><path class="cls-2" d="M73.29,58.85,86.93,39.56a.78.78,0,0,0-.42.14c-4.31,2.52-8.6,5-12.91,7.55a.71.71,0,0,0-.4.71V58.85Z" transform="translate(-0.02 -0.03)"/><path class="cls-2" d="M72.3,58.85V47.92a.67.67,0,0,0-.39-.67Q65.44,43.49,59,39.68l-.44-.22.31.46q3.73,5.28,7.46,10.55l5.91,8.38Z" transform="translate(-0.02 -0.03)"/><path class="cls-2" d="M73.22,12.74V29c0,.31.15.4.39.51l12.78,5.59.51.2L73.31,12.7Z" transform="translate(-0.02 -0.03)"/><path class="cls-2" d="M59.23,35,72,29.46c.31-.13.33-.32.33-.59V12.62L58.82,35.19Z" transform="translate(-0.02 -0.03)"/><path class="cls-2" d="M73.25,44.57l13.92-8.15L73.25,30.34Z" transform="translate(-0.02 -0.03)"/><path class="cls-2" d="M58.35,36.42l13.92,8.15V30.34Z" transform="translate(-0.02 -0.03)"/></svg>