<svg id="Layer_1" data-name="Layer 1" xmlns="http://www.w3.org/2000/svg" viewBox="0 0 82.41 94.43"><defs><style>.cls-1,.cls-4{fill:none;}.cls-1{stroke:#f5f5fc;stroke-width:4px;}.cls-2{fill:#8c8cf9;}.cls-3{fill:#fbfbfb;}.cls-4{stroke:#fbfbfb;stroke-miterlimit:10;stroke-width:5px;}</style></defs><circle class="cls-1" cx="42.48" cy="42.02" r="14.74"/><circle class="cls-2" cx="42.48" cy="42.02" r="14.74"/><path class="cls-3" d="M116,109.77a3.52,3.52,0,0,0-2-1.2,2.75,2.75,0,0,0,1.53-3,3,3,0,0,0-.43-1.33,2.55,2.55,0,0,0-1-.91,5.19,5.19,0,0,0-1.31-.52,9.94,9.94,0,0,0-1.63-.26V99.62h-1.79v2.85c-.31,0-.78,0-1.42,0V99.62h-1.79v2.93h-3.59v1.91h1.29a.92.92,0,0,1,1,.79v3.33l.19,0h-.19v4.67a.61.61,0,0,1-.67.59h-1.29l-.36,2.13h3.59v3h1.79V116h1.42V119h1.79v-3a14.8,14.8,0,0,0,1.69-.17,7.26,7.26,0,0,0,1.42-.4,3.72,3.72,0,0,0,1.12-.68,3.15,3.15,0,0,0,.76-1,4.47,4.47,0,0,0,.37-1.45,3.45,3.45,0,0,0-.52-2.49Zm-8-5.19H109a5.69,5.69,0,0,1,.68,0c.28,0,.52.06.71.1a3.77,3.77,0,0,1,.64.19,1.66,1.66,0,0,1,.56.33,1.63,1.63,0,0,1,.36.48,1.78,1.78,0,0,1,0,1.28,1.09,1.09,0,0,1-.32.44,2.52,2.52,0,0,1-.43.32,1.73,1.73,0,0,1-.56.21c-.23.06-.43.1-.6.13s-.38.05-.64.07l-.58,0h-.94v-3.57Zm4.89,7.92a1.7,1.7,0,0,1-.29.47,1.55,1.55,0,0,1-.46.35,3.68,3.68,0,0,1-.55.24,4,4,0,0,1-.64.16c-.26,0-.48.08-.67.1l-.68.05-.61,0h-1v-3.93h1.3c.19,0,.46,0,.8,0a5.84,5.84,0,0,1,.86.1,5.26,5.26,0,0,1,.76.22,2,2,0,0,1,.67.35,1.66,1.66,0,0,1,.43.54,1.47,1.47,0,0,1,.18.74,1.59,1.59,0,0,1-.11.59Zm0,0" transform="translate(-66.53 -67.27)"/><path class="cls-2" d="M109.89,67.31c17,.63,29.83,8.24,37.91,23.4a9.19,9.19,0,0,1,1.13,2.73,2.11,2.11,0,0,1-.91,1.77,2.08,2.08,0,0,1-1.9-.46,11.72,11.72,0,0,1-1.41-2.59,39.47,39.47,0,0,0-54-16.85c-.54.29-1.07.81-1.63.85a16.93,16.93,0,0,1-2.9-.32c.43-.88.62-2.15,1.33-2.59a39.44,39.44,0,0,1,18.24-5.93C107.15,67.22,108.53,67.31,109.89,67.31Z" transform="translate(-66.53 -67.27)"/><path class="cls-2" d="M93.07,149.68c-14.23-6.51-23.21-17.29-25.93-33A40.8,40.8,0,0,1,71.61,90c.53-1,1.89-1.54,2.87-2.29,0,1.28.54,2.78,0,3.81-9.6,19.93-3.62,40.65,15.17,52.65,1.76,1.12,3,3.1,4.43,4.69Z" transform="translate(-66.53 -67.27)"/><path class="cls-2" d="M134.52,134.38c-.61-1.24-1.08-2.22-1.52-3.13,12.37-16.31,10.54-34-4.63-46.69-.81-.68-1-2.13-1.45-3.22,1.19.19,2.64,0,3.54.62C147.31,93.64,149.38,118.87,134.52,134.38Z" transform="translate(-66.53 -67.27)"/><path class="cls-2" d="M74.36,109.54a34.91,34.91,0,0,1,26.83-33.61,6.77,6.77,0,0,1,2.56-.37c.7.13,1.31.83,2,1.28a7.78,7.78,0,0,1-1.45,1.86,6.86,6.86,0,0,1-2.15.54,31.45,31.45,0,0,0-24.18,32.17,15.78,15.78,0,0,1,.14,3.35c-.12.66-.89,1.66-1.41,1.69a2.27,2.27,0,0,1-1.78-1.35A44.71,44.71,0,0,1,74.36,109.54Z" transform="translate(-66.53 -67.27)"/><path class="cls-2" d="M121,125.75a14.61,14.61,0,0,0,2.83-1.74,20.07,20.07,0,0,0-9.38-33.53c-.72-.19-1.61-.12-2.14-.53a3,3,0,0,1-1.08-2c0-.37,1-.94,1.61-1.12a3.9,3.9,0,0,1,1.83.19c8.48,2.16,14.45,7.29,17.17,15.58s1.14,16-4.46,22.75C125.73,127.28,124.05,127.7,121,125.75Z" transform="translate(-66.53 -67.27)"/><path class="cls-2" d="M106.69,132.87c-13.42-.93-23.69-15.62-20.23-27.25.23-.8,1.35-1.34,2.06-2,.38.91,1.15,1.84,1.09,2.72-.8,11.77,3.48,18.71,14.11,23C104.74,129.75,105.33,131.2,106.69,132.87Z" transform="translate(-66.53 -67.27)"/><path class="cls-4" d="M113.08,127.83c3.85-2.71,5.33-.76,6.37,2.2,2.91-2.24,4.68-.92,5.94,1.65,4.1-1.14,5.2-.42,5.24,3.52.06,6-.07,11.93.06,17.9.07,3.25-1.32,5.71-4.38,5.92a85.33,85.33,0,0,1-15.41-.4c-1.54-.18-3.22-2.28-4.17-3.89-3-5.12-5.77-10.43-8.64-15.66-1-1.81-1.45-3.64.65-4.86,2.43-1.41,3.59.36,4.59,2.24a18,18,0,0,0,4,5.51v-15.4c0-4.11,0-8.21,0-12.31,0-2.2-.38-5,2.92-4.93s2.78,2.93,2.8,5.14C113.1,118.68,113.08,122.89,113.08,127.83Z" transform="translate(-66.53 -67.27)"/><path class="cls-2" d="M113.08,127.83c3.85-2.71,5.33-.76,6.37,2.2,2.91-2.24,4.68-.92,5.94,1.65,4.1-1.14,5.2-.42,5.24,3.52.06,6-.07,11.93.06,17.9.07,3.25-1.32,5.71-4.38,5.92a85.33,85.33,0,0,1-15.41-.4c-1.54-.18-3.22-2.28-4.17-3.89-3-5.12-5.77-10.43-8.64-15.66-1-1.81-1.45-3.64.65-4.86,2.43-1.41,3.59.36,4.59,2.24a18,18,0,0,0,4,5.51v-15.4c0-4.11,0-8.21,0-12.31,0-2.2-.38-5,2.92-4.93s2.78,2.93,2.8,5.14C113.1,118.68,113.08,122.89,113.08,127.83Z" transform="translate(-66.53 -67.27)"/></svg>