<svg id="Layer_1" data-name="Layer 1" xmlns="http://www.w3.org/2000/svg" viewBox="0 0 74.0771 70.9665"><defs><style>.cls-1{fill:#8353e0;}.cls-2{fill:none;stroke:#efeff9;stroke-width:3px;}.cls-3{fill:#f5f3fa;}</style></defs><path class="cls-1" d="M15.77,42.36a48.9183,48.9183,0,0,1-10-.92,14.54,14.54,0,0,1-4.35-1.48,4.9266,4.9266,0,0,1-1-.73,1.21,1.21,0,0,1,0-1.86,5.9,5.9,0,0,1,2.35-1.38,26.6806,26.6806,0,0,1,6-1.34,53.3555,53.3555,0,0,1,8.38-.4,43,43,0,0,1,9.52,1.14,10.92,10.92,0,0,1,3.88,1.58,3.2707,3.2707,0,0,1,.55.5,1.21,1.21,0,0,1-.05,1.7105l-.01.0095a6,6,0,0,1-2.43,1.43,25.002,25.002,0,0,1-6.16,1.34c-2.23.22-4.47.34-6.7.5Z" transform="translate(0.2003)"/><path class="cls-1" d="M2.99,49.32a4.49,4.49,0,0,0,2.49,1.83,24.728,24.728,0,0,0,5.69,1.37,55.0049,55.0049,0,0,0,9.94.45,46.43,46.43,0,0,0,6.65-.69h.25v2.1a.74.74,0,0,0,.6534.8175L28.69,55.2c.42,0,.71-.3.72-.82s0-1.31,0-2c0-.34.07-.53.44-.56a3.3981,3.3981,0,0,0,.41-.1v1.63c0,.25.2.62.52.61s.51-.22.51-.59v-1.7a.4.4,0,0,1,.29-.43,7.05,7.05,0,0,0,2.52-1.48c.12-.12.22-.25.39-.44v3.15a1.29,1.29,0,0,1-.51,1.16,10.5674,10.5674,0,0,1-1.67,1.08,21.26,21.26,0,0,1-5.94,1.75A45.9993,45.9993,0,0,1,15.5,57a32.37,32.37,0,0,1-9.68-1.95,6.7411,6.7411,0,0,1-2.33-1.36A1.47,1.47,0,0,1,3,52.54C3,51.5,2.99,50.46,2.99,49.32Z" transform="translate(0.2003)"/><path class="cls-1" d="M.01,40.45a4.92,4.92,0,0,0,2.54,1.72,24.5708,24.5708,0,0,0,5.73,1.38A52.24,52.24,0,0,0,19,43.9c1.91-.12,3.8-.4,5.7-.62h.34V45.1a4.9128,4.9128,0,0,0,0,.54.67.67,0,0,0,1.31,0,1.3679,1.3679,0,0,0,0-.4V42.96l.83-.23v1.33a3.263,3.263,0,0,0,0,.44.49.49,0,0,0,.499.4808L27.7,44.98a.47.47,0,0,0,.5-.49V43.03c0-.65,0-.65.61-.91a5.71,5.71,0,0,0,2.53-1.76,2.489,2.489,0,0,1,0,.33v2.65a1.73,1.73,0,0,1-.78,1.57,9.862,9.862,0,0,1-2.8,1.42,31.54,31.54,0,0,1-7.13,1.5,47.6033,47.6033,0,0,1-8,.21,33.2,33.2,0,0,1-10-2A6.6589,6.6589,0,0,1,.28,44.66,1.48,1.48,0,0,1-.2,43.54,14.5191,14.5191,0,0,0,.01,40.45Z" transform="translate(0.2003)"/><path class="cls-1" d="M3.06,47.5c.39.15.71.28,1,.39a35.6062,35.6062,0,0,0,8.3,1.65,46.0018,46.0018,0,0,0,9.53-.3,28.3,28.3,0,0,0,6.93-1.56,16.3058,16.3058,0,0,0,2.31-1.2A1.66,1.66,0,0,0,32,45.09a15.5713,15.5713,0,0,1,1.76,1.1c.94.76.87,1.67-.13,2.42a8.79,8.79,0,0,1-2.8,1.29,33.8715,33.8715,0,0,1-6.77,1.22,55.2627,55.2627,0,0,1-7.5.2,39.741,39.741,0,0,1-9.63-1.35A9.5505,9.5505,0,0,1,4.02,48.7,2.15,2.15,0,0,1,3.06,47.5Z" transform="translate(0.2003)"/><circle class="cls-2" cx="15.9503" cy="26.29" r="12.88"/><circle class="cls-1" cx="15.9503" cy="26.29" r="12.88"/><path class="cls-3" d="M21.8,26.69a2.92,2.92,0,0,0-1.7-1,2.31,2.31,0,0,0,1.27-2.51,2.51,2.51,0,0,0-.35-1.12,2.25,2.25,0,0,0-.81-.75,4.003,4.003,0,0,0-1.1-.44,8.0623,8.0623,0,0,0-1.36-.22V18.18h-1.5v2.39H15.06V18.18H13.55v2.46h-3v1.6h1.08a.78.78,0,0,1,.9132.6187L12.55,22.9v2.79h0v3.92a.52.52,0,0,1-.5373.5021L11.98,30.11H10.85l-.3,1.79h3v2.48h1.5V31.9h1.2v2.44h1.5V31.9a11.0724,11.0724,0,0,0,1.42-.15,5.8939,5.8939,0,0,0,1.18-.33,3.3786,3.3786,0,0,0,1-.57,2.689,2.689,0,0,0,.62-.87,3.469,3.469,0,0,0,.32-1.22,2.83,2.83,0,0,0-.44-2.08Zm-6.71-4.35H16a4.0162,4.0162,0,0,1,.57,0,1.342,1.342,0,0,1,.59.08,3.2443,3.2443,0,0,1,.54.16,1.71,1.71,0,0,1,.47.27,1.89,1.89,0,0,1,.3.41,1.3183,1.3183,0,0,1,.12.57,1.35,1.35,0,0,1-.09.5,1,1,0,0,1-.26.37,2.8077,2.8077,0,0,1-.36.27,2.1992,2.1992,0,0,1-.48.18l-.5.11-.53.05H15.09V22.34Zm4.1,6.64a1.5088,1.5088,0,0,1-.24.39,1.32,1.32,0,0,1-.39.29,3.5646,3.5646,0,0,1-.46.2,3.0036,3.0036,0,0,1-.54.14,4.6978,4.6978,0,0,1-.56.08H15.09v-3.3h1.76a5.4027,5.4027,0,0,1,.7.12,4.8481,4.8481,0,0,1,.64.18,1.7408,1.7408,0,0,1,.56.3,1.3311,1.3311,0,0,1,.36.45,1.26,1.26,0,0,1,.15.62,1.35,1.35,0,0,1-.09.5Z" transform="translate(0.2003)"/><path class="cls-1" d="M39.05,51.9a7.15,7.15,0,0,0,3,1.94.4.4,0,0,1,.2.32v1.73c0,.39.2.63.51.63s.52-.24.52-.63V54.27a3.93,3.93,0,0,1,.68.19.34.34,0,0,1,.15.28v2.18c0,.57.38.88.86.77s.53-.35.54-.8V54.81l1.62.24a54.9127,54.9127,0,0,0,9.59.5,47.2781,47.2781,0,0,0,6.39-.58,21,21,0,0,0,5.64-1.57,3.53,3.53,0,0,0,1.8-1.5,2.005,2.005,0,0,1,0,.29v2.72a1.79,1.79,0,0,1-.83,1.61,9.9315,9.9315,0,0,1-2.95,1.42,34.9991,34.9991,0,0,1-8.36,1.57,45.0909,45.0909,0,0,1-9.29-.23,25.2222,25.2222,0,0,1-7.86-2A12.058,12.058,0,0,1,40,56.56a2.31,2.31,0,0,1-1-1.12Z" transform="translate(0.2003)"/><path class="cls-1" d="M55.2205,30.8007a49.6386,49.6386,0,0,1-10-.92,14.8277,14.8277,0,0,1-4.35-1.48,5.0016,5.0016,0,0,1-1-.74,1.21,1.21,0,0,1,0-1.86,6.0026,6.0026,0,0,1,2.35-1.37,26.686,26.686,0,0,1,6-1.34,54.5962,54.5962,0,0,1,8.38-.41,43.56,43.56,0,0,1,9.52,1.15,10.9219,10.9219,0,0,1,3.87,1.58,2.89,2.89,0,0,1,.55.5,1.21,1.21,0,0,1-.06,1.71,5.8889,5.8889,0,0,1-2.43,1.43,24.998,24.998,0,0,1-6.16,1.35c-2.23.22-4.47.33-6.7.5Z" transform="translate(0.2003)"/><path class="cls-1" d="M42.39,37.41a4.49,4.49,0,0,0,2.49,1.83,25.2608,25.2608,0,0,0,5.67,1.37,56.0081,56.0081,0,0,0,9.94.45,47.8963,47.8963,0,0,0,6.65-.69h.25v2.1a.7376.7376,0,0,0,.68.83c.4.02.71-.3.72-.82s0-1.31,0-2c0-.34.07-.53.44-.56a2.57,2.57,0,0,0,.41-.11v1.64c0,.25.2.61.52.61s.5-.22.51-.6v-1.7a.38.38,0,0,1,.29-.42,6.9287,6.9287,0,0,0,2.52-1.49c.12-.12.22-.25.39-.43v3.11a1.3,1.3,0,0,1-.51,1.17,11.3257,11.3257,0,0,1-1.67,1.08,21.3384,21.3384,0,0,1-5.94,1.74,45.4973,45.4973,0,0,1-10.87.55,32.38,32.38,0,0,1-9.68-2,6.59,6.59,0,0,1-2.33-1.36,1.44,1.44,0,0,1-.49-1.14C42.4,39.59,42.39,38.55,42.39,37.41Z" transform="translate(0.2003)"/><path class="cls-1" d="M42.39,43.16a4.42,4.42,0,0,0,2.49,1.82,24.75,24.75,0,0,0,5.67,1.38,56.9314,56.9314,0,0,0,9.94.45,47.8963,47.8963,0,0,0,6.65-.69,2.1719,2.1719,0,0,1,.25,0v2.1a.7228.7228,0,0,0,.68.82.7307.7307,0,0,0,.72-.81v-2c0-.35.07-.54.44-.56a2.57,2.57,0,0,0,.41-.11v1.63c0,.4.2.62.52.61s.5-.22.51-.59v-1.7a.38.38,0,0,1,.29-.42,7.0805,7.0805,0,0,0,2.52-1.49c.12-.12.22-.25.39-.43v3.14a1.32,1.32,0,0,1-.51,1.17,12.2142,12.2142,0,0,1-1.67,1.08,21.3384,21.3384,0,0,1-5.94,1.74,45.9993,45.9993,0,0,1-10.87.54,32.06,32.06,0,0,1-9.68-2,6.7411,6.7411,0,0,1-2.33-1.36,1.46,1.46,0,0,1-.49-1.15C42.4,45.33,42.39,44.29,42.39,43.16Z" transform="translate(0.2003)"/><path class="cls-1" d="M39.41,28.54a5,5,0,0,0,2.51,1.72,24.551,24.551,0,0,0,5.73,1.37,52.9976,52.9976,0,0,0,10.75.39c1.91-.12,3.8-.41,5.7-.62h.34v1.82a4.9128,4.9128,0,0,0,0,.54.67.67,0,0,0,1.31.05,1.4014,1.4014,0,0,0,0-.41V31.05l.83-.23v1.32a3.1985,3.1985,0,0,0,0,.44.48.48,0,0,0,.4783.4817c.0139,0,.0278-.0005.0417-.0017a.46.46,0,0,0,.4987-.4177A.4466.4466,0,0,0,67.6,32.58V31.12c0-.66,0-.65.61-.91a5.789,5.789,0,0,0,2.53-1.76v2.98a1.72,1.72,0,0,1-.78,1.56,9.862,9.862,0,0,1-2.8,1.42,30.9972,30.9972,0,0,1-6.97,1.49,46.5683,46.5683,0,0,1-8,.2,32.8807,32.8807,0,0,1-9.95-2,6.6589,6.6589,0,0,1-2.35-1.38,1.48,1.48,0,0,1-.48-1.12C39.42,30.61,39.41,29.57,39.41,28.54Z" transform="translate(0.2003)"/><path class="cls-1" d="M42.46,35.59c.39.15.71.28,1,.39a35.6062,35.6062,0,0,0,8.3,1.65,45.3139,45.3139,0,0,0,9.53-.31,27.85,27.85,0,0,0,6.93-1.56,15.2709,15.2709,0,0,0,2.33-1.19,1.69,1.69,0,0,0,.87-1.4,18.3445,18.3445,0,0,1,1.76,1.11c.94.76.87,1.66-.13,2.42a9,9,0,0,1-2.84,1.32,33.1909,33.1909,0,0,1-6.77,1.23,56.9347,56.9347,0,0,1-7.5.2,40.7367,40.7367,0,0,1-9.63-1.35,10.0587,10.0587,0,0,1-2.91-1.27A2.22,2.22,0,0,1,42.46,35.59Z" transform="translate(0.2003)"/><path class="cls-1" d="M41.55,47.66a2.33,2.33,0,0,0,1.33,1.71,14.2389,14.2389,0,0,0,4.14,1.58,40.7865,40.7865,0,0,0,8.08,1.16c1.65.07,3.31.13,5,.06a32.6092,32.6092,0,0,0,10.15-2l.33-.11a2.18,2.18,0,0,1-1,1.23,9.688,9.688,0,0,1-2.91,1.27,34.9333,34.9333,0,0,1-6.75,1.17,59.1476,59.1476,0,0,1-8.42.13,37.32,37.32,0,0,1-8.66-1.36,8.9983,8.9983,0,0,1-2.83-1.29,2.17,2.17,0,0,1-.29-.24,1.32,1.32,0,0,1,.09-2.24A15.7753,15.7753,0,0,1,41.55,47.66Z" transform="translate(0.2003)"/><path class="cls-1" d="M39.18,63.32a5.09,5.09,0,0,0,2.51,1.72,24.6678,24.6678,0,0,0,5.73,1.37,52.9976,52.9976,0,0,0,10.75.39c1.91-.12,3.81-.41,5.71-.62h.34V68a3.2673,3.2673,0,0,0,0,.54.69.69,0,0,0,.64.56.7.7,0,0,0,.68-.51,1.8369,1.8369,0,0,0,0-.41V65.87l.83-.23V66.9a3.1985,3.1985,0,0,0,0,.44.4631.4631,0,0,0,.52.48.47.47,0,0,0,.51-.48V65.88c0-.66,0-.65.62-.91a5.85,5.85,0,0,0,2.53-1.76v2.98a1.76,1.76,0,0,1-.78,1.56,10.0008,10.0008,0,0,1-2.81,1.42,31.0526,31.0526,0,0,1-7.12,1.51,46.629,46.629,0,0,1-8,.2,32.8225,32.8225,0,0,1-10-2,6.6105,6.6105,0,0,1-2.36-1.38,1.47,1.47,0,0,1-.47-1.12A17.2411,17.2411,0,0,0,39.18,63.32Z" transform="translate(0.2003)"/><path class="cls-1" d="M39.18,57.7a5,5,0,0,0,2.51,1.72,24.694,24.694,0,0,0,5.73,1.38,52.9976,52.9976,0,0,0,10.75.39c1.91-.13,3.81-.41,5.71-.62h.34v1.82a3.2673,3.2673,0,0,0,0,.54.68.68,0,0,0,1.32,0,1.8074,1.8074,0,0,0,0-.4V60.21l.83-.23v1.33a3.1985,3.1985,0,0,0,0,.44.5.5,0,0,0,.5192.48H66.89a.48.48,0,0,0,.5092-.4489c.0009-.0137.0011-.0274.0008-.0411V60.28c0-.65,0-.64.62-.91a5.83,5.83,0,0,0,2.53-1.75V60.6a1.77,1.77,0,0,1-.78,1.56,10.0008,10.0008,0,0,1-2.81,1.42,31.5864,31.5864,0,0,1-7.12,1.51,47.6436,47.6436,0,0,1-8,.2,33.13,33.13,0,0,1-10-2,6.64,6.64,0,0,1-2.19-1.39,1.44,1.44,0,0,1-.47-1.12C39.19,59.78,39.18,58.74,39.18,57.7Z" transform="translate(0.2003)"/><circle class="cls-2" cx="55.3503" cy="14.38" r="12.88"/><circle class="cls-1" cx="55.3503" cy="14.38" r="12.88"/><path class="cls-3" d="M61.2,14.77a2.91,2.91,0,0,0-1.7-1,2.31,2.31,0,0,0,1.27-2.51,2.51,2.51,0,0,0-.35-1.12,2.28,2.28,0,0,0-.81-.76,4.2894,4.2894,0,0,0-1.06-.48,9.2106,9.2106,0,0,0-1.36-.22V6.27h-1.5V8.66H54.5V6.27H53V8.72H50v1.6h1.08a.78.78,0,0,1,.87.66v2.8h0V17.7a.52.52,0,0,1-.5468.4917L51.38,18.19H50.25l-.3,1.79h3v2.48h1.5V20.03h1.19v2.44h1.5V20a13.1908,13.1908,0,0,0,1.41-.1,5.3206,5.3206,0,0,0,1.18-.34,3.1607,3.1607,0,0,0,1-.57,2.54,2.54,0,0,0,.62-.86,3.7013,3.7013,0,0,0,.32-1.22,2.91,2.91,0,0,0-.44-2.09Zm-6.71-4.34h1.47a4.0019,4.0019,0,0,1,.6.08,2.5111,2.5111,0,0,1,.54.16,1.21,1.21,0,0,1,.76.68,1.17,1.17,0,0,1,.13.57,1.35,1.35,0,0,1-.09.5,1,1,0,0,1-.26.37,2.7024,2.7024,0,0,1-.36.26,1.5,1.5,0,0,1-.48.18,4.6622,4.6622,0,0,1-.5.11,3.3822,3.3822,0,0,1-.53.06H54.49V10.43Zm4.1,6.63a1.8389,1.8389,0,0,1-.24.39,1.5411,1.5411,0,0,1-.39.3,3.5706,3.5706,0,0,1-.46.2,4.1732,4.1732,0,0,1-.54.14l-.56.08H54.49V14.9h1.73a5.3963,5.3963,0,0,1,.72.09,4.8481,4.8481,0,0,1,.64.18,1.7408,1.7408,0,0,1,.56.3,1.36,1.36,0,0,1,.51,1.07,1.3,1.3,0,0,1-.09.49Z" transform="translate(0.2003)"/></svg>