<svg id="Layer_1" data-name="Layer 1" xmlns="http://www.w3.org/2000/svg" xmlns:xlink="http://www.w3.org/1999/xlink" viewBox="0 0 123.67 97.51"><defs><style>.cls-1{fill:none;}.cls-2{fill:#ef712b;}.cls-3{clip-path:url(#clip-path);}</style><clipPath id="clip-path" transform="translate(-42.14 -60.63)"><path class="cls-1" d="M91.64,78.31c2.89-.33,11.44,1,10.38,7.13s8.42,42,8.42,42L101,140l-9.4,9.72L113.33,161l30.75-1.7L161.56,143l9.33-16.95,2.89-25.37-6.17-24.1L147.89,65.1l-19.84-9.2-18.8,3.16Z"/></clipPath></defs><path class="cls-2" d="M87.79,144c-3.66-1.49-5.3-4.06-5-7.2-2.23-1-4.62-1.55-6-3s-1.79-3.71-2.79-6c.37,0,.08,0-.21,0-3.19-.06-5.53-1.46-6.65-4.3s-.22-5.34,2.08-7.42q13.13-11.88,26.2-23.79A17.6,17.6,0,0,0,97,90.85a4.29,4.29,0,0,0-.14-5.92,4.83,4.83,0,0,0-6.14-.76,13.81,13.81,0,0,0-1.88,1.53L69.16,103.51c-5.73,5.19-9.16,4.77-13.2-1.59-1-1.6-2-3.23-3.05-4.79a5.92,5.92,0,0,0-7.87-2,5.31,5.31,0,0,0-2,7.67q4.66,7.64,9.56,15.14a2.64,2.64,0,0,1,.13,3.13,66.24,66.24,0,0,0-3,6,12.17,12.17,0,0,0,5.88,16.09c5,2.5,10.08,4.84,15.25,7A13.26,13.26,0,0,0,87.79,144Z" transform="translate(-42.14 -60.63)"/><path class="cls-2" d="M86.8,104A12.49,12.49,0,0,0,84,105.61c-4.54,4-9,8-13.43,12.13-2.23,2.05-2.37,4.76-.47,6.69a5,5,0,0,0,7-.05c4.56-4.06,9.06-8.19,13.58-12.29A4.35,4.35,0,0,0,92,106.8C91.19,105,89.63,104.07,86.8,104Z" transform="translate(-42.14 -60.63)"/><path class="cls-2" d="M76.37,129.75c1,1.23,1.75,2.74,3,3.64a4,4,0,0,0,5-.28c5.06-4.41,10.06-8.88,15-13.45a4.26,4.26,0,0,0-.16-6.08,4.76,4.76,0,0,0-6.34-.44c-5,4.35-9.92,8.81-14.78,13.32C77.34,127.15,77.09,128.31,76.37,129.75Z" transform="translate(-42.14 -60.63)"/><path class="cls-2" d="M67.38,81c0,.7-.26,1.23-.07,1.54.42.65,1.09,1.69,1.57,1.66a2.68,2.68,0,0,0,2-1.42A35,35,0,0,0,71.72,76c0-.65-1-1.32-1.59-2-.72.58-1.9,1.06-2.09,1.77A34.6,34.6,0,0,0,67.38,81Z" transform="translate(-42.14 -60.63)"/><path class="cls-2" d="M49.87,84.45a5.14,5.14,0,0,0,1,1.27,41.55,41.55,0,0,0,5.3,3.65c.73.39,1.95-.07,2.95-.14-.27-.92-.23-2.16-.85-2.71A37.61,37.61,0,0,0,53,82.79,2,2,0,0,0,49.87,84.45Z" transform="translate(-42.14 -60.63)"/><path class="cls-2" d="M62.26,85.72c1.83-.19,2.52-1.1,2-2.41a48.8,48.8,0,0,0-3-6.48,2.43,2.43,0,0,0-2.19-.76c-.58.2-1.32,1.43-1.13,1.93a66.37,66.37,0,0,0,3.11,6.89C61.27,85.32,62,85.53,62.26,85.72Z" transform="translate(-42.14 -60.63)"/><path class="cls-2" d="M73.58,84.84c.3.35.66,1.12,1.22,1.3a2.27,2.27,0,0,0,2-.35,54.5,54.5,0,0,0,4.5-5.91,2.3,2.3,0,0,0-.51-2.21,2.28,2.28,0,0,0-2.18,0c-1.73,2-3.25,4.11-4.83,6.19C73.65,84,73.68,84.3,73.58,84.84Z" transform="translate(-42.14 -60.63)"/><g class="cls-3"><path class="cls-2" d="M119.82,158.15c-1.69-.25-3.39-.43-5.07-.74A42.23,42.23,0,0,1,89.68,143c-7-8.07-10.67-17.51-10.46-28.17C79.58,97,88,83.89,103.9,75.7a40.09,40.09,0,0,1,14.56-4v-2.6l-.72-.07a3.52,3.52,0,0,1-3.1-3.12,9.13,9.13,0,0,1,0-2.09A3.44,3.44,0,0,1,118,60.67c3-.05,6-.05,9,0a3.4,3.4,0,0,1,3.35,3,9.05,9.05,0,0,1-.07,2.65c-.31,1.58-1.59,2.46-3.75,2.73v2.58a43.75,43.75,0,0,1,13.55,3.54,43,43,0,0,1,11.66,7.64l2.57-2.65c-.78-1.64-.7-2.34.54-3.48a2.15,2.15,0,0,1,3.22,0c1.17,1.12,2.3,2.27,3.43,3.43a2,2,0,0,1,.56,2.58c-.55,1-1.28,1.85-2.52,1.71a1.72,1.72,0,0,0-1.63.65c-.65.69-1.36,1.33-1.91,1.86,1.68,2.69,3.45,5.17,4.88,7.83a43.31,43.31,0,0,1-32.13,62.91c-1.12.17-2.25.29-3.38.44Zm2.66-80.9A37.57,37.57,0,1,0,160,114.79,37.57,37.57,0,0,0,122.48,77.25Z" transform="translate(-42.14 -60.63)"/><path class="cls-2" d="M155.78,114.38h-2.17c-.05-.41-.08-.79-.16-1.15a4.86,4.86,0,0,0-4.9-3.83q-8.85,0-17.7,0a1.53,1.53,0,0,1-1.47-.74,9.89,9.89,0,0,0-8.08-4.23V79.93C139.18,79.32,156.12,95,155.78,114.38Z" transform="translate(-42.14 -60.63)"/><path class="cls-2" d="M128.11,115.68c-.16.35-.29.67-.43,1A6.87,6.87,0,1,1,120,107a6.74,6.74,0,0,1,7.65,3.75,1.47,1.47,0,0,0,1.62,1c6.18,0,12.36,0,18.55,0,.28,0,.57,0,.85,0a2,2,0,1,1-.08,3.94H128.11Z" transform="translate(-42.14 -60.63)"/></g></svg>