<svg id="Layer_1" data-name="Layer 1" xmlns="http://www.w3.org/2000/svg" viewBox="0 0 136.49 98.35"><defs><style>.cls-1{fill:#ef712b;}.cls-2{fill:#fff;}</style></defs><path class="cls-1" d="M129.73,141.91a30.6,30.6,0,0,1-6.13.76c-1.65.05-3.31,0-5,0,.09.35.12.57.18.78a19.93,19.93,0,0,0,38.32-1.7c.22-1,.4-2,.6-3v-3.18c-.19-1-.35-1.92-.57-2.87a20,20,0,0,0-18.49-15.48,18.05,18.05,0,0,0-6.8.91,46.84,46.84,0,0,1,5.06,3.31,9.92,9.92,0,0,1,3,4.92l0,.13,1.11.42,1.49-3.82,2.33.91-1.46,3.74q1.26.45,1.86.69l1.44-3.71,2.34.91-1.49,3.81a14.34,14.34,0,0,1,2,1.17,7.36,7.36,0,0,1,1.44,1.34,3.79,3.79,0,0,1,.79,1.67,4.1,4.1,0,0,1-.12,2,3.85,3.85,0,0,1-3.51,3.13,4.23,4.23,0,0,1,1.46,6.1,6,6,0,0,1-1.22,1.7,4.49,4.49,0,0,1-1.51,1,5.31,5.31,0,0,1-1.81.32,10.06,10.06,0,0,1-2-.19,18.06,18.06,0,0,1-2.29-.64l-1.51,3.86-2.33-.9,1.48-3.8c-.8-.32-1.42-.56-1.84-.74L135,149.21l-2.33-.91,1.5-3.86-.82-.33-.83-.33-3-1.18.38-.64Z" transform="translate(-39.28 -58.77)"/><path class="cls-1" d="M142.3,130.5l.6.22.82.31a7.45,7.45,0,0,1,.86.38,7.67,7.67,0,0,1,.89.48,5,5,0,0,1,.73.58,2.18,2.18,0,0,1,.56.7,2.3,2.3,0,0,1,.22.82,2.25,2.25,0,0,1-.16,1,2.34,2.34,0,0,1-.43.72,1.78,1.78,0,0,1-.64.42,3.83,3.83,0,0,1-.72.19,2.64,2.64,0,0,1-.84,0c-.33,0-.61-.09-.85-.13s-.52-.13-.86-.24l-.77-.27-.71-.27-.51-.21,1.81-4.65Z" transform="translate(-39.28 -58.77)"/><path class="cls-1" d="M144.65,143.29a2.39,2.39,0,0,1-.61.46,2.47,2.47,0,0,1-.78.22,6.12,6.12,0,0,1-.84,0,6,6,0,0,1-.92-.12,9,9,0,0,1-.91-.21c-.26-.07-.56-.16-.91-.28l-.81-.29-.73-.29-.56-.23,2-5.11.72.26,1,.37c.26.1.6.25,1,.45a9.21,9.21,0,0,1,1.07.57,7.62,7.62,0,0,1,.88.67,2.92,2.92,0,0,1,.69.8,2.43,2.43,0,0,1,.29.91,2.19,2.19,0,0,1-.15,1.06,2.36,2.36,0,0,1-.44.72Z" transform="translate(-39.28 -58.77)"/><path class="cls-2" d="M144.65,143.29" transform="translate(-39.28 -58.77)"/><path class="cls-1" d="M157.82,123.51A24.41,24.41,0,0,0,141.26,113l-.08-.08a18.12,18.12,0,1,1,16.71,10.57Zm3.25-6.3,1.4-.68a1.06,1.06,0,0,0,.56-.62,1.2,1.2,0,0,0,0-.77l-.61-1.6a8.46,8.46,0,0,0,2.23-1.85,6.52,6.52,0,0,0,1.24-2.19,6,6,0,0,0,.27-2.38,6.72,6.72,0,0,0-.68-2.38,4.79,4.79,0,0,0-.87-1.28,3.92,3.92,0,0,0-1.08-.81,4.32,4.32,0,0,0-1.21-.41,8.2,8.2,0,0,0-1.32-.11,10.47,10.47,0,0,0-1.36.09l-1.36.2-1.71-4.56a8.53,8.53,0,0,1,.85-.1l.77,0a6,6,0,0,0,.64,0,1.52,1.52,0,0,0,.48-.13.94.94,0,0,0,.44-.39,1.71,1.71,0,0,0,.21-.65l.26-1.82a9.23,9.23,0,0,0-2.19-.38,8,8,0,0,0-2.67.32l-.94-2.53-1.4.68a1.06,1.06,0,0,0-.56.62,1.16,1.16,0,0,0,0,.78l.55,1.45a7.24,7.24,0,0,0-2.3,1.71,6.72,6.72,0,0,0-1.26,2.13,5.54,5.54,0,0,0-.34,2.22,5.3,5.3,0,0,0,.54,2.09,5.39,5.39,0,0,0,1.51,2,4.67,4.67,0,0,0,1.84.88,6.13,6.13,0,0,0,2,.13,19.07,19.07,0,0,0,2-.28l1.82,4.87a5.35,5.35,0,0,1-1.16.1q-.54,0-1-.06c-.31,0-.59,0-.85-.05a1.57,1.57,0,0,0-.67.14,1.24,1.24,0,0,0-.47.41,1.28,1.28,0,0,0-.23.54l-.34,2.28a8.92,8.92,0,0,0,2.85.35,12.16,12.16,0,0,0,3.1-.5Z" transform="translate(-39.28 -58.77)"/><path class="cls-1" d="M153.07,101.68a1.75,1.75,0,0,0,1,.94,4.15,4.15,0,0,0,1.58.17l-1.45-3.89a4.29,4.29,0,0,0-.82.72,2,2,0,0,0-.43.7,1.57,1.57,0,0,0-.1.7A2.06,2.06,0,0,0,153.07,101.68Z" transform="translate(-39.28 -58.77)"/><path class="cls-1" d="M162.16,107.07a1.61,1.61,0,0,0-1-.9,4.07,4.07,0,0,0-1.52-.12l1.59,4.24A2.35,2.35,0,0,0,162.16,107.07Z" transform="translate(-39.28 -58.77)"/><path class="cls-1" d="M39.28,97.34c.7-1.9,2.11-2.55,4.07-2.46,2.29.09,4.58,0,6.88,0s3.44,1.18,3.44,3.39q0,18.22,0,36.44c0,2.21-1.21,3.39-3.44,3.4s-4.59-.08-6.88,0c-2,.09-3.36-.57-4.07-2.45Z" transform="translate(-39.28 -58.77)"/><path class="cls-1" d="M135.65,112.15a24.32,24.32,0,0,0-14.05,4,3.25,3.25,0,0,1-3.52-.07c-4.15-2.52-7.81-5.56-10.27-10.11-1.46,5.88-4.35,10.67-9.62,14.16.69,0,1,.07,1.4.07,6.62,0,13.24,0,19.85,0a22.63,22.63,0,0,1,8.19,1.29c3.67,1.43,5.52,4.09,5.47,7.83s-2,6.28-5.63,7.61a23.23,23.23,0,0,1-8,1.21c-5.11,0-10.22.08-15.34,0a20.63,20.63,0,0,0-7.6,1.28A32.66,32.66,0,0,1,84,141.73c-7.67-.3-15-2-21.53-6.11a32.07,32.07,0,0,1-4.63-4.05,2,2,0,0,1-.45-1.32q0-15.28,0-30.56c0-.22,0-.44,0-.69,1.78-.15,3.49-.27,5.2-.43a53,53,0,0,0,16.89-4.92,171.93,171.93,0,0,1,25.08-9,12.24,12.24,0,0,1,12.75,3.64,161.58,161.58,0,0,1,17.87,23A8.09,8.09,0,0,1,135.65,112.15Z" transform="translate(-39.28 -58.77)"/><path class="cls-1" d="M114.47,80.93c0-.31,0-.63,0-1a21.21,21.21,0,1,1,42.41,0,22.44,22.44,0,0,1-.16,2.61l-.06.43a22.59,22.59,0,0,0-20.95,18,.18.18,0,0,1-.17.11h-.81l-.43,0A145.14,145.14,0,0,0,121,84.89,13.14,13.14,0,0,0,114.56,81ZM136,90.65l7.84-11.1a.46.46,0,0,0-.24.08L136.13,84a.39.39,0,0,0-.22.41q0,3.14,0,6.27Zm-.58,0q0-3.15,0-6.29a.38.38,0,0,0-.23-.39l-7.44-4.35-.25-.13.17.27,4.29,6.07q1.71,2.4,3.4,4.82Zm.54-26.54a.25.25,0,0,0,0,.08v9.26c0,.18.08.24.22.3L143.48,77l.29.12-7.8-13Zm-8,12.83,7.33-3.2c.18-.08.18-.19.18-.34V64.32c0-.07,0-.14,0-.27l-7.73,13Zm8.06,5.49,8-4.69-8-3.51Zm-8.57-4.69,8,4.69v-8.2Z" transform="translate(-39.28 -58.77)"/></svg>