<svg id="Layer_1" data-name="Layer 1" xmlns="http://www.w3.org/2000/svg" xmlns:xlink="http://www.w3.org/1999/xlink" viewBox="0 0 115.32 101.34"><defs><style>.cls-1,.cls-3{fill:none;}.cls-2{fill:#ef712b;}.cls-3{stroke:#ef712b;stroke-miterlimit:10;stroke-width:6px;}.cls-4{clip-path:url(#clip-path);}</style><clipPath id="clip-path" transform="translate(-49.87 -57.8)"><path class="cls-1" d="M103.14,85.05l-.66,9.38s5.44,9.37,5.72,9.89,5,8.31,5,8.31l3.28,3.47,11.73,4.12-3,21.29L97.51,152.58s-27.2-5.82-27.2-6.1-11.82-23.63-11.82-23.63.38-26.17.66-26.45,10.69-9.47,10.69-9.47l28.61-3Z"/></clipPath></defs><path class="cls-2" d="M108,115.27a13.73,13.73,0,0,0-1.46-4.44l2.67-1.42a16.64,16.64,0,0,0-3.5-4.5l-2,2.24a13.62,13.62,0,0,0-3.92-2.54l1.17-2.78a16.53,16.53,0,0,0-5.55-1.29l-.18,3c-.27,0-.53,0-.81,0a13.85,13.85,0,0,0-3.83.55l-.84-2.9a16.72,16.72,0,0,0-5.13,2.49l1.77,2.46A13.87,13.87,0,0,0,83,109.45l-2.48-1.73a16.86,16.86,0,0,0-2.42,5.17l2.93.8a13.58,13.58,0,0,0-.5,3.62c0,.35,0,.69,0,1l-3,.23A16.84,16.84,0,0,0,79,124.1l2.77-1.23a13.7,13.7,0,0,0,2.59,3.89l-2.21,2.08a16.82,16.82,0,0,0,4.56,3.43L88,129.58A13.74,13.74,0,0,0,92.5,131l-.4,3a16.75,16.75,0,0,0,5.69-.21l-.62-2.95a13.63,13.63,0,0,0,4.34-1.74l1.58,2.59a16.89,16.89,0,0,0,4.29-3.75L105,126a13.85,13.85,0,0,0,2.28-4.08l2.86,1a16.72,16.72,0,0,0,1-5.62,17,17,0,0,0-.18-2.48Zm-8.78,6-.12-.1a6.14,6.14,0,0,1-1.56,1.36l.1.14a6.21,6.21,0,0,1-2,.81l0-.19a6.26,6.26,0,0,1-2.07.08l0,.16a6.27,6.27,0,0,1-2-.63l.08-.15a6,6,0,0,1-1.65-1.23l-.12.12a6.31,6.31,0,0,1-1.19-1.78l.17-.07a6,6,0,0,1-.5-2h-.16c0-.16,0-.31,0-.47a6.38,6.38,0,0,1,.25-1.64l.15,0a6.45,6.45,0,0,1,.87-1.86l-.14-.1a6.15,6.15,0,0,1,1.5-1.51l.1.13a6,6,0,0,1,1.85-.9l0-.15a6.33,6.33,0,0,1,1.74-.28c.13,0,.25,0,.37,0v.16a6.28,6.28,0,0,1,2,.47l.07-.17a6.35,6.35,0,0,1,1.78,1.16l-.12.13a6.08,6.08,0,0,1,1.27,1.63l.14-.08a6.3,6.3,0,0,1,.67,2l-.16,0a6.69,6.69,0,0,1,.06.9,6.11,6.11,0,0,1-.34,2l.15.06A6.15,6.15,0,0,1,99.18,121.24Z" transform="translate(-49.87 -57.8)"/><path class="cls-2" d="M135,98.93a11,11,0,1,0-11-11A11,11,0,0,0,135,98.93Z" transform="translate(-49.87 -57.8)"/><path class="cls-2" d="M163.46,98a30.06,30.06,0,0,0,1.39-14.56l-4.16.62a25.87,25.87,0,0,0-2.75-8.36l3.7-2a30.37,30.37,0,0,0-6.28-8.06l-2.84,3.11a26.36,26.36,0,0,0-7.4-4.79l1.62-3.85a30,30,0,0,0-10-2.32L136.53,62c-.5,0-1-.08-1.51-.08a25.86,25.86,0,0,0-7.24,1l-1.17-4a30,30,0,0,0-9.2,4.49l2.46,3.42a26.06,26.06,0,0,0-6.18,6.26l-3.45-2.4A30.06,30.06,0,0,0,105.9,80L110,81.1a25.53,25.53,0,0,0-.94,6.82c0,.65,0,1.29.1,1.94l-4.2.31a30.15,30.15,0,0,0,2.48,9.93l3.85-1.7a25.93,25.93,0,0,0,4.88,7.33l-3.07,2.89a30.27,30.27,0,0,0,8.17,6.15l1.93-3.75a25.59,25.59,0,0,0,8.41,2.64l-.55,4.17a31.33,31.33,0,0,0,4,.26,30.06,30.06,0,0,0,6.22-.65l-.86-4.09a25.85,25.85,0,0,0,8.17-3.28l2.21,3.59a29.94,29.94,0,0,0,7.68-6.73l-3.25-2.65a26.09,26.09,0,0,0,4.3-7.68Zm-12-10.08A16.4,16.4,0,1,1,135,71.52,16.42,16.42,0,0,1,151.42,87.92Z" transform="translate(-49.87 -57.8)"/><path class="cls-3" d="M114.68,78.49H62.87a10,10,0,0,0-10,10v57.65a10,10,0,0,0,10,10h63a10,10,0,0,0,10-10V106.25" transform="translate(-49.87 -57.8)"/><g class="cls-4"><path class="cls-2" d="M126.21,117.45c-.57,18-13.77,31.75-31.8,31.63-18.9-.12-31.93-13.63-31.91-31.76s13.31-31.7,31.9-31.77C113.26,85.48,125.94,100.18,126.21,117.45ZM110.5,137.67c-.82-1.3-1-2.67.08-3.93,1.27-1.41,2.76-1,4.24-.23a25.63,25.63,0,0,0,5.48-13.17c-1.63-.37-2.77-1.11-2.89-2.84-.11-1.56.62-2.39,2.89-3.32a25.34,25.34,0,0,0-5.52-13c-1.85,1.14-3.11,1.18-4.22.2s-1.22-2.36-.11-4.54a25.52,25.52,0,0,0-13.14-5.45c-.31,1.66-1.22,2.74-2.87,2.8-1.85.07-2.67-1.24-3.14-2.82a25.52,25.52,0,0,0-13.11,5.57c1.14,1.83,1.17,3.13.18,4.22s-2.25,1.18-4.56.12a25.37,25.37,0,0,0-5.4,13.09c1.67.38,2.76,1.26,2.79,2.94s-1.16,2.64-2.81,3A25.58,25.58,0,0,0,74,133.56c1.37-1,2.74-1.06,4,.09s1.06,2.66.25,4.11a25.54,25.54,0,0,0,13.19,5.54c.38-1.69,1.27-2.82,3-2.84s2.58,1.22,3,2.76A23.7,23.7,0,0,0,110.5,137.67Z" transform="translate(-49.87 -57.8)"/></g></svg>