<svg id="Layer_1" data-name="Layer 1" xmlns="http://www.w3.org/2000/svg" xmlns:xlink="http://www.w3.org/1999/xlink" viewBox="0 0 98.62 147.79"><defs><style>.cls-1{fill:none;}.cls-2{fill:#db953c;}.cls-3{clip-path:url(#clip-path);}.cls-4{fill:#fff;}</style><clipPath id="clip-path"><path class="cls-1" d="M6.69,78.25S37.21,48.62,40.92,47.16a11.59,11.59,0,0,1,7.13-.28L91.3,88.39l13.22-30.7-4.56-47L60.15-9.6,9.52-4.47-8.43,24.62l2.28,47.63Z"/></clipPath></defs><path class="cls-2" d="M91.3,98.18,50,56.84a8.35,8.35,0,0,0-11.79,0L15.52,79.47a8.46,8.46,0,0,0,0,11.9l3.75,3.85h8.66l-8.08-8.17a2.35,2.35,0,0,1-.65-1.63,2.28,2.28,0,0,1,.65-1.6l3-2.9,14.2,14.3H50.69l-21-21.12L42.52,61.21a2.23,2.23,0,0,1,3.14,0L87,102.54a2.27,2.27,0,0,1,.64,1.58,2.35,2.35,0,0,1-.7,1.56L84.59,108v8.66L91.26,110a8.34,8.34,0,0,0,.07-11.79h0Z"/><path class="cls-2" d="M71.9,99.1H13.44a8.49,8.49,0,0,0-8.54,8.31v22.12H80.14V107.41A8.22,8.22,0,0,0,72,99.1ZM25.32,122a6,6,0,0,1-4.19-1.69,6.07,6.07,0,1,1-4.2-10.44,6,6,0,0,1,4.2,1.69A6.06,6.06,0,1,1,25.32,122Z"/><path class="cls-2" d="M4.9,139.42a8.54,8.54,0,0,0,8.54,8.37H71.9a8.28,8.28,0,0,0,8.24-8.32v-.53H4.9Z"/><g class="cls-3"><circle class="cls-2" cx="49.31" cy="49.31" r="49.31"/><path class="cls-4" d="M72.52,50.84A11.16,11.16,0,0,0,66,47c3.7-1.9,5.33-5.1,4.88-9.63a9.5,9.5,0,0,0-1.36-4.27,8.35,8.35,0,0,0-3.08-2.91,16.47,16.47,0,0,0-4.21-1.68A33.13,33.13,0,0,0,57,27.67v-9.4H51.25v9.14c-1,0-2.51,0-4.56.07V18.27H41v9.4H29.42v6.12h4.1c1.89,0,3,.84,3.32,2.54V47h0V62a2,2,0,0,1-2.09,1.9H30.52l-1.16,6.83H40.82v9.51h5.75v-9.4h4.55v9.36h5.74V70.72a47.13,47.13,0,0,0,5.43-.56,22.4,22.4,0,0,0,4.54-1.29,12.22,12.22,0,0,0,3.61-2.18,10.16,10.16,0,0,0,2.41-3.32,14,14,0,0,0,1.21-4.67q.5-5.18-1.67-8ZM46.76,34.2h3.47q.8,0,2.16.09c.91.08,1.67.18,2.3.3a12.85,12.85,0,0,1,2,.62,5.64,5.64,0,0,1,1.79,1,5.55,5.55,0,0,1,1.14,1.57A4.83,4.83,0,0,1,60.08,40a5.19,5.19,0,0,1-.33,1.91,3.57,3.57,0,0,1-1,1.43,10.55,10.55,0,0,1-1.38,1,6.11,6.11,0,0,1-1.81.69c-.74.17-1.38.31-1.92.41a17.58,17.58,0,0,1-2,.21l-1.87.07h-3V34.2ZM62.45,59.62a5.09,5.09,0,0,1-.92,1.49,5.17,5.17,0,0,1-1.47,1.12,14,14,0,0,1-1.77.78,14.93,14.93,0,0,1-2.07.52c-.81.15-1.52.26-2.13.32s-1.34.11-2.18.15-1.51.06-2,.06H46.74V51.4h4.18a24,24,0,0,1,2.57.11,23.11,23.11,0,0,1,2.76.34,17.49,17.49,0,0,1,2.45.69,7,7,0,0,1,2.16,1.08,5.49,5.49,0,0,1,1.38,1.72,5.36,5.36,0,0,1,.21,4.29Z"/></g></svg>