<svg id="Layer_1" data-name="Layer 1" xmlns="http://www.w3.org/2000/svg" viewBox="0 0 117.11 112.14"><defs><style>.cls-1{fill:#fff;}</style></defs><path class="cls-1" d="M115.86,151.2H98.56v-3.37h23.27v10.53H155V125.24H144.32v-5.92c.87,0,1.67-.12,2.47-.13h10.46c2.75,0,3.81,1,3.81,3.76q0,19,0,38.05c0,2.24-1.11,3.43-3.34,3.44H119.13c-2.13,0-3.25-1.21-3.27-3.39,0-2.76,0-5.53,0-8.3Z" transform="translate(-48.97 -52.4)"/><path class="cls-1" d="M88.33,147.83h5.76c0,.58.09,1.12.09,1.66,0,3.87,0,7.74,0,11.62,0,2.36-1.09,3.43-3.43,3.43q-19.16,0-38.3,0c-2.32,0-3.46-1.12-3.46-3.44q0-19.08,0-38.16c0-2.49,1.12-3.55,3.61-3.55,2.76,0,5.53,0,8.29,0,1.05,0,1.38-.28,1.37-1.35-.05-4.81,0-9.62,0-14.42v-1.58h3.37v23.29H55.08V158.5c.51,0,1,.07,1.49.07,10.09,0,20.17,0,30.26,0,1.12,0,1.47-.31,1.43-1.44-.07-2.63,0-5.27,0-7.91C88.25,148.8,88.3,148.35,88.33,147.83Z" transform="translate(-48.97 -52.4)"/><path class="cls-1" d="M144.31,91.58h10.53V58.46c-.5,0-1-.09-1.49-.09-10.08,0-20.17,0-30.26,0-1.12,0-1.45.3-1.42,1.43.07,3.06,0,6.12,0,9.41-1.87,0-3.68,0-5.48,0-.18,0-.49-.46-.5-.7,0-4.43-.07-8.85,0-13.28,0-1.76,1.36-2.75,3.33-2.76h38.3c2.46,0,3.53,1,3.53,3.48q0,18.94,0,37.91c0,2.84-1,3.79-3.89,3.79h-9.28v17.3h-3.41Z" transform="translate(-48.97 -52.4)"/><path class="cls-1" d="M65.52,91.82c0,1.78,0,3.39,0,5a1.22,1.22,0,0,1-.9.72c-4.34,0-8.68,0-13,0A2.62,2.62,0,0,1,49,94.62c0-5,0-10,0-14.94q0-11.75,0-23.49c0-2.61.91-3.55,3.52-3.55H90.28c2.83,0,3.74,1,3.74,3.79v9.39H95.4c5,0,10,0,14.94,0,1,0,1.2.47,1.06,1.26s.57,2-1,2L89,69c-.07,0-.9,0-.8-.78V58.55c-.53,0-1-.09-1.42-.09-10.17,0-20.34,0-30.51,0-1.23,0-1.49.39-1.48,1.53q.06,15.12,0,30.25c0,1.3.35,1.68,1.65,1.64C59.35,91.75,62.32,91.82,65.52,91.82Z" transform="translate(-48.97 -52.4)"/><path class="cls-1" d="M140.06,130.77h-3.45v-2.38q0-22.53,0-45a1.32,1.32,0,0,0-1-1.48,7.18,7.18,0,0,1-4.59-8,7.3,7.3,0,0,1,14.31-.18,7.18,7.18,0,0,1-4.17,8.06A1.56,1.56,0,0,0,140,83.47q0,22.78,0,45.56Zm-1.79-59.5a3.9,3.9,0,0,0-4,3.82A4,4,0,0,0,138.18,79a3.87,3.87,0,0,0,.09-7.74Z" transform="translate(-48.97 -52.4)"/><path class="cls-1" d="M82.74,143.54v-3.45h1.68q22.67,0,45.33,0a1.72,1.72,0,0,0,1.93-1.29,7.18,7.18,0,0,1,7.88-4.29,7.28,7.28,0,0,1,6,7.1,7.1,7.1,0,0,1-5.75,7.13,7,7,0,0,1-8.06-4.09,1.71,1.71,0,0,0-1.92-1.15q-22.79,0-45.58,0Zm55.76-5.68a3.85,3.85,0,1,0-.32,7.69,3.89,3.89,0,0,0,4-3.76A3.84,3.84,0,0,0,138.5,137.86Z" transform="translate(-48.97 -52.4)"/><path class="cls-1" d="M69.9,86.21h3.44v1.63q0,22.59,0,45.18c0,1.13.15,1.78,1.39,2.26a7,7,0,0,1,4.17,7.91,7.3,7.3,0,0,1-7,5.92,7.38,7.38,0,0,1-7.19-5.6,7.14,7.14,0,0,1,4-8.16,1.91,1.91,0,0,0,1.31-2.19q0-22.53,0-45.06ZM71.69,138a3.87,3.87,0,1,0,.12,7.74,3.87,3.87,0,0,0-.12-7.74Z" transform="translate(-48.97 -52.4)"/><path class="cls-1" d="M121.66,91.55h10.61v23.34h-3.36V97.57h-8.27c-4.37,0-5-.58-5-4.9V81.16h6Z" transform="translate(-48.97 -52.4)"/><path class="cls-1" d="M132.37,125.16H121.85v10.65H98.58v-3.34h17.28v-3c0-2.33,0-4.67,0-7,0-2,1-3.1,2.91-3.13,4.24-.06,8.49,0,12.74,0,.28,0,.8.42.81.66C132.4,121.68,132.37,123.37,132.37,125.16Z" transform="translate(-48.97 -52.4)"/><path class="cls-1" d="M80.92,119.38c3.44,0,6.63,0,9.81,0,2.26,0,3.46,1,3.48,3.27,0,4.08,0,8.16,0,12.25,0,.28-.08.57-.12.92h-5.8v-10.4H77.61V102.08h3.31Z" transform="translate(-48.97 -52.4)"/><path class="cls-1" d="M77.63,91.81h10.5V82.92c0-1.79,0-1.79,1.82-1.79,6.69,0,13.37,0,20,0,1.15,0,1.51.33,1.43,1.45s.23,1.9-1.39,1.86c-4.77-.09-9.54,0-14.31,0-.54,0-1.08.07-1.71.11,0,2.87,0,5.63,0,8.4A15.14,15.14,0,0,1,94,94.67c-.26,2.12-1.11,2.89-3.26,2.9-3.91,0-7.83,0-11.75,0-1.08,0-1.4-.35-1.33-1.39C77.69,94.82,77.63,93.41,77.63,91.81Z" transform="translate(-48.97 -52.4)"/><path class="cls-1" d="M166.08,73.23v3.45H163.7q-22.51,0-45,0a1.31,1.31,0,0,0-1.48,1,7.19,7.19,0,0,1-8.06,4.6A7.3,7.3,0,0,1,109,68,7.18,7.18,0,0,1,117,72.14a1.58,1.58,0,0,0,1.78,1.13q22.77,0,45.55,0ZM106.59,75a3.89,3.89,0,0,0,3.82,4,4,4,0,0,0,3.92-3.86,3.87,3.87,0,0,0-7.74-.09Z" transform="translate(-48.97 -52.4)"/></svg>