<svg id="Layer_1" data-name="Layer 1" xmlns="http://www.w3.org/2000/svg" xmlns:xlink="http://www.w3.org/1999/xlink" viewBox="0 0 136.33 100.16"><defs><style>.cls-1{fill:none;}.cls-2{fill:#00a280;}.cls-3{clip-path:url(#clip-path);}</style><clipPath id="clip-path" transform="translate(0.02 -0.01)"><polygon class="cls-1" points="55.02 69.47 55.02 100.17 10.54 98.23 -9.53 65.33 -5.81 29.43 6.05 11.01 46.79 -4.4 81.02 20.22 55.65 55.37 55.02 69.47"/></clipPath></defs><path class="cls-2" d="M134.22,57.73,98.87,22.37a7.1,7.1,0,0,0-10.05,0l0,0L69.42,41.72a7.25,7.25,0,0,0,0,10.19l3.21,3.29H80l-6.92-7a2,2,0,0,1-.55-1.39,1.91,1.91,0,0,1,.55-1.36L75.68,43,87.83,55.2H99.49l-18-18.07,11-11a1.89,1.89,0,0,1,1.34-.56,1.92,1.92,0,0,1,1.34.54l35.37,35.35a1.93,1.93,0,0,1,.55,1.35,2,2,0,0,1-.6,1.34l-2,2v7.41l5.73-5.74a7.12,7.12,0,0,0,0-10.08Z" transform="translate(0.02 -0.01)"/><path class="cls-2" d="M117.64,58.52h-50a7.27,7.27,0,0,0-7.31,7.11V84.55H124.7V65.63a7,7,0,0,0-6.89-7.11h-.17ZM77.79,78.1a5.22,5.22,0,0,1-3.59-1.44,5.19,5.19,0,1,1,0-7.49,5.19,5.19,0,1,1,3.59,8.93Z" transform="translate(0.02 -0.01)"/><path class="cls-2" d="M60.32,93a7.31,7.31,0,0,0,7.31,7.16h50A7.08,7.08,0,0,0,124.68,93v-.45H60.32Z" transform="translate(0.02 -0.01)"/><g class="cls-3"><path class="cls-2" d="M42.56,12V4.6a4.15,4.15,0,0,1,2.27-4A4.25,4.25,0,0,1,49.6.9C57.29,6.59,65,12.27,72.6,18.05c3.16,2.4,3.12,6.15-.06,8.55C65,32.3,57.39,37.91,49.81,43.6a4.41,4.41,0,0,1-4.91.49,4.29,4.29,0,0,1-2.36-4.3c.06-2.37,0-4.74,0-7.22A20.39,20.39,0,0,0,32,35.2,22.27,22.27,0,1,0,64.38,59.89c.77-3.22,2.77-5,6.1-5.12s7-.1,10.44,0c2.9.08,4.45,2.16,4,5.27A41.75,41.75,0,0,1,70.51,86.85C45.86,108.06,7.81,95.23.9,63.42-4.17,39.88,12.22,16.2,36,12.73,38.1,12.42,40.22,12.26,42.56,12Z" transform="translate(0.02 -0.01)"/></g></svg>