<svg id="Layer_1" data-name="Layer 1" xmlns="http://www.w3.org/2000/svg" xmlns:xlink="http://www.w3.org/1999/xlink" viewBox="0 0 78.11 98.52"><defs><style>.cls-1{fill:none;}.cls-2{clip-path:url(#clip-path);}.cls-3{fill:#8230db;}.cls-4{fill:#fff;}</style><clipPath id="clip-path" transform="translate(-0.01)"><rect class="cls-1" x="7.57" y="-10.31" width="86.08" height="56.63"/></clipPath></defs><g class="cls-2"><circle class="cls-3" cx="39.38" cy="27.34" r="27.34"/><path class="cls-4" d="M38,19.82A7.2,7.2,0,0,1,35.88,25a6.88,6.88,0,0,1-2.22,1.47A7,7,0,0,1,31,27a7.37,7.37,0,0,1-2.78-.51A6.36,6.36,0,0,1,26.05,25a6.83,6.83,0,0,1-1.45-2.26,7.84,7.84,0,0,1-.52-2.91,8.11,8.11,0,0,1,.52-3,6.75,6.75,0,0,1,1.45-2.3A6.46,6.46,0,0,1,28.24,13,7.15,7.15,0,0,1,31,12.51a7.44,7.44,0,0,1,2.8.52,6.49,6.49,0,0,1,3.65,3.79A8.11,8.11,0,0,1,38,19.82Zm9.13-6.16a4,4,0,0,1,.74-.63,2.24,2.24,0,0,1,1.21-.29h4.51L31.69,40.94a2.21,2.21,0,0,1-1.83.88H25.24ZM33.3,19.82a7.32,7.32,0,0,0-.17-1.68,3,3,0,0,0-.47-1.07,1.69,1.69,0,0,0-.71-.56,2.54,2.54,0,0,0-1.76,0,1.55,1.55,0,0,0-.68.56,3.23,3.23,0,0,0-.44,1.07,7.9,7.9,0,0,0-.15,1.68,7.08,7.08,0,0,0,.15,1.59,2.81,2.81,0,0,0,.44,1,1.56,1.56,0,0,0,.68.54A2.54,2.54,0,0,0,32,23a1.65,1.65,0,0,0,.71-.54,2.87,2.87,0,0,0,.47-1A6.51,6.51,0,0,0,33.3,19.82ZM54.74,35a7.25,7.25,0,0,1-2.11,5.19,6.69,6.69,0,0,1-2.22,1.46,6.83,6.83,0,0,1-2.64.52A7.15,7.15,0,0,1,45,41.66a6.42,6.42,0,0,1-2.2-1.46,7,7,0,0,1-1.44-2.27A7.86,7.86,0,0,1,40.83,35a8.11,8.11,0,0,1,.52-3,6.72,6.72,0,0,1,1.44-2.3A6.5,6.5,0,0,1,45,28.22a7.16,7.16,0,0,1,2.78-.53,7.26,7.26,0,0,1,2.8.53A6.49,6.49,0,0,1,54.22,32a8.27,8.27,0,0,1,.47,3ZM50,35a7.23,7.23,0,0,0-.17-1.67,2.81,2.81,0,0,0-.47-1.06,1.51,1.51,0,0,0-.71-.56,2.54,2.54,0,0,0-1.76,0,1.44,1.44,0,0,0-.68.56,3.1,3.1,0,0,0-.44,1.06A7.81,7.81,0,0,0,45.62,35a7.08,7.08,0,0,0,.15,1.59,2.81,2.81,0,0,0,.44,1,1.54,1.54,0,0,0,.68.53,2.54,2.54,0,0,0,1.76,0,1.6,1.6,0,0,0,.65-.47,2.87,2.87,0,0,0,.47-1A6.52,6.52,0,0,0,50,35Z" transform="translate(-0.01)"/></g><path class="cls-3" d="M8.91,43A24.19,24.19,0,0,1,8.75,40a26.9,26.9,0,0,1,.18-3.11H8.64c-5.4.4-8.63,4-8.63,9.73V88.8c0,6,3.66,9.69,9.68,9.72H65.13c4.39,0,7.81-2,8.86-5.8.76-2.77.68-5.77,1-8.82-4.32,0-8.06,0-11.79,0a11,11,0,1,1,0-22c3.78-.11,7.57,0,11.31,0,1-7.19-2.87-11.77-9.76-11.78H10.57C7.67,50.12,6,48.76,6,46.5a3.4,3.4,0,0,1,2.7-3.45Z" transform="translate(-0.01)"/><path class="cls-3" d="M68.77,81.44h-5.6a8.51,8.51,0,0,1,0-17c3.88-.08,7.75,0,11.63,0,2.25,0,3.29,1,3.32,3.3V78.13c0,2.25-1.07,3.3-3.3,3.34C72.79,81.47,70.78,81.44,68.77,81.44Zm-2.06-8.53A3.15,3.15,0,1,0,63.49,76a3.15,3.15,0,0,0,3.22-3.12Z" transform="translate(-0.01)"/></svg>