<svg id="Layer_1" data-name="Layer 1" xmlns="http://www.w3.org/2000/svg" xmlns:xlink="http://www.w3.org/1999/xlink" viewBox="0 0 102.83 108"><defs><style>.cls-1{fill:none;}.cls-2{fill:#8c8cf9;}.cls-3{clip-path:url(#clip-path);}</style><clipPath id="clip-path" transform="translate(-57.7 -60.59)"><polygon class="cls-1" points="96.15 125.19 134.87 125.19 171.37 80.12 125.34 48.35 51.97 67.84 43.68 119.34 58.63 127.47 86.03 115.93 90.96 117.23 96.15 125.19"/></clipPath></defs><path class="cls-2" d="M90.44,123.4a19,19,0,0,1-.13-2.4,21.22,21.22,0,0,1,.15-2.53l-.24,0c-4.39.33-7,3.28-7,7.91q0,17.15,0,34.27c0,4.88,3,7.88,7.88,7.9,5.06,0,10.12,0,15.19,0q14.94,0,29.87,0c3.57,0,6.35-1.63,7.21-4.72.62-2.25.55-4.69.81-7.16-3.51,0-6.55,0-9.59,0a8.94,8.94,0,0,1,0-17.88c3.08-.08,6.16,0,9.2,0,.8-5.84-2.33-9.57-7.93-9.57q-22,0-44,0c-2.36,0-3.74-1.11-3.75-3a2.76,2.76,0,0,1,2.2-2.8Z" transform="translate(-57.7 -60.59)"/><path class="cls-2" d="M139.11,154.66c-1.52,0-3,0-4.56,0a6.92,6.92,0,0,1,0-13.83c3.15-.06,6.3,0,9.45,0,1.83,0,2.68.86,2.7,2.69,0,2.81,0,5.63,0,8.44,0,1.84-.86,2.68-2.68,2.72C142.37,154.69,140.74,154.67,139.11,154.66Zm-1.68-6.92a2.56,2.56,0,0,0-2.6-2.55,2.54,2.54,0,0,0,0,5.08A2.58,2.58,0,0,0,137.43,147.74Z" transform="translate(-57.7 -60.59)"/><g class="cls-3"><path class="cls-2" d="M98.74,100.72l33.65-40.13,28.14,23.62-45.21,53.91L92.61,119.06l.21-.46c3.49,1.08,7,2.19,10.47,3.22,5.09,1.5,9.52-1,10.73-6.12.79-3.29-.8-6.71-4.19-8.71C106.25,104.89,102.61,102.9,98.74,100.72Zm37.19-.49a13.06,13.06,0,0,0-12.81-12.91,11.17,11.17,0,0,0-11.34,11.15,12.92,12.92,0,0,0,12.81,12.84A11,11,0,0,0,135.93,100.23Z" transform="translate(-57.7 -60.59)"/><path class="cls-2" d="M68.58,108.68V86c13.28-3.83,26.33-9.45,40.24-2.82-3.09,3.69-6.38,7.81-9.92,11.71-.7.78-2.41.55-3.53,1-1.35.6-3.36,1.26-3.64,2.29s1,3,2.08,3.69c4.4,2.74,9,5.12,13.52,7.67,3,1.7,4,4,2.86,6.48s-3.33,3.17-6.53,2.17c-5.43-1.69-10.88-3.31-16.2-5.31a15.2,15.2,0,0,1-5.68-3.88c-2.16-2.38-4.32-3-7.28-1.94A60.92,60.92,0,0,1,68.58,108.68Z" transform="translate(-57.7 -60.59)"/><path class="cls-2" d="M57.7,82.66h6.79V113.5H60.58Z" transform="translate(-57.7 -60.59)"/><path class="cls-2" d="M128.09,104.14a7.62,7.62,0,0,1-1.63,1.2,5.74,5.74,0,0,1-1.74.63l-.47-1.41a.85.85,0,0,1,.12-.75,1.06,1.06,0,0,1,.34-.28l.51-.22c.19-.07.39-.16.6-.26a3.52,3.52,0,0,0,.64-.4L124,100.39c-.35.26-.71.52-1.09.75a4.24,4.24,0,0,1-1.2.52,3.19,3.19,0,0,1-1.31,0A3.8,3.8,0,0,1,118,100a3.81,3.81,0,0,1-.46-1.38,4.37,4.37,0,0,1,.11-1.59,4.51,4.51,0,0,1,.82-1.66l-.74-.67a.81.81,0,0,1-.23-.45.67.67,0,0,1,.14-.52l.61-.81,1.28,1.19a5,5,0,0,1,1.44-1,6.31,6.31,0,0,1,1.37-.43l.38,1.13a1,1,0,0,1,.07.43.56.56,0,0,1-.14.36.87.87,0,0,1-.24.22l-.35.21-.43.25a2.59,2.59,0,0,0-.46.3l2.31,2.12.73-.51a6.59,6.59,0,0,1,.76-.45,4.74,4.74,0,0,1,.78-.32,2.6,2.6,0,0,1,.82-.13,2.64,2.64,0,0,1,.86.15,3,3,0,0,1,.87.49,4.17,4.17,0,0,1,1.09,1.17,3.7,3.7,0,0,1,.54,1.44,4.3,4.3,0,0,1-.06,1.63,5.52,5.52,0,0,1-.75,1.71l.82.75a.69.69,0,0,1,.22.44.67.67,0,0,1-.14.52l-.6.8Zm-7.8-5.36a1.09,1.09,0,0,0,.87.24,2.67,2.67,0,0,0,1-.36l-2-1.82a3,3,0,0,0-.26.66,1.4,1.4,0,0,0,0,.53,1.05,1.05,0,0,0,.15.43A1,1,0,0,0,120.29,98.78Zm6.8.44a1,1,0,0,0-.83-.22,2.44,2.44,0,0,0-.92.38l2.16,2A1.52,1.52,0,0,0,127.09,99.22Z" transform="translate(-57.7 -60.59)"/></g></svg>