<svg id="Layer_1" data-name="Layer 1" xmlns="http://www.w3.org/2000/svg" viewBox="0 0 100.22 74.03"><defs><style>.cls-1{fill:#561e92;}.cls-2{fill:#ef712b;}.cls-3,.cls-5{fill:none;stroke-width:4px;}.cls-3{stroke:#f5f3fa;}.cls-4{fill:#f5f3fa;}.cls-5{stroke:#f5f5fc;}</style></defs><path class="cls-1" d="M31.01,23.39V3.72c0-2.83.89-3.7,3.75-3.7H66.27c2.59,0,3.53.93,3.53,3.52V34.66a3,3,0,0,1-.77,1.92q-4.73,4.86-9.57,9.57a2.8,2.8,0,0,1-1.79.73H34.36c-2.31,0-3.32-1-3.32-3.34Q31.01,33.46,31.01,23.39ZM55.94,44.04V36.86c0-3,.83-3.81,3.77-3.81h7.26V2.88H33.87V44.04Zm2.9-8.18v6.53l6.46-6.53Z" transform="translate(0 -0.02)"/><path class="cls-1" d="M44.13,11.61v15.1h-6a2.1289,2.1289,0,0,1-.15-.54V14.6a1.34,1.34,0,0,1,.4-1A11.68,11.68,0,0,1,44.13,11.61Z" transform="translate(0 -0.02)"/><path class="cls-1" d="M54.69,26.72V21.56c0-1.72-.42-4,.33-5.47s2.72-2.31,4.17-3.4c.44-.32,1-.54,1.58-.9V26.72Z" transform="translate(0 -0.02)"/><path class="cls-1" d="M52.53,26.76h-6.1V11.89c1,.73,1.81,1.3,2.6,1.92,1,.83,2.09,1.67,3.11,2.54a1.1,1.1,0,0,1,.37.71C52.54,20.26,52.53,23.46,52.53,26.76Z" transform="translate(0 -0.02)"/><path class="cls-1" d="M54.51,12.79c1.71-1,3.26-1.86,4.77-2.8a2.38,2.38,0,0,0,.8-1c.42-.94,1.08-1.4,2.06-1A1.36,1.36,0,0,1,63,9.89a1.47,1.47,0,0,1-2.11.88,1.82,1.82,0,0,0-1.26.11c-1.46.78-2.88,1.61-4.28,2.48-.38.23-.62.7-1,1a2.4985,2.4985,0,0,1-1.54.64c-.46-.08-.86-.71-1.24-1.13s-.59-1-1-1.3c-1.3-.85-2.67-1.59-4-2.39-.94.88-1.86,1.19-2.84.12-.13-.14-.55-.1-.8,0a13.9953,13.9953,0,0,0-2.2.78,2.19,2.19,0,0,0-.91.9c-.46.93-1.12,1.34-2.1.92a1.37,1.37,0,0,1-.76-2,1.44,1.44,0,0,1,2.15-.74,1.4,1.4,0,0,0,.94.14c1.39-.59,3-.58,4.06-2,.51-.74,1.47-.29,2.25.3a34.2787,34.2787,0,0,0,5.61,3.6C52.64,12.39,53.8,11.69,54.51,12.79Z" transform="translate(0 -0.02)"/><path class="cls-2" d="M51.41,32.3v2.71c-.39,0-.76.07-1.14.07H38.19c-.83-.08-1.42-.49-1.41-1.38a1.3378,1.3378,0,0,1,1.51-1.39H51.41Z" transform="translate(0 -0.02)"/><path class="cls-2" d="M51.4,37.39v2.75H38.27a1.31,1.31,0,0,1-1.49-1.28,1.24,1.24,0,0,1,1.31-1.47Z" transform="translate(0 -0.02)"/><circle class="cls-3" cx="19.23" cy="36.66" r="17.23"/><circle class="cls-1" cx="19.23" cy="36.66" r="17.23"/><circle class="cls-3" cx="80.99" cy="36.66" r="17.23"/><circle class="cls-1" cx="80.99" cy="36.66" r="17.23"/><path class="cls-4" d="M19.54,48.17l6.63-9.37a.35.35,0,0,0-.21.07c-2.09,1.22-4.18,2.45-6.27,3.66a.34.34,0,0,0-.19.35v5.29Z" transform="translate(0 -0.02)"/><path class="cls-4" d="M19.06,48.17V42.86a.33.33,0,0,0-.19-.33l-6.29-3.67-.21-.11.15.22,3.62,5.13c1,1.36,1.92,2.71,2.87,4.07Z" transform="translate(0 -0.02)"/><path class="cls-4" d="M19.51,25.76v7.89c0,.15.07.2.19.25l6.21,2.72.24.09-6.59-11Z" transform="translate(0 -0.02)"/><path class="cls-4" d="M12.71,36.6l6.19-2.71c.15-.06.16-.16.16-.29V25.71l-6.53,11Z" transform="translate(0 -0.02)"/><path class="cls-4" d="M19.52,41.23l6.76-4-6.76-3Z" transform="translate(0 -0.02)"/><path class="cls-4" d="M12.28,37.27l6.76,4V34.31Z" transform="translate(0 -0.02)"/><polygon class="cls-4" points="81.15 39.86 82.09 35.8 83.94 35.1 83.94 33.1 82.59 33.61 84.07 27.2 78.63 27.2 76.65 35.86 74.8 36.56 74.8 38.56 76.15 38.05 75.02 43 87.81 43 88.59 39.86 81.15 39.86"/><circle class="cls-5" cx="49.34" cy="51.42" r="20.61"/><circle class="cls-1" cx="49.34" cy="51.42" r="20.61"/><path class="cls-4" d="M59.06,52.1a4.89,4.89,0,0,0-2.85-1.71,3.88,3.88,0,0,0,2.13-4.2,4.249,4.249,0,0,0-.59-1.86,3.75,3.75,0,0,0-1.35-1.27,7.3709,7.3709,0,0,0-1.83-.73,15.0906,15.0906,0,0,0-2.28-.37v-4.1H49.78v4h-2v-4H45.27v4.1H40.25v2.67h1.8a1.29,1.29,0,0,1,1.45,1.1075l0,.0025v4.67h0v6.54a.87.87,0,0,1-.9063.8321L42.56,57.78H40.77l-.5,3h5v4.15h2.51v-4.1h2v4.08h2.51V60.82a18.9128,18.9128,0,0,0,2.37-.24,10.1122,10.1122,0,0,0,2-.56,5.401,5.401,0,0,0,1.58-.95,4.6707,4.6707,0,0,0,1.05-1.45,6.49,6.49,0,0,0,.53-2,4.88,4.88,0,0,0-.73-3.48ZM47.85,44.85h2.46a5.1865,5.1865,0,0,1,1,.13,7.3093,7.3093,0,0,1,.9.27,2.6409,2.6409,0,0,1,.78.46,2.3306,2.3306,0,0,1,.49.68,2.11,2.11,0,0,1,.21.95,2.191,2.191,0,0,1-.15.83,1.56,1.56,0,0,1-.44.63,4.1943,4.1943,0,0,1-.6.44,3.1109,3.1109,0,0,1-.79.3q-.48.12-.84.18a8.001,8.001,0,0,1-.89.09H47.85V44.85Zm6.84,11.08a2.6381,2.6381,0,0,1-.4.65,2.3306,2.3306,0,0,1-.64.48,5.2273,5.2273,0,0,1-.78.35,6.61,6.61,0,0,1-.9.22,7.8238,7.8238,0,0,1-.93.14c-.26,0-.58.05-1,.07H47.8V52.39h2.89a10.19,10.19,0,0,1,1.21.15,9.7628,9.7628,0,0,1,1.06.3,3.0714,3.0714,0,0,1,.94.5,2.2607,2.2607,0,0,1,.6.75,2.1906,2.1906,0,0,1,.24,1,2.2319,2.2319,0,0,1-.15.83Z" transform="translate(0 -0.02)"/><circle class="cls-1" cx="38.37" cy="11.44" r="1.63"/><circle class="cls-1" cx="45.08" cy="9.41" r="1.63"/><circle class="cls-1" cx="53.27" cy="13.51" r="1.63"/><circle class="cls-1" cx="61.5" cy="9.41" r="1.63"/></svg>