<svg id="Layer_1" data-name="Layer 1" xmlns="http://www.w3.org/2000/svg" xmlns:xlink="http://www.w3.org/1999/xlink" viewBox="0 0 121.47 181.35"><defs><style>.cls-1{fill:#ef712b;}.cls-2{fill:url(#linear-gradient);}</style><linearGradient id="linear-gradient" x1="60.74" y1="181.35" x2="60.74" gradientUnits="userSpaceOnUse"><stop offset="0" stop-color="#ef7220"/><stop offset="0.21" stop-color="#e86426"/><stop offset="0.62" stop-color="#d44034"/><stop offset="0.64" stop-color="#d33d35"/><stop offset="0.83" stop-color="#ca2f31"/><stop offset="1" stop-color="#be1e2d"/></linearGradient></defs><path class="cls-1" d="M98,119.64H23.88A10.77,10.77,0,0,0,13.05,130.2v28h95.37v-28a10.44,10.44,0,0,0-10.34-10.54H98Zm-59,29a7.7,7.7,0,0,1-5.32-2.14,7.69,7.69,0,1,1,0-11.09A7.69,7.69,0,1,1,39,148.64Z"/><path class="cls-1" d="M13.05,170.75a10.82,10.82,0,0,0,10.83,10.6H98a10.49,10.49,0,0,0,10.44-10.54v-.68H13.05Z"/><polygon class="cls-1" points="104.64 16.95 109.84 27.49 121.47 29.18 113.05 37.38 115.04 48.97 104.64 43.5 94.24 48.97 96.22 37.38 87.81 29.18 99.44 27.49 104.64 16.95"/><polygon class="cls-1" points="16.83 16.95 22.03 27.49 33.66 29.18 25.25 37.38 27.23 48.97 16.83 43.5 6.43 48.97 8.42 37.38 0 29.18 11.63 27.49 16.83 16.95"/><polygon class="cls-1" points="58.88 0 65.8 14.02 81.28 16.27 70.08 27.19 72.72 42.6 58.88 35.33 45.04 42.6 47.68 27.19 36.48 16.27 51.96 14.02 58.88 0"/><path class="cls-1" d="M118.41,109.94h-23c-.82-12.42-6.24-22.13-16.72-29.13L90.69,60c2.91,2.25,5.77,4.18,8.31,6.48a57.27,57.27,0,0,1,18.89,35.74,14.22,14.22,0,0,0,.52,1.94Z"/><path class="cls-1" d="M1.93,104.11c.78-3.58,1.34-7.22,2.38-10.72C8.5,79.26,17,68.32,29.62,60.2l12,20.65C31.44,87.75,25.78,97.3,25,110H2Z"/><path class="cls-1" d="M32.83,58.2c18.42-8.9,36.33-8.92,54.6,0L75.43,79a35.63,35.63,0,0,0-30.62,0Z"/><path class="cls-1" d="M82.66,94c-6.5,6.19-12.94,12.45-19.54,18.53-2,1.89-5.46,1.1-7.16-1.24s-1.35-6.14,1.34-7.33c8.28-3.67,16.69-7,25-10.49Z"/><path class="cls-2" d="M98,119.64H23.88A10.77,10.77,0,0,0,13.05,130.2v28h95.37v-28a10.44,10.44,0,0,0-10.34-10.54H98Zm-59,29a7.7,7.7,0,0,1-5.32-2.14,7.69,7.69,0,1,1,0-11.09A7.69,7.69,0,1,1,39,148.64Z"/><path class="cls-2" d="M13.05,170.75a10.82,10.82,0,0,0,10.83,10.6H98a10.49,10.49,0,0,0,10.44-10.54v-.68H13.05Z"/><polygon class="cls-2" points="104.64 16.95 109.84 27.49 121.47 29.18 113.05 37.38 115.04 48.97 104.64 43.5 94.24 48.97 96.22 37.38 87.81 29.18 99.44 27.49 104.64 16.95"/><polygon class="cls-2" points="16.83 16.95 22.03 27.49 33.66 29.18 25.25 37.38 27.23 48.97 16.83 43.5 6.43 48.97 8.42 37.38 0 29.18 11.63 27.49 16.83 16.95"/><polygon class="cls-2" points="58.88 0 65.8 14.02 81.28 16.27 70.08 27.19 72.72 42.6 58.88 35.33 45.04 42.6 47.68 27.19 36.48 16.27 51.96 14.02 58.88 0"/><path class="cls-2" d="M118.41,109.94h-23c-.82-12.42-6.24-22.13-16.72-29.13L90.69,60c2.91,2.25,5.77,4.18,8.31,6.48a57.27,57.27,0,0,1,18.89,35.74,14.22,14.22,0,0,0,.52,1.94Z"/><path class="cls-2" d="M1.93,104.11c.78-3.58,1.34-7.22,2.38-10.72C8.5,79.26,17,68.32,29.62,60.2l12,20.65C31.44,87.75,25.78,97.3,25,110H2Z"/><path class="cls-2" d="M32.83,58.2c18.42-8.9,36.33-8.92,54.6,0L75.43,79a35.63,35.63,0,0,0-30.62,0Z"/><path class="cls-2" d="M82.66,94c-6.5,6.19-12.94,12.45-19.54,18.53-2,1.89-5.46,1.1-7.16-1.24s-1.35-6.14,1.34-7.33c8.28-3.67,16.69-7,25-10.49Z"/></svg>