<svg id="Layer_1" data-name="Layer 1" xmlns="http://www.w3.org/2000/svg" xmlns:xlink="http://www.w3.org/1999/xlink" viewBox="0 0 74.78 107.94"><defs><style>.cls-1{fill:none;}.cls-2{fill:#ef712b;}.cls-3{fill:#fff;}.cls-4{clip-path:url(#clip-path);}.cls-5{clip-path:url(#clip-path-2);}.cls-6{clip-path:url(#clip-path-3);}</style><clipPath id="clip-path" transform="translate(-69.81 -56.4)"><path class="cls-1" d="M118,99.46a22.17,22.17,0,0,0-4-20.1l4.13-5,7.05-3s9.33.67,9.63.67,8.93,3.44,9.23,4-.1,12.77,0,13.26-5.8,9.23-5.8,9.23l-11,3.73Z"/></clipPath><clipPath id="clip-path-2" transform="translate(-69.81 -56.4)"><path class="cls-1" d="M100.56,71.39a22.09,22.09,0,0,1,12.7,7l-1.16.14a16.2,16.2,0,0,1,14-8.94l-.81-8-4.35-8L105,51.14s-9,4.43-8.74,5.26,1.68,8.79,1.87,9.47S100.56,71.39,100.56,71.39Z"/></clipPath><clipPath id="clip-path-3" transform="translate(-69.81 -56.4)"><path class="cls-1" d="M74.86,99.22a22.7,22.7,0,0,0,44.08-.9l3.79.77,12.39.57,14.14.88-2.33,65.26H65.79l2-65.26Z"/></clipPath></defs><circle class="cls-2" cx="27.15" cy="36.48" r="19.19"/><path class="cls-3" d="M105.3,93.76a4.52,4.52,0,0,0-2.64-1.55,3.55,3.55,0,0,0,2-3.89,3.92,3.92,0,0,0-.54-1.72,3.35,3.35,0,0,0-1.25-1.17,6.5,6.5,0,0,0-1.7-.68A12.76,12.76,0,0,0,99,84.41V80.62H96.72V84.3l-1.84,0V80.62H92.56v3.79H87.91v2.47h1.67a1.2,1.2,0,0,1,1.34,1v4.32l.24,0h-.24v6.05a.81.81,0,0,1-.87.77H88.37l-.46,2.75h4.65v3.84h2.32v-3.8l1.84,0v3.78H99v-3.84a17.8,17.8,0,0,0,2.19-.23,8.55,8.55,0,0,0,1.83-.52,4.73,4.73,0,0,0,1.46-.88,4.12,4.12,0,0,0,1-1.34A5.83,5.83,0,0,0,106,97a4.43,4.43,0,0,0-.67-3.22ZM94.92,87h.6l.81,0c.22,0,.51,0,.87,0a8.26,8.26,0,0,1,.93.12,4.75,4.75,0,0,1,.83.25,2.07,2.07,0,0,1,.72.42,2,2,0,0,1,.46.63,1.93,1.93,0,0,1,.19.88,2.11,2.11,0,0,1-.14.77,1.47,1.47,0,0,1-.4.58,4.21,4.21,0,0,1-.56.41,2.65,2.65,0,0,1-.73.28l-.78.16a5.54,5.54,0,0,1-.82.08l-.76,0c-.17,0-.4,0-.7,0h-.52V87Zm6.33,10.26a2,2,0,0,1-.36.6,2,2,0,0,1-.6.45,5.41,5.41,0,0,1-.71.32,5.7,5.7,0,0,1-.84.21c-.33.06-.61.1-.86.13l-.88.06-.8,0H94.92V94h.72l1,0c.25,0,.6,0,1,0a9,9,0,0,1,1.11.13c.3.07.63.16,1,.28a3.08,3.08,0,0,1,.87.46,2.17,2.17,0,0,1,.55.7,2,2,0,0,1,.23,1,1.92,1.92,0,0,1-.15.77Zm0,0" transform="translate(-69.81 -56.4)"/><g class="cls-4"><path class="cls-2" d="M140.2,85.79A13.3,13.3,0,1,1,126.9,72.5,13.3,13.3,0,0,1,140.2,85.79ZM126.43,89.4l.81-3.53,1.61-.61V83.53l-1.17.44L129,78.4h-4.72l-1.72,7.52-1.61.61v1.74l1.17-.44-1,4.3h11.11l.68-2.73Z" transform="translate(-69.81 -56.4)"/></g><g class="cls-5"><path class="cls-2" d="M121.8,66.61A10.2,10.2,0,1,1,111.6,56.4,10.2,10.2,0,0,1,121.8,66.61ZM111,62.38a2.52,2.52,0,0,0,.3,2.07,1,1,0,0,1-.32,1.38,1,1,0,0,1-1.42-.39,2.62,2.62,0,0,0-3.08-1.2,2.52,2.52,0,0,0,.58,4.93,2.63,2.63,0,0,0,2.55-1.34,1,1,0,0,1,1.47-.35,1,1,0,0,1,.25,1.4,2.05,2.05,0,0,0-.35,1.38,2.61,2.61,0,0,0,5.15.35A2.49,2.49,0,0,0,114.9,68a3,3,0,0,0-1.5-.39,1,1,0,1,1,0-2,2.48,2.48,0,0,0,1.93-.81,2.37,2.37,0,0,0,.47-2.7,2.41,2.41,0,0,0-2.13-1.54A2.65,2.65,0,0,0,111,62.38Z" transform="translate(-69.81 -56.4)"/></g><g class="cls-6"><path class="cls-2" d="M136.77,162.84v1.49h-7.72l-.12-1.44H85.45l-.12,1.46h-7.7l-.07-1.44c-.83-.06-1.66-.06-2.46-.19a6.16,6.16,0,0,1-5.27-6.09c0-2.81,0-5.62,0-8.43V107.4c0-4.28,2.58-6.86,6.86-6.86h61c4.27,0,6.84,2.58,6.84,6.87,0,16.13-.06,32.26,0,48.38,0,4.18-2.87,7.32-7.05,7.05Zm-29.58-3.11h30.47c2.63,0,3.78-1.15,3.78-3.77V107.41c0-2.61-1.15-3.76-3.79-3.76H76.71c-2.63,0-3.78,1.15-3.78,3.77V156c0,2.61,1.15,3.76,3.79,3.76Z" transform="translate(-69.81 -56.4)"/><path class="cls-2" d="M107.1,108.33h27.37c1.85,0,2.31.45,2.31,2.27v42.19c0,1.79-.47,2.26-2.23,2.26H79.8c-1.72,0-2.21-.48-2.21-2.2V110.58c0-1.81.44-2.25,2.22-2.25Zm26.52,43.55V111.51H80.71v1c0,4,.15,7.92-.06,11.87-.14,2.49.37,4.47,2.46,5.92a1.62,1.62,0,0,1,.19.18,1.59,1.59,0,0,1,0,2.43c-.67.71-1.42,1.35-2,2.09a2.14,2.14,0,0,0-.52,1.26c0,4.93,0,9.87,0,14.8,0,.27,0,.55.05.83Z" transform="translate(-69.81 -56.4)"/><path class="cls-2" d="M124.3,131.75c-.31,9.69-7.4,17.06-17.08,17-10.16-.07-17.16-7.33-17.15-17.07s7.15-17,17.14-17.07S124.15,122.47,124.3,131.75Zm-8.44,10.87a1.62,1.62,0,0,1,0-2.12c.69-.75,1.49-.53,2.28-.12a13.7,13.7,0,0,0,2.94-7.08c-.87-.19-1.49-.59-1.55-1.52s.33-1.29,1.55-1.78a13.61,13.61,0,0,0-3-7c-1,.62-1.67.64-2.27.11s-.66-1.27-.06-2.43a13.69,13.69,0,0,0-7.06-2.94,1.58,1.58,0,0,1-1.54,1.51c-1,0-1.44-.67-1.68-1.52a13.75,13.75,0,0,0-7,3c.61,1,.63,1.68.09,2.26s-1.2.64-2.44.07a13.59,13.59,0,0,0-2.9,7c.89.21,1.48.68,1.49,1.58s-.62,1.42-1.5,1.63a13.71,13.71,0,0,0,3,7.11,1.55,1.55,0,0,1,2.13,0,1.66,1.66,0,0,1,.13,2.22,13.83,13.83,0,0,0,7.09,3c.2-.91.68-1.52,1.62-1.53s1.38.66,1.59,1.48A12.72,12.72,0,0,0,115.86,142.62Z" transform="translate(-69.81 -56.4)"/><path class="cls-2" d="M115,131.72a7.77,7.77,0,1,1-7.74-7.79A7.77,7.77,0,0,1,115,131.72Zm-3.11-.05a4.66,4.66,0,1,0-4.68,4.68A4.62,4.62,0,0,0,111.84,131.67Z" transform="translate(-69.81 -56.4)"/></g></svg>