<svg id="Layer_1" data-name="Layer 1" xmlns="http://www.w3.org/2000/svg" viewBox="0 0 93.47 139.54"><defs><style>.cls-1{fill:#ee7323;}</style></defs><path class="cls-1" d="M77.63,96.79h-57a8.29,8.29,0,0,0-8.34,8.11v21.56H85.67V104.9a8,8,0,0,0-8-8.11ZM32.21,119.12a5.9,5.9,0,0,1-4.1-1.65,5.92,5.92,0,1,1,0-8.53,5.91,5.91,0,1,1,4.1,10.18Zm0,0" transform="translate(-2.24 -4.73)"/><path class="cls-1" d="M12.28,136.12a8.33,8.33,0,0,0,8.34,8.15h57a8.07,8.07,0,0,0,8-8.15v-.48H12.28Zm0,0" transform="translate(-2.24 -4.73)"/><polygon class="cls-1" points="80.52 13.04 84.52 21.15 93.47 22.45 86.99 28.77 88.52 37.68 80.52 33.47 72.51 37.68 74.04 28.77 67.56 22.45 76.51 21.15 80.52 13.04"/><polygon class="cls-1" points="12.95 13.04 16.95 21.15 25.9 22.45 19.43 28.77 20.95 37.68 12.95 33.47 4.95 37.68 6.48 28.77 0 22.45 8.95 21.15 12.95 13.04"/><polygon class="cls-1" points="45.31 0 50.63 10.79 62.54 12.52 53.92 20.92 55.96 32.78 45.31 27.18 34.66 32.78 36.69 20.92 28.07 12.52 39.98 10.79 45.31 0"/><path class="cls-1" d="M93.35,89.32H75.66c-.64-9.55-4.8-17-12.87-22.41l9.25-16c2.24,1.73,4.44,3.22,6.39,5A44.06,44.06,0,0,1,93,83.35a13.7,13.7,0,0,0,.4,1.49Z" transform="translate(-2.24 -4.73)"/><path class="cls-1" d="M3.72,84.84c.6-2.75,1-5.55,1.83-8.25C8.78,65.72,15.29,57.3,25,51l9.2,15.89A27.73,27.73,0,0,0,21.45,89.32H3.72Z" transform="translate(-2.24 -4.73)"/><path class="cls-1" d="M27.5,49.55c14.17-6.86,28-6.87,42,0l-9.21,16a27.48,27.48,0,0,0-23.57,0C33.68,60.25,30.67,55,27.5,49.55Z" transform="translate(-2.24 -4.73)"/><path class="cls-1" d="M65.85,77.07c-5,4.77-10,9.58-15,14.26-1.57,1.46-4.21.85-5.51-1s-1-4.72,1-5.64c6.37-2.82,12.84-5.4,19.27-8.07Z" transform="translate(-2.24 -4.73)"/></svg>