<svg id="Layer_1" data-name="Layer 1" xmlns="http://www.w3.org/2000/svg" viewBox="0 0 104.13 103.69"><defs><style>.cls-1{fill:#ef712b;}</style></defs><path class="cls-1" d="M62.65,109.68c.26-1.84.45-3.69.79-5.52A47,47,0,0,1,82.46,74a46.39,46.39,0,0,1,23-8.8,53.85,53.85,0,0,1,5.68-.25q21.91,0,43.82,0h1.48c-1-1-1.9-1.84-2.72-2.67-1.44-1.46-1.52-3.34-.22-4.6a3.09,3.09,0,0,1,4.52.27q3.87,3.84,7.69,7.7a3,3,0,0,1,0,4.66c-2.59,2.63-5.21,5.24-7.83,7.84a3.05,3.05,0,1,1-4.31-4.31c.85-.87,1.76-1.68,2.8-2.67-.43-.06-.61-.12-.79-.12-15.39,0-30.77-.1-46.15,0-18.85.17-35.7,14.08-39.66,32.49a41.67,41.67,0,0,0,24.33,47.49,40.79,40.79,0,0,0,15.17,3.33l1.12,0a3,3,0,1,1-.1,6.09,45.61,45.61,0,0,1-20.23-4.56c-13.54-6.66-22.31-17.31-26-32-.62-2.41-.8-4.93-1.19-7.4,0-.27-.12-.52-.17-.78Z" transform="translate(-62.65 -56.81)"/><path class="cls-1" d="M146,112.74a35.59,35.59,0,1,1-35.54-35.6A35.67,35.67,0,0,1,146,112.74Zm-8.68-12c-.85.49-1.58.92-2.32,1.33a3.05,3.05,0,1,1-3-5.28l2.3-1.36a30.27,30.27,0,0,0-6.55-6.53c-.49.84-.92,1.6-1.37,2.35a3.05,3.05,0,1,1-5.27-3.06c.42-.77.87-1.52,1.35-2.36a27.65,27.65,0,0,0-9-2.37c0,1,0,1.8,0,2.64a3.06,3.06,0,1,1-6.1,0c0-.87,0-1.74,0-3l-9.07,2.45c.59,1,1,1.79,1.46,2.56a3.06,3.06,0,1,1-5.32,3c-.44-.74-.86-1.5-1.32-2.3a30.18,30.18,0,0,0-6.54,6.57c.83.47,1.56.89,2.28,1.32a3.06,3.06,0,1,1-3,5.31c-.76-.42-1.52-.86-2.34-1.33a28.93,28.93,0,0,0-2.39,9c.94,0,1.81,0,2.69,0a3.05,3.05,0,1,1,0,6.09H81.11a28.75,28.75,0,0,0,2.41,8.94l2.18-1.23c1.75-1,3.53-.64,4.44.88s.38,3.34-1.38,4.39c-.71.43-1.43.83-2.18,1.27a29.92,29.92,0,0,0,6.56,6.54c.49-.84.9-1.58,1.33-2.3a3.06,3.06,0,1,1,5.28,3.06c-.42.76-.86,1.51-1.32,2.31a28.6,28.6,0,0,0,8.95,2.39c0-.93,0-1.77,0-2.61a3.06,3.06,0,1,1,6.1,0c0,.86,0,1.72,0,2.65a28.83,28.83,0,0,0,8.94-2.43c-.49-.85-.94-1.6-1.35-2.37a3.05,3.05,0,1,1,5.31-3c.45.74.88,1.51,1.48,2.54l6.64-6.64L132,128.72a3.06,3.06,0,1,1,3-5.31l2.31,1.3a29,29,0,0,0,2.37-8.93c-1,0-1.86,0-2.74,0a3,3,0,1,1,0-6.09c.87,0,1.74,0,2.69,0A28.32,28.32,0,0,0,137.34,100.72Z" transform="translate(-62.65 -56.81)"/><path class="cls-1" d="M158.21,112.71a3,3,0,1,1-3-3A3.07,3.07,0,0,1,158.21,112.71Z" transform="translate(-62.65 -56.81)"/><path class="cls-1" d="M156.6,124.35a3,3,0,0,1-3,3,3,3,0,1,1,.08-6.09A3,3,0,0,1,156.6,124.35Z" transform="translate(-62.65 -56.81)"/><path class="cls-1" d="M139,144.39a3,3,0,0,1,6.06-.06,3,3,0,0,1-3,3.06A3,3,0,0,1,139,144.39Z" transform="translate(-62.65 -56.81)"/><path class="cls-1" d="M132.77,154.52a3.07,3.07,0,0,1-3-3,3,3,0,1,1,6.09,0A3.08,3.08,0,0,1,132.77,154.52Z" transform="translate(-62.65 -56.81)"/><path class="cls-1" d="M122,159a3,3,0,1,1,3.1-3A3,3,0,0,1,122,159Z" transform="translate(-62.65 -56.81)"/><path class="cls-1" d="M146.15,135a3,3,0,1,1,2.93,3.13A3,3,0,0,1,146.15,135Z" transform="translate(-62.65 -56.81)"/><path class="cls-1" d="M113.49,109.68c2.34,0,4.54,0,6.74,0,2,0,3.44,1.27,3.41,3.08a3.08,3.08,0,0,1-3.38,3q-4.73,0-9.45,0a3.08,3.08,0,0,1-3.43-3.37q0-6.81,0-13.62a3.06,3.06,0,1,1,6.1,0c0,3.25,0,6.51,0,9.76Z" transform="translate(-62.65 -56.81)"/></svg>