<svg id="Layer_1" data-name="Layer 1" xmlns="http://www.w3.org/2000/svg" xmlns:xlink="http://www.w3.org/1999/xlink" viewBox="0 0 115.32 101.35"><defs><style>.cls-1,.cls-3{fill:none;}.cls-2{fill:#26a3c6;}.cls-3{stroke:#26a3c6;stroke-miterlimit:10;stroke-width:6px;}.cls-4{clip-path:url(#clip-path);}</style><clipPath id="clip-path" transform="translate(0 0.01)"><path class="cls-1" d="M53.27,27.25l-.66,9.38s5.44,9.37,5.72,9.89,5,8.31,5,8.31l3.28,3.47,11.73,4.12-3,21.29L47.64,94.78s-27.2-5.82-27.2-6.1S8.62,65.05,8.62,65.05,9,38.88,9.28,38.6,20,29.13,20,29.13l28.61-3Z"/></clipPath></defs><path class="cls-2" d="M58.13,57.47A13.72,13.72,0,0,0,56.67,53l2.67-1.42a16.64,16.64,0,0,0-3.5-4.5l-2,2.24a13.48,13.48,0,0,0-3.92-2.54L51.09,44a16.59,16.59,0,0,0-5.55-1.29l-.18,3h-.81a13.75,13.75,0,0,0-3.83.55l-.84-2.9a16.61,16.61,0,0,0-5.13,2.49l1.77,2.46a13.84,13.84,0,0,0-3.39,3.31l-2.48-1.73a17,17,0,0,0-2.42,5.17l2.93.8a13.46,13.46,0,0,0-.5,3.62v1l-3,.23a16.84,16.84,0,0,0,1.47,5.56l2.77-1.23A13.56,13.56,0,0,0,34.49,69L32.28,71a17,17,0,0,0,4.56,3.43l1.29-2.69a13.74,13.74,0,0,0,4.5,1.42l-.4,3A16.74,16.74,0,0,0,47.92,76L47.3,73a13.63,13.63,0,0,0,4.34-1.74l1.58,2.59a17.09,17.09,0,0,0,4.29-3.75L55.13,68.2a13.66,13.66,0,0,0,2.28-4.08l2.86,1a16.8,16.8,0,0,0,1-5.62A17.14,17.14,0,0,0,61.09,57Zm-8.78,6-.12-.1a6.14,6.14,0,0,1-1.56,1.36l.1.14a6.24,6.24,0,0,1-2,.81v-.19a6.26,6.26,0,0,1-2.07.08v.16a6.39,6.39,0,0,1-2-.63l.08-.15a6,6,0,0,1-1.65-1.23l-.12.12a6.1,6.1,0,0,1-1.19-1.78L39,62a6,6,0,0,1-.5-2h-.16v-.47a6.45,6.45,0,0,1,.25-1.64h.15A6.45,6.45,0,0,1,39.6,56l-.14-.1A6.15,6.15,0,0,1,41,54.41l.1.13a6.11,6.11,0,0,1,1.85-.9v-.15a6.39,6.39,0,0,1,1.74-.28H45v.16a6.28,6.28,0,0,1,2,.47l.07-.17a6.35,6.35,0,0,1,1.78,1.16l-.12.13A6.28,6.28,0,0,1,50,56.59l.14-.08a6.38,6.38,0,0,1,.67,2h-.16a6.8,6.8,0,0,1,.06.9,6.18,6.18,0,0,1-.34,2l.15.06a6.11,6.11,0,0,1-1.23,2Z" transform="translate(0 0.01)"/><path class="cls-2" d="M85.13,41.13a11,11,0,1,0-11-11h0A11,11,0,0,0,85.13,41.13Z" transform="translate(0 0.01)"/><path class="cls-2" d="M113.59,40.2A30,30,0,0,0,115,25.64l-4.16.62a25.78,25.78,0,0,0-2.75-8.36l3.7-2a30.37,30.37,0,0,0-6.28-8.06L102.65,11a26.34,26.34,0,0,0-7.4-4.79l1.62-3.85A30,30,0,0,0,86.87,0L86.66,4.2c-.5,0-1-.08-1.51-.08a26,26,0,0,0-7.24,1l-1.17-4a30.15,30.15,0,0,0-9.2,4.49L70,9a26.06,26.06,0,0,0-6.18,6.26l-3.45-2.4A30,30,0,0,0,56,22.2l4.1,1.1a25.34,25.34,0,0,0-.94,6.82,12.61,12.61,0,0,0,.1,1.94l-4.2.31a29.91,29.91,0,0,0,2.48,9.93l3.85-1.7a26.15,26.15,0,0,0,4.88,7.33l-3.07,2.89A30.16,30.16,0,0,0,71.4,57l1.93-3.75a25.7,25.7,0,0,0,8.41,2.64L81.19,60a31.48,31.48,0,0,0,4,.26,30.27,30.27,0,0,0,6.22-.65l-.86-4.09a26,26,0,0,0,8.17-3.28l2.21,3.59a29.94,29.94,0,0,0,7.68-6.73l-3.25-2.65a26.05,26.05,0,0,0,4.3-7.68Zm-12-10.08a16.4,16.4,0,1,1-16.46-16.4,16.4,16.4,0,0,1,16.46,16.4Z" transform="translate(0 0.01)"/><path class="cls-3" d="M64.81,20.69H13a10,10,0,0,0-10,10V88.34a10,10,0,0,0,10,10H76a10,10,0,0,0,10-10V48.45" transform="translate(0 0.01)"/><g class="cls-4"><path class="cls-2" d="M76.34,59.65c-.57,18-13.77,31.75-31.8,31.63-18.9-.12-31.93-13.63-31.91-31.76s13.31-31.7,31.9-31.77C63.39,27.68,76.07,42.38,76.34,59.65ZM60.63,79.87a3.07,3.07,0,0,1,.08-3.93c1.27-1.41,2.76-1,4.24-.23a25.56,25.56,0,0,0,5.48-13.17c-1.63-.37-2.77-1.11-2.89-2.84-.11-1.56.62-2.39,2.89-3.32a25.36,25.36,0,0,0-5.52-13c-1.85,1.14-3.11,1.18-4.22.2s-1.22-2.36-.11-4.54a25.42,25.42,0,0,0-13.14-5.45c-.31,1.66-1.22,2.74-2.87,2.8-1.85.07-2.67-1.24-3.14-2.82a25.5,25.5,0,0,0-13.11,5.57c1.14,1.83,1.17,3.13.18,4.22s-2.25,1.18-4.56.12a25.31,25.31,0,0,0-5.4,13.09c1.67.38,2.76,1.26,2.79,2.94s-1.16,2.64-2.81,3a25.56,25.56,0,0,0,5.61,13.25,2.88,2.88,0,0,1,4,.09c1.26,1.15,1.06,2.66.25,4.11A25.5,25.5,0,0,0,41.57,85.5c.38-1.69,1.27-2.82,3-2.84s2.58,1.22,3,2.76A23.66,23.66,0,0,0,60.63,79.87Z" transform="translate(0 0.01)"/></g></svg>