<svg id="Layer_1" data-name="Layer 1" xmlns="http://www.w3.org/2000/svg" viewBox="0 0 131.09 158.43"><defs><style>.cls-1{fill:#ef712b;}</style></defs><path class="cls-1" d="M42,108.17Q42,75,42,41.74c0-9.55,3-12.5,12.7-12.5H161.11c8.75,0,11.93,3.13,11.93,11.89,0,35.05.06,70.1-.1,105.15a10.2,10.2,0,0,1-2.62,6.45Q154.41,169.16,138,185.09a9.56,9.56,0,0,1-6.05,2.46c-26.24.16-52.48.12-78.72.1-7.84,0-11.22-3.35-11.23-11.29Q41.93,142.26,42,108.17ZM126.18,178c0-8.44,0-16.34,0-24.24,0-10,2.8-12.86,12.73-12.87h24.54V39H51.61V178Zm9.8-27.63v22.07l21.83-22.07Z" transform="translate(-41.97 -29.24)"/><path class="cls-1" d="M86.3,68.48v51H66.11a7,7,0,0,1-.48-1.84c0-13-.08-26,0-39.06,0-1.14.53-2.82,1.37-3.33C72.87,71.69,79,68.69,86.3,68.48Z" transform="translate(-41.97 -29.24)"/><path class="cls-1" d="M122,119.51c0-5.8-.08-11.62,0-17.43.11-6.26-1.43-13.42,1.12-18.5s9.18-7.79,14.1-11.46a53.37,53.37,0,0,1,5.32-3v50.43Z" transform="translate(-41.97 -29.24)"/><path class="cls-1" d="M114.66,119.64H94.07V69.42c3.32,2.45,6.1,4.4,8.77,6.49q5.32,4.17,10.49,8.57a3.74,3.74,0,0,1,1.28,2.4C114.69,97.68,114.66,108.48,114.66,119.64Z" transform="translate(-41.97 -29.24)"/><path class="cls-1" d="M121.34,72.44c5.79-3.36,11-6.29,16.13-9.46a8,8,0,0,0,2.69-3.5c1.42-3.18,3.67-4.73,7-3.44,2.76,1.07,4.11,3.45,2.91,6.41-1.31,3.22-3.72,4.15-7.15,3a6,6,0,0,0-4.25.36c-4.91,2.62-9.71,5.45-14.45,8.36-1.3.8-2.1,2.38-3.39,3.2-1.6,1-3.63,2.47-5.18,2.18s-2.91-2.39-4.19-3.83-2-3.4-3.49-4.37c-4.39-2.88-9-5.39-13.66-8.1-3.17,3-6.26,4.05-9.58.42-.43-.47-1.86-.32-2.71-.07a50.42,50.42,0,0,0-7.43,2.64,7.23,7.23,0,0,0-3.06,3.06c-1.58,3.11-3.8,4.51-7.09,3.09a4.63,4.63,0,0,1-2.59-6.57c1.4-3.25,4-3.91,7.28-2.52,1,.42,2.31.84,3.15.48,4.7-2,10.27-2,13.73-6.86,1.74-2.49,5-1,7.62,1,6,4.52,12.2,9,18.92,12.17C114.87,71.21,119,68.72,121.34,72.44Z" transform="translate(-41.97 -29.24)"/><path class="cls-1" d="M110.88,138.36v9.14c-1.32.1-2.58.26-3.84.26q-19.31,0-38.61,0c-.73,0-1.47,0-2.2,0-2.83-.28-4.82-1.68-4.79-4.66,0-3.17,2-4.7,5.13-4.7h44.31Z" transform="translate(-41.97 -29.24)"/><path class="cls-1" d="M110.84,155.52v9.3H66.48c-2.93,0-4.83-1.38-5-4.34s1.57-4.87,4.44-4.9C80.77,155.45,95.65,155.52,110.84,155.52Z" transform="translate(-41.97 -29.24)"/></svg>