<svg xmlns="http://www.w3.org/2000/svg" xmlns:xlink="http://www.w3.org/1999/xlink" viewBox="0 0 166.44 101.71"><defs><style>.cls-1{isolation:isolate;}.cls-2{fill:url(#New_Gradient_Swatch_8);}.cls-142,.cls-3{mix-blend-mode:multiply;opacity:0.3;}.cls-3{fill:url(#radial-gradient);}.cls-4{fill:url(#New_Gradient_Swatch_8-2);}.cls-5{fill:url(#New_Gradient_Swatch_8-3);}.cls-6{fill:url(#New_Gradient_Swatch_9);}.cls-7{fill:url(#New_Gradient_Swatch_9-2);}.cls-8{fill:url(#New_Gradient_Swatch_9-3);}.cls-9{fill:url(#New_Gradient_Swatch_9-4);}.cls-10{fill:url(#New_Gradient_Swatch_9-5);}.cls-11{fill:url(#New_Gradient_Swatch_9-6);}.cls-12{fill:url(#New_Gradient_Swatch_9-7);}.cls-13{fill:url(#New_Gradient_Swatch_9-8);}.cls-14{fill:url(#New_Gradient_Swatch_9-9);}.cls-15{fill:url(#New_Gradient_Swatch_9-10);}.cls-16{fill:url(#New_Gradient_Swatch_9-11);}.cls-17{fill:url(#New_Gradient_Swatch_9-12);}.cls-18{fill:url(#New_Gradient_Swatch_9-13);}.cls-19{fill:url(#New_Gradient_Swatch_9-14);}.cls-20{fill:url(#New_Gradient_Swatch_9-15);}.cls-21{fill:url(#New_Gradient_Swatch_9-16);}.cls-22{fill:url(#New_Gradient_Swatch_9-17);}.cls-23{fill:url(#New_Gradient_Swatch_9-18);}.cls-24{fill:url(#New_Gradient_Swatch_9-19);}.cls-25{fill:url(#New_Gradient_Swatch_9-20);}.cls-26{fill:url(#New_Gradient_Swatch_9-21);}.cls-27{fill:url(#New_Gradient_Swatch_9-22);}.cls-28{fill:url(#New_Gradient_Swatch_9-23);}.cls-29{fill:url(#New_Gradient_Swatch_9-24);}.cls-30{fill:url(#New_Gradient_Swatch_9-25);}.cls-31{fill:url(#New_Gradient_Swatch_9-26);}.cls-32{fill:url(#New_Gradient_Swatch_9-27);}.cls-33{fill:url(#New_Gradient_Swatch_9-28);}.cls-34{fill:url(#New_Gradient_Swatch_9-29);}.cls-35{fill:url(#New_Gradient_Swatch_9-30);}.cls-36{fill:url(#New_Gradient_Swatch_9-31);}.cls-37{fill:url(#New_Gradient_Swatch_9-32);}.cls-38{fill:url(#New_Gradient_Swatch_9-33);}.cls-39{fill:url(#New_Gradient_Swatch_9-34);}.cls-40{fill:url(#New_Gradient_Swatch_9-35);}.cls-41{fill:url(#New_Gradient_Swatch_9-36);}.cls-42{fill:url(#New_Gradient_Swatch_9-37);}.cls-43{fill:url(#New_Gradient_Swatch_9-38);}.cls-44{fill:url(#New_Gradient_Swatch_9-39);}.cls-45{fill:url(#New_Gradient_Swatch_9-40);}.cls-46{fill:url(#New_Gradient_Swatch_9-41);}.cls-47{fill:url(#New_Gradient_Swatch_9-42);}.cls-48{fill:url(#New_Gradient_Swatch_9-43);}.cls-49{fill:url(#New_Gradient_Swatch_9-44);}.cls-50{fill:url(#New_Gradient_Swatch_9-45);}.cls-51{fill:url(#New_Gradient_Swatch_9-46);}.cls-52{fill:url(#New_Gradient_Swatch_9-47);}.cls-53{fill:url(#New_Gradient_Swatch_9-48);}.cls-54{fill:url(#New_Gradient_Swatch_9-49);}.cls-55{fill:url(#New_Gradient_Swatch_9-50);}.cls-56{fill:url(#New_Gradient_Swatch_9-51);}.cls-57{fill:url(#New_Gradient_Swatch_9-52);}.cls-58{fill:url(#New_Gradient_Swatch_9-53);}.cls-59{fill:url(#New_Gradient_Swatch_9-54);}.cls-60{fill:url(#New_Gradient_Swatch_9-55);}.cls-61{fill:url(#New_Gradient_Swatch_9-56);}.cls-62{fill:url(#New_Gradient_Swatch_9-57);}.cls-63{fill:url(#New_Gradient_Swatch_9-58);}.cls-64{fill:url(#New_Gradient_Swatch_9-59);}.cls-65{fill:url(#New_Gradient_Swatch_9-60);}.cls-66{fill:url(#New_Gradient_Swatch_9-61);}.cls-67{fill:url(#New_Gradient_Swatch_9-62);}.cls-68{fill:url(#New_Gradient_Swatch_9-63);}.cls-69{fill:url(#New_Gradient_Swatch_9-64);}.cls-70{fill:url(#New_Gradient_Swatch_9-65);}.cls-71{fill:url(#New_Gradient_Swatch_9-66);}.cls-72{fill:url(#New_Gradient_Swatch_9-67);}.cls-73{fill:url(#New_Gradient_Swatch_9-68);}.cls-74{fill:url(#New_Gradient_Swatch_9-69);}.cls-75{fill:url(#New_Gradient_Swatch_9-70);}.cls-76{fill:url(#New_Gradient_Swatch_9-71);}.cls-77{fill:url(#New_Gradient_Swatch_9-72);}.cls-78{fill:url(#New_Gradient_Swatch_9-73);}.cls-79{fill:url(#New_Gradient_Swatch_9-74);}.cls-80{fill:url(#New_Gradient_Swatch_9-75);}.cls-81{fill:url(#New_Gradient_Swatch_9-76);}.cls-82{fill:url(#New_Gradient_Swatch_9-77);}.cls-83{fill:url(#New_Gradient_Swatch_9-78);}.cls-84{fill:url(#New_Gradient_Swatch_9-79);}.cls-85{fill:url(#New_Gradient_Swatch_9-80);}.cls-86{fill:url(#New_Gradient_Swatch_9-81);}.cls-87{fill:url(#New_Gradient_Swatch_9-82);}.cls-88{fill:url(#New_Gradient_Swatch_9-83);}.cls-89{fill:url(#New_Gradient_Swatch_9-84);}.cls-90{fill:url(#New_Gradient_Swatch_9-85);}.cls-91{fill:url(#New_Gradient_Swatch_9-86);}.cls-92{fill:url(#New_Gradient_Swatch_9-87);}.cls-93{fill:url(#New_Gradient_Swatch_9-88);}.cls-94{fill:url(#New_Gradient_Swatch_9-89);}.cls-95{fill:url(#New_Gradient_Swatch_9-90);}.cls-96{fill:url(#New_Gradient_Swatch_9-91);}.cls-97{fill:url(#New_Gradient_Swatch_9-92);}.cls-98{fill:url(#New_Gradient_Swatch_9-93);}.cls-99{fill:url(#New_Gradient_Swatch_9-94);}.cls-100{fill:url(#New_Gradient_Swatch_9-95);}.cls-101{fill:url(#New_Gradient_Swatch_9-96);}.cls-102{fill:url(#New_Gradient_Swatch_9-97);}.cls-103{fill:url(#New_Gradient_Swatch_9-98);}.cls-104{fill:url(#New_Gradient_Swatch_9-99);}.cls-105{fill:url(#New_Gradient_Swatch_9-100);}.cls-106{fill:url(#New_Gradient_Swatch_9-101);}.cls-107{fill:url(#New_Gradient_Swatch_9-102);}.cls-108{fill:url(#New_Gradient_Swatch_9-103);}.cls-109{fill:url(#New_Gradient_Swatch_9-104);}.cls-110{fill:url(#New_Gradient_Swatch_9-105);}.cls-111{fill:url(#New_Gradient_Swatch_9-106);}.cls-112{fill:url(#New_Gradient_Swatch_9-107);}.cls-113{fill:url(#New_Gradient_Swatch_9-108);}.cls-114{fill:url(#New_Gradient_Swatch_9-109);}.cls-115{fill:url(#New_Gradient_Swatch_9-110);}.cls-116{fill:url(#New_Gradient_Swatch_9-111);}.cls-117{fill:url(#New_Gradient_Swatch_9-112);}.cls-118{fill:url(#New_Gradient_Swatch_9-113);}.cls-119{fill:url(#New_Gradient_Swatch_9-114);}.cls-120{fill:url(#New_Gradient_Swatch_9-115);}.cls-121{fill:url(#New_Gradient_Swatch_9-116);}.cls-122{fill:url(#New_Gradient_Swatch_9-117);}.cls-123{fill:url(#New_Gradient_Swatch_9-118);}.cls-124{fill:url(#New_Gradient_Swatch_9-119);}.cls-125{fill:url(#New_Gradient_Swatch_9-120);}.cls-126{fill:url(#New_Gradient_Swatch_9-121);}.cls-127{fill:url(#New_Gradient_Swatch_9-122);}.cls-128{fill:url(#New_Gradient_Swatch_9-123);}.cls-129{fill:url(#New_Gradient_Swatch_9-124);}.cls-130{fill:url(#New_Gradient_Swatch_9-125);}.cls-131{fill:url(#New_Gradient_Swatch_9-126);}.cls-132{fill:url(#New_Gradient_Swatch_9-127);}.cls-133{fill:url(#New_Gradient_Swatch_9-128);}.cls-134{fill:url(#New_Gradient_Swatch_9-129);}.cls-135{fill:url(#New_Gradient_Swatch_9-130);}.cls-136{fill:url(#New_Gradient_Swatch_9-131);}.cls-137{fill:url(#New_Gradient_Swatch_9-132);}.cls-138{fill:url(#New_Gradient_Swatch_9-133);}.cls-139{fill:url(#New_Gradient_Swatch_9-134);}.cls-140,.cls-141,.cls-279,.cls-280{fill:none;}.cls-140{stroke:#000;}.cls-140,.cls-279,.cls-280{stroke-miterlimit:10;}.cls-141{stroke-width:3px;stroke:url(#New_Gradient_Swatch_9-135);}.cls-142{fill:url(#radial-gradient-2);}.cls-143{fill:url(#New_Gradient_Swatch_8-4);}.cls-144{fill:url(#New_Gradient_Swatch_8-5);}.cls-145{fill:url(#New_Gradient_Swatch_9-138);}.cls-146{fill:url(#New_Gradient_Swatch_9-139);}.cls-147{fill:url(#New_Gradient_Swatch_9-140);}.cls-148{fill:url(#New_Gradient_Swatch_9-141);}.cls-149{fill:url(#New_Gradient_Swatch_9-142);}.cls-150{fill:url(#New_Gradient_Swatch_9-143);}.cls-151{fill:url(#New_Gradient_Swatch_9-144);}.cls-152{fill:url(#New_Gradient_Swatch_9-145);}.cls-153{fill:url(#New_Gradient_Swatch_9-146);}.cls-154{fill:url(#New_Gradient_Swatch_9-147);}.cls-155{fill:url(#New_Gradient_Swatch_9-148);}.cls-156{fill:url(#New_Gradient_Swatch_9-149);}.cls-157{fill:url(#New_Gradient_Swatch_9-150);}.cls-158{fill:url(#New_Gradient_Swatch_9-151);}.cls-159{fill:url(#New_Gradient_Swatch_9-152);}.cls-160{fill:url(#New_Gradient_Swatch_9-153);}.cls-161{fill:url(#New_Gradient_Swatch_9-154);}.cls-162{fill:url(#New_Gradient_Swatch_9-155);}.cls-163{fill:url(#New_Gradient_Swatch_9-156);}.cls-164{fill:url(#New_Gradient_Swatch_9-157);}.cls-165{fill:url(#New_Gradient_Swatch_9-158);}.cls-166{fill:url(#New_Gradient_Swatch_9-159);}.cls-167{fill:url(#New_Gradient_Swatch_9-160);}.cls-168{fill:url(#New_Gradient_Swatch_9-161);}.cls-169{fill:url(#New_Gradient_Swatch_9-162);}.cls-170{fill:url(#New_Gradient_Swatch_9-163);}.cls-171{fill:url(#New_Gradient_Swatch_9-164);}.cls-172{fill:url(#New_Gradient_Swatch_9-165);}.cls-173{fill:url(#New_Gradient_Swatch_9-166);}.cls-174{fill:url(#New_Gradient_Swatch_9-167);}.cls-175{fill:url(#New_Gradient_Swatch_9-168);}.cls-176{fill:url(#New_Gradient_Swatch_9-169);}.cls-177{fill:url(#New_Gradient_Swatch_9-170);}.cls-178{fill:url(#New_Gradient_Swatch_9-171);}.cls-179{fill:url(#New_Gradient_Swatch_9-172);}.cls-180{fill:url(#New_Gradient_Swatch_9-173);}.cls-181{fill:url(#New_Gradient_Swatch_9-174);}.cls-182{fill:url(#New_Gradient_Swatch_9-175);}.cls-183{fill:url(#New_Gradient_Swatch_9-176);}.cls-184{fill:url(#New_Gradient_Swatch_9-177);}.cls-185{fill:url(#New_Gradient_Swatch_9-178);}.cls-186{fill:url(#New_Gradient_Swatch_9-179);}.cls-187{fill:url(#New_Gradient_Swatch_9-180);}.cls-188{fill:url(#New_Gradient_Swatch_9-181);}.cls-189{fill:url(#New_Gradient_Swatch_9-182);}.cls-190{fill:url(#New_Gradient_Swatch_9-183);}.cls-191{fill:url(#New_Gradient_Swatch_9-184);}.cls-192{fill:url(#New_Gradient_Swatch_9-185);}.cls-193{fill:url(#New_Gradient_Swatch_9-186);}.cls-194{fill:url(#New_Gradient_Swatch_9-187);}.cls-195{fill:url(#New_Gradient_Swatch_9-188);}.cls-196{fill:url(#New_Gradient_Swatch_9-189);}.cls-197{fill:url(#New_Gradient_Swatch_9-190);}.cls-198{fill:url(#New_Gradient_Swatch_9-191);}.cls-199{fill:url(#New_Gradient_Swatch_9-192);}.cls-200{fill:url(#New_Gradient_Swatch_9-193);}.cls-201{fill:url(#New_Gradient_Swatch_9-194);}.cls-202{fill:url(#New_Gradient_Swatch_9-195);}.cls-203{fill:url(#New_Gradient_Swatch_9-196);}.cls-204{fill:url(#New_Gradient_Swatch_9-197);}.cls-205{fill:url(#New_Gradient_Swatch_9-198);}.cls-206{fill:url(#New_Gradient_Swatch_9-199);}.cls-207{fill:url(#New_Gradient_Swatch_9-200);}.cls-208{fill:url(#New_Gradient_Swatch_9-201);}.cls-209{fill:url(#New_Gradient_Swatch_9-202);}.cls-210{fill:url(#New_Gradient_Swatch_9-203);}.cls-211{fill:url(#New_Gradient_Swatch_9-204);}.cls-212{fill:url(#New_Gradient_Swatch_9-205);}.cls-213{fill:url(#New_Gradient_Swatch_9-206);}.cls-214{fill:url(#New_Gradient_Swatch_9-207);}.cls-215{fill:url(#New_Gradient_Swatch_9-208);}.cls-216{fill:url(#New_Gradient_Swatch_9-209);}.cls-217{fill:url(#New_Gradient_Swatch_9-210);}.cls-218{fill:url(#New_Gradient_Swatch_9-211);}.cls-219{fill:url(#New_Gradient_Swatch_9-212);}.cls-220{fill:url(#New_Gradient_Swatch_9-213);}.cls-221{fill:url(#New_Gradient_Swatch_9-214);}.cls-222{fill:url(#New_Gradient_Swatch_9-215);}.cls-223{fill:url(#New_Gradient_Swatch_9-216);}.cls-224{fill:url(#New_Gradient_Swatch_9-217);}.cls-225{fill:url(#New_Gradient_Swatch_9-218);}.cls-226{fill:url(#New_Gradient_Swatch_9-219);}.cls-227{fill:url(#New_Gradient_Swatch_9-220);}.cls-228{fill:url(#New_Gradient_Swatch_9-221);}.cls-229{fill:url(#New_Gradient_Swatch_9-222);}.cls-230{fill:url(#New_Gradient_Swatch_9-223);}.cls-231{fill:url(#New_Gradient_Swatch_9-224);}.cls-232{fill:url(#New_Gradient_Swatch_9-225);}.cls-233{fill:url(#New_Gradient_Swatch_9-226);}.cls-234{fill:url(#New_Gradient_Swatch_9-227);}.cls-235{fill:url(#New_Gradient_Swatch_9-228);}.cls-236{fill:url(#New_Gradient_Swatch_9-229);}.cls-237{fill:url(#New_Gradient_Swatch_9-230);}.cls-238{fill:url(#New_Gradient_Swatch_9-231);}.cls-239{fill:url(#New_Gradient_Swatch_9-232);}.cls-240{fill:url(#New_Gradient_Swatch_9-233);}.cls-241{fill:url(#New_Gradient_Swatch_9-234);}.cls-242{fill:url(#New_Gradient_Swatch_9-235);}.cls-243{fill:url(#New_Gradient_Swatch_9-236);}.cls-244{fill:url(#New_Gradient_Swatch_9-237);}.cls-245{fill:url(#New_Gradient_Swatch_9-238);}.cls-246{fill:url(#New_Gradient_Swatch_9-239);}.cls-247{fill:url(#New_Gradient_Swatch_9-240);}.cls-248{fill:url(#New_Gradient_Swatch_9-241);}.cls-249{fill:url(#New_Gradient_Swatch_9-242);}.cls-250{fill:url(#New_Gradient_Swatch_9-243);}.cls-251{fill:url(#New_Gradient_Swatch_9-244);}.cls-252{fill:url(#New_Gradient_Swatch_9-245);}.cls-253{fill:url(#New_Gradient_Swatch_9-246);}.cls-254{fill:url(#New_Gradient_Swatch_9-247);}.cls-255{fill:url(#New_Gradient_Swatch_9-248);}.cls-256{fill:url(#New_Gradient_Swatch_9-249);}.cls-257{fill:url(#New_Gradient_Swatch_9-250);}.cls-258{fill:url(#New_Gradient_Swatch_9-251);}.cls-259{fill:url(#New_Gradient_Swatch_9-252);}.cls-260{fill:url(#New_Gradient_Swatch_9-253);}.cls-261{fill:url(#New_Gradient_Swatch_9-254);}.cls-262{fill:url(#New_Gradient_Swatch_9-255);}.cls-263{fill:url(#New_Gradient_Swatch_9-256);}.cls-264{fill:url(#New_Gradient_Swatch_9-257);}.cls-265{fill:url(#New_Gradient_Swatch_9-258);}.cls-266{fill:url(#New_Gradient_Swatch_9-259);}.cls-267{fill:url(#New_Gradient_Swatch_9-260);}.cls-268{fill:url(#New_Gradient_Swatch_9-261);}.cls-269{fill:url(#New_Gradient_Swatch_9-262);}.cls-270{fill:url(#New_Gradient_Swatch_9-263);}.cls-271{fill:url(#New_Gradient_Swatch_9-264);}.cls-272{fill:url(#New_Gradient_Swatch_9-265);}.cls-273{fill:url(#New_Gradient_Swatch_9-266);}.cls-274{fill:url(#New_Gradient_Swatch_9-267);}.cls-275{fill:url(#New_Gradient_Swatch_9-268);}.cls-276{fill:url(#New_Gradient_Swatch_9-269);}.cls-277{fill:url(#New_Gradient_Swatch_9-270);}.cls-278{fill:url(#New_Gradient_Swatch_9-271);}.cls-279{stroke:url(#New_Gradient_Swatch_9-272);}.cls-280{stroke:url(#New_Gradient_Swatch_9-273);}</style><linearGradient id="New_Gradient_Swatch_8" x1="5.14" y1="70.29" x2="158.14" y2="70.29" gradientUnits="userSpaceOnUse"><stop offset="0"/><stop offset="0.56" stop-color="#3c3d3e"/><stop offset="1" stop-color="#6d6e71"/></linearGradient><radialGradient id="radial-gradient" cx="33.79" cy="-1121.4" r="90.39" gradientTransform="translate(52.11 379.7) scale(0.92 0.27)" gradientUnits="userSpaceOnUse"><stop offset="0.46"/><stop offset="0.51" stop-opacity="0.77"/><stop offset="1" stop-opacity="0"/></radialGradient><linearGradient id="New_Gradient_Swatch_8-2" x1="-30.3" y1="145.44" x2="121.96" y2="145.44" xlink:href="#New_Gradient_Swatch_8"/><linearGradient id="New_Gradient_Swatch_8-3" x1="27.12" y1="138.5" x2="167.12" y2="138.5" gradientTransform="translate(1.22 -0.85) rotate(0.5)" xlink:href="#New_Gradient_Swatch_8"/><linearGradient id="New_Gradient_Swatch_9" x1="143.15" y1="86.38" x2="159" y2="145.52" gradientUnits="userSpaceOnUse"><stop offset="0" stop-color="#6d6e71"/><stop offset="1" stop-color="#939598"/></linearGradient><linearGradient id="New_Gradient_Swatch_9-2" x1="133.13" y1="14.46" x2="143.21" y2="52.09" xlink:href="#New_Gradient_Swatch_9"/><linearGradient id="New_Gradient_Swatch_9-3" x1="131.68" y1="10.99" x2="142.99" y2="53.22" xlink:href="#New_Gradient_Swatch_9"/><linearGradient id="New_Gradient_Swatch_9-4" x1="128.53" y1="13.08" x2="140.43" y2="57.47" xlink:href="#New_Gradient_Swatch_9"/><linearGradient id="New_Gradient_Swatch_9-5" x1="127.82" y1="14.05" x2="139.69" y2="58.36" xlink:href="#New_Gradient_Swatch_9"/><linearGradient id="New_Gradient_Swatch_9-6" x1="132.16" y1="14.91" x2="142.52" y2="53.6" xlink:href="#New_Gradient_Swatch_9"/><linearGradient id="New_Gradient_Swatch_9-7" x1="123.83" y1="15.58" x2="136.37" y2="62.39" xlink:href="#New_Gradient_Swatch_9"/><linearGradient id="New_Gradient_Swatch_9-8" x1="122.98" y1="16.79" x2="135.43" y2="63.26" xlink:href="#New_Gradient_Swatch_9"/><linearGradient id="New_Gradient_Swatch_9-9" x1="121.36" y1="15.39" x2="134.56" y2="64.64" xlink:href="#New_Gradient_Swatch_9"/><linearGradient id="New_Gradient_Swatch_9-10" x1="141.98" y1="94.03" x2="156.84" y2="149.5" xlink:href="#New_Gradient_Swatch_9"/><linearGradient id="New_Gradient_Swatch_9-11" x1="140.88" y1="108.32" x2="152.84" y2="152.95" xlink:href="#New_Gradient_Swatch_9"/><linearGradient id="New_Gradient_Swatch_9-12" x1="137.18" y1="116.65" x2="147.91" y2="156.68" xlink:href="#New_Gradient_Swatch_9"/><linearGradient id="New_Gradient_Swatch_9-13" x1="118.03" y1="16.41" x2="131.77" y2="67.68" xlink:href="#New_Gradient_Swatch_9"/><linearGradient id="New_Gradient_Swatch_9-14" x1="132.48" y1="112.79" x2="145.3" y2="160.63" xlink:href="#New_Gradient_Swatch_9"/><linearGradient id="New_Gradient_Swatch_9-15" x1="110.62" y1="23.86" x2="123.97" y2="73.69" xlink:href="#New_Gradient_Swatch_9"/><linearGradient id="New_Gradient_Swatch_9-16" x1="108.8" y1="23.78" x2="122.6" y2="75.26" xlink:href="#New_Gradient_Swatch_9"/><linearGradient id="New_Gradient_Swatch_9-17" x1="115.03" y1="15.82" x2="129.65" y2="70.39" xlink:href="#New_Gradient_Swatch_9"/><linearGradient id="New_Gradient_Swatch_9-18" x1="114.13" y1="108.37" x2="132.93" y2="178.52" xlink:href="#New_Gradient_Swatch_9"/><linearGradient id="New_Gradient_Swatch_9-19" x1="99.58" y1="23.49" x2="115.73" y2="83.78" xlink:href="#New_Gradient_Swatch_9"/><linearGradient id="New_Gradient_Swatch_9-20" x1="94.87" y1="12.8" x2="115.99" y2="91.61" xlink:href="#New_Gradient_Swatch_9"/><linearGradient id="New_Gradient_Swatch_9-21" x1="117.7" y1="37.12" x2="125.63" y2="66.68" xlink:href="#New_Gradient_Swatch_9"/><linearGradient id="New_Gradient_Swatch_9-22" x1="124.38" y1="133.28" x2="132.58" y2="163.89" xlink:href="#New_Gradient_Swatch_9"/><linearGradient id="New_Gradient_Swatch_9-23" x1="114.32" y1="129.84" x2="125.62" y2="172" xlink:href="#New_Gradient_Swatch_9"/><linearGradient id="New_Gradient_Swatch_9-24" x1="89.72" y1="12.68" x2="112.65" y2="98.27" xlink:href="#New_Gradient_Swatch_9"/><linearGradient id="New_Gradient_Swatch_9-25" x1="105.36" y1="115.37" x2="124.39" y2="186.38" xlink:href="#New_Gradient_Swatch_9"/><linearGradient id="New_Gradient_Swatch_9-26" x1="79.72" y1="20.38" x2="103.64" y2="109.64" xlink:href="#New_Gradient_Swatch_9"/><linearGradient id="New_Gradient_Swatch_9-27" x1="92.23" y1="112.28" x2="117.5" y2="206.6" xlink:href="#New_Gradient_Swatch_9"/><linearGradient id="New_Gradient_Swatch_9-28" x1="84.62" y1="7.92" x2="111.25" y2="107.3" xlink:href="#New_Gradient_Swatch_9"/><linearGradient id="New_Gradient_Swatch_9-29" x1="56.7" y1="-26.41" x2="116.33" y2="196.15" xlink:href="#New_Gradient_Swatch_9"/><linearGradient id="New_Gradient_Swatch_9-30" x1="65.39" y1="13.37" x2="100.61" y2="144.79" xlink:href="#New_Gradient_Swatch_9"/><linearGradient id="New_Gradient_Swatch_9-31" x1="50.21" y1="-36.08" x2="121.93" y2="231.55" xlink:href="#New_Gradient_Swatch_9"/><linearGradient id="New_Gradient_Swatch_9-32" x1="104.69" y1="134.44" x2="116.14" y2="177.19" xlink:href="#New_Gradient_Swatch_9"/><linearGradient id="New_Gradient_Swatch_9-33" x1="93.99" y1="135.63" x2="107.41" y2="185.72" xlink:href="#New_Gradient_Swatch_9"/><linearGradient id="New_Gradient_Swatch_9-34" x1="84.19" y1="135.78" x2="100.65" y2="197.23" xlink:href="#New_Gradient_Swatch_9"/><linearGradient id="New_Gradient_Swatch_9-35" x1="59.78" y1="19.28" x2="96.66" y2="156.93" xlink:href="#New_Gradient_Swatch_9"/><linearGradient id="New_Gradient_Swatch_9-36" x1="62.79" y1="37.65" x2="86" y2="124.24" xlink:href="#New_Gradient_Swatch_9"/><linearGradient id="New_Gradient_Swatch_9-37" x1="56.8" y1="51.09" x2="72" y2="107.8" xlink:href="#New_Gradient_Swatch_9"/><linearGradient id="New_Gradient_Swatch_9-38" x1="55.32" y1="52.69" x2="69.43" y2="105.36" xlink:href="#New_Gradient_Swatch_9"/><linearGradient id="New_Gradient_Swatch_9-39" x1="59.33" y1="31.7" x2="88.99" y2="142.39" xlink:href="#New_Gradient_Swatch_9"/><linearGradient id="New_Gradient_Swatch_9-40" x1="49.53" y1="57.43" x2="59.2" y2="93.5" xlink:href="#New_Gradient_Swatch_9"/><linearGradient id="New_Gradient_Swatch_9-41" x1="48.02" y1="57.69" x2="57.6" y2="93.45" xlink:href="#New_Gradient_Swatch_9"/><linearGradient id="New_Gradient_Swatch_9-42" x1="46.79" y1="58.78" x2="54.32" y2="86.89" xlink:href="#New_Gradient_Swatch_9"/><linearGradient id="New_Gradient_Swatch_9-43" x1="75.73" y1="144.33" x2="88.78" y2="193.03" xlink:href="#New_Gradient_Swatch_9"/><linearGradient id="New_Gradient_Swatch_9-44" x1="67.04" y1="147.99" x2="79.12" y2="193.11" xlink:href="#New_Gradient_Swatch_9"/><linearGradient id="New_Gradient_Swatch_9-45" x1="59.73" y1="150.31" x2="70.26" y2="189.6" xlink:href="#New_Gradient_Swatch_9"/><linearGradient id="New_Gradient_Swatch_9-46" x1="42.96" y1="59.43" x2="48.61" y2="80.5" xlink:href="#New_Gradient_Swatch_9"/><linearGradient id="New_Gradient_Swatch_9-47" x1="56.32" y1="151.7" x2="62.98" y2="176.54" xlink:href="#New_Gradient_Swatch_9"/><linearGradient id="New_Gradient_Swatch_9-48" x1="34.85" y1="58.37" x2="39.02" y2="73.91" xlink:href="#New_Gradient_Swatch_9"/><linearGradient id="New_Gradient_Swatch_9-49" x1="33.59" y1="58.03" x2="38.05" y2="74.69" xlink:href="#New_Gradient_Swatch_9"/><linearGradient id="New_Gradient_Swatch_9-50" x1="40.28" y1="59.54" x2="44.23" y2="74.26" xlink:href="#New_Gradient_Swatch_9"/><linearGradient id="New_Gradient_Swatch_9-51" x1="44.09" y1="149.1" x2="48.15" y2="164.25" xlink:href="#New_Gradient_Swatch_9"/><linearGradient id="New_Gradient_Swatch_9-52" x1="28.48" y1="56.47" x2="34.58" y2="79.25" xlink:href="#New_Gradient_Swatch_9"/><linearGradient id="New_Gradient_Swatch_9-53" x1="27.56" y1="55.7" x2="31.97" y2="72.18" xlink:href="#New_Gradient_Swatch_9"/><linearGradient id="New_Gradient_Swatch_9-54" x1="37.38" y1="58.29" x2="47.69" y2="96.75" xlink:href="#New_Gradient_Swatch_9"/><linearGradient id="New_Gradient_Swatch_9-55" x1="46.23" y1="150.57" x2="57.24" y2="191.65" xlink:href="#New_Gradient_Swatch_9"/><linearGradient id="New_Gradient_Swatch_9-56" x1="42.05" y1="149.59" x2="52.96" y2="190.3" xlink:href="#New_Gradient_Swatch_9"/><linearGradient id="New_Gradient_Swatch_9-57" x1="25.66" y1="54.84" x2="31.27" y2="75.78" xlink:href="#New_Gradient_Swatch_9"/><linearGradient id="New_Gradient_Swatch_9-58" x1="40.05" y1="147.67" x2="47.57" y2="175.72" xlink:href="#New_Gradient_Swatch_9"/><linearGradient id="New_Gradient_Swatch_9-59" x1="23.16" y1="53.22" x2="32.2" y2="86.99" xlink:href="#New_Gradient_Swatch_9"/><linearGradient id="New_Gradient_Swatch_9-60" x1="37.78" y1="145.44" x2="47.14" y2="180.39" xlink:href="#New_Gradient_Swatch_9"/><linearGradient id="New_Gradient_Swatch_9-61" x1="24.52" y1="54.04" x2="30.46" y2="76.2" xlink:href="#New_Gradient_Swatch_9"/><linearGradient id="New_Gradient_Swatch_9-62" x1="22.54" y1="50.25" x2="31.55" y2="83.88" xlink:href="#New_Gradient_Swatch_9"/><linearGradient id="New_Gradient_Swatch_9-63" x1="22.85" y1="50.52" x2="33.76" y2="91.26" xlink:href="#New_Gradient_Swatch_9"/><linearGradient id="New_Gradient_Swatch_9-64" x1="22.76" y1="49.13" x2="32.04" y2="83.79" xlink:href="#New_Gradient_Swatch_9"/><linearGradient id="New_Gradient_Swatch_9-65" x1="39.4" y1="149.26" x2="54.47" y2="205.5" xlink:href="#New_Gradient_Swatch_9"/><linearGradient id="New_Gradient_Swatch_9-66" x1="38.57" y1="148.17" x2="56.63" y2="215.55" xlink:href="#New_Gradient_Swatch_9"/><linearGradient id="New_Gradient_Swatch_9-67" x1="38.63" y1="144.12" x2="54.47" y2="203.26" xlink:href="#New_Gradient_Swatch_9"/><linearGradient id="New_Gradient_Swatch_9-68" x1="23.5" y1="47.68" x2="33.59" y2="85.35" xlink:href="#New_Gradient_Swatch_9"/><linearGradient id="New_Gradient_Swatch_9-69" x1="23.97" y1="47.52" x2="35.29" y2="89.75" xlink:href="#New_Gradient_Swatch_9"/><linearGradient id="New_Gradient_Swatch_9-70" x1="26.66" y1="43.73" x2="38.54" y2="88.07" xlink:href="#New_Gradient_Swatch_9"/><linearGradient id="New_Gradient_Swatch_9-71" x1="27.39" y1="42.83" x2="39.28" y2="87.19" xlink:href="#New_Gradient_Swatch_9"/><linearGradient id="New_Gradient_Swatch_9-72" x1="24.24" y1="46.39" x2="34.61" y2="85.07" xlink:href="#New_Gradient_Swatch_9"/><linearGradient id="New_Gradient_Swatch_9-73" x1="30.86" y1="39.33" x2="43.4" y2="86.15" xlink:href="#New_Gradient_Swatch_9"/><linearGradient id="New_Gradient_Swatch_9-74" x1="31.78" y1="38.39" x2="44.23" y2="84.85" xlink:href="#New_Gradient_Swatch_9"/><linearGradient id="New_Gradient_Swatch_9-75" x1="32.81" y1="37.6" x2="45.99" y2="86.79" xlink:href="#New_Gradient_Swatch_9"/><linearGradient id="New_Gradient_Swatch_9-76" x1="40.56" y1="139.35" x2="55.42" y2="194.78" xlink:href="#New_Gradient_Swatch_9"/><linearGradient id="New_Gradient_Swatch_9-77" x1="43.95" y1="133.59" x2="55.92" y2="178.26" xlink:href="#New_Gradient_Swatch_9"/><linearGradient id="New_Gradient_Swatch_9-78" x1="48.62" y1="128.87" x2="59.35" y2="168.9" xlink:href="#New_Gradient_Swatch_9"/><linearGradient id="New_Gradient_Swatch_9-79" x1="35.72" y1="34.99" x2="49.47" y2="86.32" xlink:href="#New_Gradient_Swatch_9"/><linearGradient id="New_Gradient_Swatch_9-80" x1="51.67" y1="126.59" x2="64.49" y2="174.43" xlink:href="#New_Gradient_Swatch_9"/><linearGradient id="New_Gradient_Swatch_9-81" x1="43.43" y1="28.67" x2="56.79" y2="78.5" xlink:href="#New_Gradient_Swatch_9"/><linearGradient id="New_Gradient_Swatch_9-82" x1="44.9" y1="27.46" x2="58.7" y2="78.94" xlink:href="#New_Gradient_Swatch_9"/><linearGradient id="New_Gradient_Swatch_9-83" x1="38.02" y1="32.98" x2="52.66" y2="87.62" xlink:href="#New_Gradient_Swatch_9"/><linearGradient id="New_Gradient_Swatch_9-84" x1="65.32" y1="113.46" x2="84.14" y2="183.7" xlink:href="#New_Gradient_Swatch_9"/><linearGradient id="New_Gradient_Swatch_9-85" x1="52.27" y1="20.83" x2="68.41" y2="81.05" xlink:href="#New_Gradient_Swatch_9"/><linearGradient id="New_Gradient_Swatch_9-86" x1="53.07" y1="16.94" x2="74.19" y2="95.75" xlink:href="#New_Gradient_Swatch_9"/><linearGradient id="New_Gradient_Swatch_9-87" x1="40.62" y1="31.35" x2="48.55" y2="60.95" xlink:href="#New_Gradient_Swatch_9"/><linearGradient id="New_Gradient_Swatch_9-88" x1="63.41" y1="119.66" x2="71.6" y2="150.23" xlink:href="#New_Gradient_Swatch_9"/><linearGradient id="New_Gradient_Swatch_9-89" x1="71.03" y1="114.01" x2="82.32" y2="156.17" xlink:href="#New_Gradient_Swatch_9"/><linearGradient id="New_Gradient_Swatch_9-90" x1="56.8" y1="11.73" x2="79.73" y2="97.33" xlink:href="#New_Gradient_Swatch_9"/><linearGradient id="New_Gradient_Swatch_9-91" x1="73.91" y1="105.79" x2="92.94" y2="176.81" xlink:href="#New_Gradient_Swatch_9"/><linearGradient id="New_Gradient_Swatch_9-92" x1="66.02" y1="1.15" x2="89.94" y2="90.41" xlink:href="#New_Gradient_Swatch_9"/><linearGradient id="New_Gradient_Swatch_9-93" x1="82.14" y1="90.58" x2="107.39" y2="184.79" xlink:href="#New_Gradient_Swatch_9"/><linearGradient id="New_Gradient_Swatch_9-94" x1="58.99" y1="5.65" x2="85.61" y2="105.02" xlink:href="#New_Gradient_Swatch_9"/><linearGradient id="New_Gradient_Swatch_9-95" x1="60.95" y1="-56.93" x2="120.61" y2="165.72" xlink:href="#New_Gradient_Swatch_9"/><linearGradient id="New_Gradient_Swatch_9-96" x1="71.46" y1="-25.01" x2="106.68" y2="106.45" xlink:href="#New_Gradient_Swatch_9"/><linearGradient id="New_Gradient_Swatch_9-97" x1="58.29" y1="-81.39" x2="129.15" y2="183.08" xlink:href="#New_Gradient_Swatch_9"/><linearGradient id="New_Gradient_Swatch_9-98" x1="80.54" y1="108.94" x2="92" y2="151.72" xlink:href="#New_Gradient_Swatch_9"/><linearGradient id="New_Gradient_Swatch_9-99" x1="89.69" y1="101.98" x2="103.12" y2="152.07" xlink:href="#New_Gradient_Swatch_9"/><linearGradient id="New_Gradient_Swatch_9-100" x1="97.1" y1="92.88" x2="113.58" y2="154.38" xlink:href="#New_Gradient_Swatch_9"/><linearGradient id="New_Gradient_Swatch_9-101" x1="75.77" y1="-35.8" x2="112.65" y2="101.82" xlink:href="#New_Gradient_Swatch_9"/><linearGradient id="New_Gradient_Swatch_9-102" x1="83.52" y1="-13.98" x2="106.7" y2="72.51" xlink:href="#New_Gradient_Swatch_9"/><linearGradient id="New_Gradient_Swatch_9-103" x1="95.82" y1="-3.92" x2="110.99" y2="52.7" xlink:href="#New_Gradient_Swatch_9"/><linearGradient id="New_Gradient_Swatch_9-104" x1="98.12" y1="-2.44" x2="112.25" y2="50.31" xlink:href="#New_Gradient_Swatch_9"/><linearGradient id="New_Gradient_Swatch_9-105" x1="81.92" y1="-26.94" x2="111.53" y2="83.57" xlink:href="#New_Gradient_Swatch_9"/><linearGradient id="New_Gradient_Swatch_9-106" x1="107.42" y1="5.93" x2="117.09" y2="42" xlink:href="#New_Gradient_Swatch_9"/><linearGradient id="New_Gradient_Swatch_9-107" x1="109" y1="5.91" x2="118.58" y2="41.68" xlink:href="#New_Gradient_Swatch_9"/><linearGradient id="New_Gradient_Swatch_9-108" x1="111.84" y1="10.84" x2="119.37" y2="38.95" xlink:href="#New_Gradient_Swatch_9"/><linearGradient id="New_Gradient_Swatch_9-109" x1="108.24" y1="94.36" x2="121.3" y2="143.1" xlink:href="#New_Gradient_Swatch_9"/><linearGradient id="New_Gradient_Swatch_9-110" x1="117.69" y1="93.54" x2="129.78" y2="138.66" xlink:href="#New_Gradient_Swatch_9"/><linearGradient id="New_Gradient_Swatch_9-111" x1="126.24" y1="95.83" x2="136.75" y2="135.07" xlink:href="#New_Gradient_Swatch_9"/><linearGradient id="New_Gradient_Swatch_9-112" x1="117.15" y1="15.72" x2="122.79" y2="36.79" xlink:href="#New_Gradient_Swatch_9"/><linearGradient id="New_Gradient_Swatch_9-113" x1="132.69" y1="105.81" x2="139.34" y2="130.6" xlink:href="#New_Gradient_Swatch_9"/><linearGradient id="New_Gradient_Swatch_9-114" x1="126.41" y1="21.08" x2="130.59" y2="36.69" xlink:href="#New_Gradient_Swatch_9"/><linearGradient id="New_Gradient_Swatch_9-115" x1="127.44" y1="20.55" x2="131.92" y2="37.26" xlink:href="#New_Gradient_Swatch_9"/><linearGradient id="New_Gradient_Swatch_9-116" x1="121.17" y1="20.61" x2="125.11" y2="35.33" xlink:href="#New_Gradient_Swatch_9"/><linearGradient id="New_Gradient_Swatch_9-117" x1="146.95" y1="115.99" x2="151.01" y2="131.13" xlink:href="#New_Gradient_Swatch_9"/><linearGradient id="New_Gradient_Swatch_9-118" x1="131.26" y1="17.29" x2="137.38" y2="40.13" xlink:href="#New_Gradient_Swatch_9"/><linearGradient id="New_Gradient_Swatch_9-119" x1="133.51" y1="23.01" x2="137.94" y2="39.55" xlink:href="#New_Gradient_Swatch_9"/><linearGradient id="New_Gradient_Swatch_9-120" x1="119.06" y1="3.18" x2="129.37" y2="41.64" xlink:href="#New_Gradient_Swatch_9"/><linearGradient id="New_Gradient_Swatch_9-121" x1="139.35" y1="94.12" x2="150.36" y2="135.21" xlink:href="#New_Gradient_Swatch_9"/><linearGradient id="New_Gradient_Swatch_9-122" x1="143.6" y1="95.36" x2="154.52" y2="136.11" xlink:href="#New_Gradient_Swatch_9"/><linearGradient id="New_Gradient_Swatch_9-123" x1="134.49" y1="20.43" x2="140.09" y2="41.35" xlink:href="#New_Gradient_Swatch_9"/><linearGradient id="New_Gradient_Swatch_9-124" x1="148.28" y1="107.32" x2="155.79" y2="135.32" xlink:href="#New_Gradient_Swatch_9"/><linearGradient id="New_Gradient_Swatch_9-125" x1="134.28" y1="11.95" x2="143.33" y2="45.72" xlink:href="#New_Gradient_Swatch_9"/><linearGradient id="New_Gradient_Swatch_9-126" x1="149.11" y1="104.13" x2="158.46" y2="139.02" xlink:href="#New_Gradient_Swatch_9"/><linearGradient id="New_Gradient_Swatch_9-127" x1="135.36" y1="20.26" x2="141.3" y2="42.42" xlink:href="#New_Gradient_Swatch_9"/><linearGradient id="New_Gradient_Swatch_9-128" x1="134.92" y1="15.03" x2="143.93" y2="48.66" xlink:href="#New_Gradient_Swatch_9"/><linearGradient id="New_Gradient_Swatch_9-129" x1="133.13" y1="9.21" x2="144.03" y2="49.9" xlink:href="#New_Gradient_Swatch_9"/><linearGradient id="New_Gradient_Swatch_9-130" x1="134.49" y1="15.33" x2="143.78" y2="49.99" xlink:href="#New_Gradient_Swatch_9"/><linearGradient id="New_Gradient_Swatch_9-131" x1="142.98" y1="83.52" x2="158.05" y2="139.76" xlink:href="#New_Gradient_Swatch_9"/><linearGradient id="New_Gradient_Swatch_9-132" x1="141.47" y1="75.85" x2="159.52" y2="143.22" xlink:href="#New_Gradient_Swatch_9"/><linearGradient id="New_Gradient_Swatch_9-133" x1="92.36" y1="120.76" x2="104.46" y2="165.89" xlink:href="#New_Gradient_Swatch_9"/><linearGradient id="New_Gradient_Swatch_9-134" x1="92.36" y1="120.74" x2="104.46" y2="165.91" xlink:href="#New_Gradient_Swatch_9"/><linearGradient id="New_Gradient_Swatch_9-135" x1="-191.6" y1="511.49" x2="-191.6" y2="470.59" gradientTransform="translate(478.94 -227.69) rotate(25.29)" xlink:href="#New_Gradient_Swatch_9"/><radialGradient id="radial-gradient-2" cx="33.79" cy="-1222.38" r="90.39" gradientTransform="translate(57.48 347.01) scale(0.81 0.25)" gradientUnits="userSpaceOnUse"><stop offset="0.76"/><stop offset="0.79" stop-opacity="0.77"/><stop offset="1" stop-opacity="0"/></radialGradient><linearGradient id="New_Gradient_Swatch_8-4" x1="-33.53" y1="122.02" x2="118.73" y2="122.02" xlink:href="#New_Gradient_Swatch_8"/><linearGradient id="New_Gradient_Swatch_8-5" x1="23.89" y1="115.08" x2="163.89" y2="115.08" gradientTransform="translate(1.01 -0.82) rotate(0.5)" xlink:href="#New_Gradient_Swatch_8"/><linearGradient id="New_Gradient_Swatch_9-138" x1="139.92" y1="62.96" x2="155.77" y2="122.09" xlink:href="#New_Gradient_Swatch_9"/><linearGradient id="New_Gradient_Swatch_9-139" x1="129.9" y1="-8.96" x2="139.98" y2="28.66" xlink:href="#New_Gradient_Swatch_9"/><linearGradient id="New_Gradient_Swatch_9-140" x1="128.45" y1="-12.44" x2="139.76" y2="29.79" xlink:href="#New_Gradient_Swatch_9"/><linearGradient id="New_Gradient_Swatch_9-141" x1="125.3" y1="-10.35" x2="137.2" y2="34.04" xlink:href="#New_Gradient_Swatch_9"/><linearGradient id="New_Gradient_Swatch_9-142" x1="124.59" y1="-9.38" x2="136.46" y2="34.93" xlink:href="#New_Gradient_Swatch_9"/><linearGradient id="New_Gradient_Swatch_9-143" x1="128.93" y1="-8.51" x2="139.29" y2="30.18" xlink:href="#New_Gradient_Swatch_9"/><linearGradient id="New_Gradient_Swatch_9-144" x1="120.6" y1="-7.84" x2="133.14" y2="38.97" xlink:href="#New_Gradient_Swatch_9"/><linearGradient id="New_Gradient_Swatch_9-145" x1="119.75" y1="-6.63" x2="132.2" y2="39.83" xlink:href="#New_Gradient_Swatch_9"/><linearGradient id="New_Gradient_Swatch_9-146" x1="118.13" y1="-8.04" x2="131.33" y2="41.22" xlink:href="#New_Gradient_Swatch_9"/><linearGradient id="New_Gradient_Swatch_9-147" x1="138.75" y1="70.6" x2="153.61" y2="126.08" xlink:href="#New_Gradient_Swatch_9"/><linearGradient id="New_Gradient_Swatch_9-148" x1="137.65" y1="84.89" x2="149.61" y2="129.53" xlink:href="#New_Gradient_Swatch_9"/><linearGradient id="New_Gradient_Swatch_9-149" x1="133.95" y1="93.23" x2="144.68" y2="133.26" xlink:href="#New_Gradient_Swatch_9"/><linearGradient id="New_Gradient_Swatch_9-150" x1="114.8" y1="-7.01" x2="128.54" y2="44.25" xlink:href="#New_Gradient_Swatch_9"/><linearGradient id="New_Gradient_Swatch_9-151" x1="129.25" y1="89.36" x2="142.07" y2="137.21" xlink:href="#New_Gradient_Swatch_9"/><linearGradient id="New_Gradient_Swatch_9-152" x1="107.39" y1="0.43" x2="120.74" y2="50.26" xlink:href="#New_Gradient_Swatch_9"/><linearGradient id="New_Gradient_Swatch_9-153" x1="105.57" y1="0.35" x2="119.37" y2="51.83" xlink:href="#New_Gradient_Swatch_9"/><linearGradient id="New_Gradient_Swatch_9-154" x1="111.8" y1="-7.6" x2="126.42" y2="46.97" xlink:href="#New_Gradient_Swatch_9"/><linearGradient id="New_Gradient_Swatch_9-155" x1="110.9" y1="84.94" x2="129.7" y2="155.1" xlink:href="#New_Gradient_Swatch_9"/><linearGradient id="New_Gradient_Swatch_9-156" x1="96.35" y1="0.06" x2="112.5" y2="60.35" xlink:href="#New_Gradient_Swatch_9"/><linearGradient id="New_Gradient_Swatch_9-157" x1="91.64" y1="-10.62" x2="112.76" y2="68.19" xlink:href="#New_Gradient_Swatch_9"/><linearGradient id="New_Gradient_Swatch_9-158" x1="114.47" y1="13.69" x2="122.4" y2="43.26" xlink:href="#New_Gradient_Swatch_9"/><linearGradient id="New_Gradient_Swatch_9-159" x1="121.15" y1="109.86" x2="129.35" y2="140.46" xlink:href="#New_Gradient_Swatch_9"/><linearGradient id="New_Gradient_Swatch_9-160" x1="111.09" y1="106.41" x2="122.39" y2="148.58" xlink:href="#New_Gradient_Swatch_9"/><linearGradient id="New_Gradient_Swatch_9-161" x1="86.49" y1="-10.75" x2="109.42" y2="74.85" xlink:href="#New_Gradient_Swatch_9"/><linearGradient id="New_Gradient_Swatch_9-162" x1="102.13" y1="91.94" x2="121.16" y2="162.95" xlink:href="#New_Gradient_Swatch_9"/><linearGradient id="New_Gradient_Swatch_9-163" x1="76.49" y1="-3.05" x2="100.41" y2="86.22" xlink:href="#New_Gradient_Swatch_9"/><linearGradient id="New_Gradient_Swatch_9-164" x1="89" y1="88.86" x2="114.27" y2="183.17" xlink:href="#New_Gradient_Swatch_9"/><linearGradient id="New_Gradient_Swatch_9-165" x1="81.39" y1="-15.5" x2="108.02" y2="83.87" xlink:href="#New_Gradient_Swatch_9"/><linearGradient id="New_Gradient_Swatch_9-166" x1="53.47" y1="-49.83" x2="113.1" y2="172.72" xlink:href="#New_Gradient_Swatch_9"/><linearGradient id="New_Gradient_Swatch_9-167" x1="62.16" y1="-10.06" x2="97.38" y2="121.36" xlink:href="#New_Gradient_Swatch_9"/><linearGradient id="New_Gradient_Swatch_9-168" x1="46.98" y1="-59.51" x2="118.7" y2="208.13" xlink:href="#New_Gradient_Swatch_9"/><linearGradient id="New_Gradient_Swatch_9-169" x1="101.46" y1="111.01" x2="112.91" y2="153.76" xlink:href="#New_Gradient_Swatch_9"/><linearGradient id="New_Gradient_Swatch_9-170" x1="90.76" y1="112.21" x2="104.18" y2="162.3" xlink:href="#New_Gradient_Swatch_9"/><linearGradient id="New_Gradient_Swatch_9-171" x1="80.96" y1="112.36" x2="97.42" y2="173.8" xlink:href="#New_Gradient_Swatch_9"/><linearGradient id="New_Gradient_Swatch_9-172" x1="56.55" y1="-4.14" x2="93.43" y2="133.51" xlink:href="#New_Gradient_Swatch_9"/><linearGradient id="New_Gradient_Swatch_9-173" x1="59.56" y1="14.22" x2="82.77" y2="100.82" xlink:href="#New_Gradient_Swatch_9"/><linearGradient id="New_Gradient_Swatch_9-174" x1="53.57" y1="27.67" x2="68.77" y2="84.38" xlink:href="#New_Gradient_Swatch_9"/><linearGradient id="New_Gradient_Swatch_9-175" x1="52.09" y1="29.27" x2="66.2" y2="81.93" xlink:href="#New_Gradient_Swatch_9"/><linearGradient id="New_Gradient_Swatch_9-176" x1="56.1" y1="8.28" x2="85.76" y2="118.96" xlink:href="#New_Gradient_Swatch_9"/><linearGradient id="New_Gradient_Swatch_9-177" x1="46.3" y1="34" x2="55.97" y2="70.08" xlink:href="#New_Gradient_Swatch_9"/><linearGradient id="New_Gradient_Swatch_9-178" x1="44.79" y1="34.26" x2="54.37" y2="70.03" xlink:href="#New_Gradient_Swatch_9"/><linearGradient id="New_Gradient_Swatch_9-179" x1="43.56" y1="35.35" x2="51.09" y2="63.46" xlink:href="#New_Gradient_Swatch_9"/><linearGradient id="New_Gradient_Swatch_9-180" x1="72.5" y1="120.9" x2="85.55" y2="169.61" xlink:href="#New_Gradient_Swatch_9"/><linearGradient id="New_Gradient_Swatch_9-181" x1="63.81" y1="124.56" x2="75.89" y2="169.68" xlink:href="#New_Gradient_Swatch_9"/><linearGradient id="New_Gradient_Swatch_9-182" x1="56.5" y1="126.88" x2="67.03" y2="166.18" xlink:href="#New_Gradient_Swatch_9"/><linearGradient id="New_Gradient_Swatch_9-183" x1="39.73" y1="36.01" x2="45.38" y2="57.08" xlink:href="#New_Gradient_Swatch_9"/><linearGradient id="New_Gradient_Swatch_9-184" x1="53.09" y1="128.27" x2="59.75" y2="153.12" xlink:href="#New_Gradient_Swatch_9"/><linearGradient id="New_Gradient_Swatch_9-185" x1="31.62" y1="34.94" x2="35.79" y2="50.49" xlink:href="#New_Gradient_Swatch_9"/><linearGradient id="New_Gradient_Swatch_9-186" x1="30.36" y1="34.6" x2="34.82" y2="51.26" xlink:href="#New_Gradient_Swatch_9"/><linearGradient id="New_Gradient_Swatch_9-187" x1="37.05" y1="36.11" x2="41" y2="50.83" xlink:href="#New_Gradient_Swatch_9"/><linearGradient id="New_Gradient_Swatch_9-188" x1="40.86" y1="125.68" x2="44.92" y2="140.83" xlink:href="#New_Gradient_Swatch_9"/><linearGradient id="New_Gradient_Swatch_9-189" x1="25.25" y1="33.04" x2="31.35" y2="55.82" xlink:href="#New_Gradient_Swatch_9"/><linearGradient id="New_Gradient_Swatch_9-190" x1="24.33" y1="32.28" x2="28.74" y2="48.75" xlink:href="#New_Gradient_Swatch_9"/><linearGradient id="New_Gradient_Swatch_9-191" x1="34.15" y1="34.87" x2="44.46" y2="73.33" xlink:href="#New_Gradient_Swatch_9"/><linearGradient id="New_Gradient_Swatch_9-192" x1="43" y1="127.15" x2="54.01" y2="168.23" xlink:href="#New_Gradient_Swatch_9"/><linearGradient id="New_Gradient_Swatch_9-193" x1="38.82" y1="126.17" x2="49.73" y2="166.87" xlink:href="#New_Gradient_Swatch_9"/><linearGradient id="New_Gradient_Swatch_9-194" x1="22.43" y1="31.42" x2="28.04" y2="52.35" xlink:href="#New_Gradient_Swatch_9"/><linearGradient id="New_Gradient_Swatch_9-195" x1="36.82" y1="124.24" x2="44.34" y2="152.3" xlink:href="#New_Gradient_Swatch_9"/><linearGradient id="New_Gradient_Swatch_9-196" x1="19.93" y1="29.79" x2="28.97" y2="63.57" xlink:href="#New_Gradient_Swatch_9"/><linearGradient id="New_Gradient_Swatch_9-197" x1="34.55" y1="122.02" x2="43.91" y2="156.96" xlink:href="#New_Gradient_Swatch_9"/><linearGradient id="New_Gradient_Swatch_9-198" x1="21.29" y1="30.61" x2="27.23" y2="52.77" xlink:href="#New_Gradient_Swatch_9"/><linearGradient id="New_Gradient_Swatch_9-199" x1="19.31" y1="26.82" x2="28.32" y2="60.45" xlink:href="#New_Gradient_Swatch_9"/><linearGradient id="New_Gradient_Swatch_9-200" x1="19.62" y1="27.1" x2="30.53" y2="67.84" xlink:href="#New_Gradient_Swatch_9"/><linearGradient id="New_Gradient_Swatch_9-201" x1="19.53" y1="25.71" x2="28.81" y2="60.36" xlink:href="#New_Gradient_Swatch_9"/><linearGradient id="New_Gradient_Swatch_9-202" x1="36.17" y1="125.83" x2="51.24" y2="182.07" xlink:href="#New_Gradient_Swatch_9"/><linearGradient id="New_Gradient_Swatch_9-203" x1="35.34" y1="124.75" x2="53.4" y2="192.12" xlink:href="#New_Gradient_Swatch_9"/><linearGradient id="New_Gradient_Swatch_9-204" x1="35.4" y1="120.7" x2="51.24" y2="179.84" xlink:href="#New_Gradient_Swatch_9"/><linearGradient id="New_Gradient_Swatch_9-205" x1="20.27" y1="24.25" x2="30.36" y2="61.93" xlink:href="#New_Gradient_Swatch_9"/><linearGradient id="New_Gradient_Swatch_9-206" x1="20.74" y1="24.1" x2="32.06" y2="66.33" xlink:href="#New_Gradient_Swatch_9"/><linearGradient id="New_Gradient_Swatch_9-207" x1="23.43" y1="20.3" x2="35.31" y2="64.64" xlink:href="#New_Gradient_Swatch_9"/><linearGradient id="New_Gradient_Swatch_9-208" x1="24.16" y1="19.41" x2="36.05" y2="63.77" xlink:href="#New_Gradient_Swatch_9"/><linearGradient id="New_Gradient_Swatch_9-209" x1="21.01" y1="22.96" x2="31.38" y2="61.65" xlink:href="#New_Gradient_Swatch_9"/><linearGradient id="New_Gradient_Swatch_9-210" x1="27.63" y1="15.9" x2="40.17" y2="62.72" xlink:href="#New_Gradient_Swatch_9"/><linearGradient id="New_Gradient_Swatch_9-211" x1="28.55" y1="14.97" x2="41" y2="61.43" xlink:href="#New_Gradient_Swatch_9"/><linearGradient id="New_Gradient_Swatch_9-212" x1="29.58" y1="14.17" x2="42.76" y2="63.36" xlink:href="#New_Gradient_Swatch_9"/><linearGradient id="New_Gradient_Swatch_9-213" x1="37.33" y1="115.92" x2="52.19" y2="171.36" xlink:href="#New_Gradient_Swatch_9"/><linearGradient id="New_Gradient_Swatch_9-214" x1="40.72" y1="110.16" x2="52.69" y2="154.83" xlink:href="#New_Gradient_Swatch_9"/><linearGradient id="New_Gradient_Swatch_9-215" x1="45.39" y1="105.45" x2="56.12" y2="145.48" xlink:href="#New_Gradient_Swatch_9"/><linearGradient id="New_Gradient_Swatch_9-216" x1="32.49" y1="11.57" x2="46.24" y2="62.89" xlink:href="#New_Gradient_Swatch_9"/><linearGradient id="New_Gradient_Swatch_9-217" x1="48.44" y1="103.17" x2="61.26" y2="151" xlink:href="#New_Gradient_Swatch_9"/><linearGradient id="New_Gradient_Swatch_9-218" x1="40.2" y1="5.25" x2="53.56" y2="55.08" xlink:href="#New_Gradient_Swatch_9"/><linearGradient id="New_Gradient_Swatch_9-219" x1="41.67" y1="4.03" x2="55.47" y2="55.52" xlink:href="#New_Gradient_Swatch_9"/><linearGradient id="New_Gradient_Swatch_9-220" x1="34.79" y1="9.56" x2="49.43" y2="64.2" xlink:href="#New_Gradient_Swatch_9"/><linearGradient id="New_Gradient_Swatch_9-221" x1="62.09" y1="90.03" x2="80.91" y2="160.27" xlink:href="#New_Gradient_Swatch_9"/><linearGradient id="New_Gradient_Swatch_9-222" x1="49.04" y1="-2.59" x2="65.18" y2="57.62" xlink:href="#New_Gradient_Swatch_9"/><linearGradient id="New_Gradient_Swatch_9-223" x1="49.84" y1="-6.48" x2="70.96" y2="72.33" xlink:href="#New_Gradient_Swatch_9"/><linearGradient id="New_Gradient_Swatch_9-224" x1="37.39" y1="7.93" x2="45.32" y2="37.52" xlink:href="#New_Gradient_Swatch_9"/><linearGradient id="New_Gradient_Swatch_9-225" x1="60.18" y1="96.23" x2="68.37" y2="126.8" xlink:href="#New_Gradient_Swatch_9"/><linearGradient id="New_Gradient_Swatch_9-226" x1="67.8" y1="90.59" x2="79.09" y2="132.75" xlink:href="#New_Gradient_Swatch_9"/><linearGradient id="New_Gradient_Swatch_9-227" x1="53.57" y1="-11.69" x2="76.5" y2="73.9" xlink:href="#New_Gradient_Swatch_9"/><linearGradient id="New_Gradient_Swatch_9-228" x1="70.68" y1="82.37" x2="89.71" y2="153.38" xlink:href="#New_Gradient_Swatch_9"/><linearGradient id="New_Gradient_Swatch_9-229" x1="62.79" y1="-22.28" x2="86.71" y2="66.99" xlink:href="#New_Gradient_Swatch_9"/><linearGradient id="New_Gradient_Swatch_9-230" x1="78.91" y1="67.16" x2="104.16" y2="161.37" xlink:href="#New_Gradient_Swatch_9"/><linearGradient id="New_Gradient_Swatch_9-231" x1="55.76" y1="-17.78" x2="82.38" y2="81.59" xlink:href="#New_Gradient_Swatch_9"/><linearGradient id="New_Gradient_Swatch_9-232" x1="57.72" y1="-80.36" x2="117.38" y2="142.3" xlink:href="#New_Gradient_Swatch_9"/><linearGradient id="New_Gradient_Swatch_9-233" x1="68.23" y1="-48.44" x2="103.45" y2="83.02" xlink:href="#New_Gradient_Swatch_9"/><linearGradient id="New_Gradient_Swatch_9-234" x1="55.06" y1="-104.81" x2="125.92" y2="159.65" xlink:href="#New_Gradient_Swatch_9"/><linearGradient id="New_Gradient_Swatch_9-235" x1="77.31" y1="85.51" x2="88.77" y2="128.3" xlink:href="#New_Gradient_Swatch_9"/><linearGradient id="New_Gradient_Swatch_9-236" x1="86.46" y1="78.56" x2="99.89" y2="128.65" xlink:href="#New_Gradient_Swatch_9"/><linearGradient id="New_Gradient_Swatch_9-237" x1="93.87" y1="69.45" x2="110.35" y2="130.95" xlink:href="#New_Gradient_Swatch_9"/><linearGradient id="New_Gradient_Swatch_9-238" x1="72.54" y1="-59.22" x2="109.42" y2="78.4" xlink:href="#New_Gradient_Swatch_9"/><linearGradient id="New_Gradient_Swatch_9-239" x1="80.29" y1="-37.4" x2="103.47" y2="49.09" xlink:href="#New_Gradient_Swatch_9"/><linearGradient id="New_Gradient_Swatch_9-240" x1="92.59" y1="-27.34" x2="107.76" y2="29.27" xlink:href="#New_Gradient_Swatch_9"/><linearGradient id="New_Gradient_Swatch_9-241" x1="94.89" y1="-25.86" x2="109.02" y2="26.89" xlink:href="#New_Gradient_Swatch_9"/><linearGradient id="New_Gradient_Swatch_9-242" x1="78.69" y1="-50.37" x2="108.3" y2="60.15" xlink:href="#New_Gradient_Swatch_9"/><linearGradient id="New_Gradient_Swatch_9-243" x1="104.19" y1="-17.5" x2="113.86" y2="18.58" xlink:href="#New_Gradient_Swatch_9"/><linearGradient id="New_Gradient_Swatch_9-244" x1="105.77" y1="-17.52" x2="115.35" y2="18.25" xlink:href="#New_Gradient_Swatch_9"/><linearGradient id="New_Gradient_Swatch_9-245" x1="108.61" y1="-12.59" x2="116.14" y2="15.52" xlink:href="#New_Gradient_Swatch_9"/><linearGradient id="New_Gradient_Swatch_9-246" x1="105.01" y1="70.94" x2="118.07" y2="119.67" xlink:href="#New_Gradient_Swatch_9"/><linearGradient id="New_Gradient_Swatch_9-247" x1="114.46" y1="70.11" x2="126.55" y2="115.23" xlink:href="#New_Gradient_Swatch_9"/><linearGradient id="New_Gradient_Swatch_9-248" x1="123.01" y1="72.4" x2="133.52" y2="111.65" xlink:href="#New_Gradient_Swatch_9"/><linearGradient id="New_Gradient_Swatch_9-249" x1="113.92" y1="-7.7" x2="119.56" y2="13.37" xlink:href="#New_Gradient_Swatch_9"/><linearGradient id="New_Gradient_Swatch_9-250" x1="129.46" y1="82.39" x2="136.11" y2="107.17" xlink:href="#New_Gradient_Swatch_9"/><linearGradient id="New_Gradient_Swatch_9-251" x1="123.18" y1="-2.34" x2="127.36" y2="13.26" xlink:href="#New_Gradient_Swatch_9"/><linearGradient id="New_Gradient_Swatch_9-252" x1="124.21" y1="-2.88" x2="128.69" y2="13.84" xlink:href="#New_Gradient_Swatch_9"/><linearGradient id="New_Gradient_Swatch_9-253" x1="117.94" y1="-2.82" x2="121.88" y2="11.9" xlink:href="#New_Gradient_Swatch_9"/><linearGradient id="New_Gradient_Swatch_9-254" x1="143.72" y1="92.56" x2="147.78" y2="107.71" xlink:href="#New_Gradient_Swatch_9"/><linearGradient id="New_Gradient_Swatch_9-255" x1="128.03" y1="-6.13" x2="134.15" y2="16.7" xlink:href="#New_Gradient_Swatch_9"/><linearGradient id="New_Gradient_Swatch_9-256" x1="130.28" y1="-0.41" x2="134.71" y2="16.12" xlink:href="#New_Gradient_Swatch_9"/><linearGradient id="New_Gradient_Swatch_9-257" x1="115.83" y1="-20.24" x2="126.14" y2="18.22" xlink:href="#New_Gradient_Swatch_9"/><linearGradient id="New_Gradient_Swatch_9-258" x1="136.12" y1="70.7" x2="147.13" y2="111.78" xlink:href="#New_Gradient_Swatch_9"/><linearGradient id="New_Gradient_Swatch_9-259" x1="140.37" y1="71.94" x2="151.29" y2="112.69" xlink:href="#New_Gradient_Swatch_9"/><linearGradient id="New_Gradient_Swatch_9-260" x1="131.26" y1="-2.99" x2="136.86" y2="17.93" xlink:href="#New_Gradient_Swatch_9"/><linearGradient id="New_Gradient_Swatch_9-261" x1="145.05" y1="83.9" x2="152.56" y2="111.9" xlink:href="#New_Gradient_Swatch_9"/><linearGradient id="New_Gradient_Swatch_9-262" x1="131.05" y1="-11.48" x2="140.1" y2="22.29" xlink:href="#New_Gradient_Swatch_9"/><linearGradient id="New_Gradient_Swatch_9-263" x1="145.87" y1="80.7" x2="155.23" y2="115.6" xlink:href="#New_Gradient_Swatch_9"/><linearGradient id="New_Gradient_Swatch_9-264" x1="132.13" y1="-3.16" x2="138.07" y2="19" xlink:href="#New_Gradient_Swatch_9"/><linearGradient id="New_Gradient_Swatch_9-265" x1="131.69" y1="-8.4" x2="140.7" y2="25.24" xlink:href="#New_Gradient_Swatch_9"/><linearGradient id="New_Gradient_Swatch_9-266" x1="129.9" y1="-14.21" x2="140.8" y2="26.47" xlink:href="#New_Gradient_Swatch_9"/><linearGradient id="New_Gradient_Swatch_9-267" x1="131.26" y1="-8.09" x2="140.55" y2="26.57" xlink:href="#New_Gradient_Swatch_9"/><linearGradient id="New_Gradient_Swatch_9-268" x1="139.75" y1="60.1" x2="154.82" y2="116.34" xlink:href="#New_Gradient_Swatch_9"/><linearGradient id="New_Gradient_Swatch_9-269" x1="138.24" y1="52.42" x2="156.29" y2="119.8" xlink:href="#New_Gradient_Swatch_9"/><linearGradient id="New_Gradient_Swatch_9-270" x1="89.13" y1="97.33" x2="101.23" y2="142.46" xlink:href="#New_Gradient_Swatch_9"/><linearGradient id="New_Gradient_Swatch_9-271" x1="89.13" y1="97.32" x2="101.23" y2="142.49" xlink:href="#New_Gradient_Swatch_9"/><linearGradient id="New_Gradient_Swatch_9-272" x1="55.18" y1="114.77" x2="126.28" y2="114.77" xlink:href="#New_Gradient_Swatch_9"/><linearGradient id="New_Gradient_Swatch_9-273" x1="90.6" y1="109.43" x2="130.32" y2="109.43" xlink:href="#New_Gradient_Swatch_9"/></defs><g class="cls-1"><g id="Layer_1" data-name="Layer 1"><rect class="cls-2" x="5.14" y="38.88" width="153" height="62.83" rx="10"/><ellipse class="cls-3" cx="83.22" cy="72.73" rx="83.22" ry="24.74"/><path class="cls-4" d="M167.12,138a.43.43,0,0,0,0,0c.17-11.59-27.5-21.24-64.14-21.93-38.52-.74-72.37,8.7-75.61,21.07a8.34,8.34,0,0,0-.24,2L27.24,153c.05,5.9,7.34,11.3,19.36,15.24,1.74.57,3.59,1.12,5.52,1.62,1.52.41,3.1.78,4.72,1.14,1.43.31,2.88.6,4.38.88s2.76.49,4.19.71,2.7.4,4.09.59,2.64.33,4,.47,2.68.27,4,.39,2.72.22,4.11.31,2.76.17,4.17.23,2.85.11,4.29.15l1.28,0c1,0,2.1,0,3.14,0,1.51,0,3,0,4.5,0s3.15-.07,4.7-.13c1.75-.06,3.48-.15,5.2-.26,2.32-.14,4.62-.32,6.87-.54a159.13,159.13,0,0,0,25.32-4.35q3.6-1,6.8-2.06,2.33-.79,4.41-1.67c1.16-.48,2.26-1,3.3-1.48s1.8-.92,2.62-1.4,1.48-.88,2.15-1.34,1.23-.86,1.79-1.31,1-.87,1.48-1.31a13.62,13.62,0,0,0,2.19-2.66,9.86,9.86,0,0,0,.73-1.4,9,9,0,0,0,.4-1.17c0-.11,0-.2.07-.31a6.72,6.72,0,0,0,.18-1.53v-.13Zm-.18,1.54c0,.1,0,0,0-.11C167,139.46,167,139.5,166.94,139.53Z" transform="translate(-14.84 -92.64)"/><ellipse class="cls-5" cx="97.12" cy="138.5" rx="70" ry="22.43" transform="translate(-16.05 -91.79) rotate(-0.5)"/><path class="cls-6" d="M159.72,139.69l-3.86-.07c-.15.38-.24.77-.42,1.15l3.84.15c.19-.41.29-.82.44-1.23" transform="translate(-14.84 -92.64)"/><polyline class="cls-7" points="140.42 48.48 140.33 48.65 144.15 48.83 144.24 48.66 140.42 48.48"/><polyline class="cls-8" points="140.16 48.98 139.91 49.36 143.7 49.58 143.97 49.18 140.16 48.98"/><polyline class="cls-9" points="137.48 52.05 137.05 52.42 140.65 52.85 141.1 52.46 137.48 52.05"/><polyline class="cls-10" points="136.72 52.67 136.25 53.03 139.79 53.5 140.31 53.12 136.72 52.67"/><polyline class="cls-11" points="139.68 49.7 139.6 49.82 143.37 50.09 143.46 49.95 139.68 49.7"/><polyline class="cls-12" points="132.99 55.1 132.72 55.24 136.03 55.86 136.32 55.7 132.99 55.1"/><polyline class="cls-13" points="132.17 55.52 131.53 55.85 134.76 56.52 135.44 56.16 132.17 55.52"/><polyline class="cls-14" points="130.91 56.15 130.68 56.25 133.86 56.94 134.11 56.83 130.91 56.15"/><path class="cls-15" d="M154.16,142.81a14.28,14.28,0,0,1-1.48,1.57l3.66.39a16.16,16.16,0,0,0,1.57-1.68l-3.75-.28" transform="translate(-14.84 -92.64)"/><path class="cls-16" d="M150.66,146l-1.13.74c-.37.25-.82.48-1.22.72l3.36.59c.44-.25.91-.51,1.31-.77l1.2-.79-3.52-.49" transform="translate(-14.84 -92.64)"/><path class="cls-17" d="M145.52,148.9c-.66.32-1.42.63-2.14.94l3,.75c.78-.33,1.57-.66,2.29-1l-3.19-.68" transform="translate(-14.84 -92.64)"/><polyline class="cls-18" points="127.83 57.49 127.49 57.62 130.47 58.39 130.82 58.25 127.83 57.49"/><path class="cls-19" d="M141.67,150.51c-.26.11-.51.2-.79.3l2.87.81.85-.31-2.93-.8" transform="translate(-14.84 -92.64)"/><polyline class="cls-20" points="119.73 60.14 118.8 60.39 121.2 61.35 122.2 61.08 119.73 60.14"/><polyline class="cls-21" points="118.13 60.57 117.16 60.8 119.45 61.79 120.49 61.54 118.13 60.57"/><polyline class="cls-22" points="125.29 58.43 125.02 58.53 127.83 59.36 128.12 59.26 125.29 58.43"/><path class="cls-23" d="M126,154.74l-.46.09,1.88,1.07.48-.09-1.9-1.07" transform="translate(-14.84 -92.64)"/><polyline class="cls-24" points="109.78 62.34 108.72 62.53 110.46 63.63 111.6 63.43 109.78 62.34"/><polyline class="cls-25" points="107.74 62.69 107.37 62.75 109.03 63.86 109.42 63.8 107.74 62.69"/><polyline class="cls-26" points="124.26 58.78 122.44 59.37 120.53 59.93 123.05 60.85 125.08 60.26 127.02 59.63 124.26 58.78"/><path class="cls-27" d="M131.12,153.66c-1.4.32-2.81.63-4.29.92l2,1c1.57-.3,3.08-.63,4.57-1l-2.24-1" transform="translate(-14.84 -92.64)"/><path class="cls-28" d="M122.22,155.39l-1.64.26-1.68.23,1.44,1.14,1.78-.25c.59-.08,1.17-.18,1.75-.27l-1.65-1.11" transform="translate(-14.84 -92.64)"/><polyline class="cls-29" points="103.02 63.38 102.54 63.44 103.88 64.59 104.39 64.53 103.02 63.38"/><path class="cls-30" d="M116.41,156.2l-1.14.13,1.2,1.17,1.21-.14-1.27-1.16" transform="translate(-14.84 -92.64)"/><polyline class="cls-31" points="91.98 64.42 90.78 64.48 91.34 65.7 92.61 65.64 91.98 64.42"/><path class="cls-32" d="M104.78,157.17l-1.2.05.42,1.24,1.27-.06-.49-1.23" transform="translate(-14.84 -92.64)"/><polyline class="cls-33" points="99.39 63.8 99 63.84 100.1 65.02 100.52 64.98 99.39 63.8"/><polyline class="cls-34" points="81.59 64.75 81.07 64.75 80.99 65.99 81.54 65.99 81.59 64.75"/><polyline class="cls-35" points="80.04 64.75 78.84 64.74 78.61 65.98 79.89 65.99 80.04 64.75"/><polyline class="cls-36" points="77.75 64.72 77.35 64.72 77.03 65.96 77.45 65.97 77.75 64.72"/><path class="cls-37" d="M112.81,156.59l-2.48.22c-.82.07-1.66.12-2.5.18l.7,1.22c.89-.07,1.79-.12,2.67-.2l2.63-.23-1-1.19" transform="translate(-14.84 -92.64)"/><path class="cls-38" d="M102.5,157.27l-1.27,0-1.28,0c-.84,0-1.69,0-2.55,0l0,1.25c.9,0,1.81,0,2.71,0l1.36,0,1.36-.05-.35-1.23" transform="translate(-14.84 -92.64)"/><path class="cls-39" d="M88.61,157.25l-.56,1.24c1.27,0,2.54.07,3.82.11l.32-1.24c-1.2,0-2.39-.05-3.58-.11" transform="translate(-14.84 -92.64)"/><polyline class="cls-40" points="72.15 64.54 71.49 65.77 72.03 65.8 72.66 64.56 72.15 64.54"/><polyline class="cls-41" points="69.96 64.42 69.15 65.64 70.41 65.72 71.13 64.49 69.96 64.42"/><polyline class="cls-42" points="60.48 63.58 59.04 64.75 60.24 64.88 61.6 63.71 60.48 63.58"/><polyline class="cls-43" points="58.57 63.34 57.02 64.49 58.19 64.64 59.68 63.48 58.57 63.34"/><polyline class="cls-44" points="68.5 64.33 67.6 65.55 68.01 65.58 68.89 64.36 68.5 64.33"/><polyline class="cls-45" points="51.77 62.26 49.76 63.34 50.22 63.43 52.2 62.34 51.77 62.26"/><polyline class="cls-46" points="49.87 61.9 47.74 62.95 48.82 63.16 50.89 62.09 49.87 61.9"/><polyline class="cls-47" points="48.64 61.63 46.43 62.67 46.78 62.74 48.98 61.7 48.64 61.63"/><path class="cls-48" d="M77.4,156.46l-1.29,1.18c1.72.17,3.45.34,5.21.47l1-1.21c-1.66-.12-3.27-.28-4.89-.44" transform="translate(-14.84 -92.64)"/><path class="cls-49" d="M67.89,155.13,66,156.23c.79.13,1.57.28,2.38.4l2.45.36,1.62-1.14-2.29-.34c-.76-.11-1.49-.25-2.24-.38" transform="translate(-14.84 -92.64)"/><path class="cls-50" d="M60.59,153.61l-2.41,1c1,.24,2,.49,3.1.71l2.21-1c-1-.21-2-.44-2.9-.67" transform="translate(-14.84 -92.64)"/><polyline class="cls-51" points="44.48 60.65 41.99 61.62 42.41 61.73 44.88 60.75 44.48 60.65"/><path class="cls-52" d="M57.63,152.83l-2.6.94c.31.1.63.18,1,.27l2.53-1-.9-.25" transform="translate(-14.84 -92.64)"/><polyline class="cls-53" points="36.02 57.93 32.98 58.72 33.79 59.03 36.78 58.22 36.02 57.93"/><polyline class="cls-54" points="34.77 57.41 31.65 58.17 32.41 58.5 35.48 57.72 34.77 57.41"/><polyline class="cls-55" points="41.7 59.87 39.03 60.8 39.34 60.89 41.99 59.96 41.7 59.87"/><path class="cls-56" d="M45.48,148l-3.4.63.26.15,3.38-.63-.24-.15" transform="translate(-14.84 -92.64)"/><polyline class="cls-57" points="29.59 54.75 26.12 55.33 26.72 55.69 30.15 55.08 29.59 54.75"/><polyline class="cls-58" points="28.95 54.32 25.44 54.88 25.62 55 29.12 54.44 28.95 54.32"/><polyline class="cls-59" points="37.44 58.47 34.49 59.3 36.29 59.94 38.19 60.55 40.91 59.64 39.13 59.07 37.44 58.47"/><path class="cls-60" d="M46.22,148.42l-3.35.65c.91.5,1.91,1,2.94,1.45l3.17-.75c-1-.43-1.92-.88-2.76-1.35" transform="translate(-14.84 -92.64)"/><path class="cls-61" d="M42.34,145.92l-3.59.48.72.57.81.55,3.51-.56c-.25-.17-.52-.34-.76-.52l-.69-.52" transform="translate(-14.84 -92.64)"/><polyline class="cls-62" points="26.92 52.79 23.28 53.24 23.47 53.41 27.1 52.94 26.92 52.79"/><path class="cls-63" d="M41,144.76l-3.68.41c.12.13.28.26.42.39l3.66-.44c-.13-.12-.28-.24-.4-.36" transform="translate(-14.84 -92.64)"/><polyline class="cls-64" points="23.95 49.05 20.11 49.25 20.3 49.66 24.12 49.43 23.95 49.05"/><path class="cls-65" d="M38.53,141l-3.86.17a3.39,3.39,0,0,0,.15.41l3.85-.19a2,2,0,0,1-.14-.39" transform="translate(-14.84 -92.64)"/><polyline class="cls-66" points="25.75 51.66 22.04 52.05 22.16 52.18 25.87 51.79 25.75 51.66"/><polyline class="cls-67" points="23.35 45.94 19.48 45.94 19.47 46.12 23.35 46.1 23.35 45.94"/><polyline class="cls-68" points="23.45 45.22 19.58 45.18 19.5 45.59 23.38 45.61 23.45 45.22"/><polyline class="cls-69" points="23.54 44.74 19.67 44.67 19.64 44.81 23.51 44.87 23.54 44.74"/><path class="cls-70" d="M39.16,142.39l-3.82.26c.18.28.33.56.54.84l.66.84,3.74-.35-.61-.79a8.9,8.9,0,0,1-.51-.8" transform="translate(-14.84 -92.64)"/><path class="cls-71" d="M38.18,139.06l-3.88,0a5.12,5.12,0,0,0,.08.87l.06.44.12.43,3.86-.14-.11-.41-.06-.4a4.62,4.62,0,0,1-.07-.82" transform="translate(-14.84 -92.64)"/><path class="cls-72" d="M35,136.09a11.13,11.13,0,0,0-.44,1.22l3.86.08c.15-.39.23-.77.42-1.16L35,136.09" transform="translate(-14.84 -92.64)"/><polyline class="cls-73" points="20.4 42.89 20.31 43.06 24.13 43.24 24.22 43.07 20.4 42.89"/><polyline class="cls-74" points="20.85 42.14 20.59 42.54 24.39 42.75 24.64 42.37 20.85 42.14"/><polyline class="cls-75" points="23.9 38.88 23.45 39.27 27.07 39.67 27.5 39.31 23.9 38.88"/><polyline class="cls-76" points="24.76 38.22 24.24 38.6 27.83 39.05 28.3 38.69 24.76 38.22"/><polyline class="cls-77" points="21.18 41.64 21.09 41.77 24.87 42.02 24.95 41.9 21.18 41.64"/><polyline class="cls-78" points="28.52 35.87 28.23 36.02 31.57 36.63 31.84 36.48 28.52 35.87"/><polyline class="cls-79" points="29.79 35.21 29.11 35.56 32.38 36.2 33.03 35.87 29.79 35.21"/><polyline class="cls-80" points="30.69 34.78 30.45 34.9 33.65 35.57 33.88 35.47 30.69 34.78"/><path class="cls-81" d="M37.9,132.24a15.34,15.34,0,0,0-1.58,1.68l3.75.28a14.34,14.34,0,0,1,1.48-1.57l-3.65-.39" transform="translate(-14.84 -92.64)"/><path class="cls-82" d="M42.56,129c-.43.26-.9.51-1.3.78l-1.2.79,3.52.49,1.12-.74c.38-.25.82-.49,1.23-.73L42.56,129" transform="translate(-14.84 -92.64)"/><path class="cls-83" d="M47.82,126.41c-.78.34-1.58.67-2.29,1l3.19.69c.66-.33,1.41-.64,2.14-1l-3-.75" transform="translate(-14.84 -92.64)"/><polyline class="cls-84" points="34.08 33.33 33.73 33.47 36.72 34.24 37.06 34.11 34.08 33.33"/><path class="cls-85" d="M50.48,125.39c-.29.1-.57.2-.84.31l2.92.79c.26-.1.52-.2.8-.29l-2.88-.81" transform="translate(-14.84 -92.64)"/><polyline class="cls-86" points="43.35 30.37 42.35 30.64 44.82 31.58 45.76 31.33 43.35 30.37"/><polyline class="cls-87" points="45.1 29.93 44.06 30.18 46.42 31.15 47.4 30.91 45.1 29.93"/><polyline class="cls-88" points="36.72 32.36 36.43 32.47 39.26 33.29 39.53 33.2 36.72 32.36"/><path class="cls-89" d="M66.83,121.11l-.49.08,1.91,1.07.45-.08-1.87-1.07" transform="translate(-14.84 -92.64)"/><polyline class="cls-90" points="54.09 28.09 52.95 28.29 54.77 29.38 55.83 29.19 54.09 28.09"/><polyline class="cls-91" points="55.53 27.86 55.13 27.92 56.81 29.03 57.18 28.97 55.53 27.86"/><polyline class="cls-92" points="41.5 30.87 39.47 31.46 37.53 32.09 40.29 32.94 42.11 32.35 44.02 31.8 41.5 30.87"/><path class="cls-93" d="M65.45,121.37c-1.57.3-3.08.64-4.57,1l2.24,1c1.39-.33,2.81-.64,4.29-.92l-2-1.06" transform="translate(-14.84 -92.64)"/><path class="cls-94" d="M73.9,120l-1.78.25-1.75.27L72,121.61l1.64-.25,1.67-.23L73.9,120" transform="translate(-14.84 -92.64)"/><polyline class="cls-95" points="60.67 27.13 60.16 27.19 61.53 28.34 62.01 28.29 60.67 27.13"/><path class="cls-96" d="M77.77,119.5c-.41,0-.81.1-1.22.15l1.28,1.16,1.13-.14-1.19-1.17" transform="translate(-14.84 -92.64)"/><polyline class="cls-97" points="73.21 26.02 71.94 26.08 72.57 27.3 73.77 27.24 73.21 26.02"/><path class="cls-98" d="M90.23,118.55c-.42,0-.85,0-1.27.06l.5,1.23q.6,0,1.2-.06l-.43-1.23" transform="translate(-14.84 -92.64)"/><polyline class="cls-99" points="64.45 26.7 64.04 26.74 65.17 27.92 65.55 27.88 64.45 26.7"/><polyline class="cls-100" points="83.56 25.73 83.01 25.73 82.96 26.98 83.48 26.97 83.56 25.73"/><polyline class="cls-101" points="85.94 25.74 84.67 25.73 84.51 26.97 85.72 26.99 85.94 25.74"/><polyline class="cls-102" points="87.53 25.76 87.1 25.76 86.8 27 87.21 27 87.53 25.76"/><path class="cls-103" d="M85.7,118.8,83,119l-2.64.24,1,1.19,2.48-.22c.82-.07,1.66-.12,2.49-.18l-.7-1.22" transform="translate(-14.84 -92.64)"/><path class="cls-104" d="M96.82,118.38c-.91,0-1.81,0-2.72.05l-1.36,0-1.35.05.35,1.23,1.27,0,1.27,0c.85,0,1.7,0,2.55,0v-1.24" transform="translate(-14.84 -92.64)"/><path class="cls-105" d="M102.37,118.4l-.32,1.24c1.19,0,2.39.06,3.58.11l.56-1.23c-1.26-.06-2.55-.08-3.82-.12" transform="translate(-14.84 -92.64)"/><polyline class="cls-106" points="92.52 25.93 91.89 27.16 92.4 27.18 93.06 25.95 92.52 25.93"/><polyline class="cls-107" points="94.14 26 93.42 27.23 94.6 27.3 95.4 26.08 94.14 26"/><polyline class="cls-108" points="104.31 26.84 102.95 28.01 104.08 28.14 105.51 26.97 104.31 26.84"/><polyline class="cls-109" points="106.36 27.08 104.87 28.24 105.98 28.38 107.53 27.23 106.36 27.08"/><polyline class="cls-110" points="96.54 26.15 95.66 27.36 96.06 27.39 96.95 26.17 96.54 26.15"/><polyline class="cls-111" points="114.33 28.3 112.35 29.38 112.78 29.46 114.79 28.38 114.33 28.3"/><polyline class="cls-112" points="115.73 28.56 113.67 29.63 114.68 29.83 116.81 28.77 115.73 28.56"/><polyline class="cls-113" points="117.77 28.98 115.58 30.02 115.91 30.09 118.12 29.05 117.77 28.98"/><path class="cls-114" d="M112.92,118.9l-1,1.21c1.65.12,3.27.27,4.88.44l1.29-1.19c-1.71-.17-3.44-.33-5.2-.46" transform="translate(-14.84 -92.64)"/><path class="cls-115" d="M123.44,120l-1.62,1.14,2.29.34c.76.11,1.49.25,2.24.37l1.92-1.09c-.79-.13-1.57-.28-2.39-.4l-2.44-.36" transform="translate(-14.84 -92.64)"/><path class="cls-116" d="M133,121.69l-2.21,1c1,.2,1.94.44,2.9.66l2.41-1c-1-.24-2-.49-3.1-.71" transform="translate(-14.84 -92.64)"/><polyline class="cls-117" points="122.14 29.99 119.67 30.97 120.08 31.07 122.56 30.1 122.14 29.99"/><path class="cls-118" d="M138.25,123l-2.55,1c.31.08.62.16.9.25l2.61-.94-1-.26" transform="translate(-14.84 -92.64)"/><polyline class="cls-119" points="130.76 32.69 127.77 33.5 128.53 33.8 131.57 33 130.76 32.69"/><polyline class="cls-120" points="132.14 33.23 129.07 34.01 129.78 34.31 132.9 33.55 132.14 33.23"/><polyline class="cls-121" points="125.21 30.83 122.56 31.76 122.85 31.85 125.52 30.93 125.21 30.83"/><path class="cls-122" d="M151.89,128.21l-3.38.64a2,2,0,0,1,.25.14l3.4-.63-.27-.15" transform="translate(-14.84 -92.64)"/><polyline class="cls-123" points="137.83 36.03 134.4 36.64 134.96 36.97 138.43 36.39 137.83 36.03"/><polyline class="cls-124" points="138.93 36.72 135.43 37.28 135.6 37.4 139.11 36.84 138.93 36.72"/><polyline class="cls-125" points="126.36 31.18 123.64 32.08 125.42 32.65 127.12 33.25 130.06 32.42 128.26 31.78 126.36 31.18"/><path class="cls-126" d="M148.42,126.49l-3.16.74c1,.44,1.92.89,2.76,1.35l3.35-.65c-.91-.5-1.91-1-3-1.44" transform="translate(-14.84 -92.64)"/><path class="cls-127" d="M154,129.48l-3.51.56c.25.17.52.35.75.52l.69.53,3.6-.49-.73-.56c-.25-.19-.54-.37-.8-.56" transform="translate(-14.84 -92.64)"/><polyline class="cls-128" points="141.09 38.31 137.46 38.78 137.63 38.93 141.27 38.48 141.09 38.31"/><path class="cls-129" d="M156.48,131.45l-3.66.43c.13.12.28.24.4.36l3.68-.41c-.13-.13-.28-.25-.42-.38" transform="translate(-14.84 -92.64)"/><polyline class="cls-130" points="144.25 42.06 140.43 42.3 140.6 42.68 144.44 42.47 144.25 42.06"/><path class="cls-131" d="M159.41,135.4l-3.85.19a1.5,1.5,0,0,1,.15.38l3.85-.16a2,2,0,0,0-.15-.41" transform="translate(-14.84 -92.64)"/><polyline class="cls-132" points="142.39 39.54 138.68 39.93 138.8 40.06 142.51 39.67 142.39 39.54"/><polyline class="cls-133" points="145.08 45.6 141.2 45.62 141.2 45.78 145.07 45.78 145.08 45.6"/><polyline class="cls-134" points="145.05 46.13 141.18 46.11 141.1 46.5 144.97 46.54 145.05 46.13"/><polyline class="cls-135" points="144.91 46.91 141.04 46.85 141.01 46.98 144.88 47.05 144.91 46.91"/><path class="cls-136" d="M157.69,132.67,154,133l.62.79c.21.26.34.53.52.79l3.8-.25a8,8,0,0,0-.54-.85l-.66-.84" transform="translate(-14.84 -92.64)"/><path class="cls-137" d="M159.67,136.18l-3.86.14.12.4,0,.41a3.79,3.79,0,0,1,.07.82l3.88,0a4.26,4.26,0,0,0-.07-.87l-.06-.43-.13-.43" transform="translate(-14.84 -92.64)"/><path class="cls-138" d="M91.57,159.75c-36.5-.69-63.69-10.79-60.63-22.5s35.24-20.69,71.73-20,63.68,10.79,60.62,22.5-35.23,20.68-71.72,20M103,116.11c-38.46-.73-72.38,8.72-75.61,21.07s25.44,23,63.91,23.72,72.38-8.72,75.6-21.07-25.44-23-63.9-23.72" transform="translate(-14.84 -92.64)"/><path class="cls-139" d="M87.59,155.13c-.37,0-.71.07-.78.19s.19.24.58.26c1.71.09,3.47.15,5.22.18h0c.4,0,.73-.09.76-.21s-.28-.24-.67-.25c-1.7,0-3.41-.09-5.08-.17h-.06m15.61.05a.75.75,0,0,0-.15,0c-1.7.07-3.43.12-5.14.14-.4,0-.71.11-.71.24s.29.21.66.22h.07c1.76,0,3.54-.07,5.28-.15.4,0,.68-.13.63-.26s-.31-.19-.64-.19m-25.65-.89a1.21,1.21,0,0,0-.72.15c-.15.12,0,.25.4.29,1.63.2,3.32.37,5,.51h.13a1.16,1.16,0,0,0,.75-.18c.11-.12-.11-.24-.49-.28-1.64-.14-3.28-.3-4.87-.49h-.21m35.84.11a1.31,1.31,0,0,0-.28,0c-1.63.18-3.3.33-5,.46-.39,0-.64.16-.56.28a1,1,0,0,0,.64.18h.21c1.73-.13,3.44-.29,5.12-.48.38,0,.58-.17.47-.29a1.07,1.07,0,0,0-.63-.15m-45.11-1.57a1.4,1.4,0,0,0-.66.11c-.22.11-.12.25.21.31,1.48.3,3,.57,4.58.82l.27,0a1.37,1.37,0,0,0,.7-.13c.18-.11,0-.25-.32-.31-1.51-.23-3-.5-4.45-.79a1.84,1.84,0,0,0-.33,0M123,153a2.73,2.73,0,0,0-.41,0c-1.5.28-3.06.54-4.62.77-.37.05-.54.19-.38.3a1.26,1.26,0,0,0,.6.14l.35,0c1.61-.24,3.2-.5,4.75-.79.34-.06.47-.21.27-.31A1.33,1.33,0,0,0,123,153m-62.85-2.18a1.65,1.65,0,0,0-.57.07c-.28.1-.27.24,0,.33,1.26.38,2.59.74,4,1.09a2.34,2.34,0,0,0,.39,0,1.45,1.45,0,0,0,.62-.09c.25-.1.19-.24-.12-.32-1.33-.33-2.64-.69-3.86-1.06a1.46,1.46,0,0,0-.44-.06m71.43.22a1.74,1.74,0,0,0-.52.05c-1.31.37-2.68.72-4.1,1-.32.07-.4.22-.18.32a1.38,1.38,0,0,0,.54.09,1.72,1.72,0,0,0,.46,0c1.45-.33,2.86-.69,4.21-1.06.3-.09.33-.23.08-.33a1.7,1.7,0,0,0-.49-.07m-78.18-2.72a2.25,2.25,0,0,0-.46,0c-.33.08-.41.22-.18.33,1,.45,2.08.9,3.22,1.32a1.62,1.62,0,0,0,.48.07,1.8,1.8,0,0,0,.53,0c.3-.09.34-.23.08-.33-1.11-.41-2.16-.84-3.14-1.29a1.49,1.49,0,0,0-.53-.09m85.46.26a2,2,0,0,0-.63.09c-1.06.44-2.21.86-3.4,1.27-.28.09-.27.24,0,.32a1.51,1.51,0,0,0,.44.06,1.65,1.65,0,0,0,.57-.07c1.23-.41,2.41-.85,3.51-1.3.24-.1.19-.24-.12-.32a1.52,1.52,0,0,0-.38-.05m-90.52-3.14a2,2,0,0,0-.35,0c-.36.05-.53.19-.37.31a26.33,26.33,0,0,0,2.34,1.5,1.4,1.4,0,0,0,.57.11,2.83,2.83,0,0,0,.41,0c.34-.06.47-.21.27-.32a24,24,0,0,1-2.27-1.46,1.16,1.16,0,0,0-.6-.13m96.19.29a1.48,1.48,0,0,0-.7.13c-.78.49-1.66,1-2.58,1.45-.22.11-.12.25.21.31a1.76,1.76,0,0,0,1-.07c1-.48,1.85-1,2.66-1.49.18-.11,0-.25-.31-.31l-.27,0m-99.37-3.45h-.22c-.39,0-.63.15-.55.27a10.58,10.58,0,0,0,1.37,1.63,1.05,1.05,0,0,0,.62.16l.28,0c.38,0,.58-.17.46-.29a11,11,0,0,1-1.32-1.58,1,1,0,0,0-.64-.18m103.22.31a1.18,1.18,0,0,0-.75.18,14,14,0,0,1-1.66,1.57c-.15.12,0,.25.4.3h.21a1.25,1.25,0,0,0,.72-.15,14.08,14.08,0,0,0,1.71-1.62c.11-.12-.11-.25-.49-.28h-.14M43.94,139h-.06c-.4,0-.71.11-.71.24a5.65,5.65,0,0,0,.34,1.69c0,.11.32.19.65.19h.14c.39,0,.68-.13.64-.26a5.26,5.26,0,0,1-.33-1.64c0-.12-.3-.21-.67-.22m106.29.28c-.39,0-.74.09-.77.22v0a6.56,6.56,0,0,1-.68,1.64c-.07.12.19.24.58.26h.07c.36,0,.7-.07.76-.19a6.89,6.89,0,0,0,.7-1.68v0c0-.13-.26-.24-.66-.25M44.8,135.62a1.05,1.05,0,0,0-.76.19,6.75,6.75,0,0,0-.68,1.67v0c0,.13.27.23.66.23s.74-.1.78-.22a6.25,6.25,0,0,1,.67-1.62c.07-.13-.19-.25-.58-.27H44.8m105.27.28h-.14c-.39,0-.68.14-.63.26a6,6,0,0,1,.33,1.65c0,.12.29.21.66.22h.07c.39,0,.71-.11.71-.24a6,6,0,0,0-.35-1.69c0-.11-.32-.19-.65-.2M47.68,132.38a1.49,1.49,0,0,0-.74.15,15.63,15.63,0,0,0-1.7,1.62c-.11.13.11.25.49.28h.14a1.13,1.13,0,0,0,.75-.17,14.9,14.9,0,0,1,1.66-1.58c.14-.12,0-.25-.4-.29l-.2,0m100.19.27h-.28c-.38.05-.59.18-.46.3a11,11,0,0,1,1.33,1.58,1,1,0,0,0,.64.18h.22c.38,0,.62-.15.54-.28a11.62,11.62,0,0,0-1.37-1.63,1.18,1.18,0,0,0-.62-.15m-95.43-3.28a1.75,1.75,0,0,0-.66.11c-1,.48-1.85,1-2.65,1.49-.18.12,0,.25.31.31l.27,0a1.37,1.37,0,0,0,.7-.13c.78-.49,1.65-1,2.58-1.45.21-.1.12-.25-.22-.31l-.33,0m91.27.25a2.73,2.73,0,0,0-.41,0c-.35.06-.47.21-.28.31a25.22,25.22,0,0,1,2.29,1.47,1.14,1.14,0,0,0,.6.13,1.94,1.94,0,0,0,.34,0c.36,0,.53-.19.37-.31a26.33,26.33,0,0,0-2.34-1.5,1.28,1.28,0,0,0-.57-.11m-84.77-2.91a1.72,1.72,0,0,0-.57.07c-1.23.42-2.4.85-3.5,1.3-.24.1-.19.25.12.32a1.52,1.52,0,0,0,.38,0,2,2,0,0,0,.63-.09c1.06-.44,2.2-.86,3.39-1.27.28-.09.27-.24,0-.32a1.46,1.46,0,0,0-.44-.06m78.83.21a1.49,1.49,0,0,0-.53.06c-.3.08-.34.23-.08.32,1.11.41,2.16.84,3.14,1.29a1.74,1.74,0,0,0,.52.09,2.35,2.35,0,0,0,.47,0c.33-.08.41-.22.18-.33-1-.45-2.08-.89-3.22-1.32a1.62,1.62,0,0,0-.48-.07M66.9,124.48a1.78,1.78,0,0,0-.47,0c-1.44.33-2.86.69-4.2,1.06-.3.09-.34.23-.08.33a1.7,1.7,0,0,0,.49.07,1.46,1.46,0,0,0,.52-.06c1.3-.36,2.68-.71,4.09-1,.33-.08.41-.22.18-.32a1.56,1.56,0,0,0-.53-.1m63.37.17a1.85,1.85,0,0,0-.62.09c-.25.1-.2.25.11.33,1.34.33,2.65.68,3.87,1.05a1.51,1.51,0,0,0,.44.06,1.74,1.74,0,0,0,.58-.07c.27-.09.27-.24,0-.32-1.27-.39-2.6-.75-4-1.09a1.67,1.67,0,0,0-.39,0M76,122.79a1.4,1.4,0,0,0-.35,0c-1.61.23-3.21.5-4.74.79-.35.06-.47.2-.28.31a1.22,1.22,0,0,0,.57.11,1.42,1.42,0,0,0,.41,0c1.49-.28,3.05-.53,4.62-.76.36-.06.52-.2.37-.31a1.16,1.16,0,0,0-.6-.13m45.48.12a1.3,1.3,0,0,0-.69.13c-.19.11,0,.25.31.3,1.52.24,3,.51,4.45.79a1.86,1.86,0,0,0,.34,0,1.75,1.75,0,0,0,.66-.11c.22-.11.12-.25-.21-.32-1.49-.29-3-.57-4.59-.81l-.27,0M86,121.69h-.21c-1.72.13-3.44.29-5.12.48-.37,0-.58.17-.45.29a1,1,0,0,0,.61.16,1.46,1.46,0,0,0,.29,0c1.62-.18,3.3-.33,5-.46.39,0,.64-.16.55-.28a.91.91,0,0,0-.64-.17m25.85.06a1.18,1.18,0,0,0-.75.18c-.11.12.11.25.49.28,1.65.13,3.29.3,4.88.49h.21a1.21,1.21,0,0,0,.72-.15c.15-.12,0-.25-.4-.29-1.64-.2-3.32-.37-5-.51h-.14m-15.49-.52h-.06c-1.76,0-3.54.08-5.29.16-.39,0-.67.13-.63.26s.32.19.66.19h.13c1.7-.07,3.43-.12,5.15-.14.39,0,.71-.12.71-.24s-.3-.22-.67-.22m5.34,0h-.12c-.39,0-.74.09-.77.22s.26.23.65.24h.1c1.67,0,3.36.09,5,.18h.07c.36,0,.7-.08.76-.2s-.19-.24-.58-.26c-1.69-.09-3.42-.15-5.13-.18" transform="translate(-14.84 -92.64)"/><path class="cls-140" d="M96.64,143a57.24,57.24,0,0,1-7,1.12q-3.24.32-6.71.32a66.34,66.34,0,0,1-9.24-.62A45.26,45.26,0,0,1,66,142.12a18,18,0,0,1-5.18-2.48,3.37,3.37,0,0,1,0-6.08A18.26,18.26,0,0,1,66,131.08a47.3,47.3,0,0,1,7.64-1.68,66.38,66.38,0,0,1,9.24-.61,65.44,65.44,0,0,1,6.68.32c.79.07,1.62.16,2.38.26.36,0,.78.14.78.14l-.13.05a11.86,11.86,0,0,0-1.22.5,6.35,6.35,0,0,0-1,.59,4.63,4.63,0,0,0-.72.65,3.74,3.74,0,0,0-.47.73,2,2,0,0,0-.21.8,2.29,2.29,0,0,0,0,.25s-.69-.15-1.1-.21a39.26,39.26,0,0,0-5-.36,34.13,34.13,0,0,0-4.78.32,22.57,22.57,0,0,0-3.91.87,8.47,8.47,0,0,0-2.63,1.3,1.81,1.81,0,0,0,0,3.2,8.47,8.47,0,0,0,2.63,1.3,22.57,22.57,0,0,0,3.91.87,32.68,32.68,0,0,0,4.78.32,38.07,38.07,0,0,0,8.4-1c2-.48,3.49-.94,5.39-1.45a51.69,51.69,0,0,1,14-1.53l18.29,0v4.14H108.45v6.76l-11.75,0V143Z" transform="translate(-14.84 -92.64)"/><path class="cls-140" d="M94.33,136.41V134h0c0-3.07,5-4.87,14.51-4.87h22.21a2,2,0,0,1,2,2v.05a2,2,0,0,1-2,2h-22c-2.3,0-3.13.46-3.13,1.25v.35a56.59,56.59,0,0,0-9.25,1.08C95.83,136.07,94.33,136.41,94.33,136.41Z" transform="translate(-14.84 -92.64)"/><path class="cls-141" d="M96.64,143a57.24,57.24,0,0,1-7,1.12q-3.24.32-6.71.32a66.34,66.34,0,0,1-9.24-.62A45.26,45.26,0,0,1,66,142.12a18,18,0,0,1-5.18-2.48,3.37,3.37,0,0,1,0-6.08A18.26,18.26,0,0,1,66,131.08a47.3,47.3,0,0,1,7.64-1.68,66.38,66.38,0,0,1,9.24-.61,65.44,65.44,0,0,1,6.68.32c.79.07,1.62.16,2.38.26.36,0,.78.14.78.14l-.13.05a11.86,11.86,0,0,0-1.22.5,6.35,6.35,0,0,0-1,.59,4.63,4.63,0,0,0-.72.65,3.74,3.74,0,0,0-.47.73,2,2,0,0,0-.21.8,2.29,2.29,0,0,0,0,.25s-.69-.15-1.1-.21a39.26,39.26,0,0,0-5-.36,34.13,34.13,0,0,0-4.78.32,22.57,22.57,0,0,0-3.91.87,8.47,8.47,0,0,0-2.63,1.3,1.81,1.81,0,0,0,0,3.2,8.47,8.47,0,0,0,2.63,1.3,22.57,22.57,0,0,0,3.91.87,32.68,32.68,0,0,0,4.78.32,38.07,38.07,0,0,0,8.4-1c2-.48,3.49-.94,5.39-1.45a51.69,51.69,0,0,1,14-1.53l18.29,0v4.14H108.45v6.76l-11.75,0V143Z" transform="translate(-14.84 -92.64)"/><path class="cls-141" d="M94.33,136.41V134h0c0-3.07,5-4.87,14.51-4.87h22.21a2,2,0,0,1,2,2v.05a2,2,0,0,1-2,2h-22c-2.3,0-3.13.46-3.13,1.25v.35a56.59,56.59,0,0,0-9.25,1.08C95.83,136.07,94.33,136.41,94.33,136.41Z" transform="translate(-14.84 -92.64)"/><path class="cls-141" d="M94.33,136.41V134h0c0-3.07,5-4.87,14.51-4.87h22.21a2,2,0,0,1,2,2v.05a2,2,0,0,1-2,2h-22c-2.3,0-3.13.46-3.13,1.25v.35a56.59,56.59,0,0,0-9.25,1.08C95.83,136.07,94.33,136.41,94.33,136.41Z" transform="translate(-14.84 -92.64)"/><ellipse class="cls-142" cx="84.73" cy="45.38" rx="72.89" ry="22.3"/><path class="cls-143" d="M163.89,114.56s0,0,0,0c.17-11.59-27.5-21.23-64.14-21.93-38.52-.73-72.37,8.7-75.61,21.08a8.21,8.21,0,0,0-.24,2L24,129.6c0,5.91,7.34,11.3,19.36,15.25,1.74.57,3.59,1.11,5.52,1.62,1.52.4,3.1.77,4.72,1.13,1.43.31,2.88.61,4.38.88s2.76.49,4.19.71,2.7.41,4.09.59,2.64.33,4,.48,2.68.27,4,.39,2.72.22,4.11.3,2.76.17,4.17.23,2.85.12,4.29.15l1.28,0,3.14,0c1.51,0,3,0,4.5,0s3.15-.06,4.7-.12c1.75-.07,3.48-.15,5.2-.26,2.32-.15,4.62-.32,6.87-.54a159.08,159.08,0,0,0,25.32-4.36q3.6-.94,6.8-2.06c1.55-.52,3-1.08,4.41-1.66,1.16-.48,2.26-1,3.3-1.49s1.8-.91,2.62-1.39,1.48-.89,2.15-1.34,1.23-.87,1.79-1.31,1-.88,1.48-1.32a16.35,16.35,0,0,0,1.22-1.31,13.45,13.45,0,0,0,1-1.35,9.86,9.86,0,0,0,.73-1.4,8.07,8.07,0,0,0,.4-1.17c0-.1.05-.2.07-.3a6.75,6.75,0,0,0,.18-1.54v-.12Zm-.18,1.55c0,.09,0,0,0-.11C163.72,116,163.72,116.07,163.71,116.11Z" transform="translate(-14.84 -92.64)"/><ellipse class="cls-144" cx="93.89" cy="115.08" rx="70" ry="22.43" transform="translate(-15.85 -91.81) rotate(-0.5)"/><path class="cls-145" d="M156.49,116.27l-3.86-.07c-.15.38-.24.77-.42,1.15l3.84.15c.19-.41.29-.82.44-1.23" transform="translate(-14.84 -92.64)"/><polyline class="cls-146" points="137.19 25.06 137.1 25.23 140.92 25.41 141.01 25.23 137.19 25.06"/><polyline class="cls-147" points="136.93 25.55 136.68 25.93 140.47 26.16 140.74 25.75 136.93 25.55"/><polyline class="cls-148" points="134.25 28.63 133.82 28.99 137.42 29.42 137.87 29.03 134.25 28.63"/><polyline class="cls-149" points="133.49 29.25 133.02 29.61 136.56 30.08 137.08 29.7 133.49 29.25"/><polyline class="cls-150" points="136.45 26.27 136.37 26.4 140.14 26.66 140.23 26.52 136.45 26.27"/><polyline class="cls-151" points="129.75 31.67 129.49 31.82 132.8 32.43 133.09 32.28 129.75 31.67"/><polyline class="cls-152" points="128.94 32.1 128.29 32.43 131.53 33.09 132.22 32.74 128.94 32.1"/><polyline class="cls-153" points="127.67 32.72 127.45 32.83 130.63 33.52 130.88 33.4 127.67 32.72"/><path class="cls-154" d="M150.93,119.38a14.34,14.34,0,0,1-1.48,1.58l3.66.38a15.21,15.21,0,0,0,1.57-1.68l-3.75-.28" transform="translate(-14.84 -92.64)"/><path class="cls-155" d="M147.43,122.57l-1.13.74c-.37.25-.82.49-1.22.73l3.36.59c.44-.26.91-.51,1.31-.78l1.2-.79-3.52-.49" transform="translate(-14.84 -92.64)"/><path class="cls-156" d="M142.29,125.47c-.66.33-1.42.64-2.14,1l3,.75c.78-.34,1.57-.66,2.29-1l-3.19-.69" transform="translate(-14.84 -92.64)"/><polyline class="cls-157" points="124.6 34.06 124.26 34.19 127.24 34.96 127.59 34.83 124.6 34.06"/><path class="cls-158" d="M138.44,127.09c-.26.1-.51.2-.79.29l2.87.82c.3-.1.57-.21.85-.32l-2.93-.79" transform="translate(-14.84 -92.64)"/><polyline class="cls-159" points="116.5 36.72 115.57 36.97 117.97 37.92 118.97 37.66 116.5 36.72"/><polyline class="cls-160" points="114.9 37.15 113.92 37.38 116.22 38.36 117.26 38.11 114.9 37.15"/><polyline class="cls-161" points="122.06 35.01 121.79 35.1 124.6 35.93 124.89 35.83 122.06 35.01"/><path class="cls-162" d="M122.76,131.32l-.46.08,1.88,1.07.48-.08-1.9-1.07" transform="translate(-14.84 -92.64)"/><polyline class="cls-163" points="106.55 38.92 105.49 39.11 107.23 40.2 108.37 40.01 106.55 38.92"/><polyline class="cls-164" points="104.51 39.27 104.14 39.33 105.8 40.44 106.19 40.37 104.51 39.27"/><polyline class="cls-165" points="121.03 35.36 119.21 35.94 117.3 36.5 119.82 37.43 121.85 36.83 123.79 36.21 121.03 35.36"/><path class="cls-166" d="M127.89,130.24c-1.4.32-2.81.63-4.29.91l2,1.06c1.57-.3,3.08-.63,4.57-1l-2.24-1" transform="translate(-14.84 -92.64)"/><path class="cls-167" d="M119,132l-1.64.25-1.68.24,1.44,1.14,1.78-.25c.59-.08,1.17-.18,1.75-.27L119,132" transform="translate(-14.84 -92.64)"/><polyline class="cls-168" points="99.79 39.95 99.31 40.01 100.65 41.17 101.16 41.11 99.79 39.95"/><path class="cls-169" d="M113.18,132.77l-1.14.14,1.2,1.17,1.21-.14-1.27-1.17" transform="translate(-14.84 -92.64)"/><polyline class="cls-170" points="88.75 40.99 87.55 41.06 88.11 42.28 89.38 42.21 88.75 40.99"/><path class="cls-171" d="M101.55,133.75l-1.2.05.42,1.23c.43,0,.85,0,1.27-.06l-.49-1.22" transform="translate(-14.84 -92.64)"/><polyline class="cls-172" points="96.16 40.38 95.77 40.41 96.87 41.6 97.28 41.55 96.16 40.38"/><polyline class="cls-173" points="78.36 41.32 77.84 41.33 77.76 42.57 78.31 42.56 78.36 41.32"/><polyline class="cls-174" points="76.81 41.32 75.61 41.31 75.38 42.55 76.66 42.57 76.81 41.32"/><polyline class="cls-175" points="74.52 41.3 74.12 41.3 73.8 42.54 74.22 42.54 74.52 41.3"/><path class="cls-176" d="M109.58,133.16l-2.48.22-2.5.19.7,1.21,2.67-.19,2.63-.24-1-1.19" transform="translate(-14.84 -92.64)"/><path class="cls-177" d="M99.27,133.84l-1.27,0-1.28,0c-.84,0-1.69,0-2.55,0l0,1.24c.9,0,1.81,0,2.71,0l1.36,0,1.36,0-.35-1.24" transform="translate(-14.84 -92.64)"/><path class="cls-178" d="M85.38,133.83l-.56,1.23c1.27.06,2.54.08,3.82.12l.32-1.24c-1.2,0-2.39-.06-3.58-.11" transform="translate(-14.84 -92.64)"/><polyline class="cls-179" points="68.92 41.12 68.26 42.35 68.8 42.37 69.42 41.14 68.92 41.12"/><polyline class="cls-180" points="66.73 41 65.92 42.22 67.18 42.3 67.9 41.07 66.73 41"/><polyline class="cls-181" points="57.25 40.16 55.81 41.32 57.01 41.46 58.37 40.28 57.25 40.16"/><polyline class="cls-182" points="55.34 39.91 53.79 41.06 54.96 41.22 56.45 40.06 55.34 39.91"/><polyline class="cls-183" points="65.27 40.91 64.37 42.13 64.78 42.15 65.66 40.93 65.27 40.91"/><polyline class="cls-184" points="48.54 38.84 46.53 39.91 46.99 40 48.98 38.92 48.54 38.84"/><polyline class="cls-185" points="46.64 38.47 44.51 39.53 45.59 39.74 47.66 38.67 46.64 38.47"/><polyline class="cls-186" points="45.41 38.21 43.2 39.25 43.55 39.32 45.74 38.28 45.41 38.21"/><path class="cls-187" d="M74.17,133l-1.29,1.18c1.72.17,3.45.34,5.21.46l1-1.21c-1.66-.12-3.27-.27-4.89-.43" transform="translate(-14.84 -92.64)"/><path class="cls-188" d="M64.66,131.71l-1.92,1.09c.79.14,1.57.28,2.38.4l2.45.37,1.62-1.14-2.29-.35c-.76-.11-1.49-.25-2.24-.37" transform="translate(-14.84 -92.64)"/><path class="cls-189" d="M57.36,130.19l-2.41,1c1,.24,2,.49,3.1.71l2.21-1c-1-.2-1.95-.44-2.9-.66" transform="translate(-14.84 -92.64)"/><polyline class="cls-190" points="41.25 37.22 38.76 38.19 39.18 38.3 41.65 37.33 41.25 37.22"/><path class="cls-191" d="M54.4,129.41l-2.6.94,1,.27,2.53-1-.9-.25" transform="translate(-14.84 -92.64)"/><polyline class="cls-192" points="32.79 34.5 29.75 35.3 30.56 35.61 33.55 34.8 32.79 34.5"/><polyline class="cls-193" points="31.54 33.99 28.42 34.74 29.18 35.07 32.25 34.29 31.54 33.99"/><polyline class="cls-194" points="38.47 36.45 35.8 37.37 36.11 37.46 38.76 36.53 38.47 36.45"/><path class="cls-195" d="M42.25,124.59l-3.4.63.26.15,3.38-.64a1.88,1.88,0,0,1-.24-.14" transform="translate(-14.84 -92.64)"/><polyline class="cls-196" points="26.36 31.32 22.89 31.91 23.49 32.27 26.92 31.66 26.36 31.32"/><polyline class="cls-197" points="25.72 30.9 22.21 31.45 22.39 31.58 25.89 31.01 25.72 30.9"/><polyline class="cls-198" points="34.2 35.05 31.26 35.88 33.06 36.51 34.96 37.12 37.68 36.22 35.9 35.64 34.2 35.05"/><path class="cls-199" d="M43,125l-3.35.65c.91.5,1.91,1,2.94,1.44l3.17-.74c-1-.44-1.92-.89-2.76-1.35" transform="translate(-14.84 -92.64)"/><path class="cls-200" d="M39.11,122.49l-3.59.49.72.56c.26.19.54.37.81.56l3.51-.56c-.25-.17-.52-.34-.76-.52l-.69-.53" transform="translate(-14.84 -92.64)"/><polyline class="cls-201" points="23.69 29.36 20.05 29.82 20.24 29.98 23.87 29.52 23.69 29.36"/><path class="cls-202" d="M37.79,121.34l-3.68.41c.12.13.28.25.42.38l3.66-.43c-.13-.12-.28-.24-.4-.36" transform="translate(-14.84 -92.64)"/><polyline class="cls-203" points="20.72 25.62 16.88 25.83 17.07 26.23 20.89 26 20.72 25.62"/><path class="cls-204" d="M35.3,117.61l-3.86.16a2.86,2.86,0,0,0,.15.41l3.85-.19a2,2,0,0,1-.14-.38" transform="translate(-14.84 -92.64)"/><polyline class="cls-205" points="22.52 28.24 18.81 28.62 18.93 28.75 22.64 28.36 22.52 28.24"/><polyline class="cls-206" points="20.12 22.51 16.25 22.52 16.24 22.69 20.12 22.68 20.12 22.51"/><polyline class="cls-207" points="20.22 21.8 16.35 21.75 16.27 22.17 20.15 22.18 20.22 21.8"/><polyline class="cls-208" points="20.31 21.32 16.44 21.25 16.41 21.38 20.28 21.45 20.31 21.32"/><path class="cls-209" d="M35.93,119l-3.82.25c.18.28.33.57.54.85l.66.84,3.74-.36-.61-.79a8.77,8.77,0,0,1-.51-.79" transform="translate(-14.84 -92.64)"/><path class="cls-210" d="M35,115.63l-3.88,0a5.12,5.12,0,0,0,.08.87l.06.43.12.43,3.86-.14-.11-.4-.06-.41a4.47,4.47,0,0,1-.07-.82" transform="translate(-14.84 -92.64)"/><path class="cls-211" d="M31.73,112.66a12.09,12.09,0,0,0-.44,1.23l3.86.07c.15-.38.23-.77.42-1.15l-3.84-.15" transform="translate(-14.84 -92.64)"/><polyline class="cls-212" points="17.17 19.47 17.08 19.64 20.9 19.81 20.99 19.65 17.17 19.47"/><polyline class="cls-213" points="17.62 18.71 17.36 19.12 21.16 19.32 21.41 18.94 17.62 18.71"/><polyline class="cls-214" points="20.67 15.45 20.22 15.84 23.84 16.25 24.27 15.88 20.67 15.45"/><polyline class="cls-215" points="21.53 14.79 21.01 15.18 24.6 15.62 25.07 15.27 21.53 14.79"/><polyline class="cls-216" points="17.95 18.21 17.86 18.35 21.64 18.6 21.72 18.47 17.95 18.21"/><polyline class="cls-217" points="25.29 12.44 25 12.59 28.34 13.2 28.61 13.06 25.29 12.44"/><polyline class="cls-218" points="26.56 11.78 25.88 12.14 29.15 12.77 29.8 12.44 26.56 11.78"/><polyline class="cls-219" points="27.46 11.36 27.21 11.47 30.42 12.15 30.64 12.04 27.46 11.36"/><path class="cls-220" d="M34.67,108.82a16.23,16.23,0,0,0-1.58,1.67l3.75.28a15.3,15.3,0,0,1,1.48-1.57l-3.65-.38" transform="translate(-14.84 -92.64)"/><path class="cls-221" d="M39.33,105.53c-.43.26-.9.51-1.3.77l-1.2.79,3.52.5,1.12-.75c.38-.24.82-.48,1.23-.72l-3.37-.59" transform="translate(-14.84 -92.64)"/><path class="cls-222" d="M44.59,103c-.78.33-1.58.66-2.29,1l3.19.68c.66-.32,1.41-.63,2.14-.94l-3-.75" transform="translate(-14.84 -92.64)"/><polyline class="cls-223" points="30.85 9.91 30.5 10.05 33.49 10.81 33.83 10.68 30.85 9.91"/><path class="cls-224" d="M47.25,102c-.29.1-.57.21-.84.32l2.92.79.8-.3L47.25,102" transform="translate(-14.84 -92.64)"/><polyline class="cls-225" points="40.12 6.95 39.12 7.21 41.59 8.15 42.52 7.9 40.12 6.95"/><polyline class="cls-226" points="41.87 6.51 40.83 6.76 43.19 7.73 44.17 7.49 41.87 6.51"/><polyline class="cls-227" points="33.49 8.94 33.2 9.04 36.03 9.87 36.3 9.77 33.49 8.94"/><path class="cls-228" d="M63.6,97.68l-.49.09L65,98.84l.45-.08L63.6,97.68" transform="translate(-14.84 -92.64)"/><polyline class="cls-229" points="50.86 4.67 49.73 4.87 51.54 5.95 52.6 5.76 50.86 4.67"/><polyline class="cls-230" points="52.3 4.44 51.91 4.5 53.58 5.61 53.95 5.55 52.3 4.44"/><polyline class="cls-231" points="38.27 7.45 36.24 8.04 34.3 8.66 37.06 9.51 38.88 8.93 40.79 8.37 38.27 7.45"/><path class="cls-232" d="M62.22,98c-1.57.3-3.08.63-4.57,1l2.24,1c1.39-.32,2.81-.63,4.29-.92l-2-1" transform="translate(-14.84 -92.64)"/><path class="cls-233" d="M70.67,96.56l-1.78.25c-.6.08-1.17.18-1.75.27l1.65,1.11,1.64-.26,1.67-.23-1.43-1.14" transform="translate(-14.84 -92.64)"/><polyline class="cls-234" points="57.44 3.71 56.93 3.77 58.3 4.92 58.78 4.86 57.44 3.71"/><path class="cls-235" d="M74.54,96.08l-1.22.14,1.28,1.16,1.13-.13-1.19-1.17" transform="translate(-14.84 -92.64)"/><polyline class="cls-236" points="69.98 2.59 68.71 2.66 69.34 3.88 70.54 3.82 69.98 2.59"/><path class="cls-237" d="M87,95.12l-1.27.07.5,1.22,1.2,0L87,95.12" transform="translate(-14.84 -92.64)"/><polyline class="cls-238" points="61.22 3.28 60.81 3.32 61.94 4.5 62.32 4.46 61.22 3.28"/><polyline class="cls-239" points="80.33 2.31 79.78 2.31 79.73 3.55 80.25 3.55 80.33 2.31"/><polyline class="cls-240" points="82.71 2.32 81.44 2.31 81.28 3.55 82.48 3.56 82.71 2.32"/><polyline class="cls-241" points="84.3 2.34 83.87 2.33 83.57 3.57 83.98 3.58 84.3 2.34"/><path class="cls-242" d="M82.47,95.37c-.89.07-1.78.12-2.66.2l-2.64.23,1,1.19,2.48-.22c.82-.07,1.66-.12,2.49-.18l-.7-1.22" transform="translate(-14.84 -92.64)"/><path class="cls-243" d="M93.59,95c-.91,0-1.81,0-2.72,0l-1.36,0-1.35,0,.35,1.24,1.27,0,1.27,0c.85,0,1.7,0,2.55,0V95" transform="translate(-14.84 -92.64)"/><path class="cls-244" d="M99.14,95l-.32,1.24c1.19,0,2.39.06,3.58.11l.56-1.24c-1.26,0-2.55-.07-3.82-.11" transform="translate(-14.84 -92.64)"/><polyline class="cls-245" points="89.29 2.5 88.67 3.73 89.17 3.75 89.83 2.52 89.29 2.5"/><polyline class="cls-246" points="90.92 2.58 90.19 3.8 91.37 3.87 92.17 2.65 90.92 2.58"/><polyline class="cls-247" points="101.08 3.42 99.72 4.59 100.85 4.71 102.28 3.55 101.08 3.42"/><polyline class="cls-248" points="103.13 3.65 101.64 4.81 102.75 4.96 104.31 3.81 103.13 3.65"/><polyline class="cls-249" points="93.31 2.72 92.43 3.94 92.83 3.96 93.72 2.75 93.31 2.72"/><polyline class="cls-250" points="111.1 4.87 109.12 5.95 109.55 6.04 111.56 4.96 111.1 4.87"/><polyline class="cls-251" points="112.5 5.14 110.44 6.2 111.45 6.4 113.58 5.35 112.5 5.14"/><polyline class="cls-252" points="114.54 5.55 112.35 6.59 112.68 6.66 114.89 5.63 114.54 5.55"/><path class="cls-253" d="M109.69,95.47l-1,1.22c1.65.11,3.27.27,4.88.43l1.29-1.18c-1.71-.17-3.44-.34-5.2-.47" transform="translate(-14.84 -92.64)"/><path class="cls-254" d="M120.21,96.59l-1.62,1.14,2.29.34,2.24.38,1.92-1.1c-.79-.13-1.57-.27-2.39-.39l-2.44-.37" transform="translate(-14.84 -92.64)"/><path class="cls-255" d="M129.73,98.27l-2.21,1c1,.2,1.94.44,2.9.66l2.41-1c-1-.24-2-.49-3.1-.71" transform="translate(-14.84 -92.64)"/><polyline class="cls-256" points="118.91 6.57 116.44 7.55 116.84 7.65 119.33 6.68 118.91 6.57"/><path class="cls-257" d="M135,99.54l-2.55,1c.31.08.62.16.9.25l2.61-.94c-.32-.1-.64-.18-1-.27" transform="translate(-14.84 -92.64)"/><polyline class="cls-258" points="127.53 9.26 124.54 10.08 125.3 10.37 128.34 9.58 127.53 9.26"/><polyline class="cls-259" points="128.91 9.8 125.84 10.58 126.55 10.89 129.67 10.13 128.91 9.8"/><polyline class="cls-260" points="121.98 7.41 119.33 8.34 119.62 8.42 122.29 7.5 121.98 7.41"/><path class="cls-261" d="M148.66,104.79l-3.38.63.25.15,3.4-.63-.27-.15" transform="translate(-14.84 -92.64)"/><polyline class="cls-262" points="134.6 12.61 131.17 13.21 131.73 13.55 135.2 12.96 134.6 12.61"/><polyline class="cls-263" points="135.7 13.3 132.2 13.86 132.37 13.97 135.88 13.42 135.7 13.3"/><polyline class="cls-264" points="123.13 7.75 120.41 8.66 122.19 9.23 123.89 9.83 126.83 9 125.03 8.36 123.13 7.75"/><path class="cls-265" d="M145.19,103.06l-3.16.75c1,.44,1.92.88,2.76,1.35l3.35-.65c-.91-.5-1.91-1-2.95-1.45" transform="translate(-14.84 -92.64)"/><path class="cls-266" d="M150.73,106.06l-3.51.56c.25.17.52.34.75.52l.69.53,3.6-.49-.73-.57-.8-.55" transform="translate(-14.84 -92.64)"/><polyline class="cls-267" points="137.85 14.89 134.23 15.36 134.4 15.51 138.04 15.05 137.85 14.89"/><path class="cls-268" d="M153.25,108l-3.66.44c.13.12.28.24.4.36l3.68-.41-.42-.39" transform="translate(-14.84 -92.64)"/><polyline class="cls-269" points="141.02 18.64 137.2 18.87 137.37 19.25 141.21 19.04 141.02 18.64"/><path class="cls-270" d="M156.18,112l-3.85.19a1.37,1.37,0,0,1,.15.38l3.85-.17a2.17,2.17,0,0,0-.15-.4" transform="translate(-14.84 -92.64)"/><polyline class="cls-271" points="139.16 16.12 135.45 16.51 135.57 16.63 139.28 16.25 139.16 16.12"/><polyline class="cls-272" points="141.85 22.18 137.97 22.19 137.97 22.36 141.84 22.36 141.85 22.18"/><polyline class="cls-273" points="141.82 22.71 137.94 22.69 137.87 23.07 141.74 23.12 141.82 22.71"/><polyline class="cls-274" points="141.68 23.49 137.81 23.43 137.78 23.55 141.65 23.63 141.68 23.49"/><path class="cls-275" d="M154.46,109.25l-3.74.36.62.78c.21.27.34.54.52.8l3.8-.26a7.91,7.91,0,0,0-.54-.84l-.66-.84" transform="translate(-14.84 -92.64)"/><path class="cls-276" d="M156.44,112.75l-3.86.14.12.41.05.41a3.7,3.7,0,0,1,.07.81l3.88,0a4.26,4.26,0,0,0-.07-.87l-.06-.44-.13-.43" transform="translate(-14.84 -92.64)"/><path class="cls-277" d="M88.34,136.33c-36.5-.7-63.69-10.79-60.63-22.51S63,93.14,99.44,93.83s63.68,10.79,60.62,22.51-35.23,20.68-71.72,20m11.4-43.65C61.28,92,27.36,101.4,24.13,113.75s25.44,23,63.91,23.72,72.38-8.72,75.6-21.07-25.44-23-63.9-23.72" transform="translate(-14.84 -92.64)"/><path class="cls-278" d="M84.36,131.7a1.06,1.06,0,0,0-.78.2c-.06.12.19.24.58.26,1.71.08,3.47.14,5.22.18h0c.4,0,.73-.09.76-.22s-.28-.23-.67-.24c-1.7,0-3.41-.09-5.08-.18h-.06m15.61.05h-.15c-1.7.08-3.43.12-5.14.15-.4,0-.71.11-.71.24s.29.21.66.22h.07c1.76,0,3.54-.07,5.28-.15.4,0,.68-.14.63-.26s-.31-.19-.64-.2m-25.65-.89a1.29,1.29,0,0,0-.72.15c-.15.12,0,.25.4.3,1.63.19,3.32.36,5,.5h.13a1.11,1.11,0,0,0,.75-.17c.11-.12-.11-.25-.49-.28-1.64-.14-3.28-.3-4.87-.49l-.21,0m35.84.11h-.28c-1.63.18-3.3.34-5,.47-.39,0-.64.15-.56.28a.92.92,0,0,0,.64.17h.21c1.73-.14,3.44-.3,5.12-.48.38,0,.58-.17.47-.3a1.16,1.16,0,0,0-.63-.15M65.05,129.4a1.71,1.71,0,0,0-.66.11c-.22.11-.12.25.21.32,1.48.29,3,.57,4.58.81a1.18,1.18,0,0,0,.27,0,1.61,1.61,0,0,0,.7-.13c.18-.12,0-.26-.32-.31-1.51-.24-3-.51-4.45-.79a1.86,1.86,0,0,0-.33,0m54.69.17a2.73,2.73,0,0,0-.41,0c-1.5.28-3.06.54-4.62.77-.37,0-.54.19-.38.3a1.16,1.16,0,0,0,.6.13,1.4,1.4,0,0,0,.35,0c1.61-.23,3.2-.5,4.75-.78.34-.07.47-.21.27-.32a1.21,1.21,0,0,0-.56-.11m-62.85-2.19a1.64,1.64,0,0,0-.57.08c-.28.09-.27.24,0,.32,1.26.38,2.59.75,4,1.09a2.3,2.3,0,0,0,.39,0,1.85,1.85,0,0,0,.62-.09c.25-.1.19-.25-.12-.32-1.33-.34-2.64-.69-3.86-1.06a1.84,1.84,0,0,0-.44-.07m71.43.22a2.12,2.12,0,0,0-.52.06c-1.31.36-2.68.71-4.1,1-.32.08-.4.22-.18.32a1.37,1.37,0,0,0,.54.1,2.25,2.25,0,0,0,.46,0c1.45-.33,2.86-.69,4.21-1.07.3-.08.33-.23.08-.32a1.4,1.4,0,0,0-.49-.08m-78.18-2.71a1.72,1.72,0,0,0-.46,0c-.33.07-.41.22-.18.32,1,.46,2.08.9,3.22,1.32a1.6,1.6,0,0,0,.48.08,2.2,2.2,0,0,0,.53-.06c.3-.08.34-.23.08-.32-1.11-.42-2.16-.85-3.14-1.29a1.3,1.3,0,0,0-.53-.09m85.46.26a1.53,1.53,0,0,0-.63.09c-1.06.43-2.21.86-3.4,1.26-.28.1-.27.24,0,.33a1.51,1.51,0,0,0,.44.06,1.64,1.64,0,0,0,.57-.08c1.23-.41,2.41-.85,3.51-1.29.24-.1.19-.25-.12-.33a1.53,1.53,0,0,0-.38,0M45.08,122l-.35,0c-.36.06-.53.2-.37.31a24.25,24.25,0,0,0,2.34,1.5,1.38,1.38,0,0,0,.57.12,1.9,1.9,0,0,0,.41,0c.34-.06.47-.2.27-.31a26.23,26.23,0,0,1-2.27-1.46,1.26,1.26,0,0,0-.6-.14m96.19.3a1.37,1.37,0,0,0-.7.13c-.78.49-1.66,1-2.58,1.44-.22.11-.12.25.21.32a1.76,1.76,0,0,0,.33,0,1.43,1.43,0,0,0,.66-.11c1-.48,1.85-1,2.66-1.48.18-.12,0-.25-.31-.31l-.27,0M41.9,118.85h-.22c-.39,0-.63.16-.55.28a11.08,11.08,0,0,0,1.37,1.63,1,1,0,0,0,.62.15h.28c.38,0,.58-.17.46-.29A11,11,0,0,1,42.54,119a.92.92,0,0,0-.64-.17m103.22.31a1.13,1.13,0,0,0-.75.17,14.9,14.9,0,0,1-1.66,1.58c-.15.12,0,.25.4.29l.21,0a1.43,1.43,0,0,0,.72-.15,14.9,14.9,0,0,0,1.71-1.62c.11-.13-.11-.25-.49-.28h-.14M40.71,115.53h-.06c-.4,0-.71.11-.71.24a5.65,5.65,0,0,0,.34,1.69c0,.11.32.19.65.2h.14c.39,0,.68-.14.64-.26a5.32,5.32,0,0,1-.33-1.64c0-.13-.3-.22-.67-.23m106.29.29c-.39,0-.74.09-.77.21v0a6.56,6.56,0,0,1-.68,1.64c-.07.13.19.25.58.27h.07c.36,0,.7-.08.76-.19a7,7,0,0,0,.7-1.69v0c0-.13-.26-.23-.66-.24M41.57,112.19c-.37,0-.69.08-.76.2a6.75,6.75,0,0,0-.68,1.67v0c0,.12.27.22.66.23s.74-.1.78-.23a6.55,6.55,0,0,1,.67-1.62c.07-.12-.19-.24-.58-.26h-.08m105.27.29h-.14c-.39,0-.68.13-.63.26a5.9,5.9,0,0,1,.33,1.64c0,.12.29.22.66.22h.07c.39,0,.71-.11.71-.23a5.85,5.85,0,0,0-.35-1.69c0-.12-.32-.2-.65-.2M44.45,109a1.3,1.3,0,0,0-.74.15,14.73,14.73,0,0,0-1.7,1.62c-.11.12.11.25.49.28h.14a1.18,1.18,0,0,0,.75-.18,14,14,0,0,1,1.66-1.57c.14-.12,0-.25-.4-.3h-.2m100.19.27h-.28c-.38,0-.59.17-.46.29a10.58,10.58,0,0,1,1.33,1.59.91.91,0,0,0,.64.17h.22c.38,0,.62-.16.54-.28a10.58,10.58,0,0,0-1.37-1.63,1,1,0,0,0-.62-.15M49.21,106a1.57,1.57,0,0,0-.66.11c-.95.48-1.85,1-2.65,1.49-.18.11,0,.25.31.3a1.18,1.18,0,0,0,.27,0,1.48,1.48,0,0,0,.7-.13,29.29,29.29,0,0,1,2.58-1.45c.21-.11.12-.25-.22-.32a1.76,1.76,0,0,0-.33,0m91.27.24a1.84,1.84,0,0,0-.41,0c-.35.06-.47.2-.28.31a25.21,25.21,0,0,1,2.29,1.46,1.23,1.23,0,0,0,.6.14,2,2,0,0,0,.34,0c.36,0,.53-.19.37-.3a24.25,24.25,0,0,0-2.34-1.5,1.42,1.42,0,0,0-.57-.12m-84.77-2.91a1.71,1.71,0,0,0-.57.08c-1.23.41-2.4.85-3.5,1.3-.24.1-.19.24.12.32a2.18,2.18,0,0,0,.38,0,2,2,0,0,0,.63-.09c1.06-.44,2.2-.87,3.39-1.27.28-.1.27-.24,0-.33a2.6,2.6,0,0,0-.44-.06m78.83.21a2.15,2.15,0,0,0-.53.06c-.3.09-.34.23-.08.33,1.11.41,2.16.84,3.14,1.28a1.28,1.28,0,0,0,.52.09,1.79,1.79,0,0,0,.47,0c.33-.07.41-.22.18-.32-1-.45-2.08-.9-3.22-1.32a1.6,1.6,0,0,0-.48-.08m-70.87-2.43a2.35,2.35,0,0,0-.47,0c-1.44.33-2.86.69-4.2,1.07-.3.08-.34.23-.08.32a1.4,1.4,0,0,0,.49.08,2.12,2.12,0,0,0,.52-.06c1.3-.36,2.68-.71,4.09-1,.33-.07.41-.21.18-.32a1.36,1.36,0,0,0-.53-.09m63.37.17a1.45,1.45,0,0,0-.62.09c-.25.1-.2.24.11.32,1.34.33,2.65.69,3.87,1.06a1.51,1.51,0,0,0,.44.06,2,2,0,0,0,.58-.07c.27-.1.27-.24,0-.33-1.27-.38-2.6-.75-4-1.09a2.45,2.45,0,0,0-.39,0M72.79,99.36l-.35,0c-1.61.24-3.21.5-4.74.79-.35.07-.47.21-.28.32a1.55,1.55,0,0,0,.57.11,2.83,2.83,0,0,0,.41,0c1.49-.28,3-.54,4.62-.77.36,0,.52-.19.37-.31a1.27,1.27,0,0,0-.6-.13m45.48.12a1.41,1.41,0,0,0-.69.13c-.19.12,0,.25.31.31,1.52.24,3,.5,4.45.79a1.87,1.87,0,0,0,.34,0,1.43,1.43,0,0,0,.66-.11c.22-.11.12-.25-.21-.31-1.49-.3-3-.57-4.59-.81a1.18,1.18,0,0,0-.27,0M82.72,98.26h-.21c-1.72.13-3.44.29-5.12.48-.37,0-.58.17-.45.29a1,1,0,0,0,.61.15,1.43,1.43,0,0,0,.29,0c1.62-.18,3.3-.34,5-.47.39,0,.64-.15.55-.27a1,1,0,0,0-.64-.18m25.85.07a1.19,1.19,0,0,0-.75.17c-.11.13.11.25.49.28,1.65.14,3.29.31,4.88.49l.21,0a1.29,1.29,0,0,0,.72-.15c.15-.12,0-.25-.4-.3-1.64-.19-3.32-.36-5-.5h-.14M93.08,97.8H93c-1.76,0-3.54.07-5.29.15-.39,0-.67.13-.63.26s.32.19.66.2h.13c1.7-.08,3.43-.13,5.15-.15.39,0,.71-.11.71-.24s-.3-.21-.67-.22m5.34,0H98.3c-.39,0-.74.09-.77.21s.26.24.65.24h.1c1.67,0,3.36.09,5,.17h.07c.36,0,.7-.07.76-.19s-.19-.25-.58-.26c-1.69-.09-3.42-.15-5.13-.18" transform="translate(-14.84 -92.64)"/><path class="cls-279" d="M93.41,119.55a57.24,57.24,0,0,1-7,1.12q-3.24.31-6.71.32a66.34,66.34,0,0,1-9.24-.62,45.26,45.26,0,0,1-7.64-1.68,18,18,0,0,1-5.18-2.47,3.37,3.37,0,0,1,0-6.08,18,18,0,0,1,5.18-2.48A45.26,45.26,0,0,1,70.41,106a66.34,66.34,0,0,1,9.24-.62q3.46,0,6.68.32c.79.08,1.62.17,2.38.27.36,0,.78.14.78.14l-.13,0a11.86,11.86,0,0,0-1.22.5,6.34,6.34,0,0,0-1,.58,4.22,4.22,0,0,0-.72.66,3.47,3.47,0,0,0-.47.73,1.59,1.59,0,0,0-.19,1s-.69-.15-1.1-.2a37.53,37.53,0,0,0-5-.36,34.18,34.18,0,0,0-4.78.31,24.59,24.59,0,0,0-3.91.87,8.47,8.47,0,0,0-2.63,1.31,1.81,1.81,0,0,0,0,3.2,8.7,8.7,0,0,0,2.63,1.3,22.57,22.57,0,0,0,3.91.87,34.13,34.13,0,0,0,4.78.32,38,38,0,0,0,8.4-1c2-.47,3.49-.94,5.39-1.45a51.69,51.69,0,0,1,14-1.53l18.29,0v4.15H105.22v6.75l-11.75.06v-4.64Z" transform="translate(-14.84 -92.64)"/><path class="cls-280" d="M91.1,113v-2.36h0c0-3.07,5-4.87,14.51-4.87h22.21a2,2,0,0,1,2,2v0a2,2,0,0,1-2,2h-22c-2.3,0-3.13.46-3.13,1.24v.36a56.59,56.59,0,0,0-9.25,1.07Z" transform="translate(-14.84 -92.64)"/></g></g></svg>