<svg xmlns="http://www.w3.org/2000/svg" xmlns:xlink="http://www.w3.org/1999/xlink" viewBox="0 0 166.44 102.53"><defs><style>.cls-1{isolation:isolate;}.cls-2{fill:url(#New_Gradient_Swatch_3);}.cls-142,.cls-3{mix-blend-mode:multiply;opacity:0.3;}.cls-3{fill:url(#radial-gradient);}.cls-4{fill:url(#New_Gradient_Swatch_3-2);}.cls-5{fill:url(#New_Gradient_Swatch_7);}.cls-6{fill:url(#New_Gradient_Swatch_3-3);}.cls-7{fill:url(#New_Gradient_Swatch_3-4);}.cls-8{fill:url(#New_Gradient_Swatch_3-5);}.cls-9{fill:url(#New_Gradient_Swatch_3-6);}.cls-10{fill:url(#New_Gradient_Swatch_3-7);}.cls-11{fill:url(#New_Gradient_Swatch_3-8);}.cls-12{fill:url(#New_Gradient_Swatch_3-9);}.cls-13{fill:url(#New_Gradient_Swatch_3-10);}.cls-14{fill:url(#New_Gradient_Swatch_3-11);}.cls-15{fill:url(#New_Gradient_Swatch_3-12);}.cls-16{fill:url(#New_Gradient_Swatch_3-13);}.cls-17{fill:url(#New_Gradient_Swatch_3-14);}.cls-18{fill:url(#New_Gradient_Swatch_3-15);}.cls-19{fill:url(#New_Gradient_Swatch_3-16);}.cls-20{fill:url(#New_Gradient_Swatch_3-17);}.cls-21{fill:url(#New_Gradient_Swatch_3-18);}.cls-22{fill:url(#New_Gradient_Swatch_3-19);}.cls-23{fill:url(#New_Gradient_Swatch_3-20);}.cls-24{fill:url(#New_Gradient_Swatch_3-21);}.cls-25{fill:url(#New_Gradient_Swatch_3-22);}.cls-26{fill:url(#New_Gradient_Swatch_3-23);}.cls-27{fill:url(#New_Gradient_Swatch_3-24);}.cls-28{fill:url(#New_Gradient_Swatch_3-25);}.cls-29{fill:url(#New_Gradient_Swatch_3-26);}.cls-30{fill:url(#New_Gradient_Swatch_3-27);}.cls-31{fill:url(#New_Gradient_Swatch_3-28);}.cls-32{fill:url(#New_Gradient_Swatch_3-29);}.cls-33{fill:url(#New_Gradient_Swatch_3-30);}.cls-34{fill:url(#New_Gradient_Swatch_3-31);}.cls-35{fill:url(#New_Gradient_Swatch_3-32);}.cls-36{fill:url(#New_Gradient_Swatch_3-33);}.cls-37{fill:url(#New_Gradient_Swatch_3-34);}.cls-38{fill:url(#New_Gradient_Swatch_3-35);}.cls-39{fill:url(#New_Gradient_Swatch_3-36);}.cls-40{fill:url(#New_Gradient_Swatch_3-37);}.cls-41{fill:url(#New_Gradient_Swatch_3-38);}.cls-42{fill:url(#New_Gradient_Swatch_3-39);}.cls-43{fill:url(#New_Gradient_Swatch_3-40);}.cls-44{fill:url(#New_Gradient_Swatch_3-41);}.cls-45{fill:url(#New_Gradient_Swatch_3-42);}.cls-46{fill:url(#New_Gradient_Swatch_3-43);}.cls-47{fill:url(#New_Gradient_Swatch_3-44);}.cls-48{fill:url(#New_Gradient_Swatch_3-45);}.cls-49{fill:url(#New_Gradient_Swatch_3-46);}.cls-50{fill:url(#New_Gradient_Swatch_3-47);}.cls-51{fill:url(#New_Gradient_Swatch_3-48);}.cls-52{fill:url(#New_Gradient_Swatch_3-49);}.cls-53{fill:url(#New_Gradient_Swatch_3-50);}.cls-54{fill:url(#New_Gradient_Swatch_3-51);}.cls-55{fill:url(#New_Gradient_Swatch_3-52);}.cls-56{fill:url(#New_Gradient_Swatch_3-53);}.cls-57{fill:url(#New_Gradient_Swatch_3-54);}.cls-58{fill:url(#New_Gradient_Swatch_3-55);}.cls-59{fill:url(#New_Gradient_Swatch_3-56);}.cls-60{fill:url(#New_Gradient_Swatch_3-57);}.cls-61{fill:url(#New_Gradient_Swatch_3-58);}.cls-62{fill:url(#New_Gradient_Swatch_3-59);}.cls-63{fill:url(#New_Gradient_Swatch_3-60);}.cls-64{fill:url(#New_Gradient_Swatch_3-61);}.cls-65{fill:url(#New_Gradient_Swatch_3-62);}.cls-66{fill:url(#New_Gradient_Swatch_3-63);}.cls-67{fill:url(#New_Gradient_Swatch_3-64);}.cls-68{fill:url(#New_Gradient_Swatch_3-65);}.cls-69{fill:url(#New_Gradient_Swatch_3-66);}.cls-70{fill:url(#New_Gradient_Swatch_3-67);}.cls-71{fill:url(#New_Gradient_Swatch_3-68);}.cls-72{fill:url(#New_Gradient_Swatch_3-69);}.cls-73{fill:url(#New_Gradient_Swatch_3-70);}.cls-74{fill:url(#New_Gradient_Swatch_3-71);}.cls-75{fill:url(#New_Gradient_Swatch_3-72);}.cls-76{fill:url(#New_Gradient_Swatch_3-73);}.cls-77{fill:url(#New_Gradient_Swatch_3-74);}.cls-78{fill:url(#New_Gradient_Swatch_3-75);}.cls-79{fill:url(#New_Gradient_Swatch_3-76);}.cls-80{fill:url(#New_Gradient_Swatch_3-77);}.cls-81{fill:url(#New_Gradient_Swatch_3-78);}.cls-82{fill:url(#New_Gradient_Swatch_3-79);}.cls-83{fill:url(#New_Gradient_Swatch_3-80);}.cls-84{fill:url(#New_Gradient_Swatch_3-81);}.cls-85{fill:url(#New_Gradient_Swatch_3-82);}.cls-86{fill:url(#New_Gradient_Swatch_3-83);}.cls-87{fill:url(#New_Gradient_Swatch_3-84);}.cls-88{fill:url(#New_Gradient_Swatch_3-85);}.cls-89{fill:url(#New_Gradient_Swatch_3-86);}.cls-90{fill:url(#New_Gradient_Swatch_3-87);}.cls-91{fill:url(#New_Gradient_Swatch_3-88);}.cls-92{fill:url(#New_Gradient_Swatch_3-89);}.cls-93{fill:url(#New_Gradient_Swatch_3-90);}.cls-94{fill:url(#New_Gradient_Swatch_3-91);}.cls-95{fill:url(#New_Gradient_Swatch_3-92);}.cls-96{fill:url(#New_Gradient_Swatch_3-93);}.cls-97{fill:url(#New_Gradient_Swatch_3-94);}.cls-98{fill:url(#New_Gradient_Swatch_3-95);}.cls-99{fill:url(#New_Gradient_Swatch_3-96);}.cls-100{fill:url(#New_Gradient_Swatch_3-97);}.cls-101{fill:url(#New_Gradient_Swatch_3-98);}.cls-102{fill:url(#New_Gradient_Swatch_3-99);}.cls-103{fill:url(#New_Gradient_Swatch_3-100);}.cls-104{fill:url(#New_Gradient_Swatch_3-101);}.cls-105{fill:url(#New_Gradient_Swatch_3-102);}.cls-106{fill:url(#New_Gradient_Swatch_3-103);}.cls-107{fill:url(#New_Gradient_Swatch_3-104);}.cls-108{fill:url(#New_Gradient_Swatch_3-105);}.cls-109{fill:url(#New_Gradient_Swatch_3-106);}.cls-110{fill:url(#New_Gradient_Swatch_3-107);}.cls-111{fill:url(#New_Gradient_Swatch_3-108);}.cls-112{fill:url(#New_Gradient_Swatch_3-109);}.cls-113{fill:url(#New_Gradient_Swatch_3-110);}.cls-114{fill:url(#New_Gradient_Swatch_3-111);}.cls-115{fill:url(#New_Gradient_Swatch_3-112);}.cls-116{fill:url(#New_Gradient_Swatch_3-113);}.cls-117{fill:url(#New_Gradient_Swatch_3-114);}.cls-118{fill:url(#New_Gradient_Swatch_3-115);}.cls-119{fill:url(#New_Gradient_Swatch_3-116);}.cls-120{fill:url(#New_Gradient_Swatch_3-117);}.cls-121{fill:url(#New_Gradient_Swatch_3-118);}.cls-122{fill:url(#New_Gradient_Swatch_3-119);}.cls-123{fill:url(#New_Gradient_Swatch_3-120);}.cls-124{fill:url(#New_Gradient_Swatch_3-121);}.cls-125{fill:url(#New_Gradient_Swatch_3-122);}.cls-126{fill:url(#New_Gradient_Swatch_3-123);}.cls-127{fill:url(#New_Gradient_Swatch_3-124);}.cls-128{fill:url(#New_Gradient_Swatch_3-125);}.cls-129{fill:url(#New_Gradient_Swatch_3-126);}.cls-130{fill:url(#New_Gradient_Swatch_3-127);}.cls-131{fill:url(#New_Gradient_Swatch_3-128);}.cls-132{fill:url(#New_Gradient_Swatch_3-129);}.cls-133{fill:url(#New_Gradient_Swatch_3-130);}.cls-134{fill:url(#New_Gradient_Swatch_3-131);}.cls-135{fill:url(#New_Gradient_Swatch_3-132);}.cls-136{fill:url(#New_Gradient_Swatch_3-133);}.cls-137{fill:url(#New_Gradient_Swatch_3-134);}.cls-138{fill:url(#New_Gradient_Swatch_3-135);}.cls-139{fill:url(#New_Gradient_Swatch_3-136);}.cls-140,.cls-141,.cls-279,.cls-280{fill:none;}.cls-140{stroke:#000;}.cls-140,.cls-279,.cls-280{stroke-miterlimit:10;}.cls-141{stroke-width:3px;stroke:url(#New_Gradient_Swatch_3-137);}.cls-142{fill:url(#radial-gradient-2);}.cls-143{fill:url(#New_Gradient_Swatch_3-140);}.cls-144{fill:url(#New_Gradient_Swatch_7-2);}.cls-145{fill:url(#New_Gradient_Swatch_3-141);}.cls-146{fill:url(#New_Gradient_Swatch_3-142);}.cls-147{fill:url(#New_Gradient_Swatch_3-143);}.cls-148{fill:url(#New_Gradient_Swatch_3-144);}.cls-149{fill:url(#New_Gradient_Swatch_3-145);}.cls-150{fill:url(#New_Gradient_Swatch_3-146);}.cls-151{fill:url(#New_Gradient_Swatch_3-147);}.cls-152{fill:url(#New_Gradient_Swatch_3-148);}.cls-153{fill:url(#New_Gradient_Swatch_3-149);}.cls-154{fill:url(#New_Gradient_Swatch_3-150);}.cls-155{fill:url(#New_Gradient_Swatch_3-151);}.cls-156{fill:url(#New_Gradient_Swatch_3-152);}.cls-157{fill:url(#New_Gradient_Swatch_3-153);}.cls-158{fill:url(#New_Gradient_Swatch_3-154);}.cls-159{fill:url(#New_Gradient_Swatch_3-155);}.cls-160{fill:url(#New_Gradient_Swatch_3-156);}.cls-161{fill:url(#New_Gradient_Swatch_3-157);}.cls-162{fill:url(#New_Gradient_Swatch_3-158);}.cls-163{fill:url(#New_Gradient_Swatch_3-159);}.cls-164{fill:url(#New_Gradient_Swatch_3-160);}.cls-165{fill:url(#New_Gradient_Swatch_3-161);}.cls-166{fill:url(#New_Gradient_Swatch_3-162);}.cls-167{fill:url(#New_Gradient_Swatch_3-163);}.cls-168{fill:url(#New_Gradient_Swatch_3-164);}.cls-169{fill:url(#New_Gradient_Swatch_3-165);}.cls-170{fill:url(#New_Gradient_Swatch_3-166);}.cls-171{fill:url(#New_Gradient_Swatch_3-167);}.cls-172{fill:url(#New_Gradient_Swatch_3-168);}.cls-173{fill:url(#New_Gradient_Swatch_3-169);}.cls-174{fill:url(#New_Gradient_Swatch_3-170);}.cls-175{fill:url(#New_Gradient_Swatch_3-171);}.cls-176{fill:url(#New_Gradient_Swatch_3-172);}.cls-177{fill:url(#New_Gradient_Swatch_3-173);}.cls-178{fill:url(#New_Gradient_Swatch_3-174);}.cls-179{fill:url(#New_Gradient_Swatch_3-175);}.cls-180{fill:url(#New_Gradient_Swatch_3-176);}.cls-181{fill:url(#New_Gradient_Swatch_3-177);}.cls-182{fill:url(#New_Gradient_Swatch_3-178);}.cls-183{fill:url(#New_Gradient_Swatch_3-179);}.cls-184{fill:url(#New_Gradient_Swatch_3-180);}.cls-185{fill:url(#New_Gradient_Swatch_3-181);}.cls-186{fill:url(#New_Gradient_Swatch_3-182);}.cls-187{fill:url(#New_Gradient_Swatch_3-183);}.cls-188{fill:url(#New_Gradient_Swatch_3-184);}.cls-189{fill:url(#New_Gradient_Swatch_3-185);}.cls-190{fill:url(#New_Gradient_Swatch_3-186);}.cls-191{fill:url(#New_Gradient_Swatch_3-187);}.cls-192{fill:url(#New_Gradient_Swatch_3-188);}.cls-193{fill:url(#New_Gradient_Swatch_3-189);}.cls-194{fill:url(#New_Gradient_Swatch_3-190);}.cls-195{fill:url(#New_Gradient_Swatch_3-191);}.cls-196{fill:url(#New_Gradient_Swatch_3-192);}.cls-197{fill:url(#New_Gradient_Swatch_3-193);}.cls-198{fill:url(#New_Gradient_Swatch_3-194);}.cls-199{fill:url(#New_Gradient_Swatch_3-195);}.cls-200{fill:url(#New_Gradient_Swatch_3-196);}.cls-201{fill:url(#New_Gradient_Swatch_3-197);}.cls-202{fill:url(#New_Gradient_Swatch_3-198);}.cls-203{fill:url(#New_Gradient_Swatch_3-199);}.cls-204{fill:url(#New_Gradient_Swatch_3-200);}.cls-205{fill:url(#New_Gradient_Swatch_3-201);}.cls-206{fill:url(#New_Gradient_Swatch_3-202);}.cls-207{fill:url(#New_Gradient_Swatch_3-203);}.cls-208{fill:url(#New_Gradient_Swatch_3-204);}.cls-209{fill:url(#New_Gradient_Swatch_3-205);}.cls-210{fill:url(#New_Gradient_Swatch_3-206);}.cls-211{fill:url(#New_Gradient_Swatch_3-207);}.cls-212{fill:url(#New_Gradient_Swatch_3-208);}.cls-213{fill:url(#New_Gradient_Swatch_3-209);}.cls-214{fill:url(#New_Gradient_Swatch_3-210);}.cls-215{fill:url(#New_Gradient_Swatch_3-211);}.cls-216{fill:url(#New_Gradient_Swatch_3-212);}.cls-217{fill:url(#New_Gradient_Swatch_3-213);}.cls-218{fill:url(#New_Gradient_Swatch_3-214);}.cls-219{fill:url(#New_Gradient_Swatch_3-215);}.cls-220{fill:url(#New_Gradient_Swatch_3-216);}.cls-221{fill:url(#New_Gradient_Swatch_3-217);}.cls-222{fill:url(#New_Gradient_Swatch_3-218);}.cls-223{fill:url(#New_Gradient_Swatch_3-219);}.cls-224{fill:url(#New_Gradient_Swatch_3-220);}.cls-225{fill:url(#New_Gradient_Swatch_3-221);}.cls-226{fill:url(#New_Gradient_Swatch_3-222);}.cls-227{fill:url(#New_Gradient_Swatch_3-223);}.cls-228{fill:url(#New_Gradient_Swatch_3-224);}.cls-229{fill:url(#New_Gradient_Swatch_3-225);}.cls-230{fill:url(#New_Gradient_Swatch_3-226);}.cls-231{fill:url(#New_Gradient_Swatch_3-227);}.cls-232{fill:url(#New_Gradient_Swatch_3-228);}.cls-233{fill:url(#New_Gradient_Swatch_3-229);}.cls-234{fill:url(#New_Gradient_Swatch_3-230);}.cls-235{fill:url(#New_Gradient_Swatch_3-231);}.cls-236{fill:url(#New_Gradient_Swatch_3-232);}.cls-237{fill:url(#New_Gradient_Swatch_3-233);}.cls-238{fill:url(#New_Gradient_Swatch_3-234);}.cls-239{fill:url(#New_Gradient_Swatch_3-235);}.cls-240{fill:url(#New_Gradient_Swatch_3-236);}.cls-241{fill:url(#New_Gradient_Swatch_3-237);}.cls-242{fill:url(#New_Gradient_Swatch_3-238);}.cls-243{fill:url(#New_Gradient_Swatch_3-239);}.cls-244{fill:url(#New_Gradient_Swatch_3-240);}.cls-245{fill:url(#New_Gradient_Swatch_3-241);}.cls-246{fill:url(#New_Gradient_Swatch_3-242);}.cls-247{fill:url(#New_Gradient_Swatch_3-243);}.cls-248{fill:url(#New_Gradient_Swatch_3-244);}.cls-249{fill:url(#New_Gradient_Swatch_3-245);}.cls-250{fill:url(#New_Gradient_Swatch_3-246);}.cls-251{fill:url(#New_Gradient_Swatch_3-247);}.cls-252{fill:url(#New_Gradient_Swatch_3-248);}.cls-253{fill:url(#New_Gradient_Swatch_3-249);}.cls-254{fill:url(#New_Gradient_Swatch_3-250);}.cls-255{fill:url(#New_Gradient_Swatch_3-251);}.cls-256{fill:url(#New_Gradient_Swatch_3-252);}.cls-257{fill:url(#New_Gradient_Swatch_3-253);}.cls-258{fill:url(#New_Gradient_Swatch_3-254);}.cls-259{fill:url(#New_Gradient_Swatch_3-255);}.cls-260{fill:url(#New_Gradient_Swatch_3-256);}.cls-261{fill:url(#New_Gradient_Swatch_3-257);}.cls-262{fill:url(#New_Gradient_Swatch_3-258);}.cls-263{fill:url(#New_Gradient_Swatch_3-259);}.cls-264{fill:url(#New_Gradient_Swatch_3-260);}.cls-265{fill:url(#New_Gradient_Swatch_3-261);}.cls-266{fill:url(#New_Gradient_Swatch_3-262);}.cls-267{fill:url(#New_Gradient_Swatch_3-263);}.cls-268{fill:url(#New_Gradient_Swatch_3-264);}.cls-269{fill:url(#New_Gradient_Swatch_3-265);}.cls-270{fill:url(#New_Gradient_Swatch_3-266);}.cls-271{fill:url(#New_Gradient_Swatch_3-267);}.cls-272{fill:url(#New_Gradient_Swatch_3-268);}.cls-273{fill:url(#New_Gradient_Swatch_3-269);}.cls-274{fill:url(#New_Gradient_Swatch_3-270);}.cls-275{fill:url(#New_Gradient_Swatch_3-271);}.cls-276{fill:url(#New_Gradient_Swatch_3-272);}.cls-277{fill:url(#New_Gradient_Swatch_3-273);}.cls-278{fill:url(#New_Gradient_Swatch_3-274);}.cls-279{stroke:url(#New_Gradient_Swatch_3-275);}.cls-280{stroke:url(#New_Gradient_Swatch_3-276);}</style><linearGradient id="New_Gradient_Swatch_3" x1="5.14" y1="71.12" x2="158.14" y2="71.12" gradientUnits="userSpaceOnUse"><stop offset="0" stop-color="#d1d3d4"/><stop offset="1" stop-color="#fff"/></linearGradient><radialGradient id="radial-gradient" cx="33.79" cy="-1121.4" r="90.39" gradientTransform="translate(52.11 380.52) scale(0.92 0.27)" gradientUnits="userSpaceOnUse"><stop offset="0.46"/><stop offset="0.51" stop-opacity="0.77"/><stop offset="1" stop-opacity="0"/></radialGradient><linearGradient id="New_Gradient_Swatch_3-2" x1="-29.91" y1="145.09" x2="122.63" y2="145.09" xlink:href="#New_Gradient_Swatch_3"/><linearGradient id="New_Gradient_Swatch_7" x1="27.62" y1="138.14" x2="167.88" y2="138.14" gradientTransform="translate(1.21 -0.85) rotate(0.5)" gradientUnits="userSpaceOnUse"><stop offset="0" stop-color="#b6b9ba"/><stop offset="1" stop-color="#e9e9ea"/></linearGradient><linearGradient id="New_Gradient_Swatch_3-3" x1="143.86" y1="85.92" x2="159.74" y2="145.16" xlink:href="#New_Gradient_Swatch_3"/><linearGradient id="New_Gradient_Swatch_3-4" x1="133.85" y1="14.86" x2="143.95" y2="52.55" xlink:href="#New_Gradient_Swatch_3"/><linearGradient id="New_Gradient_Swatch_3-5" x1="132.4" y1="11.38" x2="143.73" y2="53.69" xlink:href="#New_Gradient_Swatch_3"/><linearGradient id="New_Gradient_Swatch_3-6" x1="129.24" y1="13.47" x2="141.16" y2="57.95" xlink:href="#New_Gradient_Swatch_3"/><linearGradient id="New_Gradient_Swatch_3-7" x1="128.53" y1="14.44" x2="140.43" y2="58.84" xlink:href="#New_Gradient_Swatch_3"/><linearGradient id="New_Gradient_Swatch_3-8" x1="132.88" y1="15.31" x2="143.26" y2="54.07" xlink:href="#New_Gradient_Swatch_3"/><linearGradient id="New_Gradient_Swatch_3-9" x1="124.53" y1="15.98" x2="137.1" y2="62.88" xlink:href="#New_Gradient_Swatch_3"/><linearGradient id="New_Gradient_Swatch_3-10" x1="123.68" y1="17.2" x2="136.15" y2="63.74" xlink:href="#New_Gradient_Swatch_3"/><linearGradient id="New_Gradient_Swatch_3-11" x1="122.06" y1="15.79" x2="135.29" y2="65.13" xlink:href="#New_Gradient_Swatch_3"/><linearGradient id="New_Gradient_Swatch_3-12" x1="142.69" y1="93.58" x2="157.58" y2="149.16" xlink:href="#New_Gradient_Swatch_3"/><linearGradient id="New_Gradient_Swatch_3-13" x1="141.59" y1="107.9" x2="153.58" y2="152.62" xlink:href="#New_Gradient_Swatch_3"/><linearGradient id="New_Gradient_Swatch_3-14" x1="137.88" y1="116.25" x2="148.63" y2="156.35" xlink:href="#New_Gradient_Swatch_3"/><linearGradient id="New_Gradient_Swatch_3-15" x1="118.73" y1="16.82" x2="132.49" y2="68.17" xlink:href="#New_Gradient_Swatch_3"/><linearGradient id="New_Gradient_Swatch_3-16" x1="133.18" y1="112.38" x2="146.02" y2="160.31" xlink:href="#New_Gradient_Swatch_3"/><linearGradient id="New_Gradient_Swatch_3-17" x1="111.3" y1="24.28" x2="124.67" y2="74.2" xlink:href="#New_Gradient_Swatch_3"/><linearGradient id="New_Gradient_Swatch_3-18" x1="109.48" y1="24.19" x2="123.3" y2="75.77" xlink:href="#New_Gradient_Swatch_3"/><linearGradient id="New_Gradient_Swatch_3-19" x1="115.72" y1="16.22" x2="130.37" y2="70.9" xlink:href="#New_Gradient_Swatch_3"/><linearGradient id="New_Gradient_Swatch_3-20" x1="114.79" y1="107.94" x2="133.63" y2="178.23" xlink:href="#New_Gradient_Swatch_3"/><linearGradient id="New_Gradient_Swatch_3-21" x1="100.23" y1="23.9" x2="116.42" y2="84.3" xlink:href="#New_Gradient_Swatch_3"/><linearGradient id="New_Gradient_Swatch_3-22" x1="95.52" y1="13.2" x2="116.68" y2="92.15" xlink:href="#New_Gradient_Swatch_3"/><linearGradient id="New_Gradient_Swatch_3-23" x1="118.4" y1="37.56" x2="126.33" y2="67.18" xlink:href="#New_Gradient_Swatch_3"/><linearGradient id="New_Gradient_Swatch_3-24" x1="125.05" y1="132.91" x2="133.27" y2="163.57" xlink:href="#New_Gradient_Swatch_3"/><linearGradient id="New_Gradient_Swatch_3-25" x1="114.98" y1="129.46" x2="126.3" y2="171.7" xlink:href="#New_Gradient_Swatch_3"/><linearGradient id="New_Gradient_Swatch_3-26" x1="90.36" y1="13.07" x2="113.34" y2="98.83" xlink:href="#New_Gradient_Swatch_3"/><linearGradient id="New_Gradient_Swatch_3-27" x1="106.01" y1="114.96" x2="125.07" y2="186.1" xlink:href="#New_Gradient_Swatch_3"/><linearGradient id="New_Gradient_Swatch_3-28" x1="80.35" y1="20.79" x2="104.31" y2="110.22" xlink:href="#New_Gradient_Swatch_3"/><linearGradient id="New_Gradient_Swatch_3-29" x1="92.85" y1="111.87" x2="118.16" y2="206.36" xlink:href="#New_Gradient_Swatch_3"/><linearGradient id="New_Gradient_Swatch_3-30" x1="85.26" y1="8.31" x2="111.93" y2="107.87" xlink:href="#New_Gradient_Swatch_3"/><linearGradient id="New_Gradient_Swatch_3-31" x1="57.28" y1="-26.08" x2="117.02" y2="196.88" xlink:href="#New_Gradient_Swatch_3"/><linearGradient id="New_Gradient_Swatch_3-32" x1="65.99" y1="13.76" x2="101.27" y2="145.43" xlink:href="#New_Gradient_Swatch_3"/><linearGradient id="New_Gradient_Swatch_3-33" x1="50.78" y1="-35.78" x2="122.63" y2="232.35" xlink:href="#New_Gradient_Swatch_3"/><linearGradient id="New_Gradient_Swatch_3-34" x1="105.33" y1="134.07" x2="116.8" y2="176.89" xlink:href="#New_Gradient_Swatch_3"/><linearGradient id="New_Gradient_Swatch_3-35" x1="94.61" y1="135.26" x2="108.05" y2="185.44" xlink:href="#New_Gradient_Swatch_3"/><linearGradient id="New_Gradient_Swatch_3-36" x1="84.79" y1="135.41" x2="101.29" y2="196.97" xlink:href="#New_Gradient_Swatch_3"/><linearGradient id="New_Gradient_Swatch_3-37" x1="60.36" y1="19.69" x2="97.31" y2="157.6" xlink:href="#New_Gradient_Swatch_3"/><linearGradient id="New_Gradient_Swatch_3-38" x1="63.39" y1="38.09" x2="86.63" y2="124.84" xlink:href="#New_Gradient_Swatch_3"/><linearGradient id="New_Gradient_Swatch_3-39" x1="57.38" y1="51.56" x2="72.6" y2="108.37" xlink:href="#New_Gradient_Swatch_3"/><linearGradient id="New_Gradient_Swatch_3-40" x1="55.9" y1="53.16" x2="70.04" y2="105.92" xlink:href="#New_Gradient_Swatch_3"/><linearGradient id="New_Gradient_Swatch_3-41" x1="59.92" y1="32.13" x2="89.63" y2="143.02" xlink:href="#New_Gradient_Swatch_3"/><linearGradient id="New_Gradient_Swatch_3-42" x1="50.1" y1="57.9" x2="59.78" y2="94.05" xlink:href="#New_Gradient_Swatch_3"/><linearGradient id="New_Gradient_Swatch_3-43" x1="48.58" y1="58.16" x2="58.18" y2="94" xlink:href="#New_Gradient_Swatch_3"/><linearGradient id="New_Gradient_Swatch_3-44" x1="47.35" y1="59.26" x2="54.9" y2="87.42" xlink:href="#New_Gradient_Swatch_3"/><linearGradient id="New_Gradient_Swatch_3-45" x1="76.32" y1="143.97" x2="89.39" y2="192.76" xlink:href="#New_Gradient_Swatch_3"/><linearGradient id="New_Gradient_Swatch_3-46" x1="67.61" y1="147.64" x2="79.72" y2="192.84" xlink:href="#New_Gradient_Swatch_3"/><linearGradient id="New_Gradient_Swatch_3-47" x1="60.28" y1="149.96" x2="70.83" y2="189.33" xlink:href="#New_Gradient_Swatch_3"/><linearGradient id="New_Gradient_Swatch_3-48" x1="43.52" y1="59.91" x2="49.17" y2="81.02" xlink:href="#New_Gradient_Swatch_3"/><linearGradient id="New_Gradient_Swatch_3-49" x1="56.87" y1="151.36" x2="63.54" y2="176.25" xlink:href="#New_Gradient_Swatch_3"/><linearGradient id="New_Gradient_Swatch_3-50" x1="35.39" y1="58.85" x2="39.57" y2="74.42" xlink:href="#New_Gradient_Swatch_3"/><linearGradient id="New_Gradient_Swatch_3-51" x1="34.13" y1="58.51" x2="38.6" y2="75.2" xlink:href="#New_Gradient_Swatch_3"/><linearGradient id="New_Gradient_Swatch_3-52" x1="40.83" y1="60.02" x2="44.78" y2="74.77" xlink:href="#New_Gradient_Swatch_3"/><linearGradient id="New_Gradient_Swatch_3-53" x1="44.62" y1="148.76" x2="48.69" y2="163.93" xlink:href="#New_Gradient_Swatch_3"/><linearGradient id="New_Gradient_Swatch_3-54" x1="29" y1="56.94" x2="35.12" y2="79.76" xlink:href="#New_Gradient_Swatch_3"/><linearGradient id="New_Gradient_Swatch_3-55" x1="28.08" y1="56.18" x2="32.51" y2="72.68" xlink:href="#New_Gradient_Swatch_3"/><linearGradient id="New_Gradient_Swatch_3-56" x1="37.93" y1="58.77" x2="48.25" y2="97.3" xlink:href="#New_Gradient_Swatch_3"/><linearGradient id="New_Gradient_Swatch_3-57" x1="46.76" y1="150.23" x2="57.79" y2="191.39" xlink:href="#New_Gradient_Swatch_3"/><linearGradient id="New_Gradient_Swatch_3-58" x1="42.57" y1="149.25" x2="53.5" y2="190.03" xlink:href="#New_Gradient_Swatch_3"/><linearGradient id="New_Gradient_Swatch_3-59" x1="26.18" y1="55.31" x2="31.8" y2="76.29" xlink:href="#New_Gradient_Swatch_3"/><linearGradient id="New_Gradient_Swatch_3-60" x1="40.57" y1="147.32" x2="48.11" y2="175.43" xlink:href="#New_Gradient_Swatch_3"/><linearGradient id="New_Gradient_Swatch_3-61" x1="23.67" y1="53.69" x2="32.74" y2="87.52" xlink:href="#New_Gradient_Swatch_3"/><linearGradient id="New_Gradient_Swatch_3-62" x1="38.3" y1="145.09" x2="47.68" y2="180.1" xlink:href="#New_Gradient_Swatch_3"/><linearGradient id="New_Gradient_Swatch_3-63" x1="25.04" y1="54.51" x2="30.99" y2="76.71" xlink:href="#New_Gradient_Swatch_3"/><linearGradient id="New_Gradient_Swatch_3-64" x1="23.06" y1="50.71" x2="32.09" y2="84.41" xlink:href="#New_Gradient_Swatch_3"/><linearGradient id="New_Gradient_Swatch_3-65" x1="23.37" y1="50.99" x2="34.3" y2="91.8" xlink:href="#New_Gradient_Swatch_3"/><linearGradient id="New_Gradient_Swatch_3-66" x1="23.27" y1="49.59" x2="32.58" y2="84.32" xlink:href="#New_Gradient_Swatch_3"/><linearGradient id="New_Gradient_Swatch_3-67" x1="39.93" y1="148.91" x2="55.02" y2="205.25" xlink:href="#New_Gradient_Swatch_3"/><linearGradient id="New_Gradient_Swatch_3-68" x1="39.09" y1="147.82" x2="57.18" y2="215.32" xlink:href="#New_Gradient_Swatch_3"/><linearGradient id="New_Gradient_Swatch_3-69" x1="39.14" y1="143.76" x2="55.02" y2="203.01" xlink:href="#New_Gradient_Swatch_3"/><linearGradient id="New_Gradient_Swatch_3-70" x1="24.02" y1="48.14" x2="34.13" y2="85.88" xlink:href="#New_Gradient_Swatch_3"/><linearGradient id="New_Gradient_Swatch_3-71" x1="24.49" y1="47.98" x2="35.83" y2="90.29" xlink:href="#New_Gradient_Swatch_3"/><linearGradient id="New_Gradient_Swatch_3-72" x1="27.19" y1="44.18" x2="39.09" y2="88.6" xlink:href="#New_Gradient_Swatch_3"/><linearGradient id="New_Gradient_Swatch_3-73" x1="27.92" y1="43.28" x2="39.83" y2="87.73" xlink:href="#New_Gradient_Swatch_3"/><linearGradient id="New_Gradient_Swatch_3-74" x1="24.76" y1="46.84" x2="35.15" y2="85.6" xlink:href="#New_Gradient_Swatch_3"/><linearGradient id="New_Gradient_Swatch_3-75" x1="31.39" y1="39.77" x2="43.96" y2="86.68" xlink:href="#New_Gradient_Swatch_3"/><linearGradient id="New_Gradient_Swatch_3-76" x1="32.32" y1="38.83" x2="44.79" y2="85.38" xlink:href="#New_Gradient_Swatch_3"/><linearGradient id="New_Gradient_Swatch_3-77" x1="33.34" y1="38.04" x2="46.55" y2="87.32" xlink:href="#New_Gradient_Swatch_3"/><linearGradient id="New_Gradient_Swatch_3-78" x1="41.09" y1="138.98" x2="55.97" y2="194.52" xlink:href="#New_Gradient_Swatch_3"/><linearGradient id="New_Gradient_Swatch_3-79" x1="44.48" y1="133.21" x2="56.47" y2="177.96" xlink:href="#New_Gradient_Swatch_3"/><linearGradient id="New_Gradient_Swatch_3-80" x1="49.16" y1="128.49" x2="59.9" y2="168.59" xlink:href="#New_Gradient_Swatch_3"/><linearGradient id="New_Gradient_Swatch_3-81" x1="36.26" y1="35.43" x2="50.04" y2="86.85" xlink:href="#New_Gradient_Swatch_3"/><linearGradient id="New_Gradient_Swatch_3-82" x1="52.21" y1="126.2" x2="65.06" y2="174.13" xlink:href="#New_Gradient_Swatch_3"/><linearGradient id="New_Gradient_Swatch_3-83" x1="43.99" y1="29.1" x2="57.37" y2="79.02" xlink:href="#New_Gradient_Swatch_3"/><linearGradient id="New_Gradient_Swatch_3-84" x1="45.46" y1="27.88" x2="59.28" y2="79.46" xlink:href="#New_Gradient_Swatch_3"/><linearGradient id="New_Gradient_Swatch_3-85" x1="38.57" y1="33.42" x2="53.24" y2="88.16" xlink:href="#New_Gradient_Swatch_3"/><linearGradient id="New_Gradient_Swatch_3-86" x1="65.89" y1="113.04" x2="84.74" y2="183.42" xlink:href="#New_Gradient_Swatch_3"/><linearGradient id="New_Gradient_Swatch_3-87" x1="52.85" y1="21.24" x2="69.01" y2="81.57" xlink:href="#New_Gradient_Swatch_3"/><linearGradient id="New_Gradient_Swatch_3-88" x1="53.65" y1="17.35" x2="74.8" y2="96.3" xlink:href="#New_Gradient_Swatch_3"/><linearGradient id="New_Gradient_Swatch_3-89" x1="41.17" y1="31.78" x2="49.11" y2="61.43" xlink:href="#New_Gradient_Swatch_3"/><linearGradient id="New_Gradient_Swatch_3-90" x1="63.98" y1="119.26" x2="72.18" y2="149.88" xlink:href="#New_Gradient_Swatch_3"/><linearGradient id="New_Gradient_Swatch_3-91" x1="71.61" y1="113.6" x2="82.92" y2="155.84" xlink:href="#New_Gradient_Swatch_3"/><linearGradient id="New_Gradient_Swatch_3-92" x1="57.38" y1="12.12" x2="80.35" y2="97.88" xlink:href="#New_Gradient_Swatch_3"/><linearGradient id="New_Gradient_Swatch_3-93" x1="74.49" y1="105.37" x2="93.56" y2="176.51" xlink:href="#New_Gradient_Swatch_3"/><linearGradient id="New_Gradient_Swatch_3-94" x1="66.61" y1="1.52" x2="90.58" y2="90.95" xlink:href="#New_Gradient_Swatch_3"/><linearGradient id="New_Gradient_Swatch_3-95" x1="82.74" y1="90.13" x2="108.03" y2="184.51" xlink:href="#New_Gradient_Swatch_3"/><linearGradient id="New_Gradient_Swatch_3-96" x1="59.57" y1="6.03" x2="86.25" y2="105.58" xlink:href="#New_Gradient_Swatch_3"/><linearGradient id="New_Gradient_Swatch_3-97" x1="61.54" y1="-56.66" x2="121.31" y2="166.4" xlink:href="#New_Gradient_Swatch_3"/><linearGradient id="New_Gradient_Swatch_3-98" x1="72.07" y1="-24.69" x2="107.36" y2="107.02" xlink:href="#New_Gradient_Swatch_3"/><linearGradient id="New_Gradient_Swatch_3-99" x1="58.87" y1="-81.17" x2="129.87" y2="183.79" xlink:href="#New_Gradient_Swatch_3"/><linearGradient id="New_Gradient_Swatch_3-100" x1="81.14" y1="108.52" x2="92.62" y2="151.38" xlink:href="#New_Gradient_Swatch_3"/><linearGradient id="New_Gradient_Swatch_3-101" x1="90.31" y1="101.55" x2="103.75" y2="151.73" xlink:href="#New_Gradient_Swatch_3"/><linearGradient id="New_Gradient_Swatch_3-102" x1="97.72" y1="92.43" x2="114.23" y2="154.04" xlink:href="#New_Gradient_Swatch_3"/><linearGradient id="New_Gradient_Swatch_3-103" x1="76.39" y1="-35.49" x2="113.33" y2="102.38" xlink:href="#New_Gradient_Swatch_3"/><linearGradient id="New_Gradient_Swatch_3-104" x1="84.15" y1="-13.63" x2="107.37" y2="73.02" xlink:href="#New_Gradient_Swatch_3"/><linearGradient id="New_Gradient_Swatch_3-105" x1="96.47" y1="-3.55" x2="111.67" y2="53.17" xlink:href="#New_Gradient_Swatch_3"/><linearGradient id="New_Gradient_Swatch_3-106" x1="98.78" y1="-2.07" x2="112.94" y2="50.78" xlink:href="#New_Gradient_Swatch_3"/><linearGradient id="New_Gradient_Swatch_3-107" x1="82.54" y1="-26.62" x2="112.21" y2="84.1" xlink:href="#New_Gradient_Swatch_3"/><linearGradient id="New_Gradient_Swatch_3-108" x1="108.09" y1="6.31" x2="117.78" y2="42.45" xlink:href="#New_Gradient_Swatch_3"/><linearGradient id="New_Gradient_Swatch_3-109" x1="109.67" y1="6.29" x2="119.28" y2="42.12" xlink:href="#New_Gradient_Swatch_3"/><linearGradient id="New_Gradient_Swatch_3-110" x1="112.52" y1="11.23" x2="120.07" y2="39.39" xlink:href="#New_Gradient_Swatch_3"/><linearGradient id="New_Gradient_Swatch_3-111" x1="108.89" y1="93.91" x2="121.97" y2="142.74" xlink:href="#New_Gradient_Swatch_3"/><linearGradient id="New_Gradient_Swatch_3-112" x1="118.36" y1="93.09" x2="130.47" y2="138.29" xlink:href="#New_Gradient_Swatch_3"/><linearGradient id="New_Gradient_Swatch_3-113" x1="126.92" y1="95.38" x2="137.46" y2="134.7" xlink:href="#New_Gradient_Swatch_3"/><linearGradient id="New_Gradient_Swatch_3-114" x1="117.84" y1="16.12" x2="123.5" y2="37.23" xlink:href="#New_Gradient_Swatch_3"/><linearGradient id="New_Gradient_Swatch_3-115" x1="133.39" y1="105.38" x2="140.04" y2="130.22" xlink:href="#New_Gradient_Swatch_3"/><linearGradient id="New_Gradient_Swatch_3-116" x1="127.12" y1="21.49" x2="131.31" y2="37.12" xlink:href="#New_Gradient_Swatch_3"/><linearGradient id="New_Gradient_Swatch_3-117" x1="128.15" y1="20.96" x2="132.64" y2="37.7" xlink:href="#New_Gradient_Swatch_3"/><linearGradient id="New_Gradient_Swatch_3-118" x1="121.87" y1="21.02" x2="125.82" y2="35.77" xlink:href="#New_Gradient_Swatch_3"/><linearGradient id="New_Gradient_Swatch_3-119" x1="147.67" y1="115.58" x2="151.74" y2="130.75" xlink:href="#New_Gradient_Swatch_3"/><linearGradient id="New_Gradient_Swatch_3-120" x1="131.98" y1="17.7" x2="138.11" y2="40.57" xlink:href="#New_Gradient_Swatch_3"/><linearGradient id="New_Gradient_Swatch_3-121" x1="134.23" y1="23.43" x2="138.67" y2="39.99" xlink:href="#New_Gradient_Swatch_3"/><linearGradient id="New_Gradient_Swatch_3-122" x1="119.76" y1="3.56" x2="130.08" y2="42.09" xlink:href="#New_Gradient_Swatch_3"/><linearGradient id="New_Gradient_Swatch_3-123" x1="140.05" y1="93.68" x2="151.08" y2="134.83" xlink:href="#New_Gradient_Swatch_3"/><linearGradient id="New_Gradient_Swatch_3-124" x1="144.31" y1="94.92" x2="155.25" y2="135.74" xlink:href="#New_Gradient_Swatch_3"/><linearGradient id="New_Gradient_Swatch_3-125" x1="135.21" y1="20.84" x2="140.83" y2="41.8" xlink:href="#New_Gradient_Swatch_3"/><linearGradient id="New_Gradient_Swatch_3-126" x1="149.01" y1="106.9" x2="156.52" y2="134.95" xlink:href="#New_Gradient_Swatch_3"/><linearGradient id="New_Gradient_Swatch_3-127" x1="135" y1="12.34" x2="144.07" y2="46.17" xlink:href="#New_Gradient_Swatch_3"/><linearGradient id="New_Gradient_Swatch_3-128" x1="149.83" y1="103.7" x2="159.2" y2="138.66" xlink:href="#New_Gradient_Swatch_3"/><linearGradient id="New_Gradient_Swatch_3-129" x1="136.09" y1="20.67" x2="142.04" y2="42.87" xlink:href="#New_Gradient_Swatch_3"/><linearGradient id="New_Gradient_Swatch_3-130" x1="135.65" y1="15.43" x2="144.68" y2="49.12" xlink:href="#New_Gradient_Swatch_3"/><linearGradient id="New_Gradient_Swatch_3-131" x1="133.85" y1="9.6" x2="144.78" y2="50.36" xlink:href="#New_Gradient_Swatch_3"/><linearGradient id="New_Gradient_Swatch_3-132" x1="135.21" y1="15.73" x2="144.52" y2="50.46" xlink:href="#New_Gradient_Swatch_3"/><linearGradient id="New_Gradient_Swatch_3-133" x1="143.69" y1="83.05" x2="158.79" y2="139.4" xlink:href="#New_Gradient_Swatch_3"/><linearGradient id="New_Gradient_Swatch_3-134" x1="142.17" y1="75.37" x2="160.26" y2="142.87" xlink:href="#New_Gradient_Swatch_3"/><linearGradient id="New_Gradient_Swatch_3-135" x1="92.98" y1="120.36" x2="105.1" y2="165.57" xlink:href="#New_Gradient_Swatch_3"/><linearGradient id="New_Gradient_Swatch_3-136" x1="92.98" y1="120.34" x2="105.1" y2="165.59" xlink:href="#New_Gradient_Swatch_3"/><linearGradient id="New_Gradient_Swatch_3-137" x1="-178.27" y1="530.72" x2="-178.27" y2="489.74" gradientTransform="translate(475.71 -251.11) rotate(25.29)" xlink:href="#New_Gradient_Swatch_3"/><radialGradient id="radial-gradient-2" cx="33.79" cy="-1222.38" r="90.39" gradientTransform="translate(57.48 347.83) scale(0.81 0.25)" gradientUnits="userSpaceOnUse"><stop offset="0.76"/><stop offset="0.79" stop-opacity="0.77"/><stop offset="1" stop-opacity="0"/></radialGradient><linearGradient id="New_Gradient_Swatch_3-140" x1="-34.37" y1="121.25" x2="118.16" y2="121.25" xlink:href="#New_Gradient_Swatch_3"/><linearGradient id="New_Gradient_Swatch_7-2" x1="23.15" y1="114.3" x2="163.41" y2="114.3" gradientTransform="translate(1.01 -0.81) rotate(0.5)" xlink:href="#New_Gradient_Swatch_7"/><linearGradient id="New_Gradient_Swatch_3-141" x1="139.4" y1="62.08" x2="155.27" y2="121.32" xlink:href="#New_Gradient_Swatch_3"/><linearGradient id="New_Gradient_Swatch_3-142" x1="129.38" y1="-8.98" x2="139.48" y2="28.71" xlink:href="#New_Gradient_Swatch_3"/><linearGradient id="New_Gradient_Swatch_3-143" x1="127.93" y1="-12.46" x2="139.27" y2="29.85" xlink:href="#New_Gradient_Swatch_3"/><linearGradient id="New_Gradient_Swatch_3-144" x1="124.78" y1="-10.37" x2="136.69" y2="34.11" xlink:href="#New_Gradient_Swatch_3"/><linearGradient id="New_Gradient_Swatch_3-145" x1="124.07" y1="-9.4" x2="135.96" y2="35" xlink:href="#New_Gradient_Swatch_3"/><linearGradient id="New_Gradient_Swatch_3-146" x1="128.41" y1="-8.53" x2="138.8" y2="30.23" xlink:href="#New_Gradient_Swatch_3"/><linearGradient id="New_Gradient_Swatch_3-147" x1="120.07" y1="-7.86" x2="132.63" y2="39.04" xlink:href="#New_Gradient_Swatch_3"/><linearGradient id="New_Gradient_Swatch_3-148" x1="119.21" y1="-6.64" x2="131.69" y2="39.9" xlink:href="#New_Gradient_Swatch_3"/><linearGradient id="New_Gradient_Swatch_3-149" x1="117.6" y1="-8.05" x2="130.82" y2="41.29" xlink:href="#New_Gradient_Swatch_3"/><linearGradient id="New_Gradient_Swatch_3-150" x1="138.22" y1="69.74" x2="153.12" y2="125.32" xlink:href="#New_Gradient_Swatch_3"/><linearGradient id="New_Gradient_Swatch_3-151" x1="137.13" y1="84.06" x2="149.11" y2="128.78" xlink:href="#New_Gradient_Swatch_3"/><linearGradient id="New_Gradient_Swatch_3-152" x1="133.42" y1="92.41" x2="144.16" y2="132.51" xlink:href="#New_Gradient_Swatch_3"/><linearGradient id="New_Gradient_Swatch_3-153" x1="114.26" y1="-7.02" x2="128.02" y2="44.33" xlink:href="#New_Gradient_Swatch_3"/><linearGradient id="New_Gradient_Swatch_3-154" x1="128.71" y1="88.54" x2="141.55" y2="136.47" xlink:href="#New_Gradient_Swatch_3"/><linearGradient id="New_Gradient_Swatch_3-155" x1="106.83" y1="0.44" x2="120.21" y2="50.36" xlink:href="#New_Gradient_Swatch_3"/><linearGradient id="New_Gradient_Swatch_3-156" x1="105.01" y1="0.35" x2="118.83" y2="51.93" xlink:href="#New_Gradient_Swatch_3"/><linearGradient id="New_Gradient_Swatch_3-157" x1="111.25" y1="-7.62" x2="125.9" y2="47.06" xlink:href="#New_Gradient_Swatch_3"/><linearGradient id="New_Gradient_Swatch_3-158" x1="110.32" y1="84.11" x2="129.16" y2="154.39" xlink:href="#New_Gradient_Swatch_3"/><linearGradient id="New_Gradient_Swatch_3-159" x1="95.77" y1="0.06" x2="111.95" y2="60.46" xlink:href="#New_Gradient_Swatch_3"/><linearGradient id="New_Gradient_Swatch_3-160" x1="91.05" y1="-10.64" x2="112.21" y2="68.31" xlink:href="#New_Gradient_Swatch_3"/><linearGradient id="New_Gradient_Swatch_3-161" x1="113.93" y1="13.72" x2="121.87" y2="43.34" xlink:href="#New_Gradient_Swatch_3"/><linearGradient id="New_Gradient_Swatch_3-162" x1="120.59" y1="109.07" x2="128.8" y2="139.73" xlink:href="#New_Gradient_Swatch_3"/><linearGradient id="New_Gradient_Swatch_3-163" x1="110.52" y1="105.62" x2="121.84" y2="147.86" xlink:href="#New_Gradient_Swatch_3"/><linearGradient id="New_Gradient_Swatch_3-164" x1="85.89" y1="-10.77" x2="108.87" y2="74.99" xlink:href="#New_Gradient_Swatch_3"/><linearGradient id="New_Gradient_Swatch_3-165" x1="101.54" y1="91.12" x2="120.6" y2="162.26" xlink:href="#New_Gradient_Swatch_3"/><linearGradient id="New_Gradient_Swatch_3-166" x1="75.88" y1="-3.05" x2="99.84" y2="86.38" xlink:href="#New_Gradient_Swatch_3"/><linearGradient id="New_Gradient_Swatch_3-167" x1="88.38" y1="88.03" x2="113.7" y2="182.52" xlink:href="#New_Gradient_Swatch_3"/><linearGradient id="New_Gradient_Swatch_3-168" x1="80.79" y1="-15.53" x2="107.46" y2="84.03" xlink:href="#New_Gradient_Swatch_3"/><linearGradient id="New_Gradient_Swatch_3-169" x1="52.81" y1="-49.92" x2="112.55" y2="173.04" xlink:href="#New_Gradient_Swatch_3"/><linearGradient id="New_Gradient_Swatch_3-170" x1="61.52" y1="-10.08" x2="96.8" y2="121.59" xlink:href="#New_Gradient_Swatch_3"/><linearGradient id="New_Gradient_Swatch_3-171" x1="46.31" y1="-59.62" x2="118.16" y2="208.51" xlink:href="#New_Gradient_Swatch_3"/><linearGradient id="New_Gradient_Swatch_3-172" x1="100.86" y1="110.23" x2="112.34" y2="153.05" xlink:href="#New_Gradient_Swatch_3"/><linearGradient id="New_Gradient_Swatch_3-173" x1="90.14" y1="111.42" x2="103.59" y2="161.6" xlink:href="#New_Gradient_Swatch_3"/><linearGradient id="New_Gradient_Swatch_3-174" x1="80.32" y1="111.57" x2="96.82" y2="173.13" xlink:href="#New_Gradient_Swatch_3"/><linearGradient id="New_Gradient_Swatch_3-175" x1="55.9" y1="-4.15" x2="92.85" y2="133.76" xlink:href="#New_Gradient_Swatch_3"/><linearGradient id="New_Gradient_Swatch_3-176" x1="58.92" y1="14.25" x2="82.17" y2="101" xlink:href="#New_Gradient_Swatch_3"/><linearGradient id="New_Gradient_Swatch_3-177" x1="52.91" y1="27.72" x2="68.14" y2="84.54" xlink:href="#New_Gradient_Swatch_3"/><linearGradient id="New_Gradient_Swatch_3-178" x1="51.43" y1="29.32" x2="65.57" y2="82.08" xlink:href="#New_Gradient_Swatch_3"/><linearGradient id="New_Gradient_Swatch_3-179" x1="55.45" y1="8.29" x2="85.17" y2="119.19" xlink:href="#New_Gradient_Swatch_3"/><linearGradient id="New_Gradient_Swatch_3-180" x1="45.63" y1="34.06" x2="55.32" y2="70.21" xlink:href="#New_Gradient_Swatch_3"/><linearGradient id="New_Gradient_Swatch_3-181" x1="44.11" y1="34.33" x2="53.72" y2="70.16" xlink:href="#New_Gradient_Swatch_3"/><linearGradient id="New_Gradient_Swatch_3-182" x1="42.89" y1="35.42" x2="50.43" y2="63.58" xlink:href="#New_Gradient_Swatch_3"/><linearGradient id="New_Gradient_Swatch_3-183" x1="71.85" y1="120.13" x2="84.93" y2="168.92" xlink:href="#New_Gradient_Swatch_3"/><linearGradient id="New_Gradient_Swatch_3-184" x1="63.14" y1="123.8" x2="75.25" y2="169" xlink:href="#New_Gradient_Swatch_3"/><linearGradient id="New_Gradient_Swatch_3-185" x1="55.82" y1="126.13" x2="66.37" y2="165.49" xlink:href="#New_Gradient_Swatch_3"/><linearGradient id="New_Gradient_Swatch_3-186" x1="39.05" y1="36.07" x2="44.71" y2="57.18" xlink:href="#New_Gradient_Swatch_3"/><linearGradient id="New_Gradient_Swatch_3-187" x1="52.4" y1="127.52" x2="59.07" y2="152.41" xlink:href="#New_Gradient_Swatch_3"/><linearGradient id="New_Gradient_Swatch_3-188" x1="30.93" y1="35.01" x2="35.1" y2="50.58" xlink:href="#New_Gradient_Swatch_3"/><linearGradient id="New_Gradient_Swatch_3-189" x1="29.66" y1="34.67" x2="34.13" y2="51.36" xlink:href="#New_Gradient_Swatch_3"/><linearGradient id="New_Gradient_Swatch_3-190" x1="36.37" y1="36.18" x2="40.32" y2="50.93" xlink:href="#New_Gradient_Swatch_3"/><linearGradient id="New_Gradient_Swatch_3-191" x1="40.15" y1="124.92" x2="44.22" y2="140.09" xlink:href="#New_Gradient_Swatch_3"/><linearGradient id="New_Gradient_Swatch_3-192" x1="24.54" y1="33.1" x2="30.65" y2="55.93" xlink:href="#New_Gradient_Swatch_3"/><linearGradient id="New_Gradient_Swatch_3-193" x1="23.62" y1="32.34" x2="28.04" y2="48.84" xlink:href="#New_Gradient_Swatch_3"/><linearGradient id="New_Gradient_Swatch_3-194" x1="33.46" y1="34.93" x2="43.78" y2="73.46" xlink:href="#New_Gradient_Swatch_3"/><linearGradient id="New_Gradient_Swatch_3-195" x1="42.3" y1="126.39" x2="53.33" y2="167.55" xlink:href="#New_Gradient_Swatch_3"/><linearGradient id="New_Gradient_Swatch_3-196" x1="38.11" y1="125.41" x2="49.03" y2="166.19" xlink:href="#New_Gradient_Swatch_3"/><linearGradient id="New_Gradient_Swatch_3-197" x1="21.71" y1="31.47" x2="27.33" y2="52.45" xlink:href="#New_Gradient_Swatch_3"/><linearGradient id="New_Gradient_Swatch_3-198" x1="36.11" y1="123.48" x2="43.64" y2="151.59" xlink:href="#New_Gradient_Swatch_3"/><linearGradient id="New_Gradient_Swatch_3-199" x1="19.21" y1="29.85" x2="28.27" y2="63.68" xlink:href="#New_Gradient_Swatch_3"/><linearGradient id="New_Gradient_Swatch_3-200" x1="33.83" y1="121.25" x2="43.21" y2="156.26" xlink:href="#New_Gradient_Swatch_3"/><linearGradient id="New_Gradient_Swatch_3-201" x1="20.57" y1="30.67" x2="26.52" y2="52.87" xlink:href="#New_Gradient_Swatch_3"/><linearGradient id="New_Gradient_Swatch_3-202" x1="18.59" y1="26.87" x2="27.62" y2="60.57" xlink:href="#New_Gradient_Swatch_3"/><linearGradient id="New_Gradient_Swatch_3-203" x1="18.9" y1="27.15" x2="29.84" y2="67.96" xlink:href="#New_Gradient_Swatch_3"/><linearGradient id="New_Gradient_Swatch_3-204" x1="18.81" y1="25.75" x2="28.11" y2="60.48" xlink:href="#New_Gradient_Swatch_3"/><linearGradient id="New_Gradient_Swatch_3-205" x1="35.46" y1="125.07" x2="50.56" y2="181.41" xlink:href="#New_Gradient_Swatch_3"/><linearGradient id="New_Gradient_Swatch_3-206" x1="34.63" y1="123.98" x2="52.71" y2="191.48" xlink:href="#New_Gradient_Swatch_3"/><linearGradient id="New_Gradient_Swatch_3-207" x1="34.68" y1="119.93" x2="50.55" y2="179.17" xlink:href="#New_Gradient_Swatch_3"/><linearGradient id="New_Gradient_Swatch_3-208" x1="19.55" y1="24.3" x2="29.66" y2="62.04" xlink:href="#New_Gradient_Swatch_3"/><linearGradient id="New_Gradient_Swatch_3-209" x1="20.03" y1="24.14" x2="31.36" y2="66.45" xlink:href="#New_Gradient_Swatch_3"/><linearGradient id="New_Gradient_Swatch_3-210" x1="22.72" y1="20.34" x2="34.62" y2="64.76" xlink:href="#New_Gradient_Swatch_3"/><linearGradient id="New_Gradient_Swatch_3-211" x1="23.45" y1="19.44" x2="35.36" y2="63.89" xlink:href="#New_Gradient_Swatch_3"/><linearGradient id="New_Gradient_Swatch_3-212" x1="20.29" y1="23" x2="30.68" y2="61.76" xlink:href="#New_Gradient_Swatch_3"/><linearGradient id="New_Gradient_Swatch_3-213" x1="26.92" y1="15.93" x2="39.49" y2="62.84" xlink:href="#New_Gradient_Swatch_3"/><linearGradient id="New_Gradient_Swatch_3-214" x1="27.85" y1="14.99" x2="40.32" y2="61.54" xlink:href="#New_Gradient_Swatch_3"/><linearGradient id="New_Gradient_Swatch_3-215" x1="28.88" y1="14.2" x2="42.08" y2="63.48" xlink:href="#New_Gradient_Swatch_3"/><linearGradient id="New_Gradient_Swatch_3-216" x1="36.62" y1="115.14" x2="51.5" y2="170.68" xlink:href="#New_Gradient_Swatch_3"/><linearGradient id="New_Gradient_Swatch_3-217" x1="40.01" y1="109.37" x2="52" y2="154.12" xlink:href="#New_Gradient_Swatch_3"/><linearGradient id="New_Gradient_Swatch_3-218" x1="44.69" y1="104.65" x2="55.44" y2="144.75" xlink:href="#New_Gradient_Swatch_3"/><linearGradient id="New_Gradient_Swatch_3-219" x1="31.79" y1="11.59" x2="45.57" y2="63.01" xlink:href="#New_Gradient_Swatch_3"/><linearGradient id="New_Gradient_Swatch_3-220" x1="47.75" y1="102.36" x2="60.59" y2="150.29" xlink:href="#New_Gradient_Swatch_3"/><linearGradient id="New_Gradient_Swatch_3-221" x1="39.52" y1="5.26" x2="52.9" y2="55.18" xlink:href="#New_Gradient_Swatch_3"/><linearGradient id="New_Gradient_Swatch_3-222" x1="40.99" y1="4.04" x2="54.81" y2="55.62" xlink:href="#New_Gradient_Swatch_3"/><linearGradient id="New_Gradient_Swatch_3-223" x1="34.1" y1="9.58" x2="48.77" y2="64.32" xlink:href="#New_Gradient_Swatch_3"/><linearGradient id="New_Gradient_Swatch_3-224" x1="61.42" y1="89.2" x2="80.28" y2="159.58" xlink:href="#New_Gradient_Swatch_3"/><linearGradient id="New_Gradient_Swatch_3-225" x1="48.38" y1="-2.6" x2="64.54" y2="57.73" xlink:href="#New_Gradient_Swatch_3"/><linearGradient id="New_Gradient_Swatch_3-226" x1="49.18" y1="-6.49" x2="70.34" y2="72.46" xlink:href="#New_Gradient_Swatch_3"/><linearGradient id="New_Gradient_Swatch_3-227" x1="36.7" y1="7.94" x2="44.64" y2="37.59" xlink:href="#New_Gradient_Swatch_3"/><linearGradient id="New_Gradient_Swatch_3-228" x1="59.51" y1="95.42" x2="67.72" y2="126.04" xlink:href="#New_Gradient_Swatch_3"/><linearGradient id="New_Gradient_Swatch_3-229" x1="67.14" y1="89.76" x2="78.46" y2="132" xlink:href="#New_Gradient_Swatch_3"/><linearGradient id="New_Gradient_Swatch_3-230" x1="52.91" y1="-11.71" x2="75.89" y2="74.04" xlink:href="#New_Gradient_Swatch_3"/><linearGradient id="New_Gradient_Swatch_3-231" x1="70.03" y1="81.53" x2="89.09" y2="152.67" xlink:href="#New_Gradient_Swatch_3"/><linearGradient id="New_Gradient_Swatch_3-232" x1="62.15" y1="-22.32" x2="86.11" y2="67.11" xlink:href="#New_Gradient_Swatch_3"/><linearGradient id="New_Gradient_Swatch_3-233" x1="78.28" y1="66.29" x2="103.57" y2="160.67" xlink:href="#New_Gradient_Swatch_3"/><linearGradient id="New_Gradient_Swatch_3-234" x1="55.11" y1="-17.81" x2="81.78" y2="81.74" xlink:href="#New_Gradient_Swatch_3"/><linearGradient id="New_Gradient_Swatch_3-235" x1="57.07" y1="-80.5" x2="116.84" y2="142.56" xlink:href="#New_Gradient_Swatch_3"/><linearGradient id="New_Gradient_Swatch_3-236" x1="67.6" y1="-48.53" x2="102.89" y2="83.18" xlink:href="#New_Gradient_Swatch_3"/><linearGradient id="New_Gradient_Swatch_3-237" x1="54.4" y1="-105" x2="125.4" y2="159.95" xlink:href="#New_Gradient_Swatch_3"/><linearGradient id="New_Gradient_Swatch_3-238" x1="76.67" y1="84.68" x2="88.15" y2="127.54" xlink:href="#New_Gradient_Swatch_3"/><linearGradient id="New_Gradient_Swatch_3-239" x1="85.84" y1="77.71" x2="99.29" y2="127.89" xlink:href="#New_Gradient_Swatch_3"/><linearGradient id="New_Gradient_Swatch_3-240" x1="93.26" y1="68.59" x2="109.77" y2="130.2" xlink:href="#New_Gradient_Swatch_3"/><linearGradient id="New_Gradient_Swatch_3-241" x1="71.92" y1="-59.33" x2="108.86" y2="78.54" xlink:href="#New_Gradient_Swatch_3"/><linearGradient id="New_Gradient_Swatch_3-242" x1="79.69" y1="-37.47" x2="102.9" y2="49.18" xlink:href="#New_Gradient_Swatch_3"/><linearGradient id="New_Gradient_Swatch_3-243" x1="92" y1="-27.39" x2="107.2" y2="29.33" xlink:href="#New_Gradient_Swatch_3"/><linearGradient id="New_Gradient_Swatch_3-244" x1="94.31" y1="-25.91" x2="108.47" y2="26.94" xlink:href="#New_Gradient_Swatch_3"/><linearGradient id="New_Gradient_Swatch_3-245" x1="78.08" y1="-50.46" x2="107.74" y2="60.26" xlink:href="#New_Gradient_Swatch_3"/><linearGradient id="New_Gradient_Swatch_3-246" x1="103.63" y1="-17.53" x2="113.31" y2="18.61" xlink:href="#New_Gradient_Swatch_3"/><linearGradient id="New_Gradient_Swatch_3-247" x1="105.21" y1="-17.55" x2="114.81" y2="18.28" xlink:href="#New_Gradient_Swatch_3"/><linearGradient id="New_Gradient_Swatch_3-248" x1="108.05" y1="-12.61" x2="115.6" y2="15.55" xlink:href="#New_Gradient_Swatch_3"/><linearGradient id="New_Gradient_Swatch_3-249" x1="104.42" y1="70.07" x2="117.5" y2="118.9" xlink:href="#New_Gradient_Swatch_3"/><linearGradient id="New_Gradient_Swatch_3-250" x1="113.89" y1="69.25" x2="126" y2="114.45" xlink:href="#New_Gradient_Swatch_3"/><linearGradient id="New_Gradient_Swatch_3-251" x1="122.45" y1="71.54" x2="132.99" y2="110.86" xlink:href="#New_Gradient_Swatch_3"/><linearGradient id="New_Gradient_Swatch_3-252" x1="113.37" y1="-7.72" x2="119.03" y2="13.39" xlink:href="#New_Gradient_Swatch_3"/><linearGradient id="New_Gradient_Swatch_3-253" x1="128.92" y1="81.54" x2="135.58" y2="106.38" xlink:href="#New_Gradient_Swatch_3"/><linearGradient id="New_Gradient_Swatch_3-254" x1="122.65" y1="-2.35" x2="126.84" y2="13.29" xlink:href="#New_Gradient_Swatch_3"/><linearGradient id="New_Gradient_Swatch_3-255" x1="123.68" y1="-2.88" x2="128.17" y2="13.87" xlink:href="#New_Gradient_Swatch_3"/><linearGradient id="New_Gradient_Swatch_3-256" x1="117.4" y1="-2.82" x2="121.35" y2="11.93" xlink:href="#New_Gradient_Swatch_3"/><linearGradient id="New_Gradient_Swatch_3-257" x1="143.21" y1="91.74" x2="147.27" y2="106.92" xlink:href="#New_Gradient_Swatch_3"/><linearGradient id="New_Gradient_Swatch_3-258" x1="127.51" y1="-6.14" x2="133.64" y2="16.74" xlink:href="#New_Gradient_Swatch_3"/><linearGradient id="New_Gradient_Swatch_3-259" x1="129.76" y1="-0.41" x2="134.2" y2="16.15" xlink:href="#New_Gradient_Swatch_3"/><linearGradient id="New_Gradient_Swatch_3-260" x1="115.29" y1="-20.28" x2="125.62" y2="18.25" xlink:href="#New_Gradient_Swatch_3"/><linearGradient id="New_Gradient_Swatch_3-261" x1="135.59" y1="69.84" x2="146.62" y2="110.99" xlink:href="#New_Gradient_Swatch_3"/><linearGradient id="New_Gradient_Swatch_3-262" x1="139.85" y1="71.08" x2="150.79" y2="111.9" xlink:href="#New_Gradient_Swatch_3"/><linearGradient id="New_Gradient_Swatch_3-263" x1="130.75" y1="-3" x2="136.36" y2="17.96" xlink:href="#New_Gradient_Swatch_3"/><linearGradient id="New_Gradient_Swatch_3-264" x1="144.54" y1="83.06" x2="152.06" y2="111.11" xlink:href="#New_Gradient_Swatch_3"/><linearGradient id="New_Gradient_Swatch_3-265" x1="130.54" y1="-11.5" x2="139.6" y2="22.33" xlink:href="#New_Gradient_Swatch_3"/><linearGradient id="New_Gradient_Swatch_3-266" x1="145.36" y1="79.86" x2="154.73" y2="114.82" xlink:href="#New_Gradient_Swatch_3"/><linearGradient id="New_Gradient_Swatch_3-267" x1="131.62" y1="-3.17" x2="137.57" y2="19.03" xlink:href="#New_Gradient_Swatch_3"/><linearGradient id="New_Gradient_Swatch_3-268" x1="131.18" y1="-8.41" x2="140.21" y2="25.28" xlink:href="#New_Gradient_Swatch_3"/><linearGradient id="New_Gradient_Swatch_3-269" x1="129.39" y1="-14.24" x2="140.31" y2="26.52" xlink:href="#New_Gradient_Swatch_3"/><linearGradient id="New_Gradient_Swatch_3-270" x1="130.75" y1="-8.11" x2="140.05" y2="26.62" xlink:href="#New_Gradient_Swatch_3"/><linearGradient id="New_Gradient_Swatch_3-271" x1="139.23" y1="59.21" x2="154.32" y2="115.56" xlink:href="#New_Gradient_Swatch_3"/><linearGradient id="New_Gradient_Swatch_3-272" x1="137.71" y1="51.53" x2="155.79" y2="119.03" xlink:href="#New_Gradient_Swatch_3"/><linearGradient id="New_Gradient_Swatch_3-273" x1="88.52" y1="96.52" x2="100.63" y2="141.73" xlink:href="#New_Gradient_Swatch_3"/><linearGradient id="New_Gradient_Swatch_3-274" x1="88.51" y1="96.5" x2="100.64" y2="141.76" xlink:href="#New_Gradient_Swatch_3"/><linearGradient id="New_Gradient_Swatch_3-275" x1="54.5" y1="113.99" x2="125.73" y2="113.99" xlink:href="#New_Gradient_Swatch_3"/><linearGradient id="New_Gradient_Swatch_3-276" x1="89.99" y1="108.64" x2="129.78" y2="108.64" xlink:href="#New_Gradient_Swatch_3"/></defs><g class="cls-1"><g id="Layer_1" data-name="Layer 1"><rect class="cls-2" x="5.14" y="39.7" width="153" height="62.83" rx="10"/><ellipse class="cls-3" cx="83.22" cy="73.55" rx="83.22" ry="24.74"/><path class="cls-4" d="M167.88,137.62a.43.43,0,0,0,0,0c.17-11.61-27.55-21.27-64.26-22C65,115,31.1,124.42,27.86,136.81a7.87,7.87,0,0,0-.24,2l.12,13.91C27.79,158.61,35.1,164,47.13,168c1.75.57,3.6,1.12,5.54,1.62,1.52.41,3.1.78,4.73,1.14,1.42.31,2.88.6,4.38.88s2.77.5,4.2.72,2.7.4,4.09.58,2.65.33,4,.48,2.68.27,4,.39,2.73.22,4.12.31,2.77.17,4.18.23,2.85.11,4.3.15l1.28,0c1,0,2.1,0,3.15,0,1.51,0,3,0,4.51,0s3.15-.07,4.7-.13c1.76-.06,3.49-.14,5.21-.26,2.33-.14,4.63-.32,6.88-.54a158.62,158.62,0,0,0,25.37-4.36c2.4-.64,4.68-1.33,6.82-2.06q2.32-.79,4.41-1.67c1.17-.49,2.27-1,3.31-1.49s1.8-.92,2.62-1.4,1.48-.89,2.15-1.34,1.24-.87,1.8-1.32,1-.87,1.48-1.31a16.35,16.35,0,0,0,1.22-1.31,11.77,11.77,0,0,0,1-1.36,11.1,11.1,0,0,0,.74-1.4,10.78,10.78,0,0,0,.4-1.17c0-.11.05-.2.07-.3a6.9,6.9,0,0,0,.18-1.55v-.12Zm-.18,1.55c0,.09,0,0,0-.11C167.71,139.09,167.71,139.13,167.7,139.17Z" transform="translate(-14.84 -91.82)"/><ellipse class="cls-5" cx="97.75" cy="138.14" rx="70.13" ry="22.47" transform="matrix(1, -0.01, 0.01, 1, -16.05, -90.96)"/><path class="cls-6" d="M160.46,139.33l-3.87-.07a10.65,10.65,0,0,1-.42,1.15l3.85.15a12.09,12.09,0,0,0,.44-1.23" transform="translate(-14.84 -91.82)"/><polyline class="cls-7" points="141.16 48.95 141.07 49.11 144.9 49.29 144.99 49.12 141.16 48.95"/><polyline class="cls-8" points="140.9 49.44 140.64 49.82 144.44 50.05 144.71 49.64 140.9 49.44"/><polyline class="cls-9" points="138.21 52.52 137.78 52.88 141.39 53.32 141.84 52.93 138.21 52.52"/><polyline class="cls-10" points="137.45 53.14 136.98 53.5 140.53 53.97 141.04 53.59 137.45 53.14"/><polyline class="cls-11" points="140.42 50.16 140.33 50.29 144.11 50.55 144.2 50.41 140.42 50.16"/><polyline class="cls-12" points="133.71 55.57 133.44 55.71 136.75 56.33 137.05 56.18 133.71 55.57"/><polyline class="cls-13" points="132.89 56 132.24 56.33 135.49 56.99 136.17 56.64 132.89 56"/><polyline class="cls-14" points="131.62 56.62 131.39 56.73 134.59 57.42 134.83 57.3 131.62 56.62"/><path class="cls-15" d="M154.9,142.45a15.37,15.37,0,0,1-1.48,1.58l3.65.38a15.34,15.34,0,0,0,1.58-1.68l-3.75-.28" transform="translate(-14.84 -91.82)"/><path class="cls-16" d="M151.38,145.64l-1.12.75c-.38.25-.82.48-1.23.72l3.37.6c.44-.26.91-.52,1.31-.78l1.2-.79-3.53-.5" transform="translate(-14.84 -91.82)"/><path class="cls-17" d="M146.24,148.55c-.67.33-1.42.63-2.15.95l3,.75c.78-.34,1.57-.66,2.29-1l-3.19-.69" transform="translate(-14.84 -91.82)"/><polyline class="cls-18" points="128.54 57.97 128.21 58.09 131.19 58.87 131.54 58.73 128.54 57.97"/><path class="cls-19" d="M142.38,150.17l-.79.3,2.88.81c.3-.1.57-.21.84-.32l-2.93-.79" transform="translate(-14.84 -91.82)"/><polyline class="cls-20" points="120.43 60.63 119.49 60.88 121.9 61.83 122.9 61.57 120.43 60.63"/><polyline class="cls-21" points="118.82 61.05 117.85 61.29 120.15 62.27 121.19 62.02 118.82 61.05"/><polyline class="cls-22" points="126 58.91 125.72 59.01 128.54 59.84 128.83 59.74 126 58.91"/><path class="cls-23" d="M126.67,154.41l-.46.08,1.88,1.07.49-.08-1.91-1.07" transform="translate(-14.84 -91.82)"/><polyline class="cls-24" points="110.46 62.83 109.39 63.02 111.14 64.12 112.28 63.92 110.46 62.83"/><polyline class="cls-25" points="108.41 63.18 108.05 63.24 109.7 64.35 110.09 64.29 108.41 63.18"/><polyline class="cls-26" points="124.97 59.26 123.14 59.85 121.23 60.41 123.75 61.34 125.79 60.74 127.73 60.12 124.97 59.26"/><path class="cls-27" d="M131.81,153.32c-1.4.32-2.82.64-4.3.92l2,1.06c1.58-.3,3.09-.64,4.58-1l-2.24-1" transform="translate(-14.84 -91.82)"/><path class="cls-28" d="M122.89,155.06l-1.64.25-1.68.24,1.44,1.14,1.78-.25c.6-.08,1.17-.18,1.75-.27l-1.65-1.11" transform="translate(-14.84 -91.82)"/><polyline class="cls-29" points="103.69 63.87 103.21 63.93 104.54 65.08 105.06 65.02 103.69 63.87"/><path class="cls-30" d="M117.07,155.86l-1.14.14,1.2,1.17,1.22-.14-1.28-1.17" transform="translate(-14.84 -91.82)"/><polyline class="cls-31" points="92.62 64.91 91.43 64.97 91.99 66.2 93.26 66.13 92.62 64.91"/><path class="cls-32" d="M105.42,156.84l-1.2,0,.42,1.24,1.28-.06-.5-1.23" transform="translate(-14.84 -91.82)"/><polyline class="cls-33" points="100.05 64.29 99.66 64.33 100.76 65.51 101.18 65.47 100.05 64.29"/><polyline class="cls-34" points="82.22 65.24 81.7 65.24 81.61 66.48 82.16 66.48 82.22 65.24"/><polyline class="cls-35" points="80.67 65.24 79.46 65.23 79.23 66.47 80.51 66.49 80.67 65.24"/><polyline class="cls-36" points="78.37 65.22 77.97 65.21 77.65 66.45 78.07 66.46 78.37 65.22"/><path class="cls-37" d="M113.46,156.26l-2.48.22c-.82.07-1.66.12-2.5.18l.7,1.22c.89-.07,1.79-.12,2.67-.2l2.64-.23-1-1.19" transform="translate(-14.84 -91.82)"/><path class="cls-38" d="M103.13,156.93l-1.27,0-1.28,0c-.84,0-1.69,0-2.55,0v1.25c.91,0,1.82,0,2.73-.05l1.36,0,1.35-.05-.35-1.24" transform="translate(-14.84 -91.82)"/><path class="cls-39" d="M89.22,156.92l-.56,1.24c1.27.05,2.55.07,3.83.11l.32-1.24c-1.2,0-2.4-.06-3.59-.11" transform="translate(-14.84 -91.82)"/><polyline class="cls-40" points="72.76 65.03 72.09 66.26 72.64 66.29 73.27 65.06 72.76 65.03"/><polyline class="cls-41" points="70.56 64.91 69.75 66.14 71.01 66.21 71.74 64.98 70.56 64.91"/><polyline class="cls-42" points="61.06 64.07 59.62 65.24 60.83 65.38 62.19 64.2 61.06 64.07"/><polyline class="cls-43" points="59.16 63.83 57.6 64.98 58.77 65.13 60.27 63.97 59.16 63.83"/><polyline class="cls-44" points="69.1 64.83 68.2 66.04 68.61 66.07 69.5 64.85 69.1 64.83"/><polyline class="cls-45" points="52.34 62.75 50.33 63.83 50.79 63.92 52.78 62.83 52.34 62.75"/><polyline class="cls-46" points="50.44 62.38 48.3 63.44 49.39 63.65 51.46 62.58 50.44 62.38"/><polyline class="cls-47" points="49.21 62.12 46.99 63.16 47.34 63.23 49.54 62.19 49.21 62.12"/><path class="cls-48" d="M78,156.13l-1.3,1.18c1.72.17,3.45.34,5.21.47l1-1.22c-1.66-.12-3.28-.27-4.89-.43" transform="translate(-14.84 -91.82)"/><path class="cls-49" d="M68.46,154.8l-1.92,1.09c.79.14,1.57.28,2.39.4l2.44.37L73,155.52l-2.29-.35c-.77-.11-1.5-.25-2.25-.37" transform="translate(-14.84 -91.82)"/><path class="cls-50" d="M61.15,153.27l-2.41,1c1,.24,2,.49,3.1.71l2.21-1c-1-.21-1.94-.44-2.9-.67" transform="translate(-14.84 -91.82)"/><polyline class="cls-51" points="45.04 61.13 42.54 62.1 42.97 62.22 45.43 61.23 45.04 61.13"/><path class="cls-52" d="M58.19,152.49l-2.61.95c.31.09.63.18,1,.26l2.54-1-.9-.25" transform="translate(-14.84 -91.82)"/><polyline class="cls-53" points="36.57 58.41 33.52 59.2 34.33 59.51 37.33 58.7 36.57 58.41"/><polyline class="cls-54" points="35.31 57.89 32.19 58.65 32.94 58.98 36.02 58.19 35.31 57.89"/><polyline class="cls-55" points="42.25 60.36 39.58 61.28 39.89 61.37 42.54 60.44 42.25 60.36"/><path class="cls-56" d="M46,147.67l-3.41.62.27.16,3.39-.64-.25-.14" transform="translate(-14.84 -91.82)"/><polyline class="cls-57" points="30.12 55.22 26.65 55.81 27.25 56.17 30.68 55.56 30.12 55.22"/><polyline class="cls-58" points="29.48 54.79 25.96 55.35 26.14 55.48 29.65 54.91 29.48 54.79"/><polyline class="cls-59" points="37.98 58.95 35.03 59.78 36.83 60.42 38.73 61.03 41.46 60.12 39.68 59.55 37.98 58.95"/><path class="cls-60" d="M46.75,148.07l-3.35.66c.9.5,1.91,1,3,1.44l3.17-.74c-1-.44-1.92-.89-2.77-1.36" transform="translate(-14.84 -91.82)"/><path class="cls-61" d="M42.87,145.56l-3.6.49.72.57.81.55,3.52-.56c-.25-.17-.53-.34-.76-.52l-.69-.53" transform="translate(-14.84 -91.82)"/><polyline class="cls-62" points="27.45 53.26 23.8 53.72 23.99 53.88 27.62 53.41 27.45 53.26"/><path class="cls-63" d="M41.55,144.41l-3.7.41c.13.13.29.26.43.38l3.66-.43c-.13-.12-.28-.24-.39-.36" transform="translate(-14.84 -91.82)"/><polyline class="cls-64" points="24.47 49.51 20.63 49.72 20.81 50.12 24.64 49.89 24.47 49.51"/><path class="cls-65" d="M39.05,140.67l-3.87.17a2.31,2.31,0,0,0,.16.41l3.85-.19a2,2,0,0,1-.14-.39" transform="translate(-14.84 -91.82)"/><polyline class="cls-66" points="26.28 52.13 22.55 52.52 22.67 52.65 26.39 52.26 26.28 52.13"/><polyline class="cls-67" points="23.87 46.39 19.99 46.4 19.98 46.57 23.87 46.56 23.87 46.39"/><polyline class="cls-68" points="23.97 45.68 20.09 45.63 20.02 46.05 23.89 46.06 23.97 45.68"/><polyline class="cls-69" points="24.06 45.2 20.18 45.13 20.16 45.26 24.03 45.33 24.06 45.2"/><path class="cls-70" d="M39.68,142l-3.83.26c.18.28.33.57.55.85l.66.84,3.74-.36-.61-.79a7.68,7.68,0,0,1-.51-.8" transform="translate(-14.84 -91.82)"/><path class="cls-71" d="M38.7,138.69l-3.89,0a5.12,5.12,0,0,0,.08.87L35,140l.12.44,3.87-.14-.11-.41-.06-.41a3.73,3.73,0,0,1-.07-.82" transform="translate(-14.84 -91.82)"/><path class="cls-72" d="M35.47,135.71a13,13,0,0,0-.44,1.23l3.87.08a10.8,10.8,0,0,1,.42-1.16l-3.85-.15" transform="translate(-14.84 -91.82)"/><polyline class="cls-73" points="20.91 43.34 20.82 43.52 24.65 43.69 24.74 43.52 20.91 43.34"/><polyline class="cls-74" points="21.37 42.59 21.1 42.99 24.91 43.2 25.16 42.82 21.37 42.59"/><polyline class="cls-75" points="24.42 39.32 23.97 39.71 27.6 40.12 28.03 39.75 24.42 39.32"/><polyline class="cls-76" points="25.28 38.66 24.76 39.04 28.35 39.49 28.83 39.13 25.28 38.66"/><polyline class="cls-77" points="21.7 42.09 21.61 42.22 25.39 42.47 25.48 42.35 21.7 42.09"/><polyline class="cls-78" points="29.05 36.3 28.76 36.45 32.1 37.06 32.37 36.92 29.05 36.3"/><polyline class="cls-79" points="30.32 35.64 29.64 36 32.92 36.64 33.56 36.3 30.32 35.64"/><polyline class="cls-80" points="31.22 35.22 30.98 35.33 34.18 36.01 34.41 35.9 31.22 35.22"/><path class="cls-81" d="M38.42,131.86a16.3,16.3,0,0,0-1.58,1.68l3.75.28a15.44,15.44,0,0,1,1.49-1.57l-3.66-.39" transform="translate(-14.84 -91.82)"/><path class="cls-82" d="M43.09,128.57c-.44.26-.91.51-1.31.77l-1.2.8,3.53.49,1.12-.74c.38-.25.82-.49,1.23-.73l-3.37-.59" transform="translate(-14.84 -91.82)"/><path class="cls-83" d="M48.36,126c-.78.33-1.58.66-2.3,1l3.2.68c.66-.32,1.41-.63,2.14-1l-3-.74" transform="translate(-14.84 -91.82)"/><polyline class="cls-84" points="34.62 33.77 34.27 33.9 37.26 34.67 37.6 34.54 34.62 33.77"/><path class="cls-85" d="M51,125c-.29.1-.57.2-.84.31l2.93.79.79-.29L51,125" transform="translate(-14.84 -91.82)"/><polyline class="cls-86" points="43.91 30.8 42.91 31.07 45.38 32.01 46.31 31.76 43.91 30.8"/><polyline class="cls-87" points="45.66 30.36 44.62 30.61 46.98 31.58 47.96 31.34 45.66 30.36"/><polyline class="cls-88" points="37.27 32.79 36.97 32.9 39.8 33.73 40.08 33.63 37.27 32.79"/><path class="cls-89" d="M67.4,120.71l-.48.09,1.9,1.07.46-.09-1.88-1.07" transform="translate(-14.84 -91.82)"/><polyline class="cls-90" points="54.66 28.52 53.53 28.72 55.34 29.8 56.41 29.61 54.66 28.52"/><polyline class="cls-91" points="56.1 28.29 55.71 28.35 57.39 29.45 57.76 29.4 56.1 28.29"/><polyline class="cls-92" points="42.05 31.3 40.02 31.89 38.07 32.52 40.84 33.37 42.66 32.78 44.58 32.23 42.05 31.3"/><path class="cls-93" d="M66,121c-1.58.31-3.09.64-4.58,1l2.24,1c1.4-.32,2.82-.63,4.3-.92L66,121" transform="translate(-14.84 -91.82)"/><path class="cls-94" d="M74.48,119.58l-1.78.25L71,120.1l1.65,1.12,1.64-.26,1.68-.23-1.44-1.15" transform="translate(-14.84 -91.82)"/><polyline class="cls-95" points="61.26 27.55 60.75 27.61 62.12 28.77 62.6 28.71 61.26 27.55"/><path class="cls-96" d="M78.36,119.1l-1.22.14,1.28,1.17,1.14-.14-1.2-1.17" transform="translate(-14.84 -91.82)"/><polyline class="cls-97" points="73.82 26.43 72.55 26.5 73.18 27.73 74.38 27.66 73.82 26.43"/><path class="cls-98" d="M90.85,118.15c-.43,0-.85,0-1.27.06l.5,1.23c.39,0,.79,0,1.19-.06l-.42-1.23" transform="translate(-14.84 -91.82)"/><polyline class="cls-99" points="65.04 27.12 64.63 27.16 65.76 28.35 66.15 28.31 65.04 27.12"/><polyline class="cls-100" points="84.19 26.15 83.64 26.15 83.59 27.4 84.11 27.39 84.19 26.15"/><polyline class="cls-101" points="86.58 26.16 85.3 26.15 85.14 27.39 86.35 27.41 86.58 26.16"/><polyline class="cls-102" points="88.17 26.18 87.73 26.18 87.44 27.42 87.84 27.42 88.17 26.18"/><path class="cls-103" d="M86.31,118.4c-.89.06-1.79.11-2.67.19l-2.64.23,1,1.2,2.48-.22c.82-.08,1.67-.12,2.5-.19l-.7-1.21" transform="translate(-14.84 -91.82)"/><path class="cls-104" d="M97.45,118c-.91,0-1.82,0-2.72,0l-1.37,0-1.35,0,.35,1.24,1.27,0,1.28,0c.84,0,1.69,0,2.55,0V118" transform="translate(-14.84 -91.82)"/><path class="cls-105" d="M103,118l-.32,1.24c1.19,0,2.39.06,3.58.11l.56-1.24c-1.26,0-2.55-.07-3.82-.11" transform="translate(-14.84 -91.82)"/><polyline class="cls-106" points="93.17 26.35 92.54 27.58 93.05 27.6 93.71 26.37 93.17 26.35"/><polyline class="cls-107" points="94.79 26.42 94.06 27.65 95.25 27.72 96.05 26.5 94.79 26.42"/><polyline class="cls-108" points="104.98 27.26 103.62 28.43 104.74 28.56 106.18 27.4 104.98 27.26"/><polyline class="cls-109" points="107.03 27.5 105.54 28.66 106.65 28.81 108.21 27.66 107.03 27.5"/><polyline class="cls-110" points="97.19 26.57 96.31 27.78 96.71 27.81 97.61 26.59 97.19 26.57"/><polyline class="cls-111" points="115.02 28.72 113.03 29.8 113.47 29.89 115.48 28.81 115.02 28.72"/><polyline class="cls-112" points="116.42 28.99 114.35 30.05 115.37 30.25 117.5 29.2 116.42 28.99"/><polyline class="cls-113" points="118.46 29.4 116.27 30.45 116.6 30.52 118.81 29.48 118.46 29.4"/><path class="cls-114" d="M113.58,118.5l-1,1.21c1.66.12,3.28.27,4.9.44l1.29-1.19c-1.72-.17-3.45-.34-5.21-.46" transform="translate(-14.84 -91.82)"/><path class="cls-115" d="M124.12,119.61l-1.63,1.15,2.3.34c.76.11,1.49.25,2.24.37l1.92-1.09c-.79-.13-1.57-.28-2.39-.4l-2.44-.37" transform="translate(-14.84 -91.82)"/><path class="cls-116" d="M133.66,121.3l-2.22,1c1,.21,1.95.45,2.9.67l2.42-1c-1-.23-2-.49-3.1-.7" transform="translate(-14.84 -91.82)"/><polyline class="cls-117" points="122.84 30.42 120.37 31.4 120.77 31.5 123.26 30.53 122.84 30.42"/><path class="cls-118" d="M139,122.57l-2.55,1c.31.08.62.16.9.25l2.61-.94c-.31-.1-.63-.18-1-.27" transform="translate(-14.84 -91.82)"/><polyline class="cls-119" points="131.48 33.12 128.48 33.93 129.24 34.23 132.29 33.43 131.48 33.12"/><polyline class="cls-120" points="132.86 33.66 129.78 34.44 130.49 34.75 133.62 33.99 132.86 33.66"/><polyline class="cls-121" points="125.92 31.26 123.26 32.19 123.55 32.28 126.23 31.36 125.92 31.26"/><path class="cls-122" d="M152.62,127.83l-3.39.63a2.75,2.75,0,0,1,.25.15l3.41-.63-.27-.15" transform="translate(-14.84 -91.82)"/><polyline class="cls-123" points="138.56 36.47 135.12 37.08 135.69 37.41 139.16 36.83 138.56 36.47"/><polyline class="cls-124" points="139.66 37.16 136.16 37.73 136.33 37.84 139.85 37.28 139.66 37.16"/><polyline class="cls-125" points="127.07 31.61 124.35 32.51 126.13 33.08 127.83 33.69 130.78 32.85 128.98 32.21 127.07 31.61"/><path class="cls-126" d="M149.15,126.1l-3.17.74c1,.44,1.92.89,2.76,1.36l3.35-.66c-.9-.49-1.91-1-2.94-1.44" transform="translate(-14.84 -91.82)"/><path class="cls-127" d="M154.69,129.1l-3.52.56c.25.17.53.34.76.52l.69.53,3.6-.49-.72-.56c-.26-.19-.54-.37-.81-.56" transform="translate(-14.84 -91.82)"/><polyline class="cls-128" points="141.82 38.75 138.19 39.22 138.36 39.38 142 38.92 141.82 38.75"/><path class="cls-129" d="M157.22,131.07l-3.67.43.4.37,3.69-.42c-.13-.13-.28-.25-.42-.38" transform="translate(-14.84 -91.82)"/><polyline class="cls-130" points="145 42.51 141.17 42.75 141.33 43.13 145.18 42.92 145 42.51"/><path class="cls-131" d="M160.15,135l-3.85.19a2.5,2.5,0,0,1,.15.38l3.86-.17a2.23,2.23,0,0,0-.16-.4" transform="translate(-14.84 -91.82)"/><polyline class="cls-132" points="143.13 39.99 139.41 40.38 139.53 40.5 143.25 40.12 143.13 39.99"/><polyline class="cls-133" points="145.82 46.06 141.94 46.08 141.93 46.24 145.82 46.24 145.82 46.06"/><polyline class="cls-134" points="145.79 46.59 141.91 46.57 141.84 46.96 145.72 47 145.79 46.59"/><polyline class="cls-135" points="145.65 47.37 141.78 47.31 141.75 47.44 145.62 47.51 145.65 47.37"/><path class="cls-136" d="M158.43,132.29l-3.74.36.61.79c.21.27.35.54.52.8l3.82-.25a8.89,8.89,0,0,0-.55-.86l-.66-.84" transform="translate(-14.84 -91.82)"/><path class="cls-137" d="M160.42,135.8l-3.87.15.11.4.06.41a3.84,3.84,0,0,1,.07.82l3.89,0a5.14,5.14,0,0,0-.08-.88l-.06-.43-.12-.44" transform="translate(-14.84 -91.82)"/><path class="cls-138" d="M92.19,159.42c-36.57-.69-63.81-10.81-60.74-22.54s35.3-20.72,71.86-20,63.8,10.81,60.73,22.55-35.3,20.72-71.85,20m11.42-43.72c-38.54-.73-72.52,8.74-75.75,21.11s25.49,23,64,23.76,72.51-8.73,75.74-21.1-25.49-23-64-23.77" transform="translate(-14.84 -91.82)"/><path class="cls-139" d="M88.2,154.79a1.12,1.12,0,0,0-.78.19c-.06.13.19.25.58.27,1.72.08,3.48.14,5.23.18h0c.4,0,.73-.09.76-.22s-.27-.23-.67-.24c-1.71,0-3.42-.09-5.09-.18H88.2m15.63.05h-.14c-1.7.08-3.44.12-5.15.15-.4,0-.72.11-.71.24s.29.21.65.22h.08c1.76,0,3.54-.07,5.29-.15.4,0,.68-.14.63-.26s-.31-.19-.65-.2M78.14,154a1.23,1.23,0,0,0-.72.15c-.15.12,0,.25.4.3,1.63.19,3.33.36,5,.5H83a1.16,1.16,0,0,0,.76-.17c.11-.13-.11-.25-.49-.28-1.65-.14-3.3-.31-4.89-.5h-.21m35.9.11h-.27c-1.63.18-3.31.34-5,.47-.39,0-.63.15-.55.27s.33.17.64.18h.21c1.73-.13,3.45-.29,5.13-.47.37,0,.58-.18.47-.3a1.09,1.09,0,0,0-.64-.15m-45.19-1.57a1.43,1.43,0,0,0-.66.11c-.22.11-.12.25.21.31,1.48.3,3,.57,4.59.82l.27,0a1.37,1.37,0,0,0,.7-.13c.18-.11,0-.25-.31-.3-1.52-.24-3-.51-4.47-.8a1.76,1.76,0,0,0-.33,0m54.79.16a2.73,2.73,0,0,0-.41,0c-1.5.28-3.06.54-4.63.77-.36.05-.53.19-.38.31a1.18,1.18,0,0,0,.61.13,1.94,1.94,0,0,0,.34,0c1.62-.24,3.21-.5,4.76-.79.35-.06.48-.2.28-.31a1.38,1.38,0,0,0-.57-.12m-63-2.19a2,2,0,0,0-.58.08c-.27.09-.27.24,0,.32,1.26.39,2.59.75,4,1.1a2.23,2.23,0,0,0,.39,0,1.69,1.69,0,0,0,.62-.09c.24-.1.19-.25-.12-.32-1.34-.34-2.65-.69-3.87-1.06a1.84,1.84,0,0,0-.44-.07m71.56.22a2.12,2.12,0,0,0-.52.06c-1.31.36-2.69.71-4.1,1-.33.07-.41.22-.18.32a1.3,1.3,0,0,0,.53.09,1.68,1.68,0,0,0,.46,0c1.46-.33,2.87-.69,4.22-1.07.3-.08.34-.23.08-.32a1.61,1.61,0,0,0-.49-.08M53.92,148a1.83,1.83,0,0,0-.47,0c-.33.07-.4.21-.18.32,1,.45,2.09.9,3.23,1.32a1.6,1.6,0,0,0,.48.08,2.15,2.15,0,0,0,.53-.06c.3-.09.34-.23.09-.32-1.11-.42-2.17-.85-3.15-1.29a1.51,1.51,0,0,0-.53-.1m85.61.26a1.85,1.85,0,0,0-.62.09c-1.07.44-2.22.87-3.41,1.27-.28.1-.27.24,0,.33a1.51,1.51,0,0,0,.44.06,1.64,1.64,0,0,0,.57-.08c1.23-.41,2.41-.85,3.51-1.3.25-.1.2-.24-.11-.32a2.3,2.3,0,0,0-.39-.05m-90.69-3.15a2,2,0,0,0-.34,0c-.37.05-.53.19-.38.3a24.46,24.46,0,0,0,2.35,1.51A1.4,1.4,0,0,0,51,147a2.73,2.73,0,0,0,.41,0c.35-.07.47-.21.28-.32a23,23,0,0,1-2.28-1.46,1.27,1.27,0,0,0-.61-.14m96.38.3a1.34,1.34,0,0,0-.7.13c-.79.49-1.66,1-2.59,1.45-.22.11-.12.25.21.31a1.19,1.19,0,0,0,.33,0,1.75,1.75,0,0,0,.66-.11,29.68,29.68,0,0,0,2.66-1.49c.19-.12.05-.25-.3-.31l-.27,0m-99.56-3.46h-.22c-.39,0-.63.15-.55.27a10.58,10.58,0,0,0,1.37,1.63,1,1,0,0,0,.62.16h.28c.38,0,.59-.18.47-.3a10.43,10.43,0,0,1-1.33-1.58,1,1,0,0,0-.64-.18m103.41.32a1.15,1.15,0,0,0-.75.17,14.2,14.2,0,0,1-1.67,1.58c-.14.12,0,.25.41.29l.21,0a1.32,1.32,0,0,0,.72-.16,13.35,13.35,0,0,0,1.71-1.62c.11-.12-.11-.24-.49-.28h-.14m-104.6-3.64h-.06c-.4,0-.71.11-.71.24a5.65,5.65,0,0,0,.34,1.7c0,.11.32.19.65.19h.14c.39,0,.68-.13.64-.26a5.32,5.32,0,0,1-.33-1.65c0-.12-.3-.21-.67-.22m106.49.29c-.39,0-.74.09-.77.21l0,0a6.62,6.62,0,0,1-.68,1.65c-.07.12.19.24.58.26h.07c.36,0,.7-.07.77-.19a7,7,0,0,0,.7-1.69v0c0-.13-.27-.23-.66-.24M45.33,135.25a1.05,1.05,0,0,0-.76.19,7.2,7.2,0,0,0-.69,1.67v0c0,.13.26.23.66.24s.74-.1.78-.23a7,7,0,0,1,.67-1.63c.07-.12-.19-.24-.58-.26h-.08m105.47.28h-.14c-.4,0-.68.14-.64.26a5.38,5.38,0,0,1,.33,1.65c0,.12.3.21.66.22h.07c.4,0,.72-.11.72-.24a6,6,0,0,0-.35-1.69c0-.11-.32-.19-.65-.2M48.21,132a1.32,1.32,0,0,0-.74.15,14.73,14.73,0,0,0-1.7,1.62c-.11.12.11.25.49.28h.14a1.24,1.24,0,0,0,.76-.18,14.68,14.68,0,0,1,1.65-1.57c.15-.12,0-.26-.4-.3h-.2m100.38.26-.28,0c-.38,0-.59.17-.46.29a10.58,10.58,0,0,1,1.33,1.59.92.92,0,0,0,.64.17H150c.38,0,.63-.16.55-.28a10.58,10.58,0,0,0-1.37-1.63,1.14,1.14,0,0,0-.63-.16M53,129a1.75,1.75,0,0,0-.66.11c-1,.48-1.85,1-2.65,1.49-.18.12,0,.25.31.31l.27,0a1.37,1.37,0,0,0,.7-.13c.78-.49,1.65-1,2.58-1.45.22-.11.13-.25-.21-.31a1.27,1.27,0,0,0-.34,0m91.44.25a1.39,1.39,0,0,0-.41,0c-.34.06-.47.2-.27.31a25,25,0,0,1,2.28,1.47,1.18,1.18,0,0,0,.61.13,2.06,2.06,0,0,0,.34,0c.36,0,.53-.19.37-.31a25.16,25.16,0,0,0-2.35-1.5,1.25,1.25,0,0,0-.57-.11M59.5,126.32a1.74,1.74,0,0,0-.58.07c-1.23.42-2.4.86-3.5,1.31-.25.1-.19.24.12.32a2.18,2.18,0,0,0,.38,0,2,2,0,0,0,.63-.09c1.06-.44,2.21-.87,3.4-1.27.28-.1.27-.24,0-.33a1.46,1.46,0,0,0-.44-.06m79,.21a2.12,2.12,0,0,0-.52.06c-.31.08-.35.23-.09.32,1.11.42,2.17.85,3.15,1.29a1.28,1.28,0,0,0,.52.09,1.79,1.79,0,0,0,.47,0c.33-.07.41-.22.18-.32-1-.46-2.08-.9-3.22-1.32a1.44,1.44,0,0,0-.49-.08m-71-2.44a2.35,2.35,0,0,0-.47,0c-1.45.34-2.86.7-4.2,1.07-.31.09-.34.23-.09.33a1.75,1.75,0,0,0,.49.07,1.7,1.7,0,0,0,.52,0c1.31-.37,2.69-.72,4.1-1,.33-.08.41-.22.19-.33a1.6,1.6,0,0,0-.54-.09m63.49.17a1.85,1.85,0,0,0-.62.09c-.25.1-.2.25.11.32,1.34.34,2.65.69,3.88,1.06a1.51,1.51,0,0,0,.44.06,1.78,1.78,0,0,0,.58-.07c.27-.09.27-.24,0-.32-1.27-.39-2.6-.75-4-1.09a1.67,1.67,0,0,0-.39,0m-54.35-1.87-.35,0c-1.62.24-3.21.5-4.75.79-.35.07-.47.21-.28.32a1.22,1.22,0,0,0,.57.11,2.83,2.83,0,0,0,.41,0c1.49-.28,3.05-.54,4.62-.77.37,0,.53-.19.38-.31a1.27,1.27,0,0,0-.6-.13m45.57.12a1.43,1.43,0,0,0-.7.13c-.19.12,0,.25.31.31,1.52.24,3,.51,4.47.79a1.69,1.69,0,0,0,.33,0,1.43,1.43,0,0,0,.66-.11c.22-.1.12-.25-.21-.31-1.49-.3-3-.57-4.59-.82l-.27,0m-35.62-1.22h-.22c-1.72.14-3.44.3-5.12.48-.37,0-.58.18-.46.3a1,1,0,0,0,.62.15h.28c1.63-.18,3.31-.34,5-.47.39,0,.64-.15.55-.28a.91.91,0,0,0-.64-.17m25.89.07a1.16,1.16,0,0,0-.75.17c-.1.12.12.25.5.28,1.65.14,3.29.3,4.89.49l.2,0a1.45,1.45,0,0,0,.73-.15c.15-.12,0-.26-.4-.3-1.65-.19-3.33-.36-5-.51h-.14m-15.52-.53h-.06c-1.76,0-3.54.07-5.29.15-.39,0-.68.13-.63.26s.32.19.65.2h.14c1.7-.07,3.44-.12,5.15-.14.4,0,.72-.11.71-.24s-.29-.22-.67-.22m5.36,0h-.12c-.39,0-.74.09-.78.22s.27.23.66.24h.1c1.67,0,3.36.08,5,.17h.07a1.1,1.1,0,0,0,.77-.19c.07-.13-.19-.25-.58-.27-1.7-.08-3.43-.14-5.14-.18" transform="translate(-14.84 -91.82)"/><path class="cls-140" d="M97.27,142.62a57.9,57.9,0,0,1-7.07,1.12q-3.24.31-6.72.32a66.49,66.49,0,0,1-9.25-.62,45.3,45.3,0,0,1-7.66-1.68,18.47,18.47,0,0,1-5.19-2.48,3.38,3.38,0,0,1,0-6.09,18.2,18.2,0,0,1,5.19-2.49A45.3,45.3,0,0,1,74.23,129a66.49,66.49,0,0,1,9.25-.62q3.48,0,6.7.32c.79.08,1.62.17,2.38.27.36,0,.78.14.78.14l-.13.05a13.09,13.09,0,0,0-1.23.5,7.77,7.77,0,0,0-1,.58,4.7,4.7,0,0,0-.72.66,2.87,2.87,0,0,0-.47.74,2,2,0,0,0-.22.79c0,.09,0,.17,0,.25s-.69-.15-1.1-.21a39.56,39.56,0,0,0-5-.36,34.27,34.27,0,0,0-4.79.32,22.57,22.57,0,0,0-3.91.87,8.54,8.54,0,0,0-2.64,1.31,2.07,2.07,0,0,0-1,1.6,2.1,2.1,0,0,0,1,1.61,8.77,8.77,0,0,0,2.64,1.3,22.57,22.57,0,0,0,3.91.87,34.27,34.27,0,0,0,4.79.32,38.23,38.23,0,0,0,8.42-1.05c2-.47,3.5-.94,5.39-1.45a52,52,0,0,1,14.08-1.53l18.32,0v4.15H109.1v6.77l-11.77.05V142.6Z" transform="translate(-14.84 -91.82)"/><path class="cls-140" d="M95,136v-2.37h0c0-3.08,5-4.88,14.54-4.88h22.26a2,2,0,0,1,2,2v.05a2,2,0,0,1-2,2h-22c-2.3,0-3.14.46-3.14,1.24v.36a55.75,55.75,0,0,0-9.28,1.08C96.46,135.7,95,136,95,136Z" transform="translate(-14.84 -91.82)"/><path class="cls-141" d="M97.27,142.62a57.9,57.9,0,0,1-7.07,1.12q-3.24.31-6.72.32a66.49,66.49,0,0,1-9.25-.62,45.3,45.3,0,0,1-7.66-1.68,18.47,18.47,0,0,1-5.19-2.48,3.38,3.38,0,0,1,0-6.09,18.2,18.2,0,0,1,5.19-2.49A45.3,45.3,0,0,1,74.23,129a66.49,66.49,0,0,1,9.25-.62q3.48,0,6.7.32c.79.08,1.62.17,2.38.27.36,0,.78.14.78.14l-.13.05a13.09,13.09,0,0,0-1.23.5,7.77,7.77,0,0,0-1,.58,4.7,4.7,0,0,0-.72.66,2.87,2.87,0,0,0-.47.74,2,2,0,0,0-.22.79c0,.09,0,.17,0,.25s-.69-.15-1.1-.21a39.56,39.56,0,0,0-5-.36,34.27,34.27,0,0,0-4.79.32,22.57,22.57,0,0,0-3.91.87,8.54,8.54,0,0,0-2.64,1.31,2.07,2.07,0,0,0-1,1.6,2.1,2.1,0,0,0,1,1.61,8.77,8.77,0,0,0,2.64,1.3,22.57,22.57,0,0,0,3.91.87,34.27,34.27,0,0,0,4.79.32,38.23,38.23,0,0,0,8.42-1.05c2-.47,3.5-.94,5.39-1.45a52,52,0,0,1,14.08-1.53l18.32,0v4.15H109.1v6.77l-11.77.05V142.6Z" transform="translate(-14.84 -91.82)"/><path class="cls-141" d="M95,136v-2.37h0c0-3.08,5-4.88,14.54-4.88h22.26a2,2,0,0,1,2,2v.05a2,2,0,0,1-2,2h-22c-2.3,0-3.14.46-3.14,1.24v.36a55.75,55.75,0,0,0-9.28,1.08C96.46,135.7,95,136,95,136Z" transform="translate(-14.84 -91.82)"/><path class="cls-141" d="M95,136v-2.37h0c0-3.08,5-4.88,14.54-4.88h22.26a2,2,0,0,1,2,2v.05a2,2,0,0,1-2,2h-22c-2.3,0-3.14.46-3.14,1.24v.36a55.75,55.75,0,0,0-9.28,1.08C96.46,135.7,95,136,95,136Z" transform="translate(-14.84 -91.82)"/><ellipse class="cls-142" cx="84.73" cy="46.2" rx="72.89" ry="22.3"/><path class="cls-143" d="M163.41,113.78a.43.43,0,0,0,0,0c.17-11.61-27.55-21.27-64.26-22C60.55,91.12,26.63,100.58,23.4,113a7.88,7.88,0,0,0-.25,2l.12,13.91c.05,5.92,7.36,11.32,19.39,15.27,1.75.57,3.6,1.12,5.54,1.62,1.52.41,3.1.78,4.73,1.14,1.42.31,2.89.61,4.38.88s2.77.5,4.2.72,2.71.4,4.09.58,2.66.33,4,.48,2.68.27,4,.39,2.72.22,4.11.31,2.77.17,4.18.23,2.86.11,4.3.15l1.28,0c1,0,2.1,0,3.15,0,1.51,0,3,0,4.51,0s3.15-.07,4.71-.13c1.75-.06,3.48-.14,5.2-.25,2.33-.15,4.63-.33,6.88-.55a158.62,158.62,0,0,0,25.37-4.36q3.62-1,6.82-2.06,2.32-.8,4.41-1.67c1.17-.48,2.27-1,3.31-1.49s1.8-.92,2.63-1.4,1.47-.88,2.15-1.34,1.23-.87,1.79-1.31,1-.88,1.48-1.32a16.35,16.35,0,0,0,1.22-1.31,14.33,14.33,0,0,0,1-1.35,11.84,11.84,0,0,0,.73-1.41,9,9,0,0,0,.4-1.17c0-.1.05-.2.07-.3a6.9,6.9,0,0,0,.18-1.55v-.12Zm-.18,1.55c0,.09,0,0,0-.11C163.24,115.25,163.24,115.29,163.23,115.33Z" transform="translate(-14.84 -91.82)"/><ellipse class="cls-144" cx="93.28" cy="114.3" rx="70.13" ry="22.47" transform="matrix(1, -0.01, 0.01, 1, -15.84, -91)"/><path class="cls-145" d="M156,115.49l-3.87-.07c-.15.38-.24.77-.42,1.15l3.84.15c.2-.41.29-.82.45-1.23" transform="translate(-14.84 -91.82)"/><polyline class="cls-146" points="136.69 25.11 136.6 25.27 140.43 25.45 140.52 25.28 136.69 25.11"/><polyline class="cls-147" points="136.43 25.6 136.18 25.98 139.97 26.21 140.24 25.8 136.43 25.6"/><polyline class="cls-148" points="133.74 28.68 133.31 29.05 136.92 29.48 137.37 29.09 133.74 28.68"/><polyline class="cls-149" points="132.99 29.3 132.51 29.66 136.06 30.13 136.58 29.75 132.99 29.3"/><polyline class="cls-150" points="135.95 26.32 135.86 26.45 139.64 26.71 139.73 26.57 135.95 26.32"/><polyline class="cls-151" points="129.24 31.73 128.97 31.87 132.29 32.49 132.58 32.34 129.24 31.73"/><polyline class="cls-152" points="128.42 32.16 127.78 32.49 131.02 33.15 131.7 32.8 128.42 32.16"/><polyline class="cls-153" points="127.16 32.78 126.93 32.89 130.12 33.58 130.36 33.46 127.16 32.78"/><path class="cls-154" d="M150.43,118.61a15.37,15.37,0,0,1-1.48,1.58l3.66.38a15.34,15.34,0,0,0,1.58-1.68l-3.76-.28" transform="translate(-14.84 -91.82)"/><path class="cls-155" d="M146.92,121.8l-1.13.75c-.38.25-.82.48-1.23.72l3.37.6c.44-.26.91-.52,1.31-.78l1.2-.79-3.52-.5" transform="translate(-14.84 -91.82)"/><path class="cls-156" d="M141.77,124.71c-.66.33-1.42.63-2.15,1l3,.75c.78-.34,1.58-.66,2.29-1l-3.19-.69" transform="translate(-14.84 -91.82)"/><polyline class="cls-157" points="124.08 34.13 123.74 34.25 126.72 35.03 127.07 34.89 124.08 34.13"/><path class="cls-158" d="M137.92,126.33l-.8.3,2.88.81c.3-.1.57-.21.85-.32l-2.93-.79" transform="translate(-14.84 -91.82)"/><polyline class="cls-159" points="115.96 36.79 115.02 37.04 117.43 37.99 118.44 37.73 115.96 36.79"/><polyline class="cls-160" points="114.36 37.21 113.38 37.45 115.68 38.43 116.72 38.18 114.36 37.21"/><polyline class="cls-161" points="121.53 35.07 121.26 35.17 124.07 36 124.36 35.9 121.53 35.07"/><path class="cls-162" d="M122.2,130.57l-.45.08,1.88,1.07.48-.08-1.91-1.07" transform="translate(-14.84 -91.82)"/><polyline class="cls-163" points="105.99 38.99 104.93 39.18 106.68 40.28 107.81 40.08 105.99 38.99"/><polyline class="cls-164" points="103.95 39.34 103.58 39.4 105.23 40.51 105.63 40.45 103.95 39.34"/><polyline class="cls-165" points="120.5 35.42 118.68 36.01 116.76 36.57 119.29 37.49 121.32 36.9 123.27 36.28 120.5 35.42"/><path class="cls-166" d="M127.34,129.48c-1.4.32-2.81.64-4.3.92l2,1.06c1.58-.3,3.09-.63,4.58-1l-2.24-1" transform="translate(-14.84 -91.82)"/><path class="cls-167" d="M118.42,131.22l-1.64.25-1.67.24,1.43,1.14,1.79-.25c.59-.08,1.17-.18,1.75-.27l-1.66-1.11" transform="translate(-14.84 -91.82)"/><polyline class="cls-168" points="99.22 40.03 98.74 40.09 100.08 41.24 100.59 41.18 99.22 40.03"/><path class="cls-169" d="M112.61,132l-1.14.14,1.19,1.17,1.22-.14L112.61,132" transform="translate(-14.84 -91.82)"/><polyline class="cls-170" points="88.16 41.07 86.96 41.13 87.52 42.36 88.79 42.29 88.16 41.07"/><path class="cls-171" d="M101,133l-1.2.05.43,1.24,1.27-.06L101,133" transform="translate(-14.84 -91.82)"/><polyline class="cls-172" points="95.58 40.45 95.19 40.49 96.3 41.67 96.71 41.63 95.58 40.45"/><polyline class="cls-173" points="77.75 41.4 77.23 41.4 77.14 42.65 77.7 42.64 77.75 41.4"/><polyline class="cls-174" points="76.2 41.4 74.99 41.39 74.76 42.63 76.04 42.65 76.2 41.4"/><polyline class="cls-175" points="73.9 41.38 73.5 41.37 73.18 42.62 73.61 42.62 73.9 41.38"/><path class="cls-176" d="M109,132.42l-2.49.22c-.82.07-1.66.12-2.5.18l.7,1.22c.9-.07,1.79-.12,2.67-.2l2.65-.23-1-1.19" transform="translate(-14.84 -91.82)"/><path class="cls-177" d="M98.67,133.09l-1.27,0-1.28,0c-.85,0-1.7,0-2.55,0v1.25c.9,0,1.81,0,2.72-.05l1.36,0,1.36,0-.35-1.24" transform="translate(-14.84 -91.82)"/><path class="cls-178" d="M84.75,133.08l-.56,1.24c1.27.05,2.55.08,3.83.11l.33-1.24c-1.21,0-2.41-.05-3.6-.11" transform="translate(-14.84 -91.82)"/><polyline class="cls-179" points="68.29 41.19 67.63 42.42 68.17 42.45 68.8 41.22 68.29 41.19"/><polyline class="cls-180" points="66.09 41.07 65.29 42.3 66.54 42.38 67.27 41.15 66.09 41.07"/><polyline class="cls-181" points="56.6 40.23 55.16 41.4 56.36 41.54 57.72 40.36 56.6 40.23"/><polyline class="cls-182" points="54.69 39.99 53.13 41.14 54.31 41.3 55.8 40.13 54.69 39.99"/><polyline class="cls-183" points="64.63 40.98 63.73 42.2 64.14 42.23 65.03 41.01 64.63 40.98"/><polyline class="cls-184" points="47.87 38.91 45.86 39.99 46.32 40.08 48.31 38.99 47.87 38.91"/><polyline class="cls-185" points="45.97 38.54 43.83 39.6 44.92 39.81 46.99 38.74 45.97 38.54"/><polyline class="cls-186" points="44.74 38.28 42.53 39.32 42.88 39.39 45.07 38.35 44.74 38.28"/><path class="cls-187" d="M73.53,132.29l-1.3,1.18c1.72.17,3.46.34,5.22.47l1-1.22c-1.66-.11-3.27-.27-4.89-.43" transform="translate(-14.84 -91.82)"/><path class="cls-188" d="M64,131l-1.93,1.1c.79.13,1.57.27,2.39.39l2.45.37,1.62-1.14-2.29-.35c-.76-.11-1.49-.25-2.24-.37" transform="translate(-14.84 -91.82)"/><path class="cls-189" d="M56.68,129.43l-2.41,1c1,.24,2,.49,3.1.71l2.22-1c-1-.21-2-.44-2.91-.67" transform="translate(-14.84 -91.82)"/><polyline class="cls-190" points="40.57 37.29 38.08 38.26 38.5 38.38 40.97 37.4 40.57 37.29"/><path class="cls-191" d="M53.72,128.65l-2.61.95,1,.26,2.54-1-.9-.25" transform="translate(-14.84 -91.82)"/><polyline class="cls-192" points="32.1 34.57 29.05 35.36 29.86 35.67 32.86 34.86 32.1 34.57"/><polyline class="cls-193" points="30.85 34.05 27.72 34.81 28.48 35.14 31.56 34.35 30.85 34.05"/><polyline class="cls-194" points="37.79 36.52 35.11 37.44 35.42 37.53 38.08 36.6 37.79 36.52"/><path class="cls-195" d="M41.54,123.83l-3.4.62c.09,0,.16.11.26.16l3.39-.64-.25-.14" transform="translate(-14.84 -91.82)"/><polyline class="cls-196" points="25.65 31.38 22.18 31.97 22.78 32.33 26.22 31.72 25.65 31.38"/><polyline class="cls-197" points="25.01 30.95 21.49 31.51 21.68 31.64 25.18 31.07 25.01 30.95"/><polyline class="cls-198" points="33.51 35.11 30.56 35.94 32.36 36.58 34.27 37.19 36.99 36.28 35.21 35.71 33.51 35.11"/><path class="cls-199" d="M42.28,124.23l-3.35.66c.91.5,1.91,1,3,1.44l3.17-.74c-1-.44-1.92-.89-2.77-1.36" transform="translate(-14.84 -91.82)"/><path class="cls-200" d="M38.4,121.72l-3.6.49.73.57c.25.18.54.37.81.55l3.51-.56c-.25-.17-.52-.34-.76-.52l-.69-.53" transform="translate(-14.84 -91.82)"/><polyline class="cls-201" points="22.98 29.42 19.33 29.88 19.52 30.04 23.15 29.57 22.98 29.42"/><path class="cls-202" d="M37.08,120.57l-3.69.41c.12.13.28.26.42.39l3.67-.44c-.13-.12-.29-.24-.4-.36" transform="translate(-14.84 -91.82)"/><polyline class="cls-203" points="20.01 25.67 16.16 25.88 16.34 26.28 20.17 26.05 20.01 25.67"/><path class="cls-204" d="M34.58,116.83l-3.86.17a2.26,2.26,0,0,0,.15.41l3.85-.19a2,2,0,0,1-.14-.39" transform="translate(-14.84 -91.82)"/><polyline class="cls-205" points="21.81 28.29 18.09 28.68 18.21 28.8 21.93 28.42 21.81 28.29"/><polyline class="cls-206" points="19.41 22.55 15.52 22.56 15.51 22.73 19.4 22.72 19.41 22.55"/><polyline class="cls-207" points="19.5 21.84 15.62 21.79 15.55 22.21 19.43 22.23 19.5 21.84"/><polyline class="cls-208" points="19.59 21.36 15.72 21.29 15.69 21.42 19.56 21.49 19.59 21.36"/><path class="cls-209" d="M35.21,118.19l-3.82.26a10,10,0,0,0,.54.85l.66.84,3.75-.36-.62-.79a7.68,7.68,0,0,1-.51-.8" transform="translate(-14.84 -91.82)"/><path class="cls-210" d="M34.23,114.85l-3.88,0a4.26,4.26,0,0,0,.07.87l.07.43.12.44,3.86-.14-.11-.41,0-.41a3.74,3.74,0,0,1-.08-.82" transform="translate(-14.84 -91.82)"/><path class="cls-211" d="M31,111.88a11.36,11.36,0,0,0-.45,1.23l3.87.07c.15-.39.24-.77.42-1.16L31,111.88" transform="translate(-14.84 -91.82)"/><polyline class="cls-212" points="16.44 19.5 16.35 19.68 20.18 19.85 20.27 19.68 16.44 19.5"/><polyline class="cls-213" points="16.9 18.75 16.63 19.15 20.44 19.36 20.7 18.98 16.9 18.75"/><polyline class="cls-214" points="19.95 15.48 19.5 15.87 23.13 16.28 23.56 15.91 19.95 15.48"/><polyline class="cls-215" points="20.81 14.82 20.3 15.2 23.89 15.65 24.36 15.3 20.81 14.82"/><polyline class="cls-216" points="17.23 18.25 17.14 18.38 20.92 18.63 21.01 18.51 17.23 18.25"/><polyline class="cls-217" points="24.58 12.46 24.29 12.62 27.63 13.22 27.9 13.08 24.58 12.46"/><polyline class="cls-218" points="25.85 11.8 25.17 12.16 28.45 12.8 29.1 12.46 25.85 11.8"/><polyline class="cls-219" points="26.75 11.38 26.51 11.49 29.72 12.17 29.95 12.06 26.75 11.38"/><path class="cls-220" d="M34,108a17.39,17.39,0,0,0-1.58,1.68l3.76.28a14.28,14.28,0,0,1,1.48-1.57L34,108" transform="translate(-14.84 -91.82)"/><path class="cls-221" d="M38.62,104.73c-.43.26-.9.51-1.3.77l-1.21.8,3.53.49,1.13-.74c.37-.25.82-.49,1.22-.73l-3.37-.59" transform="translate(-14.84 -91.82)"/><path class="cls-222" d="M43.89,102.19c-.78.33-1.58.66-2.29,1l3.19.68c.66-.32,1.42-.63,2.15-.95l-3-.74" transform="translate(-14.84 -91.82)"/><polyline class="cls-223" points="30.15 9.93 29.8 10.06 32.8 10.83 33.13 10.7 30.15 9.93"/><path class="cls-224" d="M46.56,101.16c-.3.1-.58.2-.85.31l2.93.79c.26-.1.52-.2.8-.29l-2.88-.81" transform="translate(-14.84 -91.82)"/><polyline class="cls-225" points="39.44 6.96 38.44 7.23 40.91 8.17 41.85 7.92 39.44 6.96"/><polyline class="cls-226" points="41.19 6.52 40.15 6.77 42.52 7.74 43.49 7.5 41.19 6.52"/><polyline class="cls-227" points="32.8 8.95 32.51 9.06 35.34 9.89 35.62 9.79 32.8 8.95"/><path class="cls-228" d="M62.93,96.87l-.48.09L64.35,98l.46-.09-1.88-1.07" transform="translate(-14.84 -91.82)"/><polyline class="cls-229" points="50.2 4.68 49.06 4.88 50.88 5.96 51.95 5.77 50.2 4.68"/><polyline class="cls-230" points="51.64 4.45 51.24 4.51 52.93 5.62 53.29 5.56 51.64 4.45"/><polyline class="cls-231" points="37.59 7.46 35.55 8.05 33.6 8.68 36.37 9.53 38.2 8.94 40.11 8.39 37.59 7.46"/><path class="cls-232" d="M61.55,97.14c-1.57.3-3.09.63-4.58,1l2.24,1c1.4-.32,2.82-.63,4.3-.92l-2-1" transform="translate(-14.84 -91.82)"/><path class="cls-233" d="M70,95.74,68.23,96l-1.75.28,1.65,1.11,1.65-.26,1.67-.23L70,95.74" transform="translate(-14.84 -91.82)"/><polyline class="cls-234" points="56.8 3.71 56.28 3.77 57.65 4.93 58.13 4.87 56.8 3.71"/><path class="cls-235" d="M73.89,95.26l-1.21.14L74,96.57l1.14-.13-1.2-1.18" transform="translate(-14.84 -91.82)"/><polyline class="cls-236" points="69.35 2.6 68.08 2.67 68.72 3.89 69.91 3.82 69.35 2.6"/><path class="cls-237" d="M86.38,94.31c-.42,0-.85,0-1.27.06l.5,1.23,1.19-.06-.42-1.23" transform="translate(-14.84 -91.82)"/><polyline class="cls-238" points="60.58 3.28 60.16 3.32 61.29 4.51 61.68 4.47 60.58 3.28"/><polyline class="cls-239" points="79.73 2.31 79.18 2.31 79.12 3.56 79.64 3.56 79.73 2.31"/><polyline class="cls-240" points="82.11 2.32 80.83 2.31 80.67 3.56 81.88 3.57 82.11 2.32"/><polyline class="cls-241" points="83.7 2.34 83.27 2.34 82.97 3.58 83.38 3.58 83.7 2.34"/><path class="cls-242" d="M81.84,94.56l-2.67.19L76.53,95l1,1.2L80,96c.83-.07,1.67-.12,2.5-.18l-.7-1.22" transform="translate(-14.84 -91.82)"/><path class="cls-243" d="M93,94.14c-.91,0-1.82,0-2.72,0l-1.36,0-1.36.05.35,1.24,1.27,0,1.28,0c.85,0,1.7,0,2.55,0V94.14" transform="translate(-14.84 -91.82)"/><path class="cls-244" d="M98.54,94.16l-.32,1.24c1.19,0,2.39.06,3.59.11l.55-1.24c-1.26,0-2.54-.07-3.82-.11" transform="translate(-14.84 -91.82)"/><polyline class="cls-245" points="88.7 2.51 88.07 3.74 88.58 3.76 89.25 2.53 88.7 2.51"/><polyline class="cls-246" points="90.33 2.58 89.6 3.81 90.78 3.88 91.58 2.66 90.33 2.58"/><polyline class="cls-247" points="100.51 3.42 99.15 4.6 100.28 4.72 101.72 3.56 100.51 3.42"/><polyline class="cls-248" points="102.56 3.66 101.08 4.82 102.18 4.97 103.74 3.81 102.56 3.66"/><polyline class="cls-249" points="92.73 2.73 91.84 3.94 92.24 3.97 93.14 2.75 92.73 2.73"/><polyline class="cls-250" points="110.55 4.88 108.56 5.96 109 6.05 111.01 4.97 110.55 4.88"/><polyline class="cls-251" points="111.95 5.15 109.88 6.21 110.9 6.41 113.04 5.36 111.95 5.15"/><polyline class="cls-252" points="114 5.56 111.8 6.61 112.13 6.68 114.34 5.64 114 5.56"/><path class="cls-253" d="M109.11,94.66l-1,1.21c1.65.12,3.27.28,4.89.44l1.29-1.19c-1.72-.17-3.45-.34-5.21-.46" transform="translate(-14.84 -91.82)"/><path class="cls-254" d="M119.65,95.78,118,96.92l2.3.34c.76.11,1.49.25,2.24.38l1.93-1.1c-.8-.13-1.58-.28-2.39-.4l-2.45-.36" transform="translate(-14.84 -91.82)"/><path class="cls-255" d="M129.19,97.46l-2.22,1c1,.2,1.95.44,2.91.66l2.41-1c-1-.24-2-.49-3.1-.71" transform="translate(-14.84 -91.82)"/><polyline class="cls-256" points="118.38 6.58 115.91 7.56 116.31 7.67 118.8 6.69 118.38 6.58"/><path class="cls-257" d="M134.48,98.73l-2.54,1,.9.25,2.6-.94c-.31-.1-.63-.18-1-.27" transform="translate(-14.84 -91.82)"/><polyline class="cls-258" points="127.02 9.28 124.01 10.1 124.77 10.39 127.82 9.6 127.02 9.28"/><polyline class="cls-259" points="128.4 9.82 125.31 10.6 126.03 10.91 129.15 10.15 128.4 9.82"/><polyline class="cls-260" points="121.45 7.42 118.8 8.35 119.09 8.44 121.76 7.51 121.45 7.42"/><path class="cls-261" d="M148.16,104l-3.39.63.25.15,3.4-.63-.26-.15" transform="translate(-14.84 -91.82)"/><polyline class="cls-262" points="134.09 12.63 130.66 13.24 131.22 13.57 134.69 12.99 134.09 12.63"/><polyline class="cls-263" points="135.2 13.32 131.69 13.88 131.86 14 135.38 13.44 135.2 13.32"/><polyline class="cls-264" points="122.61 7.77 119.88 8.67 121.66 9.24 123.36 9.85 126.31 9.02 124.51 8.38 122.61 7.77"/><path class="cls-265" d="M144.68,102.26l-3.17.74c1,.44,1.92.89,2.76,1.36l3.36-.66c-.91-.49-1.91-1-2.95-1.44" transform="translate(-14.84 -91.82)"/><path class="cls-266" d="M150.22,105.26l-3.52.56c.26.17.53.35.76.52l.69.53,3.61-.49-.73-.56c-.26-.19-.54-.37-.81-.56" transform="translate(-14.84 -91.82)"/><polyline class="cls-267" points="137.35 14.91 133.72 15.38 133.89 15.54 137.54 15.08 137.35 14.91"/><path class="cls-268" d="M152.75,107.23l-3.67.44c.13.12.28.24.4.36l3.69-.42c-.13-.13-.28-.25-.42-.38" transform="translate(-14.84 -91.82)"/><polyline class="cls-269" points="140.53 18.67 136.7 18.91 136.87 19.29 140.71 19.08 140.53 18.67"/><path class="cls-270" d="M155.69,111.19l-3.86.19a1.37,1.37,0,0,1,.15.38l3.86-.17a2.17,2.17,0,0,0-.15-.4" transform="translate(-14.84 -91.82)"/><polyline class="cls-271" points="138.66 16.15 134.95 16.54 135.06 16.66 138.79 16.28 138.66 16.15"/><polyline class="cls-272" points="141.36 22.22 137.47 22.23 137.47 22.4 141.35 22.4 141.36 22.22"/><polyline class="cls-273" points="141.32 22.75 137.44 22.73 137.37 23.12 141.25 23.16 141.32 22.75"/><polyline class="cls-274" points="141.18 23.53 137.31 23.47 137.28 23.6 141.15 23.67 141.18 23.53"/><path class="cls-275" d="M154,108.45l-3.74.37.62.78c.21.27.34.54.52.8l3.81-.25c-.18-.29-.33-.57-.54-.86l-.67-.84" transform="translate(-14.84 -91.82)"/><path class="cls-276" d="M156,112l-3.87.15.12.4.05.41a3.84,3.84,0,0,1,.07.82l3.89,0a4.3,4.3,0,0,0-.08-.88l-.06-.43L156,112" transform="translate(-14.84 -91.82)"/><path class="cls-277" d="M87.72,135.58C51.16,134.89,23.91,124.77,27,113s35.3-20.72,71.86-20,63.8,10.81,60.74,22.55-35.3,20.72-71.86,20M99.14,91.86C60.61,91.13,26.63,100.6,23.39,113s25.49,23,64,23.76,72.51-8.73,75.74-21.1-25.49-23-64-23.77" transform="translate(-14.84 -91.82)"/><path class="cls-278" d="M83.73,131c-.37,0-.71.08-.77.2s.18.24.57.26c1.72.08,3.48.15,5.23.18h0c.4,0,.73-.09.76-.22s-.27-.23-.67-.24c-1.7,0-3.41-.09-5.08-.18h-.07m15.64.05h-.15c-1.7.08-3.44.12-5.15.15-.39,0-.71.11-.71.24s.3.21.66.22h.07c1.76,0,3.54-.07,5.29-.15.4,0,.68-.14.64-.26s-.32-.19-.65-.2m-25.7-.89a1.25,1.25,0,0,0-.72.15c-.15.12,0,.25.4.3,1.64.19,3.33.36,5,.5h.14a1.13,1.13,0,0,0,.75-.17c.11-.12-.11-.25-.49-.28-1.65-.14-3.29-.31-4.89-.5h-.21m35.91.11h-.28c-1.63.18-3.31.34-5,.47-.39,0-.64.15-.56.27a.88.88,0,0,0,.65.18h.2c1.73-.13,3.45-.29,5.13-.47.38,0,.59-.18.47-.3a1.05,1.05,0,0,0-.63-.15m-45.2-1.57a1.43,1.43,0,0,0-.66.11c-.21.11-.12.25.22.31,1.48.3,3,.57,4.58.82l.27,0a1.41,1.41,0,0,0,.71-.13c.17-.11,0-.25-.32-.3-1.52-.24-3-.51-4.47-.8a1.69,1.69,0,0,0-.33,0m54.8.16a1.93,1.93,0,0,0-.42,0c-1.5.27-3.05.53-4.62.76-.37,0-.54.19-.38.31a1.16,1.16,0,0,0,.6.13,2.11,2.11,0,0,0,.35,0c1.61-.24,3.21-.5,4.75-.79.35-.06.48-.2.28-.31a1.33,1.33,0,0,0-.56-.12m-63-2.18a1.68,1.68,0,0,0-.57.07c-.28.09-.27.24,0,.33,1.26.38,2.6.74,4,1.09a2.34,2.34,0,0,0,.39,0,1.45,1.45,0,0,0,.62-.09c.25-.1.19-.24-.12-.32-1.34-.33-2.64-.69-3.87-1.06a1.46,1.46,0,0,0-.44-.06m71.57.21a2.15,2.15,0,0,0-.53.06c-1.3.36-2.69.72-4.1,1-.32.07-.41.22-.18.32a1.36,1.36,0,0,0,.53.09,1.79,1.79,0,0,0,.47,0c1.45-.33,2.87-.69,4.21-1.07.3-.08.34-.23.09-.32a1.73,1.73,0,0,0-.49-.08m-78.33-2.72a1.71,1.71,0,0,0-.46,0c-.33.07-.41.22-.19.32,1,.46,2.09.9,3.23,1.32a1.67,1.67,0,0,0,.49.08,2.12,2.12,0,0,0,.52-.06c.31-.08.34-.23.09-.32-1.11-.42-2.17-.85-3.15-1.29a1.47,1.47,0,0,0-.53-.1m85.62.26a1.91,1.91,0,0,0-.63.09c-1.07.44-2.22.87-3.41,1.27-.28.1-.27.24,0,.33a1.56,1.56,0,0,0,.44.06,2,2,0,0,0,.58-.07c1.23-.42,2.4-.86,3.51-1.31.24-.1.19-.24-.12-.32a2.18,2.18,0,0,0-.38-.05m-90.69-3.15a2,2,0,0,0-.35,0c-.37,0-.53.19-.37.3A23.28,23.28,0,0,0,46,123.07a1.18,1.18,0,0,0,.56.11,2.73,2.73,0,0,0,.41,0c.35-.06.47-.21.28-.32A23,23,0,0,1,45,121.37a1.26,1.26,0,0,0-.6-.14m96.37.3a1.37,1.37,0,0,0-.7.13c-.79.49-1.66,1-2.59,1.45-.21.11-.12.25.21.31a1.24,1.24,0,0,0,.33,0,1.54,1.54,0,0,0,.66-.11c1-.48,1.86-1,2.67-1.49.18-.11,0-.25-.31-.31l-.27,0m-99.56-3.46H41c-.39,0-.64.15-.56.27A11.13,11.13,0,0,0,41.79,120a1,1,0,0,0,.62.15h.29c.38,0,.58-.17.46-.3a11,11,0,0,1-1.33-1.58,1,1,0,0,0-.64-.18m103.41.32a1.16,1.16,0,0,0-.75.17,14.9,14.9,0,0,1-1.66,1.58c-.15.12,0,.25.4.29l.21,0a1.5,1.5,0,0,0,.73-.15,14,14,0,0,0,1.7-1.63c.11-.12-.11-.24-.49-.28h-.14M40,114.75h-.06c-.4,0-.71.11-.71.24a6,6,0,0,0,.34,1.7c0,.11.32.19.65.19h.14c.39,0,.68-.13.64-.26a5.63,5.63,0,0,1-.33-1.65c0-.12-.3-.21-.67-.22m106.49.29c-.39,0-.74.09-.77.21v0a7,7,0,0,1-.68,1.65c-.08.12.18.24.57.26h.08c.36,0,.7-.07.76-.19a7,7,0,0,0,.7-1.69v0c0-.13-.26-.23-.66-.24M40.86,111.41c-.36,0-.69.08-.75.19a6.42,6.42,0,0,0-.69,1.67v0c0,.13.27.23.66.24s.75-.1.78-.23a6.78,6.78,0,0,1,.67-1.62c.07-.13-.19-.25-.58-.27h-.08m105.47.28h-.14c-.4,0-.68.14-.63.26a5.67,5.67,0,0,1,.32,1.65c0,.12.3.21.67.22h.07c.39,0,.71-.11.71-.24a6,6,0,0,0-.35-1.69c0-.11-.32-.19-.65-.2M43.74,108.17a1.26,1.26,0,0,0-.73.15,14,14,0,0,0-1.7,1.62c-.11.12.11.25.49.28h.14a1.28,1.28,0,0,0,.75-.17,13.27,13.27,0,0,1,1.66-1.58c.14-.12,0-.26-.41-.3h-.2m100.38.27a1.31,1.31,0,0,0-.28,0c-.37,0-.58.17-.46.29a10.1,10.1,0,0,1,1.34,1.59c.06.1.33.17.64.17a1.47,1.47,0,0,0,.21,0c.39,0,.63-.16.55-.28a10.58,10.58,0,0,0-1.37-1.63,1.05,1.05,0,0,0-.63-.15m-95.6-3.29a1.71,1.71,0,0,0-.66.11c-1,.48-1.85,1-2.66,1.49-.18.12,0,.26.31.31l.27,0a1.37,1.37,0,0,0,.7-.13c.79-.49,1.65-1,2.59-1.45.21-.11.12-.25-.22-.31a1.75,1.75,0,0,0-.33,0m91.43.25a1.35,1.35,0,0,0-.4,0c-.35.06-.48.2-.28.31a25.22,25.22,0,0,1,2.29,1.47,1.14,1.14,0,0,0,.6.13,1.94,1.94,0,0,0,.34,0c.36,0,.53-.19.37-.31a25.16,25.16,0,0,0-2.35-1.5,1.25,1.25,0,0,0-.57-.11M55,102.48a2,2,0,0,0-.57.07c-1.23.42-2.41.86-3.51,1.31-.24.1-.19.24.12.32a2.32,2.32,0,0,0,.38,0,1.91,1.91,0,0,0,.63-.09c1.07-.44,2.21-.87,3.4-1.27.28-.1.28-.24,0-.33a1.46,1.46,0,0,0-.44-.06m79,.21a2.12,2.12,0,0,0-.52.06c-.31.08-.35.23-.09.32,1.11.42,2.17.85,3.15,1.29a1.31,1.31,0,0,0,.52.09,1.87,1.87,0,0,0,.48,0c.32-.07.4-.22.18-.32-1-.46-2.09-.9-3.23-1.32a1.4,1.4,0,0,0-.49-.08m-71-2.44a2.25,2.25,0,0,0-.46,0c-1.45.34-2.87.7-4.21,1.07-.3.09-.34.23-.09.33a1.77,1.77,0,0,0,.5.07,1.74,1.74,0,0,0,.52-.05c1.3-.37,2.69-.72,4.09-1,.33-.08.42-.22.19-.33a1.6,1.6,0,0,0-.54-.09m63.49.17a1.85,1.85,0,0,0-.62.09c-.25.1-.2.25.12.32,1.33.34,2.64.69,3.87,1.06a1.93,1.93,0,0,0,.44.07,2,2,0,0,0,.58-.08c.28-.09.27-.24,0-.32-1.27-.39-2.61-.75-4-1.09a1.6,1.6,0,0,0-.39,0M72.14,98.55l-.34,0c-1.62.24-3.22.51-4.76.79-.35.07-.47.21-.28.32a1.25,1.25,0,0,0,.57.11,2.83,2.83,0,0,0,.41,0c1.5-.28,3.06-.54,4.63-.77.36,0,.53-.19.37-.31a1.24,1.24,0,0,0-.6-.13m45.57.12a1.48,1.48,0,0,0-.7.13c-.18.12,0,.25.31.31,1.53.24,3,.51,4.47.79a1.76,1.76,0,0,0,.33,0,1.47,1.47,0,0,0,.67-.11c.21-.1.11-.24-.22-.31-1.48-.3-3-.57-4.59-.82l-.27,0M82.09,97.45h-.21c-1.72.14-3.45.3-5.13.48-.37,0-.58.18-.46.3a1.05,1.05,0,0,0,.63.15h.28c1.63-.18,3.31-.34,5-.47.39,0,.64-.15.55-.28a.91.91,0,0,0-.64-.17m25.9.07a1.18,1.18,0,0,0-.76.17c-.1.12.12.25.5.28,1.65.14,3.29.31,4.89.49l.2,0a1.35,1.35,0,0,0,.73-.15c.15-.12,0-.25-.4-.3-1.64-.19-3.33-.36-5-.5H108M92.47,97H92.4c-1.76,0-3.54.07-5.29.15-.39,0-.67.13-.63.26s.32.19.66.2h.13c1.7-.07,3.44-.12,5.16-.14.39,0,.71-.11.71-.24s-.3-.22-.67-.22m5.35,0H97.7c-.39,0-.74.09-.77.22s.26.23.65.24h.1c1.68,0,3.37.08,5,.17h.07c.37,0,.71-.08.77-.19s-.19-.25-.58-.27c-1.7-.08-3.43-.14-5.14-.18" transform="translate(-14.84 -91.82)"/><path class="cls-279" d="M92.8,118.78a57.72,57.72,0,0,1-7.06,1.12q-3.26.31-6.73.32a66.49,66.49,0,0,1-9.25-.62,45.52,45.52,0,0,1-7.66-1.68,18.47,18.47,0,0,1-5.19-2.48,3.38,3.38,0,0,1,0-6.09,18.2,18.2,0,0,1,5.19-2.49,45.52,45.52,0,0,1,7.66-1.68,66.49,66.49,0,0,1,9.25-.62q3.48,0,6.7.32c.79.08,1.62.17,2.38.27.37,0,.78.14.78.14l-.13,0a12.86,12.86,0,0,0-1.22.5,6.35,6.35,0,0,0-1,.59,3.87,3.87,0,0,0-.72.66,2.92,2.92,0,0,0-.47.73,2,2,0,0,0-.22.79l0,.25s-.7-.15-1.11-.21a39.42,39.42,0,0,0-5-.36,34.13,34.13,0,0,0-4.78.32,24.73,24.73,0,0,0-3.92.87,8.54,8.54,0,0,0-2.64,1.31,2.07,2.07,0,0,0-1,1.6,2.1,2.1,0,0,0,1,1.61,8.77,8.77,0,0,0,2.64,1.3,22.7,22.7,0,0,0,3.92.87,34.13,34.13,0,0,0,4.78.32,38.16,38.16,0,0,0,8.42-1c2-.47,3.5-.94,5.39-1.45a52,52,0,0,1,14.09-1.53l18.32,0v4.15h-20.6v6.77l-11.77.06v-4.65Z" transform="translate(-14.84 -91.82)"/><path class="cls-280" d="M90.49,112.2v-2.37h0c0-3.08,5-4.88,14.54-4.88h22.25a2,2,0,0,1,2,2v0a2,2,0,0,1-2,2h-22c-2.31,0-3.15.46-3.15,1.24v.36a55.88,55.88,0,0,0-9.28,1.08C92,111.86,90.49,112.2,90.49,112.2Z" transform="translate(-14.84 -91.82)"/></g></g></svg>