<svg xmlns="http://www.w3.org/2000/svg" xmlns:xlink="http://www.w3.org/1999/xlink" viewBox="0 0 166.44 103.59"><defs><style>.cls-1{isolation:isolate;}.cls-2{fill:url(#New_Gradient_Swatch_17);}.cls-142,.cls-3{mix-blend-mode:multiply;opacity:0.3;}.cls-3{fill:url(#radial-gradient);}.cls-4{fill:url(#New_Gradient_Swatch_4);}.cls-5{fill:url(#New_Gradient_Swatch_4-2);}.cls-6{fill:url(#New_Gradient_Swatch_3);}.cls-7{fill:url(#New_Gradient_Swatch_3-2);}.cls-8{fill:url(#New_Gradient_Swatch_3-3);}.cls-9{fill:url(#New_Gradient_Swatch_3-4);}.cls-10{fill:url(#New_Gradient_Swatch_3-5);}.cls-11{fill:url(#New_Gradient_Swatch_3-6);}.cls-12{fill:url(#New_Gradient_Swatch_3-7);}.cls-13{fill:url(#New_Gradient_Swatch_3-8);}.cls-14{fill:url(#New_Gradient_Swatch_3-9);}.cls-15{fill:url(#New_Gradient_Swatch_3-10);}.cls-16{fill:url(#New_Gradient_Swatch_3-11);}.cls-17{fill:url(#New_Gradient_Swatch_3-12);}.cls-18{fill:url(#New_Gradient_Swatch_3-13);}.cls-19{fill:url(#New_Gradient_Swatch_3-14);}.cls-20{fill:url(#New_Gradient_Swatch_3-15);}.cls-21{fill:url(#New_Gradient_Swatch_3-16);}.cls-22{fill:url(#New_Gradient_Swatch_3-17);}.cls-23{fill:url(#New_Gradient_Swatch_3-18);}.cls-24{fill:url(#New_Gradient_Swatch_3-19);}.cls-25{fill:url(#New_Gradient_Swatch_3-20);}.cls-26{fill:url(#New_Gradient_Swatch_3-21);}.cls-27{fill:url(#New_Gradient_Swatch_3-22);}.cls-28{fill:url(#New_Gradient_Swatch_3-23);}.cls-29{fill:url(#New_Gradient_Swatch_3-24);}.cls-30{fill:url(#New_Gradient_Swatch_3-25);}.cls-31{fill:url(#New_Gradient_Swatch_3-26);}.cls-32{fill:url(#New_Gradient_Swatch_3-27);}.cls-33{fill:url(#New_Gradient_Swatch_3-28);}.cls-34{fill:url(#New_Gradient_Swatch_3-29);}.cls-35{fill:url(#New_Gradient_Swatch_3-30);}.cls-36{fill:url(#New_Gradient_Swatch_3-31);}.cls-37{fill:url(#New_Gradient_Swatch_3-32);}.cls-38{fill:url(#New_Gradient_Swatch_3-33);}.cls-39{fill:url(#New_Gradient_Swatch_3-34);}.cls-40{fill:url(#New_Gradient_Swatch_3-35);}.cls-41{fill:url(#New_Gradient_Swatch_3-36);}.cls-42{fill:url(#New_Gradient_Swatch_3-37);}.cls-43{fill:url(#New_Gradient_Swatch_3-38);}.cls-44{fill:url(#New_Gradient_Swatch_3-39);}.cls-45{fill:url(#New_Gradient_Swatch_3-40);}.cls-46{fill:url(#New_Gradient_Swatch_3-41);}.cls-47{fill:url(#New_Gradient_Swatch_3-42);}.cls-48{fill:url(#New_Gradient_Swatch_3-43);}.cls-49{fill:url(#New_Gradient_Swatch_3-44);}.cls-50{fill:url(#New_Gradient_Swatch_3-45);}.cls-51{fill:url(#New_Gradient_Swatch_3-46);}.cls-52{fill:url(#New_Gradient_Swatch_3-47);}.cls-53{fill:url(#New_Gradient_Swatch_3-48);}.cls-54{fill:url(#New_Gradient_Swatch_3-49);}.cls-55{fill:url(#New_Gradient_Swatch_3-50);}.cls-56{fill:url(#New_Gradient_Swatch_3-51);}.cls-57{fill:url(#New_Gradient_Swatch_3-52);}.cls-58{fill:url(#New_Gradient_Swatch_3-53);}.cls-59{fill:url(#New_Gradient_Swatch_3-54);}.cls-60{fill:url(#New_Gradient_Swatch_3-55);}.cls-61{fill:url(#New_Gradient_Swatch_3-56);}.cls-62{fill:url(#New_Gradient_Swatch_3-57);}.cls-63{fill:url(#New_Gradient_Swatch_3-58);}.cls-64{fill:url(#New_Gradient_Swatch_3-59);}.cls-65{fill:url(#New_Gradient_Swatch_3-60);}.cls-66{fill:url(#New_Gradient_Swatch_3-61);}.cls-67{fill:url(#New_Gradient_Swatch_3-62);}.cls-68{fill:url(#New_Gradient_Swatch_3-63);}.cls-69{fill:url(#New_Gradient_Swatch_3-64);}.cls-70{fill:url(#New_Gradient_Swatch_3-65);}.cls-71{fill:url(#New_Gradient_Swatch_3-66);}.cls-72{fill:url(#New_Gradient_Swatch_3-67);}.cls-73{fill:url(#New_Gradient_Swatch_3-68);}.cls-74{fill:url(#New_Gradient_Swatch_3-69);}.cls-75{fill:url(#New_Gradient_Swatch_3-70);}.cls-76{fill:url(#New_Gradient_Swatch_3-71);}.cls-77{fill:url(#New_Gradient_Swatch_3-72);}.cls-78{fill:url(#New_Gradient_Swatch_3-73);}.cls-79{fill:url(#New_Gradient_Swatch_3-74);}.cls-80{fill:url(#New_Gradient_Swatch_3-75);}.cls-81{fill:url(#New_Gradient_Swatch_3-76);}.cls-82{fill:url(#New_Gradient_Swatch_3-77);}.cls-83{fill:url(#New_Gradient_Swatch_3-78);}.cls-84{fill:url(#New_Gradient_Swatch_3-79);}.cls-85{fill:url(#New_Gradient_Swatch_3-80);}.cls-86{fill:url(#New_Gradient_Swatch_3-81);}.cls-87{fill:url(#New_Gradient_Swatch_3-82);}.cls-88{fill:url(#New_Gradient_Swatch_3-83);}.cls-89{fill:url(#New_Gradient_Swatch_3-84);}.cls-90{fill:url(#New_Gradient_Swatch_3-85);}.cls-91{fill:url(#New_Gradient_Swatch_3-86);}.cls-92{fill:url(#New_Gradient_Swatch_3-87);}.cls-93{fill:url(#New_Gradient_Swatch_3-88);}.cls-94{fill:url(#New_Gradient_Swatch_3-89);}.cls-95{fill:url(#New_Gradient_Swatch_3-90);}.cls-96{fill:url(#New_Gradient_Swatch_3-91);}.cls-97{fill:url(#New_Gradient_Swatch_3-92);}.cls-98{fill:url(#New_Gradient_Swatch_3-93);}.cls-99{fill:url(#New_Gradient_Swatch_3-94);}.cls-100{fill:url(#New_Gradient_Swatch_3-95);}.cls-101{fill:url(#New_Gradient_Swatch_3-96);}.cls-102{fill:url(#New_Gradient_Swatch_3-97);}.cls-103{fill:url(#New_Gradient_Swatch_3-98);}.cls-104{fill:url(#New_Gradient_Swatch_3-99);}.cls-105{fill:url(#New_Gradient_Swatch_3-100);}.cls-106{fill:url(#New_Gradient_Swatch_3-101);}.cls-107{fill:url(#New_Gradient_Swatch_3-102);}.cls-108{fill:url(#New_Gradient_Swatch_3-103);}.cls-109{fill:url(#New_Gradient_Swatch_3-104);}.cls-110{fill:url(#New_Gradient_Swatch_3-105);}.cls-111{fill:url(#New_Gradient_Swatch_3-106);}.cls-112{fill:url(#New_Gradient_Swatch_3-107);}.cls-113{fill:url(#New_Gradient_Swatch_3-108);}.cls-114{fill:url(#New_Gradient_Swatch_3-109);}.cls-115{fill:url(#New_Gradient_Swatch_3-110);}.cls-116{fill:url(#New_Gradient_Swatch_3-111);}.cls-117{fill:url(#New_Gradient_Swatch_3-112);}.cls-118{fill:url(#New_Gradient_Swatch_3-113);}.cls-119{fill:url(#New_Gradient_Swatch_3-114);}.cls-120{fill:url(#New_Gradient_Swatch_3-115);}.cls-121{fill:url(#New_Gradient_Swatch_3-116);}.cls-122{fill:url(#New_Gradient_Swatch_3-117);}.cls-123{fill:url(#New_Gradient_Swatch_3-118);}.cls-124{fill:url(#New_Gradient_Swatch_3-119);}.cls-125{fill:url(#New_Gradient_Swatch_3-120);}.cls-126{fill:url(#New_Gradient_Swatch_3-121);}.cls-127{fill:url(#New_Gradient_Swatch_3-122);}.cls-128{fill:url(#New_Gradient_Swatch_3-123);}.cls-129{fill:url(#New_Gradient_Swatch_3-124);}.cls-130{fill:url(#New_Gradient_Swatch_3-125);}.cls-131{fill:url(#New_Gradient_Swatch_3-126);}.cls-132{fill:url(#New_Gradient_Swatch_3-127);}.cls-133{fill:url(#New_Gradient_Swatch_3-128);}.cls-134{fill:url(#New_Gradient_Swatch_3-129);}.cls-135{fill:url(#New_Gradient_Swatch_3-130);}.cls-136{fill:url(#New_Gradient_Swatch_3-131);}.cls-137{fill:url(#New_Gradient_Swatch_3-132);}.cls-138{fill:url(#New_Gradient_Swatch_3-133);}.cls-139{fill:url(#New_Gradient_Swatch_3-134);}.cls-140,.cls-141,.cls-279,.cls-280{fill:none;}.cls-140{stroke:#000;}.cls-140,.cls-279,.cls-280{stroke-miterlimit:10;}.cls-141{stroke-width:3px;stroke:url(#New_Gradient_Swatch_3-135);}.cls-142{fill:url(#radial-gradient-2);}.cls-143{fill:url(#New_Gradient_Swatch_4-3);}.cls-144{fill:url(#New_Gradient_Swatch_4-4);}.cls-145{fill:url(#New_Gradient_Swatch_3-138);}.cls-146{fill:url(#New_Gradient_Swatch_3-139);}.cls-147{fill:url(#New_Gradient_Swatch_3-140);}.cls-148{fill:url(#New_Gradient_Swatch_3-141);}.cls-149{fill:url(#New_Gradient_Swatch_3-142);}.cls-150{fill:url(#New_Gradient_Swatch_3-143);}.cls-151{fill:url(#New_Gradient_Swatch_3-144);}.cls-152{fill:url(#New_Gradient_Swatch_3-145);}.cls-153{fill:url(#New_Gradient_Swatch_3-146);}.cls-154{fill:url(#New_Gradient_Swatch_3-147);}.cls-155{fill:url(#New_Gradient_Swatch_3-148);}.cls-156{fill:url(#New_Gradient_Swatch_3-149);}.cls-157{fill:url(#New_Gradient_Swatch_3-150);}.cls-158{fill:url(#New_Gradient_Swatch_3-151);}.cls-159{fill:url(#New_Gradient_Swatch_3-152);}.cls-160{fill:url(#New_Gradient_Swatch_3-153);}.cls-161{fill:url(#New_Gradient_Swatch_3-154);}.cls-162{fill:url(#New_Gradient_Swatch_3-155);}.cls-163{fill:url(#New_Gradient_Swatch_3-156);}.cls-164{fill:url(#New_Gradient_Swatch_3-157);}.cls-165{fill:url(#New_Gradient_Swatch_3-158);}.cls-166{fill:url(#New_Gradient_Swatch_3-159);}.cls-167{fill:url(#New_Gradient_Swatch_3-160);}.cls-168{fill:url(#New_Gradient_Swatch_3-161);}.cls-169{fill:url(#New_Gradient_Swatch_3-162);}.cls-170{fill:url(#New_Gradient_Swatch_3-163);}.cls-171{fill:url(#New_Gradient_Swatch_3-164);}.cls-172{fill:url(#New_Gradient_Swatch_3-165);}.cls-173{fill:url(#New_Gradient_Swatch_3-166);}.cls-174{fill:url(#New_Gradient_Swatch_3-167);}.cls-175{fill:url(#New_Gradient_Swatch_3-168);}.cls-176{fill:url(#New_Gradient_Swatch_3-169);}.cls-177{fill:url(#New_Gradient_Swatch_3-170);}.cls-178{fill:url(#New_Gradient_Swatch_3-171);}.cls-179{fill:url(#New_Gradient_Swatch_3-172);}.cls-180{fill:url(#New_Gradient_Swatch_3-173);}.cls-181{fill:url(#New_Gradient_Swatch_3-174);}.cls-182{fill:url(#New_Gradient_Swatch_3-175);}.cls-183{fill:url(#New_Gradient_Swatch_3-176);}.cls-184{fill:url(#New_Gradient_Swatch_3-177);}.cls-185{fill:url(#New_Gradient_Swatch_3-178);}.cls-186{fill:url(#New_Gradient_Swatch_3-179);}.cls-187{fill:url(#New_Gradient_Swatch_3-180);}.cls-188{fill:url(#New_Gradient_Swatch_3-181);}.cls-189{fill:url(#New_Gradient_Swatch_3-182);}.cls-190{fill:url(#New_Gradient_Swatch_3-183);}.cls-191{fill:url(#New_Gradient_Swatch_3-184);}.cls-192{fill:url(#New_Gradient_Swatch_3-185);}.cls-193{fill:url(#New_Gradient_Swatch_3-186);}.cls-194{fill:url(#New_Gradient_Swatch_3-187);}.cls-195{fill:url(#New_Gradient_Swatch_3-188);}.cls-196{fill:url(#New_Gradient_Swatch_3-189);}.cls-197{fill:url(#New_Gradient_Swatch_3-190);}.cls-198{fill:url(#New_Gradient_Swatch_3-191);}.cls-199{fill:url(#New_Gradient_Swatch_3-192);}.cls-200{fill:url(#New_Gradient_Swatch_3-193);}.cls-201{fill:url(#New_Gradient_Swatch_3-194);}.cls-202{fill:url(#New_Gradient_Swatch_3-195);}.cls-203{fill:url(#New_Gradient_Swatch_3-196);}.cls-204{fill:url(#New_Gradient_Swatch_3-197);}.cls-205{fill:url(#New_Gradient_Swatch_3-198);}.cls-206{fill:url(#New_Gradient_Swatch_3-199);}.cls-207{fill:url(#New_Gradient_Swatch_3-200);}.cls-208{fill:url(#New_Gradient_Swatch_3-201);}.cls-209{fill:url(#New_Gradient_Swatch_3-202);}.cls-210{fill:url(#New_Gradient_Swatch_3-203);}.cls-211{fill:url(#New_Gradient_Swatch_3-204);}.cls-212{fill:url(#New_Gradient_Swatch_3-205);}.cls-213{fill:url(#New_Gradient_Swatch_3-206);}.cls-214{fill:url(#New_Gradient_Swatch_3-207);}.cls-215{fill:url(#New_Gradient_Swatch_3-208);}.cls-216{fill:url(#New_Gradient_Swatch_3-209);}.cls-217{fill:url(#New_Gradient_Swatch_3-210);}.cls-218{fill:url(#New_Gradient_Swatch_3-211);}.cls-219{fill:url(#New_Gradient_Swatch_3-212);}.cls-220{fill:url(#New_Gradient_Swatch_3-213);}.cls-221{fill:url(#New_Gradient_Swatch_3-214);}.cls-222{fill:url(#New_Gradient_Swatch_3-215);}.cls-223{fill:url(#New_Gradient_Swatch_3-216);}.cls-224{fill:url(#New_Gradient_Swatch_3-217);}.cls-225{fill:url(#New_Gradient_Swatch_3-218);}.cls-226{fill:url(#New_Gradient_Swatch_3-219);}.cls-227{fill:url(#New_Gradient_Swatch_3-220);}.cls-228{fill:url(#New_Gradient_Swatch_3-221);}.cls-229{fill:url(#New_Gradient_Swatch_3-222);}.cls-230{fill:url(#New_Gradient_Swatch_3-223);}.cls-231{fill:url(#New_Gradient_Swatch_3-224);}.cls-232{fill:url(#New_Gradient_Swatch_3-225);}.cls-233{fill:url(#New_Gradient_Swatch_3-226);}.cls-234{fill:url(#New_Gradient_Swatch_3-227);}.cls-235{fill:url(#New_Gradient_Swatch_3-228);}.cls-236{fill:url(#New_Gradient_Swatch_3-229);}.cls-237{fill:url(#New_Gradient_Swatch_3-230);}.cls-238{fill:url(#New_Gradient_Swatch_3-231);}.cls-239{fill:url(#New_Gradient_Swatch_3-232);}.cls-240{fill:url(#New_Gradient_Swatch_3-233);}.cls-241{fill:url(#New_Gradient_Swatch_3-234);}.cls-242{fill:url(#New_Gradient_Swatch_3-235);}.cls-243{fill:url(#New_Gradient_Swatch_3-236);}.cls-244{fill:url(#New_Gradient_Swatch_3-237);}.cls-245{fill:url(#New_Gradient_Swatch_3-238);}.cls-246{fill:url(#New_Gradient_Swatch_3-239);}.cls-247{fill:url(#New_Gradient_Swatch_3-240);}.cls-248{fill:url(#New_Gradient_Swatch_3-241);}.cls-249{fill:url(#New_Gradient_Swatch_3-242);}.cls-250{fill:url(#New_Gradient_Swatch_3-243);}.cls-251{fill:url(#New_Gradient_Swatch_3-244);}.cls-252{fill:url(#New_Gradient_Swatch_3-245);}.cls-253{fill:url(#New_Gradient_Swatch_3-246);}.cls-254{fill:url(#New_Gradient_Swatch_3-247);}.cls-255{fill:url(#New_Gradient_Swatch_3-248);}.cls-256{fill:url(#New_Gradient_Swatch_3-249);}.cls-257{fill:url(#New_Gradient_Swatch_3-250);}.cls-258{fill:url(#New_Gradient_Swatch_3-251);}.cls-259{fill:url(#New_Gradient_Swatch_3-252);}.cls-260{fill:url(#New_Gradient_Swatch_3-253);}.cls-261{fill:url(#New_Gradient_Swatch_3-254);}.cls-262{fill:url(#New_Gradient_Swatch_3-255);}.cls-263{fill:url(#New_Gradient_Swatch_3-256);}.cls-264{fill:url(#New_Gradient_Swatch_3-257);}.cls-265{fill:url(#New_Gradient_Swatch_3-258);}.cls-266{fill:url(#New_Gradient_Swatch_3-259);}.cls-267{fill:url(#New_Gradient_Swatch_3-260);}.cls-268{fill:url(#New_Gradient_Swatch_3-261);}.cls-269{fill:url(#New_Gradient_Swatch_3-262);}.cls-270{fill:url(#New_Gradient_Swatch_3-263);}.cls-271{fill:url(#New_Gradient_Swatch_3-264);}.cls-272{fill:url(#New_Gradient_Swatch_3-265);}.cls-273{fill:url(#New_Gradient_Swatch_3-266);}.cls-274{fill:url(#New_Gradient_Swatch_3-267);}.cls-275{fill:url(#New_Gradient_Swatch_3-268);}.cls-276{fill:url(#New_Gradient_Swatch_3-269);}.cls-277{fill:url(#New_Gradient_Swatch_3-270);}.cls-278{fill:url(#New_Gradient_Swatch_3-271);}.cls-279{stroke:url(#New_Gradient_Swatch_3-272);}.cls-280{stroke:url(#New_Gradient_Swatch_3-273);}</style><linearGradient id="New_Gradient_Swatch_17" x1="5.14" y1="72.18" x2="158.14" y2="72.18" gradientUnits="userSpaceOnUse"><stop offset="0" stop-color="#bc2131"/><stop offset="0.24" stop-color="#d13d39"/><stop offset="0.47" stop-color="#ec7332"/><stop offset="0.74" stop-color="#d89544"/><stop offset="1" stop-color="#dcbd31"/></linearGradient><radialGradient id="radial-gradient" cx="33.79" cy="-1121.4" r="90.39" gradientTransform="translate(52.11 381.58) scale(0.92 0.27)" gradientUnits="userSpaceOnUse"><stop offset="0.46"/><stop offset="0.51" stop-opacity="0.77"/><stop offset="1" stop-opacity="0"/></radialGradient><linearGradient id="New_Gradient_Swatch_4" x1="-30.83" y1="144.87" x2="121.02" y2="144.87" gradientUnits="userSpaceOnUse"><stop offset="0" stop-color="#be1e2d"/><stop offset="0.06" stop-color="#ca2f31"/><stop offset="0.13" stop-color="#d33d35"/><stop offset="0.15" stop-color="#d44034"/><stop offset="0.4" stop-color="#e86426"/><stop offset="0.53" stop-color="#ef7220"/><stop offset="0.67" stop-color="#e38731"/><stop offset="0.79" stop-color="#db953c"/><stop offset="0.91" stop-color="#dcb030"/><stop offset="1" stop-color="#dcbe2a"/></linearGradient><linearGradient id="New_Gradient_Swatch_4-2" x1="26.44" y1="137.94" x2="166.07" y2="137.94" gradientTransform="translate(1.21 -0.84) rotate(0.5)" xlink:href="#New_Gradient_Swatch_4"/><linearGradient id="New_Gradient_Swatch_3" x1="142.16" y1="85.96" x2="157.96" y2="144.94" gradientUnits="userSpaceOnUse"><stop offset="0" stop-color="#d1d3d4"/><stop offset="1" stop-color="#fff"/></linearGradient><linearGradient id="New_Gradient_Swatch_3-2" x1="132.13" y1="15.87" x2="142.18" y2="53.4" xlink:href="#New_Gradient_Swatch_3"/><linearGradient id="New_Gradient_Swatch_3-3" x1="130.68" y1="12.41" x2="141.97" y2="54.52" xlink:href="#New_Gradient_Swatch_3"/><linearGradient id="New_Gradient_Swatch_3-4" x1="127.54" y1="14.49" x2="139.4" y2="58.77" xlink:href="#New_Gradient_Swatch_3"/><linearGradient id="New_Gradient_Swatch_3-5" x1="126.83" y1="15.46" x2="138.68" y2="59.65" xlink:href="#New_Gradient_Swatch_3"/><linearGradient id="New_Gradient_Swatch_3-6" x1="131.16" y1="16.32" x2="141.5" y2="54.91" xlink:href="#New_Gradient_Swatch_3"/><linearGradient id="New_Gradient_Swatch_3-7" x1="122.85" y1="16.99" x2="135.36" y2="63.68" xlink:href="#New_Gradient_Swatch_3"/><linearGradient id="New_Gradient_Swatch_3-8" x1="122" y1="18.2" x2="134.42" y2="64.54" xlink:href="#New_Gradient_Swatch_3"/><linearGradient id="New_Gradient_Swatch_3-9" x1="120.39" y1="16.79" x2="133.56" y2="65.92" xlink:href="#New_Gradient_Swatch_3"/><linearGradient id="New_Gradient_Swatch_3-10" x1="140.99" y1="93.58" x2="155.82" y2="148.91" xlink:href="#New_Gradient_Swatch_3"/><linearGradient id="New_Gradient_Swatch_3-11" x1="139.9" y1="107.84" x2="151.83" y2="152.36" xlink:href="#New_Gradient_Swatch_3"/><linearGradient id="New_Gradient_Swatch_3-12" x1="136.21" y1="116.15" x2="146.91" y2="156.08" xlink:href="#New_Gradient_Swatch_3"/><linearGradient id="New_Gradient_Swatch_3-13" x1="117.07" y1="17.82" x2="130.77" y2="68.95" xlink:href="#New_Gradient_Swatch_3"/><linearGradient id="New_Gradient_Swatch_3-14" x1="131.52" y1="112.3" x2="144.31" y2="160.02" xlink:href="#New_Gradient_Swatch_3"/><linearGradient id="New_Gradient_Swatch_3-15" x1="109.67" y1="25.24" x2="122.99" y2="74.94" xlink:href="#New_Gradient_Swatch_3"/><linearGradient id="New_Gradient_Swatch_3-16" x1="107.87" y1="25.16" x2="121.62" y2="76.51" xlink:href="#New_Gradient_Swatch_3"/><linearGradient id="New_Gradient_Swatch_3-17" x1="114.07" y1="17.23" x2="128.66" y2="71.66" xlink:href="#New_Gradient_Swatch_3"/><linearGradient id="New_Gradient_Swatch_3-18" x1="113.22" y1="107.89" x2="131.97" y2="177.86" xlink:href="#New_Gradient_Swatch_3"/><linearGradient id="New_Gradient_Swatch_3-19" x1="98.66" y1="24.88" x2="114.77" y2="85" xlink:href="#New_Gradient_Swatch_3"/><linearGradient id="New_Gradient_Swatch_3-20" x1="93.97" y1="14.21" x2="115.03" y2="92.82" xlink:href="#New_Gradient_Swatch_3"/><linearGradient id="New_Gradient_Swatch_3-21" x1="116.74" y1="38.47" x2="124.64" y2="67.95" xlink:href="#New_Gradient_Swatch_3"/><linearGradient id="New_Gradient_Swatch_3-22" x1="123.44" y1="132.74" x2="131.62" y2="163.26" xlink:href="#New_Gradient_Swatch_3"/><linearGradient id="New_Gradient_Swatch_3-23" x1="113.41" y1="129.3" x2="124.68" y2="171.35" xlink:href="#New_Gradient_Swatch_3"/><linearGradient id="New_Gradient_Swatch_3-24" x1="88.83" y1="14.09" x2="111.71" y2="99.46" xlink:href="#New_Gradient_Swatch_3"/><linearGradient id="New_Gradient_Swatch_3-25" x1="104.48" y1="114.87" x2="123.45" y2="185.69" xlink:href="#New_Gradient_Swatch_3"/><linearGradient id="New_Gradient_Swatch_3-26" x1="78.86" y1="21.77" x2="102.72" y2="110.8" xlink:href="#New_Gradient_Swatch_3"/><linearGradient id="New_Gradient_Swatch_3-27" x1="91.37" y1="111.79" x2="116.58" y2="205.86" xlink:href="#New_Gradient_Swatch_3"/><linearGradient id="New_Gradient_Swatch_3-28" x1="83.75" y1="9.35" x2="110.31" y2="108.46" xlink:href="#New_Gradient_Swatch_3"/><linearGradient id="New_Gradient_Swatch_3-29" x1="55.9" y1="-24.89" x2="115.37" y2="197.08" xlink:href="#New_Gradient_Swatch_3"/><linearGradient id="New_Gradient_Swatch_3-30" x1="64.57" y1="14.78" x2="99.69" y2="145.85" xlink:href="#New_Gradient_Swatch_3"/><linearGradient id="New_Gradient_Swatch_3-31" x1="49.43" y1="-34.54" x2="120.95" y2="232.39" xlink:href="#New_Gradient_Swatch_3"/><linearGradient id="New_Gradient_Swatch_3-32" x1="103.8" y1="133.89" x2="115.22" y2="176.53" xlink:href="#New_Gradient_Swatch_3"/><linearGradient id="New_Gradient_Swatch_3-33" x1="93.13" y1="135.08" x2="106.51" y2="185.04" xlink:href="#New_Gradient_Swatch_3"/><linearGradient id="New_Gradient_Swatch_3-34" x1="83.36" y1="135.23" x2="99.78" y2="196.52" xlink:href="#New_Gradient_Swatch_3"/><linearGradient id="New_Gradient_Swatch_3-35" x1="58.97" y1="20.68" x2="95.75" y2="157.97" xlink:href="#New_Gradient_Swatch_3"/><linearGradient id="New_Gradient_Swatch_3-36" x1="61.98" y1="39" x2="85.12" y2="125.36" xlink:href="#New_Gradient_Swatch_3"/><linearGradient id="New_Gradient_Swatch_3-37" x1="56" y1="52.41" x2="71.16" y2="108.97" xlink:href="#New_Gradient_Swatch_3"/><linearGradient id="New_Gradient_Swatch_3-38" x1="54.52" y1="54" x2="68.6" y2="106.53" xlink:href="#New_Gradient_Swatch_3"/><linearGradient id="New_Gradient_Swatch_3-39" x1="58.53" y1="33.07" x2="88.11" y2="143.46" xlink:href="#New_Gradient_Swatch_3"/><linearGradient id="New_Gradient_Swatch_3-40" x1="48.75" y1="58.72" x2="58.39" y2="94.7" xlink:href="#New_Gradient_Swatch_3"/><linearGradient id="New_Gradient_Swatch_3-41" x1="47.24" y1="58.98" x2="56.8" y2="94.65" xlink:href="#New_Gradient_Swatch_3"/><linearGradient id="New_Gradient_Swatch_3-42" x1="46.02" y1="60.07" x2="53.53" y2="88.11" xlink:href="#New_Gradient_Swatch_3"/><linearGradient id="New_Gradient_Swatch_3-43" x1="74.92" y1="143.75" x2="87.94" y2="192.33" xlink:href="#New_Gradient_Swatch_3"/><linearGradient id="New_Gradient_Swatch_3-44" x1="66.25" y1="147.4" x2="78.31" y2="192.4" xlink:href="#New_Gradient_Swatch_3"/><linearGradient id="New_Gradient_Swatch_3-45" x1="58.96" y1="149.72" x2="69.46" y2="188.91" xlink:href="#New_Gradient_Swatch_3"/><linearGradient id="New_Gradient_Swatch_3-46" x1="42.2" y1="60.72" x2="47.83" y2="81.74" xlink:href="#New_Gradient_Swatch_3"/><linearGradient id="New_Gradient_Swatch_3-47" x1="55.56" y1="151.1" x2="62.2" y2="175.88" xlink:href="#New_Gradient_Swatch_3"/><linearGradient id="New_Gradient_Swatch_3-48" x1="34.11" y1="59.66" x2="38.27" y2="75.17" xlink:href="#New_Gradient_Swatch_3"/><linearGradient id="New_Gradient_Swatch_3-49" x1="32.85" y1="59.32" x2="37.3" y2="75.94" xlink:href="#New_Gradient_Swatch_3"/><linearGradient id="New_Gradient_Swatch_3-50" x1="39.53" y1="60.83" x2="43.46" y2="75.51" xlink:href="#New_Gradient_Swatch_3"/><linearGradient id="New_Gradient_Swatch_3-51" x1="43.36" y1="148.52" x2="47.41" y2="163.63" xlink:href="#New_Gradient_Swatch_3"/><linearGradient id="New_Gradient_Swatch_3-52" x1="27.75" y1="57.77" x2="33.84" y2="80.49" xlink:href="#New_Gradient_Swatch_3"/><linearGradient id="New_Gradient_Swatch_3-53" x1="26.84" y1="57" x2="31.24" y2="73.44" xlink:href="#New_Gradient_Swatch_3"/><linearGradient id="New_Gradient_Swatch_3-54" x1="36.63" y1="59.59" x2="46.91" y2="97.94" xlink:href="#New_Gradient_Swatch_3"/><linearGradient id="New_Gradient_Swatch_3-55" x1="45.5" y1="149.98" x2="56.48" y2="190.96" xlink:href="#New_Gradient_Swatch_3"/><linearGradient id="New_Gradient_Swatch_3-56" x1="41.33" y1="149" x2="52.21" y2="189.6" xlink:href="#New_Gradient_Swatch_3"/><linearGradient id="New_Gradient_Swatch_3-57" x1="24.94" y1="56.14" x2="30.54" y2="77.03" xlink:href="#New_Gradient_Swatch_3"/><linearGradient id="New_Gradient_Swatch_3-58" x1="39.34" y1="147.08" x2="46.83" y2="175.07" xlink:href="#New_Gradient_Swatch_3"/><linearGradient id="New_Gradient_Swatch_3-59" x1="22.44" y1="54.53" x2="31.47" y2="88.21" xlink:href="#New_Gradient_Swatch_3"/><linearGradient id="New_Gradient_Swatch_3-60" x1="37.07" y1="144.86" x2="46.41" y2="179.72" xlink:href="#New_Gradient_Swatch_3"/><linearGradient id="New_Gradient_Swatch_3-61" x1="23.81" y1="55.34" x2="29.73" y2="77.44" xlink:href="#New_Gradient_Swatch_3"/><linearGradient id="New_Gradient_Swatch_3-62" x1="21.83" y1="51.56" x2="30.82" y2="85.11" xlink:href="#New_Gradient_Swatch_3"/><linearGradient id="New_Gradient_Swatch_3-63" x1="22.14" y1="51.84" x2="33.03" y2="92.47" xlink:href="#New_Gradient_Swatch_3"/><linearGradient id="New_Gradient_Swatch_3-64" x1="22.05" y1="50.45" x2="31.31" y2="85.02" xlink:href="#New_Gradient_Swatch_3"/><linearGradient id="New_Gradient_Swatch_3-65" x1="38.69" y1="148.67" x2="53.72" y2="204.76" xlink:href="#New_Gradient_Swatch_3"/><linearGradient id="New_Gradient_Swatch_3-66" x1="37.86" y1="147.59" x2="55.87" y2="214.78" xlink:href="#New_Gradient_Swatch_3"/><linearGradient id="New_Gradient_Swatch_3-67" x1="37.91" y1="143.55" x2="53.72" y2="202.53" xlink:href="#New_Gradient_Swatch_3"/><linearGradient id="New_Gradient_Swatch_3-68" x1="22.79" y1="49" x2="32.85" y2="86.58" xlink:href="#New_Gradient_Swatch_3"/><linearGradient id="New_Gradient_Swatch_3-69" x1="23.26" y1="48.85" x2="34.55" y2="90.96" xlink:href="#New_Gradient_Swatch_3"/><linearGradient id="New_Gradient_Swatch_3-70" x1="25.94" y1="45.06" x2="37.79" y2="89.28" xlink:href="#New_Gradient_Swatch_3"/><linearGradient id="New_Gradient_Swatch_3-71" x1="26.67" y1="44.17" x2="38.53" y2="88.41" xlink:href="#New_Gradient_Swatch_3"/><linearGradient id="New_Gradient_Swatch_3-72" x1="23.53" y1="47.71" x2="33.87" y2="86.3" xlink:href="#New_Gradient_Swatch_3"/><linearGradient id="New_Gradient_Swatch_3-73" x1="30.13" y1="40.67" x2="42.64" y2="87.37" xlink:href="#New_Gradient_Swatch_3"/><linearGradient id="New_Gradient_Swatch_3-74" x1="31.05" y1="39.74" x2="43.47" y2="86.08" xlink:href="#New_Gradient_Swatch_3"/><linearGradient id="New_Gradient_Swatch_3-75" x1="32.07" y1="38.95" x2="45.22" y2="88.01" xlink:href="#New_Gradient_Swatch_3"/><linearGradient id="New_Gradient_Swatch_3-76" x1="39.85" y1="138.79" x2="54.66" y2="194.07" xlink:href="#New_Gradient_Swatch_3"/><linearGradient id="New_Gradient_Swatch_3-77" x1="43.22" y1="133.04" x2="55.16" y2="177.59" xlink:href="#New_Gradient_Swatch_3"/><linearGradient id="New_Gradient_Swatch_3-78" x1="47.88" y1="128.34" x2="58.58" y2="168.26" xlink:href="#New_Gradient_Swatch_3"/><linearGradient id="New_Gradient_Swatch_3-79" x1="34.97" y1="36.35" x2="48.69" y2="87.54" xlink:href="#New_Gradient_Swatch_3"/><linearGradient id="New_Gradient_Swatch_3-80" x1="50.92" y1="126.06" x2="63.71" y2="173.78" xlink:href="#New_Gradient_Swatch_3"/><linearGradient id="New_Gradient_Swatch_3-81" x1="42.67" y1="30.05" x2="55.99" y2="79.74" xlink:href="#New_Gradient_Swatch_3"/><linearGradient id="New_Gradient_Swatch_3-82" x1="44.13" y1="28.83" x2="57.89" y2="80.18" xlink:href="#New_Gradient_Swatch_3"/><linearGradient id="New_Gradient_Swatch_3-83" x1="37.27" y1="34.34" x2="51.88" y2="88.84" xlink:href="#New_Gradient_Swatch_3"/><linearGradient id="New_Gradient_Swatch_3-84" x1="64.53" y1="112.96" x2="83.31" y2="183.02" xlink:href="#New_Gradient_Swatch_3"/><linearGradient id="New_Gradient_Swatch_3-85" x1="51.49" y1="22.22" x2="67.58" y2="82.28" xlink:href="#New_Gradient_Swatch_3"/><linearGradient id="New_Gradient_Swatch_3-86" x1="52.28" y1="18.35" x2="73.34" y2="96.95" xlink:href="#New_Gradient_Swatch_3"/><linearGradient id="New_Gradient_Swatch_3-87" x1="39.86" y1="32.72" x2="47.77" y2="62.24" xlink:href="#New_Gradient_Swatch_3"/><linearGradient id="New_Gradient_Swatch_3-88" x1="62.63" y1="119.15" x2="70.8" y2="149.64" xlink:href="#New_Gradient_Swatch_3"/><linearGradient id="New_Gradient_Swatch_3-89" x1="70.23" y1="113.52" x2="81.5" y2="155.57" xlink:href="#New_Gradient_Swatch_3"/><linearGradient id="New_Gradient_Swatch_3-90" x1="56" y1="13.15" x2="78.87" y2="98.52" xlink:href="#New_Gradient_Swatch_3"/><linearGradient id="New_Gradient_Swatch_3-91" x1="73.1" y1="105.32" x2="92.08" y2="176.15" xlink:href="#New_Gradient_Swatch_3"/><linearGradient id="New_Gradient_Swatch_3-92" x1="65.19" y1="2.59" x2="89.05" y2="91.62" xlink:href="#New_Gradient_Swatch_3"/><linearGradient id="New_Gradient_Swatch_3-93" x1="81.32" y1="90.15" x2="106.49" y2="184.11" xlink:href="#New_Gradient_Swatch_3"/><linearGradient id="New_Gradient_Swatch_3-94" x1="58.18" y1="7.08" x2="84.74" y2="106.19" xlink:href="#New_Gradient_Swatch_3"/><linearGradient id="New_Gradient_Swatch_3-95" x1="60.14" y1="-55.33" x2="119.64" y2="166.73" xlink:href="#New_Gradient_Swatch_3"/><linearGradient id="New_Gradient_Swatch_3-96" x1="70.62" y1="-23.5" x2="105.75" y2="107.61" xlink:href="#New_Gradient_Swatch_3"/><linearGradient id="New_Gradient_Swatch_3-97" x1="57.48" y1="-79.72" x2="128.16" y2="184.04" xlink:href="#New_Gradient_Swatch_3"/><linearGradient id="New_Gradient_Swatch_3-98" x1="79.72" y1="108.46" x2="91.15" y2="151.13" xlink:href="#New_Gradient_Swatch_3"/><linearGradient id="New_Gradient_Swatch_3-99" x1="88.85" y1="101.52" x2="102.23" y2="151.48" xlink:href="#New_Gradient_Swatch_3"/><linearGradient id="New_Gradient_Swatch_3-100" x1="96.23" y1="92.44" x2="112.66" y2="153.78" xlink:href="#New_Gradient_Swatch_3"/><linearGradient id="New_Gradient_Swatch_3-101" x1="74.92" y1="-34.26" x2="111.7" y2="103" xlink:href="#New_Gradient_Swatch_3"/><linearGradient id="New_Gradient_Swatch_3-102" x1="82.65" y1="-12.49" x2="105.76" y2="73.77" xlink:href="#New_Gradient_Swatch_3"/><linearGradient id="New_Gradient_Swatch_3-103" x1="94.91" y1="-2.46" x2="110.04" y2="54.01" xlink:href="#New_Gradient_Swatch_3"/><linearGradient id="New_Gradient_Swatch_3-104" x1="97.21" y1="-0.98" x2="111.31" y2="51.63" xlink:href="#New_Gradient_Swatch_3"/><linearGradient id="New_Gradient_Swatch_3-105" x1="81.05" y1="-25.42" x2="110.58" y2="84.8" xlink:href="#New_Gradient_Swatch_3"/><linearGradient id="New_Gradient_Swatch_3-106" x1="106.49" y1="7.36" x2="116.13" y2="43.34" xlink:href="#New_Gradient_Swatch_3"/><linearGradient id="New_Gradient_Swatch_3-107" x1="108.06" y1="7.34" x2="117.62" y2="43.01" xlink:href="#New_Gradient_Swatch_3"/><linearGradient id="New_Gradient_Swatch_3-108" x1="110.89" y1="12.26" x2="118.4" y2="40.29" xlink:href="#New_Gradient_Swatch_3"/><linearGradient id="New_Gradient_Swatch_3-109" x1="107.34" y1="93.92" x2="120.37" y2="142.53" xlink:href="#New_Gradient_Swatch_3"/><linearGradient id="New_Gradient_Swatch_3-110" x1="116.77" y1="93.1" x2="128.83" y2="138.1" xlink:href="#New_Gradient_Swatch_3"/><linearGradient id="New_Gradient_Swatch_3-111" x1="125.29" y1="95.38" x2="135.78" y2="134.52" xlink:href="#New_Gradient_Swatch_3"/><linearGradient id="New_Gradient_Swatch_3-112" x1="116.19" y1="17.13" x2="121.82" y2="38.15" xlink:href="#New_Gradient_Swatch_3"/><linearGradient id="New_Gradient_Swatch_3-113" x1="131.73" y1="105.34" x2="138.36" y2="130.06" xlink:href="#New_Gradient_Swatch_3"/><linearGradient id="New_Gradient_Swatch_3-114" x1="125.42" y1="22.47" x2="129.59" y2="38.04" xlink:href="#New_Gradient_Swatch_3"/><linearGradient id="New_Gradient_Swatch_3-115" x1="126.45" y1="21.94" x2="130.92" y2="38.61" xlink:href="#New_Gradient_Swatch_3"/><linearGradient id="New_Gradient_Swatch_3-116" x1="120.2" y1="22" x2="124.13" y2="36.68" xlink:href="#New_Gradient_Swatch_3"/><linearGradient id="New_Gradient_Swatch_3-117" x1="145.95" y1="115.49" x2="150" y2="130.6" xlink:href="#New_Gradient_Swatch_3"/><linearGradient id="New_Gradient_Swatch_3-118" x1="130.27" y1="18.7" x2="136.37" y2="41.47" xlink:href="#New_Gradient_Swatch_3"/><linearGradient id="New_Gradient_Swatch_3-119" x1="132.51" y1="24.4" x2="136.92" y2="40.89" xlink:href="#New_Gradient_Swatch_3"/><linearGradient id="New_Gradient_Swatch_3-120" x1="118.1" y1="4.62" x2="128.38" y2="42.98" xlink:href="#New_Gradient_Swatch_3"/><linearGradient id="New_Gradient_Swatch_3-121" x1="138.37" y1="93.68" x2="149.35" y2="134.66" xlink:href="#New_Gradient_Swatch_3"/><linearGradient id="New_Gradient_Swatch_3-122" x1="142.61" y1="94.92" x2="153.5" y2="135.56" xlink:href="#New_Gradient_Swatch_3"/><linearGradient id="New_Gradient_Swatch_3-123" x1="133.48" y1="21.82" x2="139.07" y2="42.69" xlink:href="#New_Gradient_Swatch_3"/><linearGradient id="New_Gradient_Swatch_3-124" x1="147.28" y1="106.84" x2="154.77" y2="134.77" xlink:href="#New_Gradient_Swatch_3"/><linearGradient id="New_Gradient_Swatch_3-125" x1="133.27" y1="13.36" x2="142.3" y2="47.04" xlink:href="#New_Gradient_Swatch_3"/><linearGradient id="New_Gradient_Swatch_3-126" x1="148.1" y1="103.66" x2="157.43" y2="138.46" xlink:href="#New_Gradient_Swatch_3"/><linearGradient id="New_Gradient_Swatch_3-127" x1="134.35" y1="21.65" x2="140.28" y2="43.76" xlink:href="#New_Gradient_Swatch_3"/><linearGradient id="New_Gradient_Swatch_3-128" x1="133.92" y1="16.43" x2="142.9" y2="49.98" xlink:href="#New_Gradient_Swatch_3"/><linearGradient id="New_Gradient_Swatch_3-129" x1="132.13" y1="10.63" x2="143" y2="51.21" xlink:href="#New_Gradient_Swatch_3"/><linearGradient id="New_Gradient_Swatch_3-130" x1="133.48" y1="16.74" x2="142.75" y2="51.31" xlink:href="#New_Gradient_Swatch_3"/><linearGradient id="New_Gradient_Swatch_3-131" x1="141.99" y1="83.11" x2="157.02" y2="139.2" xlink:href="#New_Gradient_Swatch_3"/><linearGradient id="New_Gradient_Swatch_3-132" x1="140.48" y1="75.46" x2="158.49" y2="142.65" xlink:href="#New_Gradient_Swatch_3"/><linearGradient id="New_Gradient_Swatch_3-133" x1="91.51" y1="120.25" x2="103.57" y2="165.25" xlink:href="#New_Gradient_Swatch_3"/><linearGradient id="New_Gradient_Swatch_3-134" x1="91.51" y1="120.23" x2="103.58" y2="165.28" xlink:href="#New_Gradient_Swatch_3"/><linearGradient id="New_Gradient_Swatch_3-135" x1="-179.69" y1="531.11" x2="-179.69" y2="490.32" gradientTransform="translate(475.71 -251.11) rotate(25.29)" xlink:href="#New_Gradient_Swatch_3"/><radialGradient id="radial-gradient-2" cx="33.79" cy="-1222.38" r="90.39" gradientTransform="translate(57.48 348.89) scale(0.81 0.25)" gradientUnits="userSpaceOnUse"><stop offset="0.76"/><stop offset="0.79" stop-opacity="0.77"/><stop offset="1" stop-opacity="0"/></radialGradient><linearGradient id="New_Gradient_Swatch_4-3" x1="-25.49" y1="120.06" x2="126.36" y2="120.06" xlink:href="#New_Gradient_Swatch_4"/><linearGradient id="New_Gradient_Swatch_4-4" x1="31.78" y1="113.13" x2="171.41" y2="113.13" gradientTransform="translate(1 -0.89) rotate(0.5)" xlink:href="#New_Gradient_Swatch_4"/><linearGradient id="New_Gradient_Swatch_3-138" x1="147.5" y1="61.15" x2="163.31" y2="120.13" xlink:href="#New_Gradient_Swatch_3"/><linearGradient id="New_Gradient_Swatch_3-139" x1="137.47" y1="-8.94" x2="147.52" y2="28.59" xlink:href="#New_Gradient_Swatch_3"/><linearGradient id="New_Gradient_Swatch_3-140" x1="136.02" y1="-12.4" x2="147.31" y2="29.71" xlink:href="#New_Gradient_Swatch_3"/><linearGradient id="New_Gradient_Swatch_3-141" x1="132.88" y1="-10.32" x2="144.75" y2="33.95" xlink:href="#New_Gradient_Swatch_3"/><linearGradient id="New_Gradient_Swatch_3-142" x1="132.17" y1="-9.35" x2="144.02" y2="34.84" xlink:href="#New_Gradient_Swatch_3"/><linearGradient id="New_Gradient_Swatch_3-143" x1="136.5" y1="-8.49" x2="146.84" y2="30.1" xlink:href="#New_Gradient_Swatch_3"/><linearGradient id="New_Gradient_Swatch_3-144" x1="128.19" y1="-7.82" x2="140.7" y2="38.87" xlink:href="#New_Gradient_Swatch_3"/><linearGradient id="New_Gradient_Swatch_3-145" x1="127.34" y1="-6.61" x2="139.76" y2="39.73" xlink:href="#New_Gradient_Swatch_3"/><linearGradient id="New_Gradient_Swatch_3-146" x1="125.74" y1="-8.02" x2="138.9" y2="41.11" xlink:href="#New_Gradient_Swatch_3"/><linearGradient id="New_Gradient_Swatch_3-147" x1="146.33" y1="68.77" x2="161.16" y2="124.1" xlink:href="#New_Gradient_Swatch_3"/><linearGradient id="New_Gradient_Swatch_3-148" x1="145.24" y1="83.03" x2="157.17" y2="127.55" xlink:href="#New_Gradient_Swatch_3"/><linearGradient id="New_Gradient_Swatch_3-149" x1="141.55" y1="91.34" x2="152.25" y2="131.27" xlink:href="#New_Gradient_Swatch_3"/><linearGradient id="New_Gradient_Swatch_3-150" x1="122.41" y1="-6.99" x2="136.11" y2="44.14" xlink:href="#New_Gradient_Swatch_3"/><linearGradient id="New_Gradient_Swatch_3-151" x1="136.87" y1="87.49" x2="149.65" y2="135.21" xlink:href="#New_Gradient_Swatch_3"/><linearGradient id="New_Gradient_Swatch_3-152" x1="115.02" y1="0.43" x2="128.33" y2="50.13" xlink:href="#New_Gradient_Swatch_3"/><linearGradient id="New_Gradient_Swatch_3-153" x1="113.21" y1="0.35" x2="126.96" y2="51.69" xlink:href="#New_Gradient_Swatch_3"/><linearGradient id="New_Gradient_Swatch_3-154" x1="119.41" y1="-7.58" x2="134" y2="46.85" xlink:href="#New_Gradient_Swatch_3"/><linearGradient id="New_Gradient_Swatch_3-155" x1="118.56" y1="83.08" x2="137.31" y2="153.05" xlink:href="#New_Gradient_Swatch_3"/><linearGradient id="New_Gradient_Swatch_3-156" x1="104" y1="0.06" x2="120.11" y2="60.19" xlink:href="#New_Gradient_Swatch_3"/><linearGradient id="New_Gradient_Swatch_3-157" x1="99.31" y1="-10.6" x2="120.37" y2="68.01" xlink:href="#New_Gradient_Swatch_3"/><linearGradient id="New_Gradient_Swatch_3-158" x1="122.08" y1="13.66" x2="129.99" y2="43.14" xlink:href="#New_Gradient_Swatch_3"/><linearGradient id="New_Gradient_Swatch_3-159" x1="128.78" y1="107.93" x2="136.96" y2="138.45" xlink:href="#New_Gradient_Swatch_3"/><linearGradient id="New_Gradient_Swatch_3-160" x1="118.75" y1="104.49" x2="130.02" y2="146.54" xlink:href="#New_Gradient_Swatch_3"/><linearGradient id="New_Gradient_Swatch_3-161" x1="94.17" y1="-10.72" x2="117.05" y2="74.65" xlink:href="#New_Gradient_Swatch_3"/><linearGradient id="New_Gradient_Swatch_3-162" x1="109.82" y1="90.06" x2="128.79" y2="160.88" xlink:href="#New_Gradient_Swatch_3"/><linearGradient id="New_Gradient_Swatch_3-163" x1="84.2" y1="-3.04" x2="108.06" y2="85.99" xlink:href="#New_Gradient_Swatch_3"/><linearGradient id="New_Gradient_Swatch_3-164" x1="96.71" y1="86.98" x2="121.92" y2="181.05" xlink:href="#New_Gradient_Swatch_3"/><linearGradient id="New_Gradient_Swatch_3-165" x1="89.09" y1="-15.46" x2="115.65" y2="83.65" xlink:href="#New_Gradient_Swatch_3"/><linearGradient id="New_Gradient_Swatch_3-166" x1="61.24" y1="-49.7" x2="120.71" y2="172.27" xlink:href="#New_Gradient_Swatch_3"/><linearGradient id="New_Gradient_Swatch_3-167" x1="69.91" y1="-10.03" x2="105.03" y2="121.04" xlink:href="#New_Gradient_Swatch_3"/><linearGradient id="New_Gradient_Swatch_3-168" x1="54.77" y1="-59.35" x2="126.29" y2="207.58" xlink:href="#New_Gradient_Swatch_3"/><linearGradient id="New_Gradient_Swatch_3-169" x1="109.14" y1="109.08" x2="120.56" y2="151.72" xlink:href="#New_Gradient_Swatch_3"/><linearGradient id="New_Gradient_Swatch_3-170" x1="98.47" y1="110.27" x2="111.85" y2="160.23" xlink:href="#New_Gradient_Swatch_3"/><linearGradient id="New_Gradient_Swatch_3-171" x1="88.7" y1="110.42" x2="105.12" y2="171.7" xlink:href="#New_Gradient_Swatch_3"/><linearGradient id="New_Gradient_Swatch_3-172" x1="64.31" y1="-4.13" x2="101.1" y2="133.16" xlink:href="#New_Gradient_Swatch_3"/><linearGradient id="New_Gradient_Swatch_3-173" x1="67.32" y1="14.19" x2="90.46" y2="100.55" xlink:href="#New_Gradient_Swatch_3"/><linearGradient id="New_Gradient_Swatch_3-174" x1="61.34" y1="27.6" x2="76.5" y2="84.16" xlink:href="#New_Gradient_Swatch_3"/><linearGradient id="New_Gradient_Swatch_3-175" x1="59.87" y1="29.19" x2="73.94" y2="81.72" xlink:href="#New_Gradient_Swatch_3"/><linearGradient id="New_Gradient_Swatch_3-176" x1="63.87" y1="8.25" x2="93.45" y2="118.65" xlink:href="#New_Gradient_Swatch_3"/><linearGradient id="New_Gradient_Swatch_3-177" x1="54.09" y1="33.91" x2="63.73" y2="69.89" xlink:href="#New_Gradient_Swatch_3"/><linearGradient id="New_Gradient_Swatch_3-178" x1="52.58" y1="34.17" x2="62.14" y2="69.84" xlink:href="#New_Gradient_Swatch_3"/><linearGradient id="New_Gradient_Swatch_3-179" x1="51.36" y1="35.26" x2="58.87" y2="63.3" xlink:href="#New_Gradient_Swatch_3"/><linearGradient id="New_Gradient_Swatch_3-180" x1="80.26" y1="118.94" x2="93.28" y2="167.52" xlink:href="#New_Gradient_Swatch_3"/><linearGradient id="New_Gradient_Swatch_3-181" x1="71.59" y1="122.59" x2="83.65" y2="167.59" xlink:href="#New_Gradient_Swatch_3"/><linearGradient id="New_Gradient_Swatch_3-182" x1="64.3" y1="124.91" x2="74.8" y2="164.1" xlink:href="#New_Gradient_Swatch_3"/><linearGradient id="New_Gradient_Swatch_3-183" x1="47.54" y1="35.91" x2="53.17" y2="56.93" xlink:href="#New_Gradient_Swatch_3"/><linearGradient id="New_Gradient_Swatch_3-184" x1="60.9" y1="126.29" x2="67.54" y2="151.07" xlink:href="#New_Gradient_Swatch_3"/><linearGradient id="New_Gradient_Swatch_3-185" x1="39.45" y1="34.85" x2="43.61" y2="50.36" xlink:href="#New_Gradient_Swatch_3"/><linearGradient id="New_Gradient_Swatch_3-186" x1="38.19" y1="34.51" x2="42.65" y2="51.13" xlink:href="#New_Gradient_Swatch_3"/><linearGradient id="New_Gradient_Swatch_3-187" x1="44.87" y1="36.02" x2="48.8" y2="50.7" xlink:href="#New_Gradient_Swatch_3"/><linearGradient id="New_Gradient_Swatch_3-188" x1="48.7" y1="123.71" x2="52.75" y2="138.81" xlink:href="#New_Gradient_Swatch_3"/><linearGradient id="New_Gradient_Swatch_3-189" x1="33.09" y1="32.95" x2="39.18" y2="55.67" xlink:href="#New_Gradient_Swatch_3"/><linearGradient id="New_Gradient_Swatch_3-190" x1="32.18" y1="32.19" x2="36.58" y2="48.62" xlink:href="#New_Gradient_Swatch_3"/><linearGradient id="New_Gradient_Swatch_3-191" x1="41.98" y1="34.78" x2="52.25" y2="73.13" xlink:href="#New_Gradient_Swatch_3"/><linearGradient id="New_Gradient_Swatch_3-192" x1="50.84" y1="125.17" x2="61.82" y2="166.15" xlink:href="#New_Gradient_Swatch_3"/><linearGradient id="New_Gradient_Swatch_3-193" x1="46.67" y1="124.19" x2="57.55" y2="164.79" xlink:href="#New_Gradient_Swatch_3"/><linearGradient id="New_Gradient_Swatch_3-194" x1="30.28" y1="31.33" x2="35.88" y2="52.22" xlink:href="#New_Gradient_Swatch_3"/><linearGradient id="New_Gradient_Swatch_3-195" x1="44.68" y1="122.27" x2="52.17" y2="150.26" xlink:href="#New_Gradient_Swatch_3"/><linearGradient id="New_Gradient_Swatch_3-196" x1="27.79" y1="29.72" x2="36.81" y2="63.4" xlink:href="#New_Gradient_Swatch_3"/><linearGradient id="New_Gradient_Swatch_3-197" x1="42.41" y1="120.05" x2="51.75" y2="154.91" xlink:href="#New_Gradient_Swatch_3"/><linearGradient id="New_Gradient_Swatch_3-198" x1="29.15" y1="30.53" x2="35.07" y2="52.63" xlink:href="#New_Gradient_Swatch_3"/><linearGradient id="New_Gradient_Swatch_3-199" x1="27.17" y1="26.75" x2="36.16" y2="60.3" xlink:href="#New_Gradient_Swatch_3"/><linearGradient id="New_Gradient_Swatch_3-200" x1="27.48" y1="27.02" x2="38.37" y2="67.66" xlink:href="#New_Gradient_Swatch_3"/><linearGradient id="New_Gradient_Swatch_3-201" x1="27.39" y1="25.64" x2="36.65" y2="60.2" xlink:href="#New_Gradient_Swatch_3"/><linearGradient id="New_Gradient_Swatch_3-202" x1="44.03" y1="123.86" x2="59.06" y2="179.95" xlink:href="#New_Gradient_Swatch_3"/><linearGradient id="New_Gradient_Swatch_3-203" x1="43.2" y1="122.78" x2="61.21" y2="189.97" xlink:href="#New_Gradient_Swatch_3"/><linearGradient id="New_Gradient_Swatch_3-204" x1="43.25" y1="118.74" x2="59.06" y2="177.72" xlink:href="#New_Gradient_Swatch_3"/><linearGradient id="New_Gradient_Swatch_3-205" x1="28.13" y1="24.19" x2="38.2" y2="61.77" xlink:href="#New_Gradient_Swatch_3"/><linearGradient id="New_Gradient_Swatch_3-206" x1="28.6" y1="24.04" x2="39.89" y2="66.15" xlink:href="#New_Gradient_Swatch_3"/><linearGradient id="New_Gradient_Swatch_3-207" x1="31.29" y1="20.25" x2="43.13" y2="64.47" xlink:href="#New_Gradient_Swatch_3"/><linearGradient id="New_Gradient_Swatch_3-208" x1="32.01" y1="19.36" x2="43.87" y2="63.6" xlink:href="#New_Gradient_Swatch_3"/><linearGradient id="New_Gradient_Swatch_3-209" x1="28.87" y1="22.9" x2="39.21" y2="61.48" xlink:href="#New_Gradient_Swatch_3"/><linearGradient id="New_Gradient_Swatch_3-210" x1="35.47" y1="15.86" x2="47.98" y2="62.56" xlink:href="#New_Gradient_Swatch_3"/><linearGradient id="New_Gradient_Swatch_3-211" x1="36.39" y1="14.93" x2="48.81" y2="61.27" xlink:href="#New_Gradient_Swatch_3"/><linearGradient id="New_Gradient_Swatch_3-212" x1="37.41" y1="14.14" x2="50.56" y2="63.2" xlink:href="#New_Gradient_Swatch_3"/><linearGradient id="New_Gradient_Swatch_3-213" x1="45.19" y1="113.98" x2="60" y2="169.26" xlink:href="#New_Gradient_Swatch_3"/><linearGradient id="New_Gradient_Swatch_3-214" x1="48.56" y1="108.23" x2="60.5" y2="152.78" xlink:href="#New_Gradient_Swatch_3"/><linearGradient id="New_Gradient_Swatch_3-215" x1="53.22" y1="103.53" x2="63.92" y2="143.45" xlink:href="#New_Gradient_Swatch_3"/><linearGradient id="New_Gradient_Swatch_3-216" x1="40.31" y1="11.54" x2="54.03" y2="62.73" xlink:href="#New_Gradient_Swatch_3"/><linearGradient id="New_Gradient_Swatch_3-217" x1="56.26" y1="101.25" x2="69.05" y2="148.96" xlink:href="#New_Gradient_Swatch_3"/><linearGradient id="New_Gradient_Swatch_3-218" x1="48.01" y1="5.24" x2="61.33" y2="54.93" xlink:href="#New_Gradient_Swatch_3"/><linearGradient id="New_Gradient_Swatch_3-219" x1="49.47" y1="4.02" x2="63.23" y2="55.37" xlink:href="#New_Gradient_Swatch_3"/><linearGradient id="New_Gradient_Swatch_3-220" x1="42.61" y1="9.53" x2="57.22" y2="64.03" xlink:href="#New_Gradient_Swatch_3"/><linearGradient id="New_Gradient_Swatch_3-221" x1="69.88" y1="88.15" x2="88.65" y2="158.21" xlink:href="#New_Gradient_Swatch_3"/><linearGradient id="New_Gradient_Swatch_3-222" x1="56.83" y1="-2.59" x2="72.92" y2="57.47" xlink:href="#New_Gradient_Swatch_3"/><linearGradient id="New_Gradient_Swatch_3-223" x1="57.62" y1="-6.46" x2="78.69" y2="72.14" xlink:href="#New_Gradient_Swatch_3"/><linearGradient id="New_Gradient_Swatch_3-224" x1="45.2" y1="7.91" x2="53.11" y2="37.43" xlink:href="#New_Gradient_Swatch_3"/><linearGradient id="New_Gradient_Swatch_3-225" x1="67.97" y1="94.34" x2="76.14" y2="124.83" xlink:href="#New_Gradient_Swatch_3"/><linearGradient id="New_Gradient_Swatch_3-226" x1="75.57" y1="88.71" x2="86.84" y2="130.76" xlink:href="#New_Gradient_Swatch_3"/><linearGradient id="New_Gradient_Swatch_3-227" x1="61.34" y1="-11.66" x2="84.21" y2="73.71" xlink:href="#New_Gradient_Swatch_3"/><linearGradient id="New_Gradient_Swatch_3-228" x1="78.44" y1="80.51" x2="97.42" y2="151.34" xlink:href="#New_Gradient_Swatch_3"/><linearGradient id="New_Gradient_Swatch_3-229" x1="70.53" y1="-22.22" x2="94.39" y2="66.81" xlink:href="#New_Gradient_Swatch_3"/><linearGradient id="New_Gradient_Swatch_3-230" x1="86.66" y1="65.34" x2="111.83" y2="159.3" xlink:href="#New_Gradient_Swatch_3"/><linearGradient id="New_Gradient_Swatch_3-231" x1="63.52" y1="-17.73" x2="90.08" y2="81.38" xlink:href="#New_Gradient_Swatch_3"/><linearGradient id="New_Gradient_Swatch_3-232" x1="65.48" y1="-80.14" x2="124.98" y2="141.92" xlink:href="#New_Gradient_Swatch_3"/><linearGradient id="New_Gradient_Swatch_3-233" x1="75.96" y1="-48.31" x2="111.09" y2="82.8" xlink:href="#New_Gradient_Swatch_3"/><linearGradient id="New_Gradient_Swatch_3-234" x1="62.83" y1="-104.53" x2="133.5" y2="159.23" xlink:href="#New_Gradient_Swatch_3"/><linearGradient id="New_Gradient_Swatch_3-235" x1="85.06" y1="83.65" x2="96.49" y2="126.32" xlink:href="#New_Gradient_Swatch_3"/><linearGradient id="New_Gradient_Swatch_3-236" x1="94.19" y1="76.71" x2="107.57" y2="126.67" xlink:href="#New_Gradient_Swatch_3"/><linearGradient id="New_Gradient_Swatch_3-237" x1="101.57" y1="67.63" x2="118.01" y2="128.97" xlink:href="#New_Gradient_Swatch_3"/><linearGradient id="New_Gradient_Swatch_3-238" x1="80.26" y1="-59.07" x2="117.04" y2="78.19" xlink:href="#New_Gradient_Swatch_3"/><linearGradient id="New_Gradient_Swatch_3-239" x1="87.99" y1="-37.3" x2="111.11" y2="48.96" xlink:href="#New_Gradient_Swatch_3"/><linearGradient id="New_Gradient_Swatch_3-240" x1="100.25" y1="-27.27" x2="115.38" y2="29.2" xlink:href="#New_Gradient_Swatch_3"/><linearGradient id="New_Gradient_Swatch_3-241" x1="102.55" y1="-25.79" x2="116.65" y2="26.82" xlink:href="#New_Gradient_Swatch_3"/><linearGradient id="New_Gradient_Swatch_3-242" x1="86.39" y1="-50.23" x2="115.92" y2="59.99" xlink:href="#New_Gradient_Swatch_3"/><linearGradient id="New_Gradient_Swatch_3-243" x1="111.83" y1="-17.45" x2="121.47" y2="18.53" xlink:href="#New_Gradient_Swatch_3"/><linearGradient id="New_Gradient_Swatch_3-244" x1="113.4" y1="-17.47" x2="122.96" y2="18.2" xlink:href="#New_Gradient_Swatch_3"/><linearGradient id="New_Gradient_Swatch_3-245" x1="116.23" y1="-12.55" x2="123.74" y2="15.48" xlink:href="#New_Gradient_Swatch_3"/><linearGradient id="New_Gradient_Swatch_3-246" x1="112.68" y1="69.11" x2="125.71" y2="117.72" xlink:href="#New_Gradient_Swatch_3"/><linearGradient id="New_Gradient_Swatch_3-247" x1="122.11" y1="68.29" x2="134.17" y2="113.29" xlink:href="#New_Gradient_Swatch_3"/><linearGradient id="New_Gradient_Swatch_3-248" x1="130.63" y1="70.57" x2="141.12" y2="109.71" xlink:href="#New_Gradient_Swatch_3"/><linearGradient id="New_Gradient_Swatch_3-249" x1="121.53" y1="-7.68" x2="127.16" y2="13.33" xlink:href="#New_Gradient_Swatch_3"/><linearGradient id="New_Gradient_Swatch_3-250" x1="137.07" y1="80.53" x2="143.7" y2="105.25" xlink:href="#New_Gradient_Swatch_3"/><linearGradient id="New_Gradient_Swatch_3-251" x1="130.77" y1="-2.34" x2="134.94" y2="13.23" xlink:href="#New_Gradient_Swatch_3"/><linearGradient id="New_Gradient_Swatch_3-252" x1="131.79" y1="-2.87" x2="136.26" y2="13.8" xlink:href="#New_Gradient_Swatch_3"/><linearGradient id="New_Gradient_Swatch_3-253" x1="125.54" y1="-2.81" x2="129.47" y2="11.87" xlink:href="#New_Gradient_Swatch_3"/><linearGradient id="New_Gradient_Swatch_3-254" x1="151.3" y1="90.68" x2="155.34" y2="105.78" xlink:href="#New_Gradient_Swatch_3"/><linearGradient id="New_Gradient_Swatch_3-255" x1="135.61" y1="-6.11" x2="141.71" y2="16.66" xlink:href="#New_Gradient_Swatch_3"/><linearGradient id="New_Gradient_Swatch_3-256" x1="137.85" y1="-0.41" x2="142.26" y2="16.08" xlink:href="#New_Gradient_Swatch_3"/><linearGradient id="New_Gradient_Swatch_3-257" x1="123.44" y1="-20.19" x2="133.72" y2="18.17" xlink:href="#New_Gradient_Swatch_3"/><linearGradient id="New_Gradient_Swatch_3-258" x1="143.71" y1="68.87" x2="154.69" y2="109.85" xlink:href="#New_Gradient_Swatch_3"/><linearGradient id="New_Gradient_Swatch_3-259" x1="147.95" y1="70.11" x2="158.84" y2="110.75" xlink:href="#New_Gradient_Swatch_3"/><linearGradient id="New_Gradient_Swatch_3-260" x1="138.82" y1="-2.99" x2="144.42" y2="17.88" xlink:href="#New_Gradient_Swatch_3"/><linearGradient id="New_Gradient_Swatch_3-261" x1="152.62" y1="82.03" x2="160.11" y2="109.96" xlink:href="#New_Gradient_Swatch_3"/><linearGradient id="New_Gradient_Swatch_3-262" x1="138.62" y1="-11.45" x2="147.64" y2="22.23" xlink:href="#New_Gradient_Swatch_3"/><linearGradient id="New_Gradient_Swatch_3-263" x1="153.44" y1="78.85" x2="162.77" y2="113.65" xlink:href="#New_Gradient_Swatch_3"/><linearGradient id="New_Gradient_Swatch_3-264" x1="139.69" y1="-3.16" x2="145.62" y2="18.94" xlink:href="#New_Gradient_Swatch_3"/><linearGradient id="New_Gradient_Swatch_3-265" x1="139.26" y1="-8.38" x2="148.24" y2="25.17" xlink:href="#New_Gradient_Swatch_3"/><linearGradient id="New_Gradient_Swatch_3-266" x1="137.47" y1="-14.18" x2="148.34" y2="26.4" xlink:href="#New_Gradient_Swatch_3"/><linearGradient id="New_Gradient_Swatch_3-267" x1="138.83" y1="-8.07" x2="148.09" y2="26.5" xlink:href="#New_Gradient_Swatch_3"/><linearGradient id="New_Gradient_Swatch_3-268" x1="147.33" y1="58.3" x2="162.36" y2="114.39" xlink:href="#New_Gradient_Swatch_3"/><linearGradient id="New_Gradient_Swatch_3-269" x1="145.82" y1="50.65" x2="163.83" y2="117.84" xlink:href="#New_Gradient_Swatch_3"/><linearGradient id="New_Gradient_Swatch_3-270" x1="96.85" y1="95.44" x2="108.91" y2="140.44" xlink:href="#New_Gradient_Swatch_3"/><linearGradient id="New_Gradient_Swatch_3-271" x1="96.85" y1="95.42" x2="108.92" y2="140.47" xlink:href="#New_Gradient_Swatch_3"/><linearGradient id="New_Gradient_Swatch_3-272" x1="62.98" y1="112.83" x2="133.9" y2="112.83" xlink:href="#New_Gradient_Swatch_3"/><linearGradient id="New_Gradient_Swatch_3-273" x1="98.31" y1="107.5" x2="137.93" y2="107.5" xlink:href="#New_Gradient_Swatch_3"/></defs><g class="cls-1"><g id="Layer_1" data-name="Layer 1"><rect class="cls-2" x="5.14" y="40.76" width="153" height="62.83" rx="10"/><ellipse class="cls-3" cx="83.22" cy="74.62" rx="83.22" ry="24.74"/><path class="cls-4" d="M166.07,137.43a.43.43,0,0,0,0,0c.17-11.56-27.43-21.18-64-21.87-38.43-.73-72.19,8.67-75.41,21a7.84,7.84,0,0,0-.24,2l.12,13.85c.05,5.89,7.32,11.27,19.3,15.21,1.74.57,3.59,1.11,5.52,1.61,1.51.4,3.08.78,4.7,1.13,1.42.31,2.88.6,4.37.88s2.75.49,4.18.71,2.69.4,4.07.58,2.64.33,4,.48,2.67.27,4,.39,2.71.22,4.09.3,2.76.17,4.16.23,2.85.12,4.29.15l1.27,0c1,0,2.09,0,3.13,0,1.51,0,3,0,4.49,0s3.14-.06,4.69-.12c1.75-.07,3.47-.15,5.18-.26,2.32-.15,4.61-.32,6.85-.54a158.57,158.57,0,0,0,25.26-4.34c2.39-.64,4.66-1.33,6.78-2.06,1.55-.52,3-1.08,4.4-1.66,1.16-.48,2.26-1,3.29-1.48s1.79-.91,2.61-1.39,1.47-.88,2.14-1.34,1.23-.86,1.79-1.31,1-.87,1.48-1.3.84-.87,1.21-1.31a13,13,0,0,0,1-1.35,10.32,10.32,0,0,0,.73-1.39,10.78,10.78,0,0,0,.4-1.17c0-.11.05-.2.07-.3a6.75,6.75,0,0,0,.18-1.54v-.12Zm-.18,1.54c0,.1,0,0,0-.11C165.9,138.9,165.9,138.93,165.89,139Z" transform="translate(-14.84 -90.76)"/><ellipse class="cls-5" cx="96.25" cy="137.94" rx="69.81" ry="22.37" transform="translate(-16.05 -89.91) rotate(-0.5)"/><path class="cls-6" d="M158.69,139.13l-3.86-.07c-.14.38-.23.77-.41,1.15l3.82.15a12.18,12.18,0,0,0,.45-1.23" transform="translate(-14.84 -90.76)"/><polyline class="cls-7" points="139.4 49.8 139.31 49.97 143.12 50.15 143.21 49.98 139.4 49.8"/><polyline class="cls-8" points="139.14 50.3 138.89 50.67 142.67 50.9 142.94 50.5 139.14 50.3"/><polyline class="cls-9" points="136.46 53.36 136.04 53.73 139.63 54.15 140.08 53.77 136.46 53.36"/><polyline class="cls-10" points="135.71 53.98 135.24 54.34 138.78 54.81 139.29 54.43 135.71 53.98"/><polyline class="cls-11" points="138.66 51.02 138.58 51.14 142.34 51.4 142.43 51.27 138.66 51.02"/><polyline class="cls-12" points="131.98 56.4 131.71 56.54 135.02 57.16 135.31 57.01 131.98 56.4"/><polyline class="cls-13" points="131.17 56.83 130.53 57.16 133.76 57.81 134.44 57.46 131.17 56.83"/><polyline class="cls-14" points="129.91 57.45 129.68 57.55 132.86 58.24 133.1 58.12 129.91 57.45"/><path class="cls-15" d="M153.15,142.24a15.3,15.3,0,0,1-1.48,1.57l3.64.38a16.23,16.23,0,0,0,1.58-1.67l-3.74-.28" transform="translate(-14.84 -90.76)"/><path class="cls-16" d="M149.65,145.42l-1.12.74c-.38.24-.82.48-1.23.72l3.36.59c.44-.26.9-.51,1.3-.77l1.2-.79-3.51-.49" transform="translate(-14.84 -90.76)"/><path class="cls-17" d="M144.52,148.31c-.66.33-1.41.63-2.13.95l3,.74c.78-.33,1.57-.66,2.28-1l-3.18-.68" transform="translate(-14.84 -90.76)"/><polyline class="cls-18" points="126.84 58.78 126.51 58.91 129.47 59.68 129.83 59.55 126.84 58.78"/><path class="cls-19" d="M140.69,149.92l-.79.3,2.86.81c.3-.1.57-.21.85-.32l-2.92-.79" transform="translate(-14.84 -90.76)"/><polyline class="cls-20" points="118.77 61.43 117.83 61.68 120.23 62.63 121.23 62.37 118.77 61.43"/><polyline class="cls-21" points="117.17 61.86 116.19 62.09 118.49 63.07 119.52 62.82 117.17 61.86"/><polyline class="cls-22" points="124.31 59.72 124.04 59.82 126.84 60.65 127.13 60.55 124.31 59.72"/><path class="cls-23" d="M125.05,154.14l-.46.08,1.87,1.07.48-.08-1.89-1.07" transform="translate(-14.84 -90.76)"/><polyline class="cls-24" points="108.84 63.63 107.78 63.82 109.52 64.91 110.65 64.71 108.84 63.63"/><polyline class="cls-25" points="106.8 63.98 106.44 64.03 108.09 65.14 108.48 65.08 106.8 63.98"/><polyline class="cls-26" points="123.28 60.08 121.47 60.66 119.56 61.22 122.08 62.14 124.1 61.55 126.04 60.92 123.28 60.08"/><path class="cls-27" d="M130.16,153.06c-1.39.32-2.8.63-4.28.92l2,1.05c1.57-.3,3.08-.63,4.56-1l-2.23-1" transform="translate(-14.84 -90.76)"/><path class="cls-28" d="M121.28,154.79l-1.63.25-1.67.24,1.43,1.14,1.78-.25,1.74-.27-1.65-1.11" transform="translate(-14.84 -90.76)"/><polyline class="cls-29" points="102.1 64.66 101.62 64.72 102.95 65.87 103.47 65.81 102.1 64.66"/><path class="cls-30" d="M115.49,155.59l-1.13.14,1.19,1.17,1.21-.15-1.27-1.16" transform="translate(-14.84 -90.76)"/><polyline class="cls-31" points="91.08 65.69 89.89 65.76 90.45 66.98 91.72 66.91 91.08 65.69"/><path class="cls-32" d="M103.89,156.56l-1.19.06.42,1.22,1.26-.05-.49-1.23" transform="translate(-14.84 -90.76)"/><polyline class="cls-33" points="98.47 65.08 98.09 65.12 99.19 66.3 99.6 66.25 98.47 65.08"/><polyline class="cls-34" points="80.72 66.02 80.21 66.03 80.12 67.26 80.67 67.26 80.72 66.02"/><polyline class="cls-35" points="79.18 66.03 77.98 66.01 77.75 67.25 79.03 67.27 79.18 66.03"/><polyline class="cls-36" points="76.9 66 76.5 66 76.17 67.23 76.6 67.24 76.9 66"/><path class="cls-37" d="M111.9,156l-2.47.22c-.82.07-1.66.12-2.49.18l.7,1.22c.88-.07,1.77-.12,2.65-.2l2.63-.23-1-1.19" transform="translate(-14.84 -90.76)"/><path class="cls-38" d="M101.61,156.66l-1.26.05-1.27,0c-.85,0-1.69.05-2.54,0V158c.9,0,1.81,0,2.71,0l1.35,0,1.35-.05-.35-1.23" transform="translate(-14.84 -90.76)"/><path class="cls-39" d="M87.76,156.65l-.55,1.23c1.26.05,2.53.07,3.81.11l.32-1.24c-1.2,0-2.39-.05-3.58-.1" transform="translate(-14.84 -90.76)"/><polyline class="cls-40" points="71.31 65.82 70.65 67.05 71.19 67.07 71.81 65.84 71.31 65.82"/><polyline class="cls-41" points="69.12 65.7 68.32 66.92 69.57 67 70.3 65.77 69.12 65.7"/><polyline class="cls-42" points="59.67 64.86 58.23 66.03 59.43 66.16 60.79 64.99 59.67 64.86"/><polyline class="cls-43" points="57.77 64.62 56.22 65.77 57.39 65.92 58.87 64.77 57.77 64.62"/><polyline class="cls-44" points="67.67 65.61 66.77 66.83 67.18 66.85 68.06 65.64 67.67 65.61"/><polyline class="cls-45" points="50.98 63.54 48.98 64.62 49.44 64.71 51.42 63.63 50.98 63.54"/><polyline class="cls-46" points="49.09 63.18 46.96 64.23 48.04 64.44 50.1 63.38 49.09 63.18"/><polyline class="cls-47" points="47.87 62.92 45.66 63.95 46.01 64.03 48.2 62.99 47.87 62.92"/><path class="cls-48" d="M76.59,155.85,75.3,157c1.71.17,3.44.34,5.19.46l1-1.2c-1.65-.12-3.26-.27-4.87-.44" transform="translate(-14.84 -90.76)"/><path class="cls-49" d="M67.1,154.53l-1.92,1.09c.79.13,1.57.28,2.38.4l2.44.36,1.62-1.13-2.29-.35c-.76-.11-1.48-.25-2.23-.37" transform="translate(-14.84 -90.76)"/><path class="cls-50" d="M59.82,153l-2.4,1c1,.24,2,.49,3.08.71l2.21-1c-1-.21-1.94-.44-2.89-.67" transform="translate(-14.84 -90.76)"/><polyline class="cls-51" points="43.72 61.94 41.23 62.9 41.65 63.02 44.11 62.04 43.72 61.94"/><path class="cls-52" d="M56.87,152.24l-2.59.94,1,.26,2.53-1c-.31-.07-.61-.16-.9-.24" transform="translate(-14.84 -90.76)"/><polyline class="cls-53" points="35.28 59.22 32.25 60.01 33.05 60.33 36.03 59.52 35.28 59.22"/><polyline class="cls-54" points="34.03 58.71 30.92 59.46 31.67 59.79 34.74 59.01 34.03 58.71"/><polyline class="cls-55" points="40.94 61.16 38.27 62.08 38.59 62.17 41.23 61.25 40.94 61.16"/><path class="cls-56" d="M44.75,147.43l-3.39.62a2.26,2.26,0,0,0,.26.16l3.37-.64a1.38,1.38,0,0,1-.24-.14" transform="translate(-14.84 -90.76)"/><polyline class="cls-57" points="28.86 56.05 25.4 56.63 26 56.99 29.42 56.39 28.86 56.05"/><polyline class="cls-58" points="28.22 55.63 24.72 56.18 24.9 56.3 28.39 55.74 28.22 55.63"/><polyline class="cls-59" points="36.69 59.77 33.75 60.59 35.54 61.23 37.44 61.83 40.15 60.93 38.38 60.36 36.69 59.77"/><path class="cls-60" d="M45.49,147.84l-3.34.65c.9.49,1.9,1,2.93,1.44l3.16-.74c-1-.44-1.91-.89-2.75-1.35" transform="translate(-14.84 -90.76)"/><path class="cls-61" d="M41.62,145.34l-3.59.48.73.57c.25.18.54.36.8.55l3.51-.56c-.26-.17-.53-.34-.76-.52l-.69-.52" transform="translate(-14.84 -90.76)"/><polyline class="cls-62" points="26.2 54.1 22.57 54.55 22.75 54.72 26.37 54.25 26.2 54.1"/><path class="cls-63" d="M40.3,144.18l-3.67.42c.12.13.28.25.42.38l3.65-.43c-.13-.12-.28-.24-.4-.37" transform="translate(-14.84 -90.76)"/><polyline class="cls-64" points="23.24 50.36 19.41 50.57 19.59 50.98 23.41 50.74 23.24 50.36"/><path class="cls-65" d="M37.81,140.47l-3.84.16a2.26,2.26,0,0,0,.15.41l3.84-.19a3,3,0,0,1-.15-.38" transform="translate(-14.84 -90.76)"/><polyline class="cls-66" points="25.04 52.98 21.33 53.36 21.45 53.49 25.15 53.1 25.04 52.98"/><polyline class="cls-67" points="22.64 47.27 18.78 47.27 18.77 47.44 22.64 47.43 22.64 47.27"/><polyline class="cls-68" points="22.74 46.55 18.88 46.51 18.8 46.92 22.66 46.94 22.74 46.55"/><polyline class="cls-69" points="22.82 46.08 18.97 46 18.94 46.14 22.8 46.2 22.82 46.08"/><path class="cls-70" d="M38.44,141.82l-3.8.26a9.88,9.88,0,0,0,.54.84l.66.84,3.72-.36-.61-.78a8.9,8.9,0,0,1-.51-.8" transform="translate(-14.84 -90.76)"/><path class="cls-71" d="M37.47,138.5l-3.87,0a4.27,4.27,0,0,0,.08.87l.06.43.12.43,3.85-.14-.11-.4-.06-.41a3.7,3.7,0,0,1-.07-.81" transform="translate(-14.84 -90.76)"/><path class="cls-72" d="M34.26,135.53c-.2.41-.29.82-.45,1.23l3.86.07c.14-.38.23-.77.41-1.15l-3.82-.15" transform="translate(-14.84 -90.76)"/><polyline class="cls-73" points="19.69 44.23 19.6 44.4 23.42 44.57 23.51 44.41 19.69 44.23"/><polyline class="cls-74" points="20.15 43.48 19.88 43.88 23.68 44.08 23.93 43.7 20.15 43.48"/><polyline class="cls-75" points="23.19 40.22 22.74 40.61 26.35 41.01 26.78 40.65 23.19 40.22"/><polyline class="cls-76" points="24.04 39.57 23.53 39.95 27.1 40.39 27.58 40.04 24.04 39.57"/><polyline class="cls-77" points="20.48 42.98 20.39 43.11 24.15 43.36 24.24 43.23 20.48 42.98"/><polyline class="cls-78" points="27.8 37.22 27.51 37.37 30.83 37.98 31.1 37.83 27.8 37.22"/><polyline class="cls-79" points="29.06 36.56 28.38 36.91 31.65 37.55 32.29 37.22 29.06 36.56"/><polyline class="cls-80" points="29.96 36.14 29.71 36.25 32.91 36.93 33.14 36.82 29.96 36.14"/><path class="cls-81" d="M37.19,131.7a15.09,15.09,0,0,0-1.57,1.67l3.74.28a15.16,15.16,0,0,1,1.47-1.57l-3.64-.38" transform="translate(-14.84 -90.76)"/><path class="cls-82" d="M41.84,128.42c-.44.26-.9.51-1.3.77l-1.2.79,3.51.49,1.13-.74c.37-.25.81-.48,1.22-.72l-3.36-.59" transform="translate(-14.84 -90.76)"/><path class="cls-83" d="M47.08,125.89c-.77.33-1.57.66-2.28,1l3.18.69c.66-.33,1.41-.64,2.14-1l-3-.74" transform="translate(-14.84 -90.76)"/><polyline class="cls-84" points="33.34 34.69 32.99 34.83 35.97 35.59 36.31 35.47 33.34 34.69"/><path class="cls-85" d="M49.74,124.86c-.3.1-.57.21-.84.32l2.91.78c.26-.1.52-.2.8-.29l-2.87-.81" transform="translate(-14.84 -90.76)"/><polyline class="cls-86" points="42.59 31.74 41.59 32.01 44.05 32.94 44.98 32.69 42.59 31.74"/><polyline class="cls-87" points="44.33 31.3 43.3 31.55 45.65 32.52 46.62 32.28 44.33 31.3"/><polyline class="cls-88" points="35.98 33.73 35.69 33.83 38.5 34.65 38.78 34.56 35.98 33.73"/><path class="cls-89" d="M66,120.6l-.48.08,1.9,1.07.45-.09L66,120.6" transform="translate(-14.84 -90.76)"/><polyline class="cls-90" points="53.3 29.47 52.16 29.67 53.97 30.75 55.04 30.56 53.3 29.47"/><polyline class="cls-91" points="54.73 29.24 54.34 29.3 56.01 30.4 56.38 30.34 54.73 29.24"/><polyline class="cls-92" points="40.74 32.24 38.72 32.83 36.78 33.45 39.53 34.3 41.35 33.72 43.26 33.16 40.74 32.24"/><path class="cls-93" d="M64.67,120.86c-1.57.3-3.08.63-4.56,1l2.23,1c1.39-.32,2.8-.64,4.28-.92l-2-1" transform="translate(-14.84 -90.76)"/><path class="cls-94" d="M73.09,119.47l-1.78.25-1.74.27,1.65,1.11,1.63-.25,1.67-.24-1.43-1.14" transform="translate(-14.84 -90.76)"/><polyline class="cls-95" points="59.86 28.51 59.35 28.57 60.72 29.72 61.2 29.66 59.86 28.51"/><path class="cls-96" d="M77,119l-1.21.15L77,120.3l1.13-.14L77,119" transform="translate(-14.84 -90.76)"/><polyline class="cls-97" points="72.36 27.39 71.1 27.46 71.73 28.68 72.92 28.62 72.36 27.39"/><path class="cls-98" d="M89.39,118l-1.27.06.5,1.23c.39,0,.79,0,1.19-.06L89.39,118" transform="translate(-14.84 -90.76)"/><polyline class="cls-99" points="63.63 28.08 63.22 28.12 64.34 29.3 64.73 29.26 63.63 28.08"/><polyline class="cls-100" points="82.69 27.11 82.14 27.11 82.09 28.35 82.61 28.35 82.69 27.11"/><polyline class="cls-101" points="85.07 27.12 83.79 27.11 83.64 28.35 84.84 28.36 85.07 27.12"/><polyline class="cls-102" points="86.65 27.14 86.22 27.14 85.92 28.38 86.33 28.38 86.65 27.14"/><path class="cls-103" d="M84.87,118.29c-.89.07-1.78.12-2.66.2l-2.63.23,1,1.18,2.47-.21c.82-.08,1.65-.12,2.48-.18l-.69-1.22" transform="translate(-14.84 -90.76)"/><path class="cls-104" d="M96,117.88c-.9,0-1.8,0-2.71,0l-1.35,0-1.35,0,.35,1.23,1.26,0,1.27,0c.85,0,1.69,0,2.55,0l0-1.24" transform="translate(-14.84 -90.76)"/><path class="cls-105" d="M101.49,117.9l-.32,1.24c1.19,0,2.38,0,3.57.1l.56-1.23c-1.26-.05-2.54-.07-3.81-.11" transform="translate(-14.84 -90.76)"/><polyline class="cls-106" points="91.63 27.31 91 28.53 91.51 28.56 92.17 27.33 91.63 27.31"/><polyline class="cls-107" points="93.25 27.38 92.52 28.6 93.7 28.67 94.5 27.46 93.25 27.38"/><polyline class="cls-108" points="103.39 28.22 102.03 29.39 103.15 29.51 104.58 28.35 103.39 28.22"/><polyline class="cls-109" points="105.43 28.45 103.94 29.61 105.05 29.76 106.6 28.61 105.43 28.45"/><polyline class="cls-110" points="95.64 27.53 94.76 28.74 95.15 28.76 96.05 27.55 95.64 27.53"/><polyline class="cls-111" points="113.38 29.67 111.4 30.75 111.83 30.83 113.84 29.75 113.38 29.67"/><polyline class="cls-112" points="114.77 29.93 112.72 31 113.73 31.2 115.86 30.14 114.77 29.93"/><polyline class="cls-113" points="116.81 30.35 114.62 31.39 114.95 31.46 117.16 30.42 116.81 30.35"/><path class="cls-114" d="M112,118.39l-1,1.21c1.65.12,3.26.27,4.87.44l1.29-1.18c-1.71-.18-3.43-.34-5.19-.47" transform="translate(-14.84 -90.76)"/><path class="cls-115" d="M122.5,119.51l-1.62,1.13,2.29.34,2.23.38,1.92-1.09c-.79-.13-1.57-.28-2.38-.4l-2.44-.36" transform="translate(-14.84 -90.76)"/><path class="cls-116" d="M132,121.18l-2.21,1c1,.21,1.94.44,2.9.67l2.4-1c-1-.24-2-.49-3.09-.71" transform="translate(-14.84 -90.76)"/><polyline class="cls-117" points="121.17 31.36 118.71 32.34 119.11 32.44 121.59 31.47 121.17 31.36"/><path class="cls-118" d="M137.27,122.45l-2.53,1c.3.08.61.16.89.25l2.6-.94-1-.26" transform="translate(-14.84 -90.76)"/><polyline class="cls-119" points="129.77 34.05 126.78 34.86 127.54 35.15 130.57 34.36 129.77 34.05"/><polyline class="cls-120" points="131.15 34.59 128.08 35.36 128.78 35.67 131.9 34.91 131.15 34.59"/><polyline class="cls-121" points="124.23 32.2 121.59 33.13 121.88 33.21 124.54 32.29 124.23 32.2"/><path class="cls-122" d="M150.88,127.68l-3.37.63.25.15,3.39-.63-.27-.15" transform="translate(-14.84 -90.76)"/><polyline class="cls-123" points="136.82 37.38 133.39 37.99 133.96 38.32 137.41 37.74 136.82 37.38"/><polyline class="cls-124" points="137.91 38.07 134.43 38.63 134.59 38.75 138.1 38.19 137.91 38.07"/><polyline class="cls-125" points="125.38 32.54 122.67 33.45 124.44 34.01 126.13 34.61 129.07 33.78 127.27 33.15 125.38 32.54"/><path class="cls-126" d="M147.42,126l-3.16.74c1,.44,1.92.89,2.76,1.35l3.34-.65c-.91-.5-1.91-1-2.94-1.44" transform="translate(-14.84 -90.76)"/><path class="cls-127" d="M152.94,129l-3.5.56c.25.17.52.34.75.51l.69.53,3.59-.49-.73-.56c-.25-.19-.53-.37-.8-.55" transform="translate(-14.84 -90.76)"/><polyline class="cls-128" points="140.06 39.66 136.45 40.13 136.62 40.28 140.25 39.82 140.06 39.66"/><path class="cls-129" d="M155.46,130.91l-3.66.43c.13.12.28.24.4.36l3.68-.41c-.13-.13-.29-.25-.42-.38" transform="translate(-14.84 -90.76)"/><polyline class="cls-130" points="143.22 43.4 139.41 43.63 139.58 44.01 143.41 43.8 143.22 43.4"/><path class="cls-131" d="M158.38,134.85l-3.84.19a1.37,1.37,0,0,1,.15.38l3.84-.17a2.17,2.17,0,0,0-.15-.4" transform="translate(-14.84 -90.76)"/><polyline class="cls-132" points="141.37 40.89 137.66 41.28 137.78 41.4 141.49 41.02 141.37 40.89"/><polyline class="cls-133" points="144.05 46.93 140.18 46.95 140.17 47.11 144.04 47.11 144.05 46.93"/><polyline class="cls-134" points="144.01 47.46 140.15 47.44 140.08 47.83 143.94 47.87 144.01 47.46"/><polyline class="cls-135" points="143.87 48.24 140.02 48.17 139.99 48.3 143.84 48.38 143.87 48.24"/><path class="cls-136" d="M156.66,132.13l-3.72.36.61.78c.21.26.34.53.52.8l3.79-.26a8,8,0,0,0-.54-.85l-.66-.83" transform="translate(-14.84 -90.76)"/><path class="cls-137" d="M158.64,135.62l-3.85.14.12.41.05.41a3.7,3.7,0,0,1,.07.81l3.87,0a4.27,4.27,0,0,0-.08-.87l-.06-.44-.12-.43" transform="translate(-14.84 -90.76)"/><path class="cls-138" d="M90.72,159.14c-36.4-.7-63.52-10.77-60.47-22.45s35.14-20.63,71.54-19.94,63.51,10.77,60.46,22.45-35.14,20.63-71.53,19.94m11.37-43.53c-38.36-.73-72.19,8.7-75.41,21s25.37,22.93,63.74,23.66,72.18-8.7,75.4-21-25.37-22.93-63.73-23.66" transform="translate(-14.84 -90.76)"/><path class="cls-139" d="M86.75,154.52c-.37,0-.71.08-.78.2s.19.24.58.26c1.71.08,3.46.14,5.21.18h0c.4,0,.73-.09.76-.22s-.27-.23-.66-.24c-1.71,0-3.41-.09-5.07-.17h-.06m15.56,0h-.15c-1.69.08-3.42.13-5.12.15-.39,0-.71.11-.71.24s.3.21.66.22h.07c1.75,0,3.53-.07,5.27-.15.39,0,.67-.13.63-.26s-.32-.19-.65-.2m-25.58-.88a1.25,1.25,0,0,0-.72.15c-.14.11,0,.25.4.29,1.63.19,3.32.36,5,.51h.14a1.1,1.1,0,0,0,.74-.17c.11-.12-.11-.25-.48-.28-1.65-.14-3.28-.3-4.87-.49h-.21m35.75.1-.28,0c-1.62.18-3.29.33-5,.46-.39,0-.63.15-.55.28s.33.17.64.17h.21c1.71-.13,3.43-.29,5.1-.48.37,0,.58-.17.47-.29a1.14,1.14,0,0,0-.63-.16m-45-1.56a1.54,1.54,0,0,0-.66.11c-.22.11-.12.25.21.32,1.47.29,3,.56,4.56.81l.28,0a1.33,1.33,0,0,0,.69-.13c.18-.11,0-.25-.31-.3-1.51-.24-3-.51-4.45-.8a1.66,1.66,0,0,0-.32,0m54.54.17a1.39,1.39,0,0,0-.41,0c-1.49.28-3,.53-4.61.76-.36.05-.53.19-.37.3a1.26,1.26,0,0,0,.6.14l.34,0c1.61-.24,3.2-.5,4.74-.79.35-.06.47-.2.27-.31a1.18,1.18,0,0,0-.56-.11m-62.68-2.18a1.68,1.68,0,0,0-.57.07c-.28.09-.27.24,0,.33,1.26.38,2.59.74,4,1.08a2.3,2.3,0,0,0,.39.05,1.85,1.85,0,0,0,.62-.09c.24-.1.19-.25-.12-.32-1.33-.34-2.63-.69-3.85-1.06a1.46,1.46,0,0,0-.44-.06m71.24.21a2.12,2.12,0,0,0-.52.06c-1.3.36-2.67.71-4.08,1-.32.08-.41.22-.18.32a1.47,1.47,0,0,0,.53.1,2.25,2.25,0,0,0,.46,0c1.45-.34,2.86-.69,4.2-1.07.3-.08.33-.23.08-.32a1.67,1.67,0,0,0-.49-.08m-78-2.7a1.72,1.72,0,0,0-.46,0c-.33.07-.41.22-.18.32,1,.45,2.07.9,3.21,1.32a1.35,1.35,0,0,0,.48.07,1.8,1.8,0,0,0,.53,0c.3-.09.33-.23.08-.33-1.1-.41-2.15-.84-3.13-1.28a1.33,1.33,0,0,0-.53-.09m85.23.26a1.45,1.45,0,0,0-.62.09c-1.06.43-2.21.86-3.4,1.26-.27.09-.27.24,0,.32a1.56,1.56,0,0,0,.44.06,1.74,1.74,0,0,0,.58-.07c1.22-.41,2.39-.85,3.49-1.3.25-.1.19-.24-.12-.32a1.48,1.48,0,0,0-.38,0m-90.28-3.14-.35,0c-.36,0-.53.19-.37.31a24.23,24.23,0,0,0,2.34,1.49,1.33,1.33,0,0,0,.56.12,2.73,2.73,0,0,0,.41,0c.35-.07.47-.21.28-.32A21.72,21.72,0,0,1,48.17,145a1.27,1.27,0,0,0-.6-.13m95.94.29a1.61,1.61,0,0,0-.7.13c-.78.49-1.65,1-2.57,1.45-.22.1-.13.24.2.31l.33,0a1.71,1.71,0,0,0,.66-.11,29.45,29.45,0,0,0,2.65-1.49c.19-.11,0-.25-.3-.3l-.27,0M44.4,141.7h-.22c-.39,0-.63.15-.55.27A10.58,10.58,0,0,0,45,143.61a1,1,0,0,0,.61.15h.29c.37,0,.58-.17.46-.29A10.33,10.33,0,0,1,45,141.88a1,1,0,0,0-.64-.18m102.94.32a1.11,1.11,0,0,0-.74.17,14.85,14.85,0,0,1-1.66,1.57c-.15.12,0,.25.4.29l.21,0a1.43,1.43,0,0,0,.72-.15,14.77,14.77,0,0,0,1.7-1.62c.11-.12-.11-.25-.49-.28h-.14M43.21,138.4h-.06c-.39,0-.71.11-.7.24a5.82,5.82,0,0,0,.33,1.68c0,.11.32.19.66.2h.13c.39,0,.68-.14.64-.26a5.26,5.26,0,0,1-.33-1.64c0-.12-.3-.21-.67-.22m106,.28c-.39,0-.74.09-.78.22v0a7,7,0,0,1-.67,1.63c-.08.13.18.25.57.27h.07c.36,0,.7-.08.76-.19a7,7,0,0,0,.7-1.69v0c0-.12-.26-.23-.65-.24M44.07,135.07c-.36,0-.69.08-.75.19a7.2,7.2,0,0,0-.69,1.67h0c0,.13.26.23.65.24s.74-.1.78-.23a6.55,6.55,0,0,1,.67-1.62c.07-.12-.19-.24-.58-.26h-.08m105,.28h-.14c-.39,0-.67.14-.63.26a5.26,5.26,0,0,1,.33,1.64c0,.12.29.21.66.22h.07c.4,0,.71-.11.71-.24a5.86,5.86,0,0,0-.35-1.68c0-.11-.31-.19-.65-.2M46.94,131.84a1.26,1.26,0,0,0-.73.15,14,14,0,0,0-1.7,1.62c-.11.12.11.25.49.28h.14a1.15,1.15,0,0,0,.75-.17,13.87,13.87,0,0,1,1.65-1.57c.15-.12,0-.25-.4-.3h-.2m99.93.27h-.28c-.38,0-.59.17-.46.29a11,11,0,0,1,1.33,1.58c.06.1.33.17.64.18h.21c.38,0,.63-.15.54-.28a10.35,10.35,0,0,0-1.36-1.62,1,1,0,0,0-.62-.15m-95.18-3.27A1.57,1.57,0,0,0,51,129c-1,.48-1.84,1-2.64,1.48-.18.12,0,.26.31.31l.27,0a1.3,1.3,0,0,0,.69-.13c.78-.49,1.65-1,2.58-1.44.21-.11.12-.25-.22-.32a1.69,1.69,0,0,0-.33,0m91,.24a2.73,2.73,0,0,0-.41,0c-.34.07-.47.21-.27.32a22.83,22.83,0,0,1,2.27,1.46,1.14,1.14,0,0,0,.6.13l.34,0c.36-.05.53-.19.37-.31a23.06,23.06,0,0,0-2.34-1.49,1.33,1.33,0,0,0-.56-.12m-84.54-2.9a2,2,0,0,0-.58.07c-1.22.42-2.39.85-3.48,1.3-.25.1-.2.25.11.32a1.58,1.58,0,0,0,.38,0,1.91,1.91,0,0,0,.63-.09c1.06-.44,2.2-.86,3.39-1.27.27-.09.27-.23,0-.32a1.4,1.4,0,0,0-.43-.06m78.61.21a2.12,2.12,0,0,0-.52.06c-.31.08-.34.23-.08.32,1.1.41,2.15.84,3.13,1.28a1.45,1.45,0,0,0,.52.1,1.78,1.78,0,0,0,.47-.05c.32-.07.41-.22.18-.32-1-.45-2.08-.89-3.21-1.31a1.44,1.44,0,0,0-.49-.08M66.11,124a2.25,2.25,0,0,0-.46,0c-1.45.34-2.86.69-4.19,1.07-.3.08-.34.23-.09.32a1.73,1.73,0,0,0,.49.08,2.12,2.12,0,0,0,.52-.06c1.3-.36,2.68-.71,4.08-1,.33-.08.41-.22.19-.33a1.6,1.6,0,0,0-.54-.09m63.2.17a1.89,1.89,0,0,0-.62.09c-.24.1-.19.25.12.32,1.33.33,2.64.69,3.86,1.06a2,2,0,0,0,.44.06,1.67,1.67,0,0,0,.57-.08c.28-.09.27-.23,0-.32-1.26-.38-2.59-.75-4-1.08a1.6,1.6,0,0,0-.39-.05m-54.1-1.86a2.11,2.11,0,0,0-.35,0c-1.61.24-3.2.5-4.73.79-.35.06-.47.2-.28.31a1.25,1.25,0,0,0,.57.11,1.42,1.42,0,0,0,.41,0c1.49-.28,3-.53,4.6-.76.37-.06.53-.19.37-.31a1.1,1.1,0,0,0-.59-.13m45.36.12a1.3,1.3,0,0,0-.69.13c-.19.11,0,.25.31.3,1.51.24,3,.51,4.44.79l.34,0a1.75,1.75,0,0,0,.66-.11c.21-.11.11-.25-.22-.32-1.48-.29-3-.57-4.57-.81l-.27,0m-35.46-1.22H84.9c-1.71.13-3.43.29-5.1.47-.37,0-.58.18-.46.3a1,1,0,0,0,.62.15h.28c1.62-.18,3.3-.34,5-.47.39,0,.64-.15.55-.27a1,1,0,0,0-.64-.18m25.78.07a1.23,1.23,0,0,0-.75.17c-.1.13.12.25.5.28,1.64.14,3.28.3,4.87.49l.2,0a1.38,1.38,0,0,0,.72-.15c.15-.12,0-.25-.4-.3-1.63-.19-3.31-.36-5-.5h-.14m-15.45-.53h-.06c-1.75,0-3.53.08-5.27.15-.39,0-.67.13-.63.26s.32.19.66.2h.13c1.69-.08,3.42-.13,5.13-.15.4,0,.72-.11.71-.24s-.3-.21-.67-.22m5.33,0h-.11c-.4,0-.74.09-.78.21s.26.24.66.24h.09c1.67,0,3.35.09,5,.17h.07c.36,0,.7-.07.76-.19s-.18-.24-.57-.26c-1.69-.09-3.42-.15-5.12-.18" transform="translate(-14.84 -90.76)"/><path class="cls-140" d="M95.78,142.41a55.58,55.58,0,0,1-7,1.11,69.94,69.94,0,0,1-15.9-.29,45.76,45.76,0,0,1-7.62-1.68,17.93,17.93,0,0,1-5.17-2.47,3.36,3.36,0,0,1,0-6.06,17.93,17.93,0,0,1,5.17-2.48,45.82,45.82,0,0,1,7.62-1.67,65.8,65.8,0,0,1,9.21-.62q3.47,0,6.66.32c.79.08,1.62.17,2.38.27a7.18,7.18,0,0,1,.77.14l-.13,0c-.43.17-.85.33-1.22.51a6.72,6.72,0,0,0-1,.58,4.54,4.54,0,0,0-.71.65,3,3,0,0,0-.47.73,2,2,0,0,0-.22.8l0,.24s-.7-.15-1.11-.2a38.94,38.94,0,0,0-5-.36,32.54,32.54,0,0,0-4.77.32,23.33,23.33,0,0,0-3.89.86,8.58,8.58,0,0,0-2.63,1.3,1.81,1.81,0,0,0,0,3.19,8.15,8.15,0,0,0,2.63,1.3,22.32,22.32,0,0,0,3.89.87,34,34,0,0,0,4.77.32,38.56,38.56,0,0,0,8.38-1c2-.48,3.48-.94,5.37-1.45a51.13,51.13,0,0,1,14-1.52l18.24,0v4.14H107.55V147L95.83,147v-4.63Z" transform="translate(-14.84 -90.76)"/><path class="cls-140" d="M93.47,135.86V133.5h0c0-3.07,4.94-4.86,14.48-4.86h22.14a2,2,0,0,1,2,2v0a2,2,0,0,1-2,2H108.16c-2.3,0-3.13.46-3.13,1.24v.35a56.22,56.22,0,0,0-9.23,1.08C95,135.52,93.47,135.86,93.47,135.86Z" transform="translate(-14.84 -90.76)"/><path class="cls-141" d="M95.78,142.41a55.58,55.58,0,0,1-7,1.11,69.94,69.94,0,0,1-15.9-.29,45.76,45.76,0,0,1-7.62-1.68,17.93,17.93,0,0,1-5.17-2.47,3.36,3.36,0,0,1,0-6.06,17.93,17.93,0,0,1,5.17-2.48,45.82,45.82,0,0,1,7.62-1.67,65.8,65.8,0,0,1,9.21-.62q3.47,0,6.66.32c.79.08,1.62.17,2.38.27a7.18,7.18,0,0,1,.77.14l-.13,0c-.43.17-.85.33-1.22.51a6.72,6.72,0,0,0-1,.58,4.54,4.54,0,0,0-.71.65,3,3,0,0,0-.47.73,2,2,0,0,0-.22.8l0,.24s-.7-.15-1.11-.2a38.94,38.94,0,0,0-5-.36,32.54,32.54,0,0,0-4.77.32,23.33,23.33,0,0,0-3.89.86,8.58,8.58,0,0,0-2.63,1.3,1.81,1.81,0,0,0,0,3.19,8.15,8.15,0,0,0,2.63,1.3,22.32,22.32,0,0,0,3.89.87,34,34,0,0,0,4.77.32,38.56,38.56,0,0,0,8.38-1c2-.48,3.48-.94,5.37-1.45a51.13,51.13,0,0,1,14-1.52l18.24,0v4.14H107.55V147L95.83,147v-4.63Z" transform="translate(-14.84 -90.76)"/><path class="cls-141" d="M93.47,135.86V133.5h0c0-3.07,4.94-4.86,14.48-4.86h22.14a2,2,0,0,1,2,2v0a2,2,0,0,1-2,2H108.16c-2.3,0-3.13.46-3.13,1.24v.35a56.22,56.22,0,0,0-9.23,1.08C95,135.52,93.47,135.86,93.47,135.86Z" transform="translate(-14.84 -90.76)"/><path class="cls-141" d="M93.47,135.86V133.5h0c0-3.07,4.94-4.86,14.48-4.86h22.14a2,2,0,0,1,2,2v0a2,2,0,0,1-2,2H108.16c-2.3,0-3.13.46-3.13,1.24v.35a56.22,56.22,0,0,0-9.23,1.08C95,135.52,93.47,135.86,93.47,135.86Z" transform="translate(-14.84 -90.76)"/><ellipse class="cls-142" cx="84.73" cy="47.26" rx="72.89" ry="22.3"/><path class="cls-143" d="M171.41,112.62a.43.43,0,0,0,0,0c.17-11.56-27.43-21.18-64-21.87C69,90.07,35.25,99.47,32,111.81a7.84,7.84,0,0,0-.24,2l.12,13.85c.05,5.89,7.32,11.27,19.3,15.2,1.74.57,3.59,1.12,5.52,1.62,1.51.4,3.08.77,4.7,1.13,1.42.31,2.88.6,4.37.88s2.75.49,4.18.71,2.69.4,4.07.58,2.64.33,4,.48,2.67.27,4,.39,2.71.22,4.09.3,2.76.17,4.16.23,2.85.12,4.29.15l1.27,0c1,0,2.09,0,3.13,0,1.51,0,3,0,4.49,0s3.14-.07,4.69-.12c1.75-.07,3.47-.15,5.18-.26,2.32-.15,4.61-.32,6.85-.54a158.57,158.57,0,0,0,25.26-4.34c2.39-.64,4.66-1.33,6.78-2.06,1.55-.52,3-1.08,4.4-1.66,1.16-.48,2.26-1,3.29-1.48s1.8-.91,2.61-1.39,1.47-.88,2.15-1.34,1.22-.86,1.78-1.31,1-.87,1.48-1.3.84-.87,1.21-1.31a11.68,11.68,0,0,0,1-1.35,10.32,10.32,0,0,0,.73-1.39,9,9,0,0,0,.4-1.17c0-.11.05-.2.07-.3a6.81,6.81,0,0,0,.18-1.54v-.12Zm-.18,1.54c0,.1,0,0,0-.11C171.24,114.09,171.24,114.12,171.23,114.16Z" transform="translate(-14.84 -90.76)"/><ellipse class="cls-144" cx="101.59" cy="113.13" rx="69.81" ry="22.37" transform="translate(-15.83 -89.86) rotate(-0.5)"/><path class="cls-145" d="M164,114.32l-3.85-.07c-.15.38-.24.77-.42,1.15l3.83.15c.19-.41.29-.82.44-1.23" transform="translate(-14.84 -90.76)"/><polyline class="cls-146" points="144.74 24.99 144.65 25.16 148.46 25.34 148.55 25.17 144.74 24.99"/><polyline class="cls-147" points="144.48 25.48 144.23 25.86 148.01 26.09 148.28 25.69 144.48 25.48"/><polyline class="cls-148" points="141.8 28.55 141.38 28.91 144.97 29.34 145.42 28.96 141.8 28.55"/><polyline class="cls-149" points="141.05 29.17 140.58 29.53 144.12 30 144.63 29.62 141.05 29.17"/><polyline class="cls-150" points="144 26.2 143.92 26.33 147.68 26.59 147.77 26.45 144 26.2"/><polyline class="cls-151" points="137.32 31.59 137.06 31.73 140.36 32.35 140.65 32.2 137.32 31.59"/><polyline class="cls-152" points="136.51 32.02 135.87 32.34 139.1 33 139.78 32.65 136.51 32.02"/><polyline class="cls-153" points="135.25 32.64 135.02 32.74 138.2 33.43 138.44 33.31 135.25 32.64"/><path class="cls-154" d="M158.49,117.42A14.4,14.4,0,0,1,157,119l3.64.38a16.23,16.23,0,0,0,1.58-1.67l-3.74-.29" transform="translate(-14.84 -90.76)"/><path class="cls-155" d="M155,120.61l-1.12.74c-.38.24-.82.48-1.22.72l3.35.59c.44-.26.9-.51,1.3-.77l1.2-.79-3.51-.49" transform="translate(-14.84 -90.76)"/><path class="cls-156" d="M149.87,123.5c-.66.33-1.42.63-2.14,1l3,.74c.78-.33,1.57-.66,2.28-1l-3.17-.68" transform="translate(-14.84 -90.76)"/><polyline class="cls-157" points="132.19 33.97 131.85 34.1 134.81 34.87 135.17 34.73 132.19 33.97"/><path class="cls-158" d="M146,125.11l-.79.3,2.86.81c.3-.1.57-.21.85-.32l-2.92-.79" transform="translate(-14.84 -90.76)"/><polyline class="cls-159" points="124.11 36.62 123.17 36.87 125.57 37.82 126.57 37.56 124.11 36.62"/><polyline class="cls-160" points="122.51 37.05 121.54 37.28 123.83 38.26 124.86 38.01 122.51 37.05"/><polyline class="cls-161" points="129.65 34.91 129.38 35.01 132.18 35.84 132.47 35.74 129.65 34.91"/><path class="cls-162" d="M130.39,129.33l-.46.08,1.87,1.07c.17,0,.33,0,.48-.09l-1.89-1.06" transform="translate(-14.84 -90.76)"/><polyline class="cls-163" points="114.18 38.82 113.12 39.01 114.86 40.1 115.99 39.9 114.18 38.82"/><polyline class="cls-164" points="112.14 39.16 111.78 39.22 113.43 40.33 113.82 40.27 112.14 39.16"/><polyline class="cls-165" points="128.63 35.27 126.81 35.85 124.9 36.41 127.42 37.33 129.44 36.74 131.38 36.11 128.63 35.27"/><path class="cls-166" d="M135.5,128.25c-1.39.32-2.8.63-4.28.91l2,1.06c1.56-.3,3.07-.63,4.56-1l-2.24-1" transform="translate(-14.84 -90.76)"/><path class="cls-167" d="M126.62,130l-1.63.25-1.67.23,1.43,1.14,1.78-.24,1.74-.27L126.62,130" transform="translate(-14.84 -90.76)"/><polyline class="cls-168" points="107.44 39.85 106.96 39.91 108.29 41.06 108.81 41 107.44 39.85"/><path class="cls-169" d="M120.83,130.78l-1.13.14,1.19,1.16,1.21-.14-1.27-1.16" transform="translate(-14.84 -90.76)"/><polyline class="cls-170" points="96.43 40.88 95.23 40.95 95.79 42.17 97.06 42.1 96.43 40.88"/><path class="cls-171" d="M109.23,131.75l-1.19.05.42,1.23c.42,0,.85,0,1.27-.06l-.5-1.22" transform="translate(-14.84 -90.76)"/><polyline class="cls-172" points="103.81 40.27 103.43 40.31 104.53 41.49 104.94 41.44 103.81 40.27"/><polyline class="cls-173" points="86.06 41.21 85.55 41.22 85.46 42.45 86.01 42.45 86.06 41.21"/><polyline class="cls-174" points="84.52 41.22 83.32 41.2 83.09 42.44 84.37 42.45 84.52 41.22"/><polyline class="cls-175" points="82.24 41.19 81.84 41.19 81.52 42.42 81.94 42.43 82.24 41.19"/><path class="cls-176" d="M117.24,131.17l-2.47.22c-.82.07-1.66.12-2.49.18l.7,1.22c.88-.07,1.78-.12,2.65-.2l2.63-.23-1-1.19" transform="translate(-14.84 -90.76)"/><path class="cls-177" d="M107,131.85l-1.26,0-1.27,0c-.84,0-1.69,0-2.54,0v1.24c.9,0,1.81,0,2.71,0l1.36,0,1.34,0-.35-1.23" transform="translate(-14.84 -90.76)"/><path class="cls-178" d="M93.1,131.84l-.55,1.23c1.26.05,2.53.07,3.81.11l.32-1.24c-1.2,0-2.39-.05-3.58-.1" transform="translate(-14.84 -90.76)"/><polyline class="cls-179" points="76.65 41.01 75.99 42.23 76.53 42.26 77.16 41.03 76.65 41.01"/><polyline class="cls-180" points="74.46 40.89 73.66 42.11 74.91 42.18 75.64 40.96 74.46 40.89"/><polyline class="cls-181" points="65.01 40.05 63.57 41.22 64.77 41.35 66.13 40.18 65.01 40.05"/><polyline class="cls-182" points="63.11 39.81 61.56 40.96 62.73 41.11 64.21 39.95 63.11 39.81"/><polyline class="cls-183" points="73.01 40.8 72.11 42.02 72.52 42.04 73.4 40.83 73.01 40.8"/><polyline class="cls-184" points="56.32 38.73 54.32 39.81 54.78 39.9 56.76 38.82 56.32 38.73"/><polyline class="cls-185" points="54.43 38.37 52.3 39.42 53.38 39.63 55.44 38.57 54.43 38.37"/><polyline class="cls-186" points="53.21 38.11 51 39.14 51.35 39.22 53.54 38.18 53.21 38.11"/><path class="cls-187" d="M81.93,131l-1.29,1.18c1.71.17,3.44.34,5.19.46l1-1.2c-1.65-.12-3.26-.28-4.87-.44" transform="translate(-14.84 -90.76)"/><path class="cls-188" d="M72.44,129.72l-1.92,1.09c.79.13,1.57.28,2.38.4l2.44.36L77,130.43l-2.29-.34c-.76-.11-1.48-.25-2.23-.37" transform="translate(-14.84 -90.76)"/><path class="cls-189" d="M65.16,128.2l-2.4,1c1,.24,2,.49,3.08.71l2.21-1c-1-.2-1.94-.43-2.89-.66" transform="translate(-14.84 -90.76)"/><polyline class="cls-190" points="49.06 37.12 46.57 38.09 46.99 38.2 49.45 37.23 49.06 37.12"/><path class="cls-191" d="M62.21,127.43l-2.59.93c.31.1.63.18,1,.27l2.53-1-.9-.24" transform="translate(-14.84 -90.76)"/><polyline class="cls-192" points="40.62 34.41 37.59 35.2 38.39 35.52 41.38 34.7 40.62 34.41"/><polyline class="cls-193" points="39.37 33.9 36.26 34.65 37.01 34.98 40.08 34.2 39.37 33.9"/><polyline class="cls-194" points="46.28 36.35 43.62 37.27 43.93 37.36 46.57 36.44 46.28 36.35"/><path class="cls-195" d="M50.09,122.62l-3.39.62a2.26,2.26,0,0,0,.26.16l3.37-.64a1.88,1.88,0,0,1-.24-.14" transform="translate(-14.84 -90.76)"/><polyline class="cls-196" points="34.2 31.24 30.74 31.82 31.34 32.18 34.77 31.57 34.2 31.24"/><polyline class="cls-197" points="33.56 30.82 30.06 31.37 30.24 31.49 33.73 30.93 33.56 30.82"/><polyline class="cls-198" points="42.03 34.95 39.09 35.78 40.88 36.42 42.78 37.02 45.49 36.12 43.72 35.55 42.03 34.95"/><path class="cls-199" d="M50.83,123l-3.34.65c.9.49,1.9,1,2.93,1.44l3.16-.74c-1-.44-1.91-.89-2.75-1.35" transform="translate(-14.84 -90.76)"/><path class="cls-200" d="M47,120.53l-3.58.48.72.57c.26.18.54.36.8.55l3.51-.56c-.26-.17-.53-.34-.76-.52l-.69-.52" transform="translate(-14.84 -90.76)"/><polyline class="cls-201" points="31.54 29.29 27.91 29.74 28.1 29.91 31.71 29.44 31.54 29.29"/><path class="cls-202" d="M45.64,119.37l-3.67.41a5.23,5.23,0,0,0,.42.39l3.65-.43c-.13-.12-.28-.24-.4-.37" transform="translate(-14.84 -90.76)"/><polyline class="cls-203" points="28.58 25.55 24.75 25.76 24.94 26.16 28.75 25.93 28.58 25.55"/><path class="cls-204" d="M43.16,115.66l-3.85.16a3.39,3.39,0,0,0,.15.41L43.3,116a2,2,0,0,1-.14-.38" transform="translate(-14.84 -90.76)"/><polyline class="cls-205" points="30.38 28.17 26.67 28.55 26.79 28.68 30.49 28.29 30.38 28.17"/><polyline class="cls-206" points="27.98 22.45 24.12 22.46 24.11 22.63 27.98 22.62 27.98 22.45"/><polyline class="cls-207" points="28.08 21.74 24.22 21.7 24.14 22.11 28 22.13 28.08 21.74"/><polyline class="cls-208" points="28.17 21.26 24.31 21.19 24.28 21.33 28.14 21.39 28.17 21.26"/><path class="cls-209" d="M43.78,117l-3.8.26a9.88,9.88,0,0,0,.54.84l.66.84,3.73-.36-.62-.78a8.9,8.9,0,0,1-.51-.8" transform="translate(-14.84 -90.76)"/><path class="cls-210" d="M42.81,113.69l-3.87,0a5.12,5.12,0,0,0,.08.87l.06.43.12.43,3.85-.14-.11-.4-.06-.41a4.43,4.43,0,0,1-.07-.81" transform="translate(-14.84 -90.76)"/><path class="cls-211" d="M39.6,110.72a12.09,12.09,0,0,0-.44,1.23L43,112a10.65,10.65,0,0,1,.42-1.15l-3.83-.15" transform="translate(-14.84 -90.76)"/><polyline class="cls-212" points="25.04 19.41 24.94 19.59 28.76 19.76 28.85 19.6 25.04 19.41"/><polyline class="cls-213" points="25.49 18.66 25.22 19.07 29.02 19.27 29.27 18.89 25.49 18.66"/><polyline class="cls-214" points="28.53 15.41 28.08 15.8 31.7 16.2 32.12 15.84 28.53 15.41"/><polyline class="cls-215" points="29.38 14.76 28.87 15.14 32.45 15.58 32.92 15.23 29.38 14.76"/><polyline class="cls-216" points="25.82 18.16 25.73 18.3 29.49 18.55 29.58 18.42 25.82 18.16"/><polyline class="cls-217" points="33.14 12.41 32.85 12.56 36.17 13.16 36.44 13.02 33.14 12.41"/><polyline class="cls-218" points="34.4 11.75 33.72 12.1 36.99 12.74 37.63 12.41 34.4 11.75"/><polyline class="cls-219" points="35.3 11.33 35.06 11.44 38.25 12.12 38.48 12.01 35.3 11.33"/><path class="cls-220" d="M42.53,106.89A14.25,14.25,0,0,0,41,108.56l3.74.28a15.16,15.16,0,0,1,1.47-1.57l-3.64-.38" transform="translate(-14.84 -90.76)"/><path class="cls-221" d="M47.18,103.61c-.43.26-.9.51-1.3.77l-1.2.79,3.51.49,1.13-.74c.37-.25.81-.48,1.22-.72l-3.36-.59" transform="translate(-14.84 -90.76)"/><path class="cls-222" d="M52.42,101.08c-.77.33-1.57.66-2.28,1l3.18.69c.66-.33,1.41-.64,2.14-1l-3-.74" transform="translate(-14.84 -90.76)"/><polyline class="cls-223" points="38.68 9.88 38.33 10.02 41.31 10.78 41.65 10.65 38.68 9.88"/><path class="cls-224" d="M55.08,100.05c-.3.1-.57.21-.84.32l2.91.78c.26-.1.52-.2.8-.29l-2.87-.81" transform="translate(-14.84 -90.76)"/><polyline class="cls-225" points="47.93 6.93 46.93 7.2 49.39 8.13 50.33 7.88 47.93 6.93"/><polyline class="cls-226" points="49.67 6.49 48.64 6.74 50.99 7.71 51.96 7.47 49.67 6.49"/><polyline class="cls-227" points="41.32 8.91 41.03 9.02 43.84 9.84 44.12 9.75 41.32 8.91"/><path class="cls-228" d="M71.38,95.78l-.48.09,1.9,1.07.45-.09-1.87-1.07" transform="translate(-14.84 -90.76)"/><polyline class="cls-229" points="58.64 4.66 57.51 4.86 59.31 5.94 60.38 5.75 58.64 4.66"/><polyline class="cls-230" points="60.07 4.43 59.68 4.49 61.35 5.59 61.72 5.53 60.07 4.43"/><polyline class="cls-231" points="46.08 7.43 44.06 8.02 42.12 8.64 44.87 9.49 46.69 8.9 48.6 8.35 46.08 7.43"/><path class="cls-232" d="M70,96.05c-1.57.3-3.08.63-4.56,1l2.23,1c1.39-.33,2.81-.64,4.28-.92l-1.95-1" transform="translate(-14.84 -90.76)"/><path class="cls-233" d="M78.43,94.66l-1.77.25-1.75.27,1.65,1.11L78.2,96l1.66-.23-1.43-1.14" transform="translate(-14.84 -90.76)"/><polyline class="cls-234" points="65.2 3.69 64.69 3.76 66.06 4.91 66.54 4.85 65.2 3.69"/><path class="cls-235" d="M82.29,94.18l-1.21.15,1.27,1.16,1.13-.14-1.19-1.17" transform="translate(-14.84 -90.76)"/><polyline class="cls-236" points="77.71 2.58 76.44 2.65 77.07 3.87 78.26 3.81 77.71 2.58"/><path class="cls-237" d="M94.73,93.23l-1.27.06.5,1.23c.39,0,.79,0,1.19-.06l-.42-1.23" transform="translate(-14.84 -90.76)"/><polyline class="cls-238" points="68.97 3.27 68.56 3.31 69.68 4.49 70.07 4.45 68.97 3.27"/><polyline class="cls-239" points="88.03 2.3 87.49 2.3 87.43 3.54 87.95 3.54 88.03 2.3"/><polyline class="cls-240" points="90.41 2.31 89.13 2.3 88.98 3.54 90.18 3.55 90.41 2.31"/><polyline class="cls-241" points="91.99 2.33 91.56 2.33 91.26 3.56 91.67 3.57 91.99 2.33"/><path class="cls-242" d="M90.21,93.48c-.89.07-1.78.12-2.66.2l-2.63.23,1,1.18,2.47-.21c.82-.08,1.65-.12,2.48-.19l-.69-1.21" transform="translate(-14.84 -90.76)"/><path class="cls-243" d="M101.29,93.06c-.9,0-1.8,0-2.7,0l-1.36,0-1.35,0,.35,1.23,1.26,0,1.28,0c.84,0,1.69,0,2.54,0l0-1.24" transform="translate(-14.84 -90.76)"/><path class="cls-244" d="M106.83,93.09l-.32,1.23c1.19,0,2.39.06,3.57.11l.56-1.23c-1.26,0-2.54-.07-3.81-.11" transform="translate(-14.84 -90.76)"/><polyline class="cls-245" points="96.97 2.5 96.34 3.72 96.85 3.75 97.51 2.52 96.97 2.5"/><polyline class="cls-246" points="98.59 2.57 97.86 3.79 99.04 3.86 99.84 2.65 98.59 2.57"/><polyline class="cls-247" points="108.73 3.41 107.37 4.58 108.49 4.7 109.92 3.54 108.73 3.41"/><polyline class="cls-248" points="110.77 3.64 109.29 4.8 110.39 4.95 111.94 3.8 110.77 3.64"/><polyline class="cls-249" points="100.98 2.71 100.1 3.93 100.49 3.95 101.39 2.74 100.98 2.71"/><polyline class="cls-250" points="118.72 4.86 116.74 5.94 117.18 6.02 119.18 4.95 118.72 4.86"/><polyline class="cls-251" points="120.11 5.12 118.06 6.19 119.07 6.38 121.2 5.33 120.11 5.12"/><polyline class="cls-252" points="122.15 5.54 119.96 6.58 120.29 6.65 122.5 5.61 122.15 5.54"/><path class="cls-253" d="M117.35,93.58l-1,1.21c1.65.12,3.26.27,4.87.43L122.54,94c-1.71-.17-3.43-.33-5.19-.46" transform="translate(-14.84 -90.76)"/><path class="cls-254" d="M127.85,94.69l-1.62,1.14,2.28.34,2.23.38,1.92-1.09c-.79-.14-1.57-.28-2.38-.4l-2.43-.37" transform="translate(-14.84 -90.76)"/><path class="cls-255" d="M137.34,96.37l-2.21,1c1,.21,1.94.44,2.9.66l2.4-1c-1-.23-2-.48-3.09-.7" transform="translate(-14.84 -90.76)"/><polyline class="cls-256" points="126.51 6.55 124.05 7.53 124.45 7.63 126.93 6.66 126.51 6.55"/><path class="cls-257" d="M142.61,97.64l-2.53,1c.3.08.61.16.89.25l2.6-.94-1-.26" transform="translate(-14.84 -90.76)"/><polyline class="cls-258" points="135.11 9.24 132.12 10.05 132.88 10.34 135.91 9.55 135.11 9.24"/><polyline class="cls-259" points="136.49 9.78 133.42 10.55 134.13 10.86 137.24 10.1 136.49 9.78"/><polyline class="cls-260" points="129.57 7.39 126.93 8.32 127.22 8.4 129.88 7.48 129.57 7.39"/><path class="cls-261" d="M156.22,102.87l-3.37.63.25.15,3.39-.63-.27-.15" transform="translate(-14.84 -90.76)"/><polyline class="cls-262" points="142.16 12.57 138.73 13.18 139.3 13.51 142.75 12.93 142.16 12.57"/><polyline class="cls-263" points="143.25 13.26 139.77 13.82 139.94 13.94 143.44 13.38 143.25 13.26"/><polyline class="cls-264" points="130.72 7.73 128.01 8.63 129.78 9.2 131.47 9.8 134.41 8.97 132.62 8.34 130.72 7.73"/><path class="cls-265" d="M152.76,101.15l-3.15.74c1,.44,1.91.89,2.75,1.35l3.34-.65c-.91-.5-1.91-1-2.94-1.44" transform="translate(-14.84 -90.76)"/><path class="cls-266" d="M158.28,104.14l-3.5.55c.25.18.52.35.75.52l.69.53,3.59-.49-.73-.56c-.25-.19-.53-.37-.8-.55" transform="translate(-14.84 -90.76)"/><polyline class="cls-267" points="145.4 14.85 141.79 15.31 141.96 15.47 145.59 15.01 145.4 14.85"/><path class="cls-268" d="M160.8,106.1l-3.66.43c.13.12.28.24.4.36l3.68-.41c-.13-.13-.28-.26-.42-.38" transform="translate(-14.84 -90.76)"/><polyline class="cls-269" points="148.56 18.59 144.75 18.82 144.92 19.2 148.75 18.99 148.56 18.59"/><path class="cls-270" d="M163.72,110l-3.84.19a1.37,1.37,0,0,1,.15.38l3.84-.17a2.17,2.17,0,0,0-.15-.4" transform="translate(-14.84 -90.76)"/><polyline class="cls-271" points="146.71 16.08 143 16.47 143.12 16.59 146.83 16.21 146.71 16.08"/><polyline class="cls-272" points="149.39 22.12 145.52 22.14 145.51 22.3 149.38 22.3 149.39 22.12"/><polyline class="cls-273" points="149.35 22.65 145.49 22.63 145.42 23.01 149.28 23.06 149.35 22.65"/><polyline class="cls-274" points="149.22 23.43 145.36 23.36 145.33 23.49 149.19 23.56 149.22 23.43"/><path class="cls-275" d="M162,107.32l-3.73.36.61.78c.21.26.34.53.52.8l3.79-.26a8,8,0,0,0-.54-.85l-.65-.83" transform="translate(-14.84 -90.76)"/><path class="cls-276" d="M164,110.81l-3.85.14.12.41.05.41a3.7,3.7,0,0,1,.07.81l3.87,0a4.24,4.24,0,0,0-.08-.86l-.06-.44-.12-.43" transform="translate(-14.84 -90.76)"/><path class="cls-277" d="M96.06,134.32c-36.4-.69-63.52-10.76-60.47-22.44s35.14-20.63,71.54-19.94,63.51,10.76,60.46,22.45S132.45,135,96.06,134.32M107.43,90.8c-38.36-.73-72.19,8.69-75.41,21s25.38,22.93,63.74,23.66,72.19-8.7,75.4-21S145.79,91.53,107.43,90.8" transform="translate(-14.84 -90.76)"/><path class="cls-278" d="M92.09,129.71c-.37,0-.71.08-.78.2s.19.24.58.26c1.71.08,3.46.14,5.21.18h0c.4,0,.73-.09.76-.22s-.27-.23-.66-.24c-1.7,0-3.41-.09-5.07-.18h-.06m15.56,0h-.14c-1.7.08-3.42.13-5.13.15-.39,0-.71.11-.71.24s.3.21.66.22h.07c1.75,0,3.53-.07,5.27-.15.39,0,.67-.14.63-.26s-.32-.19-.65-.2m-25.57-.89a1.45,1.45,0,0,0-.73.15c-.14.12,0,.26.4.3,1.63.19,3.32.36,5,.51h.14a1.15,1.15,0,0,0,.75-.17c.1-.12-.11-.25-.49-.28-1.64-.14-3.28-.3-4.87-.49l-.2,0m35.74.11-.28,0c-1.62.18-3.29.33-5,.46-.39,0-.63.15-.55.28s.33.17.64.17h.21c1.72-.14,3.43-.3,5.1-.48.38,0,.58-.17.47-.29a1.14,1.14,0,0,0-.63-.16m-45-1.56a1.4,1.4,0,0,0-.66.11c-.22.11-.12.25.21.31,1.47.3,3,.57,4.57.82l.27,0a1.39,1.39,0,0,0,.7-.13c.17-.11,0-.25-.32-.31-1.51-.23-3-.5-4.44-.79a1.84,1.84,0,0,0-.33,0m54.54.17a1.42,1.42,0,0,0-.41,0c-1.49.27-3,.53-4.6.76-.37.05-.54.19-.38.3a1.26,1.26,0,0,0,.6.14l.34,0c1.61-.24,3.2-.5,4.74-.79.35-.06.47-.2.28-.31a1.25,1.25,0,0,0-.57-.11m-62.68-2.18a1.72,1.72,0,0,0-.57.07c-.28.09-.27.24,0,.32,1.26.38,2.59.75,4,1.09a2.3,2.3,0,0,0,.39,0,1.85,1.85,0,0,0,.62-.09c.25-.11.19-.25-.12-.33-1.33-.33-2.63-.68-3.85-1a1.46,1.46,0,0,0-.44-.06m71.25.21a2.15,2.15,0,0,0-.53.06c-1.3.36-2.67.71-4.08,1-.32.08-.41.22-.18.32a1.51,1.51,0,0,0,.53.1,2.25,2.25,0,0,0,.46,0c1.45-.34,2.86-.69,4.2-1.07.3-.08.33-.23.08-.32a1.6,1.6,0,0,0-.48-.08m-78-2.71a2.24,2.24,0,0,0-.46,0c-.33.07-.41.22-.18.32,1,.45,2.07.9,3.21,1.32a1.62,1.62,0,0,0,.48.07,1.8,1.8,0,0,0,.53,0c.3-.09.34-.23.08-.33-1.1-.41-2.15-.84-3.13-1.28a1.47,1.47,0,0,0-.53-.1m85.23.26a1.61,1.61,0,0,0-.62.1c-1.06.43-2.21.85-3.4,1.26-.27.09-.26.24,0,.32a1.44,1.44,0,0,0,.43.06,1.74,1.74,0,0,0,.58-.07c1.22-.41,2.39-.85,3.49-1.3.25-.1.19-.24-.12-.32a2.06,2.06,0,0,0-.38,0M52.91,120a2.06,2.06,0,0,0-.35,0c-.36,0-.52.19-.37.31a24.23,24.23,0,0,0,2.34,1.49,1.35,1.35,0,0,0,.57.12,2.69,2.69,0,0,0,.4,0c.35-.07.47-.21.28-.32a22.83,22.83,0,0,1-2.27-1.46,1.16,1.16,0,0,0-.6-.13m95.94.29a1.61,1.61,0,0,0-.7.13c-.78.49-1.65,1-2.57,1.45-.22.1-.13.24.21.31l.32,0a1.71,1.71,0,0,0,.66-.11c1-.48,1.85-1,2.66-1.49.18-.11,0-.25-.31-.31l-.27,0m-99.11-3.44h-.22c-.38,0-.63.15-.55.27a10.58,10.58,0,0,0,1.37,1.63A1,1,0,0,0,51,119h.28c.38,0,.58-.17.46-.29a10.33,10.33,0,0,1-1.32-1.58,1,1,0,0,0-.64-.18m103,.31a1.26,1.26,0,0,0-.75.17,14.9,14.9,0,0,1-1.66,1.58c-.15.12,0,.25.4.29h.21a1.34,1.34,0,0,0,.72-.14,14,14,0,0,0,1.7-1.62c.11-.12-.11-.25-.49-.28h-.13M48.55,113.59h-.06c-.39,0-.71.11-.7.23a5.89,5.89,0,0,0,.33,1.69c0,.11.32.19.66.2h.13c.39,0,.68-.14.64-.26a5.56,5.56,0,0,1-.33-1.64c0-.12-.3-.22-.67-.22m106,.28c-.39,0-.74.09-.77.22v0a7.06,7.06,0,0,1-.68,1.63c-.08.13.18.25.57.27h.07c.36,0,.7-.08.76-.2a6.74,6.74,0,0,0,.7-1.68v0c0-.12-.26-.23-.65-.24M49.41,110.26c-.36,0-.68.07-.75.19a7.31,7.31,0,0,0-.69,1.66v0c0,.13.26.23.65.24s.75-.1.78-.23a7,7,0,0,1,.67-1.62c.07-.12-.19-.24-.58-.26h-.08m105,.28h-.15c-.39,0-.67.13-.63.26a5.26,5.26,0,0,1,.33,1.64c0,.12.29.21.66.22h.07c.4,0,.71-.11.71-.24a5.54,5.54,0,0,0-.35-1.68c0-.11-.31-.2-.64-.2M52.28,107a1.26,1.26,0,0,0-.73.15,14.73,14.73,0,0,0-1.7,1.62c-.11.12.11.24.49.27h.14a1.13,1.13,0,0,0,.75-.17,13.87,13.87,0,0,1,1.65-1.57c.15-.12,0-.25-.4-.3h-.2m99.93.27h-.28c-.38,0-.58.17-.46.29a11,11,0,0,1,1.33,1.58c.06.1.33.17.64.18h.21c.38,0,.63-.15.55-.28a11,11,0,0,0-1.37-1.62,1,1,0,0,0-.62-.15M57,104a1.43,1.43,0,0,0-.66.11c-.95.48-1.84,1-2.64,1.48-.18.12,0,.25.31.31l.27,0a1.37,1.37,0,0,0,.7-.13c.78-.49,1.64-1,2.57-1.44.21-.11.12-.25-.22-.32a1.69,1.69,0,0,0-.33,0m91,.24a2.73,2.73,0,0,0-.41,0c-.34.07-.47.21-.27.32a22.83,22.83,0,0,1,2.27,1.46,1.14,1.14,0,0,0,.6.13l.34,0c.37-.06.53-.19.37-.31a25,25,0,0,0-2.34-1.5,1.53,1.53,0,0,0-.56-.11m-84.54-2.9a1.65,1.65,0,0,0-.57.07c-1.23.42-2.4.85-3.49,1.3-.25.1-.2.24.11.32a2.32,2.32,0,0,0,.38,0,1.91,1.91,0,0,0,.63-.09c1.06-.44,2.2-.86,3.39-1.27.27-.09.27-.24,0-.32a1.51,1.51,0,0,0-.44-.06m78.61.21a1.73,1.73,0,0,0-.52.06c-.31.08-.34.23-.08.32,1.1.41,2.15.84,3.13,1.28a1.45,1.45,0,0,0,.52.1,2.34,2.34,0,0,0,.47,0c.32-.07.41-.22.18-.32-1-.45-2.07-.89-3.21-1.31a1.44,1.44,0,0,0-.49-.08M71.45,99.15a2.25,2.25,0,0,0-.46,0c-1.44.33-2.86.69-4.19,1.07-.3.08-.34.23-.09.32a1.73,1.73,0,0,0,.49.08,2.06,2.06,0,0,0,.52-.06c1.3-.36,2.68-.71,4.08-1,.33-.08.41-.22.19-.33a1.6,1.6,0,0,0-.54-.09m63.2.17a1.57,1.57,0,0,0-.61.09c-.25.1-.2.25.11.32,1.34.33,2.64.69,3.86,1.06a2.75,2.75,0,0,0,.44.06,1.67,1.67,0,0,0,.57-.08c.28-.09.27-.23,0-.32-1.26-.38-2.59-.75-4-1.08a1.54,1.54,0,0,0-.39-.05m-54.1-1.86a1.94,1.94,0,0,0-.34,0c-1.62.24-3.21.5-4.74.79-.35.06-.47.2-.28.31a1.25,1.25,0,0,0,.57.11,2.83,2.83,0,0,0,.41,0c1.49-.28,3-.53,4.6-.76.37-.06.53-.19.37-.31a1.1,1.1,0,0,0-.59-.13m45.36.12a1.3,1.3,0,0,0-.69.13c-.19.11,0,.25.31.3,1.52.24,3,.51,4.44.79l.34,0a1.75,1.75,0,0,0,.66-.11c.21-.11.11-.25-.22-.32-1.48-.29-3-.57-4.57-.81l-.27,0M90.45,96.36h-.21c-1.71.13-3.43.29-5.1.47-.37,0-.58.18-.46.3a1,1,0,0,0,.62.15h.28c1.62-.18,3.3-.34,5-.47.39,0,.64-.15.55-.28a1,1,0,0,0-.64-.17m25.79.07a1.18,1.18,0,0,0-.76.17c-.1.12.12.25.5.28,1.64.14,3.28.3,4.87.49l.2,0a1.38,1.38,0,0,0,.72-.15c.15-.12,0-.26-.4-.3-1.63-.19-3.31-.36-5-.5h-.13m-15.46-.53h-.06c-1.75,0-3.53.07-5.27.15-.39,0-.67.13-.62.26s.31.19.65.2h.13c1.69-.08,3.42-.13,5.13-.15.4,0,.72-.11.71-.24s-.3-.21-.67-.22m5.33,0H106c-.4,0-.74.09-.78.21s.27.24.66.24H106c1.67,0,3.35.09,5,.17h.08c.35,0,.69-.07.76-.19s-.19-.25-.58-.26c-1.69-.09-3.42-.15-5.12-.18" transform="translate(-14.84 -90.76)"/><path class="cls-279" d="M101.12,117.59a53.79,53.79,0,0,1-7,1.12q-3.22.32-6.69.32a65.8,65.8,0,0,1-9.21-.62,44.84,44.84,0,0,1-7.62-1.67,17.93,17.93,0,0,1-5.17-2.47,3.36,3.36,0,0,1,0-6.06,17.93,17.93,0,0,1,5.17-2.48,45.82,45.82,0,0,1,7.62-1.67,65.8,65.8,0,0,1,9.21-.62q3.47,0,6.67.32c.78.08,1.61.17,2.37.27.36,0,.77.13.77.13l-.13,0a12.59,12.59,0,0,0-1.21.51,5.18,5.18,0,0,0-1,.58,4.22,4.22,0,0,0-.72.65,3,3,0,0,0-.47.73,2,2,0,0,0-.22.8l0,.24s-.7-.15-1.11-.2a37.23,37.23,0,0,0-5-.36,34,34,0,0,0-4.77.31,24.31,24.31,0,0,0-3.89.87,8.58,8.58,0,0,0-2.63,1.3,1.81,1.81,0,0,0,0,3.19,8.36,8.36,0,0,0,2.63,1.3,22.32,22.32,0,0,0,3.89.87,34,34,0,0,0,4.77.32,38.48,38.48,0,0,0,8.38-1c2-.48,3.48-.94,5.37-1.45a51.51,51.51,0,0,1,14-1.53l18.24,0v4.14H112.89v6.73l-11.72.06v-4.63Z" transform="translate(-14.84 -90.76)"/><path class="cls-280" d="M98.81,111v-2.36h0c0-3.06,4.94-4.85,14.48-4.85h22.14a2,2,0,0,1,2,2v0a2,2,0,0,1-2,2H113.5c-2.3,0-3.13.46-3.13,1.24v.35a56.35,56.35,0,0,0-9.23,1.08Z" transform="translate(-14.84 -90.76)"/></g></g></svg>