<?xml version="1.0" standalone="no"?>
<!DOCTYPE svg PUBLIC "-//W3C//DTD SVG 20010904//EN"
 "http://www.w3.org/TR/2001/REC-SVG-20010904/DTD/svg10.dtd">
<svg version="1.0" xmlns="http://www.w3.org/2000/svg"
 width="572.000000pt" height="572.000000pt" viewBox="0 0 572.000000 572.000000"
 preserveAspectRatio="xMidYMid meet">
<metadata>
Created by potrace 1.14, written by Peter Selinger 2001-2017
</metadata>
<g transform="translate(0.000000,572.000000) scale(0.100000,-0.100000)"
fill="#000000" stroke="none">
<path d="M2518 5695 c-2 -2 -23 -5 -48 -9 -77 -10 -116 -17 -235 -40 -108 -22
-425 -124 -437 -141 -4 -5 -8 -6 -8 -2 0 4 -10 2 -22 -5 -13 -6 -27 -13 -33
-14 -13 -2 -228 -107 -235 -114 -5 -5 -49 -29 -111 -63 -58 -30 -297 -198
-345 -242 -6 -5 -34 -30 -63 -55 -279 -238 -529 -567 -699 -920 -80 -166 -176
-430 -197 -542 -2 -11 -6 -27 -9 -36 -3 -9 -7 -28 -10 -42 -2 -14 -7 -36 -10
-50 -14 -60 -29 -159 -44 -290 -9 -84 -8 -487 1 -565 19 -146 37 -256 49 -300
6 -22 12 -44 13 -50 9 -76 106 -386 126 -410 5 -5 9 -15 9 -23 0 -34 175 -368
258 -492 161 -241 238 -329 525 -602 16 -16 31 -28 34 -28 2 0 28 -19 56 -43
29 -24 81 -63 117 -88 36 -24 69 -48 75 -52 25 -20 145 -95 145 -91 0 3 13 -4
29 -15 16 -12 34 -21 39 -21 6 0 12 -3 14 -7 5 -12 230 -117 333 -156 89 -34
260 -90 280 -92 6 0 30 -7 55 -14 25 -7 54 -15 65 -16 11 -2 45 -8 75 -14 99
-21 184 -33 230 -35 l35 -1 0 287 c0 251 -2 288 -15 289 -8 0 -24 2 -35 5 -11
2 -35 6 -54 9 -18 3 -37 7 -41 10 -4 3 -23 7 -41 9 -48 7 -225 61 -314 96
-169 67 -392 187 -487 261 -20 16 -40 29 -43 29 -4 0 -12 6 -19 12 -7 7 -32
29 -56 48 -132 105 -265 239 -358 360 -23 30 -47 60 -52 67 -99 120 -304 521
-326 636 -2 12 -8 33 -13 47 -14 35 -51 178 -55 209 -2 14 -6 42 -10 61 -14
81 -17 98 -23 160 -9 88 -9 366 0 468 8 98 51 321 72 375 8 20 15 40 15 45 1
20 23 88 32 100 6 6 8 12 5 12 -10 0 81 209 134 309 28 52 76 133 107 180 61
94 59 91 102 141 17 19 40 50 53 67 32 47 240 249 322 315 101 80 235 167 354
232 57 31 107 56 111 56 4 0 36 13 71 29 54 24 222 87 247 92 4 1 12 3 17 5
46 13 234 52 275 56 l25 3 0 300 0 300 -27 1 c-15 1 -29 0 -30 -1z"/>
<path d="M3145 5406 l0 -295 25 -5 c14 -3 43 -8 65 -11 23 -3 52 -8 65 -10 14
-3 39 -8 55 -11 64 -11 121 -25 145 -34 14 -5 34 -11 45 -13 11 -2 27 -7 35
-10 8 -4 43 -15 76 -26 34 -11 70 -24 80 -29 11 -6 37 -18 59 -27 88 -38 172
-79 200 -99 17 -11 32 -21 35 -20 16 3 265 -170 354 -246 77 -65 176 -172 200
-216 119 -213 49 -483 -158 -613 -135 -84 -323 -87 -460 -7 -25 15 -73 53
-106 86 -57 56 -193 170 -204 170 -3 0 -22 11 -43 26 -104 70 -327 152 -463
170 -25 3 -56 8 -70 11 -14 3 -92 6 -175 7 -228 3 -416 -40 -620 -144 -142
-72 -228 -133 -342 -245 -191 -185 -326 -428 -377 -675 -3 -14 -7 -36 -11 -50
-18 -84 -25 -302 -11 -415 25 -220 119 -457 248 -633 266 -360 673 -566 1113
-563 109 1 259 17 285 31 10 5 20 7 22 4 7 -7 202 59 273 92 57 27 168 89 190
106 73 57 149 122 187 160 107 106 204 150 333 152 87 1 128 -6 184 -31 20 -9
38 -17 41 -17 3 -1 25 -15 50 -33 178 -122 239 -371 142 -570 -14 -29 -29 -53
-34 -53 -4 0 -8 -5 -8 -12 0 -19 -217 -224 -294 -278 -12 -8 -27 -20 -33 -26
-7 -7 -29 -22 -50 -35 -21 -13 -40 -26 -43 -29 -10 -14 -198 -119 -280 -158
-47 -23 -124 -55 -170 -72 -84 -31 -311 -93 -380 -105 -76 -12 -133 -20 -171
-24 -4 -1 -6 -129 -6 -285 l0 -285 31 4 c17 2 51 6 76 9 25 4 59 9 75 11 17 2
30 4 30 5 0 1 11 3 25 6 77 13 141 28 270 65 41 12 80 22 85 24 6 1 23 7 38
13 16 7 32 12 36 12 13 0 185 71 278 115 108 51 306 164 311 176 2 5 8 9 14 9
9 0 204 134 218 149 3 3 32 28 65 56 123 101 264 243 358 359 18 21 46 55 62
75 33 41 130 181 174 251 53 86 58 95 57 100 0 3 9 19 20 35 70 101 200 424
259 645 8 29 24 95 29 120 3 14 8 36 11 50 8 39 34 209 42 286 9 84 10 445 1
529 -7 66 -16 136 -22 175 -3 14 -7 45 -11 70 -4 25 -11 63 -17 85 -6 22 -12
47 -14 55 -6 35 -15 76 -21 95 -4 11 -8 22 -8 25 -14 57 -72 233 -95 285 -5
11 -25 58 -45 105 -33 75 -105 220 -146 290 -21 37 -172 262 -191 285 -9 11
-40 49 -69 85 -138 169 -266 293 -480 464 -19 15 -134 96 -158 111 -8 6 -35
22 -58 38 -23 15 -45 27 -49 27 -4 0 -15 6 -23 14 -19 17 -251 134 -340 171
-121 50 -326 117 -451 146 -64 15 -53 13 -111 22 -46 8 -73 13 -117 21 -13 3
-49 8 -80 11 l-57 6 0 -295z m1400 -2071 c180 -47 311 -182 359 -370 12 -43
13 -172 3 -215 -21 -89 -99 -226 -144 -253 -7 -5 -21 -16 -31 -26 -24 -25 -78
-56 -142 -81 -70 -28 -201 -35 -287 -15 -253 59 -423 329 -366 580 15 67 61
175 74 175 5 0 9 6 9 13 0 10 76 88 121 123 30 23 126 64 164 70 22 3 42 8 44
10 11 10 143 2 196 -11z"/>
</g>
</svg>
