<svg id="Layer_1" data-name="Layer 1" xmlns="http://www.w3.org/2000/svg" viewBox="0 0 476.03 90.28"><path d="M516.52,332c-26.15,0-45.69-19.37-45.69-45.07,0-25.85,19.54-45.21,45.69-45.21,22.53,0,40,14.86,43.46,36.65H536c-2.94-8.81-10.37-14.53-19.41-14.53-12.17,0-21.1,9.78-21.1,23.09s8.93,22.9,21.1,22.9c9.53,0,17-6.22,19.43-15.77h24.22c-3.27,22.6-20.82,37.93-43.71,37.93Z" transform="translate(-158.38 -241.67)"/><path d="M634.41,265.16H611.07v64.62H587.29V265.16H563.94V243.84h70.47Z" transform="translate(-158.38 -241.67)"/><path d="M297.75,255.66a45.74,45.74,0,0,0-14.18-9.35,44.69,44.69,0,0,0-34.39,0A45.62,45.62,0,0,0,235,255.66l-.36.36a44.59,44.59,0,0,0-9.26,13.45,40.5,40.5,0,0,0-2.11,5.92,43,43,0,0,0,0,22s-3.28,6.15-8.38,8.51c-3.75,1.74-7.52,3.28-12,3.28a22.17,22.17,0,0,1-8.87-1.78,23.47,23.47,0,0,1-7.25-4.83,22.24,22.24,0,0,1-4.89-7.25,23.36,23.36,0,0,1,0-17.84,22.24,22.24,0,0,1,4.89-7.25,23.5,23.5,0,0,1,7.25-4.84,22.34,22.34,0,0,1,8.87-1.77,23,23,0,0,1,9,1.76c.52-.83,8.8-14.41,10.88-17.8a48,48,0,0,0-7.5-2.93,44.41,44.41,0,0,0-29.55,1.67,45.51,45.51,0,0,0-14.18,9.35,44.38,44.38,0,0,0-9.62,13.81,42.21,42.21,0,0,0,0,33.84,44.38,44.38,0,0,0,9.62,13.81,45.68,45.68,0,0,0,14.18,9.35,44.62,44.62,0,0,0,29.6,1.66,46.26,46.26,0,0,0,11.18-4.94,43.47,43.47,0,0,0,8.14-6.44c.12.12,9.87-10.24,13.57-16.3a18.45,18.45,0,0,1-2.9-5.14,23.36,23.36,0,0,1,0-17.84,22.24,22.24,0,0,1,4.89-7.25,23.43,23.43,0,0,1,7.26-4.84,22.25,22.25,0,0,1,8.86-1.77,22.78,22.78,0,1,1-7.85,44.19c-.16.24-12.85,14.82-14.2,16.24a48.72,48.72,0,0,0,4.91,2.43,44.81,44.81,0,0,0,34.39,0,45.92,45.92,0,0,0,14.18-9.35,43.72,43.72,0,0,0,9.56-13.81,42.76,42.76,0,0,0,0-33.84A43.72,43.72,0,0,0,297.75,255.66Z" transform="translate(-158.38 -241.67)"/><path d="M307.06,251.87v-8h20.73l33,45.08V243.84H384l33,45.08V243.84h60.36v4.37A55.44,55.44,0,0,0,466.36,264l-.12.28H445.9V277h16.38v.11a55.16,55.16,0,0,0-.06,19.29l-16.31,0v12.86l20.25,0a54.9,54.9,0,0,0,12.2,17.3v3.21h-58l-34.13-46.64v46.64h-22L330,283.14v46.64H307.06v-8.37a52.38,52.38,0,0,0,.08-69.46Z" transform="translate(-158.38 -241.67)"/></svg>