<svg id="Layer_1" data-name="Layer 1" xmlns="http://www.w3.org/2000/svg" viewBox="0 0 270.15 41.54"><defs><style>.cls-1{fill:#ff6f08;}.cls-2{fill:#fd932f;}.cls-3{fill:#fcb655;}.cls-4{fill:#414042;}</style></defs><path class="cls-1" d="M197.54,124.05H172.73a4.11,4.11,0,0,0-4.28,3.93v.56a4.12,4.12,0,0,0,4.28,3.93h24.81c2.76.49,4.28-1.76,4.28-3.93V128a4.12,4.12,0,0,0-4.28-3.93Zm0,0" transform="translate(-8.78 -123.25)"/><path class="cls-2" d="M197.54,140.15H172.73a4.11,4.11,0,0,0-4.28,3.93v.56a4.12,4.12,0,0,0,4.28,3.93h24.81c2.76.49,4.28-1.76,4.28-3.93v-.56a4.11,4.11,0,0,0-4.28-3.93Zm0,0" transform="translate(-8.78 -123.25)"/><path class="cls-3" d="M197.54,156.24H172.73a4.11,4.11,0,0,0-4.28,3.93v.57a4.12,4.12,0,0,0,4.28,3.93h24.81c2.76.49,4.28-1.76,4.28-3.93v-.57a4.12,4.12,0,0,0-4.28-3.93Zm0,0" transform="translate(-8.78 -123.25)"/><path class="cls-4" d="M20.72,135.19a12.55,12.55,0,0,1,4-2.66,12.24,12.24,0,0,1,4.87-1,13.06,13.06,0,0,1,4.71.88,11.35,11.35,0,0,1,4.12,2.75,3.82,3.82,0,0,0,2.92,1.24,4.14,4.14,0,0,0,2.92-7.08,21.3,21.3,0,0,0-6.88-4.58,20.7,20.7,0,0,0-7.79-1.52,20.35,20.35,0,0,0-8.08,1.62A20.67,20.67,0,0,0,10.4,135.94a20.94,20.94,0,0,0,0,16.15,20.61,20.61,0,0,0,11.06,11.06,20.26,20.26,0,0,0,8.08,1.63,21.07,21.07,0,0,0,7.79-1.49,20.47,20.47,0,0,0,6.88-4.61,4.16,4.16,0,0,0-2.92-7.08,4,4,0,0,0-2.92,1.24,11.93,11.93,0,0,1-4.16,2.75,12.73,12.73,0,0,1-4.67.88,12.24,12.24,0,0,1-4.87-1,12.47,12.47,0,0,1-6.62-6.62,12.71,12.71,0,0,1,0-9.74,12.64,12.64,0,0,1,2.67-3.95Zm0,0" transform="translate(-8.78 -123.25)"/><path class="cls-4" d="M82.07,129.32a20.94,20.94,0,0,0-6.62-4.44,21,21,0,0,0-16.16,0,20.61,20.61,0,0,0-11.06,11.06,20.84,20.84,0,0,0,0,16.16,20.61,20.61,0,0,0,11.06,11.06,20.84,20.84,0,0,0,16.16,0A20.61,20.61,0,0,0,86.51,152.1a21,21,0,0,0,0-16.16,20.82,20.82,0,0,0-4.44-6.62Zm-3.21,19.57a12.38,12.38,0,0,1-6.62,6.62,12.71,12.71,0,0,1-9.74,0,12.38,12.38,0,0,1-6.62-6.62,12.59,12.59,0,0,1,0-9.74,12.6,12.6,0,0,1,2.66-4,12.43,12.43,0,0,1,4-2.66,12.59,12.59,0,0,1,9.74,0,12.38,12.38,0,0,1,6.62,6.62,12.71,12.71,0,0,1,0,9.74Zm0,0" transform="translate(-8.78 -123.25)"/><path class="cls-4" d="M161.71,123.25a4.24,4.24,0,0,0-4.16,4.16v23.23L131.91,125a5,5,0,0,0-.43-.5,4,4,0,0,0-2.92-1.24h-.08a4.22,4.22,0,0,0-4.15,4.16v23.16L98.25,124.49a4.16,4.16,0,0,0-7.08,2.92v33.22a4.16,4.16,0,0,0,8.31,0V137.41l25.65,25.64a6.47,6.47,0,0,0,.43.51,4,4,0,0,0,2.92,1.23h.08a4.2,4.2,0,0,0,4.15-4.16V137.48l26.08,26.07a3.31,3.31,0,0,0,1.36.94,4.32,4.32,0,0,0,1.56.3,4.24,4.24,0,0,0,4.16-4.16V127.41a4.24,4.24,0,0,0-4.16-4.16Zm0,0" transform="translate(-8.78 -123.25)"/><path class="cls-4" d="M216.17,135.19a12.48,12.48,0,0,1,4-2.66,12.17,12.17,0,0,1,4.87-1,13,13,0,0,1,4.7.88,11.18,11.18,0,0,1,4.12,2.75,3.83,3.83,0,0,0,2.92,1.24,4.13,4.13,0,0,0,2.92-7.08,21.19,21.19,0,0,0-6.88-4.58,20.65,20.65,0,0,0-7.78-1.52,20.35,20.35,0,0,0-8.08,1.62,20.69,20.69,0,0,0-6.62,4.45,20.44,20.44,0,0,0-4.44,6.62,20.82,20.82,0,0,0,0,16.15,20.61,20.61,0,0,0,11.06,11.06,20.19,20.19,0,0,0,8.08,1.63,21,21,0,0,0,7.78-1.49,20.47,20.47,0,0,0,6.88-4.61,4.13,4.13,0,1,0-5.84-5.84,12,12,0,0,1-4.15,2.75,12.73,12.73,0,0,1-4.67.88,12.2,12.2,0,0,1-4.87-1,12.38,12.38,0,0,1-6.62-6.62,12.59,12.59,0,0,1,0-9.74,12.61,12.61,0,0,1,2.66-3.95Zm0,0" transform="translate(-8.78 -123.25)"/><path class="cls-4" d="M277.69,124.49a4,4,0,0,0-2.93-1.24H245.69a4.16,4.16,0,0,0,0,8.31h10.39v29.07a4.13,4.13,0,0,0,7.07,2.93,4,4,0,0,0,1.24-2.93V131.56h10.38a4.13,4.13,0,0,0,2.92-7.07Zm0,0" transform="translate(-8.78 -123.25)"/></svg>