<svg xmlns="http://www.w3.org/2000/svg" xmlns:xlink="http://www.w3.org/1999/xlink" viewBox="0 0 166.44 102.09"><defs><style>.cls-1{isolation:isolate;}.cls-2{fill:url(#New_Gradient_Swatch_19);}.cls-142,.cls-3{mix-blend-mode:multiply;opacity:0.3;}.cls-3{fill:url(#radial-gradient);}.cls-4{fill:url(#New_Gradient_Swatch_6);}.cls-5{fill:url(#New_Gradient_Swatch_6-2);}.cls-6{fill:url(#New_Gradient_Swatch_3);}.cls-7{fill:url(#New_Gradient_Swatch_3-2);}.cls-8{fill:url(#New_Gradient_Swatch_3-3);}.cls-9{fill:url(#New_Gradient_Swatch_3-4);}.cls-10{fill:url(#New_Gradient_Swatch_3-5);}.cls-11{fill:url(#New_Gradient_Swatch_3-6);}.cls-12{fill:url(#New_Gradient_Swatch_3-7);}.cls-13{fill:url(#New_Gradient_Swatch_3-8);}.cls-14{fill:url(#New_Gradient_Swatch_3-9);}.cls-15{fill:url(#New_Gradient_Swatch_3-10);}.cls-16{fill:url(#New_Gradient_Swatch_3-11);}.cls-17{fill:url(#New_Gradient_Swatch_3-12);}.cls-18{fill:url(#New_Gradient_Swatch_3-13);}.cls-19{fill:url(#New_Gradient_Swatch_3-14);}.cls-20{fill:url(#New_Gradient_Swatch_3-15);}.cls-21{fill:url(#New_Gradient_Swatch_3-16);}.cls-22{fill:url(#New_Gradient_Swatch_3-17);}.cls-23{fill:url(#New_Gradient_Swatch_3-18);}.cls-24{fill:url(#New_Gradient_Swatch_3-19);}.cls-25{fill:url(#New_Gradient_Swatch_3-20);}.cls-26{fill:url(#New_Gradient_Swatch_3-21);}.cls-27{fill:url(#New_Gradient_Swatch_3-22);}.cls-28{fill:url(#New_Gradient_Swatch_3-23);}.cls-29{fill:url(#New_Gradient_Swatch_3-24);}.cls-30{fill:url(#New_Gradient_Swatch_3-25);}.cls-31{fill:url(#New_Gradient_Swatch_3-26);}.cls-32{fill:url(#New_Gradient_Swatch_3-27);}.cls-33{fill:url(#New_Gradient_Swatch_3-28);}.cls-34{fill:url(#New_Gradient_Swatch_3-29);}.cls-35{fill:url(#New_Gradient_Swatch_3-30);}.cls-36{fill:url(#New_Gradient_Swatch_3-31);}.cls-37{fill:url(#New_Gradient_Swatch_3-32);}.cls-38{fill:url(#New_Gradient_Swatch_3-33);}.cls-39{fill:url(#New_Gradient_Swatch_3-34);}.cls-40{fill:url(#New_Gradient_Swatch_3-35);}.cls-41{fill:url(#New_Gradient_Swatch_3-36);}.cls-42{fill:url(#New_Gradient_Swatch_3-37);}.cls-43{fill:url(#New_Gradient_Swatch_3-38);}.cls-44{fill:url(#New_Gradient_Swatch_3-39);}.cls-45{fill:url(#New_Gradient_Swatch_3-40);}.cls-46{fill:url(#New_Gradient_Swatch_3-41);}.cls-47{fill:url(#New_Gradient_Swatch_3-42);}.cls-48{fill:url(#New_Gradient_Swatch_3-43);}.cls-49{fill:url(#New_Gradient_Swatch_3-44);}.cls-50{fill:url(#New_Gradient_Swatch_3-45);}.cls-51{fill:url(#New_Gradient_Swatch_3-46);}.cls-52{fill:url(#New_Gradient_Swatch_3-47);}.cls-53{fill:url(#New_Gradient_Swatch_3-48);}.cls-54{fill:url(#New_Gradient_Swatch_3-49);}.cls-55{fill:url(#New_Gradient_Swatch_3-50);}.cls-56{fill:url(#New_Gradient_Swatch_3-51);}.cls-57{fill:url(#New_Gradient_Swatch_3-52);}.cls-58{fill:url(#New_Gradient_Swatch_3-53);}.cls-59{fill:url(#New_Gradient_Swatch_3-54);}.cls-60{fill:url(#New_Gradient_Swatch_3-55);}.cls-61{fill:url(#New_Gradient_Swatch_3-56);}.cls-62{fill:url(#New_Gradient_Swatch_3-57);}.cls-63{fill:url(#New_Gradient_Swatch_3-58);}.cls-64{fill:url(#New_Gradient_Swatch_3-59);}.cls-65{fill:url(#New_Gradient_Swatch_3-60);}.cls-66{fill:url(#New_Gradient_Swatch_3-61);}.cls-67{fill:url(#New_Gradient_Swatch_3-62);}.cls-68{fill:url(#New_Gradient_Swatch_3-63);}.cls-69{fill:url(#New_Gradient_Swatch_3-64);}.cls-70{fill:url(#New_Gradient_Swatch_3-65);}.cls-71{fill:url(#New_Gradient_Swatch_3-66);}.cls-72{fill:url(#New_Gradient_Swatch_3-67);}.cls-73{fill:url(#New_Gradient_Swatch_3-68);}.cls-74{fill:url(#New_Gradient_Swatch_3-69);}.cls-75{fill:url(#New_Gradient_Swatch_3-70);}.cls-76{fill:url(#New_Gradient_Swatch_3-71);}.cls-77{fill:url(#New_Gradient_Swatch_3-72);}.cls-78{fill:url(#New_Gradient_Swatch_3-73);}.cls-79{fill:url(#New_Gradient_Swatch_3-74);}.cls-80{fill:url(#New_Gradient_Swatch_3-75);}.cls-81{fill:url(#New_Gradient_Swatch_3-76);}.cls-82{fill:url(#New_Gradient_Swatch_3-77);}.cls-83{fill:url(#New_Gradient_Swatch_3-78);}.cls-84{fill:url(#New_Gradient_Swatch_3-79);}.cls-85{fill:url(#New_Gradient_Swatch_3-80);}.cls-86{fill:url(#New_Gradient_Swatch_3-81);}.cls-87{fill:url(#New_Gradient_Swatch_3-82);}.cls-88{fill:url(#New_Gradient_Swatch_3-83);}.cls-89{fill:url(#New_Gradient_Swatch_3-84);}.cls-90{fill:url(#New_Gradient_Swatch_3-85);}.cls-91{fill:url(#New_Gradient_Swatch_3-86);}.cls-92{fill:url(#New_Gradient_Swatch_3-87);}.cls-93{fill:url(#New_Gradient_Swatch_3-88);}.cls-94{fill:url(#New_Gradient_Swatch_3-89);}.cls-95{fill:url(#New_Gradient_Swatch_3-90);}.cls-96{fill:url(#New_Gradient_Swatch_3-91);}.cls-97{fill:url(#New_Gradient_Swatch_3-92);}.cls-98{fill:url(#New_Gradient_Swatch_3-93);}.cls-99{fill:url(#New_Gradient_Swatch_3-94);}.cls-100{fill:url(#New_Gradient_Swatch_3-95);}.cls-101{fill:url(#New_Gradient_Swatch_3-96);}.cls-102{fill:url(#New_Gradient_Swatch_3-97);}.cls-103{fill:url(#New_Gradient_Swatch_3-98);}.cls-104{fill:url(#New_Gradient_Swatch_3-99);}.cls-105{fill:url(#New_Gradient_Swatch_3-100);}.cls-106{fill:url(#New_Gradient_Swatch_3-101);}.cls-107{fill:url(#New_Gradient_Swatch_3-102);}.cls-108{fill:url(#New_Gradient_Swatch_3-103);}.cls-109{fill:url(#New_Gradient_Swatch_3-104);}.cls-110{fill:url(#New_Gradient_Swatch_3-105);}.cls-111{fill:url(#New_Gradient_Swatch_3-106);}.cls-112{fill:url(#New_Gradient_Swatch_3-107);}.cls-113{fill:url(#New_Gradient_Swatch_3-108);}.cls-114{fill:url(#New_Gradient_Swatch_3-109);}.cls-115{fill:url(#New_Gradient_Swatch_3-110);}.cls-116{fill:url(#New_Gradient_Swatch_3-111);}.cls-117{fill:url(#New_Gradient_Swatch_3-112);}.cls-118{fill:url(#New_Gradient_Swatch_3-113);}.cls-119{fill:url(#New_Gradient_Swatch_3-114);}.cls-120{fill:url(#New_Gradient_Swatch_3-115);}.cls-121{fill:url(#New_Gradient_Swatch_3-116);}.cls-122{fill:url(#New_Gradient_Swatch_3-117);}.cls-123{fill:url(#New_Gradient_Swatch_3-118);}.cls-124{fill:url(#New_Gradient_Swatch_3-119);}.cls-125{fill:url(#New_Gradient_Swatch_3-120);}.cls-126{fill:url(#New_Gradient_Swatch_3-121);}.cls-127{fill:url(#New_Gradient_Swatch_3-122);}.cls-128{fill:url(#New_Gradient_Swatch_3-123);}.cls-129{fill:url(#New_Gradient_Swatch_3-124);}.cls-130{fill:url(#New_Gradient_Swatch_3-125);}.cls-131{fill:url(#New_Gradient_Swatch_3-126);}.cls-132{fill:url(#New_Gradient_Swatch_3-127);}.cls-133{fill:url(#New_Gradient_Swatch_3-128);}.cls-134{fill:url(#New_Gradient_Swatch_3-129);}.cls-135{fill:url(#New_Gradient_Swatch_3-130);}.cls-136{fill:url(#New_Gradient_Swatch_3-131);}.cls-137{fill:url(#New_Gradient_Swatch_3-132);}.cls-138{fill:url(#New_Gradient_Swatch_3-133);}.cls-139{fill:url(#New_Gradient_Swatch_3-134);}.cls-140,.cls-141,.cls-279,.cls-280{fill:none;}.cls-140{stroke:#000;}.cls-140,.cls-279,.cls-280{stroke-miterlimit:10;}.cls-141{stroke-width:3px;stroke:url(#New_Gradient_Swatch_3-135);}.cls-142{fill:url(#radial-gradient-2);}.cls-143{fill:url(#New_Gradient_Swatch_6-3);}.cls-144{fill:url(#New_Gradient_Swatch_6-4);}.cls-145{fill:url(#New_Gradient_Swatch_3-138);}.cls-146{fill:url(#New_Gradient_Swatch_3-139);}.cls-147{fill:url(#New_Gradient_Swatch_3-140);}.cls-148{fill:url(#New_Gradient_Swatch_3-141);}.cls-149{fill:url(#New_Gradient_Swatch_3-142);}.cls-150{fill:url(#New_Gradient_Swatch_3-143);}.cls-151{fill:url(#New_Gradient_Swatch_3-144);}.cls-152{fill:url(#New_Gradient_Swatch_3-145);}.cls-153{fill:url(#New_Gradient_Swatch_3-146);}.cls-154{fill:url(#New_Gradient_Swatch_3-147);}.cls-155{fill:url(#New_Gradient_Swatch_3-148);}.cls-156{fill:url(#New_Gradient_Swatch_3-149);}.cls-157{fill:url(#New_Gradient_Swatch_3-150);}.cls-158{fill:url(#New_Gradient_Swatch_3-151);}.cls-159{fill:url(#New_Gradient_Swatch_3-152);}.cls-160{fill:url(#New_Gradient_Swatch_3-153);}.cls-161{fill:url(#New_Gradient_Swatch_3-154);}.cls-162{fill:url(#New_Gradient_Swatch_3-155);}.cls-163{fill:url(#New_Gradient_Swatch_3-156);}.cls-164{fill:url(#New_Gradient_Swatch_3-157);}.cls-165{fill:url(#New_Gradient_Swatch_3-158);}.cls-166{fill:url(#New_Gradient_Swatch_3-159);}.cls-167{fill:url(#New_Gradient_Swatch_3-160);}.cls-168{fill:url(#New_Gradient_Swatch_3-161);}.cls-169{fill:url(#New_Gradient_Swatch_3-162);}.cls-170{fill:url(#New_Gradient_Swatch_3-163);}.cls-171{fill:url(#New_Gradient_Swatch_3-164);}.cls-172{fill:url(#New_Gradient_Swatch_3-165);}.cls-173{fill:url(#New_Gradient_Swatch_3-166);}.cls-174{fill:url(#New_Gradient_Swatch_3-167);}.cls-175{fill:url(#New_Gradient_Swatch_3-168);}.cls-176{fill:url(#New_Gradient_Swatch_3-169);}.cls-177{fill:url(#New_Gradient_Swatch_3-170);}.cls-178{fill:url(#New_Gradient_Swatch_3-171);}.cls-179{fill:url(#New_Gradient_Swatch_3-172);}.cls-180{fill:url(#New_Gradient_Swatch_3-173);}.cls-181{fill:url(#New_Gradient_Swatch_3-174);}.cls-182{fill:url(#New_Gradient_Swatch_3-175);}.cls-183{fill:url(#New_Gradient_Swatch_3-176);}.cls-184{fill:url(#New_Gradient_Swatch_3-177);}.cls-185{fill:url(#New_Gradient_Swatch_3-178);}.cls-186{fill:url(#New_Gradient_Swatch_3-179);}.cls-187{fill:url(#New_Gradient_Swatch_3-180);}.cls-188{fill:url(#New_Gradient_Swatch_3-181);}.cls-189{fill:url(#New_Gradient_Swatch_3-182);}.cls-190{fill:url(#New_Gradient_Swatch_3-183);}.cls-191{fill:url(#New_Gradient_Swatch_3-184);}.cls-192{fill:url(#New_Gradient_Swatch_3-185);}.cls-193{fill:url(#New_Gradient_Swatch_3-186);}.cls-194{fill:url(#New_Gradient_Swatch_3-187);}.cls-195{fill:url(#New_Gradient_Swatch_3-188);}.cls-196{fill:url(#New_Gradient_Swatch_3-189);}.cls-197{fill:url(#New_Gradient_Swatch_3-190);}.cls-198{fill:url(#New_Gradient_Swatch_3-191);}.cls-199{fill:url(#New_Gradient_Swatch_3-192);}.cls-200{fill:url(#New_Gradient_Swatch_3-193);}.cls-201{fill:url(#New_Gradient_Swatch_3-194);}.cls-202{fill:url(#New_Gradient_Swatch_3-195);}.cls-203{fill:url(#New_Gradient_Swatch_3-196);}.cls-204{fill:url(#New_Gradient_Swatch_3-197);}.cls-205{fill:url(#New_Gradient_Swatch_3-198);}.cls-206{fill:url(#New_Gradient_Swatch_3-199);}.cls-207{fill:url(#New_Gradient_Swatch_3-200);}.cls-208{fill:url(#New_Gradient_Swatch_3-201);}.cls-209{fill:url(#New_Gradient_Swatch_3-202);}.cls-210{fill:url(#New_Gradient_Swatch_3-203);}.cls-211{fill:url(#New_Gradient_Swatch_3-204);}.cls-212{fill:url(#New_Gradient_Swatch_3-205);}.cls-213{fill:url(#New_Gradient_Swatch_3-206);}.cls-214{fill:url(#New_Gradient_Swatch_3-207);}.cls-215{fill:url(#New_Gradient_Swatch_3-208);}.cls-216{fill:url(#New_Gradient_Swatch_3-209);}.cls-217{fill:url(#New_Gradient_Swatch_3-210);}.cls-218{fill:url(#New_Gradient_Swatch_3-211);}.cls-219{fill:url(#New_Gradient_Swatch_3-212);}.cls-220{fill:url(#New_Gradient_Swatch_3-213);}.cls-221{fill:url(#New_Gradient_Swatch_3-214);}.cls-222{fill:url(#New_Gradient_Swatch_3-215);}.cls-223{fill:url(#New_Gradient_Swatch_3-216);}.cls-224{fill:url(#New_Gradient_Swatch_3-217);}.cls-225{fill:url(#New_Gradient_Swatch_3-218);}.cls-226{fill:url(#New_Gradient_Swatch_3-219);}.cls-227{fill:url(#New_Gradient_Swatch_3-220);}.cls-228{fill:url(#New_Gradient_Swatch_3-221);}.cls-229{fill:url(#New_Gradient_Swatch_3-222);}.cls-230{fill:url(#New_Gradient_Swatch_3-223);}.cls-231{fill:url(#New_Gradient_Swatch_3-224);}.cls-232{fill:url(#New_Gradient_Swatch_3-225);}.cls-233{fill:url(#New_Gradient_Swatch_3-226);}.cls-234{fill:url(#New_Gradient_Swatch_3-227);}.cls-235{fill:url(#New_Gradient_Swatch_3-228);}.cls-236{fill:url(#New_Gradient_Swatch_3-229);}.cls-237{fill:url(#New_Gradient_Swatch_3-230);}.cls-238{fill:url(#New_Gradient_Swatch_3-231);}.cls-239{fill:url(#New_Gradient_Swatch_3-232);}.cls-240{fill:url(#New_Gradient_Swatch_3-233);}.cls-241{fill:url(#New_Gradient_Swatch_3-234);}.cls-242{fill:url(#New_Gradient_Swatch_3-235);}.cls-243{fill:url(#New_Gradient_Swatch_3-236);}.cls-244{fill:url(#New_Gradient_Swatch_3-237);}.cls-245{fill:url(#New_Gradient_Swatch_3-238);}.cls-246{fill:url(#New_Gradient_Swatch_3-239);}.cls-247{fill:url(#New_Gradient_Swatch_3-240);}.cls-248{fill:url(#New_Gradient_Swatch_3-241);}.cls-249{fill:url(#New_Gradient_Swatch_3-242);}.cls-250{fill:url(#New_Gradient_Swatch_3-243);}.cls-251{fill:url(#New_Gradient_Swatch_3-244);}.cls-252{fill:url(#New_Gradient_Swatch_3-245);}.cls-253{fill:url(#New_Gradient_Swatch_3-246);}.cls-254{fill:url(#New_Gradient_Swatch_3-247);}.cls-255{fill:url(#New_Gradient_Swatch_3-248);}.cls-256{fill:url(#New_Gradient_Swatch_3-249);}.cls-257{fill:url(#New_Gradient_Swatch_3-250);}.cls-258{fill:url(#New_Gradient_Swatch_3-251);}.cls-259{fill:url(#New_Gradient_Swatch_3-252);}.cls-260{fill:url(#New_Gradient_Swatch_3-253);}.cls-261{fill:url(#New_Gradient_Swatch_3-254);}.cls-262{fill:url(#New_Gradient_Swatch_3-255);}.cls-263{fill:url(#New_Gradient_Swatch_3-256);}.cls-264{fill:url(#New_Gradient_Swatch_3-257);}.cls-265{fill:url(#New_Gradient_Swatch_3-258);}.cls-266{fill:url(#New_Gradient_Swatch_3-259);}.cls-267{fill:url(#New_Gradient_Swatch_3-260);}.cls-268{fill:url(#New_Gradient_Swatch_3-261);}.cls-269{fill:url(#New_Gradient_Swatch_3-262);}.cls-270{fill:url(#New_Gradient_Swatch_3-263);}.cls-271{fill:url(#New_Gradient_Swatch_3-264);}.cls-272{fill:url(#New_Gradient_Swatch_3-265);}.cls-273{fill:url(#New_Gradient_Swatch_3-266);}.cls-274{fill:url(#New_Gradient_Swatch_3-267);}.cls-275{fill:url(#New_Gradient_Swatch_3-268);}.cls-276{fill:url(#New_Gradient_Swatch_3-269);}.cls-277{fill:url(#New_Gradient_Swatch_3-270);}.cls-278{fill:url(#New_Gradient_Swatch_3-271);}.cls-279{stroke:url(#New_Gradient_Swatch_7);}.cls-280{stroke:url(#New_Gradient_Swatch_7-2);}</style><linearGradient id="New_Gradient_Swatch_19" x1="5.14" y1="70.68" x2="158.14" y2="70.68" gradientUnits="userSpaceOnUse"><stop offset="0" stop-color="#155459"/><stop offset="0.21" stop-color="#0c6a7f"/><stop offset="0.48" stop-color="#149d9d"/><stop offset="0.72" stop-color="#17a07f"/><stop offset="1" stop-color="#4ca456"/></linearGradient><radialGradient id="radial-gradient" cx="33.79" cy="-1121.4" r="90.39" gradientTransform="translate(52.11 380.08) scale(0.92 0.27)" gradientUnits="userSpaceOnUse"><stop offset="0.46"/><stop offset="0.51" stop-opacity="0.77"/><stop offset="1" stop-opacity="0"/></radialGradient><linearGradient id="New_Gradient_Swatch_6" x1="-29.62" y1="145.09" x2="122.48" y2="145.09" gradientUnits="userSpaceOnUse"><stop offset="0" stop-color="#10555a"/><stop offset="0.31" stop-color="#006a80"/><stop offset="0.51" stop-color="#009d9e"/><stop offset="0.72" stop-color="#00a280"/><stop offset="1" stop-color="#48a553"/></linearGradient><linearGradient id="New_Gradient_Swatch_6-2" x1="27.74" y1="138.16" x2="167.59" y2="138.16" gradientTransform="translate(1.21 -0.85) rotate(0.5)" xlink:href="#New_Gradient_Swatch_6"/><linearGradient id="New_Gradient_Swatch_3" x1="143.65" y1="86.09" x2="159.48" y2="145.17" gradientUnits="userSpaceOnUse"><stop offset="0" stop-color="#d1d3d4"/><stop offset="1" stop-color="#fff"/></linearGradient><linearGradient id="New_Gradient_Swatch_3-2" x1="133.62" y1="14.54" x2="143.69" y2="52.12" xlink:href="#New_Gradient_Swatch_3"/><linearGradient id="New_Gradient_Swatch_3-3" x1="132.18" y1="11.07" x2="143.48" y2="53.25" xlink:href="#New_Gradient_Swatch_3"/><linearGradient id="New_Gradient_Swatch_3-4" x1="129.03" y1="13.16" x2="140.91" y2="57.5" xlink:href="#New_Gradient_Swatch_3"/><linearGradient id="New_Gradient_Swatch_3-5" x1="128.32" y1="14.12" x2="140.18" y2="58.39" xlink:href="#New_Gradient_Swatch_3"/><linearGradient id="New_Gradient_Swatch_3-6" x1="132.65" y1="14.99" x2="143.01" y2="53.64" xlink:href="#New_Gradient_Swatch_3"/><linearGradient id="New_Gradient_Swatch_3-7" x1="124.33" y1="15.66" x2="136.86" y2="62.42" xlink:href="#New_Gradient_Swatch_3"/><linearGradient id="New_Gradient_Swatch_3-8" x1="123.48" y1="16.87" x2="135.92" y2="63.28" xlink:href="#New_Gradient_Swatch_3"/><linearGradient id="New_Gradient_Swatch_3-9" x1="121.87" y1="15.46" x2="135.06" y2="64.66" xlink:href="#New_Gradient_Swatch_3"/><linearGradient id="New_Gradient_Swatch_3-10" x1="142.48" y1="93.73" x2="157.33" y2="149.15" xlink:href="#New_Gradient_Swatch_3"/><linearGradient id="New_Gradient_Swatch_3-11" x1="141.39" y1="108.01" x2="153.34" y2="152.6" xlink:href="#New_Gradient_Swatch_3"/><linearGradient id="New_Gradient_Swatch_3-12" x1="137.69" y1="116.33" x2="148.4" y2="156.32" xlink:href="#New_Gradient_Swatch_3"/><linearGradient id="New_Gradient_Swatch_3-13" x1="118.54" y1="16.49" x2="132.27" y2="67.7" xlink:href="#New_Gradient_Swatch_3"/><linearGradient id="New_Gradient_Swatch_3-14" x1="133" y1="112.47" x2="145.8" y2="160.27" xlink:href="#New_Gradient_Swatch_3"/><linearGradient id="New_Gradient_Swatch_3-15" x1="111.14" y1="23.93" x2="124.47" y2="73.7" xlink:href="#New_Gradient_Swatch_3"/><linearGradient id="New_Gradient_Swatch_3-16" x1="109.32" y1="23.84" x2="123.1" y2="75.27" xlink:href="#New_Gradient_Swatch_3"/><linearGradient id="New_Gradient_Swatch_3-17" x1="115.54" y1="15.89" x2="130.15" y2="70.41" xlink:href="#New_Gradient_Swatch_3"/><linearGradient id="New_Gradient_Swatch_3-18" x1="114.66" y1="108.06" x2="133.44" y2="178.14" xlink:href="#New_Gradient_Swatch_3"/><linearGradient id="New_Gradient_Swatch_3-19" x1="100.11" y1="23.56" x2="116.24" y2="83.78" xlink:href="#New_Gradient_Swatch_3"/><linearGradient id="New_Gradient_Swatch_3-20" x1="95.41" y1="12.88" x2="116.5" y2="91.61" xlink:href="#New_Gradient_Swatch_3"/><linearGradient id="New_Gradient_Swatch_3-21" x1="118.22" y1="37.17" x2="126.13" y2="66.7" xlink:href="#New_Gradient_Swatch_3"/><linearGradient id="New_Gradient_Swatch_3-22" x1="124.9" y1="132.95" x2="133.09" y2="163.52" xlink:href="#New_Gradient_Swatch_3"/><linearGradient id="New_Gradient_Swatch_3-23" x1="114.86" y1="129.5" x2="126.14" y2="171.62" xlink:href="#New_Gradient_Swatch_3"/><linearGradient id="New_Gradient_Swatch_3-24" x1="90.26" y1="12.76" x2="113.17" y2="98.26" xlink:href="#New_Gradient_Swatch_3"/><linearGradient id="New_Gradient_Swatch_3-25" x1="105.9" y1="115.05" x2="124.91" y2="185.99" xlink:href="#New_Gradient_Swatch_3"/><linearGradient id="New_Gradient_Swatch_3-26" x1="80.27" y1="20.45" x2="104.17" y2="109.62" xlink:href="#New_Gradient_Swatch_3"/><linearGradient id="New_Gradient_Swatch_3-27" x1="92.78" y1="111.97" x2="118.03" y2="206.19" xlink:href="#New_Gradient_Swatch_3"/><linearGradient id="New_Gradient_Swatch_3-28" x1="85.17" y1="8.01" x2="111.77" y2="107.28" xlink:href="#New_Gradient_Swatch_3"/><linearGradient id="New_Gradient_Swatch_3-29" x1="57.27" y1="-26.29" x2="116.84" y2="196.04" xlink:href="#New_Gradient_Swatch_3"/><linearGradient id="New_Gradient_Swatch_3-30" x1="65.96" y1="13.44" x2="101.14" y2="144.73" xlink:href="#New_Gradient_Swatch_3"/><linearGradient id="New_Gradient_Swatch_3-31" x1="50.8" y1="-35.95" x2="122.43" y2="231.4" xlink:href="#New_Gradient_Swatch_3"/><linearGradient id="New_Gradient_Swatch_3-32" x1="105.23" y1="134.1" x2="116.67" y2="176.81" xlink:href="#New_Gradient_Swatch_3"/><linearGradient id="New_Gradient_Swatch_3-33" x1="94.54" y1="135.29" x2="107.95" y2="185.33" xlink:href="#New_Gradient_Swatch_3"/><linearGradient id="New_Gradient_Swatch_3-34" x1="84.75" y1="135.44" x2="101.2" y2="196.83" xlink:href="#New_Gradient_Swatch_3"/><linearGradient id="New_Gradient_Swatch_3-35" x1="60.35" y1="19.36" x2="97.19" y2="156.86" xlink:href="#New_Gradient_Swatch_3"/><linearGradient id="New_Gradient_Swatch_3-36" x1="63.36" y1="37.7" x2="86.54" y2="124.2" xlink:href="#New_Gradient_Swatch_3"/><linearGradient id="New_Gradient_Swatch_3-37" x1="57.37" y1="51.13" x2="72.55" y2="107.78" xlink:href="#New_Gradient_Swatch_3"/><linearGradient id="New_Gradient_Swatch_3-38" x1="55.9" y1="52.73" x2="69.99" y2="105.34" xlink:href="#New_Gradient_Swatch_3"/><linearGradient id="New_Gradient_Swatch_3-39" x1="59.91" y1="31.76" x2="89.53" y2="142.33" xlink:href="#New_Gradient_Swatch_3"/><linearGradient id="New_Gradient_Swatch_3-40" x1="50.11" y1="57.46" x2="59.77" y2="93.5" xlink:href="#New_Gradient_Swatch_3"/><linearGradient id="New_Gradient_Swatch_3-41" x1="48.6" y1="57.72" x2="58.17" y2="93.45" xlink:href="#New_Gradient_Swatch_3"/><linearGradient id="New_Gradient_Swatch_3-42" x1="47.38" y1="58.81" x2="54.9" y2="86.89" xlink:href="#New_Gradient_Swatch_3"/><linearGradient id="New_Gradient_Swatch_3-43" x1="76.3" y1="143.98" x2="89.34" y2="192.63" xlink:href="#New_Gradient_Swatch_3"/><linearGradient id="New_Gradient_Swatch_3-44" x1="67.62" y1="147.64" x2="79.69" y2="192.71" xlink:href="#New_Gradient_Swatch_3"/><linearGradient id="New_Gradient_Swatch_3-45" x1="60.31" y1="149.95" x2="70.83" y2="189.21" xlink:href="#New_Gradient_Swatch_3"/><linearGradient id="New_Gradient_Swatch_3-46" x1="43.55" y1="59.46" x2="49.19" y2="80.51" xlink:href="#New_Gradient_Swatch_3"/><linearGradient id="New_Gradient_Swatch_3-47" x1="56.91" y1="151.34" x2="63.56" y2="176.16" xlink:href="#New_Gradient_Swatch_3"/><linearGradient id="New_Gradient_Swatch_3-48" x1="35.45" y1="58.4" x2="39.61" y2="73.93" xlink:href="#New_Gradient_Swatch_3"/><linearGradient id="New_Gradient_Swatch_3-49" x1="34.19" y1="58.06" x2="38.65" y2="74.7" xlink:href="#New_Gradient_Swatch_3"/><linearGradient id="New_Gradient_Swatch_3-50" x1="40.88" y1="59.57" x2="44.82" y2="74.27" xlink:href="#New_Gradient_Swatch_3"/><linearGradient id="New_Gradient_Swatch_3-51" x1="44.69" y1="148.75" x2="48.75" y2="163.88" xlink:href="#New_Gradient_Swatch_3"/><linearGradient id="New_Gradient_Swatch_3-52" x1="29.08" y1="56.5" x2="35.18" y2="79.26" xlink:href="#New_Gradient_Swatch_3"/><linearGradient id="New_Gradient_Swatch_3-53" x1="28.16" y1="55.74" x2="32.57" y2="72.19" xlink:href="#New_Gradient_Swatch_3"/><linearGradient id="New_Gradient_Swatch_3-54" x1="37.98" y1="58.32" x2="48.27" y2="96.74" xlink:href="#New_Gradient_Swatch_3"/><linearGradient id="New_Gradient_Swatch_3-55" x1="46.83" y1="150.22" x2="57.83" y2="191.26" xlink:href="#New_Gradient_Swatch_3"/><linearGradient id="New_Gradient_Swatch_3-56" x1="42.66" y1="149.24" x2="53.55" y2="189.9" xlink:href="#New_Gradient_Swatch_3"/><linearGradient id="New_Gradient_Swatch_3-57" x1="26.26" y1="54.87" x2="31.87" y2="75.79" xlink:href="#New_Gradient_Swatch_3"/><linearGradient id="New_Gradient_Swatch_3-58" x1="40.66" y1="147.31" x2="48.17" y2="175.34" xlink:href="#New_Gradient_Swatch_3"/><linearGradient id="New_Gradient_Swatch_3-59" x1="23.77" y1="53.26" x2="32.81" y2="86.99" xlink:href="#New_Gradient_Swatch_3"/><linearGradient id="New_Gradient_Swatch_3-60" x1="38.39" y1="145.09" x2="47.74" y2="180" xlink:href="#New_Gradient_Swatch_3"/><linearGradient id="New_Gradient_Swatch_3-61" x1="25.13" y1="54.07" x2="31.06" y2="76.21" xlink:href="#New_Gradient_Swatch_3"/><linearGradient id="New_Gradient_Swatch_3-62" x1="23.15" y1="50.29" x2="32.16" y2="83.88" xlink:href="#New_Gradient_Swatch_3"/><linearGradient id="New_Gradient_Swatch_3-63" x1="23.46" y1="50.56" x2="34.36" y2="91.26" xlink:href="#New_Gradient_Swatch_3"/><linearGradient id="New_Gradient_Swatch_3-64" x1="23.37" y1="49.17" x2="32.64" y2="83.79" xlink:href="#New_Gradient_Swatch_3"/><linearGradient id="New_Gradient_Swatch_3-65" x1="40.01" y1="148.9" x2="55.07" y2="205.08" xlink:href="#New_Gradient_Swatch_3"/><linearGradient id="New_Gradient_Swatch_3-66" x1="39.18" y1="147.82" x2="57.22" y2="215.12" xlink:href="#New_Gradient_Swatch_3"/><linearGradient id="New_Gradient_Swatch_3-67" x1="39.23" y1="143.77" x2="55.06" y2="202.85" xlink:href="#New_Gradient_Swatch_3"/><linearGradient id="New_Gradient_Swatch_3-68" x1="24.11" y1="47.72" x2="34.19" y2="85.36" xlink:href="#New_Gradient_Swatch_3"/><linearGradient id="New_Gradient_Swatch_3-69" x1="24.58" y1="47.57" x2="35.89" y2="89.75" xlink:href="#New_Gradient_Swatch_3"/><linearGradient id="New_Gradient_Swatch_3-70" x1="27.27" y1="43.77" x2="39.14" y2="88.07" xlink:href="#New_Gradient_Swatch_3"/><linearGradient id="New_Gradient_Swatch_3-71" x1="28" y1="42.88" x2="39.87" y2="87.19" xlink:href="#New_Gradient_Swatch_3"/><linearGradient id="New_Gradient_Swatch_3-72" x1="24.85" y1="46.43" x2="35.21" y2="85.08" xlink:href="#New_Gradient_Swatch_3"/><linearGradient id="New_Gradient_Swatch_3-73" x1="31.46" y1="39.38" x2="43.99" y2="86.15" xlink:href="#New_Gradient_Swatch_3"/><linearGradient id="New_Gradient_Swatch_3-74" x1="32.39" y1="38.44" x2="44.82" y2="84.86" xlink:href="#New_Gradient_Swatch_3"/><linearGradient id="New_Gradient_Swatch_3-75" x1="33.41" y1="37.65" x2="46.57" y2="86.79" xlink:href="#New_Gradient_Swatch_3"/><linearGradient id="New_Gradient_Swatch_3-76" x1="41.17" y1="139" x2="56.01" y2="194.38" xlink:href="#New_Gradient_Swatch_3"/><linearGradient id="New_Gradient_Swatch_3-77" x1="44.55" y1="133.25" x2="56.51" y2="177.87" xlink:href="#New_Gradient_Swatch_3"/><linearGradient id="New_Gradient_Swatch_3-78" x1="49.22" y1="128.54" x2="59.93" y2="168.53" xlink:href="#New_Gradient_Swatch_3"/><linearGradient id="New_Gradient_Swatch_3-79" x1="36.31" y1="35.05" x2="50.05" y2="86.32" xlink:href="#New_Gradient_Swatch_3"/><linearGradient id="New_Gradient_Swatch_3-80" x1="52.27" y1="126.26" x2="65.07" y2="174.05" xlink:href="#New_Gradient_Swatch_3"/><linearGradient id="New_Gradient_Swatch_3-81" x1="44.02" y1="28.74" x2="57.36" y2="78.51" xlink:href="#New_Gradient_Swatch_3"/><linearGradient id="New_Gradient_Swatch_3-82" x1="45.49" y1="27.52" x2="59.27" y2="78.95" xlink:href="#New_Gradient_Swatch_3"/><linearGradient id="New_Gradient_Swatch_3-83" x1="38.62" y1="33.04" x2="53.24" y2="87.63" xlink:href="#New_Gradient_Swatch_3"/><linearGradient id="New_Gradient_Swatch_3-84" x1="65.9" y1="113.14" x2="84.7" y2="183.31" xlink:href="#New_Gradient_Swatch_3"/><linearGradient id="New_Gradient_Swatch_3-85" x1="52.85" y1="20.9" x2="68.97" y2="81.05" xlink:href="#New_Gradient_Swatch_3"/><linearGradient id="New_Gradient_Swatch_3-86" x1="53.65" y1="17.02" x2="74.75" y2="95.75" xlink:href="#New_Gradient_Swatch_3"/><linearGradient id="New_Gradient_Swatch_3-87" x1="41.21" y1="31.41" x2="49.13" y2="60.98" xlink:href="#New_Gradient_Swatch_3"/><linearGradient id="New_Gradient_Swatch_3-88" x1="64" y1="119.33" x2="72.18" y2="149.87" xlink:href="#New_Gradient_Swatch_3"/><linearGradient id="New_Gradient_Swatch_3-89" x1="71.6" y1="113.7" x2="82.89" y2="155.81" xlink:href="#New_Gradient_Swatch_3"/><linearGradient id="New_Gradient_Swatch_3-90" x1="57.37" y1="11.81" x2="80.28" y2="97.32" xlink:href="#New_Gradient_Swatch_3"/><linearGradient id="New_Gradient_Swatch_3-91" x1="74.48" y1="105.48" x2="93.49" y2="176.43" xlink:href="#New_Gradient_Swatch_3"/><linearGradient id="New_Gradient_Swatch_3-92" x1="66.58" y1="1.24" x2="90.48" y2="90.41" xlink:href="#New_Gradient_Swatch_3"/><linearGradient id="New_Gradient_Swatch_3-93" x1="82.71" y1="90.29" x2="107.92" y2="184.4" xlink:href="#New_Gradient_Swatch_3"/><linearGradient id="New_Gradient_Swatch_3-94" x1="59.56" y1="5.73" x2="86.16" y2="105" xlink:href="#New_Gradient_Swatch_3"/><linearGradient id="New_Gradient_Swatch_3-95" x1="61.52" y1="-56.78" x2="121.12" y2="165.64" xlink:href="#New_Gradient_Swatch_3"/><linearGradient id="New_Gradient_Swatch_3-96" x1="72.02" y1="-24.89" x2="107.21" y2="106.43" xlink:href="#New_Gradient_Swatch_3"/><linearGradient id="New_Gradient_Swatch_3-97" x1="58.86" y1="-81.21" x2="129.65" y2="182.98" xlink:href="#New_Gradient_Swatch_3"/><linearGradient id="New_Gradient_Swatch_3-98" x1="81.11" y1="108.63" x2="92.56" y2="151.37" xlink:href="#New_Gradient_Swatch_3"/><linearGradient id="New_Gradient_Swatch_3-99" x1="90.25" y1="101.68" x2="103.66" y2="151.72" xlink:href="#New_Gradient_Swatch_3"/><linearGradient id="New_Gradient_Swatch_3-100" x1="97.64" y1="92.58" x2="114.11" y2="154.02" xlink:href="#New_Gradient_Swatch_3"/><linearGradient id="New_Gradient_Swatch_3-101" x1="76.33" y1="-35.67" x2="113.16" y2="101.81" xlink:href="#New_Gradient_Swatch_3"/><linearGradient id="New_Gradient_Swatch_3-102" x1="84.07" y1="-13.87" x2="107.22" y2="72.53" xlink:href="#New_Gradient_Swatch_3"/><linearGradient id="New_Gradient_Swatch_3-103" x1="96.35" y1="-3.82" x2="111.5" y2="52.73" xlink:href="#New_Gradient_Swatch_3"/><linearGradient id="New_Gradient_Swatch_3-104" x1="98.65" y1="-2.34" x2="112.77" y2="50.35" xlink:href="#New_Gradient_Swatch_3"/><linearGradient id="New_Gradient_Swatch_3-105" x1="82.46" y1="-26.82" x2="112.05" y2="83.58" xlink:href="#New_Gradient_Swatch_3"/><linearGradient id="New_Gradient_Swatch_3-106" x1="107.94" y1="6.01" x2="117.6" y2="42.05" xlink:href="#New_Gradient_Swatch_3"/><linearGradient id="New_Gradient_Swatch_3-107" x1="109.52" y1="5.99" x2="119.09" y2="41.72" xlink:href="#New_Gradient_Swatch_3"/><linearGradient id="New_Gradient_Swatch_3-108" x1="112.36" y1="10.92" x2="119.88" y2="39" xlink:href="#New_Gradient_Swatch_3"/><linearGradient id="New_Gradient_Swatch_3-109" x1="108.77" y1="94.06" x2="121.82" y2="142.75" xlink:href="#New_Gradient_Swatch_3"/><linearGradient id="New_Gradient_Swatch_3-110" x1="118.22" y1="93.24" x2="130.3" y2="138.31" xlink:href="#New_Gradient_Swatch_3"/><linearGradient id="New_Gradient_Swatch_3-111" x1="126.76" y1="95.53" x2="137.26" y2="134.74" xlink:href="#New_Gradient_Swatch_3"/><linearGradient id="New_Gradient_Swatch_3-112" x1="117.66" y1="15.8" x2="123.3" y2="36.85" xlink:href="#New_Gradient_Swatch_3"/><linearGradient id="New_Gradient_Swatch_3-113" x1="133.21" y1="105.5" x2="139.84" y2="130.27" xlink:href="#New_Gradient_Swatch_3"/><linearGradient id="New_Gradient_Swatch_3-114" x1="126.91" y1="21.15" x2="131.09" y2="36.74" xlink:href="#New_Gradient_Swatch_3"/><linearGradient id="New_Gradient_Swatch_3-115" x1="127.94" y1="20.62" x2="132.41" y2="37.32" xlink:href="#New_Gradient_Swatch_3"/><linearGradient id="New_Gradient_Swatch_3-116" x1="121.67" y1="20.68" x2="125.61" y2="35.38" xlink:href="#New_Gradient_Swatch_3"/><linearGradient id="New_Gradient_Swatch_3-117" x1="147.45" y1="115.67" x2="151.51" y2="130.8" xlink:href="#New_Gradient_Swatch_3"/><linearGradient id="New_Gradient_Swatch_3-118" x1="131.76" y1="17.37" x2="137.87" y2="40.18" xlink:href="#New_Gradient_Swatch_3"/><linearGradient id="New_Gradient_Swatch_3-119" x1="134" y1="23.08" x2="138.43" y2="39.6" xlink:href="#New_Gradient_Swatch_3"/><linearGradient id="New_Gradient_Swatch_3-120" x1="119.57" y1="3.27" x2="129.87" y2="41.69" xlink:href="#New_Gradient_Swatch_3"/><linearGradient id="New_Gradient_Swatch_3-121" x1="139.85" y1="93.83" x2="150.85" y2="134.87" xlink:href="#New_Gradient_Swatch_3"/><linearGradient id="New_Gradient_Swatch_3-122" x1="144.1" y1="95.07" x2="155.01" y2="135.77" xlink:href="#New_Gradient_Swatch_3"/><linearGradient id="New_Gradient_Swatch_3-123" x1="134.98" y1="20.5" x2="140.58" y2="41.4" xlink:href="#New_Gradient_Swatch_3"/><linearGradient id="New_Gradient_Swatch_3-124" x1="148.78" y1="107.01" x2="156.28" y2="134.99" xlink:href="#New_Gradient_Swatch_3"/><linearGradient id="New_Gradient_Swatch_3-125" x1="134.77" y1="12.03" x2="143.81" y2="45.76" xlink:href="#New_Gradient_Swatch_3"/><linearGradient id="New_Gradient_Swatch_3-126" x1="149.6" y1="103.82" x2="158.94" y2="138.68" xlink:href="#New_Gradient_Swatch_3"/><linearGradient id="New_Gradient_Swatch_3-127" x1="135.85" y1="20.33" x2="141.79" y2="42.47" xlink:href="#New_Gradient_Swatch_3"/><linearGradient id="New_Gradient_Swatch_3-128" x1="135.42" y1="15.1" x2="144.42" y2="48.7" xlink:href="#New_Gradient_Swatch_3"/><linearGradient id="New_Gradient_Swatch_3-129" x1="133.63" y1="9.29" x2="144.52" y2="49.94" xlink:href="#New_Gradient_Swatch_3"/><linearGradient id="New_Gradient_Swatch_3-130" x1="134.98" y1="15.41" x2="144.26" y2="50.03" xlink:href="#New_Gradient_Swatch_3"/><linearGradient id="New_Gradient_Swatch_3-131" x1="143.48" y1="83.24" x2="158.53" y2="139.42" xlink:href="#New_Gradient_Swatch_3"/><linearGradient id="New_Gradient_Swatch_3-132" x1="141.97" y1="75.57" x2="160" y2="142.88" xlink:href="#New_Gradient_Swatch_3"/><linearGradient id="New_Gradient_Swatch_3-133" x1="92.92" y1="120.43" x2="105" y2="165.52" xlink:href="#New_Gradient_Swatch_3"/><linearGradient id="New_Gradient_Swatch_3-134" x1="92.91" y1="120.42" x2="105" y2="165.54" xlink:href="#New_Gradient_Swatch_3"/><linearGradient id="New_Gradient_Swatch_3-135" x1="-193.97" y1="506.61" x2="-193.97" y2="465.75" gradientTransform="translate(479.56 -222.62) rotate(25.29)" xlink:href="#New_Gradient_Swatch_3"/><radialGradient id="radial-gradient-2" cx="33.79" cy="-1222.38" r="90.39" gradientTransform="translate(57.48 347.39) scale(0.81 0.25)" gradientUnits="userSpaceOnUse"><stop offset="0.76"/><stop offset="0.79" stop-opacity="0.77"/><stop offset="1" stop-opacity="0"/></radialGradient><linearGradient id="New_Gradient_Swatch_6-3" x1="-33.46" y1="121.6" x2="118.63" y2="121.6" xlink:href="#New_Gradient_Swatch_6"/><linearGradient id="New_Gradient_Swatch_6-4" x1="23.89" y1="114.67" x2="163.75" y2="114.67" gradientTransform="translate(1.01 -0.82) rotate(0.5)" xlink:href="#New_Gradient_Swatch_6"/><linearGradient id="New_Gradient_Swatch_3-138" x1="139.81" y1="62.6" x2="155.63" y2="121.68" xlink:href="#New_Gradient_Swatch_3"/><linearGradient id="New_Gradient_Swatch_3-139" x1="129.78" y1="-8.95" x2="139.85" y2="28.63" xlink:href="#New_Gradient_Swatch_3"/><linearGradient id="New_Gradient_Swatch_3-140" x1="128.33" y1="-12.42" x2="139.63" y2="29.76" xlink:href="#New_Gradient_Swatch_3"/><linearGradient id="New_Gradient_Swatch_3-141" x1="125.19" y1="-10.34" x2="137.07" y2="34.01" xlink:href="#New_Gradient_Swatch_3"/><linearGradient id="New_Gradient_Swatch_3-142" x1="124.48" y1="-9.37" x2="136.34" y2="34.9" xlink:href="#New_Gradient_Swatch_3"/><linearGradient id="New_Gradient_Swatch_3-143" x1="128.81" y1="-8.51" x2="139.16" y2="30.14" xlink:href="#New_Gradient_Swatch_3"/><linearGradient id="New_Gradient_Swatch_3-144" x1="120.49" y1="-7.84" x2="133.02" y2="38.93" xlink:href="#New_Gradient_Swatch_3"/><linearGradient id="New_Gradient_Swatch_3-145" x1="119.64" y1="-6.62" x2="132.08" y2="39.79" xlink:href="#New_Gradient_Swatch_3"/><linearGradient id="New_Gradient_Swatch_3-146" x1="118.03" y1="-8.03" x2="131.21" y2="41.17" xlink:href="#New_Gradient_Swatch_3"/><linearGradient id="New_Gradient_Swatch_3-147" x1="138.64" y1="70.24" x2="153.49" y2="125.66" xlink:href="#New_Gradient_Swatch_3"/><linearGradient id="New_Gradient_Swatch_3-148" x1="137.54" y1="84.52" x2="149.49" y2="129.11" xlink:href="#New_Gradient_Swatch_3"/><linearGradient id="New_Gradient_Swatch_3-149" x1="133.84" y1="92.84" x2="144.56" y2="132.83" xlink:href="#New_Gradient_Swatch_3"/><linearGradient id="New_Gradient_Swatch_3-150" x1="114.7" y1="-7" x2="128.42" y2="44.21" xlink:href="#New_Gradient_Swatch_3"/><linearGradient id="New_Gradient_Swatch_3-151" x1="129.15" y1="88.98" x2="141.96" y2="136.78" xlink:href="#New_Gradient_Swatch_3"/><linearGradient id="New_Gradient_Swatch_3-152" x1="107.29" y1="0.43" x2="120.63" y2="50.21" xlink:href="#New_Gradient_Swatch_3"/><linearGradient id="New_Gradient_Swatch_3-153" x1="105.48" y1="0.35" x2="119.26" y2="51.78" xlink:href="#New_Gradient_Swatch_3"/><linearGradient id="New_Gradient_Swatch_3-154" x1="111.7" y1="-7.6" x2="126.3" y2="46.92" xlink:href="#New_Gradient_Swatch_3"/><linearGradient id="New_Gradient_Swatch_3-155" x1="110.82" y1="84.56" x2="129.6" y2="154.65" xlink:href="#New_Gradient_Swatch_3"/><linearGradient id="New_Gradient_Swatch_3-156" x1="96.26" y1="0.06" x2="112.4" y2="60.29" xlink:href="#New_Gradient_Swatch_3"/><linearGradient id="New_Gradient_Swatch_3-157" x1="91.56" y1="-10.61" x2="112.66" y2="68.12" xlink:href="#New_Gradient_Swatch_3"/><linearGradient id="New_Gradient_Swatch_3-158" x1="114.37" y1="13.68" x2="122.28" y2="43.21" xlink:href="#New_Gradient_Swatch_3"/><linearGradient id="New_Gradient_Swatch_3-159" x1="121.05" y1="109.45" x2="129.24" y2="140.03" xlink:href="#New_Gradient_Swatch_3"/><linearGradient id="New_Gradient_Swatch_3-160" x1="111.01" y1="106.01" x2="122.3" y2="148.13" xlink:href="#New_Gradient_Swatch_3"/><linearGradient id="New_Gradient_Swatch_3-161" x1="86.41" y1="-10.74" x2="109.33" y2="74.77" xlink:href="#New_Gradient_Swatch_3"/><linearGradient id="New_Gradient_Swatch_3-162" x1="102.06" y1="91.56" x2="121.07" y2="162.49" xlink:href="#New_Gradient_Swatch_3"/><linearGradient id="New_Gradient_Swatch_3-163" x1="76.43" y1="-3.05" x2="100.32" y2="86.13" xlink:href="#New_Gradient_Swatch_3"/><linearGradient id="New_Gradient_Swatch_3-164" x1="88.94" y1="88.48" x2="114.18" y2="182.69" xlink:href="#New_Gradient_Swatch_3"/><linearGradient id="New_Gradient_Swatch_3-165" x1="81.32" y1="-15.48" x2="107.92" y2="83.79" xlink:href="#New_Gradient_Swatch_3"/><linearGradient id="New_Gradient_Swatch_3-166" x1="53.43" y1="-49.78" x2="113" y2="172.54" xlink:href="#New_Gradient_Swatch_3"/><linearGradient id="New_Gradient_Swatch_3-167" x1="62.11" y1="-10.05" x2="97.29" y2="121.24" xlink:href="#New_Gradient_Swatch_3"/><linearGradient id="New_Gradient_Swatch_3-168" x1="46.95" y1="-59.44" x2="118.59" y2="207.91" xlink:href="#New_Gradient_Swatch_3"/><linearGradient id="New_Gradient_Swatch_3-169" x1="101.38" y1="110.61" x2="112.82" y2="153.31" xlink:href="#New_Gradient_Swatch_3"/><linearGradient id="New_Gradient_Swatch_3-170" x1="90.69" y1="111.8" x2="104.1" y2="161.84" xlink:href="#New_Gradient_Swatch_3"/><linearGradient id="New_Gradient_Swatch_3-171" x1="80.91" y1="111.95" x2="97.35" y2="173.33" xlink:href="#New_Gradient_Swatch_3"/><linearGradient id="New_Gradient_Swatch_3-172" x1="56.5" y1="-4.14" x2="93.35" y2="133.37" xlink:href="#New_Gradient_Swatch_3"/><linearGradient id="New_Gradient_Swatch_3-173" x1="59.52" y1="14.21" x2="82.7" y2="100.71" xlink:href="#New_Gradient_Swatch_3"/><linearGradient id="New_Gradient_Swatch_3-174" x1="53.53" y1="27.64" x2="68.71" y2="84.29" xlink:href="#New_Gradient_Swatch_3"/><linearGradient id="New_Gradient_Swatch_3-175" x1="52.05" y1="29.24" x2="66.15" y2="81.85" xlink:href="#New_Gradient_Swatch_3"/><linearGradient id="New_Gradient_Swatch_3-176" x1="56.06" y1="8.27" x2="85.69" y2="118.84" xlink:href="#New_Gradient_Swatch_3"/><linearGradient id="New_Gradient_Swatch_3-177" x1="46.27" y1="33.97" x2="55.92" y2="70" xlink:href="#New_Gradient_Swatch_3"/><linearGradient id="New_Gradient_Swatch_3-178" x1="44.76" y1="34.23" x2="54.33" y2="69.96" xlink:href="#New_Gradient_Swatch_3"/><linearGradient id="New_Gradient_Swatch_3-179" x1="43.53" y1="35.32" x2="51.05" y2="63.4" xlink:href="#New_Gradient_Swatch_3"/><linearGradient id="New_Gradient_Swatch_3-180" x1="72.46" y1="120.49" x2="85.49" y2="169.14" xlink:href="#New_Gradient_Swatch_3"/><linearGradient id="New_Gradient_Swatch_3-181" x1="63.77" y1="124.14" x2="75.85" y2="169.21" xlink:href="#New_Gradient_Swatch_3"/><linearGradient id="New_Gradient_Swatch_3-182" x1="56.47" y1="126.46" x2="66.99" y2="165.72" xlink:href="#New_Gradient_Swatch_3"/><linearGradient id="New_Gradient_Swatch_3-183" x1="39.71" y1="35.97" x2="45.35" y2="57.02" xlink:href="#New_Gradient_Swatch_3"/><linearGradient id="New_Gradient_Swatch_3-184" x1="53.06" y1="127.85" x2="59.71" y2="152.67" xlink:href="#New_Gradient_Swatch_3"/><linearGradient id="New_Gradient_Swatch_3-185" x1="31.61" y1="34.91" x2="35.77" y2="50.44" xlink:href="#New_Gradient_Swatch_3"/><linearGradient id="New_Gradient_Swatch_3-186" x1="30.34" y1="34.57" x2="34.8" y2="51.21" xlink:href="#New_Gradient_Swatch_3"/><linearGradient id="New_Gradient_Swatch_3-187" x1="37.03" y1="36.07" x2="40.97" y2="50.78" xlink:href="#New_Gradient_Swatch_3"/><linearGradient id="New_Gradient_Swatch_3-188" x1="40.85" y1="125.26" x2="44.9" y2="140.39" xlink:href="#New_Gradient_Swatch_3"/><linearGradient id="New_Gradient_Swatch_3-189" x1="25.23" y1="33.01" x2="31.33" y2="55.76" xlink:href="#New_Gradient_Swatch_3"/><linearGradient id="New_Gradient_Swatch_3-190" x1="24.32" y1="32.24" x2="28.73" y2="48.7" xlink:href="#New_Gradient_Swatch_3"/><linearGradient id="New_Gradient_Swatch_3-191" x1="34.13" y1="34.83" x2="44.43" y2="73.25" xlink:href="#New_Gradient_Swatch_3"/><linearGradient id="New_Gradient_Swatch_3-192" x1="42.99" y1="126.73" x2="53.98" y2="167.77" xlink:href="#New_Gradient_Swatch_3"/><linearGradient id="New_Gradient_Swatch_3-193" x1="38.81" y1="125.75" x2="49.71" y2="166.41" xlink:href="#New_Gradient_Swatch_3"/><linearGradient id="New_Gradient_Swatch_3-194" x1="22.42" y1="31.38" x2="28.02" y2="52.3" xlink:href="#New_Gradient_Swatch_3"/><linearGradient id="New_Gradient_Swatch_3-195" x1="36.81" y1="123.82" x2="44.32" y2="151.85" xlink:href="#New_Gradient_Swatch_3"/><linearGradient id="New_Gradient_Swatch_3-196" x1="19.92" y1="29.76" x2="28.96" y2="63.5" xlink:href="#New_Gradient_Swatch_3"/><linearGradient id="New_Gradient_Swatch_3-197" x1="34.54" y1="121.6" x2="43.9" y2="156.51" xlink:href="#New_Gradient_Swatch_3"/><linearGradient id="New_Gradient_Swatch_3-198" x1="21.28" y1="30.58" x2="27.22" y2="52.72" xlink:href="#New_Gradient_Swatch_3"/><linearGradient id="New_Gradient_Swatch_3-199" x1="19.31" y1="26.79" x2="28.31" y2="60.39" xlink:href="#New_Gradient_Swatch_3"/><linearGradient id="New_Gradient_Swatch_3-200" x1="19.61" y1="27.07" x2="30.52" y2="67.77" xlink:href="#New_Gradient_Swatch_3"/><linearGradient id="New_Gradient_Swatch_3-201" x1="19.52" y1="25.68" x2="28.8" y2="60.3" xlink:href="#New_Gradient_Swatch_3"/><linearGradient id="New_Gradient_Swatch_3-202" x1="36.17" y1="125.41" x2="51.22" y2="181.59" xlink:href="#New_Gradient_Swatch_3"/><linearGradient id="New_Gradient_Swatch_3-203" x1="35.34" y1="124.33" x2="53.37" y2="191.63" xlink:href="#New_Gradient_Swatch_3"/><linearGradient id="New_Gradient_Swatch_3-204" x1="35.39" y1="120.28" x2="51.22" y2="179.36" xlink:href="#New_Gradient_Swatch_3"/><linearGradient id="New_Gradient_Swatch_3-205" x1="20.26" y1="24.23" x2="30.35" y2="61.87" xlink:href="#New_Gradient_Swatch_3"/><linearGradient id="New_Gradient_Swatch_3-206" x1="20.74" y1="24.08" x2="32.04" y2="66.26" xlink:href="#New_Gradient_Swatch_3"/><linearGradient id="New_Gradient_Swatch_3-207" x1="23.43" y1="20.28" x2="35.29" y2="64.57" xlink:href="#New_Gradient_Swatch_3"/><linearGradient id="New_Gradient_Swatch_3-208" x1="24.15" y1="19.39" x2="36.03" y2="63.7" xlink:href="#New_Gradient_Swatch_3"/><linearGradient id="New_Gradient_Swatch_3-209" x1="21.01" y1="22.94" x2="31.36" y2="61.58" xlink:href="#New_Gradient_Swatch_3"/><linearGradient id="New_Gradient_Swatch_3-210" x1="27.62" y1="15.89" x2="40.15" y2="62.66" xlink:href="#New_Gradient_Swatch_3"/><linearGradient id="New_Gradient_Swatch_3-211" x1="28.54" y1="14.95" x2="40.98" y2="61.36" xlink:href="#New_Gradient_Swatch_3"/><linearGradient id="New_Gradient_Swatch_3-212" x1="29.56" y1="14.16" x2="42.73" y2="63.3" xlink:href="#New_Gradient_Swatch_3"/><linearGradient id="New_Gradient_Swatch_3-213" x1="37.33" y1="115.51" x2="52.17" y2="170.89" xlink:href="#New_Gradient_Swatch_3"/><linearGradient id="New_Gradient_Swatch_3-214" x1="40.71" y1="109.76" x2="52.66" y2="154.38" xlink:href="#New_Gradient_Swatch_3"/><linearGradient id="New_Gradient_Swatch_3-215" x1="45.37" y1="105.05" x2="56.09" y2="145.04" xlink:href="#New_Gradient_Swatch_3"/><linearGradient id="New_Gradient_Swatch_3-216" x1="32.47" y1="11.56" x2="46.21" y2="62.83" xlink:href="#New_Gradient_Swatch_3"/><linearGradient id="New_Gradient_Swatch_3-217" x1="48.42" y1="102.77" x2="61.23" y2="150.56" xlink:href="#New_Gradient_Swatch_3"/><linearGradient id="New_Gradient_Swatch_3-218" x1="40.18" y1="5.24" x2="53.52" y2="55.02" xlink:href="#New_Gradient_Swatch_3"/><linearGradient id="New_Gradient_Swatch_3-219" x1="41.64" y1="4.03" x2="55.42" y2="55.46" xlink:href="#New_Gradient_Swatch_3"/><linearGradient id="New_Gradient_Swatch_3-220" x1="34.77" y1="9.55" x2="49.4" y2="64.13" xlink:href="#New_Gradient_Swatch_3"/><linearGradient id="New_Gradient_Swatch_3-221" x1="62.05" y1="89.65" x2="80.86" y2="159.82" xlink:href="#New_Gradient_Swatch_3"/><linearGradient id="New_Gradient_Swatch_3-222" x1="49.01" y1="-2.59" x2="65.13" y2="57.56" xlink:href="#New_Gradient_Swatch_3"/><linearGradient id="New_Gradient_Swatch_3-223" x1="49.81" y1="-6.48" x2="70.9" y2="72.25" xlink:href="#New_Gradient_Swatch_3"/><linearGradient id="New_Gradient_Swatch_3-224" x1="37.36" y1="7.92" x2="45.29" y2="37.49" xlink:href="#New_Gradient_Swatch_3"/><linearGradient id="New_Gradient_Swatch_3-225" x1="60.15" y1="95.84" x2="68.33" y2="126.38" xlink:href="#New_Gradient_Swatch_3"/><linearGradient id="New_Gradient_Swatch_3-226" x1="67.76" y1="90.2" x2="79.04" y2="132.32" xlink:href="#New_Gradient_Swatch_3"/><linearGradient id="New_Gradient_Swatch_3-227" x1="53.53" y1="-11.68" x2="76.44" y2="73.83" xlink:href="#New_Gradient_Swatch_3"/><linearGradient id="New_Gradient_Swatch_3-228" x1="70.64" y1="81.99" x2="89.64" y2="152.93" xlink:href="#New_Gradient_Swatch_3"/><linearGradient id="New_Gradient_Swatch_3-229" x1="62.74" y1="-22.26" x2="86.63" y2="66.92" xlink:href="#New_Gradient_Swatch_3"/><linearGradient id="New_Gradient_Swatch_3-230" x1="78.86" y1="66.8" x2="104.08" y2="160.91" xlink:href="#New_Gradient_Swatch_3"/><linearGradient id="New_Gradient_Swatch_3-231" x1="55.72" y1="-17.76" x2="82.31" y2="81.51" xlink:href="#New_Gradient_Swatch_3"/><linearGradient id="New_Gradient_Swatch_3-232" x1="57.67" y1="-80.27" x2="117.27" y2="142.15" xlink:href="#New_Gradient_Swatch_3"/><linearGradient id="New_Gradient_Swatch_3-233" x1="68.18" y1="-48.39" x2="103.36" y2="82.94" xlink:href="#New_Gradient_Swatch_3"/><linearGradient id="New_Gradient_Swatch_3-234" x1="55.02" y1="-104.7" x2="125.81" y2="159.49" xlink:href="#New_Gradient_Swatch_3"/><linearGradient id="New_Gradient_Swatch_3-235" x1="77.26" y1="85.14" x2="88.71" y2="127.87" xlink:href="#New_Gradient_Swatch_3"/><linearGradient id="New_Gradient_Swatch_3-236" x1="86.41" y1="78.19" x2="99.81" y2="128.22" xlink:href="#New_Gradient_Swatch_3"/><linearGradient id="New_Gradient_Swatch_3-237" x1="93.8" y1="69.09" x2="110.26" y2="130.53" xlink:href="#New_Gradient_Swatch_3"/><linearGradient id="New_Gradient_Swatch_3-238" x1="72.48" y1="-59.16" x2="109.32" y2="78.31" xlink:href="#New_Gradient_Swatch_3"/><linearGradient id="New_Gradient_Swatch_3-239" x1="80.22" y1="-37.36" x2="103.37" y2="49.03" xlink:href="#New_Gradient_Swatch_3"/><linearGradient id="New_Gradient_Swatch_3-240" x1="92.5" y1="-27.31" x2="107.66" y2="29.24" xlink:href="#New_Gradient_Swatch_3"/><linearGradient id="New_Gradient_Swatch_3-241" x1="94.81" y1="-25.84" x2="108.93" y2="26.86" xlink:href="#New_Gradient_Swatch_3"/><linearGradient id="New_Gradient_Swatch_3-242" x1="78.62" y1="-50.31" x2="108.2" y2="60.08" xlink:href="#New_Gradient_Swatch_3"/><linearGradient id="New_Gradient_Swatch_3-243" x1="104.1" y1="-17.48" x2="113.75" y2="18.56" xlink:href="#New_Gradient_Swatch_3"/><linearGradient id="New_Gradient_Swatch_3-244" x1="105.67" y1="-17.5" x2="115.25" y2="18.23" xlink:href="#New_Gradient_Swatch_3"/><linearGradient id="New_Gradient_Swatch_3-245" x1="108.51" y1="-12.57" x2="116.03" y2="15.51" xlink:href="#New_Gradient_Swatch_3"/><linearGradient id="New_Gradient_Swatch_3-246" x1="104.93" y1="70.57" x2="117.97" y2="119.26" xlink:href="#New_Gradient_Swatch_3"/><linearGradient id="New_Gradient_Swatch_3-247" x1="114.38" y1="69.75" x2="126.45" y2="114.82" xlink:href="#New_Gradient_Swatch_3"/><linearGradient id="New_Gradient_Swatch_3-248" x1="122.91" y1="72.04" x2="133.42" y2="111.24" xlink:href="#New_Gradient_Swatch_3"/><linearGradient id="New_Gradient_Swatch_3-249" x1="113.82" y1="-7.7" x2="119.46" y2="13.36" xlink:href="#New_Gradient_Swatch_3"/><linearGradient id="New_Gradient_Swatch_3-250" x1="129.36" y1="82.01" x2="136" y2="106.77" xlink:href="#New_Gradient_Swatch_3"/><linearGradient id="New_Gradient_Swatch_3-251" x1="123.07" y1="-2.34" x2="127.24" y2="13.25" xlink:href="#New_Gradient_Swatch_3"/><linearGradient id="New_Gradient_Swatch_3-252" x1="124.09" y1="-2.88" x2="128.57" y2="13.83" xlink:href="#New_Gradient_Swatch_3"/><linearGradient id="New_Gradient_Swatch_3-253" x1="117.83" y1="-2.81" x2="121.77" y2="11.89" xlink:href="#New_Gradient_Swatch_3"/><linearGradient id="New_Gradient_Swatch_3-254" x1="143.61" y1="92.18" x2="147.66" y2="107.31" xlink:href="#New_Gradient_Swatch_3"/><linearGradient id="New_Gradient_Swatch_3-255" x1="127.92" y1="-6.12" x2="134.03" y2="16.69" xlink:href="#New_Gradient_Swatch_3"/><linearGradient id="New_Gradient_Swatch_3-256" x1="130.16" y1="-0.41" x2="134.58" y2="16.11" xlink:href="#New_Gradient_Swatch_3"/><linearGradient id="New_Gradient_Swatch_3-257" x1="115.73" y1="-20.22" x2="126.02" y2="18.2" xlink:href="#New_Gradient_Swatch_3"/><linearGradient id="New_Gradient_Swatch_3-258" x1="136.01" y1="70.34" x2="147" y2="111.38" xlink:href="#New_Gradient_Swatch_3"/><linearGradient id="New_Gradient_Swatch_3-259" x1="140.25" y1="71.57" x2="151.16" y2="112.28" xlink:href="#New_Gradient_Swatch_3"/><linearGradient id="New_Gradient_Swatch_3-260" x1="131.14" y1="-2.99" x2="136.74" y2="17.91" xlink:href="#New_Gradient_Swatch_3"/><linearGradient id="New_Gradient_Swatch_3-261" x1="144.93" y1="83.52" x2="152.43" y2="111.49" xlink:href="#New_Gradient_Swatch_3"/><linearGradient id="New_Gradient_Swatch_3-262" x1="130.93" y1="-11.47" x2="139.97" y2="22.27" xlink:href="#New_Gradient_Swatch_3"/><linearGradient id="New_Gradient_Swatch_3-263" x1="145.75" y1="80.33" x2="155.09" y2="115.19" xlink:href="#New_Gradient_Swatch_3"/><linearGradient id="New_Gradient_Swatch_3-264" x1="132.01" y1="-3.16" x2="137.94" y2="18.98" xlink:href="#New_Gradient_Swatch_3"/><linearGradient id="New_Gradient_Swatch_3-265" x1="131.57" y1="-8.39" x2="140.57" y2="25.21" xlink:href="#New_Gradient_Swatch_3"/><linearGradient id="New_Gradient_Swatch_3-266" x1="129.78" y1="-14.2" x2="140.67" y2="26.44" xlink:href="#New_Gradient_Swatch_3"/><linearGradient id="New_Gradient_Swatch_3-267" x1="131.14" y1="-8.08" x2="140.42" y2="26.54" xlink:href="#New_Gradient_Swatch_3"/><linearGradient id="New_Gradient_Swatch_3-268" x1="139.64" y1="59.75" x2="154.69" y2="115.93" xlink:href="#New_Gradient_Swatch_3"/><linearGradient id="New_Gradient_Swatch_3-269" x1="138.12" y1="52.08" x2="156.16" y2="119.38" xlink:href="#New_Gradient_Swatch_3"/><linearGradient id="New_Gradient_Swatch_3-270" x1="89.07" y1="96.94" x2="101.15" y2="142.02" xlink:href="#New_Gradient_Swatch_3"/><linearGradient id="New_Gradient_Swatch_3-271" x1="89.07" y1="96.93" x2="101.16" y2="142.05" xlink:href="#New_Gradient_Swatch_3"/><linearGradient id="New_Gradient_Swatch_7" x1="55.15" y1="114.36" x2="126.18" y2="114.36" gradientUnits="userSpaceOnUse"><stop offset="0" stop-color="#b6b9ba"/><stop offset="1" stop-color="#e9e9ea"/></linearGradient><linearGradient id="New_Gradient_Swatch_7-2" x1="90.54" y1="109.02" x2="130.22" y2="109.02" xlink:href="#New_Gradient_Swatch_7"/></defs><g class="cls-1"><g id="Layer_1" data-name="Layer 1"><rect class="cls-2" x="5.14" y="39.26" width="153" height="62.83" rx="10"/><ellipse class="cls-3" cx="83.22" cy="73.12" rx="83.22" ry="24.74"/><path class="cls-4" d="M167.6,137.64s0,0,0,.06c.17-11.58-27.47-21.22-64.08-21.91-38.48-.73-72.3,8.69-75.52,21a7.86,7.86,0,0,0-.25,2l.12,13.87c.05,5.9,7.34,11.29,19.34,15.23,1.74.57,3.59,1.11,5.52,1.62,1.51.4,3.09.77,4.71,1.13,1.43.31,2.88.6,4.38.88s2.76.49,4.18.71,2.7.4,4.08.59,2.65.33,4,.47,2.67.27,4,.39,2.72.22,4.1.31,2.76.17,4.17.23,2.85.11,4.29.15l1.27,0c1,0,2.1,0,3.15,0,1.5,0,3,0,4.49,0s3.14-.07,4.69-.13c1.75-.06,3.48-.14,5.2-.25q3.48-.22,6.86-.55a157.61,157.61,0,0,0,25.29-4.35c2.4-.63,4.67-1.32,6.8-2,1.54-.53,3-1.09,4.4-1.67,1.16-.48,2.26-1,3.3-1.48s1.8-.92,2.62-1.39,1.47-.89,2.14-1.34,1.23-.87,1.79-1.31,1-.87,1.48-1.31.85-.88,1.21-1.31a14.33,14.33,0,0,0,1-1.35,12.47,12.47,0,0,0,.73-1.4,8.92,8.92,0,0,0,.39-1.17c0-.1.06-.2.08-.3a6.73,6.73,0,0,0,.17-1.54v-.12Zm-.18,1.55c0,.09,0,0,0-.11C167.43,139.12,167.43,139.15,167.42,139.19Z" transform="translate(-14.84 -92.26)"/><ellipse class="cls-5" cx="97.67" cy="138.16" rx="69.93" ry="22.4" transform="translate(-16.05 -91.39) rotate(-0.5)"/><path class="cls-6" d="M160.2,139.35l-3.86-.07c-.14.38-.23.77-.41,1.15l3.83.15a12.09,12.09,0,0,0,.44-1.23" transform="translate(-14.84 -92.26)"/><polyline class="cls-7" points="140.91 48.53 140.82 48.69 144.64 48.87 144.73 48.7 140.91 48.53"/><polyline class="cls-8" points="140.65 49.02 140.4 49.4 144.18 49.62 144.45 49.22 140.65 49.02"/><polyline class="cls-9" points="137.97 52.09 137.54 52.45 141.14 52.88 141.59 52.49 137.97 52.09"/><polyline class="cls-10" points="137.22 52.71 136.74 53.07 140.28 53.54 140.8 53.16 137.22 52.71"/><polyline class="cls-11" points="140.17 49.74 140.09 49.86 143.85 50.12 143.94 49.99 140.17 49.74"/><polyline class="cls-12" points="133.48 55.13 133.21 55.27 136.52 55.89 136.81 55.74 133.48 55.13"/><polyline class="cls-13" points="132.66 55.56 132.02 55.89 135.26 56.55 135.94 56.19 132.66 55.56"/><polyline class="cls-14" points="131.4 56.18 131.18 56.29 134.36 56.97 134.6 56.86 131.4 56.18"/><path class="cls-15" d="M154.65,142.46a15.16,15.16,0,0,1-1.47,1.57l3.64.39a16.3,16.3,0,0,0,1.58-1.68l-3.75-.28" transform="translate(-14.84 -92.26)"/><path class="cls-16" d="M151.15,145.65l-1.12.74c-.38.25-.82.48-1.23.72l3.37.59c.43-.26.9-.51,1.3-.77l1.2-.79-3.52-.49" transform="translate(-14.84 -92.26)"/><path class="cls-17" d="M146,148.54c-.66.33-1.42.64-2.14,1l3,.75c.78-.34,1.58-.66,2.29-1l-3.18-.69" transform="translate(-14.84 -92.26)"/><polyline class="cls-18" points="128.33 57.52 128 57.65 130.97 58.42 131.32 58.28 128.33 57.52"/><path class="cls-19" d="M142.18,150.16c-.26.1-.52.2-.8.29l2.87.81.85-.31-2.92-.79" transform="translate(-14.84 -92.26)"/><polyline class="cls-20" points="120.24 60.17 119.31 60.42 121.71 61.38 122.71 61.11 120.24 60.17"/><polyline class="cls-21" points="118.64 60.6 117.67 60.83 119.96 61.81 121 61.56 118.64 60.6"/><polyline class="cls-22" points="125.8 58.46 125.52 58.56 128.33 59.39 128.62 59.29 125.8 58.46"/><path class="cls-23" d="M126.51,154.38l-.46.09,1.88,1.07.48-.09-1.9-1.07" transform="translate(-14.84 -92.26)"/><polyline class="cls-24" points="110.3 62.37 109.24 62.56 110.98 63.66 112.11 63.45 110.3 62.37"/><polyline class="cls-25" points="108.26 62.72 107.9 62.78 109.55 63.89 109.94 63.82 108.26 62.72"/><polyline class="cls-26" points="124.77 58.81 122.95 59.4 121.04 59.95 123.56 60.88 125.59 60.29 127.53 59.66 124.77 58.81"/><path class="cls-27" d="M131.63,153.3c-1.39.32-2.81.64-4.28.92l2,1.05c1.57-.3,3.08-.63,4.57-1l-2.24-1" transform="translate(-14.84 -92.26)"/><path class="cls-28" d="M122.74,155l-1.64.26-1.67.23,1.44,1.14,1.77-.25c.59-.08,1.17-.18,1.75-.27L122.74,155" transform="translate(-14.84 -92.26)"/><polyline class="cls-29" points="103.55 63.4 103.07 63.46 104.4 64.62 104.92 64.56 103.55 63.4"/><path class="cls-30" d="M116.94,155.84l-1.14.13,1.2,1.17,1.21-.14-1.27-1.16" transform="translate(-14.84 -92.26)"/><polyline class="cls-31" points="92.52 64.44 91.32 64.51 91.88 65.73 93.15 65.66 92.52 64.44"/><path class="cls-32" d="M105.32,156.81l-1.2.05.42,1.23c.43,0,.85,0,1.27-.06l-.49-1.22" transform="translate(-14.84 -92.26)"/><polyline class="cls-33" points="99.92 63.83 99.53 63.86 100.63 65.04 101.05 65 99.92 63.83"/><polyline class="cls-34" points="82.14 64.77 81.62 64.77 81.54 66.01 82.09 66.01 82.14 64.77"/><polyline class="cls-35" points="80.59 64.77 79.39 64.76 79.16 66 80.44 66.02 80.59 64.77"/><polyline class="cls-36" points="78.31 64.75 77.91 64.75 77.58 65.98 78.01 65.99 78.31 64.75"/><path class="cls-37" d="M113.34,156.23l-2.48.22c-.82.07-1.66.12-2.49.18l.7,1.21c.89-.06,1.78-.11,2.66-.19l2.64-.23-1-1.19" transform="translate(-14.84 -92.26)"/><path class="cls-38" d="M103,156.9l-1.27,0-1.27,0c-.85,0-1.69,0-2.55,0v1.24c.91,0,1.82,0,2.72,0l1.36,0,1.35-.05L103,156.9" transform="translate(-14.84 -92.26)"/><path class="cls-39" d="M89.16,156.89l-.55,1.24c1.26.05,2.54.07,3.81.11l.33-1.24c-1.2,0-2.4-.06-3.59-.11" transform="translate(-14.84 -92.26)"/><polyline class="cls-40" points="72.71 64.57 72.05 65.79 72.59 65.82 73.21 64.59 72.71 64.57"/><polyline class="cls-41" points="70.52 64.45 69.71 65.67 70.97 65.74 71.69 64.52 70.52 64.45"/><polyline class="cls-42" points="61.05 63.61 59.61 64.77 60.81 64.91 62.17 63.73 61.05 63.61"/><polyline class="cls-43" points="59.15 63.37 57.59 64.52 58.77 64.67 60.25 63.51 59.15 63.37"/><polyline class="cls-44" points="69.06 64.36 68.16 65.58 68.57 65.6 69.45 64.38 69.06 64.36"/><polyline class="cls-45" points="52.35 62.29 50.34 63.36 50.8 63.45 52.78 62.37 52.35 62.29"/><polyline class="cls-46" points="50.45 61.92 48.32 62.98 49.41 63.19 51.47 62.12 50.45 61.92"/><polyline class="cls-47" points="49.23 61.66 47.02 62.7 47.37 62.77 49.56 61.73 49.23 61.66"/><path class="cls-48" d="M78,156.1l-1.29,1.18c1.72.17,3.44.34,5.2.46l1-1.21c-1.65-.11-3.26-.27-4.88-.43" transform="translate(-14.84 -92.26)"/><path class="cls-49" d="M68.47,154.78l-1.92,1.09,2.38.4,2.44.36L73,155.49l-2.29-.34c-.75-.11-1.48-.25-2.23-.37" transform="translate(-14.84 -92.26)"/><path class="cls-50" d="M61.17,153.25l-2.4,1c1,.25,2,.49,3.09.71l2.21-1c-1-.21-1.94-.44-2.9-.67" transform="translate(-14.84 -92.26)"/><polyline class="cls-51" points="45.07 60.68 42.58 61.65 43 61.76 45.46 60.78 45.07 60.68"/><path class="cls-52" d="M58.22,152.48l-2.6.94,1,.26,2.53-1c-.31-.07-.61-.16-.9-.24" transform="translate(-14.84 -92.26)"/><polyline class="cls-53" points="36.62 57.96 33.58 58.75 34.39 59.06 37.38 58.25 36.62 57.96"/><polyline class="cls-54" points="35.37 57.44 32.25 58.2 33.01 58.53 36.08 57.75 35.37 57.44"/><polyline class="cls-55" points="42.29 59.9 39.62 60.82 39.93 60.91 42.58 59.99 42.29 59.9"/><path class="cls-56" d="M46.08,147.66l-3.4.63.27.15,3.38-.64a2,2,0,0,1-.25-.14" transform="translate(-14.84 -92.26)"/><polyline class="cls-57" points="30.19 54.78 26.73 55.37 27.33 55.73 30.76 55.12 30.19 54.78"/><polyline class="cls-58" points="29.55 54.36 26.05 54.91 26.23 55.04 29.72 54.47 29.55 54.36"/><polyline class="cls-59" points="38.03 58.5 35.09 59.33 36.88 59.97 38.78 60.58 41.5 59.67 39.72 59.1 38.03 58.5"/><path class="cls-60" d="M46.82,148.07l-3.34.65c.9.5,1.9,1,2.94,1.44l3.16-.74c-1-.44-1.92-.88-2.76-1.35" transform="translate(-14.84 -92.26)"/><path class="cls-61" d="M43,145.57l-3.59.48.72.57.81.55,3.51-.56c-.26-.17-.53-.34-.76-.52l-.69-.52" transform="translate(-14.84 -92.26)"/><polyline class="cls-62" points="27.53 52.83 23.89 53.28 24.08 53.45 27.7 52.98 27.53 52.83"/><path class="cls-63" d="M41.63,144.41l-3.68.41c.12.13.28.26.42.39l3.65-.44c-.12-.12-.28-.24-.39-.36" transform="translate(-14.84 -92.26)"/><polyline class="cls-64" points="24.56 49.09 20.73 49.3 20.91 49.7 24.73 49.47 24.56 49.09"/><path class="cls-65" d="M39.14,140.69l-3.85.16a2,2,0,0,0,.15.41l3.84-.19a2,2,0,0,1-.14-.38" transform="translate(-14.84 -92.26)"/><polyline class="cls-66" points="26.36 51.7 22.65 52.09 22.77 52.21 26.48 51.83 26.36 51.7"/><polyline class="cls-67" points="23.96 45.98 20.09 45.99 20.08 46.16 23.96 46.15 23.96 45.98"/><polyline class="cls-68" points="24.06 45.27 20.19 45.22 20.12 45.63 23.99 45.65 24.06 45.27"/><polyline class="cls-69" points="24.15 44.79 20.29 44.72 20.26 44.85 24.12 44.92 24.15 44.79"/><path class="cls-70" d="M39.76,142.05,36,142.3c.18.28.33.57.55.85l.66.84,3.73-.36-.62-.79a8.77,8.77,0,0,1-.51-.79" transform="translate(-14.84 -92.26)"/><path class="cls-71" d="M38.79,138.71l-3.87,0a4.26,4.26,0,0,0,.07.87l.07.43.12.43,3.85-.14-.11-.4-.06-.41a4.47,4.47,0,0,1-.07-.82" transform="translate(-14.84 -92.26)"/><path class="cls-72" d="M35.57,135.75c-.19.4-.29.81-.44,1.22l3.86.08a10.8,10.8,0,0,1,.42-1.16l-3.84-.14" transform="translate(-14.84 -92.26)"/><polyline class="cls-73" points="21.01 42.94 20.92 43.11 24.74 43.28 24.83 43.12 21.01 42.94"/><polyline class="cls-74" points="21.46 42.19 21.2 42.59 25 42.79 25.25 42.41 21.46 42.19"/><polyline class="cls-75" points="24.51 38.93 24.06 39.32 27.68 39.72 28.11 39.36 24.51 38.93"/><polyline class="cls-76" points="25.36 38.27 24.85 38.65 28.43 39.1 28.91 38.74 25.36 38.27"/><polyline class="cls-77" points="21.8 41.69 21.7 41.82 25.48 42.07 25.56 41.95 21.8 41.69"/><polyline class="cls-78" points="29.13 35.92 28.84 36.07 32.17 36.68 32.44 36.54 29.13 35.92"/><polyline class="cls-79" points="30.39 35.26 29.71 35.62 32.98 36.25 33.63 35.92 30.39 35.26"/><polyline class="cls-80" points="31.29 34.84 31.05 34.95 34.24 35.63 34.47 35.52 31.29 34.84"/><path class="cls-81" d="M38.51,131.9a16.3,16.3,0,0,0-1.58,1.68l3.75.28a15.3,15.3,0,0,1,1.48-1.57l-3.65-.39" transform="translate(-14.84 -92.26)"/><path class="cls-82" d="M43.17,128.62c-.44.26-.9.51-1.3.77l-1.2.79,3.51.5,1.13-.74c.37-.25.82-.49,1.22-.73l-3.36-.59" transform="translate(-14.84 -92.26)"/><path class="cls-83" d="M48.42,126.08c-.78.34-1.57.67-2.29,1l3.19.69c.66-.33,1.41-.64,2.14-1l-3-.75" transform="translate(-14.84 -92.26)"/><polyline class="cls-84" points="34.68 33.39 34.33 33.53 37.32 34.29 37.65 34.16 34.68 33.39"/><path class="cls-85" d="M51.08,125.06c-.3.1-.57.21-.84.31l2.92.79.79-.29-2.87-.81" transform="translate(-14.84 -92.26)"/><polyline class="cls-86" points="43.94 30.43 42.94 30.7 45.4 31.64 46.34 31.39 43.94 30.43"/><polyline class="cls-87" points="45.69 29.99 44.65 30.24 47.01 31.21 47.98 30.98 45.69 29.99"/><polyline class="cls-88" points="37.32 32.42 37.03 32.52 39.85 33.35 40.13 33.25 37.32 32.42"/><path class="cls-89" d="M67.41,120.78l-.48.09,1.9,1.07.45-.08-1.87-1.08" transform="translate(-14.84 -92.26)"/><polyline class="cls-90" points="54.67 28.16 53.53 28.36 55.35 29.44 56.41 29.25 54.67 28.16"/><polyline class="cls-91" points="56.1 27.93 55.71 27.99 57.39 29.09 57.75 29.03 56.1 27.93"/><polyline class="cls-92" points="42.09 30.93 40.06 31.52 38.12 32.15 40.88 33 42.7 32.41 44.61 31.86 42.09 30.93"/><path class="cls-93" d="M66,121.05c-1.57.3-3.08.63-4.56,1l2.23,1c1.4-.32,2.81-.63,4.29-.92l-2-1" transform="translate(-14.84 -92.26)"/><path class="cls-94" d="M74.47,119.66l-1.78.25c-.59.08-1.17.18-1.74.27l1.64,1.11,1.64-.26,1.67-.23-1.43-1.14" transform="translate(-14.84 -92.26)"/><polyline class="cls-95" points="61.25 27.19 60.73 27.26 62.1 28.41 62.58 28.35 61.25 27.19"/><path class="cls-96" d="M78.34,119.18l-1.22.14,1.28,1.16,1.13-.13-1.19-1.17" transform="translate(-14.84 -92.26)"/><polyline class="cls-97" points="73.77 26.08 72.5 26.15 73.13 27.37 74.33 27.3 73.77 26.08"/><path class="cls-98" d="M90.79,118.23c-.42,0-.85,0-1.27.06l.5,1.22,1.19-.05-.42-1.23" transform="translate(-14.84 -92.26)"/><polyline class="cls-99" points="65.02 26.77 64.6 26.81 65.73 27.99 66.12 27.95 65.02 26.77"/><polyline class="cls-100" points="84.11 25.8 83.56 25.8 83.51 27.04 84.03 27.04 84.11 25.8"/><polyline class="cls-101" points="86.49 25.81 85.21 25.8 85.06 27.04 86.26 27.05 86.49 25.81"/><polyline class="cls-102" points="88.07 25.83 87.64 25.82 87.34 27.06 87.75 27.07 88.07 25.83"/><path class="cls-103" d="M86.26,118.48l-2.66.19L81,118.9l1,1.19,2.47-.21c.82-.08,1.66-.13,2.49-.19l-.7-1.21" transform="translate(-14.84 -92.26)"/><path class="cls-104" d="M97.37,118.06c-.91,0-1.81,0-2.71,0l-1.36,0-1.36.06.35,1.23,1.27,0,1.28,0c.84,0,1.69,0,2.54,0v-1.24" transform="translate(-14.84 -92.26)"/><path class="cls-105" d="M102.92,118.08l-.33,1.24c1.19,0,2.39.06,3.58.11l.56-1.23c-1.26-.06-2.54-.08-3.81-.12" transform="translate(-14.84 -92.26)"/><polyline class="cls-106" points="93.06 25.99 92.43 27.22 92.94 27.24 93.6 26.02 93.06 25.99"/><polyline class="cls-107" points="94.68 26.07 93.95 27.29 95.13 27.36 95.94 26.14 94.68 26.07"/><polyline class="cls-108" points="104.84 26.9 103.48 28.07 104.6 28.2 106.04 27.04 104.84 26.9"/><polyline class="cls-109" points="106.88 27.14 105.4 28.3 106.5 28.45 108.06 27.3 106.88 27.14"/><polyline class="cls-110" points="97.07 26.21 96.19 27.43 96.59 27.45 97.49 26.24 97.07 26.21"/><polyline class="cls-111" points="114.85 28.36 112.86 29.44 113.3 29.52 115.31 28.45 114.85 28.36"/><polyline class="cls-112" points="116.24 28.62 114.18 29.69 115.2 29.89 117.33 28.83 116.24 28.62"/><polyline class="cls-113" points="118.28 29.04 116.09 30.08 116.42 30.15 118.63 29.11 118.28 29.04"/><path class="cls-114" d="M113.45,118.58l-1,1.21c1.65.11,3.27.27,4.88.43l1.29-1.18c-1.71-.17-3.44-.34-5.2-.46" transform="translate(-14.84 -92.26)"/><path class="cls-115" d="M124,119.69l-1.62,1.14,2.29.34,2.24.38,1.92-1.1c-.8-.13-1.57-.27-2.39-.39l-2.44-.37" transform="translate(-14.84 -92.26)"/><path class="cls-116" d="M133.47,121.37l-2.21,1c1,.21,1.94.44,2.9.67l2.41-1c-1-.24-2-.49-3.1-.71" transform="translate(-14.84 -92.26)"/><polyline class="cls-117" points="122.65 30.05 120.18 31.03 120.58 31.14 123.07 30.16 122.65 30.05"/><path class="cls-118" d="M138.75,122.64l-2.54,1,.9.25,2.6-.95-1-.26" transform="translate(-14.84 -92.26)"/><polyline class="cls-119" points="131.26 32.74 128.27 33.56 129.03 33.85 132.07 33.06 131.26 32.74"/><polyline class="cls-120" points="132.64 33.28 129.57 34.06 130.28 34.37 133.4 33.61 132.64 33.28"/><polyline class="cls-121" points="125.72 30.89 123.07 31.82 123.36 31.91 126.03 30.98 125.72 30.89"/><path class="cls-122" d="M152.39,127.88l-3.38.64a1.38,1.38,0,0,1,.24.14l3.4-.63-.26-.15" transform="translate(-14.84 -92.26)"/><polyline class="cls-123" points="138.32 36.09 134.89 36.69 135.46 37.03 138.92 36.44 138.32 36.09"/><polyline class="cls-124" points="139.42 36.77 135.93 37.34 136.1 37.45 139.6 36.9 139.42 36.77"/><polyline class="cls-125" points="126.87 31.24 124.15 32.14 125.93 32.71 127.62 33.31 130.56 32.48 128.76 31.84 126.87 31.24"/><path class="cls-126" d="M148.92,126.16l-3.16.74c1,.44,1.91.89,2.75,1.35l3.35-.65c-.91-.5-1.91-1-2.94-1.44" transform="translate(-14.84 -92.26)"/><path class="cls-127" d="M154.45,129.15l-3.51.56c.25.17.52.34.76.52l.68.53,3.6-.49-.73-.56c-.25-.19-.54-.37-.8-.56" transform="translate(-14.84 -92.26)"/><polyline class="cls-128" points="141.57 38.36 137.95 38.83 138.12 38.98 141.75 38.53 141.57 38.36"/><path class="cls-129" d="M157,131.11l-3.66.44c.13.12.28.24.4.36l3.68-.41-.42-.39" transform="translate(-14.84 -92.26)"/><polyline class="cls-130" points="144.74 42.11 140.92 42.34 141.09 42.72 144.92 42.52 144.74 42.11"/><path class="cls-131" d="M159.9,135.06l-3.85.19a1.5,1.5,0,0,1,.15.38l3.85-.16a2.86,2.86,0,0,0-.15-.41" transform="translate(-14.84 -92.26)"/><polyline class="cls-132" points="142.88 39.59 139.17 39.98 139.29 40.11 143 39.73 142.88 39.59"/><polyline class="cls-133" points="145.56 45.65 141.69 45.66 141.68 45.83 145.56 45.82 145.56 45.65"/><polyline class="cls-134" points="145.53 46.18 141.66 46.16 141.59 46.54 145.46 46.59 145.53 46.18"/><polyline class="cls-135" points="145.39 46.96 141.53 46.89 141.5 47.02 145.36 47.09 145.39 46.96"/><path class="cls-136" d="M158.18,132.33l-3.74.37.62.78c.21.26.34.53.52.8l3.8-.26a10,10,0,0,0-.54-.85l-.66-.84" transform="translate(-14.84 -92.26)"/><path class="cls-137" d="M160.16,135.84l-3.86.14.12.4.05.41a3.73,3.73,0,0,1,.07.82l3.88,0a5.12,5.12,0,0,0-.08-.87l-.06-.43-.12-.43" transform="translate(-14.84 -92.26)"/><path class="cls-138" d="M92.12,159.39c-36.45-.7-63.62-10.78-60.56-22.49s35.2-20.66,71.66-20,63.61,10.78,60.55,22.48-35.19,20.66-71.65,20m11.39-43.6c-38.42-.73-72.3,8.71-75.53,21s25.42,23,63.85,23.69,72.3-8.71,75.52-21-25.42-23-63.84-23.7" transform="translate(-14.84 -92.26)"/><path class="cls-139" d="M88.15,154.77c-.37,0-.71.07-.78.19s.19.24.58.26c1.71.09,3.47.15,5.22.18h0c.4,0,.73-.08.76-.21s-.27-.24-.66-.25c-1.71,0-3.41-.09-5.08-.17h-.06m15.59,0h-.15c-1.69.07-3.43.12-5.13.14-.4,0-.72.11-.71.24s.29.21.65.22h.07c1.76,0,3.54-.07,5.29-.15.39,0,.67-.13.63-.26s-.32-.19-.65-.19m-25.62-.89a1.21,1.21,0,0,0-.72.15c-.15.12,0,.25.4.29,1.63.2,3.32.37,5,.51h.14a1.18,1.18,0,0,0,.75-.18c.11-.12-.11-.24-.49-.28-1.65-.13-3.28-.3-4.88-.49h-.2m35.8.11h-.28c-1.62.18-3.3.33-5,.46-.39,0-.63.16-.55.28a1,1,0,0,0,.64.18H109c1.72-.13,3.44-.29,5.11-.48.38,0,.59-.17.47-.29a1.07,1.07,0,0,0-.63-.15m-45.07-1.57a1.49,1.49,0,0,0-.65.11c-.22.11-.12.25.21.32,1.47.29,3,.56,4.57.81l.27,0a1.37,1.37,0,0,0,.7-.13c.18-.11,0-.25-.31-.3-1.52-.24-3-.51-4.46-.8a1.69,1.69,0,0,0-.33,0m54.64.17a1.39,1.39,0,0,0-.41,0c-1.5.28-3,.53-4.62.76-.36,0-.53.19-.37.31a1.14,1.14,0,0,0,.6.13l.34,0c1.61-.24,3.2-.5,4.75-.79.34-.06.47-.2.27-.31a1.21,1.21,0,0,0-.56-.11m-62.78-2.19a1.73,1.73,0,0,0-.58.08c-.27.09-.27.24,0,.32,1.25.38,2.59.75,4,1.09a2.06,2.06,0,0,0,.38.05,1.85,1.85,0,0,0,.62-.09c.25-.11.2-.25-.11-.33-1.34-.33-2.64-.68-3.86-1.06a2.75,2.75,0,0,0-.44-.06m71.35.22a2.12,2.12,0,0,0-.52.06c-1.3.36-2.68.71-4.09,1-.32.08-.4.22-.18.32a1.56,1.56,0,0,0,.53.1,1.78,1.78,0,0,0,.47-.05c1.45-.33,2.86-.68,4.2-1.06.3-.08.34-.23.08-.32a1.36,1.36,0,0,0-.49-.08M54,148a1.79,1.79,0,0,0-.47,0c-.33.08-.4.22-.18.32,1,.46,2.08.9,3.22,1.32a1.6,1.6,0,0,0,.48.08,2.15,2.15,0,0,0,.53-.06c.3-.08.34-.23.08-.32-1.1-.41-2.16-.84-3.13-1.29A1.36,1.36,0,0,0,54,148m85.36.26a1.62,1.62,0,0,0-.62.09c-1.06.44-2.21.86-3.4,1.26-.28.1-.27.24,0,.33a1.51,1.51,0,0,0,.44.06,1.93,1.93,0,0,0,.57-.07c1.23-.42,2.4-.86,3.5-1.3.25-.1.2-.25-.11-.33a2.34,2.34,0,0,0-.39,0m-90.42-3.14a2,2,0,0,0-.35,0c-.36.05-.53.19-.37.31a25,25,0,0,0,2.34,1.5,1.37,1.37,0,0,0,.57.11,2.6,2.6,0,0,0,.4,0c.35-.07.47-.21.28-.32a21.72,21.72,0,0,1-2.27-1.46,1.16,1.16,0,0,0-.6-.13m96.09.29a1.48,1.48,0,0,0-.7.13c-.78.49-1.65,1-2.58,1.45-.21.11-.12.25.21.31a1.86,1.86,0,0,0,.33,0,1.75,1.75,0,0,0,.66-.11c1-.48,1.85-1,2.66-1.49.18-.11,0-.25-.31-.31l-.27,0m-99.27-3.45h-.21c-.39,0-.64.15-.56.28a10.53,10.53,0,0,0,1.37,1.62A1.08,1.08,0,0,0,47,144a1.27,1.27,0,0,0,.28,0c.38,0,.58-.17.46-.29a11,11,0,0,1-1.32-1.58,1,1,0,0,0-.64-.18m103.11.32a1.16,1.16,0,0,0-.75.17,13.26,13.26,0,0,1-1.66,1.57c-.14.12,0,.25.4.3H147a1.26,1.26,0,0,0,.73-.15,14,14,0,0,0,1.7-1.62c.11-.12-.11-.24-.49-.27h-.14m-104.3-3.62h-.06c-.39,0-.71.11-.7.23a5.89,5.89,0,0,0,.33,1.69c0,.11.32.19.66.2h.13c.39,0,.68-.14.64-.26a5.56,5.56,0,0,1-.33-1.64c0-.12-.29-.22-.67-.22m106.19.28c-.39,0-.74.09-.78.22v0a6.65,6.65,0,0,1-.68,1.63c-.07.13.19.25.58.27h.07c.36,0,.7-.08.76-.19a7,7,0,0,0,.7-1.69v0c0-.13-.26-.23-.65-.24M45.4,135.28a1,1,0,0,0-.75.19,7.2,7.2,0,0,0-.69,1.67v0c0,.13.26.23.65.23s.75-.1.78-.22a6.62,6.62,0,0,1,.67-1.62c.07-.13-.19-.25-.58-.27H45.4m105.16.28h-.14c-.39,0-.67.14-.63.26a5.38,5.38,0,0,1,.33,1.65c0,.12.29.21.66.22h.07c.4,0,.72-.11.71-.24a5.66,5.66,0,0,0-.35-1.69c0-.11-.31-.19-.65-.2M48.28,132.05a1.3,1.3,0,0,0-.74.15,14.73,14.73,0,0,0-1.7,1.62c-.11.12.11.25.49.28h.14a1.13,1.13,0,0,0,.75-.17,14,14,0,0,1,1.66-1.57c.14-.12,0-.25-.41-.3h-.19m100.08.27a1.34,1.34,0,0,0-.28,0c-.37,0-.58.17-.46.29A10.52,10.52,0,0,1,149,134.2c.06.1.33.17.64.18h.21c.38,0,.63-.15.54-.28a10.35,10.35,0,0,0-1.36-1.62,1.05,1.05,0,0,0-.63-.15M53,129a1.71,1.71,0,0,0-.66.11,29.45,29.45,0,0,0-2.65,1.49c-.18.11,0,.25.31.3a1.18,1.18,0,0,0,.27,0,1.48,1.48,0,0,0,.7-.13c.78-.49,1.64-1,2.57-1.45.22-.11.12-.25-.21-.31a1.86,1.86,0,0,0-.33,0m91.17.25a1.39,1.39,0,0,0-.41,0c-.35.06-.47.2-.28.31a25.21,25.21,0,0,1,2.29,1.46,1.18,1.18,0,0,0,.59.14l.35,0c.36,0,.52-.19.37-.3a24.25,24.25,0,0,0-2.34-1.5,1.28,1.28,0,0,0-.57-.11m-84.68-2.91a1.68,1.68,0,0,0-.57.07c-1.23.42-2.4.85-3.5,1.3-.24.1-.19.25.12.32a1.58,1.58,0,0,0,.38.05,2,2,0,0,0,.63-.09c1.06-.44,2.2-.86,3.39-1.27.28-.09.27-.24,0-.32a1.46,1.46,0,0,0-.44-.06m78.74.21a1.46,1.46,0,0,0-.52.06c-.31.08-.34.23-.08.32,1.1.41,2.15.84,3.13,1.28a1.51,1.51,0,0,0,.53.1,1.83,1.83,0,0,0,.47,0c.32-.07.4-.21.18-.32-1-.45-2.08-.9-3.22-1.32a1.75,1.75,0,0,0-.49-.07m-70.79-2.43a1.79,1.79,0,0,0-.47,0c-1.44.33-2.85.69-4.19,1.06-.3.09-.34.23-.09.33a1.45,1.45,0,0,0,.49.07,1.7,1.7,0,0,0,.52,0c1.31-.37,2.68-.72,4.09-1,.33-.07.41-.22.18-.32a1.36,1.36,0,0,0-.53-.09m63.3.16a1.65,1.65,0,0,0-.62.1c-.24.1-.19.24.12.32,1.33.33,2.64.68,3.87,1.05a1.4,1.4,0,0,0,.43.06,1.74,1.74,0,0,0,.58-.07c.27-.09.27-.24,0-.32-1.27-.38-2.6-.75-4-1.09a2.3,2.3,0,0,0-.39-.05m-54.19-1.86-.34,0c-1.62.24-3.21.5-4.75.79-.34.06-.47.2-.27.31a1.3,1.3,0,0,0,.56.12,1.84,1.84,0,0,0,.41,0c1.5-.27,3-.53,4.62-.76.36-.06.52-.19.37-.31a1.27,1.27,0,0,0-.6-.13m45.44.12a1.48,1.48,0,0,0-.7.13c-.18.11,0,.25.31.31,1.52.24,3,.5,4.45.79a1.87,1.87,0,0,0,.34,0,1.43,1.43,0,0,0,.66-.11c.22-.11.12-.25-.22-.31-1.48-.3-3-.57-4.57-.82l-.27,0m-35.52-1.22H86.3c-1.72.13-3.44.29-5.11.48-.37,0-.58.17-.46.29a1,1,0,0,0,.62.15h.28c1.63-.18,3.3-.34,5-.47.39,0,.64-.15.55-.27a1,1,0,0,0-.64-.18m25.82.07a1.23,1.23,0,0,0-.75.17c-.1.13.12.25.5.28,1.64.14,3.28.31,4.87.49l.21,0a1.33,1.33,0,0,0,.72-.15c.15-.12,0-.25-.4-.3-1.64-.19-3.32-.36-5-.5h-.14m-15.47-.53h-.07c-1.75,0-3.53.07-5.27.15-.39,0-.68.13-.63.26s.32.19.65.2h.14c1.69-.08,3.42-.13,5.14-.15.39,0,.71-.11.71-.24s-.3-.21-.67-.22m5.33,0h-.11c-.39,0-.74.09-.78.21s.27.24.66.24h.09c1.68,0,3.36.09,5,.17h.08c.36,0,.69-.07.76-.19s-.19-.25-.58-.26c-1.69-.09-3.42-.15-5.13-.18" transform="translate(-14.84 -92.26)"/><path class="cls-140" d="M97.19,142.63a57.38,57.38,0,0,1-7,1.12q-3.24.31-6.71.32a66.05,66.05,0,0,1-9.22-.62,45,45,0,0,1-7.64-1.68,17.93,17.93,0,0,1-5.17-2.47,3.37,3.37,0,0,1,0-6.07,17.93,17.93,0,0,1,5.17-2.48,45,45,0,0,1,7.64-1.68,66.09,66.09,0,0,1,9.22-.61q3.47,0,6.68.31c.79.08,1.62.17,2.38.27.36.05.77.14.77.14l-.13,0c-.43.16-.85.32-1.22.5a6.72,6.72,0,0,0-1,.58,4.25,4.25,0,0,0-.72.66,3.11,3.11,0,0,0-.47.73,1.79,1.79,0,0,0-.21.79,2,2,0,0,0,0,.25s-.7-.15-1.11-.21a39,39,0,0,0-5-.35,34,34,0,0,0-4.77.31,23.54,23.54,0,0,0-3.91.87,8.82,8.82,0,0,0-2.63,1.3,1.82,1.82,0,0,0,0,3.2,8.59,8.59,0,0,0,2.63,1.3,22.57,22.57,0,0,0,3.91.87,34,34,0,0,0,4.77.32,38.67,38.67,0,0,0,8.4-1c2-.48,3.49-.95,5.37-1.46a52.14,52.14,0,0,1,14.05-1.52l18.26,0v4.14H109v6.75l-11.73.05v-4.63Z" transform="translate(-14.84 -92.26)"/><path class="cls-140" d="M94.88,136.07V133.7h0c0-3.06,5-4.86,14.5-4.86h22.18a2,2,0,0,1,2,2v0a2,2,0,0,1-2,2h-22c-2.3,0-3.13.46-3.13,1.24v.36a55.51,55.51,0,0,0-9.25,1.07C96.38,135.73,94.88,136.07,94.88,136.07Z" transform="translate(-14.84 -92.26)"/><path class="cls-141" d="M97.19,142.63a57.38,57.38,0,0,1-7,1.12q-3.24.31-6.71.32a66.05,66.05,0,0,1-9.22-.62,45,45,0,0,1-7.64-1.68,17.93,17.93,0,0,1-5.17-2.47,3.37,3.37,0,0,1,0-6.07,17.93,17.93,0,0,1,5.17-2.48,45,45,0,0,1,7.64-1.68,66.09,66.09,0,0,1,9.22-.61q3.47,0,6.68.31c.79.08,1.62.17,2.38.27.36.05.77.14.77.14l-.13,0c-.43.16-.85.32-1.22.5a6.72,6.72,0,0,0-1,.58,4.25,4.25,0,0,0-.72.66,3.11,3.11,0,0,0-.47.73,1.79,1.79,0,0,0-.21.79,2,2,0,0,0,0,.25s-.7-.15-1.11-.21a39,39,0,0,0-5-.35,34,34,0,0,0-4.77.31,23.54,23.54,0,0,0-3.91.87,8.82,8.82,0,0,0-2.63,1.3,1.82,1.82,0,0,0,0,3.2,8.59,8.59,0,0,0,2.63,1.3,22.57,22.57,0,0,0,3.91.87,34,34,0,0,0,4.77.32,38.67,38.67,0,0,0,8.4-1c2-.48,3.49-.95,5.37-1.46a52.14,52.14,0,0,1,14.05-1.52l18.26,0v4.14H109v6.75l-11.73.05v-4.63Z" transform="translate(-14.84 -92.26)"/><path class="cls-141" d="M94.88,136.07V133.7h0c0-3.06,5-4.86,14.5-4.86h22.18a2,2,0,0,1,2,2v0a2,2,0,0,1-2,2h-22c-2.3,0-3.13.46-3.13,1.24v.36a55.51,55.51,0,0,0-9.25,1.07C96.38,135.73,94.88,136.07,94.88,136.07Z" transform="translate(-14.84 -92.26)"/><path class="cls-141" d="M94.88,136.07V133.7h0c0-3.06,5-4.86,14.5-4.86h22.18a2,2,0,0,1,2,2v0a2,2,0,0,1-2,2h-22c-2.3,0-3.13.46-3.13,1.24v.36a55.51,55.51,0,0,0-9.25,1.07C96.38,135.73,94.88,136.07,94.88,136.07Z" transform="translate(-14.84 -92.26)"/><ellipse class="cls-142" cx="84.73" cy="45.76" rx="72.89" ry="22.3"/><path class="cls-143" d="M163.75,114.15s0,0,0,0c.17-11.57-27.47-21.21-64.07-21.9-38.49-.74-72.3,8.69-75.53,21a7.79,7.79,0,0,0-.24,2L24,129.18c.05,5.9,7.33,11.29,19.33,15.23q2.63.85,5.52,1.62c1.52.4,3.09.77,4.72,1.13,1.42.31,2.88.6,4.37.88s2.76.49,4.19.71,2.69.4,4.08.59l4,.47c1.33.14,2.68.27,4,.39s2.71.22,4.1.31,2.76.17,4.16.22,2.85.12,4.29.16l1.28,0c1.05,0,2.09,0,3.14,0,1.51,0,3,0,4.5,0s3.14-.06,4.69-.12c1.75-.07,3.48-.15,5.19-.26q3.48-.21,6.86-.54a158.86,158.86,0,0,0,25.3-4.35c2.39-.63,4.66-1.32,6.79-2.06,1.55-.52,3-1.08,4.41-1.66,1.16-.48,2.26-1,3.3-1.48s1.79-.92,2.61-1.39,1.47-.89,2.15-1.34,1.23-.87,1.78-1.32a19.4,19.4,0,0,0,1.48-1.31,16.35,16.35,0,0,0,1.22-1.31,12.92,12.92,0,0,0,1-1.34,10.42,10.42,0,0,0,.73-1.4,7.71,7.71,0,0,0,.4-1.17c0-.11,0-.2.07-.3a6.88,6.88,0,0,0,.18-1.54v-.13Zm-.17,1.55c0,.09,0,0,0-.11A.37.37,0,0,0,163.58,115.7Z" transform="translate(-14.84 -92.26)"/><ellipse class="cls-144" cx="93.82" cy="114.67" rx="69.93" ry="22.4" transform="translate(-15.84 -91.43) rotate(-0.5)"/><path class="cls-145" d="M156.36,115.86l-3.86-.08c-.15.39-.23.77-.42,1.16l3.84.14c.19-.4.29-.81.44-1.22" transform="translate(-14.84 -92.26)"/><polyline class="cls-146" points="137.06 25.04 136.97 25.2 140.79 25.38 140.88 25.21 137.06 25.04"/><polyline class="cls-147" points="136.81 25.53 136.55 25.91 140.34 26.13 140.6 25.73 136.81 25.53"/><polyline class="cls-148" points="134.12 28.6 133.7 28.96 137.29 29.39 137.75 29 134.12 28.6"/><polyline class="cls-149" points="133.37 29.22 132.9 29.57 136.44 30.05 136.95 29.66 133.37 29.22"/><polyline class="cls-150" points="136.33 26.25 136.24 26.37 140.01 26.63 140.1 26.5 136.33 26.25"/><polyline class="cls-151" points="129.64 31.64 129.37 31.78 132.68 32.4 132.97 32.25 129.64 31.64"/><polyline class="cls-152" points="128.82 32.07 128.18 32.4 131.41 33.06 132.09 32.7 128.82 32.07"/><polyline class="cls-153" points="127.56 32.69 127.33 32.8 130.51 33.48 130.76 33.37 127.56 32.69"/><path class="cls-154" d="M150.81,119a15.3,15.3,0,0,1-1.48,1.57l3.65.39a15.15,15.15,0,0,0,1.57-1.68l-3.74-.28" transform="translate(-14.84 -92.26)"/><path class="cls-155" d="M147.31,122.15l-1.13.75c-.37.24-.82.48-1.22.72l3.36.59c.44-.26.9-.51,1.3-.77l1.2-.79-3.51-.5" transform="translate(-14.84 -92.26)"/><path class="cls-156" d="M142.17,125.05c-.66.33-1.41.63-2.14,1l3,.74c.78-.33,1.57-.66,2.28-1l-3.18-.69" transform="translate(-14.84 -92.26)"/><polyline class="cls-157" points="124.49 34.03 124.15 34.16 127.12 34.93 127.47 34.79 124.49 34.03"/><path class="cls-158" d="M138.33,126.67l-.79.29,2.87.81c.3-.1.57-.2.84-.31l-2.92-.79" transform="translate(-14.84 -92.26)"/><polyline class="cls-159" points="116.4 36.68 115.46 36.93 117.86 37.88 118.86 37.62 116.4 36.68"/><polyline class="cls-160" points="114.8 37.11 113.82 37.34 116.12 38.32 117.15 38.07 114.8 37.11"/><polyline class="cls-161" points="121.95 34.97 121.68 35.06 124.48 35.9 124.78 35.79 121.95 34.97"/><path class="cls-162" d="M122.66,130.89l-.45.09,1.87,1.07.48-.09-1.9-1.07" transform="translate(-14.84 -92.26)"/><polyline class="cls-163" points="106.46 38.88 105.39 39.07 107.14 40.16 108.27 39.96 106.46 38.88"/><polyline class="cls-164" points="104.42 39.23 104.05 39.28 105.7 40.39 106.09 40.33 104.42 39.23"/><polyline class="cls-165" points="120.92 35.32 119.1 35.91 117.19 36.46 119.71 37.39 121.74 36.8 123.68 36.17 120.92 35.32"/><path class="cls-166" d="M127.79,129.81c-1.4.32-2.81.63-4.29.92l2,1.05c1.57-.3,3.08-.63,4.56-1l-2.23-1" transform="translate(-14.84 -92.26)"/><path class="cls-167" d="M118.89,131.54l-1.63.26-1.67.23,1.43,1.14,1.78-.25c.59-.08,1.16-.18,1.74-.27l-1.65-1.11" transform="translate(-14.84 -92.26)"/><polyline class="cls-168" points="99.7 39.91 99.22 39.97 100.56 41.13 101.07 41.06 99.7 39.91"/><path class="cls-169" d="M113.09,132.34l-1.13.14,1.19,1.17,1.22-.14-1.28-1.17" transform="translate(-14.84 -92.26)"/><polyline class="cls-170" points="88.67 40.95 87.48 41.01 88.04 42.24 89.3 42.17 88.67 40.95"/><path class="cls-171" d="M101.47,133.32l-1.19.05.42,1.23c.42,0,.85,0,1.27-.06l-.5-1.22" transform="translate(-14.84 -92.26)"/><polyline class="cls-172" points="96.07 40.33 95.69 40.37 96.79 41.55 97.2 41.51 96.07 40.33"/><polyline class="cls-173" points="78.29 41.28 77.78 41.28 77.69 42.52 78.24 42.52 78.29 41.28"/><polyline class="cls-174" points="76.75 41.28 75.54 41.27 75.31 42.51 76.59 42.52 76.75 41.28"/><polyline class="cls-175" points="74.46 41.26 74.06 41.25 73.74 42.49 74.16 42.5 74.46 41.26"/><path class="cls-176" d="M109.49,132.74,107,133c-.82.08-1.66.12-2.49.19l.69,1.21,2.67-.19,2.63-.24-1-1.18" transform="translate(-14.84 -92.26)"/><path class="cls-177" d="M99.19,133.41l-1.26.05-1.28,0c-.84,0-1.69,0-2.54,0v1.24c.9,0,1.81,0,2.71,0l1.36,0,1.35,0-.35-1.24" transform="translate(-14.84 -92.26)"/><path class="cls-178" d="M85.32,133.4l-.56,1.23c1.27.06,2.54.08,3.82.12l.32-1.24c-1.2,0-2.39-.06-3.58-.11" transform="translate(-14.84 -92.26)"/><polyline class="cls-179" points="68.86 41.08 68.2 42.3 68.74 42.33 69.37 41.1 68.86 41.08"/><polyline class="cls-180" points="66.67 40.95 65.87 42.18 67.12 42.25 67.85 41.03 66.67 40.95"/><polyline class="cls-181" points="57.2 40.12 55.77 41.28 56.97 41.42 58.33 40.24 57.2 40.12"/><polyline class="cls-182" points="55.3 39.87 53.75 41.02 54.92 41.18 56.41 40.02 55.3 39.87"/><polyline class="cls-183" points="65.22 40.87 64.31 42.08 64.73 42.11 65.61 40.89 65.22 40.87"/><polyline class="cls-184" points="48.5 38.8 46.5 39.87 46.96 39.96 48.94 38.88 48.5 38.8"/><polyline class="cls-185" points="46.61 38.43 44.48 39.48 45.56 39.69 47.62 38.63 46.61 38.43"/><polyline class="cls-186" points="45.38 38.17 43.17 39.2 43.52 39.28 45.71 38.24 45.38 38.17"/><path class="cls-187" d="M74.13,132.61l-1.29,1.18c1.71.17,3.44.34,5.2.46L79,133c-1.65-.12-3.27-.27-4.88-.43" transform="translate(-14.84 -92.26)"/><path class="cls-188" d="M64.62,131.28l-1.92,1.1c.8.13,1.57.27,2.39.39l2.44.37L69.15,132l-2.29-.34-2.24-.38" transform="translate(-14.84 -92.26)"/><path class="cls-189" d="M57.33,129.76l-2.41,1c1,.24,2,.49,3.1.71l2.21-1c-1-.21-1.95-.44-2.9-.67" transform="translate(-14.84 -92.26)"/><polyline class="cls-190" points="41.23 37.18 38.74 38.15 39.16 38.27 41.62 37.29 41.23 37.18"/><path class="cls-191" d="M54.38,129l-2.6.94c.31.1.63.18,1,.27l2.54-1c-.31-.08-.62-.16-.9-.25" transform="translate(-14.84 -92.26)"/><polyline class="cls-192" points="32.78 34.47 29.74 35.26 30.54 35.57 33.53 34.76 32.78 34.47"/><polyline class="cls-193" points="31.53 33.95 28.41 34.71 29.16 35.03 32.24 34.26 31.53 33.95"/><polyline class="cls-194" points="38.45 36.41 35.78 37.33 36.09 37.42 38.73 36.5 38.45 36.41"/><path class="cls-195" d="M42.23,124.17l-3.39.63.26.15,3.38-.64a2,2,0,0,1-.25-.14" transform="translate(-14.84 -92.26)"/><polyline class="cls-196" points="26.35 31.29 22.88 31.88 23.48 32.23 26.91 31.63 26.35 31.29"/><polyline class="cls-197" points="25.71 30.86 22.2 31.42 22.38 31.54 25.88 30.98 25.71 30.86"/><polyline class="cls-198" points="34.19 35.01 31.24 35.84 33.04 36.47 34.94 37.08 37.66 36.18 35.88 35.61 34.19 35.01"/><path class="cls-199" d="M43,124.58l-3.34.65c.91.5,1.91,1,2.94,1.44l3.16-.74c-1-.44-1.91-.89-2.76-1.35" transform="translate(-14.84 -92.26)"/><path class="cls-200" d="M39.1,122.07l-3.59.49.73.57c.25.18.54.36.8.55l3.51-.56c-.25-.17-.52-.34-.76-.52l-.69-.53" transform="translate(-14.84 -92.26)"/><polyline class="cls-201" points="23.68 29.33 20.05 29.79 20.23 29.95 23.86 29.49 23.68 29.33"/><path class="cls-202" d="M37.78,120.92l-3.68.41.42.39,3.66-.44c-.13-.12-.28-.24-.4-.36" transform="translate(-14.84 -92.26)"/><polyline class="cls-203" points="20.72 25.59 16.88 25.8 17.07 26.21 20.88 25.97 20.72 25.59"/><path class="cls-204" d="M35.29,117.2l-3.85.16a3.39,3.39,0,0,0,.15.41l3.85-.19a1.5,1.5,0,0,1-.15-.38" transform="translate(-14.84 -92.26)"/><polyline class="cls-205" points="22.52 28.21 18.8 28.59 18.92 28.72 22.63 28.33 22.52 28.21"/><polyline class="cls-206" points="20.12 22.49 16.25 22.5 16.24 22.67 20.11 22.66 20.12 22.49"/><polyline class="cls-207" points="20.22 21.77 16.35 21.73 16.27 22.14 20.14 22.16 20.22 21.77"/><polyline class="cls-208" points="20.3 21.3 16.44 21.23 16.41 21.36 20.27 21.43 20.3 21.3"/><path class="cls-209" d="M35.92,118.55l-3.81.26a10,10,0,0,0,.54.85l.66.83,3.73-.35-.61-.79a7.68,7.68,0,0,1-.51-.8" transform="translate(-14.84 -92.26)"/><path class="cls-210" d="M35,115.22l-3.88,0a5.12,5.12,0,0,0,.08.87l.06.43.12.43,3.86-.14-.12-.4,0-.41a3.73,3.73,0,0,1-.07-.82" transform="translate(-14.84 -92.26)"/><path class="cls-211" d="M31.73,112.25c-.2.41-.29.82-.45,1.23l3.86.07c.15-.38.24-.77.42-1.15l-3.83-.15" transform="translate(-14.84 -92.26)"/><polyline class="cls-212" points="17.17 19.45 17.07 19.62 20.89 19.79 20.98 19.63 17.17 19.45"/><polyline class="cls-213" points="17.62 18.69 17.35 19.1 21.15 19.3 21.41 18.92 17.62 18.69"/><polyline class="cls-214" points="20.66 15.44 20.21 15.82 23.84 16.23 24.26 15.87 20.66 15.44"/><polyline class="cls-215" points="21.52 14.78 21.01 15.16 24.59 15.61 25.06 15.25 21.52 14.78"/><polyline class="cls-216" points="17.95 18.19 17.86 18.33 21.63 18.58 21.72 18.45 17.95 18.19"/><polyline class="cls-217" points="25.28 12.43 24.99 12.58 28.32 13.19 28.59 13.04 25.28 12.43"/><polyline class="cls-218" points="26.55 11.77 25.87 12.12 29.14 12.76 29.78 12.43 26.55 11.77"/><polyline class="cls-219" points="27.45 11.35 27.2 11.46 30.4 12.14 30.63 12.03 27.45 11.35"/><path class="cls-220" d="M34.66,108.41a17.32,17.32,0,0,0-1.57,1.68l3.75.28a15.16,15.16,0,0,1,1.47-1.57l-3.65-.39" transform="translate(-14.84 -92.26)"/><path class="cls-221" d="M39.32,105.13c-.43.26-.9.51-1.3.77l-1.2.79,3.52.49,1.12-.74c.38-.24.82-.48,1.23-.72l-3.37-.59" transform="translate(-14.84 -92.26)"/><path class="cls-222" d="M44.58,102.59c-.78.34-1.58.66-2.29,1l3.18.68c.66-.32,1.41-.63,2.14-.94l-3-.75" transform="translate(-14.84 -92.26)"/><polyline class="cls-223" points="30.84 9.9 30.48 10.04 33.47 10.8 33.81 10.67 30.84 9.9"/><path class="cls-224" d="M47.24,101.57c-.3.1-.58.2-.85.31l2.92.79.8-.3-2.87-.8" transform="translate(-14.84 -92.26)"/><polyline class="cls-225" points="40.1 6.94 39.1 7.21 41.56 8.15 42.5 7.9 40.1 6.94"/><polyline class="cls-226" points="41.84 6.5 40.8 6.75 43.16 7.72 44.14 7.48 41.84 6.5"/><polyline class="cls-227" points="33.48 8.93 33.18 9.03 36.01 9.86 36.28 9.76 33.48 8.93"/><path class="cls-228" d="M63.56,97.29l-.48.09L65,98.45l.45-.09-1.87-1.07" transform="translate(-14.84 -92.26)"/><polyline class="cls-229" points="50.82 4.66 49.69 4.86 51.5 5.95 52.56 5.76 50.82 4.66"/><polyline class="cls-230" points="52.26 4.43 51.87 4.49 53.54 5.6 53.91 5.54 52.26 4.43"/><polyline class="cls-231" points="38.25 7.44 36.22 8.03 34.28 8.65 37.03 9.5 38.85 8.92 40.77 8.36 38.25 7.44"/><path class="cls-232" d="M62.19,97.56c-1.57.3-3.08.63-4.57,1l2.24,1c1.39-.32,2.81-.64,4.28-.92l-2-1" transform="translate(-14.84 -92.26)"/><path class="cls-233" d="M70.62,96.17l-1.77.25c-.6.08-1.17.18-1.75.27l1.65,1.11,1.64-.26,1.67-.23-1.44-1.14" transform="translate(-14.84 -92.26)"/><polyline class="cls-234" points="57.4 3.7 56.89 3.76 58.25 4.92 58.73 4.86 57.4 3.7"/><path class="cls-235" d="M74.49,95.69l-1.21.14L74.55,97l1.14-.13-1.2-1.17" transform="translate(-14.84 -92.26)"/><polyline class="cls-236" points="69.92 2.59 68.66 2.66 69.29 3.88 70.48 3.81 69.92 2.59"/><path class="cls-237" d="M86.94,94.74l-1.27.06L86.18,96l1.19,0-.43-1.23" transform="translate(-14.84 -92.26)"/><polyline class="cls-238" points="61.17 3.27 60.76 3.31 61.89 4.49 62.27 4.45 61.17 3.27"/><polyline class="cls-239" points="80.27 2.3 79.72 2.31 79.66 3.55 80.18 3.54 80.27 2.3"/><polyline class="cls-240" points="82.64 2.32 81.37 2.3 81.21 3.54 82.42 3.56 82.64 2.32"/><polyline class="cls-241" points="84.23 2.33 83.8 2.33 83.5 3.57 83.9 3.57 84.23 2.33"/><path class="cls-242" d="M82.42,95c-.89.06-1.78.11-2.66.19l-2.64.23,1,1.19,2.48-.22c.82-.07,1.66-.12,2.49-.18L82.42,95" transform="translate(-14.84 -92.26)"/><path class="cls-243" d="M93.52,94.57c-.9,0-1.81,0-2.71,0l-1.36,0-1.35,0,.35,1.24,1.27-.05,1.27,0c.85,0,1.69,0,2.55,0l0-1.24" transform="translate(-14.84 -92.26)"/><path class="cls-244" d="M99.07,94.59l-.32,1.24c1.19,0,2.39.06,3.58.11l.55-1.24c-1.26,0-2.54-.07-3.81-.11" transform="translate(-14.84 -92.26)"/><polyline class="cls-245" points="89.21 2.5 88.59 3.73 89.09 3.75 89.76 2.52 89.21 2.5"/><polyline class="cls-246" points="90.84 2.58 90.11 3.8 91.29 3.87 92.09 2.65 90.84 2.58"/><polyline class="cls-247" points="100.99 3.41 99.63 4.58 100.76 4.71 102.19 3.55 100.99 3.41"/><polyline class="cls-248" points="103.04 3.65 101.55 4.81 102.66 4.95 104.21 3.8 103.04 3.65"/><polyline class="cls-249" points="93.23 2.72 92.35 3.93 92.74 3.96 93.64 2.74 93.23 2.72"/><polyline class="cls-250" points="111 4.87 109.02 5.95 109.45 6.03 111.46 4.95 111 4.87"/><polyline class="cls-251" points="112.4 5.13 110.34 6.2 111.35 6.39 113.48 5.34 112.4 5.13"/><polyline class="cls-252" points="114.44 5.55 112.24 6.59 112.58 6.66 114.78 5.62 114.44 5.55"/><path class="cls-253" d="M109.61,95.09l-1,1.21c1.65.11,3.26.27,4.87.43l1.3-1.18c-1.72-.17-3.45-.34-5.2-.46" transform="translate(-14.84 -92.26)"/><path class="cls-254" d="M120.12,96.2l-1.63,1.14,2.29.34c.76.11,1.49.25,2.24.38l1.92-1.1-2.38-.4-2.44-.36" transform="translate(-14.84 -92.26)"/><path class="cls-255" d="M129.63,97.88l-2.21,1c1,.21,1.94.44,2.89.67l2.41-1c-1-.24-2-.48-3.09-.7" transform="translate(-14.84 -92.26)"/><polyline class="cls-256" points="118.81 6.56 116.34 7.54 116.74 7.64 119.22 6.67 118.81 6.56"/><path class="cls-257" d="M134.91,99.15l-2.54.95.9.25,2.6-.94-1-.26" transform="translate(-14.84 -92.26)"/><polyline class="cls-258" points="127.42 9.25 124.42 10.07 125.18 10.36 128.22 9.57 127.42 9.25"/><polyline class="cls-259" points="128.79 9.79 125.72 10.57 126.43 10.88 129.55 10.12 128.79 9.79"/><polyline class="cls-260" points="121.87 7.4 119.22 8.33 119.51 8.41 122.18 7.49 121.87 7.4"/><path class="cls-261" d="M148.54,104.39l-3.38.63.25.15,3.39-.63-.26-.15" transform="translate(-14.84 -92.26)"/><polyline class="cls-262" points="134.48 12.59 131.05 13.2 131.61 13.54 135.07 12.95 134.48 12.59"/><polyline class="cls-263" points="135.58 13.28 132.08 13.85 132.25 13.96 135.76 13.4 135.58 13.28"/><polyline class="cls-264" points="123.02 7.74 120.3 8.65 122.08 9.22 123.77 9.82 126.72 8.99 124.92 8.35 123.02 7.74"/><path class="cls-265" d="M145.07,102.67l-3.16.74c1,.44,1.92.88,2.76,1.35l3.34-.65c-.9-.5-1.9-1-2.94-1.44" transform="translate(-14.84 -92.26)"/><path class="cls-266" d="M150.6,105.66l-3.51.56c.26.17.53.34.76.52l.69.52,3.59-.48-.72-.57-.81-.55" transform="translate(-14.84 -92.26)"/><polyline class="cls-267" points="137.73 14.87 134.11 15.34 134.27 15.49 137.91 15.04 137.73 14.87"/><path class="cls-268" d="M153.13,107.62l-3.67.44c.13.12.28.24.4.36l3.68-.41-.41-.39" transform="translate(-14.84 -92.26)"/><polyline class="cls-269" points="140.89 18.62 137.07 18.85 137.24 19.23 141.08 19.02 140.89 18.62"/><path class="cls-270" d="M156.05,111.57l-3.84.19a1.74,1.74,0,0,1,.14.38l3.85-.17a2.17,2.17,0,0,0-.15-.4" transform="translate(-14.84 -92.26)"/><polyline class="cls-271" points="139.03 16.1 135.32 16.49 135.44 16.61 139.16 16.23 139.03 16.1"/><polyline class="cls-272" points="141.72 22.16 137.84 22.17 137.84 22.34 141.71 22.33 141.72 22.16"/><polyline class="cls-273" points="141.69 22.68 137.82 22.67 137.74 23.05 141.61 23.09 141.69 22.68"/><polyline class="cls-274" points="141.54 23.47 137.68 23.4 137.66 23.53 141.52 23.6 141.54 23.47"/><path class="cls-275" d="M154.33,108.84l-3.73.36.61.79c.21.26.34.53.52.8l3.8-.26a10,10,0,0,0-.54-.85l-.66-.84" transform="translate(-14.84 -92.26)"/><path class="cls-276" d="M156.31,112.34l-3.85.15.11.4.05.41a3.71,3.71,0,0,1,.08.81l3.87,0a4.27,4.27,0,0,0-.08-.87l-.06-.43-.12-.44" transform="translate(-14.84 -92.26)"/><path class="cls-277" d="M88.28,135.89c-36.46-.69-63.62-10.77-60.57-22.48s35.2-20.66,71.66-20,63.62,10.78,60.56,22.49-35.2,20.66-71.65,20M99.67,92.3c-38.43-.73-72.31,8.71-75.53,21S49.55,136.31,88,137s72.3-8.71,75.52-21S138.09,93,99.67,92.3" transform="translate(-14.84 -92.26)"/><path class="cls-278" d="M84.3,131.27c-.37,0-.7.08-.77.2s.19.24.58.26c1.71.09,3.46.15,5.21.18h0c.39,0,.72-.09.76-.21s-.28-.24-.67-.25c-1.7,0-3.41-.09-5.07-.17H84.3m15.59,0h-.15c-1.69.07-3.42.12-5.13.14-.39,0-.71.11-.71.24s.3.21.66.22h.07c1.76,0,3.53-.07,5.28-.15.39,0,.68-.13.63-.26s-.32-.19-.65-.2m-25.62-.88a1.25,1.25,0,0,0-.72.15c-.15.12,0,.25.4.29,1.63.19,3.32.37,5,.51h.13a1.13,1.13,0,0,0,.75-.17c.11-.12-.11-.25-.49-.28-1.64-.14-3.28-.3-4.87-.49h-.21m35.8.1-.27,0c-1.63.18-3.3.33-5,.46-.39,0-.64.15-.55.28s.33.17.64.17h.2c1.73-.13,3.44-.29,5.12-.48.37,0,.58-.17.46-.29a1.09,1.09,0,0,0-.63-.16M65,129a1.43,1.43,0,0,0-.66.11c-.22.11-.12.25.21.31,1.48.3,3,.57,4.58.82l.27,0a1.39,1.39,0,0,0,.7-.13c.18-.11,0-.25-.32-.31-1.51-.23-3-.5-4.45-.79a1.76,1.76,0,0,0-.33,0m54.63.16a1.9,1.9,0,0,0-.41,0c-1.49.27-3,.53-4.61.76-.36.05-.54.19-.38.3a1.26,1.26,0,0,0,.6.14l.35,0c1.61-.24,3.2-.5,4.74-.79.35-.06.48-.2.28-.31a1.38,1.38,0,0,0-.57-.12M56.86,127a2,2,0,0,0-.57.07c-.28.1-.27.24,0,.33,1.26.38,2.59.75,4,1.09a1.61,1.61,0,0,0,.39,0,1.5,1.5,0,0,0,.62-.09c.24-.1.19-.24-.12-.32-1.33-.33-2.64-.69-3.86-1.06a1.46,1.46,0,0,0-.44-.06m71.36.22a1.73,1.73,0,0,0-.52.06c-1.31.36-2.68.71-4.09,1-.33.08-.41.22-.18.32a1.47,1.47,0,0,0,.53.1,1.71,1.71,0,0,0,.46-.05c1.45-.33,2.86-.69,4.2-1.06.3-.08.34-.23.09-.32a1.44,1.44,0,0,0-.49-.08m-78.1-2.71a1.72,1.72,0,0,0-.46,0c-.33.07-.41.22-.18.32,1,.46,2.08.9,3.21,1.32a1.73,1.73,0,0,0,.49.08,2.12,2.12,0,0,0,.52-.06c.3-.09.34-.23.09-.32-1.11-.42-2.16-.85-3.14-1.29a1.3,1.3,0,0,0-.53-.09m85.37.26a1.53,1.53,0,0,0-.63.09c-1.06.43-2.2.86-3.4,1.26-.27.1-.27.24,0,.33a2.62,2.62,0,0,0,.43.06,1.73,1.73,0,0,0,.58-.08c1.22-.41,2.4-.85,3.5-1.29.24-.11.19-.25-.12-.33a1.53,1.53,0,0,0-.38,0m-90.43-3.14a1.4,1.4,0,0,0-.35,0c-.36,0-.52.19-.37.3a21.63,21.63,0,0,0,2.35,1.5,1.3,1.3,0,0,0,.56.12,2.73,2.73,0,0,0,.41,0c.35-.07.47-.21.28-.32a23,23,0,0,1-2.28-1.46,1.14,1.14,0,0,0-.6-.13m96.1.29a1.34,1.34,0,0,0-.7.13c-.79.49-1.66,1-2.58,1.45-.22.1-.13.24.21.31l.32,0a1.67,1.67,0,0,0,.66-.11,29.68,29.68,0,0,0,2.66-1.49c.19-.11.05-.25-.31-.31l-.26,0m-99.28-3.45h-.21c-.39,0-.63.15-.55.27a10.58,10.58,0,0,0,1.37,1.63,1,1,0,0,0,.61.16l.29,0c.37,0,.58-.17.46-.29a11,11,0,0,1-1.33-1.58c-.06-.1-.33-.17-.64-.18m103.12.32a1.13,1.13,0,0,0-.75.17,14,14,0,0,1-1.66,1.57c-.15.12,0,.25.4.3h.21a1.25,1.25,0,0,0,.72-.15,14.08,14.08,0,0,0,1.71-1.62c.11-.12-.11-.24-.49-.28H145M40.7,115.12h-.06c-.4,0-.71.11-.71.24a5.65,5.65,0,0,0,.34,1.69c0,.11.32.19.65.2h.14c.39,0,.68-.14.63-.26a5.61,5.61,0,0,1-.32-1.65c0-.12-.3-.21-.67-.22m106.18.29c-.39,0-.74.09-.77.21v0a6.56,6.56,0,0,1-.68,1.64c-.07.13.19.25.58.27h.07c.36,0,.7-.08.76-.2a6.89,6.89,0,0,0,.7-1.68v0c0-.13-.26-.23-.66-.24M41.56,111.79a1.05,1.05,0,0,0-.76.19,6.75,6.75,0,0,0-.68,1.67v0c0,.12.27.22.66.23s.74-.1.77-.22a7,7,0,0,1,.67-1.62c.07-.13-.19-.25-.57-.27h-.08m105.16.28h-.14c-.39,0-.68.14-.63.26a6,6,0,0,1,.33,1.64c0,.12.29.22.66.23H147c.39,0,.71-.11.71-.23a5.85,5.85,0,0,0-.35-1.69c0-.11-.32-.19-.65-.2M44.43,108.56a1.26,1.26,0,0,0-.73.15,13.91,13.91,0,0,0-1.7,1.61c-.11.13.11.25.49.28h.14a1.15,1.15,0,0,0,.75-.17A15.68,15.68,0,0,1,45,108.86c.15-.11,0-.25-.4-.29h-.2m100.09.26-.28,0c-.38,0-.58.17-.46.29a11,11,0,0,1,1.33,1.58,1,1,0,0,0,.64.18H146c.38,0,.62-.15.54-.28a11,11,0,0,0-1.37-1.62,1.08,1.08,0,0,0-.62-.16m-95.33-3.27a1.57,1.57,0,0,0-.66.11c-1,.48-1.84,1-2.65,1.49-.18.11,0,.25.32.3a2.06,2.06,0,0,0,.26,0,1.61,1.61,0,0,0,.7-.13,29.29,29.29,0,0,1,2.58-1.45c.21-.11.12-.25-.22-.32a1.76,1.76,0,0,0-.33,0m91.17.24a1.75,1.75,0,0,0-.4,0c-.35.06-.48.2-.28.31A23,23,0,0,1,142,107.6a1.14,1.14,0,0,0,.6.13,1.3,1.3,0,0,0,.34,0c.36,0,.53-.19.37-.3a23.07,23.07,0,0,0-2.34-1.5,1.38,1.38,0,0,0-.57-.12m-84.67-2.9a1.74,1.74,0,0,0-.58.07c-1.22.41-2.4.85-3.49,1.3-.25.1-.19.24.12.32a2.06,2.06,0,0,0,.38,0,1.89,1.89,0,0,0,.62-.09c1.07-.44,2.21-.87,3.4-1.27.27-.09.27-.24,0-.32a1.4,1.4,0,0,0-.43-.06m78.74.21a1.7,1.7,0,0,0-.52.05c-.31.09-.35.23-.09.33,1.11.41,2.16.84,3.14,1.28a1.28,1.28,0,0,0,.52.09,1.79,1.79,0,0,0,.47,0c.32-.07.41-.22.18-.32-1-.45-2.08-.9-3.22-1.32a1.62,1.62,0,0,0-.48-.07m-70.8-2.44a1.71,1.71,0,0,0-.46,0c-1.45.33-2.86.69-4.2,1.06-.3.09-.34.23-.08.32a1.4,1.4,0,0,0,.49.08,1.46,1.46,0,0,0,.52-.06c1.3-.36,2.68-.71,4.08-1,.33-.08.41-.22.19-.32a1.58,1.58,0,0,0-.54-.1m63.31.17a1.85,1.85,0,0,0-.62.09c-.25.1-.2.25.11.33,1.34.33,2.64.68,3.87,1a1.51,1.51,0,0,0,.44.06,1.68,1.68,0,0,0,.57-.07c.28-.09.27-.24,0-.33-1.26-.38-2.6-.74-4-1.08a1.52,1.52,0,0,0-.38,0M72.75,99a2,2,0,0,0-.35,0c-1.61.24-3.21.5-4.74.79-.35.06-.47.2-.28.31a1.22,1.22,0,0,0,.57.11,1.42,1.42,0,0,0,.41,0c1.49-.28,3-.53,4.61-.76.36-.06.53-.19.37-.31a1.12,1.12,0,0,0-.59-.13m45.43.12a1.3,1.3,0,0,0-.69.13c-.19.11,0,.25.3.3,1.53.24,3,.51,4.46.8a1.76,1.76,0,0,0,.33,0,1.71,1.71,0,0,0,.66-.11c.22-.11.12-.25-.21-.32-1.48-.29-3-.56-4.58-.81l-.27,0M82.67,97.87h-.22c-1.71.13-3.43.29-5.11.47-.37,0-.58.18-.45.3a1,1,0,0,0,.62.15h.28c1.62-.18,3.3-.34,5-.47.39,0,.63-.15.55-.28a1,1,0,0,0-.64-.17m25.82.07a1.13,1.13,0,0,0-.75.17c-.11.12.11.25.49.28,1.65.14,3.29.3,4.88.49l.2,0a1.45,1.45,0,0,0,.73-.15c.14-.12,0-.26-.41-.3-1.63-.19-3.31-.36-5-.5h-.14M93,97.41H93c-1.76,0-3.54.07-5.28.15-.39,0-.67.13-.63.26s.32.19.66.2h.13c1.7-.08,3.43-.13,5.14-.15.4,0,.72-.11.71-.24s-.3-.21-.67-.22m5.34,0h-.12c-.39,0-.74.09-.77.22s.26.24.65.24h.1c1.67,0,3.36.09,5,.17h.07c.36,0,.7-.08.76-.19s-.19-.25-.58-.27c-1.69-.08-3.42-.14-5.12-.17" transform="translate(-14.84 -92.26)"/><path class="cls-279" d="M93.35,119.14a57.86,57.86,0,0,1-7,1.12c-2.16.21-4.39.32-6.71.32a66.16,66.16,0,0,1-9.22-.62,44.91,44.91,0,0,1-7.63-1.68,17.74,17.74,0,0,1-5.18-2.48,3.37,3.37,0,0,1,0-6.07,18,18,0,0,1,5.18-2.47,44.91,44.91,0,0,1,7.63-1.68,66.16,66.16,0,0,1,9.22-.62c2.32,0,4.54.11,6.68.32.79.08,1.62.17,2.38.27.36,0,.78.14.78.14l-.13,0a11.86,11.86,0,0,0-1.22.5,6.34,6.34,0,0,0-1,.58,4.22,4.22,0,0,0-.72.66,3.06,3.06,0,0,0-.46.73,2,2,0,0,0-.22.79c0,.08,0,.17,0,.25s-.69-.15-1.1-.21a39.26,39.26,0,0,0-5-.36,34.19,34.19,0,0,0-4.77.32,22.66,22.66,0,0,0-3.9.87,8.36,8.36,0,0,0-2.63,1.3,1.81,1.81,0,0,0,0,3.2,8.58,8.58,0,0,0,2.63,1.3,22.66,22.66,0,0,0,3.9.87,34.19,34.19,0,0,0,4.77.32,38,38,0,0,0,8.4-1c2-.47,3.49-.94,5.38-1.45a51.62,51.62,0,0,1,14-1.52l18.27,0V117H105.14v6.74l-11.74.06v-4.64Z" transform="translate(-14.84 -92.26)"/><path class="cls-280" d="M91,112.58v-2.37h0c0-3.07,4.95-4.86,14.5-4.86h22.18a2,2,0,0,1,2,2v0a2,2,0,0,1-2,2h-22c-2.31,0-3.14.46-3.14,1.25V111a56.46,56.46,0,0,0-9.25,1.08C92.54,112.24,91,112.58,91,112.58Z" transform="translate(-14.84 -92.26)"/></g></g></svg>