<svg xmlns="http://www.w3.org/2000/svg" xmlns:xlink="http://www.w3.org/1999/xlink" viewBox="0 0 166.44 103.28"><defs><style>.cls-1{isolation:isolate;}.cls-2{fill:url(#New_Gradient_Swatch_18);}.cls-142,.cls-3{mix-blend-mode:multiply;opacity:0.3;}.cls-3{fill:url(#radial-gradient);}.cls-4{fill:url(#New_Gradient_Swatch_5);}.cls-5{fill:url(#New_Gradient_Swatch_5-2);}.cls-6{fill:url(#New_Gradient_Swatch_3);}.cls-7{fill:url(#New_Gradient_Swatch_3-2);}.cls-8{fill:url(#New_Gradient_Swatch_3-3);}.cls-9{fill:url(#New_Gradient_Swatch_3-4);}.cls-10{fill:url(#New_Gradient_Swatch_3-5);}.cls-11{fill:url(#New_Gradient_Swatch_3-6);}.cls-12{fill:url(#New_Gradient_Swatch_3-7);}.cls-13{fill:url(#New_Gradient_Swatch_3-8);}.cls-14{fill:url(#New_Gradient_Swatch_3-9);}.cls-15{fill:url(#New_Gradient_Swatch_3-10);}.cls-16{fill:url(#New_Gradient_Swatch_3-11);}.cls-17{fill:url(#New_Gradient_Swatch_3-12);}.cls-18{fill:url(#New_Gradient_Swatch_3-13);}.cls-19{fill:url(#New_Gradient_Swatch_3-14);}.cls-20{fill:url(#New_Gradient_Swatch_3-15);}.cls-21{fill:url(#New_Gradient_Swatch_3-16);}.cls-22{fill:url(#New_Gradient_Swatch_3-17);}.cls-23{fill:url(#New_Gradient_Swatch_3-18);}.cls-24{fill:url(#New_Gradient_Swatch_3-19);}.cls-25{fill:url(#New_Gradient_Swatch_3-20);}.cls-26{fill:url(#New_Gradient_Swatch_3-21);}.cls-27{fill:url(#New_Gradient_Swatch_3-22);}.cls-28{fill:url(#New_Gradient_Swatch_3-23);}.cls-29{fill:url(#New_Gradient_Swatch_3-24);}.cls-30{fill:url(#New_Gradient_Swatch_3-25);}.cls-31{fill:url(#New_Gradient_Swatch_3-26);}.cls-32{fill:url(#New_Gradient_Swatch_3-27);}.cls-33{fill:url(#New_Gradient_Swatch_3-28);}.cls-34{fill:url(#New_Gradient_Swatch_3-29);}.cls-35{fill:url(#New_Gradient_Swatch_3-30);}.cls-36{fill:url(#New_Gradient_Swatch_3-31);}.cls-37{fill:url(#New_Gradient_Swatch_3-32);}.cls-38{fill:url(#New_Gradient_Swatch_3-33);}.cls-39{fill:url(#New_Gradient_Swatch_3-34);}.cls-40{fill:url(#New_Gradient_Swatch_3-35);}.cls-41{fill:url(#New_Gradient_Swatch_3-36);}.cls-42{fill:url(#New_Gradient_Swatch_3-37);}.cls-43{fill:url(#New_Gradient_Swatch_3-38);}.cls-44{fill:url(#New_Gradient_Swatch_3-39);}.cls-45{fill:url(#New_Gradient_Swatch_3-40);}.cls-46{fill:url(#New_Gradient_Swatch_3-41);}.cls-47{fill:url(#New_Gradient_Swatch_3-42);}.cls-48{fill:url(#New_Gradient_Swatch_3-43);}.cls-49{fill:url(#New_Gradient_Swatch_3-44);}.cls-50{fill:url(#New_Gradient_Swatch_3-45);}.cls-51{fill:url(#New_Gradient_Swatch_3-46);}.cls-52{fill:url(#New_Gradient_Swatch_3-47);}.cls-53{fill:url(#New_Gradient_Swatch_3-48);}.cls-54{fill:url(#New_Gradient_Swatch_3-49);}.cls-55{fill:url(#New_Gradient_Swatch_3-50);}.cls-56{fill:url(#New_Gradient_Swatch_3-51);}.cls-57{fill:url(#New_Gradient_Swatch_3-52);}.cls-58{fill:url(#New_Gradient_Swatch_3-53);}.cls-59{fill:url(#New_Gradient_Swatch_3-54);}.cls-60{fill:url(#New_Gradient_Swatch_3-55);}.cls-61{fill:url(#New_Gradient_Swatch_3-56);}.cls-62{fill:url(#New_Gradient_Swatch_3-57);}.cls-63{fill:url(#New_Gradient_Swatch_3-58);}.cls-64{fill:url(#New_Gradient_Swatch_3-59);}.cls-65{fill:url(#New_Gradient_Swatch_3-60);}.cls-66{fill:url(#New_Gradient_Swatch_3-61);}.cls-67{fill:url(#New_Gradient_Swatch_3-62);}.cls-68{fill:url(#New_Gradient_Swatch_3-63);}.cls-69{fill:url(#New_Gradient_Swatch_3-64);}.cls-70{fill:url(#New_Gradient_Swatch_3-65);}.cls-71{fill:url(#New_Gradient_Swatch_3-66);}.cls-72{fill:url(#New_Gradient_Swatch_3-67);}.cls-73{fill:url(#New_Gradient_Swatch_3-68);}.cls-74{fill:url(#New_Gradient_Swatch_3-69);}.cls-75{fill:url(#New_Gradient_Swatch_3-70);}.cls-76{fill:url(#New_Gradient_Swatch_3-71);}.cls-77{fill:url(#New_Gradient_Swatch_3-72);}.cls-78{fill:url(#New_Gradient_Swatch_3-73);}.cls-79{fill:url(#New_Gradient_Swatch_3-74);}.cls-80{fill:url(#New_Gradient_Swatch_3-75);}.cls-81{fill:url(#New_Gradient_Swatch_3-76);}.cls-82{fill:url(#New_Gradient_Swatch_3-77);}.cls-83{fill:url(#New_Gradient_Swatch_3-78);}.cls-84{fill:url(#New_Gradient_Swatch_3-79);}.cls-85{fill:url(#New_Gradient_Swatch_3-80);}.cls-86{fill:url(#New_Gradient_Swatch_3-81);}.cls-87{fill:url(#New_Gradient_Swatch_3-82);}.cls-88{fill:url(#New_Gradient_Swatch_3-83);}.cls-89{fill:url(#New_Gradient_Swatch_3-84);}.cls-90{fill:url(#New_Gradient_Swatch_3-85);}.cls-91{fill:url(#New_Gradient_Swatch_3-86);}.cls-92{fill:url(#New_Gradient_Swatch_3-87);}.cls-93{fill:url(#New_Gradient_Swatch_3-88);}.cls-94{fill:url(#New_Gradient_Swatch_3-89);}.cls-95{fill:url(#New_Gradient_Swatch_3-90);}.cls-96{fill:url(#New_Gradient_Swatch_3-91);}.cls-97{fill:url(#New_Gradient_Swatch_3-92);}.cls-98{fill:url(#New_Gradient_Swatch_3-93);}.cls-99{fill:url(#New_Gradient_Swatch_3-94);}.cls-100{fill:url(#New_Gradient_Swatch_3-95);}.cls-101{fill:url(#New_Gradient_Swatch_3-96);}.cls-102{fill:url(#New_Gradient_Swatch_3-97);}.cls-103{fill:url(#New_Gradient_Swatch_3-98);}.cls-104{fill:url(#New_Gradient_Swatch_3-99);}.cls-105{fill:url(#New_Gradient_Swatch_3-100);}.cls-106{fill:url(#New_Gradient_Swatch_3-101);}.cls-107{fill:url(#New_Gradient_Swatch_3-102);}.cls-108{fill:url(#New_Gradient_Swatch_3-103);}.cls-109{fill:url(#New_Gradient_Swatch_3-104);}.cls-110{fill:url(#New_Gradient_Swatch_3-105);}.cls-111{fill:url(#New_Gradient_Swatch_3-106);}.cls-112{fill:url(#New_Gradient_Swatch_3-107);}.cls-113{fill:url(#New_Gradient_Swatch_3-108);}.cls-114{fill:url(#New_Gradient_Swatch_3-109);}.cls-115{fill:url(#New_Gradient_Swatch_3-110);}.cls-116{fill:url(#New_Gradient_Swatch_3-111);}.cls-117{fill:url(#New_Gradient_Swatch_3-112);}.cls-118{fill:url(#New_Gradient_Swatch_3-113);}.cls-119{fill:url(#New_Gradient_Swatch_3-114);}.cls-120{fill:url(#New_Gradient_Swatch_3-115);}.cls-121{fill:url(#New_Gradient_Swatch_3-116);}.cls-122{fill:url(#New_Gradient_Swatch_3-117);}.cls-123{fill:url(#New_Gradient_Swatch_3-118);}.cls-124{fill:url(#New_Gradient_Swatch_3-119);}.cls-125{fill:url(#New_Gradient_Swatch_3-120);}.cls-126{fill:url(#New_Gradient_Swatch_3-121);}.cls-127{fill:url(#New_Gradient_Swatch_3-122);}.cls-128{fill:url(#New_Gradient_Swatch_3-123);}.cls-129{fill:url(#New_Gradient_Swatch_3-124);}.cls-130{fill:url(#New_Gradient_Swatch_3-125);}.cls-131{fill:url(#New_Gradient_Swatch_3-126);}.cls-132{fill:url(#New_Gradient_Swatch_3-127);}.cls-133{fill:url(#New_Gradient_Swatch_3-128);}.cls-134{fill:url(#New_Gradient_Swatch_3-129);}.cls-135{fill:url(#New_Gradient_Swatch_3-130);}.cls-136{fill:url(#New_Gradient_Swatch_3-131);}.cls-137{fill:url(#New_Gradient_Swatch_3-132);}.cls-138{fill:url(#New_Gradient_Swatch_3-133);}.cls-139{fill:url(#New_Gradient_Swatch_3-134);}.cls-140,.cls-141,.cls-279,.cls-280{fill:none;}.cls-140{stroke:#000;}.cls-140,.cls-279,.cls-280{stroke-miterlimit:10;}.cls-141{stroke-width:3px;stroke:url(#New_Gradient_Swatch_3-135);}.cls-142{fill:url(#radial-gradient-2);}.cls-143{fill:url(#New_Gradient_Swatch_5-3);}.cls-144{fill:url(#New_Gradient_Swatch_5-4);}.cls-145{fill:url(#New_Gradient_Swatch_3-138);}.cls-146{fill:url(#New_Gradient_Swatch_3-139);}.cls-147{fill:url(#New_Gradient_Swatch_3-140);}.cls-148{fill:url(#New_Gradient_Swatch_3-141);}.cls-149{fill:url(#New_Gradient_Swatch_3-142);}.cls-150{fill:url(#New_Gradient_Swatch_3-143);}.cls-151{fill:url(#New_Gradient_Swatch_3-144);}.cls-152{fill:url(#New_Gradient_Swatch_3-145);}.cls-153{fill:url(#New_Gradient_Swatch_3-146);}.cls-154{fill:url(#New_Gradient_Swatch_3-147);}.cls-155{fill:url(#New_Gradient_Swatch_3-148);}.cls-156{fill:url(#New_Gradient_Swatch_3-149);}.cls-157{fill:url(#New_Gradient_Swatch_3-150);}.cls-158{fill:url(#New_Gradient_Swatch_3-151);}.cls-159{fill:url(#New_Gradient_Swatch_3-152);}.cls-160{fill:url(#New_Gradient_Swatch_3-153);}.cls-161{fill:url(#New_Gradient_Swatch_3-154);}.cls-162{fill:url(#New_Gradient_Swatch_3-155);}.cls-163{fill:url(#New_Gradient_Swatch_3-156);}.cls-164{fill:url(#New_Gradient_Swatch_3-157);}.cls-165{fill:url(#New_Gradient_Swatch_3-158);}.cls-166{fill:url(#New_Gradient_Swatch_3-159);}.cls-167{fill:url(#New_Gradient_Swatch_3-160);}.cls-168{fill:url(#New_Gradient_Swatch_3-161);}.cls-169{fill:url(#New_Gradient_Swatch_3-162);}.cls-170{fill:url(#New_Gradient_Swatch_3-163);}.cls-171{fill:url(#New_Gradient_Swatch_3-164);}.cls-172{fill:url(#New_Gradient_Swatch_3-165);}.cls-173{fill:url(#New_Gradient_Swatch_3-166);}.cls-174{fill:url(#New_Gradient_Swatch_3-167);}.cls-175{fill:url(#New_Gradient_Swatch_3-168);}.cls-176{fill:url(#New_Gradient_Swatch_3-169);}.cls-177{fill:url(#New_Gradient_Swatch_3-170);}.cls-178{fill:url(#New_Gradient_Swatch_3-171);}.cls-179{fill:url(#New_Gradient_Swatch_3-172);}.cls-180{fill:url(#New_Gradient_Swatch_3-173);}.cls-181{fill:url(#New_Gradient_Swatch_3-174);}.cls-182{fill:url(#New_Gradient_Swatch_3-175);}.cls-183{fill:url(#New_Gradient_Swatch_3-176);}.cls-184{fill:url(#New_Gradient_Swatch_3-177);}.cls-185{fill:url(#New_Gradient_Swatch_3-178);}.cls-186{fill:url(#New_Gradient_Swatch_3-179);}.cls-187{fill:url(#New_Gradient_Swatch_3-180);}.cls-188{fill:url(#New_Gradient_Swatch_3-181);}.cls-189{fill:url(#New_Gradient_Swatch_3-182);}.cls-190{fill:url(#New_Gradient_Swatch_3-183);}.cls-191{fill:url(#New_Gradient_Swatch_3-184);}.cls-192{fill:url(#New_Gradient_Swatch_3-185);}.cls-193{fill:url(#New_Gradient_Swatch_3-186);}.cls-194{fill:url(#New_Gradient_Swatch_3-187);}.cls-195{fill:url(#New_Gradient_Swatch_3-188);}.cls-196{fill:url(#New_Gradient_Swatch_3-189);}.cls-197{fill:url(#New_Gradient_Swatch_3-190);}.cls-198{fill:url(#New_Gradient_Swatch_3-191);}.cls-199{fill:url(#New_Gradient_Swatch_3-192);}.cls-200{fill:url(#New_Gradient_Swatch_3-193);}.cls-201{fill:url(#New_Gradient_Swatch_3-194);}.cls-202{fill:url(#New_Gradient_Swatch_3-195);}.cls-203{fill:url(#New_Gradient_Swatch_3-196);}.cls-204{fill:url(#New_Gradient_Swatch_3-197);}.cls-205{fill:url(#New_Gradient_Swatch_3-198);}.cls-206{fill:url(#New_Gradient_Swatch_3-199);}.cls-207{fill:url(#New_Gradient_Swatch_3-200);}.cls-208{fill:url(#New_Gradient_Swatch_3-201);}.cls-209{fill:url(#New_Gradient_Swatch_3-202);}.cls-210{fill:url(#New_Gradient_Swatch_3-203);}.cls-211{fill:url(#New_Gradient_Swatch_3-204);}.cls-212{fill:url(#New_Gradient_Swatch_3-205);}.cls-213{fill:url(#New_Gradient_Swatch_3-206);}.cls-214{fill:url(#New_Gradient_Swatch_3-207);}.cls-215{fill:url(#New_Gradient_Swatch_3-208);}.cls-216{fill:url(#New_Gradient_Swatch_3-209);}.cls-217{fill:url(#New_Gradient_Swatch_3-210);}.cls-218{fill:url(#New_Gradient_Swatch_3-211);}.cls-219{fill:url(#New_Gradient_Swatch_3-212);}.cls-220{fill:url(#New_Gradient_Swatch_3-213);}.cls-221{fill:url(#New_Gradient_Swatch_3-214);}.cls-222{fill:url(#New_Gradient_Swatch_3-215);}.cls-223{fill:url(#New_Gradient_Swatch_3-216);}.cls-224{fill:url(#New_Gradient_Swatch_3-217);}.cls-225{fill:url(#New_Gradient_Swatch_3-218);}.cls-226{fill:url(#New_Gradient_Swatch_3-219);}.cls-227{fill:url(#New_Gradient_Swatch_3-220);}.cls-228{fill:url(#New_Gradient_Swatch_3-221);}.cls-229{fill:url(#New_Gradient_Swatch_3-222);}.cls-230{fill:url(#New_Gradient_Swatch_3-223);}.cls-231{fill:url(#New_Gradient_Swatch_3-224);}.cls-232{fill:url(#New_Gradient_Swatch_3-225);}.cls-233{fill:url(#New_Gradient_Swatch_3-226);}.cls-234{fill:url(#New_Gradient_Swatch_3-227);}.cls-235{fill:url(#New_Gradient_Swatch_3-228);}.cls-236{fill:url(#New_Gradient_Swatch_3-229);}.cls-237{fill:url(#New_Gradient_Swatch_3-230);}.cls-238{fill:url(#New_Gradient_Swatch_3-231);}.cls-239{fill:url(#New_Gradient_Swatch_3-232);}.cls-240{fill:url(#New_Gradient_Swatch_3-233);}.cls-241{fill:url(#New_Gradient_Swatch_3-234);}.cls-242{fill:url(#New_Gradient_Swatch_3-235);}.cls-243{fill:url(#New_Gradient_Swatch_3-236);}.cls-244{fill:url(#New_Gradient_Swatch_3-237);}.cls-245{fill:url(#New_Gradient_Swatch_3-238);}.cls-246{fill:url(#New_Gradient_Swatch_3-239);}.cls-247{fill:url(#New_Gradient_Swatch_3-240);}.cls-248{fill:url(#New_Gradient_Swatch_3-241);}.cls-249{fill:url(#New_Gradient_Swatch_3-242);}.cls-250{fill:url(#New_Gradient_Swatch_3-243);}.cls-251{fill:url(#New_Gradient_Swatch_3-244);}.cls-252{fill:url(#New_Gradient_Swatch_3-245);}.cls-253{fill:url(#New_Gradient_Swatch_3-246);}.cls-254{fill:url(#New_Gradient_Swatch_3-247);}.cls-255{fill:url(#New_Gradient_Swatch_3-248);}.cls-256{fill:url(#New_Gradient_Swatch_3-249);}.cls-257{fill:url(#New_Gradient_Swatch_3-250);}.cls-258{fill:url(#New_Gradient_Swatch_3-251);}.cls-259{fill:url(#New_Gradient_Swatch_3-252);}.cls-260{fill:url(#New_Gradient_Swatch_3-253);}.cls-261{fill:url(#New_Gradient_Swatch_3-254);}.cls-262{fill:url(#New_Gradient_Swatch_3-255);}.cls-263{fill:url(#New_Gradient_Swatch_3-256);}.cls-264{fill:url(#New_Gradient_Swatch_3-257);}.cls-265{fill:url(#New_Gradient_Swatch_3-258);}.cls-266{fill:url(#New_Gradient_Swatch_3-259);}.cls-267{fill:url(#New_Gradient_Swatch_3-260);}.cls-268{fill:url(#New_Gradient_Swatch_3-261);}.cls-269{fill:url(#New_Gradient_Swatch_3-262);}.cls-270{fill:url(#New_Gradient_Swatch_3-263);}.cls-271{fill:url(#New_Gradient_Swatch_3-264);}.cls-272{fill:url(#New_Gradient_Swatch_3-265);}.cls-273{fill:url(#New_Gradient_Swatch_3-266);}.cls-274{fill:url(#New_Gradient_Swatch_3-267);}.cls-275{fill:url(#New_Gradient_Swatch_3-268);}.cls-276{fill:url(#New_Gradient_Swatch_3-269);}.cls-277{fill:url(#New_Gradient_Swatch_3-270);}.cls-278{fill:url(#New_Gradient_Swatch_3-271);}.cls-279{stroke:url(#New_Gradient_Swatch_3-272);}.cls-280{stroke:url(#New_Gradient_Swatch_3-273);}</style><linearGradient id="New_Gradient_Swatch_18" x1="5.14" y1="71.87" x2="158.14" y2="71.87" gradientUnits="userSpaceOnUse"><stop offset="0" stop-color="#0c5c79"/><stop offset="0.27" stop-color="#30a2c3"/><stop offset="0.52" stop-color="#94cadf"/><stop offset="0.77" stop-color="#b3d4e5"/><stop offset="1" stop-color="#d2d4d5"/></linearGradient><radialGradient id="radial-gradient" cx="33.79" cy="-1121.4" r="90.39" gradientTransform="translate(52.11 381.27) scale(0.92 0.27)" gradientUnits="userSpaceOnUse"><stop offset="0.46"/><stop offset="0.51" stop-opacity="0.77"/><stop offset="1" stop-opacity="0"/></radialGradient><linearGradient id="New_Gradient_Swatch_5" x1="-29.35" y1="144.98" x2="122.07" y2="144.98" gradientUnits="userSpaceOnUse"><stop offset="0" stop-color="#00597c"/><stop offset="0.31" stop-color="#26a3c6"/><stop offset="0.51" stop-color="#63aacc"/><stop offset="0.72" stop-color="#8fc9df"/><stop offset="1" stop-color="#d1d3d4"/></linearGradient><linearGradient id="New_Gradient_Swatch_5-2" x1="27.75" y1="138.08" x2="166.99" y2="138.08" gradientTransform="translate(1.21 -0.85) rotate(0.5)" xlink:href="#New_Gradient_Swatch_5"/><linearGradient id="New_Gradient_Swatch_3" x1="143.15" y1="86.24" x2="158.91" y2="145.05" gradientUnits="userSpaceOnUse"><stop offset="0" stop-color="#d1d3d4"/><stop offset="1" stop-color="#fff"/></linearGradient><linearGradient id="New_Gradient_Swatch_3-2" x1="133.1" y1="15.78" x2="143.13" y2="53.2" xlink:href="#New_Gradient_Swatch_3"/><linearGradient id="New_Gradient_Swatch_3-3" x1="131.66" y1="12.33" x2="142.92" y2="54.32" xlink:href="#New_Gradient_Swatch_3"/><linearGradient id="New_Gradient_Swatch_3-4" x1="128.53" y1="14.4" x2="140.36" y2="58.55" xlink:href="#New_Gradient_Swatch_3"/><linearGradient id="New_Gradient_Swatch_3-5" x1="127.83" y1="15.37" x2="139.64" y2="59.44" xlink:href="#New_Gradient_Swatch_3"/><linearGradient id="New_Gradient_Swatch_3-6" x1="132.14" y1="16.23" x2="142.45" y2="54.71" xlink:href="#New_Gradient_Swatch_3"/><linearGradient id="New_Gradient_Swatch_3-7" x1="123.86" y1="16.89" x2="136.33" y2="63.45" xlink:href="#New_Gradient_Swatch_3"/><linearGradient id="New_Gradient_Swatch_3-8" x1="123.01" y1="18.1" x2="135.39" y2="64.31" xlink:href="#New_Gradient_Swatch_3"/><linearGradient id="New_Gradient_Swatch_3-9" x1="121.41" y1="16.7" x2="134.53" y2="65.69" xlink:href="#New_Gradient_Swatch_3"/><linearGradient id="New_Gradient_Swatch_3-10" x1="141.99" y1="93.84" x2="156.77" y2="149.02" xlink:href="#New_Gradient_Swatch_3"/><linearGradient id="New_Gradient_Swatch_3-11" x1="140.9" y1="108.06" x2="152.79" y2="152.45" xlink:href="#New_Gradient_Swatch_3"/><linearGradient id="New_Gradient_Swatch_3-12" x1="137.22" y1="116.35" x2="147.88" y2="156.16" xlink:href="#New_Gradient_Swatch_3"/><linearGradient id="New_Gradient_Swatch_3-13" x1="118.09" y1="17.72" x2="131.75" y2="68.71" xlink:href="#New_Gradient_Swatch_3"/><linearGradient id="New_Gradient_Swatch_3-14" x1="132.55" y1="112.5" x2="145.3" y2="160.09" xlink:href="#New_Gradient_Swatch_3"/><linearGradient id="New_Gradient_Swatch_3-15" x1="110.72" y1="25.13" x2="124" y2="74.69" xlink:href="#New_Gradient_Swatch_3"/><linearGradient id="New_Gradient_Swatch_3-16" x1="108.91" y1="25.04" x2="122.63" y2="76.24" xlink:href="#New_Gradient_Swatch_3"/><linearGradient id="New_Gradient_Swatch_3-17" x1="115.1" y1="17.13" x2="129.65" y2="71.41" xlink:href="#New_Gradient_Swatch_3"/><linearGradient id="New_Gradient_Swatch_3-18" x1="114.29" y1="108.1" x2="132.99" y2="177.88" xlink:href="#New_Gradient_Swatch_3"/><linearGradient id="New_Gradient_Swatch_3-19" x1="99.73" y1="24.76" x2="115.8" y2="84.72" xlink:href="#New_Gradient_Swatch_3"/><linearGradient id="New_Gradient_Swatch_3-20" x1="95.05" y1="14.13" x2="116.06" y2="92.51" xlink:href="#New_Gradient_Swatch_3"/><linearGradient id="New_Gradient_Swatch_3-21" x1="117.77" y1="38.31" x2="125.64" y2="67.72" xlink:href="#New_Gradient_Swatch_3"/><linearGradient id="New_Gradient_Swatch_3-22" x1="124.48" y1="132.89" x2="132.64" y2="163.33" xlink:href="#New_Gradient_Swatch_3"/><linearGradient id="New_Gradient_Swatch_3-23" x1="114.48" y1="129.46" x2="125.72" y2="171.39" xlink:href="#New_Gradient_Swatch_3"/><linearGradient id="New_Gradient_Swatch_3-24" x1="89.93" y1="14" x2="112.74" y2="99.14" xlink:href="#New_Gradient_Swatch_3"/><linearGradient id="New_Gradient_Swatch_3-25" x1="105.57" y1="115.07" x2="124.5" y2="185.69" xlink:href="#New_Gradient_Swatch_3"/><linearGradient id="New_Gradient_Swatch_3-26" x1="79.99" y1="21.66" x2="103.78" y2="110.44" xlink:href="#New_Gradient_Swatch_3"/><linearGradient id="New_Gradient_Swatch_3-27" x1="92.51" y1="112" x2="117.64" y2="205.8" xlink:href="#New_Gradient_Swatch_3"/><linearGradient id="New_Gradient_Swatch_3-28" x1="84.86" y1="9.28" x2="111.35" y2="108.11" xlink:href="#New_Gradient_Swatch_3"/><linearGradient id="New_Gradient_Swatch_3-29" x1="57.09" y1="-24.87" x2="116.4" y2="196.48" xlink:href="#New_Gradient_Swatch_3"/><linearGradient id="New_Gradient_Swatch_3-30" x1="65.74" y1="14.69" x2="100.76" y2="145.4" xlink:href="#New_Gradient_Swatch_3"/><linearGradient id="New_Gradient_Swatch_3-31" x1="50.64" y1="-34.49" x2="121.96" y2="231.69" xlink:href="#New_Gradient_Swatch_3"/><linearGradient id="New_Gradient_Swatch_3-32" x1="104.9" y1="134.04" x2="116.29" y2="176.55" xlink:href="#New_Gradient_Swatch_3"/><linearGradient id="New_Gradient_Swatch_3-33" x1="94.26" y1="135.22" x2="107.6" y2="185.04" xlink:href="#New_Gradient_Swatch_3"/><linearGradient id="New_Gradient_Swatch_3-34" x1="84.51" y1="135.37" x2="100.89" y2="196.49" xlink:href="#New_Gradient_Swatch_3"/><linearGradient id="New_Gradient_Swatch_3-35" x1="60.15" y1="20.58" x2="96.83" y2="157.48" xlink:href="#New_Gradient_Swatch_3"/><linearGradient id="New_Gradient_Swatch_3-36" x1="63.15" y1="38.84" x2="86.23" y2="124.96" xlink:href="#New_Gradient_Swatch_3"/><linearGradient id="New_Gradient_Swatch_3-37" x1="57.19" y1="52.21" x2="72.3" y2="108.62" xlink:href="#New_Gradient_Swatch_3"/><linearGradient id="New_Gradient_Swatch_3-38" x1="55.72" y1="53.8" x2="69.75" y2="106.18" xlink:href="#New_Gradient_Swatch_3"/><linearGradient id="New_Gradient_Swatch_3-39" x1="59.71" y1="32.93" x2="89.21" y2="143.01" xlink:href="#New_Gradient_Swatch_3"/><linearGradient id="New_Gradient_Swatch_3-40" x1="49.96" y1="58.51" x2="59.58" y2="94.39" xlink:href="#New_Gradient_Swatch_3"/><linearGradient id="New_Gradient_Swatch_3-41" x1="48.45" y1="58.77" x2="57.99" y2="94.34" xlink:href="#New_Gradient_Swatch_3"/><linearGradient id="New_Gradient_Swatch_3-42" x1="47.24" y1="59.86" x2="54.73" y2="87.81" xlink:href="#New_Gradient_Swatch_3"/><linearGradient id="New_Gradient_Swatch_3-43" x1="76.1" y1="143.87" x2="89.08" y2="192.31" xlink:href="#New_Gradient_Swatch_3"/><linearGradient id="New_Gradient_Swatch_3-44" x1="67.45" y1="147.51" x2="79.47" y2="192.38" xlink:href="#New_Gradient_Swatch_3"/><linearGradient id="New_Gradient_Swatch_3-45" x1="60.18" y1="149.82" x2="70.65" y2="188.9" xlink:href="#New_Gradient_Swatch_3"/><linearGradient id="New_Gradient_Swatch_3-46" x1="43.43" y1="60.5" x2="49.04" y2="81.46" xlink:href="#New_Gradient_Swatch_3"/><linearGradient id="New_Gradient_Swatch_3-47" x1="56.79" y1="151.2" x2="63.41" y2="175.91" xlink:href="#New_Gradient_Swatch_3"/><linearGradient id="New_Gradient_Swatch_3-48" x1="35.36" y1="59.45" x2="39.51" y2="74.91" xlink:href="#New_Gradient_Swatch_3"/><linearGradient id="New_Gradient_Swatch_3-49" x1="34.11" y1="59.11" x2="38.55" y2="75.68" xlink:href="#New_Gradient_Swatch_3"/><linearGradient id="New_Gradient_Swatch_3-50" x1="40.76" y1="60.61" x2="44.69" y2="75.25" xlink:href="#New_Gradient_Swatch_3"/><linearGradient id="New_Gradient_Swatch_3-51" x1="44.63" y1="148.62" x2="48.67" y2="163.69" xlink:href="#New_Gradient_Swatch_3"/><linearGradient id="New_Gradient_Swatch_3-52" x1="29.02" y1="57.56" x2="35.09" y2="80.21" xlink:href="#New_Gradient_Swatch_3"/><linearGradient id="New_Gradient_Swatch_3-53" x1="28.11" y1="56.8" x2="32.5" y2="73.18" xlink:href="#New_Gradient_Swatch_3"/><linearGradient id="New_Gradient_Swatch_3-54" x1="37.88" y1="59.37" x2="48.13" y2="97.62" xlink:href="#New_Gradient_Swatch_3"/><linearGradient id="New_Gradient_Swatch_3-55" x1="46.76" y1="150.08" x2="57.71" y2="190.94" xlink:href="#New_Gradient_Swatch_3"/><linearGradient id="New_Gradient_Swatch_3-56" x1="42.6" y1="149.11" x2="53.45" y2="189.59" xlink:href="#New_Gradient_Swatch_3"/><linearGradient id="New_Gradient_Swatch_3-57" x1="26.22" y1="55.94" x2="31.8" y2="76.76" xlink:href="#New_Gradient_Swatch_3"/><linearGradient id="New_Gradient_Swatch_3-58" x1="40.61" y1="147.19" x2="48.09" y2="175.1" xlink:href="#New_Gradient_Swatch_3"/><linearGradient id="New_Gradient_Swatch_3-59" x1="23.73" y1="54.33" x2="32.73" y2="87.91" xlink:href="#New_Gradient_Swatch_3"/><linearGradient id="New_Gradient_Swatch_3-60" x1="38.35" y1="144.98" x2="47.67" y2="179.74" xlink:href="#New_Gradient_Swatch_3"/><linearGradient id="New_Gradient_Swatch_3-61" x1="25.09" y1="55.14" x2="30.99" y2="77.18" xlink:href="#New_Gradient_Swatch_3"/><linearGradient id="New_Gradient_Swatch_3-62" x1="23.12" y1="51.37" x2="32.08" y2="84.82" xlink:href="#New_Gradient_Swatch_3"/><linearGradient id="New_Gradient_Swatch_3-63" x1="23.42" y1="51.64" x2="34.28" y2="92.16" xlink:href="#New_Gradient_Swatch_3"/><linearGradient id="New_Gradient_Swatch_3-64" x1="23.33" y1="50.26" x2="32.57" y2="84.73" xlink:href="#New_Gradient_Swatch_3"/><linearGradient id="New_Gradient_Swatch_3-65" x1="39.97" y1="148.77" x2="54.96" y2="204.71" xlink:href="#New_Gradient_Swatch_3"/><linearGradient id="New_Gradient_Swatch_3-66" x1="39.14" y1="147.69" x2="57.1" y2="214.7" xlink:href="#New_Gradient_Swatch_3"/><linearGradient id="New_Gradient_Swatch_3-67" x1="39.19" y1="143.66" x2="54.96" y2="202.48" xlink:href="#New_Gradient_Swatch_3"/><linearGradient id="New_Gradient_Swatch_3-68" x1="24.07" y1="48.82" x2="34.11" y2="86.29" xlink:href="#New_Gradient_Swatch_3"/><linearGradient id="New_Gradient_Swatch_3-69" x1="24.54" y1="48.66" x2="35.8" y2="90.66" xlink:href="#New_Gradient_Swatch_3"/><linearGradient id="New_Gradient_Swatch_3-70" x1="27.22" y1="44.89" x2="39.03" y2="88.98" xlink:href="#New_Gradient_Swatch_3"/><linearGradient id="New_Gradient_Swatch_3-71" x1="27.94" y1="44" x2="39.77" y2="88.12" xlink:href="#New_Gradient_Swatch_3"/><linearGradient id="New_Gradient_Swatch_3-72" x1="24.81" y1="47.53" x2="35.12" y2="86.01" xlink:href="#New_Gradient_Swatch_3"/><linearGradient id="New_Gradient_Swatch_3-73" x1="31.39" y1="40.51" x2="43.87" y2="87.08" xlink:href="#New_Gradient_Swatch_3"/><linearGradient id="New_Gradient_Swatch_3-74" x1="32.31" y1="39.58" x2="44.69" y2="85.79" xlink:href="#New_Gradient_Swatch_3"/><linearGradient id="New_Gradient_Swatch_3-75" x1="33.33" y1="38.79" x2="46.44" y2="87.71" xlink:href="#New_Gradient_Swatch_3"/><linearGradient id="New_Gradient_Swatch_3-76" x1="41.12" y1="138.92" x2="55.9" y2="194.05" xlink:href="#New_Gradient_Swatch_3"/><linearGradient id="New_Gradient_Swatch_3-77" x1="44.49" y1="133.19" x2="56.39" y2="177.62" xlink:href="#New_Gradient_Swatch_3"/><linearGradient id="New_Gradient_Swatch_3-78" x1="49.13" y1="128.5" x2="59.8" y2="168.31" xlink:href="#New_Gradient_Swatch_3"/><linearGradient id="New_Gradient_Swatch_3-79" x1="36.22" y1="36.2" x2="49.9" y2="87.25" xlink:href="#New_Gradient_Swatch_3"/><linearGradient id="New_Gradient_Swatch_3-80" x1="52.17" y1="126.23" x2="64.92" y2="173.81" xlink:href="#New_Gradient_Swatch_3"/><linearGradient id="New_Gradient_Swatch_3-81" x1="43.9" y1="29.91" x2="57.18" y2="79.47" xlink:href="#New_Gradient_Swatch_3"/><linearGradient id="New_Gradient_Swatch_3-82" x1="45.36" y1="28.71" x2="59.08" y2="79.91" xlink:href="#New_Gradient_Swatch_3"/><linearGradient id="New_Gradient_Swatch_3-83" x1="38.52" y1="34.2" x2="53.08" y2="88.55" xlink:href="#New_Gradient_Swatch_3"/><linearGradient id="New_Gradient_Swatch_3-84" x1="65.74" y1="113.17" x2="84.46" y2="183.03" xlink:href="#New_Gradient_Swatch_3"/><linearGradient id="New_Gradient_Swatch_3-85" x1="52.69" y1="22.11" x2="68.74" y2="82" xlink:href="#New_Gradient_Swatch_3"/><linearGradient id="New_Gradient_Swatch_3-86" x1="53.48" y1="18.25" x2="74.49" y2="96.63" xlink:href="#New_Gradient_Swatch_3"/><linearGradient id="New_Gradient_Swatch_3-87" x1="41.09" y1="32.58" x2="48.98" y2="62.02" xlink:href="#New_Gradient_Swatch_3"/><linearGradient id="New_Gradient_Swatch_3-88" x1="63.85" y1="119.33" x2="71.99" y2="149.74" xlink:href="#New_Gradient_Swatch_3"/><linearGradient id="New_Gradient_Swatch_3-89" x1="71.42" y1="113.72" x2="82.66" y2="155.65" xlink:href="#New_Gradient_Swatch_3"/><linearGradient id="New_Gradient_Swatch_3-90" x1="57.19" y1="13.06" x2="80" y2="98.2" xlink:href="#New_Gradient_Swatch_3"/><linearGradient id="New_Gradient_Swatch_3-91" x1="74.29" y1="105.54" x2="93.21" y2="176.18" xlink:href="#New_Gradient_Swatch_3"/><linearGradient id="New_Gradient_Swatch_3-92" x1="66.36" y1="2.54" x2="90.15" y2="91.32" xlink:href="#New_Gradient_Swatch_3"/><linearGradient id="New_Gradient_Swatch_3-93" x1="82.48" y1="90.42" x2="107.58" y2="184.12" xlink:href="#New_Gradient_Swatch_3"/><linearGradient id="New_Gradient_Swatch_3-94" x1="59.37" y1="7.01" x2="85.85" y2="105.84" xlink:href="#New_Gradient_Swatch_3"/><linearGradient id="New_Gradient_Swatch_3-95" x1="61.32" y1="-55.23" x2="120.65" y2="166.22" xlink:href="#New_Gradient_Swatch_3"/><linearGradient id="New_Gradient_Swatch_3-96" x1="71.77" y1="-23.48" x2="106.81" y2="107.27" xlink:href="#New_Gradient_Swatch_3"/><linearGradient id="New_Gradient_Swatch_3-97" x1="58.67" y1="-79.55" x2="129.15" y2="183.48" xlink:href="#New_Gradient_Swatch_3"/><linearGradient id="New_Gradient_Swatch_3-98" x1="80.88" y1="108.67" x2="92.28" y2="151.22" xlink:href="#New_Gradient_Swatch_3"/><linearGradient id="New_Gradient_Swatch_3-99" x1="89.99" y1="101.76" x2="103.34" y2="151.57" xlink:href="#New_Gradient_Swatch_3"/><linearGradient id="New_Gradient_Swatch_3-100" x1="97.35" y1="92.7" x2="113.74" y2="153.87" xlink:href="#New_Gradient_Swatch_3"/><linearGradient id="New_Gradient_Swatch_3-101" x1="76.06" y1="-34.21" x2="112.74" y2="102.67" xlink:href="#New_Gradient_Swatch_3"/><linearGradient id="New_Gradient_Swatch_3-102" x1="83.77" y1="-12.5" x2="106.82" y2="73.51" xlink:href="#New_Gradient_Swatch_3"/><linearGradient id="New_Gradient_Swatch_3-103" x1="95.99" y1="-2.5" x2="111.08" y2="53.81" xlink:href="#New_Gradient_Swatch_3"/><linearGradient id="New_Gradient_Swatch_3-104" x1="98.29" y1="-1.03" x2="112.34" y2="51.44" xlink:href="#New_Gradient_Swatch_3"/><linearGradient id="New_Gradient_Swatch_3-105" x1="82.17" y1="-25.4" x2="111.62" y2="84.51" xlink:href="#New_Gradient_Swatch_3"/><linearGradient id="New_Gradient_Swatch_3-106" x1="107.54" y1="7.29" x2="117.15" y2="43.17" xlink:href="#New_Gradient_Swatch_3"/><linearGradient id="New_Gradient_Swatch_3-107" x1="109.11" y1="7.27" x2="118.64" y2="42.85" xlink:href="#New_Gradient_Swatch_3"/><linearGradient id="New_Gradient_Swatch_3-108" x1="111.93" y1="12.18" x2="119.42" y2="40.13" xlink:href="#New_Gradient_Swatch_3"/><linearGradient id="New_Gradient_Swatch_3-109" x1="108.43" y1="94.17" x2="121.42" y2="142.65" xlink:href="#New_Gradient_Swatch_3"/><linearGradient id="New_Gradient_Swatch_3-110" x1="117.83" y1="93.36" x2="129.86" y2="138.23" xlink:href="#New_Gradient_Swatch_3"/><linearGradient id="New_Gradient_Swatch_3-111" x1="126.33" y1="95.63" x2="136.79" y2="134.67" xlink:href="#New_Gradient_Swatch_3"/><linearGradient id="New_Gradient_Swatch_3-112" x1="117.21" y1="17.03" x2="122.83" y2="37.99" xlink:href="#New_Gradient_Swatch_3"/><linearGradient id="New_Gradient_Swatch_3-113" x1="132.75" y1="105.56" x2="139.36" y2="130.22" xlink:href="#New_Gradient_Swatch_3"/><linearGradient id="New_Gradient_Swatch_3-114" x1="126.42" y1="22.36" x2="130.58" y2="37.88" xlink:href="#New_Gradient_Swatch_3"/><linearGradient id="New_Gradient_Swatch_3-115" x1="127.45" y1="21.83" x2="131.9" y2="38.46" xlink:href="#New_Gradient_Swatch_3"/><linearGradient id="New_Gradient_Swatch_3-116" x1="121.21" y1="21.89" x2="125.13" y2="36.53" xlink:href="#New_Gradient_Swatch_3"/><linearGradient id="New_Gradient_Swatch_3-117" x1="146.94" y1="115.68" x2="150.97" y2="130.75" xlink:href="#New_Gradient_Swatch_3"/><linearGradient id="New_Gradient_Swatch_3-118" x1="131.25" y1="18.6" x2="137.34" y2="41.31" xlink:href="#New_Gradient_Swatch_3"/><linearGradient id="New_Gradient_Swatch_3-119" x1="133.48" y1="24.28" x2="137.89" y2="40.73" xlink:href="#New_Gradient_Swatch_3"/><linearGradient id="New_Gradient_Swatch_3-120" x1="119.12" y1="4.56" x2="129.37" y2="42.81" xlink:href="#New_Gradient_Swatch_3"/><linearGradient id="New_Gradient_Swatch_3-121" x1="139.37" y1="93.94" x2="150.32" y2="134.8" xlink:href="#New_Gradient_Swatch_3"/><linearGradient id="New_Gradient_Swatch_3-122" x1="143.6" y1="95.17" x2="154.46" y2="135.7" xlink:href="#New_Gradient_Swatch_3"/><linearGradient id="New_Gradient_Swatch_3-123" x1="134.46" y1="21.72" x2="140.03" y2="42.52" xlink:href="#New_Gradient_Swatch_3"/><linearGradient id="New_Gradient_Swatch_3-124" x1="148.26" y1="107.06" x2="155.72" y2="134.92" xlink:href="#New_Gradient_Swatch_3"/><linearGradient id="New_Gradient_Swatch_3-125" x1="134.25" y1="13.28" x2="143.25" y2="46.86" xlink:href="#New_Gradient_Swatch_3"/><linearGradient id="New_Gradient_Swatch_3-126" x1="149.08" y1="103.89" x2="158.38" y2="138.6" xlink:href="#New_Gradient_Swatch_3"/><linearGradient id="New_Gradient_Swatch_3-127" x1="135.33" y1="21.55" x2="141.23" y2="43.59" xlink:href="#New_Gradient_Swatch_3"/><linearGradient id="New_Gradient_Swatch_3-128" x1="134.89" y1="16.34" x2="143.85" y2="49.79" xlink:href="#New_Gradient_Swatch_3"/><linearGradient id="New_Gradient_Swatch_3-129" x1="133.11" y1="10.56" x2="143.95" y2="51.02" xlink:href="#New_Gradient_Swatch_3"/><linearGradient id="New_Gradient_Swatch_3-130" x1="134.46" y1="16.65" x2="143.7" y2="51.12" xlink:href="#New_Gradient_Swatch_3"/><linearGradient id="New_Gradient_Swatch_3-131" x1="142.98" y1="83.4" x2="157.97" y2="139.33" xlink:href="#New_Gradient_Swatch_3"/><linearGradient id="New_Gradient_Swatch_3-132" x1="141.48" y1="75.76" x2="159.43" y2="142.77" xlink:href="#New_Gradient_Swatch_3"/><linearGradient id="New_Gradient_Swatch_3-133" x1="92.64" y1="120.43" x2="104.67" y2="165.31" xlink:href="#New_Gradient_Swatch_3"/><linearGradient id="New_Gradient_Swatch_3-134" x1="92.64" y1="120.41" x2="104.68" y2="165.34" xlink:href="#New_Gradient_Swatch_3"/><linearGradient id="New_Gradient_Swatch_3-135" x1="-184.88" y1="507.81" x2="-184.88" y2="467.13" gradientTransform="translate(471.6 -227.73) rotate(25.29)" xlink:href="#New_Gradient_Swatch_3"/><radialGradient id="radial-gradient-2" cx="33.79" cy="-1222.38" r="90.39" gradientTransform="translate(57.48 348.58) scale(0.81 0.25)" gradientUnits="userSpaceOnUse"><stop offset="0.76"/><stop offset="0.79" stop-opacity="0.77"/><stop offset="1" stop-opacity="0"/></radialGradient><linearGradient id="New_Gradient_Swatch_5-3" x1="-32.32" y1="120.29" x2="119.11" y2="120.29" xlink:href="#New_Gradient_Swatch_5"/><linearGradient id="New_Gradient_Swatch_5-4" x1="24.79" y1="113.38" x2="164.03" y2="113.38" gradientTransform="translate(1 -0.82) rotate(0.5)" xlink:href="#New_Gradient_Swatch_5"/><linearGradient id="New_Gradient_Swatch_3-138" x1="140.19" y1="61.54" x2="155.95" y2="120.36" xlink:href="#New_Gradient_Swatch_3"/><linearGradient id="New_Gradient_Swatch_3-139" x1="130.14" y1="-8.91" x2="140.17" y2="28.51" xlink:href="#New_Gradient_Swatch_3"/><linearGradient id="New_Gradient_Swatch_3-140" x1="128.7" y1="-12.37" x2="139.95" y2="29.63" xlink:href="#New_Gradient_Swatch_3"/><linearGradient id="New_Gradient_Swatch_3-141" x1="125.57" y1="-10.29" x2="137.4" y2="33.86" xlink:href="#New_Gradient_Swatch_3"/><linearGradient id="New_Gradient_Swatch_3-142" x1="124.86" y1="-9.33" x2="136.67" y2="34.75" xlink:href="#New_Gradient_Swatch_3"/><linearGradient id="New_Gradient_Swatch_3-143" x1="129.17" y1="-8.47" x2="139.48" y2="30.01" xlink:href="#New_Gradient_Swatch_3"/><linearGradient id="New_Gradient_Swatch_3-144" x1="120.89" y1="-7.8" x2="133.37" y2="38.76" xlink:href="#New_Gradient_Swatch_3"/><linearGradient id="New_Gradient_Swatch_3-145" x1="120.04" y1="-6.6" x2="132.43" y2="39.61" xlink:href="#New_Gradient_Swatch_3"/><linearGradient id="New_Gradient_Swatch_3-146" x1="118.44" y1="-7.99" x2="131.57" y2="40.99" xlink:href="#New_Gradient_Swatch_3"/><linearGradient id="New_Gradient_Swatch_3-147" x1="139.02" y1="69.15" x2="153.81" y2="124.32" xlink:href="#New_Gradient_Swatch_3"/><linearGradient id="New_Gradient_Swatch_3-148" x1="137.93" y1="83.36" x2="149.83" y2="127.76" xlink:href="#New_Gradient_Swatch_3"/><linearGradient id="New_Gradient_Swatch_3-149" x1="134.25" y1="91.65" x2="144.92" y2="131.46" xlink:href="#New_Gradient_Swatch_3"/><linearGradient id="New_Gradient_Swatch_3-150" x1="115.13" y1="-6.97" x2="128.79" y2="44.01" xlink:href="#New_Gradient_Swatch_3"/><linearGradient id="New_Gradient_Swatch_3-151" x1="129.58" y1="87.81" x2="142.33" y2="135.4" xlink:href="#New_Gradient_Swatch_3"/><linearGradient id="New_Gradient_Swatch_3-152" x1="107.75" y1="0.43" x2="121.03" y2="49.99" xlink:href="#New_Gradient_Swatch_3"/><linearGradient id="New_Gradient_Swatch_3-153" x1="105.95" y1="0.35" x2="119.67" y2="51.55" xlink:href="#New_Gradient_Swatch_3"/><linearGradient id="New_Gradient_Swatch_3-154" x1="112.14" y1="-7.56" x2="126.68" y2="46.72" xlink:href="#New_Gradient_Swatch_3"/><linearGradient id="New_Gradient_Swatch_3-155" x1="111.33" y1="83.41" x2="130.02" y2="153.19" xlink:href="#New_Gradient_Swatch_3"/><linearGradient id="New_Gradient_Swatch_3-156" x1="96.77" y1="0.06" x2="112.84" y2="60.03" xlink:href="#New_Gradient_Swatch_3"/><linearGradient id="New_Gradient_Swatch_3-157" x1="92.09" y1="-10.57" x2="113.09" y2="67.82" xlink:href="#New_Gradient_Swatch_3"/><linearGradient id="New_Gradient_Swatch_3-158" x1="114.8" y1="13.62" x2="122.68" y2="43.02" xlink:href="#New_Gradient_Swatch_3"/><linearGradient id="New_Gradient_Swatch_3-159" x1="121.52" y1="108.19" x2="129.67" y2="138.63" xlink:href="#New_Gradient_Swatch_3"/><linearGradient id="New_Gradient_Swatch_3-160" x1="111.52" y1="104.77" x2="122.76" y2="146.7" xlink:href="#New_Gradient_Swatch_3"/><linearGradient id="New_Gradient_Swatch_3-161" x1="86.97" y1="-10.69" x2="109.78" y2="74.44" xlink:href="#New_Gradient_Swatch_3"/><linearGradient id="New_Gradient_Swatch_3-162" x1="102.61" y1="90.37" x2="121.53" y2="161" xlink:href="#New_Gradient_Swatch_3"/><linearGradient id="New_Gradient_Swatch_3-163" x1="77.02" y1="-3.03" x2="100.81" y2="85.75" xlink:href="#New_Gradient_Swatch_3"/><linearGradient id="New_Gradient_Swatch_3-164" x1="89.54" y1="87.31" x2="114.68" y2="181.11" xlink:href="#New_Gradient_Swatch_3"/><linearGradient id="New_Gradient_Swatch_3-165" x1="81.9" y1="-15.42" x2="108.38" y2="83.42" xlink:href="#New_Gradient_Swatch_3"/><linearGradient id="New_Gradient_Swatch_3-166" x1="54.12" y1="-49.56" x2="113.43" y2="171.79" xlink:href="#New_Gradient_Swatch_3"/><linearGradient id="New_Gradient_Swatch_3-167" x1="62.77" y1="-10" x2="97.8" y2="120.71" xlink:href="#New_Gradient_Swatch_3"/><linearGradient id="New_Gradient_Swatch_3-168" x1="47.68" y1="-59.18" x2="119" y2="207" xlink:href="#New_Gradient_Swatch_3"/><linearGradient id="New_Gradient_Swatch_3-169" x1="101.93" y1="109.34" x2="113.33" y2="151.86" xlink:href="#New_Gradient_Swatch_3"/><linearGradient id="New_Gradient_Swatch_3-170" x1="91.29" y1="110.53" x2="104.64" y2="160.34" xlink:href="#New_Gradient_Swatch_3"/><linearGradient id="New_Gradient_Swatch_3-171" x1="81.55" y1="110.68" x2="97.92" y2="171.79" xlink:href="#New_Gradient_Swatch_3"/><linearGradient id="New_Gradient_Swatch_3-172" x1="57.19" y1="-4.12" x2="93.87" y2="132.79" xlink:href="#New_Gradient_Swatch_3"/><linearGradient id="New_Gradient_Swatch_3-173" x1="60.19" y1="14.15" x2="83.27" y2="100.27" xlink:href="#New_Gradient_Swatch_3"/><linearGradient id="New_Gradient_Swatch_3-174" x1="54.23" y1="27.52" x2="69.34" y2="83.92" xlink:href="#New_Gradient_Swatch_3"/><linearGradient id="New_Gradient_Swatch_3-175" x1="52.75" y1="29.11" x2="66.79" y2="81.49" xlink:href="#New_Gradient_Swatch_3"/><linearGradient id="New_Gradient_Swatch_3-176" x1="56.75" y1="8.23" x2="86.24" y2="118.32" xlink:href="#New_Gradient_Swatch_3"/><linearGradient id="New_Gradient_Swatch_3-177" x1="47" y1="33.82" x2="56.61" y2="69.7" xlink:href="#New_Gradient_Swatch_3"/><linearGradient id="New_Gradient_Swatch_3-178" x1="45.49" y1="34.08" x2="55.02" y2="69.65" xlink:href="#New_Gradient_Swatch_3"/><linearGradient id="New_Gradient_Swatch_3-179" x1="44.27" y1="35.16" x2="51.76" y2="63.12" xlink:href="#New_Gradient_Swatch_3"/><linearGradient id="New_Gradient_Swatch_3-180" x1="73.14" y1="119.18" x2="86.11" y2="167.61" xlink:href="#New_Gradient_Swatch_3"/><linearGradient id="New_Gradient_Swatch_3-181" x1="64.49" y1="122.82" x2="76.51" y2="167.69" xlink:href="#New_Gradient_Swatch_3"/><linearGradient id="New_Gradient_Swatch_3-182" x1="57.22" y1="125.13" x2="67.69" y2="164.21" xlink:href="#New_Gradient_Swatch_3"/><linearGradient id="New_Gradient_Swatch_3-183" x1="40.46" y1="35.81" x2="46.08" y2="56.77" xlink:href="#New_Gradient_Swatch_3"/><linearGradient id="New_Gradient_Swatch_3-184" x1="53.83" y1="126.51" x2="60.45" y2="151.22" xlink:href="#New_Gradient_Swatch_3"/><linearGradient id="New_Gradient_Swatch_3-185" x1="32.4" y1="34.75" x2="36.54" y2="50.22" xlink:href="#New_Gradient_Swatch_3"/><linearGradient id="New_Gradient_Swatch_3-186" x1="31.14" y1="34.42" x2="35.58" y2="50.99" xlink:href="#New_Gradient_Swatch_3"/><linearGradient id="New_Gradient_Swatch_3-187" x1="37.8" y1="35.92" x2="41.72" y2="50.56" xlink:href="#New_Gradient_Swatch_3"/><linearGradient id="New_Gradient_Swatch_3-188" x1="41.67" y1="123.93" x2="45.7" y2="138.99" xlink:href="#New_Gradient_Swatch_3"/><linearGradient id="New_Gradient_Swatch_3-189" x1="26.05" y1="32.86" x2="32.13" y2="55.52" xlink:href="#New_Gradient_Swatch_3"/><linearGradient id="New_Gradient_Swatch_3-190" x1="25.14" y1="32.1" x2="29.53" y2="48.49" xlink:href="#New_Gradient_Swatch_3"/><linearGradient id="New_Gradient_Swatch_3-191" x1="34.91" y1="34.68" x2="45.16" y2="72.93" xlink:href="#New_Gradient_Swatch_3"/><linearGradient id="New_Gradient_Swatch_3-192" x1="43.8" y1="125.39" x2="54.74" y2="166.25" xlink:href="#New_Gradient_Swatch_3"/><linearGradient id="New_Gradient_Swatch_3-193" x1="39.64" y1="124.41" x2="50.48" y2="164.9" xlink:href="#New_Gradient_Swatch_3"/><linearGradient id="New_Gradient_Swatch_3-194" x1="23.25" y1="31.25" x2="28.83" y2="52.07" xlink:href="#New_Gradient_Swatch_3"/><linearGradient id="New_Gradient_Swatch_3-195" x1="37.65" y1="122.5" x2="45.13" y2="150.4" xlink:href="#New_Gradient_Swatch_3"/><linearGradient id="New_Gradient_Swatch_3-196" x1="20.76" y1="29.63" x2="29.76" y2="63.22" xlink:href="#New_Gradient_Swatch_3"/><linearGradient id="New_Gradient_Swatch_3-197" x1="35.39" y1="120.28" x2="44.7" y2="155.04" xlink:href="#New_Gradient_Swatch_3"/><linearGradient id="New_Gradient_Swatch_3-198" x1="22.12" y1="30.45" x2="28.03" y2="52.49" xlink:href="#New_Gradient_Swatch_3"/><linearGradient id="New_Gradient_Swatch_3-199" x1="20.15" y1="26.68" x2="29.12" y2="60.13" xlink:href="#New_Gradient_Swatch_3"/><linearGradient id="New_Gradient_Swatch_3-200" x1="20.46" y1="26.95" x2="31.32" y2="67.47" xlink:href="#New_Gradient_Swatch_3"/><linearGradient id="New_Gradient_Swatch_3-201" x1="20.37" y1="25.57" x2="29.6" y2="60.04" xlink:href="#New_Gradient_Swatch_3"/><linearGradient id="New_Gradient_Swatch_3-202" x1="37.01" y1="124.08" x2="51.99" y2="180.01" xlink:href="#New_Gradient_Swatch_3"/><linearGradient id="New_Gradient_Swatch_3-203" x1="36.18" y1="123" x2="54.14" y2="190.01" xlink:href="#New_Gradient_Swatch_3"/><linearGradient id="New_Gradient_Swatch_3-204" x1="36.23" y1="118.97" x2="51.99" y2="177.79" xlink:href="#New_Gradient_Swatch_3"/><linearGradient id="New_Gradient_Swatch_3-205" x1="21.1" y1="24.12" x2="31.15" y2="61.59" xlink:href="#New_Gradient_Swatch_3"/><linearGradient id="New_Gradient_Swatch_3-206" x1="21.58" y1="23.97" x2="32.83" y2="65.97" xlink:href="#New_Gradient_Swatch_3"/><linearGradient id="New_Gradient_Swatch_3-207" x1="24.25" y1="20.19" x2="36.07" y2="64.29" xlink:href="#New_Gradient_Swatch_3"/><linearGradient id="New_Gradient_Swatch_3-208" x1="24.98" y1="19.3" x2="36.8" y2="63.42" xlink:href="#New_Gradient_Swatch_3"/><linearGradient id="New_Gradient_Swatch_3-209" x1="21.84" y1="22.84" x2="32.15" y2="61.31" xlink:href="#New_Gradient_Swatch_3"/><linearGradient id="New_Gradient_Swatch_3-210" x1="28.42" y1="15.82" x2="40.9" y2="62.38" xlink:href="#New_Gradient_Swatch_3"/><linearGradient id="New_Gradient_Swatch_3-211" x1="29.35" y1="14.88" x2="41.73" y2="61.1" xlink:href="#New_Gradient_Swatch_3"/><linearGradient id="New_Gradient_Swatch_3-212" x1="30.36" y1="14.1" x2="43.47" y2="63.02" xlink:href="#New_Gradient_Swatch_3"/><linearGradient id="New_Gradient_Swatch_3-213" x1="38.16" y1="114.22" x2="52.93" y2="169.36" xlink:href="#New_Gradient_Swatch_3"/><linearGradient id="New_Gradient_Swatch_3-214" x1="41.52" y1="108.49" x2="53.43" y2="152.92" xlink:href="#New_Gradient_Swatch_3"/><linearGradient id="New_Gradient_Swatch_3-215" x1="46.17" y1="103.8" x2="56.84" y2="143.62" xlink:href="#New_Gradient_Swatch_3"/><linearGradient id="New_Gradient_Swatch_3-216" x1="33.26" y1="11.51" x2="46.93" y2="62.55" xlink:href="#New_Gradient_Swatch_3"/><linearGradient id="New_Gradient_Swatch_3-217" x1="49.2" y1="101.54" x2="61.95" y2="149.12" xlink:href="#New_Gradient_Swatch_3"/><linearGradient id="New_Gradient_Swatch_3-218" x1="40.93" y1="5.22" x2="54.21" y2="54.78" xlink:href="#New_Gradient_Swatch_3"/><linearGradient id="New_Gradient_Swatch_3-219" x1="42.39" y1="4.01" x2="56.11" y2="55.22" xlink:href="#New_Gradient_Swatch_3"/><linearGradient id="New_Gradient_Swatch_3-220" x1="35.55" y1="9.51" x2="50.11" y2="63.85" xlink:href="#New_Gradient_Swatch_3"/><linearGradient id="New_Gradient_Swatch_3-221" x1="62.78" y1="88.47" x2="81.5" y2="158.33" xlink:href="#New_Gradient_Swatch_3"/><linearGradient id="New_Gradient_Swatch_3-222" x1="49.72" y1="-2.58" x2="65.77" y2="57.31" xlink:href="#New_Gradient_Swatch_3"/><linearGradient id="New_Gradient_Swatch_3-223" x1="50.52" y1="-6.45" x2="71.52" y2="71.94" xlink:href="#New_Gradient_Swatch_3"/><linearGradient id="New_Gradient_Swatch_3-224" x1="38.13" y1="7.89" x2="46.02" y2="37.32" xlink:href="#New_Gradient_Swatch_3"/><linearGradient id="New_Gradient_Swatch_3-225" x1="60.88" y1="94.64" x2="69.03" y2="125.05" xlink:href="#New_Gradient_Swatch_3"/><linearGradient id="New_Gradient_Swatch_3-226" x1="68.46" y1="89.03" x2="79.69" y2="130.96" xlink:href="#New_Gradient_Swatch_3"/><linearGradient id="New_Gradient_Swatch_3-227" x1="54.22" y1="-11.63" x2="77.03" y2="73.5" xlink:href="#New_Gradient_Swatch_3"/><linearGradient id="New_Gradient_Swatch_3-228" x1="71.32" y1="80.85" x2="90.25" y2="151.48" xlink:href="#New_Gradient_Swatch_3"/><linearGradient id="New_Gradient_Swatch_3-229" x1="63.39" y1="-22.16" x2="87.18" y2="66.62" xlink:href="#New_Gradient_Swatch_3"/><linearGradient id="New_Gradient_Swatch_3-230" x1="79.51" y1="65.72" x2="104.62" y2="159.42" xlink:href="#New_Gradient_Swatch_3"/><linearGradient id="New_Gradient_Swatch_3-231" x1="56.4" y1="-17.68" x2="82.88" y2="81.15" xlink:href="#New_Gradient_Swatch_3"/><linearGradient id="New_Gradient_Swatch_3-232" x1="58.35" y1="-79.92" x2="117.69" y2="141.53" xlink:href="#New_Gradient_Swatch_3"/><linearGradient id="New_Gradient_Swatch_3-233" x1="68.81" y1="-48.17" x2="103.84" y2="82.57" xlink:href="#New_Gradient_Swatch_3"/><linearGradient id="New_Gradient_Swatch_3-234" x1="55.71" y1="-104.24" x2="126.19" y2="158.79" xlink:href="#New_Gradient_Swatch_3"/><linearGradient id="New_Gradient_Swatch_3-235" x1="77.92" y1="83.98" x2="89.32" y2="126.53" xlink:href="#New_Gradient_Swatch_3"/><linearGradient id="New_Gradient_Swatch_3-236" x1="87.02" y1="77.06" x2="100.37" y2="126.88" xlink:href="#New_Gradient_Swatch_3"/><linearGradient id="New_Gradient_Swatch_3-237" x1="94.38" y1="68.01" x2="110.77" y2="129.17" xlink:href="#New_Gradient_Swatch_3"/><linearGradient id="New_Gradient_Swatch_3-238" x1="73.1" y1="-58.9" x2="109.77" y2="77.97" xlink:href="#New_Gradient_Swatch_3"/><linearGradient id="New_Gradient_Swatch_3-239" x1="80.8" y1="-37.2" x2="103.85" y2="48.82" xlink:href="#New_Gradient_Swatch_3"/><linearGradient id="New_Gradient_Swatch_3-240" x1="93.03" y1="-27.19" x2="108.12" y2="29.11" xlink:href="#New_Gradient_Swatch_3"/><linearGradient id="New_Gradient_Swatch_3-241" x1="95.32" y1="-25.72" x2="109.38" y2="26.74" xlink:href="#New_Gradient_Swatch_3"/><linearGradient id="New_Gradient_Swatch_3-242" x1="79.21" y1="-50.09" x2="108.66" y2="59.82" xlink:href="#New_Gradient_Swatch_3"/><linearGradient id="New_Gradient_Swatch_3-243" x1="104.57" y1="-17.4" x2="114.18" y2="18.48" xlink:href="#New_Gradient_Swatch_3"/><linearGradient id="New_Gradient_Swatch_3-244" x1="106.14" y1="-17.42" x2="115.67" y2="18.15" xlink:href="#New_Gradient_Swatch_3"/><linearGradient id="New_Gradient_Swatch_3-245" x1="108.96" y1="-12.52" x2="116.46" y2="15.44" xlink:href="#New_Gradient_Swatch_3"/><linearGradient id="New_Gradient_Swatch_3-246" x1="105.46" y1="69.48" x2="118.45" y2="117.95" xlink:href="#New_Gradient_Swatch_3"/><linearGradient id="New_Gradient_Swatch_3-247" x1="114.87" y1="68.66" x2="126.89" y2="113.54" xlink:href="#New_Gradient_Swatch_3"/><linearGradient id="New_Gradient_Swatch_3-248" x1="123.37" y1="70.94" x2="133.83" y2="109.97" xlink:href="#New_Gradient_Swatch_3"/><linearGradient id="New_Gradient_Swatch_3-249" x1="114.25" y1="-7.66" x2="119.86" y2="13.3" xlink:href="#New_Gradient_Swatch_3"/><linearGradient id="New_Gradient_Swatch_3-250" x1="129.79" y1="80.87" x2="136.4" y2="105.52" xlink:href="#New_Gradient_Swatch_3"/><linearGradient id="New_Gradient_Swatch_3-251" x1="123.46" y1="-2.33" x2="127.61" y2="13.19" xlink:href="#New_Gradient_Swatch_3"/><linearGradient id="New_Gradient_Swatch_3-252" x1="124.48" y1="-2.86" x2="128.94" y2="13.76" xlink:href="#New_Gradient_Swatch_3"/><linearGradient id="New_Gradient_Swatch_3-253" x1="118.24" y1="-2.8" x2="122.17" y2="11.84" xlink:href="#New_Gradient_Swatch_3"/><linearGradient id="New_Gradient_Swatch_3-254" x1="143.97" y1="90.99" x2="148.01" y2="106.06" xlink:href="#New_Gradient_Swatch_3"/><linearGradient id="New_Gradient_Swatch_3-255" x1="128.29" y1="-6.1" x2="134.37" y2="16.61" xlink:href="#New_Gradient_Swatch_3"/><linearGradient id="New_Gradient_Swatch_3-256" x1="130.52" y1="-0.41" x2="134.92" y2="16.04" xlink:href="#New_Gradient_Swatch_3"/><linearGradient id="New_Gradient_Swatch_3-257" x1="116.15" y1="-20.13" x2="126.4" y2="18.12" xlink:href="#New_Gradient_Swatch_3"/><linearGradient id="New_Gradient_Swatch_3-258" x1="136.41" y1="69.25" x2="147.36" y2="110.1" xlink:href="#New_Gradient_Swatch_3"/><linearGradient id="New_Gradient_Swatch_3-259" x1="140.64" y1="70.48" x2="151.49" y2="111.01" xlink:href="#New_Gradient_Swatch_3"/><linearGradient id="New_Gradient_Swatch_3-260" x1="131.49" y1="-2.98" x2="137.07" y2="17.83" xlink:href="#New_Gradient_Swatch_3"/><linearGradient id="New_Gradient_Swatch_3-261" x1="145.29" y1="82.37" x2="152.76" y2="110.22" xlink:href="#New_Gradient_Swatch_3"/><linearGradient id="New_Gradient_Swatch_3-262" x1="131.29" y1="-11.42" x2="140.28" y2="22.17" xlink:href="#New_Gradient_Swatch_3"/><linearGradient id="New_Gradient_Swatch_3-263" x1="146.11" y1="79.2" x2="155.41" y2="113.9" xlink:href="#New_Gradient_Swatch_3"/><linearGradient id="New_Gradient_Swatch_3-264" x1="132.36" y1="-3.15" x2="138.27" y2="18.89" xlink:href="#New_Gradient_Swatch_3"/><linearGradient id="New_Gradient_Swatch_3-265" x1="131.92" y1="-8.35" x2="140.89" y2="25.1" xlink:href="#New_Gradient_Swatch_3"/><linearGradient id="New_Gradient_Swatch_3-266" x1="130.14" y1="-14.14" x2="140.99" y2="26.33" xlink:href="#New_Gradient_Swatch_3"/><linearGradient id="New_Gradient_Swatch_3-267" x1="131.49" y1="-8.05" x2="140.73" y2="26.42" xlink:href="#New_Gradient_Swatch_3"/><linearGradient id="New_Gradient_Swatch_3-268" x1="140.02" y1="58.7" x2="155.01" y2="114.64" xlink:href="#New_Gradient_Swatch_3"/><linearGradient id="New_Gradient_Swatch_3-269" x1="138.51" y1="51.07" x2="156.47" y2="118.08" xlink:href="#New_Gradient_Swatch_3"/><linearGradient id="New_Gradient_Swatch_3-270" x1="89.68" y1="95.74" x2="101.7" y2="140.62" xlink:href="#New_Gradient_Swatch_3"/><linearGradient id="New_Gradient_Swatch_3-271" x1="89.67" y1="95.72" x2="101.71" y2="140.64" xlink:href="#New_Gradient_Swatch_3"/><linearGradient id="New_Gradient_Swatch_3-272" x1="55.9" y1="113.08" x2="126.62" y2="113.08" xlink:href="#New_Gradient_Swatch_3"/><linearGradient id="New_Gradient_Swatch_3-273" x1="91.13" y1="107.76" x2="130.65" y2="107.76" xlink:href="#New_Gradient_Swatch_3"/></defs><g class="cls-1"><g id="Layer_1" data-name="Layer 1"><rect class="cls-2" x="5.14" y="40.45" width="153" height="62.83" rx="10"/><ellipse class="cls-3" cx="83.22" cy="74.3" rx="83.22" ry="24.74"/><path class="cls-4" d="M167,137.56v.05c.16-11.52-27.36-21.11-63.8-21.81-38.32-.73-72,8.66-75.2,21a8.28,8.28,0,0,0-.24,2l.12,13.8c.05,5.88,7.31,11.24,19.25,15.17,1.74.56,3.58,1.1,5.5,1.61,1.51.4,3.08.77,4.7,1.13q2.11.45,4.35.87c1.36.26,2.75.49,4.17.71s2.68.4,4.06.58,2.63.33,4,.48,2.66.27,4,.38,2.71.22,4.08.31,2.75.17,4.15.22,2.84.12,4.27.16l1.27,0c1,0,2.09,0,3.13,0,1.5,0,3,0,4.48,0s3.12-.06,4.67-.12c1.74-.07,3.46-.15,5.17-.26q3.47-.21,6.83-.53a159,159,0,0,0,25.19-4.33c2.38-.64,4.64-1.32,6.76-2.05q2.31-.8,4.38-1.66c1.16-.48,2.26-1,3.29-1.48s1.79-.91,2.6-1.38,1.47-.89,2.14-1.34,1.22-.86,1.78-1.3,1-.87,1.47-1.31a16.09,16.09,0,0,0,1.21-1.3,14.08,14.08,0,0,0,1-1.34,12.47,12.47,0,0,0,.73-1.4,8.32,8.32,0,0,0,.39-1.16c0-.1,0-.2.08-.3a7.32,7.32,0,0,0,.17-1.53v-.13Zm-.17,1.54c0,.1,0,0,0-.11A.37.37,0,0,1,166.82,139.1Z" transform="translate(-14.84 -91.07)"/><ellipse class="cls-5" cx="97.37" cy="138.08" rx="69.62" ry="22.3" transform="translate(-16.05 -90.21) rotate(-0.5)"/><path class="cls-6" d="M159.63,139.26l-3.84-.07c-.14.38-.23.76-.41,1.15l3.81.14a11.13,11.13,0,0,0,.44-1.22" transform="translate(-14.84 -91.07)"/><polyline class="cls-7" points="140.36 49.62 140.27 49.78 144.07 49.96 144.16 49.79 140.36 49.62"/><polyline class="cls-8" points="140.1 50.11 139.85 50.48 143.62 50.71 143.88 50.31 140.1 50.11"/><polyline class="cls-9" points="137.43 53.16 137.01 53.53 140.59 53.96 141.04 53.57 137.43 53.16"/><polyline class="cls-10" points="136.68 53.78 136.21 54.14 139.74 54.61 140.25 54.23 136.68 53.78"/><polyline class="cls-11" points="139.62 50.83 139.54 50.95 143.29 51.21 143.38 51.08 139.62 50.83"/><polyline class="cls-12" points="132.96 56.2 132.69 56.34 135.99 56.95 136.28 56.8 132.96 56.2"/><polyline class="cls-13" points="132.15 56.62 131.51 56.95 134.73 57.6 135.41 57.25 132.15 56.62"/><polyline class="cls-14" points="130.89 57.24 130.67 57.35 133.84 58.03 134.08 57.91 130.89 57.24"/><path class="cls-15" d="M154.11,142.36a14.15,14.15,0,0,1-1.47,1.56l3.63.39a17.25,17.25,0,0,0,1.57-1.67l-3.73-.28" transform="translate(-14.84 -91.07)"/><path class="cls-16" d="M150.62,145.53l-1.12.74c-.37.24-.81.48-1.22.72l3.35.59c.43-.26.9-.51,1.3-.77l1.19-.79-3.5-.49" transform="translate(-14.84 -91.07)"/><path class="cls-17" d="M145.51,148.41c-.66.33-1.41.64-2.13,1l3,.74c.78-.33,1.57-.66,2.28-1l-3.17-.69" transform="translate(-14.84 -91.07)"/><polyline class="cls-18" points="127.84 58.57 127.5 58.7 130.46 59.47 130.81 59.33 127.84 58.57"/><path class="cls-19" d="M141.68,150l-.79.3,2.86.8c.3-.1.57-.2.84-.31l-2.91-.79" transform="translate(-14.84 -91.07)"/><polyline class="cls-20" points="119.78 61.21 118.85 61.46 121.24 62.41 122.24 62.15 119.78 61.21"/><polyline class="cls-21" points="118.19 61.64 117.22 61.87 119.5 62.85 120.53 62.6 118.19 61.64"/><polyline class="cls-22" points="125.31 59.51 125.04 59.6 127.83 60.43 128.12 60.33 125.31 59.51"/><path class="cls-23" d="M126.09,154.23l-.46.08,1.87,1.07.48-.09-1.89-1.06" transform="translate(-14.84 -91.07)"/><polyline class="cls-24" points="109.89 63.4 108.83 63.59 110.56 64.68 111.69 64.48 109.89 63.4"/><polyline class="cls-25" points="107.85 63.75 107.49 63.81 109.13 64.91 109.52 64.85 107.85 63.75"/><polyline class="cls-26" points="124.29 59.86 122.48 60.44 120.57 61 123.08 61.92 125.1 61.33 127.03 60.71 124.29 59.86"/><path class="cls-27" d="M131.19,153.15c-1.39.32-2.8.63-4.27.91l2,1.06c1.56-.3,3.06-.63,4.54-1l-2.22-1" transform="translate(-14.84 -91.07)"/><path class="cls-28" d="M122.33,154.88l-1.63.25-1.66.23,1.43,1.14,1.77-.25c.59-.08,1.16-.18,1.73-.27l-1.64-1.1" transform="translate(-14.84 -91.07)"/><polyline class="cls-29" points="103.16 64.43 102.68 64.49 104.01 65.64 104.52 65.58 103.16 64.43"/><path class="cls-30" d="M116.56,155.67l-1.13.14,1.19,1.17,1.2-.15-1.26-1.16" transform="translate(-14.84 -91.07)"/><polyline class="cls-31" points="92.18 65.46 90.99 65.53 91.55 66.75 92.81 66.68 92.18 65.46"/><path class="cls-32" d="M105,156.64c-.4,0-.79.05-1.19.06l.42,1.22,1.26-.06-.49-1.22" transform="translate(-14.84 -91.07)"/><polyline class="cls-33" points="99.55 64.85 99.16 64.89 100.26 66.06 100.67 66.02 99.55 64.85"/><polyline class="cls-34" points="81.85 65.79 81.33 65.8 81.25 67.03 81.79 67.03 81.85 65.79"/><polyline class="cls-35" points="80.31 65.79 79.11 65.78 78.88 67.02 80.15 67.03 80.31 65.79"/><polyline class="cls-36" points="78.03 65.77 77.63 65.77 77.31 67 77.73 67 78.03 65.77"/><path class="cls-37" d="M113,156.07l-2.46.21-2.48.19.69,1.2c.89-.06,1.78-.11,2.65-.19l2.63-.23-1-1.18" transform="translate(-14.84 -91.07)"/><path class="cls-38" d="M102.72,156.74l-1.26,0-1.27,0c-.84,0-1.69.05-2.53,0v1.24c.9,0,1.8,0,2.7,0l1.35,0,1.35-.05-.35-1.23" transform="translate(-14.84 -91.07)"/><path class="cls-39" d="M88.9,156.73,88.35,158c1.26.06,2.53.08,3.8.12l.32-1.24c-1.19,0-2.38-.05-3.57-.1" transform="translate(-14.84 -91.07)"/><polyline class="cls-40" points="72.46 65.59 71.8 66.81 72.34 66.83 72.96 65.61 72.46 65.59"/><polyline class="cls-41" points="70.28 65.47 69.47 66.69 70.72 66.76 71.45 65.54 70.28 65.47"/><polyline class="cls-42" points="60.85 64.63 59.42 65.79 60.61 65.93 61.97 64.76 60.85 64.63"/><polyline class="cls-43" points="58.95 64.39 57.41 65.54 58.58 65.69 60.05 64.54 58.95 64.39"/><polyline class="cls-44" points="68.82 65.38 67.93 66.59 68.34 66.62 69.22 65.41 68.82 65.38"/><polyline class="cls-45" points="52.19 63.32 50.19 64.39 50.65 64.48 52.62 63.4 52.19 63.32"/><polyline class="cls-46" points="50.3 62.96 48.18 64.01 49.26 64.21 51.31 63.15 50.3 62.96"/><polyline class="cls-47" points="49.08 62.7 46.88 63.73 47.23 63.8 49.41 62.77 49.08 62.7"/><path class="cls-48" d="M77.76,155.94l-1.28,1.17c1.7.17,3.42.34,5.17.46l1-1.2c-1.64-.12-3.25-.27-4.86-.43" transform="translate(-14.84 -91.07)"/><path class="cls-49" d="M68.3,154.62l-1.91,1.09c.79.13,1.56.27,2.37.39l2.43.37,1.62-1.14L70.53,155c-.76-.11-1.48-.25-2.23-.37" transform="translate(-14.84 -91.07)"/><path class="cls-50" d="M61,153.1l-2.4,1c1,.24,2,.49,3.08.71l2.2-1c-1-.21-1.93-.44-2.88-.67" transform="translate(-14.84 -91.07)"/><polyline class="cls-51" points="44.94 61.72 42.46 62.68 42.88 62.79 45.33 61.82 44.94 61.72"/><path class="cls-52" d="M58.1,152.33l-2.59.94,1,.26,2.52-.95-.89-.25" transform="translate(-14.84 -91.07)"/><polyline class="cls-53" points="36.53 59.01 33.5 59.8 34.3 60.11 37.28 59.3 36.53 59.01"/><polyline class="cls-54" points="35.28 58.5 32.18 59.25 32.93 59.58 35.99 58.8 35.28 58.5"/><polyline class="cls-55" points="42.17 60.95 39.52 61.86 39.83 61.95 42.46 61.03 42.17 60.95"/><path class="cls-56" d="M46,147.54l-3.38.62.26.15,3.37-.63-.25-.14" transform="translate(-14.84 -91.07)"/><polyline class="cls-57" points="30.13 55.85 26.68 56.43 27.27 56.79 30.69 56.18 30.13 55.85"/><polyline class="cls-58" points="29.49 55.42 26 55.98 26.18 56.1 29.66 55.54 29.49 55.42"/><polyline class="cls-59" points="37.93 59.55 35 60.38 36.79 61.01 38.68 61.61 41.38 60.71 39.62 60.14 37.93 59.55"/><path class="cls-60" d="M46.75,147.94l-3.33.65c.9.5,1.89,1,2.92,1.44l3.15-.74c-1-.44-1.91-.88-2.74-1.35" transform="translate(-14.84 -91.07)"/><path class="cls-61" d="M42.89,145.45l-3.57.49.72.56.8.55,3.49-.56c-.25-.17-.52-.34-.75-.51l-.69-.53" transform="translate(-14.84 -91.07)"/><polyline class="cls-62" points="27.48 53.9 23.86 54.35 24.04 54.52 27.65 54.05 27.48 53.9"/><path class="cls-63" d="M41.58,144.3l-3.67.41c.13.13.28.26.42.38l3.64-.43c-.13-.12-.28-.24-.39-.36" transform="translate(-14.84 -91.07)"/><polyline class="cls-64" points="24.52 50.17 20.7 50.38 20.89 50.79 24.69 50.55 24.52 50.17"/><path class="cls-65" d="M39.1,140.59l-3.84.17a2.74,2.74,0,0,0,.15.4l3.83-.18a2,2,0,0,1-.14-.39" transform="translate(-14.84 -91.07)"/><polyline class="cls-66" points="26.31 52.78 22.62 53.16 22.74 53.29 26.43 52.9 26.31 52.78"/><polyline class="cls-67" points="23.93 47.09 20.07 47.09 20.06 47.26 23.92 47.25 23.93 47.09"/><polyline class="cls-68" points="24.02 46.37 20.17 46.33 20.1 46.74 23.95 46.76 24.02 46.37"/><polyline class="cls-69" points="24.11 45.9 20.27 45.83 20.24 45.96 24.08 46.03 24.11 45.9"/><path class="cls-70" d="M39.72,142l-3.79.25a9.88,9.88,0,0,0,.54.84l.66.84,3.71-.36-.61-.78a8.77,8.77,0,0,1-.51-.79" transform="translate(-14.84 -91.07)"/><path class="cls-71" d="M38.75,138.63l-3.85,0a4.22,4.22,0,0,0,.07.86L35,140l.12.43,3.84-.14-.11-.4-.05-.41a3.71,3.71,0,0,1-.08-.81" transform="translate(-14.84 -91.07)"/><path class="cls-72" d="M35.55,135.67a12.85,12.85,0,0,0-.44,1.22L39,137c.15-.38.23-.77.42-1.15l-3.82-.15" transform="translate(-14.84 -91.07)"/><polyline class="cls-73" points="20.99 44.05 20.89 44.23 24.7 44.4 24.79 44.24 20.99 44.05"/><polyline class="cls-74" points="21.44 43.31 21.17 43.71 24.96 43.91 25.21 43.53 21.44 43.31"/><polyline class="cls-75" points="24.47 40.06 24.02 40.45 27.63 40.85 28.05 40.49 24.47 40.06"/><polyline class="cls-76" points="25.32 39.41 24.81 39.79 28.38 40.23 28.85 39.88 25.32 39.41"/><polyline class="cls-77" points="21.77 42.81 21.68 42.94 25.43 43.19 25.52 43.07 21.77 42.81"/><polyline class="cls-78" points="29.07 37.07 28.78 37.22 32.09 37.82 32.36 37.68 29.07 37.07"/><polyline class="cls-79" points="30.32 36.41 29.65 36.76 32.91 37.4 33.55 37.07 30.32 36.41"/><polyline class="cls-80" points="31.22 35.99 30.98 36.1 34.16 36.78 34.39 36.67 31.22 35.99"/><path class="cls-81" d="M38.47,131.85a16.16,16.16,0,0,0-1.57,1.67l3.73.28a15.3,15.3,0,0,1,1.48-1.57l-3.64-.38" transform="translate(-14.84 -91.07)"/><path class="cls-82" d="M43.11,128.58c-.43.26-.9.51-1.29.77l-1.2.79,3.5.49,1.12-.74c.37-.25.82-.48,1.22-.72l-3.35-.59" transform="translate(-14.84 -91.07)"/><path class="cls-83" d="M48.34,126.05c-.78.34-1.57.66-2.28,1l3.17.68c.66-.33,1.41-.63,2.13-.94l-3-.75" transform="translate(-14.84 -91.07)"/><polyline class="cls-84" points="34.6 34.55 34.24 34.69 37.22 35.45 37.55 35.32 34.6 34.55"/><path class="cls-85" d="M51,125c-.3.1-.57.21-.84.31l2.91.79c.25-.1.51-.2.79-.29L51,125" transform="translate(-14.84 -91.07)"/><polyline class="cls-86" points="43.82 31.61 42.82 31.87 45.27 32.8 46.21 32.55 43.82 31.61"/><polyline class="cls-87" points="45.55 31.17 44.52 31.42 46.87 32.38 47.84 32.14 45.55 31.17"/><polyline class="cls-88" points="37.22 33.58 36.93 33.69 39.74 34.51 40.02 34.41 37.22 33.58"/><path class="cls-89" d="M67.24,120.78l-.48.08,1.9,1.07.45-.09-1.87-1.06" transform="translate(-14.84 -91.07)"/><polyline class="cls-90" points="54.49 29.34 53.37 29.54 55.17 30.61 56.23 30.43 54.49 29.34"/><polyline class="cls-91" points="55.92 29.11 55.53 29.17 57.2 30.27 57.57 30.21 55.92 29.11"/><polyline class="cls-92" points="41.98 32.1 39.95 32.69 38.02 33.31 40.77 34.16 42.58 33.57 44.48 33.02 41.98 32.1"/><path class="cls-93" d="M65.87,121c-1.56.3-3.06.63-4.54,1l2.22,1c1.39-.32,2.8-.63,4.27-.91l-1.95-1" transform="translate(-14.84 -91.07)"/><path class="cls-94" d="M74.27,119.66l-1.77.25c-.58.08-1.16.18-1.73.27l1.64,1.1L74,121l1.66-.23-1.43-1.14" transform="translate(-14.84 -91.07)"/><polyline class="cls-95" points="61.04 28.38 60.53 28.44 61.89 29.59 62.37 29.53 61.04 28.38"/><path class="cls-96" d="M78.13,119.18l-1.21.14,1.27,1.16,1.12-.13-1.18-1.17" transform="translate(-14.84 -91.07)"/><polyline class="cls-97" points="73.51 27.27 72.25 27.34 72.88 28.55 74.07 28.49 73.51 27.27"/><path class="cls-98" d="M90.52,118.23l-1.26.06.5,1.22,1.18-.05-.42-1.23" transform="translate(-14.84 -91.07)"/><polyline class="cls-99" points="64.8 27.95 64.39 27.99 65.51 29.17 65.89 29.13 64.8 27.95"/><polyline class="cls-100" points="83.81 26.99 83.26 26.99 83.21 28.23 83.73 28.22 83.81 26.99"/><polyline class="cls-101" points="86.17 27 84.91 26.99 84.75 28.22 85.95 28.24 86.17 27"/><polyline class="cls-102" points="87.75 27.02 87.32 27.01 87.03 28.25 87.43 28.25 87.75 27.02"/><path class="cls-103" d="M86,118.48l-2.65.19-2.62.24,1,1.18,2.46-.22c.82-.07,1.66-.12,2.48-.18L86,118.48" transform="translate(-14.84 -91.07)"/><path class="cls-104" d="M97.07,118.06c-.9,0-1.8,0-2.7,0l-1.35,0-1.35,0,.35,1.23,1.26,0,1.27,0c.84,0,1.69,0,2.54,0l0-1.24" transform="translate(-14.84 -91.07)"/><path class="cls-105" d="M102.6,118.09l-.33,1.23c1.19,0,2.38.06,3.57.11l.55-1.23c-1.25,0-2.53-.07-3.79-.11" transform="translate(-14.84 -91.07)"/><polyline class="cls-106" points="92.72 27.18 92.1 28.41 92.6 28.43 93.26 27.21 92.72 27.18"/><polyline class="cls-107" points="94.33 27.26 93.61 28.48 94.78 28.55 95.58 27.33 94.33 27.26"/><polyline class="cls-108" points="104.44 28.09 103.09 29.26 104.21 29.38 105.64 28.22 104.44 28.09"/><polyline class="cls-109" points="106.48 28.33 105 29.48 106.1 29.63 107.65 28.48 106.48 28.33"/><polyline class="cls-110" points="96.72 27.4 95.84 28.61 96.23 28.63 97.13 27.43 96.72 27.4"/><polyline class="cls-111" points="114.41 29.54 112.44 30.61 112.87 30.7 114.87 29.63 114.41 29.54"/><polyline class="cls-112" points="115.8 29.8 113.75 30.86 114.76 31.06 116.88 30.01 115.8 29.8"/><polyline class="cls-113" points="117.83 30.22 115.65 31.25 115.98 31.32 118.18 30.29 117.83 30.22"/><path class="cls-114" d="M113.09,118.58l-1,1.21c1.64.11,3.25.27,4.86.43l1.28-1.18c-1.7-.17-3.42-.33-5.17-.46" transform="translate(-14.84 -91.07)"/><path class="cls-115" d="M123.55,119.69l-1.61,1.13,2.28.34,2.22.38,1.91-1.09c-.79-.13-1.56-.28-2.37-.4l-2.43-.36" transform="translate(-14.84 -91.07)"/><path class="cls-116" d="M133,121.36l-2.2,1c1,.2,1.93.44,2.88.66l2.4-1c-1-.23-2-.48-3.08-.7" transform="translate(-14.84 -91.07)"/><polyline class="cls-117" points="122.18 31.23 119.72 32.2 120.12 32.3 122.59 31.34 122.18 31.23"/><path class="cls-118" d="M138.27,122.63l-2.52,1c.31.08.61.16.89.25l2.59-.94-1-.26" transform="translate(-14.84 -91.07)"/><polyline class="cls-119" points="130.75 33.91 127.78 34.72 128.53 35.01 131.55 34.22 130.75 33.91"/><polyline class="cls-120" points="132.13 34.44 129.07 35.22 129.77 35.52 132.88 34.77 132.13 34.44"/><polyline class="cls-121" points="125.23 32.06 122.59 32.99 122.88 33.07 125.54 32.15 125.23 32.06"/><path class="cls-122" d="M151.85,127.84l-3.36.63.24.15,3.38-.63-.26-.15" transform="translate(-14.84 -91.07)"/><polyline class="cls-123" points="137.78 37.23 134.37 37.84 134.93 38.17 138.38 37.59 137.78 37.23"/><polyline class="cls-124" points="138.88 37.92 135.4 38.48 135.57 38.59 139.06 38.04 138.88 37.92"/><polyline class="cls-125" points="126.38 32.4 123.67 33.3 125.44 33.87 127.13 34.47 130.06 33.64 128.27 33.01 126.38 32.4"/><path class="cls-126" d="M148.4,126.13l-3.15.74c1,.43,1.91.88,2.74,1.34l3.33-.65c-.9-.49-1.89-1-2.92-1.43" transform="translate(-14.84 -91.07)"/><path class="cls-127" d="M153.9,129.11l-3.49.55c.25.17.52.34.75.52l.69.53,3.57-.49-.72-.56c-.25-.19-.53-.37-.8-.55" transform="translate(-14.84 -91.07)"/><polyline class="cls-128" points="141.02 39.5 137.41 39.97 137.58 40.12 141.2 39.66 141.02 39.5"/><path class="cls-129" d="M156.41,131.06l-3.64.43c.13.12.28.24.39.36l3.67-.41c-.13-.13-.28-.25-.42-.38" transform="translate(-14.84 -91.07)"/><polyline class="cls-130" points="144.17 43.23 140.37 43.46 140.53 43.84 144.35 43.63 144.17 43.23"/><path class="cls-131" d="M159.33,135l-3.83.19a2,2,0,0,1,.14.38l3.84-.17a3.25,3.25,0,0,0-.15-.4" transform="translate(-14.84 -91.07)"/><polyline class="cls-132" points="142.32 40.73 138.63 41.11 138.74 41.24 142.44 40.86 142.32 40.73"/><polyline class="cls-133" points="144.99 46.75 141.13 46.77 141.13 46.93 144.99 46.93 144.99 46.75"/><polyline class="cls-134" points="144.96 47.28 141.11 47.26 141.03 47.64 144.88 47.69 144.96 47.28"/><polyline class="cls-135" points="144.82 48.06 140.97 47.99 140.95 48.12 144.79 48.19 144.82 48.06"/><path class="cls-136" d="M157.62,132.28l-3.72.36.61.78c.21.26.34.53.52.79l3.78-.25a10,10,0,0,0-.54-.85l-.65-.83" transform="translate(-14.84 -91.07)"/><path class="cls-137" d="M159.59,135.76l-3.84.14.11.41.06.4a4.43,4.43,0,0,1,.07.81l3.85,0a4.11,4.11,0,0,0-.07-.86l-.06-.44-.12-.43" transform="translate(-14.84 -91.07)"/><path class="cls-138" d="M91.85,159.21c-36.29-.69-63.34-10.73-60.3-22.38S66.6,116.26,102.89,117s63.34,10.73,60.3,22.38-35.05,20.57-71.34,19.88m11.34-43.4c-38.25-.73-72,8.67-75.2,20.95s25.31,22.86,63.57,23.59,72-8.67,75.19-20.95-25.31-22.87-63.56-23.59" transform="translate(-14.84 -91.07)"/><path class="cls-139" d="M87.9,154.61a1.12,1.12,0,0,0-.78.19c-.06.13.19.24.58.26,1.7.09,3.45.15,5.19.18h0c.4,0,.73-.08.76-.21s-.27-.24-.66-.24c-1.7,0-3.4-.09-5.05-.18H87.9m15.52,0h-.15c-1.69.08-3.41.12-5.11.14-.4,0-.71.12-.71.24s.3.22.65.22h.07c1.75,0,3.52-.07,5.26-.14.39,0,.67-.14.63-.26s-.32-.19-.64-.2m-25.51-.89a1.4,1.4,0,0,0-.72.15c-.15.12,0,.26.4.3,1.62.19,3.3.36,5,.5h.14a1.1,1.1,0,0,0,.74-.17c.11-.12-.11-.25-.48-.28-1.64-.14-3.27-.3-4.86-.49l-.2,0m35.64.11-.27,0c-1.62.18-3.29.33-5,.46-.39,0-.63.15-.55.27s.33.17.64.18h.2c1.72-.13,3.43-.29,5.1-.47.37,0,.58-.17.46-.29a1.14,1.14,0,0,0-.63-.16m-44.86-1.56a1.71,1.71,0,0,0-.66.11c-.22.11-.12.25.21.32,1.47.29,3,.56,4.55.81l.27,0a1.37,1.37,0,0,0,.7-.13c.18-.11,0-.25-.31-.3-1.51-.24-3-.51-4.44-.79l-.32,0m54.39.17a2.73,2.73,0,0,0-.41,0c-1.49.28-3,.53-4.59.76-.36.05-.54.19-.38.3a1.26,1.26,0,0,0,.6.14l.34,0c1.6-.24,3.19-.5,4.73-.79.34-.06.47-.2.27-.31a1.21,1.21,0,0,0-.56-.11m-62.51-2.17a1.72,1.72,0,0,0-.57.07c-.27.09-.27.24,0,.32,1.26.38,2.58.75,4,1.09a2.11,2.11,0,0,0,.38,0,1.45,1.45,0,0,0,.62-.09c.24-.1.19-.24-.12-.32-1.33-.33-2.62-.68-3.84-1.05a1.46,1.46,0,0,0-.44-.06m71.05.21a2.12,2.12,0,0,0-.52.06c-1.3.36-2.67.71-4.07,1-.33.07-.41.22-.18.32a1.28,1.28,0,0,0,.52.09,1.79,1.79,0,0,0,.47,0c1.44-.33,2.85-.69,4.18-1.06.3-.08.34-.23.08-.32a1.6,1.6,0,0,0-.48-.08m-77.76-2.7a2.25,2.25,0,0,0-.46,0c-.33.08-.4.22-.18.33,1,.45,2.07.89,3.2,1.31a1.45,1.45,0,0,0,.49.07,1.74,1.74,0,0,0,.52-.05c.3-.09.33-.23.08-.32-1.1-.41-2.15-.84-3.12-1.29a1.82,1.82,0,0,0-.53-.09m85,.26a1.89,1.89,0,0,0-.62.09c-1.06.44-2.2.86-3.38,1.26-.28.09-.27.24,0,.32a1.49,1.49,0,0,0,.43.06,1.71,1.71,0,0,0,.58-.07c1.22-.41,2.39-.85,3.48-1.29.25-.1.19-.25-.11-.32a1.6,1.6,0,0,0-.39,0m-90-3.13a2,2,0,0,0-.34,0c-.36,0-.53.19-.37.3a24,24,0,0,0,2.33,1.49,1.33,1.33,0,0,0,.56.12,2.73,2.73,0,0,0,.41,0c.35-.07.47-.21.28-.32a24.77,24.77,0,0,1-2.27-1.45,1.23,1.23,0,0,0-.6-.14m95.68.3a1.49,1.49,0,0,0-.7.12c-.78.5-1.65,1-2.57,1.45-.21.1-.12.24.21.31a1.76,1.76,0,0,0,.33,0,1.43,1.43,0,0,0,.66-.11c.95-.47,1.84-1,2.64-1.47.18-.12.05-.26-.31-.31l-.26,0m-98.84-3.44h-.21c-.39,0-.63.15-.55.28a10.39,10.39,0,0,0,1.36,1.61,1.08,1.08,0,0,0,.62.16h.28c.37,0,.57-.18.46-.3A10.38,10.38,0,0,1,46.3,142a1,1,0,0,0-.64-.18m102.66.32a1.11,1.11,0,0,0-.74.17,14.85,14.85,0,0,1-1.66,1.57c-.14.11,0,.24.4.29h.21a1.25,1.25,0,0,0,.72-.15,13.91,13.91,0,0,0,1.7-1.61c.11-.12-.11-.24-.49-.28h-.14M44.48,138.53h-.06c-.4,0-.71.11-.7.24a5.89,5.89,0,0,0,.33,1.68c0,.11.32.19.65.2h.14c.39,0,.68-.13.63-.26a5.42,5.42,0,0,1-.32-1.63c0-.12-.3-.21-.67-.22m105.72.28c-.39,0-.74.09-.77.22v0a6.65,6.65,0,0,1-.68,1.63c-.07.12.19.24.58.26h.07c.36,0,.69-.07.75-.19a6.74,6.74,0,0,0,.7-1.68v0c0-.13-.26-.24-.65-.25m-104.87-3.6a1,1,0,0,0-.75.19,7.75,7.75,0,0,0-.68,1.66v0c0,.13.26.23.65.23s.74-.1.77-.22a6.71,6.71,0,0,1,.67-1.61c.07-.13-.19-.25-.58-.27h-.08m104.71.28h-.14c-.4,0-.68.14-.63.26a5.55,5.55,0,0,1,.32,1.64c0,.11.3.21.66.22h.07c.4,0,.71-.12.71-.24a5.86,5.86,0,0,0-.35-1.68c0-.11-.31-.19-.64-.2M48.2,132a1.41,1.41,0,0,0-.74.15,15.31,15.31,0,0,0-1.68,1.61c-.11.12.1.25.48.28h.14a1.26,1.26,0,0,0,.75-.17,13.74,13.74,0,0,1,1.64-1.57c.15-.12,0-.25-.4-.3H48.2m99.65.27h-.29c-.37,0-.57.17-.45.29a11,11,0,0,1,1.33,1.58.86.86,0,0,0,.63.17h.22c.38,0,.62-.16.54-.28a11.57,11.57,0,0,0-1.36-1.62,1,1,0,0,0-.62-.15M52.93,129a1.38,1.38,0,0,0-.65.11,28.21,28.21,0,0,0-2.64,1.48c-.18.11,0,.25.31.3a1.18,1.18,0,0,0,.27,0,1.53,1.53,0,0,0,.69-.13,29.07,29.07,0,0,1,2.57-1.44c.21-.11.12-.25-.22-.32a1.69,1.69,0,0,0-.33,0m90.78.24a2.73,2.73,0,0,0-.41,0c-.34.07-.47.21-.27.32A24.77,24.77,0,0,1,145.3,131a1.14,1.14,0,0,0,.6.13,1.35,1.35,0,0,0,.34,0c.36-.05.52-.19.36-.3a24.74,24.74,0,0,0-2.33-1.5,1.53,1.53,0,0,0-.56-.11M59.4,126.35a1.72,1.72,0,0,0-.57.07c-1.22.41-2.39.85-3.48,1.29-.24.1-.19.25.12.32a1.46,1.46,0,0,0,.38.05,1.89,1.89,0,0,0,.62-.09c1.06-.43,2.2-.86,3.38-1.26.28-.09.27-.24,0-.32a1.46,1.46,0,0,0-.44-.06m78.4.21a1.74,1.74,0,0,0-.52,0c-.31.09-.34.23-.09.33,1.11.4,2.15.83,3.13,1.27a1.41,1.41,0,0,0,.52.1,1.83,1.83,0,0,0,.47-.05c.32-.07.4-.21.18-.32-1-.45-2.07-.89-3.21-1.31a1.35,1.35,0,0,0-.48-.07m-70.49-2.43a1.75,1.75,0,0,0-.46.05c-1.44.33-2.84.68-4.18,1.06-.29.08-.33.23-.08.32a1.67,1.67,0,0,0,.49.08,2.12,2.12,0,0,0,.52-.06c1.29-.36,2.66-.71,4.06-1,.33-.08.41-.22.19-.32a1.58,1.58,0,0,0-.54-.1m63,.17a1.89,1.89,0,0,0-.62.09c-.24.1-.19.25.12.32,1.33.33,2.63.69,3.85,1.06a2.47,2.47,0,0,0,.43.06,2,2,0,0,0,.58-.08c.27-.09.27-.24,0-.32-1.25-.38-2.58-.74-4-1.08a1.6,1.6,0,0,0-.39,0m-53.95-1.85a1.37,1.37,0,0,0-.35,0c-1.6.23-3.19.5-4.72.78-.34.07-.46.21-.27.31a1.3,1.3,0,0,0,.56.12,1.9,1.9,0,0,0,.41,0c1.48-.27,3-.53,4.59-.76.36,0,.53-.19.37-.3a1.12,1.12,0,0,0-.59-.13m45.23.12a1.45,1.45,0,0,0-.69.12c-.18.12,0,.26.31.31,1.51.24,3,.5,4.43.79a1.87,1.87,0,0,0,.34,0,1.52,1.52,0,0,0,.65-.11c.22-.11.12-.25-.21-.31-1.47-.3-3-.57-4.56-.81l-.27,0m-35.36-1.22h-.21c-1.71.13-3.42.29-5.08.47-.38,0-.58.18-.46.29a1.08,1.08,0,0,0,.62.16h.28c1.61-.18,3.28-.34,4.94-.47.39,0,.64-.15.55-.28a1,1,0,0,0-.64-.17m25.71.07a1.23,1.23,0,0,0-.75.17c-.1.12.12.25.5.28,1.64.14,3.27.3,4.85.49h.2a1.26,1.26,0,0,0,.73-.15c.14-.12,0-.25-.4-.29-1.63-.19-3.31-.36-5-.5H112m-15.41-.53H96.5c-1.75,0-3.52.08-5.25.15-.39,0-.67.14-.63.26s.32.19.65.2h.14c1.68-.08,3.41-.13,5.11-.15.4,0,.72-.11.71-.24s-.3-.21-.67-.22m5.32,0h-.12c-.39,0-.73.09-.77.21s.26.24.65.24h.1c1.66,0,3.34.09,5,.17h.07c.36,0,.69-.07.76-.19s-.19-.24-.58-.26c-1.68-.09-3.4-.15-5.1-.18" transform="translate(-14.84 -91.07)"/><path class="cls-140" d="M96.9,142.53a57.09,57.09,0,0,1-7,1.11q-3.22.31-6.67.32a65.61,65.61,0,0,1-9.19-.62,44.79,44.79,0,0,1-7.6-1.67,17.92,17.92,0,0,1-5.15-2.46,3.36,3.36,0,0,1,0-6.05,17.92,17.92,0,0,1,5.15-2.46A44.79,44.79,0,0,1,74,129a65.61,65.61,0,0,1,9.19-.62c2.3,0,4.51.11,6.65.32.78.08,1.61.17,2.36.27.36,0,.78.13.78.13l-.14.05a12.63,12.63,0,0,0-1.21.5,7.77,7.77,0,0,0-1,.58,3.79,3.79,0,0,0-.71.66,3,3,0,0,0-.47.72,1.8,1.8,0,0,0-.21.8,1.94,1.94,0,0,0,0,.24s-.69-.15-1.1-.2a38.78,38.78,0,0,0-5-.36,33.74,33.74,0,0,0-4.75.31,23.27,23.27,0,0,0-3.89.87A8.41,8.41,0,0,0,72,134.59a1.81,1.81,0,0,0,0,3.19,8.41,8.41,0,0,0,2.62,1.29,22.32,22.32,0,0,0,3.89.87,33.74,33.74,0,0,0,4.75.31,38.4,38.4,0,0,0,8.36-1c2-.48,3.47-.94,5.35-1.45a51.61,51.61,0,0,1,14-1.52l18.19,0v4.13H108.64v6.71L97,147.13v-4.62Z" transform="translate(-14.84 -91.07)"/><path class="cls-140" d="M94.6,136v-2.35h0c0-3,4.93-4.84,14.43-4.84h22.08a2,2,0,0,1,2,2v0a2,2,0,0,1-2,2H109.24c-2.29,0-3.12.46-3.12,1.24v.36a56,56,0,0,0-9.21,1.07Z" transform="translate(-14.84 -91.07)"/><path class="cls-141" d="M96.9,142.53a57.09,57.09,0,0,1-7,1.11q-3.22.31-6.67.32a65.61,65.61,0,0,1-9.19-.62,44.79,44.79,0,0,1-7.6-1.67,17.92,17.92,0,0,1-5.15-2.46,3.36,3.36,0,0,1,0-6.05,17.92,17.92,0,0,1,5.15-2.46A44.79,44.79,0,0,1,74,129a65.61,65.61,0,0,1,9.19-.62c2.3,0,4.51.11,6.65.32.78.08,1.61.17,2.36.27.36,0,.78.13.78.13l-.14.05a12.63,12.63,0,0,0-1.21.5,7.77,7.77,0,0,0-1,.58,3.79,3.79,0,0,0-.71.66,3,3,0,0,0-.47.72,1.8,1.8,0,0,0-.21.8,1.94,1.94,0,0,0,0,.24s-.69-.15-1.1-.2a38.78,38.78,0,0,0-5-.36,33.74,33.74,0,0,0-4.75.31,23.27,23.27,0,0,0-3.89.87A8.41,8.41,0,0,0,72,134.59a1.81,1.81,0,0,0,0,3.19,8.41,8.41,0,0,0,2.62,1.29,22.32,22.32,0,0,0,3.89.87,33.74,33.74,0,0,0,4.75.31,38.4,38.4,0,0,0,8.36-1c2-.48,3.47-.94,5.35-1.45a51.61,51.61,0,0,1,14-1.52l18.19,0v4.13H108.64v6.71L97,147.13v-4.62Z" transform="translate(-14.84 -91.07)"/><path class="cls-141" d="M94.6,136v-2.35h0c0-3,4.93-4.84,14.43-4.84h22.08a2,2,0,0,1,2,2v0a2,2,0,0,1-2,2H109.24c-2.29,0-3.12.46-3.12,1.24v.36a56,56,0,0,0-9.21,1.07Z" transform="translate(-14.84 -91.07)"/><path class="cls-141" d="M94.6,136v-2.35h0c0-3,4.93-4.84,14.43-4.84h22.08a2,2,0,0,1,2,2v0a2,2,0,0,1-2,2H109.24c-2.29,0-3.12.46-3.12,1.24v.36a56,56,0,0,0-9.21,1.07Z" transform="translate(-14.84 -91.07)"/><ellipse class="cls-142" cx="84.73" cy="46.95" rx="72.89" ry="22.3"/><path class="cls-143" d="M164,112.87a.43.43,0,0,0,0,0c.17-11.53-27.35-21.12-63.79-21.81-38.32-.73-72,8.65-75.2,21a7.71,7.71,0,0,0-.24,2l.12,13.81c.05,5.87,7.3,11.24,19.25,15.16,1.73.57,3.57,1.11,5.5,1.61,1.5.4,3.07.78,4.69,1.13,1.41.31,2.87.6,4.35.88s2.75.49,4.17.7,2.69.41,4.06.59,2.63.33,4,.47,2.66.27,4,.39,2.7.22,4.08.3,2.75.17,4.15.23,2.83.12,4.27.15l1.27,0c1,0,2.08,0,3.13,0,1.5,0,3,0,4.47,0s3.13-.07,4.67-.12c1.75-.07,3.47-.15,5.17-.26,2.31-.14,4.6-.32,6.83-.54a158.61,158.61,0,0,0,25.19-4.33c2.39-.63,4.65-1.32,6.77-2,1.53-.52,3-1.08,4.38-1.65,1.16-.48,2.25-1,3.29-1.48s1.78-.91,2.6-1.39,1.46-.88,2.13-1.33,1.23-.86,1.78-1.31,1-.86,1.48-1.3.84-.87,1.21-1.31a14.59,14.59,0,0,0,1-1.34,10.81,10.81,0,0,0,.72-1.39,8.5,8.5,0,0,0,.4-1.17c0-.1,0-.19.07-.29a6.81,6.81,0,0,0,.18-1.54v-.12Zm-.18,1.54c0,.09,0,0,0-.11C163.86,114.33,163.86,114.37,163.85,114.41Z" transform="translate(-14.84 -91.07)"/><ellipse class="cls-144" cx="94.41" cy="113.38" rx="69.62" ry="22.3" transform="matrix(1, -0.01, 0.01, 1, -15.83, -90.24)"/><path class="cls-145" d="M156.67,114.57l-3.84-.08c-.15.39-.24.77-.42,1.15l3.82.15c.19-.41.29-.82.44-1.22" transform="translate(-14.84 -91.07)"/><polyline class="cls-146" points="137.39 24.93 137.31 25.09 141.11 25.27 141.2 25.1 137.39 24.93"/><polyline class="cls-147" points="137.14 25.41 136.88 25.79 140.65 26.02 140.92 25.62 137.14 25.41"/><polyline class="cls-148" points="134.47 28.47 134.04 28.83 137.62 29.26 138.07 28.88 134.47 28.47"/><polyline class="cls-149" points="133.72 29.09 133.24 29.45 136.77 29.91 137.28 29.54 133.72 29.09"/><polyline class="cls-150" points="136.66 26.13 136.57 26.26 140.32 26.52 140.42 26.38 136.66 26.13"/><polyline class="cls-151" points="130 31.5 129.73 31.64 133.02 32.26 133.31 32.11 130 31.5"/><polyline class="cls-152" points="129.19 31.93 128.55 32.26 131.77 32.91 132.44 32.56 129.19 31.93"/><polyline class="cls-153" points="127.93 32.55 127.7 32.65 130.87 33.33 131.11 33.22 127.93 32.55"/><path class="cls-154" d="M151.14,117.66a15.16,15.16,0,0,1-1.47,1.57l3.63.38a14.25,14.25,0,0,0,1.57-1.67l-3.73-.28" transform="translate(-14.84 -91.07)"/><path class="cls-155" d="M147.66,120.84l-1.12.73c-.38.25-.82.48-1.22.73l3.35.58c.43-.25.89-.5,1.29-.77l1.2-.78-3.5-.49" transform="translate(-14.84 -91.07)"/><path class="cls-156" d="M142.54,123.72c-.65.33-1.4.63-2.13.94l3,.75c.77-.33,1.56-.66,2.27-1l-3.17-.68" transform="translate(-14.84 -91.07)"/><polyline class="cls-157" points="124.87 33.88 124.54 34.01 127.5 34.77 127.85 34.64 124.87 33.88"/><path class="cls-158" d="M138.72,125.33l-.79.29,2.86.81.84-.31-2.91-.79" transform="translate(-14.84 -91.07)"/><polyline class="cls-159" points="116.82 36.52 115.89 36.77 118.28 37.72 119.27 37.45 116.82 36.52"/><polyline class="cls-160" points="115.22 36.94 114.25 37.18 116.54 38.16 117.57 37.91 115.22 36.94"/><polyline class="cls-161" points="122.35 34.81 122.07 34.91 124.87 35.74 125.16 35.64 122.35 34.81"/><path class="cls-162" d="M123.12,129.54l-.45.08,1.86,1.06.48-.08-1.89-1.06" transform="translate(-14.84 -91.07)"/><polyline class="cls-163" points="106.92 38.71 105.86 38.9 107.6 39.99 108.72 39.79 106.92 38.71"/><polyline class="cls-164" points="104.89 39.06 104.53 39.11 106.17 40.22 106.56 40.16 104.89 39.06"/><polyline class="cls-165" points="121.32 35.17 119.51 35.75 117.61 36.3 120.12 37.22 122.14 36.63 124.07 36.01 121.32 35.17"/><path class="cls-166" d="M128.22,128.46c-1.39.32-2.79.63-4.26.91l1.94,1c1.57-.3,3.07-.63,4.55-1l-2.23-1" transform="translate(-14.84 -91.07)"/><path class="cls-167" d="M119.37,130.18l-1.63.26-1.67.23,1.43,1.13,1.77-.24,1.74-.27-1.64-1.11" transform="translate(-14.84 -91.07)"/><polyline class="cls-168" points="100.2 39.74 99.72 39.8 101.05 40.95 101.56 40.88 100.2 39.74"/><path class="cls-169" d="M113.59,131l-1.13.14,1.19,1.16,1.21-.14L113.59,131" transform="translate(-14.84 -91.07)"/><polyline class="cls-170" points="89.21 40.77 88.02 40.83 88.58 42.05 89.84 41.98 89.21 40.77"/><path class="cls-171" d="M102,132l-1.19.05.42,1.23,1.27-.06L102,132" transform="translate(-14.84 -91.07)"/><polyline class="cls-172" points="96.58 40.16 96.2 40.19 97.29 41.37 97.7 41.33 96.58 40.16"/><polyline class="cls-173" points="78.88 41.1 78.36 41.1 78.28 42.34 78.83 42.33 78.88 41.1"/><polyline class="cls-174" points="77.34 41.1 76.14 41.09 75.92 42.32 77.19 42.34 77.34 41.1"/><polyline class="cls-175" points="75.06 41.08 74.67 41.07 74.34 42.31 74.77 42.31 75.06 41.08"/><path class="cls-176" d="M110,131.37l-2.47.22c-.81.07-1.65.12-2.48.18l.7,1.21,2.65-.19,2.62-.24-1-1.18" transform="translate(-14.84 -91.07)"/><path class="cls-177" d="M99.75,132l-1.26.05-1.27,0c-.84,0-1.68,0-2.53,0v1.24c.9,0,1.81,0,2.7-.05l1.36,0,1.34,0L99.75,132" transform="translate(-14.84 -91.07)"/><path class="cls-178" d="M85.94,132l-.55,1.23c1.26.05,2.53.08,3.8.11l.32-1.23c-1.2,0-2.39,0-3.57-.11" transform="translate(-14.84 -91.07)"/><polyline class="cls-179" points="69.49 40.9 68.83 42.12 69.37 42.14 70 40.92 69.49 40.9"/><polyline class="cls-180" points="67.31 40.77 66.51 41.99 67.76 42.07 68.48 40.85 67.31 40.77"/><polyline class="cls-181" points="57.88 39.94 56.45 41.1 57.65 41.23 59 40.07 57.88 39.94"/><polyline class="cls-182" points="55.99 39.7 54.44 40.84 55.61 40.99 57.09 39.84 55.99 39.7"/><polyline class="cls-183" points="65.86 40.69 64.96 41.9 65.38 41.92 66.25 40.71 65.86 40.69"/><polyline class="cls-184" points="49.22 38.63 47.22 39.7 47.68 39.79 49.66 38.71 49.22 38.63"/><polyline class="cls-185" points="47.33 38.26 45.21 39.31 46.29 39.52 48.34 38.46 47.33 38.26"/><polyline class="cls-186" points="46.11 38 43.91 39.03 44.26 39.11 46.44 38.07 46.11 38"/><path class="cls-187" d="M74.8,131.24l-1.29,1.18c1.71.17,3.43.34,5.18.46l1-1.2c-1.64-.12-3.25-.28-4.85-.44" transform="translate(-14.84 -91.07)"/><path class="cls-188" d="M65.34,129.93,63.42,131c.79.13,1.57.28,2.38.4l2.43.36,1.61-1.13-2.28-.34-2.22-.37" transform="translate(-14.84 -91.07)"/><path class="cls-189" d="M58.07,128.41l-2.39,1c1,.24,2,.48,3.08.7l2.2-1c-1-.2-1.94-.44-2.89-.66" transform="translate(-14.84 -91.07)"/><polyline class="cls-190" points="41.98 37.02 39.5 37.99 39.92 38.1 42.37 37.12 41.98 37.02"/><path class="cls-191" d="M55.13,127.64l-2.58.93c.31.1.63.18,1,.27l2.52-1-.9-.24" transform="translate(-14.84 -91.07)"/><polyline class="cls-192" points="33.56 34.31 30.54 35.1 31.34 35.42 34.32 34.61 33.56 34.31"/><polyline class="cls-193" points="32.32 33.8 29.21 34.56 29.96 34.88 33.03 34.1 32.32 33.8"/><polyline class="cls-194" points="39.21 36.25 36.55 37.17 36.86 37.26 39.5 36.34 39.21 36.25"/><path class="cls-195" d="M43.05,122.84l-3.39.63.27.15,3.36-.63-.24-.15" transform="translate(-14.84 -91.07)"/><polyline class="cls-196" points="27.16 31.15 23.71 31.73 24.31 32.09 27.72 31.49 27.16 31.15"/><polyline class="cls-197" points="26.53 30.73 23.03 31.28 23.21 31.41 26.7 30.84 26.53 30.73"/><polyline class="cls-198" points="34.97 34.86 32.03 35.68 33.83 36.31 35.71 36.92 38.42 36.02 36.65 35.45 34.97 34.86"/><path class="cls-199" d="M43.78,123.25l-3.33.65c.9.49,1.9,1,2.93,1.43l3.15-.74c-1-.43-1.91-.88-2.75-1.34" transform="translate(-14.84 -91.07)"/><path class="cls-200" d="M39.93,120.76l-3.58.48.72.56c.26.19.54.37.81.55l3.49-.55c-.25-.17-.52-.34-.75-.52l-.69-.52" transform="translate(-14.84 -91.07)"/><polyline class="cls-201" points="24.51 29.2 20.89 29.66 21.07 29.82 24.68 29.36 24.51 29.2"/><path class="cls-202" d="M38.61,119.61,35,120c.12.13.28.25.42.38L39,120c-.13-.12-.28-.24-.4-.36" transform="translate(-14.84 -91.07)"/><polyline class="cls-203" points="21.56 25.48 17.74 25.69 17.92 26.09 21.72 25.86 21.56 25.48"/><path class="cls-204" d="M36.13,115.9l-3.83.17a2.17,2.17,0,0,0,.15.4l3.83-.19a1.5,1.5,0,0,1-.15-.38" transform="translate(-14.84 -91.07)"/><polyline class="cls-205" points="23.35 28.09 19.65 28.47 19.77 28.6 23.46 28.21 23.35 28.09"/><polyline class="cls-206" points="20.96 22.39 17.11 22.4 17.1 22.57 20.96 22.56 20.96 22.39"/><polyline class="cls-207" points="21.06 21.68 17.21 21.64 17.13 22.05 20.98 22.06 21.06 21.68"/><polyline class="cls-208" points="21.14 21.2 17.3 21.13 17.27 21.27 21.12 21.33 21.14 21.2"/><path class="cls-209" d="M36.76,117.25l-3.8.26c.18.28.33.56.54.84l.66.83,3.72-.35-.62-.79c-.2-.26-.33-.53-.5-.79" transform="translate(-14.84 -91.07)"/><path class="cls-210" d="M35.79,113.94l-3.86,0a4.27,4.27,0,0,0,.08.87l.06.43.12.43,3.84-.14-.11-.41-.06-.4a3.7,3.7,0,0,1-.07-.81" transform="translate(-14.84 -91.07)"/><path class="cls-211" d="M32.58,111c-.19.4-.29.81-.44,1.22l3.85.07c.14-.38.23-.76.41-1.14L32.58,111" transform="translate(-14.84 -91.07)"/><polyline class="cls-212" points="18.02 19.36 17.93 19.53 21.73 19.7 21.82 19.54 18.02 19.36"/><polyline class="cls-213" points="18.47 18.61 18.21 19.01 21.99 19.22 22.24 18.84 18.47 18.61"/><polyline class="cls-214" points="21.5 15.37 21.05 15.75 24.66 16.16 25.09 15.8 21.5 15.37"/><polyline class="cls-215" points="22.36 14.71 21.84 15.09 25.41 15.54 25.88 15.19 22.36 14.71"/><polyline class="cls-216" points="18.8 18.11 18.71 18.25 22.47 18.5 22.55 18.37 18.8 18.11"/><polyline class="cls-217" points="26.1 12.37 25.81 12.52 29.13 13.13 29.4 12.99 26.1 12.37"/><polyline class="cls-218" points="27.36 11.72 26.68 12.07 29.94 12.7 30.58 12.37 27.36 11.72"/><polyline class="cls-219" points="28.26 11.3 28.01 11.41 31.2 12.08 31.43 11.98 28.26 11.3"/><path class="cls-220" d="M35.51,107.15a17.17,17.17,0,0,0-1.57,1.67l3.73.28a14.15,14.15,0,0,1,1.47-1.56l-3.63-.39" transform="translate(-14.84 -91.07)"/><path class="cls-221" d="M40.15,103.88c-.44.26-.9.51-1.3.77l-1.2.79,3.51.49,1.12-.74c.37-.24.81-.48,1.21-.72l-3.34-.59" transform="translate(-14.84 -91.07)"/><path class="cls-222" d="M45.38,101.36c-.78.33-1.57.66-2.28,1l3.17.68c.66-.32,1.4-.63,2.13-.94l-3-.74" transform="translate(-14.84 -91.07)"/><polyline class="cls-223" points="31.63 9.85 31.28 9.99 34.25 10.75 34.59 10.63 31.63 9.85"/><path class="cls-224" d="M48,100.34l-.84.31,2.91.79.79-.3-2.86-.8" transform="translate(-14.84 -91.07)"/><polyline class="cls-225" points="40.85 6.91 39.85 7.17 42.31 8.11 43.24 7.86 40.85 6.91"/><polyline class="cls-226" points="42.59 6.47 41.56 6.72 43.91 7.68 44.87 7.45 42.59 6.47"/><polyline class="cls-227" points="34.26 8.89 33.97 8.99 36.78 9.81 37.05 9.72 34.26 8.89"/><path class="cls-228" d="M64.28,96.08l-.48.09,1.89,1.06.45-.08-1.86-1.07" transform="translate(-14.84 -91.07)"/><polyline class="cls-229" points="51.53 4.64 50.4 4.84 52.2 5.92 53.27 5.73 51.53 4.64"/><polyline class="cls-230" points="52.96 4.41 52.57 4.47 54.24 5.58 54.6 5.52 52.96 4.41"/><polyline class="cls-231" points="39.01 7.41 36.99 8 35.06 8.62 37.8 9.46 39.62 8.88 41.52 8.33 39.01 7.41"/><path class="cls-232" d="M62.91,96.35c-1.56.3-3.07.63-4.55,1l2.23,1c1.39-.32,2.8-.63,4.27-.91l-2-1.05" transform="translate(-14.84 -91.07)"/><path class="cls-233" d="M71.31,95l-1.77.25-1.74.27,1.64,1.11,1.63-.26,1.67-.23L71.31,95" transform="translate(-14.84 -91.07)"/><polyline class="cls-234" points="58.08 3.69 57.57 3.75 58.93 4.89 59.41 4.83 58.08 3.69"/><path class="cls-235" d="M75.16,94.48,74,94.63l1.27,1.15,1.13-.13-1.19-1.17" transform="translate(-14.84 -91.07)"/><polyline class="cls-236" points="70.55 2.58 69.28 2.65 69.91 3.86 71.1 3.8 70.55 2.58"/><path class="cls-237" d="M87.56,93.54c-.42,0-.85,0-1.27.06l.5,1.22L88,94.76l-.42-1.22" transform="translate(-14.84 -91.07)"/><polyline class="cls-238" points="61.83 3.26 61.42 3.3 62.55 4.47 62.93 4.43 61.83 3.26"/><polyline class="cls-239" points="80.85 2.29 80.3 2.3 80.25 3.53 80.76 3.53 80.85 2.29"/><polyline class="cls-240" points="83.21 2.31 81.94 2.29 81.78 3.53 82.98 3.54 83.21 2.31"/><polyline class="cls-241" points="84.79 2.33 84.36 2.32 84.06 3.56 84.47 3.56 84.79 2.33"/><path class="cls-242" d="M83.05,93.79c-.88.06-1.77.11-2.65.19l-2.62.23,1,1.18,2.47-.21c.81-.07,1.65-.12,2.48-.18l-.7-1.21" transform="translate(-14.84 -91.07)"/><path class="cls-243" d="M94.11,93.37c-.9,0-1.8,0-2.7,0l-1.36,0-1.34.06.35,1.22,1.26,0,1.27,0c.84,0,1.68-.05,2.53,0V93.37" transform="translate(-14.84 -91.07)"/><path class="cls-244" d="M99.63,93.39l-.32,1.24c1.19,0,2.38.05,3.56.1l.55-1.22c-1.25-.06-2.52-.08-3.79-.12" transform="translate(-14.84 -91.07)"/><polyline class="cls-245" points="89.75 2.49 89.13 3.71 89.63 3.73 90.29 2.51 89.75 2.49"/><polyline class="cls-246" points="91.37 2.56 90.64 3.78 91.82 3.85 92.62 2.64 91.37 2.56"/><polyline class="cls-247" points="101.48 3.4 100.13 4.56 101.25 4.69 102.67 3.53 101.48 3.4"/><polyline class="cls-248" points="103.52 3.63 102.04 4.79 103.14 4.93 104.69 3.79 103.52 3.63"/><polyline class="cls-249" points="93.75 2.71 92.88 3.92 93.27 3.94 94.16 2.73 93.75 2.71"/><polyline class="cls-250" points="111.44 4.84 109.47 5.92 109.91 6 111.9 4.93 111.44 4.84"/><polyline class="cls-251" points="112.84 5.11 110.78 6.17 111.79 6.37 113.91 5.32 112.84 5.11"/><polyline class="cls-252" points="114.86 5.52 112.68 6.56 113.01 6.63 115.21 5.6 114.86 5.52"/><path class="cls-253" d="M110.12,93.89l-1,1.2c1.64.12,3.25.27,4.85.43l1.29-1.17c-1.71-.17-3.43-.34-5.18-.46" transform="translate(-14.84 -91.07)"/><path class="cls-254" d="M120.59,95,119,96.13l2.28.34c.76.11,1.48.25,2.23.37l1.91-1.08c-.79-.14-1.56-.28-2.38-.4L120.59,95" transform="translate(-14.84 -91.07)"/><path class="cls-255" d="M130.05,96.67l-2.2,1c1,.2,1.94.43,2.89.66l2.39-1c-1-.24-2-.49-3.08-.7" transform="translate(-14.84 -91.07)"/><polyline class="cls-256" points="119.22 6.53 116.76 7.51 117.16 7.61 119.63 6.64 119.22 6.53"/><path class="cls-257" d="M135.31,97.93l-2.53.95.9.25,2.59-.94-1-.26" transform="translate(-14.84 -91.07)"/><polyline class="cls-258" points="127.79 9.21 124.81 10.02 125.56 10.31 128.59 9.53 127.79 9.21"/><polyline class="cls-259" points="129.16 9.75 126.1 10.52 126.81 10.83 129.91 10.07 129.16 9.75"/><polyline class="cls-260" points="122.27 7.37 119.63 8.29 119.92 8.38 122.58 7.46 122.27 7.37"/><path class="cls-261" d="M148.88,103.15l-3.36.63.25.14,3.38-.62-.27-.15" transform="translate(-14.84 -91.07)"/><polyline class="cls-262" points="134.82 12.54 131.4 13.14 131.97 13.48 135.41 12.89 134.82 12.54"/><polyline class="cls-263" points="135.91 13.22 132.43 13.78 132.6 13.9 136.09 13.35 135.91 13.22"/><polyline class="cls-264" points="123.41 7.71 120.71 8.61 122.48 9.18 124.16 9.77 127.09 8.95 125.3 8.31 123.41 7.71"/><path class="cls-265" d="M145.43,101.43l-3.14.74c1,.44,1.9.89,2.74,1.35l3.33-.65c-.9-.5-1.9-1-2.93-1.44" transform="translate(-14.84 -91.07)"/><path class="cls-266" d="M150.94,104.41l-3.5.56c.26.17.53.34.76.51l.68.53,3.58-.48-.72-.56-.8-.56" transform="translate(-14.84 -91.07)"/><polyline class="cls-267" points="138.05 14.81 134.45 15.27 134.62 15.43 138.24 14.97 138.05 14.81"/><path class="cls-268" d="M153.45,106.37l-3.65.43c.13.12.28.24.4.36l3.66-.41c-.12-.13-.28-.26-.41-.38" transform="translate(-14.84 -91.07)"/><polyline class="cls-269" points="141.21 18.54 137.4 18.77 137.57 19.15 141.39 18.94 141.21 18.54"/><path class="cls-270" d="M156.36,110.3l-3.83.19a1.37,1.37,0,0,1,.15.38l3.83-.17a2.17,2.17,0,0,0-.15-.4" transform="translate(-14.84 -91.07)"/><polyline class="cls-271" points="139.35 16.03 135.66 16.42 135.78 16.54 139.48 16.16 139.35 16.03"/><polyline class="cls-272" points="142.03 22.06 138.17 22.07 138.16 22.24 142.02 22.23 142.03 22.06"/><polyline class="cls-273" points="141.99 22.58 138.14 22.57 138.07 22.95 141.92 22.99 141.99 22.58"/><polyline class="cls-274" points="141.85 23.36 138.01 23.3 137.98 23.43 141.83 23.5 141.85 23.36"/><path class="cls-275" d="M154.65,107.58l-3.72.36.62.78c.21.27.33.53.51.8l3.79-.26a9.88,9.88,0,0,0-.54-.84l-.66-.84" transform="translate(-14.84 -91.07)"/><path class="cls-276" d="M156.62,111.07l-3.84.14.12.4,0,.41a3.7,3.7,0,0,1,.07.81l3.86,0a4.27,4.27,0,0,0-.08-.87l-.06-.43-.12-.43" transform="translate(-14.84 -91.07)"/><path class="cls-277" d="M88.89,134.52c-36.3-.69-63.34-10.74-60.3-22.39s35-20.57,71.34-19.88,63.34,10.73,60.29,22.39-35,20.57-71.33,19.88m11.34-43.41c-38.26-.73-72,8.67-75.2,21s25.3,22.86,63.56,23.59,72-8.68,75.19-21-25.3-22.86-63.55-23.59" transform="translate(-14.84 -91.07)"/><path class="cls-278" d="M84.93,129.92c-.37,0-.71.07-.77.19s.19.24.57.26c1.7.09,3.45.15,5.19.18h0c.4,0,.72-.09.76-.21s-.28-.24-.67-.25c-1.69,0-3.39-.09-5.05-.17h-.06m15.52.05h-.15c-1.68.07-3.41.12-5.11.14-.39,0-.71.11-.7.24s.29.21.65.22h.07c1.75,0,3.52-.07,5.26-.15.39,0,.67-.13.63-.26s-.32-.19-.65-.19m-25.51-.89a1.33,1.33,0,0,0-.72.15c-.14.12,0,.25.4.3,1.63.19,3.31.36,5,.5h.13a1.18,1.18,0,0,0,.75-.18c.11-.12-.11-.24-.49-.27-1.64-.14-3.27-.31-4.85-.49l-.21,0m35.65.11h-.28c-1.62.18-3.28.34-5,.46-.38,0-.63.16-.54.28a.9.9,0,0,0,.63.18h.21c1.71-.13,3.42-.29,5.09-.48.37,0,.58-.17.46-.29a1.09,1.09,0,0,0-.62-.15m-44.87-1.56a1.57,1.57,0,0,0-.66.11c-.21.11-.11.25.22.31,1.47.3,3,.57,4.55.81a1.18,1.18,0,0,0,.27,0,1.65,1.65,0,0,0,.7-.13c.17-.12,0-.25-.32-.31-1.51-.23-3-.5-4.43-.79a1.76,1.76,0,0,0-.33,0m54.39.17a1.35,1.35,0,0,0-.4,0c-1.49.27-3,.53-4.6.76-.36,0-.53.19-.37.3a1.1,1.1,0,0,0,.59.13,1.35,1.35,0,0,0,.35,0c1.6-.23,3.19-.5,4.72-.78.35-.06.47-.2.28-.31a1.25,1.25,0,0,0-.57-.11m-62.5-2.18a1.64,1.64,0,0,0-.57.08c-.28.09-.27.23,0,.32,1.25.38,2.58.74,4,1.08a2.3,2.3,0,0,0,.39.05,1.82,1.82,0,0,0,.61-.09c.25-.1.2-.25-.11-.32-1.33-.33-2.63-.69-3.84-1.06a2.75,2.75,0,0,0-.44-.06m71,.22a1.73,1.73,0,0,0-.52.06c-1.29.36-2.67.71-4.07,1-.32.07-.4.21-.18.31a1.32,1.32,0,0,0,.53.1,2.25,2.25,0,0,0,.46,0c1.45-.33,2.85-.69,4.18-1.06.3-.09.34-.23.09-.33a1.7,1.7,0,0,0-.49-.07m-77.75-2.7a1.72,1.72,0,0,0-.46,0c-.33.08-.41.22-.19.32,1,.45,2.08.9,3.21,1.31a1.34,1.34,0,0,0,.48.08,1.69,1.69,0,0,0,.52-.06c.3-.08.34-.23.09-.32-1.11-.41-2.15-.84-3.12-1.28a1.36,1.36,0,0,0-.53-.09m85,.26a1.45,1.45,0,0,0-.62.09c-1.06.43-2.2.85-3.39,1.26-.27.09-.26.23,0,.32a1.56,1.56,0,0,0,.44.06,1.93,1.93,0,0,0,.57-.07c1.22-.41,2.39-.85,3.49-1.29.24-.11.19-.25-.12-.33a1.53,1.53,0,0,0-.38,0m-90-3.13-.35,0c-.36,0-.52.19-.37.31a23.06,23.06,0,0,0,2.34,1.49,1.18,1.18,0,0,0,.56.11,1.42,1.42,0,0,0,.41,0c.34-.06.46-.2.27-.31a22.64,22.64,0,0,1-2.26-1.46,1.27,1.27,0,0,0-.6-.13m95.67.29a1.53,1.53,0,0,0-.69.13c-.79.49-1.65,1-2.57,1.44-.22.11-.12.25.21.32a1.66,1.66,0,0,0,.32,0,1.54,1.54,0,0,0,.66-.11,29.46,29.46,0,0,0,2.65-1.48c.18-.11,0-.25-.31-.31l-.27,0M42.7,117.13h-.22c-.38,0-.63.15-.54.27A10.35,10.35,0,0,0,43.29,119a1,1,0,0,0,.62.15,1.29,1.29,0,0,0,.28,0c.38,0,.58-.17.46-.29a10.89,10.89,0,0,1-1.32-1.57c-.06-.1-.33-.17-.63-.18m102.66.31a1.31,1.31,0,0,0-.75.17,13.87,13.87,0,0,1-1.65,1.57c-.15.12,0,.25.4.29l.21,0a1.33,1.33,0,0,0,.72-.15,14.59,14.59,0,0,0,1.69-1.61c.11-.12-.11-.25-.48-.28h-.14m-103.84-3.6h-.07c-.39,0-.7.11-.7.23a5.84,5.84,0,0,0,.34,1.68c0,.12.31.19.65.2h.13c.39,0,.68-.13.64-.26a5.56,5.56,0,0,1-.33-1.63c0-.12-.29-.22-.66-.22m105.71.28c-.39,0-.73.09-.77.21v0a6.91,6.91,0,0,1-.67,1.64c-.07.12.18.24.57.26h.07c.36,0,.7-.08.76-.19a6.89,6.89,0,0,0,.7-1.68v0c0-.13-.26-.23-.66-.24m-104.86-3.6c-.36,0-.68.07-.75.19a6.53,6.53,0,0,0-.68,1.66v0c0,.12.26.22.65.23s.74-.1.78-.23a6.67,6.67,0,0,1,.66-1.61c.07-.12-.18-.24-.57-.26h-.08m104.7.28h-.14c-.39,0-.67.13-.63.26a5.56,5.56,0,0,1,.33,1.63c0,.12.29.22.66.22h.07c.39,0,.71-.11.7-.24a5.58,5.58,0,0,0-.34-1.68c0-.11-.32-.19-.65-.19M45.23,107.3a1.26,1.26,0,0,0-.73.15,14.55,14.55,0,0,0-1.69,1.61c-.11.12.11.25.49.28h.14a1.11,1.11,0,0,0,.74-.17,15.63,15.63,0,0,1,1.65-1.57c.15-.11,0-.25-.4-.29h-.2m99.65.26-.28,0c-.37,0-.58.17-.46.29a9.91,9.91,0,0,1,1.33,1.57c.06.1.33.17.64.18h.21c.38,0,.63-.15.54-.27a9.91,9.91,0,0,0-1.36-1.62,1.08,1.08,0,0,0-.62-.16M50,104.3a1.75,1.75,0,0,0-.66.11c-.94.48-1.83,1-2.63,1.48-.18.12,0,.26.31.31l.26,0a1.37,1.37,0,0,0,.7-.13c.78-.49,1.64-1,2.56-1.44.22-.1.13-.25-.21-.31l-.33,0m90.77.25a2.69,2.69,0,0,0-.4,0c-.35.06-.47.2-.28.31a22.83,22.83,0,0,1,2.27,1.46,1.37,1.37,0,0,0,.6.13l.34,0c.36-.06.53-.19.37-.31a26.1,26.1,0,0,0-2.33-1.49,1.25,1.25,0,0,0-.57-.11m-84.3-2.9a1.64,1.64,0,0,0-.57.08c-1.22.41-2.39.84-3.48,1.29-.25.1-.19.24.11.32a2.32,2.32,0,0,0,.38,0,1.91,1.91,0,0,0,.63-.09c1.06-.44,2.19-.86,3.38-1.26.27-.1.26-.24,0-.33a1.4,1.4,0,0,0-.43-.06m78.39.21a2.12,2.12,0,0,0-.52.06c-.3.08-.34.23-.08.32,1.1.41,2.15.84,3.12,1.28a1.31,1.31,0,0,0,.52.09,1.79,1.79,0,0,0,.47,0c.32-.07.41-.22.18-.32-1-.45-2.07-.89-3.2-1.31a1.4,1.4,0,0,0-.49-.08M64.35,99.44a2.25,2.25,0,0,0-.46,0c-1.44.33-2.85.69-4.18,1.06-.3.09-.34.23-.08.32a1.34,1.34,0,0,0,.48.08,1.46,1.46,0,0,0,.52-.06c1.3-.36,2.67-.71,4.07-1,.33-.07.41-.21.18-.32a1.53,1.53,0,0,0-.53-.09m63,.17a1.45,1.45,0,0,0-.62.09c-.25.1-.19.24.11.32,1.33.33,2.63.68,3.85,1a1.51,1.51,0,0,0,.44.06,1.68,1.68,0,0,0,.57-.07c.28-.09.27-.24,0-.32-1.26-.38-2.59-.75-4-1.09a2.22,2.22,0,0,0-.38,0m-54-1.86-.34,0c-1.61.24-3.19.5-4.72.79-.35.06-.47.2-.28.31a1.21,1.21,0,0,0,.56.11,1.39,1.39,0,0,0,.41,0c1.49-.28,3-.53,4.6-.76.36-.06.52-.19.37-.31a1.37,1.37,0,0,0-.6-.13m45.24.12A1.41,1.41,0,0,0,118,98c-.19.11,0,.25.3.31,1.52.23,3,.5,4.44.78l.33,0a1.75,1.75,0,0,0,.66-.11c.21-.11.12-.25-.21-.32-1.48-.29-3-.56-4.56-.81l-.27,0M83.3,96.66h-.21c-1.71.13-3.43.29-5.09.48-.37,0-.58.17-.46.29a1,1,0,0,0,.62.15,1.31,1.31,0,0,0,.28,0c1.62-.18,3.29-.33,5-.46.39,0,.63-.16.55-.28a.92.92,0,0,0-.64-.17m25.71.07a1.15,1.15,0,0,0-.75.17c-.1.12.12.25.49.28,1.64.13,3.27.3,4.86.49h.2a1.21,1.21,0,0,0,.72-.15c.15-.12,0-.25-.4-.29-1.63-.2-3.3-.36-5-.51H109M93.6,96.2h-.06c-1.75,0-3.52.07-5.25.15-.4,0-.68.13-.63.26s.32.19.65.19h.13c1.69-.07,3.41-.12,5.12-.14.39,0,.71-.11.71-.24s-.3-.21-.67-.22m5.31,0H98.8c-.39,0-.74.09-.77.22s.26.23.65.24h.09c1.67,0,3.35.09,5,.18h.07c.36,0,.7-.08.76-.19s-.19-.25-.57-.27c-1.69-.08-3.41-.14-5.11-.17" transform="translate(-14.84 -91.07)"/><path class="cls-279" d="M93.93,117.83a56.86,56.86,0,0,1-7,1.12q-3.23.31-6.68.31a65.61,65.61,0,0,1-9.18-.61,45.78,45.78,0,0,1-7.6-1.67,17.73,17.73,0,0,1-5.16-2.47,3.35,3.35,0,0,1,0-6A18.26,18.26,0,0,1,63.46,106a45.78,45.78,0,0,1,7.6-1.67,67.17,67.17,0,0,1,9.18-.61q3.45,0,6.65.32c.79.08,1.61.16,2.37.26.36,0,.77.14.77.14l-.13,0a12.63,12.63,0,0,0-1.21.5,5.78,5.78,0,0,0-1,.58,4.22,4.22,0,0,0-.72.65,3.74,3.74,0,0,0-.47.73,1.94,1.94,0,0,0-.21.79c0,.08,0,.17,0,.25s-.69-.15-1.1-.21a38.78,38.78,0,0,0-5-.36,33.79,33.79,0,0,0-4.75.32,23.56,23.56,0,0,0-3.89.86A8.75,8.75,0,0,0,69,109.9a1.81,1.81,0,0,0,0,3.19,8.75,8.75,0,0,0,2.62,1.29,22.58,22.58,0,0,0,3.89.86,32.35,32.35,0,0,0,4.75.32,37.7,37.7,0,0,0,8.36-1c2-.47,3.48-.93,5.36-1.44a51.57,51.57,0,0,1,14-1.52l18.18,0v4.12H105.67v6.72L94,122.44v-4.62Z" transform="translate(-14.84 -91.07)"/><path class="cls-280" d="M91.64,111.3V109h0c0-3.06,4.93-4.85,14.44-4.85h22.07a2,2,0,0,1,2,2v0a2,2,0,0,1-2,2H106.28c-2.29,0-3.12.46-3.12,1.24v.35a57,57,0,0,0-9.2,1.07C93.13,111,91.64,111.3,91.64,111.3Z" transform="translate(-14.84 -91.07)"/></g></g></svg>