<svg id="Layer_1" data-name="Layer 1" xmlns="http://www.w3.org/2000/svg" xmlns:xlink="http://www.w3.org/1999/xlink" viewBox="0 0 118.91 128.81"><defs><style>.cls-1{fill:none;}.cls-2{fill:#ef712b;}.cls-3{clip-path:url(#clip-path);}</style><clipPath id="clip-path" transform="translate(-55.51 -44.08)"><rect class="cls-1" x="69.21" y="62.3" width="40.11" height="91.22"/></clipPath></defs><path class="cls-2" d="M108.12,155c3.07,0,6.15,0,9.22,0a2.12,2.12,0,0,1,2,3.09,2.21,2.21,0,0,1-2.16,1.2H99.13a2.21,2.21,0,0,1-2.45-1.93A2.1,2.1,0,0,1,98.9,155C102,155,105.05,155,108.12,155Z" transform="translate(-55.51 -44.08)"/><path class="cls-2" d="M108.09,161.82c3.1,0,6.2,0,9.3,0a2.11,2.11,0,0,1,2,3,2.18,2.18,0,0,1-2.17,1.29H99.08a2.18,2.18,0,0,1-2.4-2,2.1,2.1,0,0,1,2.2-2.31C102,161.8,105,161.82,108.09,161.82Z" transform="translate(-55.51 -44.08)"/><path class="cls-2" d="M135.81,66.55a7.06,7.06,0,0,1,.85-1.47c2.83-2.89,5.7-5.74,8.57-8.59a2.11,2.11,0,0,1,3.09-.08,2.15,2.15,0,0,1,0,3.1q-4.31,4.34-8.63,8.63a2.07,2.07,0,0,1-2.4.5A2.48,2.48,0,0,1,135.81,66.55Z" transform="translate(-55.51 -44.08)"/><path class="cls-2" d="M80.82,121.5a2.29,2.29,0,0,1,2.25,1.16,2,2,0,0,1-.13,2.18,4,4,0,0,1-.51.58c-2.74,2.75-5.49,5.51-8.26,8.24a3,3,0,0,1-1.28.78,2,2,0,0,1-2.3-1,2,2,0,0,1,.25-2.49c.56-.63,1.18-1.21,1.77-1.81,2.26-2.26,4.51-4.54,6.8-6.77A7,7,0,0,1,80.82,121.5Z" transform="translate(-55.51 -44.08)"/><path class="cls-2" d="M63.87,98.82c-2.1,0-4.2,0-6.3,0a2,2,0,0,1-2-1.46,1.94,1.94,0,0,1,.67-2.26,2.93,2.93,0,0,1,1.55-.52q6-.06,12,0a2.15,2.15,0,1,1,0,4.28c-2,0-3.94,0-5.91,0Z" transform="translate(-55.51 -44.08)"/><path class="cls-2" d="M110.24,52.45c0,2.07,0,4.15,0,6.22a2,2,0,0,1-1.52,2,2.1,2.1,0,0,1-2.4-.94A3,3,0,0,1,106,58.4q0-6,0-12a2.15,2.15,0,1,1,4.28,0c0,2,0,4,0,6Z" transform="translate(-55.51 -44.08)"/><path class="cls-2" d="M166.08,98.82c-2.07,0-4.15,0-6.22,0a2,2,0,0,1-1.94-1.37,1.86,1.86,0,0,1,.5-2.24,2.7,2.7,0,0,1,1.58-.63c4.07-.06,8.15,0,12.22,0a2.14,2.14,0,1,1-.07,4.27c-2,0-4.05,0-6.07,0Z" transform="translate(-55.51 -44.08)"/><path class="cls-2" d="M83.34,69.46a2.31,2.31,0,0,1-1.22,2.21,2,2,0,0,1-2.24-.23,8.93,8.93,0,0,1-.84-.79l-8-8a2.14,2.14,0,0,1-.66-2.3,1.84,1.84,0,0,1,1.71-1.43,2.72,2.72,0,0,1,1.8.58c3,2.86,5.87,5.79,8.76,8.73A4.86,4.86,0,0,1,83.34,69.46Z" transform="translate(-55.51 -44.08)"/><path class="cls-2" d="M151.24,133.54a2.24,2.24,0,0,1,1.25-2.26,2,2,0,0,1,2.23.28,17.69,17.69,0,0,1,1.32,1.28l7.39,7.38a2.33,2.33,0,0,1,.82,1.82,2,2,0,0,1-1.12,1.79,2,2,0,0,1-2.19-.11,2.75,2.75,0,0,1-.52-.45c-2.79-2.78-5.59-5.55-8.34-8.37A5.78,5.78,0,0,1,151.24,133.54Z" transform="translate(-55.51 -44.08)"/><path class="cls-2" d="M108.12,172.89c-1.45,0-2.91,0-4.37,0a2.17,2.17,0,1,1,0-4.3h8.82a2.16,2.16,0,1,1,0,4.3C111.09,172.9,109.61,172.89,108.12,172.89Z" transform="translate(-55.51 -44.08)"/><path class="cls-2" d="M109.69,152.47c3.75,0,6.29-.81,8-2.56a7.51,7.51,0,0,0,1.8-3.2,9,9,0,0,0,5.57,1.71,14.56,14.56,0,0,0,12.36-7.21,10,10,0,0,0,.66-7.73,9.51,9.51,0,0,0,1.19.08c3.84,0,7.31-2.6,9.79-7.33a36.23,36.23,0,0,0,3.54-16.4,36,36,0,0,0-3.54-16.4c-2.48-4.73-6-7.34-9.79-7.34h0a8,8,0,0,0-1.19.09,10,10,0,0,0-.66-7.74,14.56,14.56,0,0,0-12.36-7.21,9,9,0,0,0-5.57,1.71,7.54,7.54,0,0,0-1.8-3.19c-1.7-1.75-4.24-2.57-8-2.57a1.56,1.56,0,0,0-1.56,1.56v82.17A1.56,1.56,0,0,0,109.69,152.47Zm1.56-82.11a6.35,6.35,0,0,1,4.19,1.56c1,1,1.45,2.72,1.37,5.15a1.57,1.57,0,0,0,1.28,1.59l.28,0a1.57,1.57,0,0,0,1.48-1.06c.92-2.7,3.34-3.26,5.2-3.27a11.42,11.42,0,0,1,9.59,5.54c1.33,2.52,1,5.36-1,8.19a1.56,1.56,0,0,0,2.09,2.22,6.82,6.82,0,0,1,3.5-1.09c2.62,0,5.11,2,7,5.66a33.11,33.11,0,0,1,3.18,15,8.43,8.43,0,0,1-16.85,0,1.56,1.56,0,1,0-3.12,0,11.54,11.54,0,0,0,19,8.81c-1.64,7-5.16,11.8-9.23,11.8a6.63,6.63,0,0,1-3.19-.91,8.76,8.76,0,0,0-15.82,5.21,1.56,1.56,0,0,0,3.12,0,5.65,5.65,0,0,1,10.17-3.39,1.59,1.59,0,0,0,.13.22c2,2.83,2.3,5.67,1,8.19a11.42,11.42,0,0,1-9.59,5.54c-1.86,0-4.28-.57-5.2-3.27a1.56,1.56,0,0,0-3,.55c.08,2.44-.37,4.12-1.37,5.15a6.3,6.3,0,0,1-4.19,1.56Z" transform="translate(-55.51 -44.08)"/><path class="cls-2" d="M144.24,96a1.56,1.56,0,0,0,0-2.21,1.58,1.58,0,0,0-2.21,0,8.42,8.42,0,1,1-11.91-11.91,1.56,1.56,0,0,0,0-2.21,1.6,1.6,0,0,0-1.11-.46,1.58,1.58,0,0,0-1.1.46A11.55,11.55,0,1,0,144.24,96Z" transform="translate(-55.51 -44.08)"/><path class="cls-2" d="M114.42,109.88a11.34,11.34,0,0,0,1.82,6.17,1.76,1.76,0,0,0,.36.58l.15.15c.22.29.45.57.7.84a8.33,8.33,0,0,1-.85,10.78,1.56,1.56,0,0,0,2.21,2.2,11.4,11.4,0,0,0,3.19-9.95,11.51,11.51,0,0,0,3.86.67,1.56,1.56,0,1,0,0-3.12,8.3,8.3,0,0,1-6-2.59c-.22-.29-.45-.57-.7-.84a8.31,8.31,0,0,1,6.72-13.21,1.56,1.56,0,1,0,0-3.12,11.92,11.92,0,0,0-2.25.22h0a8.33,8.33,0,0,1-8.32-8.32,1.56,1.56,0,0,0-3.12,0,11.46,11.46,0,0,0,6.79,10.45A11.42,11.42,0,0,0,114.42,109.88Z" transform="translate(-55.51 -44.08)"/><g class="cls-3"><path class="cls-2" d="M108.13,152.18c-1.84,0-3.69-.07-5.53,0a8,8,0,0,1-8.3-8.3,43.81,43.81,0,0,0-.51-8.41,25,25,0,0,0-7.37-13.79,32.79,32.79,0,0,1-7.29-10.63,31.24,31.24,0,0,1,7.34-34.88,30.62,30.62,0,0,1,23-8.7,31.27,31.27,0,0,1,29.25,24.57c2.37,11.09-.45,20.88-8.4,29a28.12,28.12,0,0,0-7.59,12.59,28.44,28.44,0,0,0-.89,7,40,40,0,0,1-.16,5.14,7.55,7.55,0,0,1-7.14,6.37c-2.15.06-4.31,0-6.46,0Zm0-5.72c2,0,3.9,0,5.84,0a2.06,2.06,0,0,0,2.2-2.15c0-.79,0-1.59,0-2.38a32.31,32.31,0,0,1,10.22-25c6.72-6.86,8.93-15.19,6.56-24.48a25.7,25.7,0,1,0-49.16,14.9,29.35,29.35,0,0,0,7.11,10.8,31.61,31.61,0,0,1,8.58,16.43,50.28,50.28,0,0,1,.57,9.57,2.08,2.08,0,0,0,2.31,2.33Z" transform="translate(-55.51 -44.08)"/></g></svg>