<svg id="Layer_1" data-name="Layer 1" xmlns="http://www.w3.org/2000/svg" xmlns:xlink="http://www.w3.org/1999/xlink" viewBox="0 0 124 111.74"><defs><style>.cls-1,.cls-6{fill:none;}.cls-2{fill:#8c8cf9;}.cls-3{opacity:0.3;}.cls-4{clip-path:url(#clip-path);}.cls-5{clip-path:url(#clip-path-2);}.cls-6{stroke:#8c8cf9;stroke-miterlimit:10;stroke-width:3px;}</style><clipPath id="clip-path" transform="translate(-45.52 -52.61)"><rect class="cls-1" x="96.07" y="59.59" width="56.76" height="72.26"/></clipPath><clipPath id="clip-path-2" transform="translate(-45.52 -52.61)"><rect class="cls-1" x="45.96" y="57.49" width="50.12" height="67.74"/></clipPath></defs><path class="cls-2" d="M144.62,147.39c-6.47,0-12.93,0-19.39,0-3.85,0-5.4-1.5-5.41-5.32q-.06-13.87,0-27.75c0-4.58,1.79-5.91,6.29-4.87a80.08,80.08,0,0,0,38.13-.28c2.89-.73,4.52.33,5.1,3.29a11.49,11.49,0,0,1,.17,2.19q0,13.52,0,27c0,4.31-1.44,5.73-5.75,5.74Q154.19,147.41,144.62,147.39Zm.09-9.1c.9,0,1.8-.07,2.69,0,2.3.22,2.67-.86,2.07-2.8-.53-1.71-.87-3.49-1.41-5.2a3,3,0,0,1,.67-3.48,5.15,5.15,0,0,0-.43-7.46,5.41,5.41,0,0,0-7.35.07,5.19,5.19,0,0,0-.31,7.47,2.72,2.72,0,0,1,.65,3.25c-.33.92-.47,1.9-.72,2.85C139,138.94,138.75,138.26,144.71,138.29Z" transform="translate(-45.52 -52.61)"/><path class="cls-2" d="M134.86,107.2c-2.36-.44-4.43-.77-6.47-1.23-.41-.1-1-.72-1-1.08.19-4.4-.24-9,.88-13.14,2.26-8.4,10.85-13.35,19.72-12.23a18.06,18.06,0,0,1,15.43,16.63c.17,2.53,0,5.08.13,7.61.07,1.39-.59,1.89-1.78,2.1-1.85.33-3.68.7-5.9,1.12,0-3.26.09-6.34,0-9.42a10.5,10.5,0,0,0-7.33-10c-4.15-1.33-9,0-11.34,3.66A16.59,16.59,0,0,0,135,98C134.57,100.93,134.86,103.89,134.86,107.2Z" transform="translate(-45.52 -52.61)"/><path class="cls-2" d="M98,133.69a1.9,1.9,0,1,1-3.79,0V54.61a1.9,1.9,0,1,1,3.79,0Z" transform="translate(-45.52 -52.61)"/><g class="cls-3"><g class="cls-4"><path class="cls-2" d="M49.77,93.56c7.77-7.94,15.2-15.32,24.17-20.9,16.36-10.18,32.74-9.67,49,.22,8.8,5.34,15.93,12.6,22.61,20.34a3.71,3.71,0,0,1,.3.51c-3.81,3.63-7.58,7.37-11.5,10.94a67.86,67.86,0,0,1-18.61,12.56C101,123.59,86.85,122.3,73.27,114c-6.2-3.82-11.4-8.86-16.56-13.93C54.49,97.84,52.16,95.77,49.77,93.56Zm68.14-.19a19.95,19.95,0,1,0-20.13,19.81A20,20,0,0,0,117.91,93.37Z" transform="translate(-45.52 -52.61)"/><path class="cls-2" d="M109.81,93.46c.32,5.29-4.42,11.62-11.45,11.8A11.91,11.91,0,0,1,86,92.7C86.4,85.14,93,81.05,97.79,81.38,95.92,85.14,96,88.75,99,91.87,102.08,95.16,105.83,95.37,109.81,93.46Z" transform="translate(-45.52 -52.61)"/></g></g><g class="cls-5"><path class="cls-2" d="M49.77,93.56c7.77-7.94,15.2-15.32,24.17-20.9,16.36-10.18,32.74-9.67,49,.22,8.8,5.34,15.93,12.6,22.61,20.34a3.71,3.71,0,0,1,.3.51c-3.81,3.63-7.58,7.37-11.5,10.94a67.86,67.86,0,0,1-18.61,12.56C101,123.59,86.85,122.3,73.27,114c-6.2-3.82-11.4-8.86-16.56-13.93C54.49,97.84,52.16,95.77,49.77,93.56Zm68.14-.19a19.95,19.95,0,1,0-20.13,19.81A20,20,0,0,0,117.91,93.37Z" transform="translate(-45.52 -52.61)"/><path class="cls-2" d="M109.81,93.46c.32,5.29-4.42,11.62-11.45,11.8A11.91,11.91,0,0,1,86,92.7C86.4,85.14,93,81.05,97.79,81.38,95.92,85.14,96,88.75,99,91.87,102.08,95.16,105.83,95.37,109.81,93.46Z" transform="translate(-45.52 -52.61)"/></g><path class="cls-6" d="M145.13,142.5v15.34a5,5,0,0,1-5,5H52a5,5,0,0,1-5-5V137a5,5,0,0,1,5-5H124.9" transform="translate(-45.52 -52.61)"/><path class="cls-2" d="M63.8,156.4V152a9,9,0,0,1,.06-1,4,4,0,0,1,.22-1,5,5,0,0,1-.74.64c-.27.19-.56.37-.87.56l-3.71,2.16-1.83-3,3.71-2.17c.33-.18.65-.34,1-.48a4.91,4.91,0,0,1,1-.3,5,5,0,0,1-1-.32,10,10,0,0,1-1-.5l-3.71-2.21,1.83-3,3.71,2.24c.31.19.6.38.88.57a4.73,4.73,0,0,1,.75.65,6,6,0,0,1-.3-2v-4.45h3.71v4.4a7,7,0,0,1-.07,1,5.06,5.06,0,0,1-.21,1,4.65,4.65,0,0,1,.74-.65c.26-.19.55-.38.86-.57l3.71-2.19,1.83,3.05-3.71,2.16c-.34.19-.67.35-1,.49a6.22,6.22,0,0,1-1,.3,5.52,5.52,0,0,1,1,.32,10,10,0,0,1,1,.49l3.71,2.22-1.83,3-3.71-2.21c-.32-.19-.62-.38-.89-.57a5.92,5.92,0,0,1-.76-.65,5.6,5.6,0,0,1,.33,2v4.44Z" transform="translate(-45.52 -52.61)"/><path class="cls-2" d="M84.13,156.4V152a9,9,0,0,1,.06-1,4.51,4.51,0,0,1,.22-1,4.54,4.54,0,0,1-.74.64c-.27.19-.56.37-.87.56l-3.71,2.16-1.83-3L81,148.19q.48-.27,1-.48a4.91,4.91,0,0,1,1-.3,5,5,0,0,1-1-.32,8.81,8.81,0,0,1-1-.5l-3.72-2.21,1.83-3,3.71,2.24c.31.19.6.38.88.57a4.73,4.73,0,0,1,.75.65,6,6,0,0,1-.3-2v-4.45h3.71v4.4a8.69,8.69,0,0,1-.06,1,6,6,0,0,1-.22,1,4.65,4.65,0,0,1,.74-.65c.27-.19.56-.38.86-.57l3.71-2.19,1.83,3.05L91,146.59c-.34.19-.67.35-1,.49a6.22,6.22,0,0,1-1,.3,5.52,5.52,0,0,1,1,.32,10,10,0,0,1,1,.49l3.71,2.22-1.83,3-3.71-2.21c-.32-.19-.62-.38-.89-.57a5.92,5.92,0,0,1-.76-.65,5.6,5.6,0,0,1,.33,2v4.44Z" transform="translate(-45.52 -52.61)"/><path class="cls-2" d="M104.46,156.4V152a9,9,0,0,1,.06-1,4.51,4.51,0,0,1,.22-1,4.54,4.54,0,0,1-.74.64c-.27.19-.56.37-.87.56l-3.71,2.16-1.82-3,3.71-2.17q.48-.27,1-.48a4.91,4.91,0,0,1,1-.3,5,5,0,0,1-1-.32,8.81,8.81,0,0,1-1-.5l-3.71-2.21,1.82-3,3.71,2.24c.31.19.6.38.88.57a4.73,4.73,0,0,1,.75.65,6,6,0,0,1-.3-2v-4.45h3.71v4.4a8.69,8.69,0,0,1-.06,1,6,6,0,0,1-.22,1,4.65,4.65,0,0,1,.74-.65c.27-.19.56-.38.86-.57l3.71-2.19,1.83,3.05-3.71,2.16c-.34.19-.67.35-1,.49a5.92,5.92,0,0,1-1,.3,5.52,5.52,0,0,1,1,.32,10,10,0,0,1,1,.49l3.71,2.22-1.83,3-3.71-2.21c-.32-.19-.62-.38-.89-.57a5.92,5.92,0,0,1-.76-.65,5.6,5.6,0,0,1,.33,2v4.44Z" transform="translate(-45.52 -52.61)"/><path class="cls-2" d="M124.79,156.4V152a9,9,0,0,1,.06-1,4.51,4.51,0,0,1,.22-1,4.54,4.54,0,0,1-.74.64c-.27.19-.56.37-.86.56l-3.72,2.16-1.82-3,3.71-2.17q.48-.27,1-.48a4.91,4.91,0,0,1,1-.3,5,5,0,0,1-1-.32,8.81,8.81,0,0,1-1-.5l-3.71-2.21,1.82-3,3.72,2.24.87.57a4.73,4.73,0,0,1,.75.65,6,6,0,0,1-.3-2v-4.45h3.71v4.4a8.69,8.69,0,0,1-.06,1,6,6,0,0,1-.22,1,5.14,5.14,0,0,1,.74-.65c.27-.19.56-.38.86-.57l3.71-2.19,1.83,3.05-3.71,2.16c-.34.19-.67.35-1,.49a5.92,5.92,0,0,1-1,.3,5.52,5.52,0,0,1,1,.32,10,10,0,0,1,1,.49l3.71,2.22-1.83,3-3.71-2.21c-.32-.19-.62-.38-.89-.57a5.92,5.92,0,0,1-.76-.65,5.6,5.6,0,0,1,.33,2v4.44Z" transform="translate(-45.52 -52.61)"/></svg>