<svg id="Layer_1" data-name="Layer 1" xmlns="http://www.w3.org/2000/svg" viewBox="0 0 131.09 158.43"><defs><style>.cls-1{fill:#be1e2d;}</style></defs><path class="cls-1" d="M0,78.93V12.5C0,3,3,0,12.73,0H119.14c8.75,0,11.93,3.13,11.93,11.89,0,35.05.06,70.1-.1,105.15a10.23,10.23,0,0,1-2.62,6.45Q112.44,139.92,96,155.85a9.58,9.58,0,0,1-6,2.46c-26.24.16-52.48.12-78.72.1C3.42,158.41,0,155.06,0,147.12Q0,113,0,78.93Zm84.18,69.83V124.52c0-10,2.8-12.86,12.73-12.87h24.54V9.76H9.64v139ZM94,121.13V143.2l21.83-22.07Z" transform="translate(0.01 0)"/><path class="cls-1" d="M44.33,39.24v51H24.14a7.34,7.34,0,0,1-.48-1.84c0-13-.08-26,0-39.06,0-1.14.53-2.82,1.37-3.33C30.9,42.45,37,39.45,44.33,39.24Z" transform="translate(0.01 0)"/><path class="cls-1" d="M80,90.27c0-5.8-.08-11.62,0-17.43.11-6.26-1.43-13.42,1.12-18.5s9.18-7.79,14.1-11.46a53.37,53.37,0,0,1,5.32-3V90.31Z" transform="translate(0.01 0)"/><path class="cls-1" d="M72.69,90.4H52.1V40.18c3.32,2.45,6.1,4.4,8.77,6.49q5.33,4.17,10.49,8.57a3.75,3.75,0,0,1,1.28,2.4C72.72,68.44,72.69,79.24,72.69,90.4Z" transform="translate(0.01 0)"/><path class="cls-1" d="M79.37,43.2c5.79-3.36,11-6.29,16.13-9.46a7.94,7.94,0,0,0,2.69-3.5c1.42-3.18,3.67-4.73,7-3.44,2.76,1.07,4.11,3.45,2.91,6.41-1.31,3.22-3.72,4.15-7.15,3a6,6,0,0,0-4.25.36C91.79,39.19,87,42,82.25,44.93c-1.3.8-2.1,2.38-3.39,3.2-1.6,1-3.63,2.47-5.18,2.18s-2.91-2.39-4.19-3.83-2-3.4-3.49-4.37c-4.39-2.88-9-5.39-13.66-8.1-3.17,3-6.26,4.05-9.58.42-.43-.47-1.86-.32-2.71-.07A50.09,50.09,0,0,0,32.62,37a7.17,7.17,0,0,0-3.06,3.06c-1.58,3.11-3.8,4.51-7.09,3.09a4.62,4.62,0,0,1-2.89-5.87,4.34,4.34,0,0,1,.3-.7c1.4-3.25,4-3.91,7.28-2.52,1,.42,2.31.84,3.15.48,4.7-2,10.27-2,13.73-6.86,1.74-2.49,5-1,7.62,1,6,4.52,12.2,9,18.92,12.17C72.9,42,77,39.48,79.37,43.2Z" transform="translate(0.01 0)"/><path class="cls-1" d="M68.91,109.12v9.14c-1.32.1-2.58.26-3.84.26H24.26c-2.83-.28-4.82-1.68-4.79-4.66,0-3.17,2-4.7,5.13-4.7H68.91Z" transform="translate(0.01 0)"/><path class="cls-1" d="M68.87,126.28v9.3H24.51c-2.93,0-4.83-1.38-5-4.34s1.57-4.87,4.44-4.9C38.8,126.21,53.68,126.28,68.87,126.28Z" transform="translate(0.01 0)"/></svg>