<svg id="Layer_1" data-name="Layer 1" xmlns="http://www.w3.org/2000/svg" xmlns:xlink="http://www.w3.org/1999/xlink" viewBox="0 0 91.24 115.97"><defs><style>.cls-1{fill:none;}.cls-2{fill:#553a8b;}.cls-3{clip-path:url(#clip-path);}</style><clipPath id="clip-path" transform="translate(-0.02 -0.02)"><path class="cls-1" d="M82,35.92a65.12,65.12,0,0,1-7.08,18.56c-3.08,5.41-7.12,9.81-11.26,14.11C58.45,74,47.05,80.65,45.52,80.75,44.3,80.84,32.67,73,32.67,73A59,59,0,0,1,16,54.07,66,66,0,0,1,9,34.65L-2.24,38.13v80.48H94.81L93.5,38.13Z"/></clipPath></defs><path class="cls-2" d="M13.81,12c12.19.26,23-2.86,31.72-12C54.19,9.19,65.1,12.31,77.27,12a68.56,68.56,0,0,1,.56,11,64.92,64.92,0,0,1-8.74,31.25A58,58,0,0,1,47.76,75.12c-.74.43-1.49,1.16-2.23,1.15s-1.54-.74-2.3-1.18A58.38,58.38,0,0,1,21.62,53.66,63.23,63.23,0,0,1,14.07,32,68.67,68.67,0,0,1,13.65,13C13.69,12.72,13.76,12.42,13.81,12ZM45.52,4.76,45.19,5A37.35,37.35,0,0,1,33,12.4a45.83,45.83,0,0,1-15.48,3c-.56,0-.74.2-.74.73s-.11,1.2-.13,1.8a64.86,64.86,0,0,0,4.81,27.73A54.44,54.44,0,0,0,45,72.24a.87.87,0,0,0,1,0,54.86,54.86,0,0,0,19.73-19C72,43,74.54,31.74,74.45,19.83c0-1.44-.13-2.88-.21-4.34C63.4,15.12,53.7,12.05,45.52,4.76Z" transform="translate(-0.02 -0.02)"/><path class="cls-2" d="M20,18.24c9.53-.47,18.13-3.31,25.54-9.43,1,.74,2,1.52,3,2.22A41.62,41.62,0,0,0,68,18c.87.09,1.74.13,2.62.19.36,0,.59.11.61.56.54,14-2.74,26.91-11.61,38.06A50,50,0,0,1,46.25,68.39a1.14,1.14,0,0,1-1.4,0c-12.55-7.67-20.3-18.76-23.55-33A58,58,0,0,1,19.91,19ZM43.23,38.36l-5.66-5.65A1.83,1.83,0,0,0,35,32.53l-.18.18c-.94.93-1.87,1.86-2.79,2.8a1.8,1.8,0,0,0-.31,2.54,1.52,1.52,0,0,0,.31.31L42.24,48.59a1.83,1.83,0,0,0,2.58.18l.18-.18L62.62,31A1.85,1.85,0,0,0,63,28.4a2,2,0,0,0-.38-.38L60,25.42a1.88,1.88,0,0,0-2.63-.37,1.85,1.85,0,0,0-.37.37q-6.5,6.41-13,12.89a4.54,4.54,0,0,0-.39.48C43.47,38.59,43.34,38.48,43.23,38.36Z" transform="translate(-0.02 -0.02)"/><g class="cls-3"><path class="cls-2" d="M81.7,114.15V116H72.29l-.16-1.76h-53L18.93,116H9.54l-.09-1.75c-1-.08-2-.07-3-.23A7.51,7.51,0,0,1,0,106.58V46.49c0-5.22,3.14-8.36,8.37-8.36H82.86c5.22,0,8.35,3.15,8.35,8.39,0,19.68-.07,39.35.05,59,0,5.1-3.5,8.94-8.6,8.61Zm-36.09-3.79H82.76c3.21,0,4.62-1.41,4.62-4.6V46.51c0-3.18-1.41-4.58-4.63-4.58H8.41c-3.21,0-4.61,1.4-4.61,4.6v59.24c0,3.19,1.41,4.59,4.63,4.59Z" transform="translate(-0.02 -0.02)"/><path class="cls-2" d="M45.49,47.63H78.9c2.26,0,2.82.55,2.82,2.78v51.47c0,2.19-.57,2.77-2.72,2.77H12.18c-2.1,0-2.69-.59-2.69-2.69V50.38c0-2.21.53-2.75,2.7-2.75Zm32.37,53.14V51.51H13.29v1.21c0,4.83.19,9.67-.07,14.49-.16,3,.46,5.46,3,7.22a2.28,2.28,0,0,1,.22.22,1.94,1.94,0,0,1,.27,2.73,1.72,1.72,0,0,1-.27.27c-.82.86-1.73,1.65-2.5,2.55a2.54,2.54,0,0,0-.64,1.53V99.8a4.86,4.86,0,0,0,.07,1Z" transform="translate(-0.02 -0.02)"/><path class="cls-2" d="M66.49,76.22C66.12,88,57.49,97,45.64,97,33.25,96.83,24.76,88,24.76,76.13S33.48,55.35,45.67,55.3,66.31,64.89,66.49,76.22ZM56.19,89.47a2,2,0,0,1,0-2.57C57,86,58,86.25,59,86.74a16.82,16.82,0,0,0,3.59-8.63c-1.06-.24-1.82-.73-1.89-1.86s.41-1.57,1.89-2.18A16.57,16.57,0,0,0,59,65.54c-1.22.75-2,.78-2.77.13s-.8-1.55-.07-3a16.89,16.89,0,0,0-8.62-3.58,1.94,1.94,0,0,1-1.88,1.84c-1.21,0-1.75-.81-2.06-1.85A16.74,16.74,0,0,0,35,62.73c.74,1.2.76,2,.11,2.77s-1.47.77-3,.08a16.6,16.6,0,0,0-3.55,8.58c1.1.25,1.82.83,1.83,1.93s-.75,1.73-1.84,2a16.83,16.83,0,0,0,3.72,8.74,1.89,1.89,0,0,1,2.6,0,2,2,0,0,1,.16,2.7,16.74,16.74,0,0,0,8.65,3.63c.25-1.1.84-1.85,2-1.86s1.69.8,2,1.81A15.54,15.54,0,0,0,56.19,89.47Z" transform="translate(-0.02 -0.02)"/><path class="cls-2" d="M55.08,76.17a9.48,9.48,0,1,1-9.46-9.5h0A9.49,9.49,0,0,1,55.08,76.17Zm-3.79,0a5.69,5.69,0,1,0-5.72,5.71,5.63,5.63,0,0,0,5.72-5.54v-.17Z" transform="translate(-0.02 -0.02)"/></g></svg>