<svg id="Layer_1" data-name="Layer 1" xmlns="http://www.w3.org/2000/svg" xmlns:xlink="http://www.w3.org/1999/xlink" viewBox="0 0 180.6 260.98"><defs><style>.cls-1{fill:none;}.cls-2{fill:#8353e0;}.cls-3{fill:#fff;}.cls-4{clip-path:url(#clip-path);}.cls-5{clip-path:url(#clip-path-2);}.cls-6{clip-path:url(#clip-path-3);}</style><clipPath id="clip-path" transform="translate(-59.32 -23.81)"><path class="cls-1" d="M175.78,127.91a53.57,53.57,0,0,0-9.67-48.59l10-12.09,17-7.25s22.55,1.62,23.28,1.62,21.59,8.31,22.31,9.67-.24,30.87,0,32.06-14,22.31-14,22.31l-26.59,9Z"/></clipPath><clipPath id="clip-path-2" transform="translate(-59.32 -23.81)"><path class="cls-1" d="M133.62,60.05A53.47,53.47,0,0,1,164.32,77l-2.8.34A39.14,39.14,0,0,1,195.36,55.7l-2-19.34L182.89,17l-38.54-5.93S122.59,21.8,123.22,23.81s4.06,21.25,4.52,22.9S133.62,60.05,133.62,60.05Z"/></clipPath><clipPath id="clip-path-3" transform="translate(-59.32 -23.81)"><path class="cls-1" d="M71.48,127.33a54.88,54.88,0,0,0,106.57-2.17l9.16,1.86,30,1.38,34.18,2.12L245.72,288.3H49.56l4.83-157.78Z"/></clipPath></defs><circle class="cls-2" cx="65.59" cy="88.19" r="46.39"/><path class="cls-3" d="M145.08,114.13a10.91,10.91,0,0,0-6.39-3.74,8.6,8.6,0,0,0,4.84-9.41,9.45,9.45,0,0,0-1.31-4.16,8.05,8.05,0,0,0-3-2.83,15.56,15.56,0,0,0-4.11-1.64,31,31,0,0,0-5.25-.82V82.37h-5.51v8.89h-4.45V82.37h-5.6v9.16H103v6h4a2.9,2.9,0,0,1,3.24,2.42v10.44h0V125a2,2,0,0,1-2,1.86h-4.11L103,133.5h11.25v9.28h5.6v-9.19h4.45v9.14h5.51v-9.28a42.7,42.7,0,0,0,5.3-.56,20.46,20.46,0,0,0,4.42-1.25,11.26,11.26,0,0,0,3.53-2.13,10,10,0,0,0,2.42-3.24,14.09,14.09,0,0,0,1.26-4.3,10.71,10.71,0,0,0-1.62-7.79ZM120,97.79h5.51a18.7,18.7,0,0,1,2.25.29,11.62,11.62,0,0,1,2,.6,5.18,5.18,0,0,1,1.74,1,4.88,4.88,0,0,1,1.11,1.52,4.63,4.63,0,0,1,.46,2.13,5.11,5.11,0,0,1-.34,1.86,3.41,3.41,0,0,1-1,1.4,10.25,10.25,0,0,1-1.35,1,6.59,6.59,0,0,1-1.76.67l-1.89.39a13.14,13.14,0,0,1-2,.19H120Zm15.3,24.8a4.45,4.45,0,0,1-.87,1.45,4.69,4.69,0,0,1-1.45,1.09,13.19,13.19,0,0,1-1.71.78,13.36,13.36,0,0,1-2,.5c-.8.15-1.48.25-2.08.32l-2.13.14h-5V114.71h6.58a22,22,0,0,1,2.68.32c.73.17,1.52.38,2.42.67a7.73,7.73,0,0,1,2.1,1.12,5.09,5.09,0,0,1,1.33,1.69,4.84,4.84,0,0,1,.56,2.42,4.61,4.61,0,0,1-.37,1.86Z" transform="translate(-59.32 -23.81)"/><g class="cls-4"><path class="cls-2" d="M229.45,94.86a32.16,32.16,0,1,1-32.18-32.13h0A32.16,32.16,0,0,1,229.45,94.86Zm-33.29,8.73,2-8.53L202,93.58V89.4l-2.83,1.06L202.37,77H191L186.8,95.18l-3.89,1.47v4.21l2.83-1.06-2.42,10.39h26.86l1.65-6.6Z" transform="translate(-59.32 -23.81)"/></g><g class="cls-5"><path class="cls-2" d="M185,48.49a24.66,24.66,0,1,1-24.66-24.68A24.67,24.67,0,0,1,185,48.49ZM158.86,38.27a6.08,6.08,0,0,0,.72,5,2.41,2.41,0,0,1-.77,3.33h0a2.42,2.42,0,0,1-3.33-.77c0-.05-.07-.11-.11-.17a6.34,6.34,0,0,0-7.44-2.91,6.09,6.09,0,0,0,1.4,11.92,6.35,6.35,0,0,0,6.17-3.24,2.41,2.41,0,0,1,3.26-1,1.75,1.75,0,0,1,.29.18,2.41,2.41,0,0,1,.62,3.36l0,0a5,5,0,0,0-.84,3.34,6.31,6.31,0,0,0,12.45.84,6,6,0,0,0-3-6.31,7.27,7.27,0,0,0-3.62-.94,2.42,2.42,0,1,1,0-4.83,6,6,0,0,0,4.66-2,5.72,5.72,0,0,0,1.14-6.53,5.82,5.82,0,0,0-5.15-3.72A6.39,6.39,0,0,0,158.86,38.27Z" transform="translate(-59.32 -23.81)"/></g><g class="cls-6"><path class="cls-2" d="M221.16,281.14v3.6H202.49l-.29-3.48H97.09l-.29,3.53H78.18L78,281.31c-2-.14-4-.14-6-.46a14.89,14.89,0,0,1-12.74-14.72v-119c0-10.35,6.24-16.59,16.59-16.59H223.38c10.33,0,16.54,6.24,16.54,16.61,0,39-.15,78,0,117,0,10.1-6.94,17.69-17,17Zm-71.52-7.52h73.67c6.36,0,9.14-2.78,9.14-9.11V147.13c0-6.31-2.78-9.09-9.16-9.09H76c-6.36,0-9.14,2.78-9.14,9.12V264.6c0,6.31,2.78,9.1,9.16,9.1Z" transform="translate(-59.32 -23.81)"/><path class="cls-2" d="M149.43,149.36H215.6c4.47,0,5.58,1.09,5.58,5.49v102c0,4.33-1.13,5.47-5.39,5.47H83.43c-4.16,0-5.35-1.16-5.35-5.32V154.8c0-4.38,1.07-5.44,5.37-5.44Zm64.11,105.28V157.05H85.63v2.41c0,9.67.36,19.15-.15,28.7-.34,6,.9,10.81,6,14.31a4.48,4.48,0,0,1,.92,5.85,4,4,0,0,1-.46.46c-1.62,1.72-3.43,3.27-4.84,5.05a5.17,5.17,0,0,0-1.25,3v35.78a11.47,11.47,0,0,0,.12,2Z" transform="translate(-59.32 -23.81)"/><path class="cls-2" d="M191,206c-.75,23.42-17.89,41.24-41.29,41.1-24.57-.17-41.49-17.72-41.46-41.27s17.28-41.1,41.43-41.27S190.65,183.54,191,206Zm-20.4,26.28a3.91,3.91,0,0,1,0-5.13c1.66-1.81,3.6-1.28,5.51-.29a33.18,33.18,0,0,0,7.11-17.11c-2.11-.46-3.61-1.43-3.75-3.68s.8-3.12,3.75-4.3A32.94,32.94,0,0,0,176,184.82c-2.41,1.5-4,1.55-5.49.27s-1.59-3.07-.14-5.88a33.12,33.12,0,0,0-17.07-7.1,3.82,3.82,0,0,1-3.72,3.65c-2.42,0-3.48-1.62-4.06-3.68a33.27,33.27,0,0,0-16.93,7.26c1.48,2.41,1.53,4.06.22,5.46s-2.9,1.55-5.9.17a32.91,32.91,0,0,0-7,16.92c2.15.51,3.58,1.65,3.6,3.82s-1.5,3.43-3.62,3.94a33.15,33.15,0,0,0,7.25,17.19,3.76,3.76,0,0,1,5.15,0,4,4,0,0,1,.31,5.37,33.43,33.43,0,0,0,17.14,7.25c.49-2.2,1.65-3.67,3.92-3.7s3.34,1.6,3.84,3.58A30.76,30.76,0,0,0,170.61,232.26Z" transform="translate(-59.32 -23.81)"/><path class="cls-2" d="M168.53,205.91a18.79,18.79,0,1,1-18.74-18.84h0A18.8,18.8,0,0,1,168.53,205.91Zm-7.52-.13a46.51,46.51,0,1,0-.12.17v-.17Z" transform="translate(-59.32 -23.81)"/></g></svg>