<svg id="Layer_1" data-name="Layer 1" xmlns="http://www.w3.org/2000/svg" xmlns:xlink="http://www.w3.org/1999/xlink" viewBox="0 0 83.01 100.77"><defs><style>.cls-1{fill:none;}.cls-2{clip-path:url(#clip-path);}.cls-3{fill:#ef712b;}.cls-4{fill:#fff;}.cls-5{clip-path:url(#clip-path-2);}.cls-6{clip-path:url(#clip-path-3);}</style><clipPath id="clip-path" transform="translate(-60.7 -62.13)"><rect class="cls-1" x="68.27" y="54.03" width="86.08" height="56.63"/></clipPath><clipPath id="clip-path-2" transform="translate(-60.7 -62.13)"><path class="cls-1" d="M118.51,111.09A25.25,25.25,0,0,0,114,88.23l4.7-5.66,8-3.4s10.6.77,10.94.77,10.16,3.91,10.49,4.58-.11,14.52,0,15.07-6.58,10.5-6.58,10.5l-12.51,4.24Z"/></clipPath><clipPath id="clip-path-3" transform="translate(-60.7 -62.13)"><path class="cls-1" d="M98.64,79.17a25.17,25.17,0,0,1,14.44,8l-1.32.16a18.43,18.43,0,0,1,15.89-10.17L126.73,68l-5-9.16-18.06-2.68s-10.27,5-9.93,6,1.9,10,2.12,10.77S98.64,79.17,98.64,79.17Z"/></clipPath></defs><g class="cls-2"><circle class="cls-3" cx="33.85" cy="41.47" r="21.82"/><path class="cls-4" d="M104,104.61a5.12,5.12,0,0,0-3-1.77,4,4,0,0,0,2.24-4.41,4.44,4.44,0,0,0-.62-2,3.89,3.89,0,0,0-1.42-1.34,8,8,0,0,0-1.93-.77A15.11,15.11,0,0,0,96.9,94V89.66H94.27v4.2l-2.09,0V89.66H89.54V94H84.25v2.8h1.9A1.37,1.37,0,0,1,87.68,98v4.91l.27,0h-.27v6.88a.92.92,0,0,1-1,.87h-1.9l-.53,3.13h5.29v4.37h2.64v-4.32l2.09,0v4.3H96.9v-4.37a20.49,20.49,0,0,0,2.49-.25,10.18,10.18,0,0,0,2.08-.6,5.28,5.28,0,0,0,1.66-1,4.6,4.6,0,0,0,1.11-1.52,6.29,6.29,0,0,0,.55-2.14,5,5,0,0,0-.77-3.66ZM92.23,97h1.6a7.42,7.42,0,0,1,1,0,8.1,8.1,0,0,1,1.06.14,5.38,5.38,0,0,1,.94.28,2.57,2.57,0,0,1,.82.48,2.47,2.47,0,0,1,.52.72,2.26,2.26,0,0,1,.22,1,2.41,2.41,0,0,1-.16.87,1.71,1.71,0,0,1-.46.66,5,5,0,0,1-.63.46,3.06,3.06,0,0,1-.83.32l-.89.19a9.11,9.11,0,0,1-.94.09l-.85,0H92.23V97Zm7.2,11.66a2.44,2.44,0,0,1-.42.68,2.31,2.31,0,0,1-.68.52,5.61,5.61,0,0,1-.81.36,6.87,6.87,0,0,1-1,.24c-.37.07-.7.11-1,.14s-.61.05-1,.07l-.9,0H92.23v-5.79H93c.45,0,.82,0,1.11,0s.68,0,1.18,0a10.94,10.94,0,0,1,1.26.15,9,9,0,0,1,1.13.32,3.33,3.33,0,0,1,1,.52,2.62,2.62,0,0,1,.63.79,2.45,2.45,0,0,1,.1,2Zm0,0" transform="translate(-60.7 -62.13)"/><g class="cls-5"><path class="cls-3" d="M143.7,95.55a15.12,15.12,0,1,1-15.11-15.11A15.11,15.11,0,0,1,143.7,95.55Zm-15.65,4.1.93-4L130.8,95V93l-1.32.5,1.45-6.32h-5.37l-2,8.55-1.82.69v2l1.33-.51L122,102.75h12.64l.77-3.1Z" transform="translate(-60.7 -62.13)"/></g><g class="cls-6"><path class="cls-3" d="M122.79,73.73a11.6,11.6,0,1,1-11.6-11.6A11.6,11.6,0,0,1,122.79,73.73Zm-12.34-4.8a2.84,2.84,0,0,0,.35,2.35,1.1,1.1,0,0,1-.37,1.57,1.14,1.14,0,0,1-1.61-.45,3,3,0,0,0-3.51-1.35,2.88,2.88,0,0,0-2,3.09A2.93,2.93,0,0,0,106,76.65a3,3,0,0,0,2.9-1.52,1.16,1.16,0,0,1,1.68-.41,1.13,1.13,0,0,1,.28,1.6,2.37,2.37,0,0,0-.4,1.57,3,3,0,0,0,5.86.39,2.84,2.84,0,0,0-1.35-3,3.18,3.18,0,0,0-1.7-.44,1.14,1.14,0,1,1,0-2.27,2.79,2.79,0,0,0,2.18-.92A2.69,2.69,0,0,0,116,68.6a2.75,2.75,0,0,0-2.43-1.75A3,3,0,0,0,110.45,68.93Z" transform="translate(-60.7 -62.13)"/></g></g><path class="cls-3" d="M69.61,107.32a23.87,23.87,0,0,1-.16-2.95,26.64,26.64,0,0,1,.18-3.11l-.29,0c-5.4.4-8.63,4-8.63,9.73q0,21.08,0,42.15c0,6,3.66,9.69,9.68,9.72,6.23,0,12.46,0,18.69,0q18.38,0,36.75,0c4.39,0,7.81-2,8.86-5.8.76-2.77.68-5.77,1-8.82-4.32,0-8.06.05-11.79,0a11,11,0,0,1,0-22c3.78-.11,7.57,0,11.31,0,1-7.19-2.87-11.77-9.76-11.78q-27.09,0-54.18,0c-2.9,0-4.6-1.36-4.61-3.62a3.41,3.41,0,0,1,2.7-3.45Z" transform="translate(-60.7 -62.13)"/><path class="cls-3" d="M129.47,145.78c-1.87,0-3.74,0-5.6,0a8.51,8.51,0,0,1,0-17c3.88-.08,7.75,0,11.63,0,2.25,0,3.29,1,3.32,3.3,0,3.46,0,6.93,0,10.39,0,2.25-1.07,3.3-3.3,3.34C133.49,145.81,131.48,145.78,129.47,145.78Zm-2.06-8.53a3.15,3.15,0,1,0-3.22,3.12A3.15,3.15,0,0,0,127.41,137.25Z" transform="translate(-60.7 -62.13)"/></svg>