<svg id="Layer_1" data-name="Layer 1" xmlns="http://www.w3.org/2000/svg" viewBox="0 0 83.83 107.48"><defs><style>.cls-1{fill:#00819d;}.cls-2{fill:#fff;}</style></defs><path class="cls-1" d="M83,9.88s-.23,1.85-14.44,1S44.21,0,41.88,0,29.53,10.09,15.32,10.91.87,9.91.87,9.91-3.48,53.34,7.29,72.48s34.63,35,34.63,35,23.84-15.85,34.62-35S83,9.88,83,9.88Z" transform="translate(0)"/><path class="cls-2" d="M77.42,15.8s-.2,1.6-12.49.89-21-9.44-23-9.44-10.72,8.72-23,9.44-12.5-.89-12.5-.89S2.66,53.36,12,69.92s30,30.27,30,30.27S62.61,86.48,72,69.92,77.42,15.8,77.42,15.8Z" transform="translate(0)"/><path class="cls-1" d="M72.88,20.69s-.17,1.39-10.88.77-18.32-8.21-20-8.21-9.33,7.59-20,8.21-10.89-.77-10.89-.77-3.4,32.72,4.77,47.14,26,26.36,26,26.36S59.88,82.25,68,67.83,72.88,20.69,72.88,20.69Z" transform="translate(0)"/><path class="cls-2" d="M58.8,56.34A39.48,39.48,0,0,0,46.44,52.8c.14-1,.29-2,.43-3a3.43,3.43,0,0,0,1.69-2.24l.33-2.82A.81.81,0,0,0,50,44.8a.78.78,0,0,0,.27-.53l.44-4.34A.81.81,0,0,0,50,39a.8.8,0,0,0-.48.09c.1-.82.19-1.64.28-2.47.08-1.13.64-4.14-1.53-6.09-3.15-3.09-10.08-3.09-13.23,0-2.18,2-1.62,5-1.54,6.09.09.83.19,1.65.28,2.47a.77.77,0,0,0-.47-.09.82.82,0,0,0-.73.89l.45,4.34a.8.8,0,0,0,.86.73h0a.77.77,0,0,0,.51-.26l.33,2.82a3.49,3.49,0,0,0,1.69,2.24c.15,1,.29,2,.43,3a39.49,39.49,0,0,0-12.35,3.54,4.13,4.13,0,0,0-2,3.71q.21,2.28.45,4.56a3.44,3.44,0,0,0,2.54,2.89,101.68,101.68,0,0,0,32.29,0,3.43,3.43,0,0,0,2.53-2.89c.16-1.52.31-3,.46-4.56A4.13,4.13,0,0,0,58.8,56.34Z" transform="translate(0)"/></svg>