<svg id="Layer_1" data-name="Layer 1" xmlns="http://www.w3.org/2000/svg" xmlns:xlink="http://www.w3.org/1999/xlink" viewBox="0 0 78.11 101.63"><defs><style>.cls-1{fill:none;}.cls-2{clip-path:url(#clip-path);}.cls-3{fill:#ef712b;}</style><clipPath id="clip-path" transform="translate(-68.47 -63.43)"><rect class="cls-1" x="68.47" y="51.88" width="78.11" height="60.95"/></clipPath></defs><g class="cls-2"><path class="cls-3" d="M134.58,116.28l7.85-41.42a6,6,0,0,0-4.79-7L115,63.53a6.11,6.11,0,0,0-7.09,4.84l-.77,3.8,3.51,5.16,1.59-8.14a1.71,1.71,0,0,1,.71-1,1.59,1.59,0,0,1,1.21-.26l2.94.6-2.75,14.27,5.54,8.13,4.05-21.11,12.89,2.42a1.61,1.61,0,0,1,1.3,1.85l-7.84,41.42a1.6,1.6,0,0,1-.68,1,1.7,1.7,0,0,1-1.22.21l-2.31-.47-5.16,3.52,6.65,1.29a6,6,0,0,0,7.05-4.76Zm0,0" transform="translate(-68.47 -63.43)"/><path class="cls-3" d="M126.16,105.1,102.41,70.26A6.13,6.13,0,0,0,94,68.54l-13.18,9,30.56,44.83,13.18-9a5.93,5.93,0,0,0,1.61-8.28ZM93.6,86.64a4.38,4.38,0,0,1-.7-3.19,4.37,4.37,0,1,1,5.21-3.55,4.37,4.37,0,1,1-4.51,6.74Zm0,0" transform="translate(-68.47 -63.43)"/><path class="cls-3" d="M74.91,81.55A6.16,6.16,0,0,0,73.4,90l23.75,34.83a6,6,0,0,0,8.33,1.51l.29-.2L75.2,81.35Zm0,0" transform="translate(-68.47 -63.43)"/></g><path class="cls-3" d="M77.38,109.48a24.09,24.09,0,0,1-.17-3,26.63,26.63,0,0,1,.19-3.11l-.3,0c-5.4.4-8.62,4-8.63,9.73q0,21.08,0,42.15c0,6,3.67,9.69,9.69,9.72,6.23,0,12.46,0,18.69,0q18.38,0,36.74,0c4.4,0,7.81-2,8.86-5.8.77-2.77.69-5.77,1-8.82-4.32,0-8,.05-11.78,0a11,11,0,0,1,0-22c3.78-.11,7.56,0,11.31,0,1-7.18-2.87-11.76-9.76-11.77q-27.09,0-54.19,0c-2.89,0-4.59-1.36-4.61-3.62a3.41,3.41,0,0,1,2.71-3.45Z" transform="translate(-68.47 -63.43)"/><path class="cls-3" d="M137.24,147.93c-1.87,0-3.74,0-5.61,0a8.51,8.51,0,0,1,0-17c3.87-.08,7.75,0,11.63,0,2.25,0,3.29,1,3.31,3.3q.06,5.19,0,10.38c0,2.26-1.06,3.3-3.29,3.35C141.25,148,139.25,147.94,137.24,147.93Zm-2.06-8.52a3.16,3.16,0,0,0-3.2-3.13,3.13,3.13,0,0,0,0,6.25A3.17,3.17,0,0,0,135.18,139.41Z" transform="translate(-68.47 -63.43)"/></svg>