<svg id="Layer_1" data-name="Layer 1" xmlns="http://www.w3.org/2000/svg" xmlns:xlink="http://www.w3.org/1999/xlink" viewBox="0 0 149.54 83.05"><defs><style>.cls-1,.cls-4{fill:none;}.cls-2{fill:#4ea76f;}.cls-3{clip-path:url(#clip-path);}.cls-4{stroke:#8c8cf9;stroke-miterlimit:10;}.cls-5{clip-path:url(#clip-path-2);}.cls-6{clip-path:url(#clip-path-3);}</style><clipPath id="clip-path" transform="translate(0.02 0)"><path class="cls-1" d="M38.93,76.24l-5.22.69L16.87,79.68-.55,76.24-3.76,65.31-5.31,44.85,1.45,27.68l46.82-1.81h9.49l1,.46,4.36,2.75,3,3,2.58,3.76H46.76a7.55,7.55,0,0,0-7.6,7.39Z"/></clipPath><clipPath id="clip-path-2" transform="translate(0.02 0)"><path class="cls-1" d="M48.65,26.33a66.8,66.8,0,0,1,10,.38C60,27,67,32.06,68.36,34A8.81,8.81,0,0,1,70,37.18s32.63-.15,32.85,0S113,41.69,113,41.69V59.41l13.6-10.08-.82-14.75L79.54-3.62,55.76,4.63Z"/></clipPath><clipPath id="clip-path-3" transform="translate(0.02 0)"><path class="cls-1" d="M114.21,60.85c.68-.67,11.38-11.67,11.38-11.67a7.41,7.41,0,0,0,0-10.48h0l-19-19h42.83l4.38,8.18-.8,45-20.88-5.31L114,68.28Z"/></clipPath></defs><path class="cls-2" d="M102.93,39.76h-52a7.55,7.55,0,0,0-7.6,7.39V66.81h66.93V47.15A7.32,7.32,0,0,0,103,39.76ZM61.51,60.12a5.41,5.41,0,0,1-3.75-1.51,5.39,5.39,0,1,1,0-7.78,5.4,5.4,0,1,1,3.73,9.29Z" transform="translate(0.02 0)"/><path class="cls-2" d="M43.35,75.61A7.58,7.58,0,0,0,51,83.05h52a7.36,7.36,0,0,0,7.33-7.39v-.48H43.35Z" transform="translate(0.02 0)"/><g class="cls-3"><path class="cls-2" d="M59.58,29.87h-52A7.55,7.55,0,0,0,0,37.26V56.92H66.89V37.24a7.32,7.32,0,0,0-7.25-7.39h-.08ZM18.17,50.24a5.38,5.38,0,0,1-3.74-1.51,5.39,5.39,0,1,1,0-7.78,5.4,5.4,0,1,1,3.74,9.29Z" transform="translate(0.02 0)"/><path class="cls-2" d="M0,65.72a7.58,7.58,0,0,0,7.6,7.44h52a7.36,7.36,0,0,0,7.33-7.39v-.48H0Z" transform="translate(0.02 0)"/></g><path class="cls-4" d="M57.29,56.16" transform="translate(0.02 0)"/><g class="cls-5"><path class="cls-2" d="M120.18,38.94,83.42,2.18A7.4,7.4,0,0,0,73,2.16l0,0L52.81,22.3a7.52,7.52,0,0,0,0,10.58l3.33,3.43h7.7L56.65,29a2.06,2.06,0,0,1-.57-1.45,2,2,0,0,1,.57-1.42l2.66-2.58L71.94,36.31H84.07L65.37,17.52,76.76,6.07a2,2,0,0,1,1.39-.6,2,2,0,0,1,1.4.57l36.76,36.75a2,2,0,0,1,.57,1.4,2.09,2.09,0,0,1-.63,1.39l-2.08,2v7.7l5.93-5.88a7.41,7.41,0,0,0,0-10.49Z" transform="translate(0.02 0)"/></g><g class="cls-6"><path class="cls-2" d="M142.18,20.77h-52a7.55,7.55,0,0,0-7.6,7.39V47.82h66.9V28.16a7.31,7.31,0,0,0-7.23-7.39h-.07ZM100.76,41.12A5.35,5.35,0,0,1,97,39.62a5.39,5.39,0,1,1,0-7.78,5.39,5.39,0,1,1,3.73,9.28Z" transform="translate(0.02 0)"/><path class="cls-2" d="M82.6,56.62a7.58,7.58,0,0,0,7.6,7.44h52a7.36,7.36,0,0,0,7.32-7.4v-.42H82.62Z" transform="translate(0.02 0)"/></g></svg>