<svg id="Layer_1" data-name="Layer 1" xmlns="http://www.w3.org/2000/svg" xmlns:xlink="http://www.w3.org/1999/xlink" viewBox="0 0 136.3 100.17"><defs><style>.cls-1{fill:none;}.cls-2{fill:#ef712b;}.cls-3{clip-path:url(#clip-path);}</style><clipPath id="clip-path" transform="translate(-43.78 -56.68)"><polygon class="cls-1" points="98.8 126.15 98.8 156.85 54.32 154.91 34.25 122.01 37.97 86.11 49.83 67.69 90.57 52.28 124.8 76.9 99.43 112.05 98.8 126.15"/></clipPath></defs><path class="cls-2" d="M178,114.41,142.65,79.05a7.11,7.11,0,0,0-10.09,0L113.2,98.4a7.25,7.25,0,0,0,0,10.19l3.21,3.29h7.41l-6.92-7a2,2,0,0,1-.55-1.39,1.93,1.93,0,0,1,.55-1.36l2.56-2.48,12.15,12.23h11.66l-18-18.07,11-11a1.91,1.91,0,0,1,1.34-.56,1.89,1.89,0,0,1,1.34.54l35.37,35.35a1.91,1.91,0,0,1,.55,1.35,2,2,0,0,1-.6,1.34l-2,2v7.41L178,124.5a7.13,7.13,0,0,0,0-10.09Zm0,0" transform="translate(-43.78 -56.68)"/><path class="cls-2" d="M161.42,115.2h-50a7.27,7.27,0,0,0-7.31,7.11v18.92h64.37V122.31a7,7,0,0,0-7.05-7.11Zm-39.85,19.58a5.19,5.19,0,0,1-3.59-1.44,5.19,5.19,0,1,1,0-7.49,5.19,5.19,0,1,1,3.59,8.93Zm0,0" transform="translate(-43.78 -56.68)"/><path class="cls-2" d="M104.1,149.69a7.31,7.31,0,0,0,7.31,7.16h50a7.09,7.09,0,0,0,7.05-7.16v-.42H104.1Zm0,0" transform="translate(-43.78 -56.68)"/><g class="cls-3"><path class="cls-2" d="M86.34,68.7c0-2.56,0-5,0-7.42a4.15,4.15,0,0,1,2.27-4,4.26,4.26,0,0,1,4.77.3c7.69,5.69,15.39,11.37,23,17.15,3.16,2.4,3.12,6.15-.06,8.55-7.54,5.7-15.15,11.31-22.73,17a4.42,4.42,0,0,1-4.91.49,4.28,4.28,0,0,1-2.36-4.3c.06-2.37,0-4.74,0-7.22a20.34,20.34,0,0,0-10.58,2.63,22.27,22.27,0,1,0,32.42,24.69c.77-3.22,2.77-5,6.1-5.12,3.48-.12,7-.1,10.44,0,2.9.08,4.45,2.16,4,5.27a41.75,41.75,0,0,1-14.41,26.81c-24.65,21.21-62.7,8.38-69.61-23.43C39.61,96.56,56,72.88,79.76,69.41,81.88,69.1,84,68.94,86.34,68.7Z" transform="translate(-43.78 -56.68)"/></g></svg>