<svg id="Layer_1" data-name="Layer 1" xmlns="http://www.w3.org/2000/svg" viewBox="0 0 83.83 107.44"><defs><style>.cls-1{fill:#ef712b;}.cls-2{fill:#fff;}</style></defs><path class="cls-1" d="M148.08,66.32s-.23,1.85-14.44,1S109.33,56.44,107,56.44,94.65,66.53,80.44,67.35s-14.45-1-14.45-1-4.35,43.43,6.42,62.57,34.63,35,34.63,35,23.84-15.85,34.62-35S148.08,66.32,148.08,66.32Z" transform="translate(-65.12 -56.44)"/><path class="cls-2" d="M142.54,72.24s-.2,1.6-12.49.89-21-9.44-23-9.44-10.72,8.72-23,9.44-12.5-.89-12.5-.89-3.77,37.56,5.55,54.12,30,30.27,30,30.27,20.63-13.71,30-30.27S142.54,72.24,142.54,72.24Z" transform="translate(-65.12 -56.44)"/><path class="cls-1" d="M138,77.13s-.17,1.39-10.88.77-18.32-8.21-20-8.21-9.33,7.59-20,8.21-10.89-.77-10.89-.77S72.83,109.85,81,124.27,107,150.63,107,150.63s18-11.94,26.08-26.36S138,77.13,138,77.13Z" transform="translate(-65.12 -56.44)"/><path class="cls-2" d="M123.92,112.78a39.51,39.51,0,0,0-12.36-3.54c.14-1,.29-2,.43-3a3.41,3.41,0,0,0,1.69-2.24l.33-2.82a.81.81,0,0,0,1.41-.47l.44-4.34a.81.81,0,0,0-.72-.89.86.86,0,0,0-.48.09c.1-.82.19-1.64.28-2.47.08-1.13.64-4.14-1.53-6.09-3.15-3.09-10.08-3.09-13.23,0-2.18,2-1.62,5-1.54,6.09.09.83.19,1.65.28,2.47a.83.83,0,0,0-.47-.09.82.82,0,0,0-.73.89l.45,4.34a.8.8,0,0,0,.89.73.79.79,0,0,0,.51-.26L99.9,104a3.48,3.48,0,0,0,1.69,2.24c.15,1,.29,2,.43,3a39.46,39.46,0,0,0-12.35,3.54,4.13,4.13,0,0,0-2,3.71q.21,2.28.45,4.56a3.45,3.45,0,0,0,2.54,2.89,101.68,101.68,0,0,0,32.29,0,3.43,3.43,0,0,0,2.53-2.89c.16-1.52.31-3,.46-4.56A4.14,4.14,0,0,0,123.92,112.78Z" transform="translate(-65.12 -56.44)"/></svg>