<svg id="Layer_1" data-name="Layer 1" xmlns="http://www.w3.org/2000/svg" viewBox="0 0 84.24 108.66"><defs><style>.cls-1{fill:#ef712b;}</style></defs><path class="cls-1" d="M156.35,54.15c.24,4.72.63,9.17.65,13.62a74,74,0,0,1-2.63,19.89c-2.72,10-9,17.75-15.54,25.34-7.06,8.18-15.81,14.36-24.59,20.49a2.15,2.15,0,0,1-2,0q-8.88-6.32-17.62-12.81a2.21,2.21,0,0,1-.66-1.9c4-14.13,9.27-27.64,18-39.68A55.33,55.33,0,0,1,133.13,61.4,89.59,89.59,0,0,1,154,54.45C154.56,54.33,155.18,54.29,156.35,54.15Zm-23,42.65a11.57,11.57,0,1,0-11.27-11.66A11.56,11.56,0,0,0,133.36,96.8Z" transform="translate(-72.76 -54.15)"/><path class="cls-1" d="M95.34,151.12c-8.19,8.15-12.13,10.76-17.84,11.68a30.37,30.37,0,0,1,5.92-20.55l-7-.36c2.24-5.84,11.65-9.32,17.13-6.24-6.67,2.62-6.34,8.26-6.23,13.75,5.21-1.57,10.56-3.1,11.07-10.08,4.56,3.55,4.37,12.73-.45,18.33Z" transform="translate(-72.76 -54.15)"/><path class="cls-1" d="M100.42,92.25l-7.29,19.44c-6.64-4-13.48-3.67-20.37-.25C75.06,100.53,89.66,90.45,100.42,92.25Z" transform="translate(-72.76 -54.15)"/><path class="cls-1" d="M127.78,151.6c.85-9.15-.73-13.76-6.58-19.51l16-13C142.27,128.28,138.52,142.42,127.78,151.6Z" transform="translate(-72.76 -54.15)"/><path class="cls-1" d="M107.68,140.74c-7.13-1.55-15.09-7.36-18.52-13.49,1.46-.88,2.91-1.82,4.45-2.59a1.9,1.9,0,0,1,1.63.2q6.48,4.59,12.86,9.34a1.93,1.93,0,0,1,.62,1.54C108.48,137.37,108.06,139,107.68,140.74Z" transform="translate(-72.76 -54.15)"/></svg>