<svg id="Layer_1" data-name="Layer 1" xmlns="http://www.w3.org/2000/svg" xmlns:xlink="http://www.w3.org/1999/xlink" viewBox="0 0 135.27 83.48"><defs><style>.cls-1,.cls-6{fill:none;}.cls-2{fill:#ef712b;}.cls-3{fill:url(#linear-gradient);}.cls-4{clip-path:url(#clip-path);}.cls-5{fill:url(#New_Gradient_Swatch_33);}.cls-6{stroke:#8c8cf9;stroke-miterlimit:10;}.cls-7{clip-path:url(#clip-path-2);}.cls-8{fill:url(#New_Gradient_Swatch_33-3);}.cls-9{clip-path:url(#clip-path-3);}.cls-10{fill:url(#New_Gradient_Swatch_33-4);}</style><linearGradient id="linear-gradient" x1="68.92" y1="90.92" x2="68.92" y2="47.41" gradientUnits="userSpaceOnUse"><stop offset="0" stop-color="#123962"/><stop offset="0.32" stop-color="#2754ba"/><stop offset="0.44" stop-color="#245bbd"/><stop offset="0.61" stop-color="#1c6dc6"/><stop offset="0.81" stop-color="#0f8bd5"/><stop offset="1" stop-color="#00aee6"/></linearGradient><clipPath id="clip-path" transform="translate(-2.71 -7.44)"><path class="cls-1" d="M32,74.89l-3.92.51L15.4,77.47,2.31,74.89-.1,66.68-1.26,51.31l5.07-12.9L39,37.05h7.13l.75.35,3.28,2.06,2.25,2.26,1.94,2.82H37.85a5.68,5.68,0,0,0-5.71,5.55Z"/></clipPath><linearGradient id="New_Gradient_Swatch_33" x1="27.85" y1="72.57" x2="27.85" y2="40.04" gradientUnits="userSpaceOnUse"><stop offset="0" stop-color="#2754ba"/><stop offset="0.77" stop-color="#00aee6"/><stop offset="1" stop-color="#b1d4e5"/></linearGradient><clipPath id="clip-path-2" transform="translate(-2.71 -7.44)"><path class="cls-1" d="M40.62,33.91a66.11,66.11,0,0,1,10.05.38c1.34.33,8.37,5.38,9.76,7.3A8.87,8.87,0,0,1,62,44.81s32.8-.15,33,0,10.22,4.54,10.22,4.54V67.16L119,57l-.82-14.82L71.67,3.8l-23.9,8.3Z"/></clipPath><linearGradient id="New_Gradient_Swatch_33-3" x1="78.62" y1="63" x2="78.62" y2="7.44" xlink:href="#New_Gradient_Swatch_33"/><clipPath id="clip-path-3" transform="translate(-2.71 -7.44)"><path class="cls-1" d="M111.46,64.62c.51-.5,8.54-8.76,8.54-8.76A5.56,5.56,0,0,0,120,48h0L105.73,33.71H137.9l3.29,6.14-.6,33.8-15.68-4-13.59.55Z"/></clipPath><linearGradient id="New_Gradient_Swatch_33-4" x1="112.84" y1="67.04" x2="112.84" y2="34.52" xlink:href="#New_Gradient_Swatch_33"/></defs><path class="cls-2" d="M95.18,47.41H42.91a7.59,7.59,0,0,0-7.64,7.42V74.59h67.28V54.83a7.35,7.35,0,0,0-7.29-7.42ZM53.55,67.87a5.4,5.4,0,0,1-3.77-1.52,5.42,5.42,0,1,1,0-7.82,5.43,5.43,0,1,1,3.75,9.34Z" transform="translate(-2.71 -7.44)"/><path class="cls-2" d="M35.29,83.44a7.64,7.64,0,0,0,7.64,7.48H95.2a7.41,7.41,0,0,0,7.37-7.43V83H35.29Z" transform="translate(-2.71 -7.44)"/><path class="cls-3" d="M95.18,47.41H42.91a7.59,7.59,0,0,0-7.64,7.42V74.59h67.28V54.83a7.35,7.35,0,0,0-7.29-7.42ZM53.55,67.87a5.4,5.4,0,0,1-3.77-1.52,5.42,5.42,0,1,1,0-7.82,5.43,5.43,0,1,1,3.75,9.34Z" transform="translate(-2.71 -7.44)"/><path class="cls-3" d="M35.29,83.44a7.64,7.64,0,0,0,7.64,7.48H95.2a7.41,7.41,0,0,0,7.37-7.43V83H35.29Z" transform="translate(-2.71 -7.44)"/><g class="cls-4"><path class="cls-2" d="M47.48,40.06H8.42a5.67,5.67,0,0,0-5.71,5.55V60.37H53V45.59A5.5,5.5,0,0,0,47.52,40h-.06ZM16.37,55.36a4.07,4.07,0,0,1-2.81-1.14,4,4,0,1,1,0-5.84,4.06,4.06,0,1,1,2.81,7Z" transform="translate(-2.71 -7.44)"/><path class="cls-2" d="M2.73,67a5.69,5.69,0,0,0,5.7,5.59H47.49A5.53,5.53,0,0,0,53,67v-.36H2.73Z" transform="translate(-2.71 -7.44)"/><path class="cls-5" d="M47.48,40.06H8.42a5.67,5.67,0,0,0-5.71,5.55V60.37H53V45.59A5.5,5.5,0,0,0,47.52,40h-.06ZM16.37,55.36a4.07,4.07,0,0,1-2.81-1.14,4,4,0,1,1,0-5.84,4.06,4.06,0,1,1,2.81,7Z" transform="translate(-2.71 -7.44)"/><path class="cls-5" d="M2.73,67a5.69,5.69,0,0,0,5.7,5.59H47.49A5.53,5.53,0,0,0,53,67v-.36H2.73Z" transform="translate(-2.71 -7.44)"/></g><path class="cls-6" d="M45.76,59.8" transform="translate(-2.71 -7.44)"/><g class="cls-7"><path class="cls-8" d="M112.52,46.58,75.57,9.63a7.44,7.44,0,0,0-10.52,0l0,0L44.8,29.86a7.56,7.56,0,0,0,0,10.63l3.35,3.45h7.74l-7.23-7.31a2.08,2.08,0,0,1-.57-1.46,2,2,0,0,1,.57-1.42l2.68-2.6L64,43.94H76.22L57.43,25.05,68.87,13.54a2.06,2.06,0,0,1,1.4-.6,2,2,0,0,1,1.41.57l36.95,36.94a2,2,0,0,1,.57,1.41,2.11,2.11,0,0,1-.63,1.4l-2.09,2V63l6-5.91a7.45,7.45,0,0,0,0-10.54Z" transform="translate(-2.71 -7.44)"/></g><g class="cls-9"><path class="cls-2" d="M132.46,34.52H93.41a5.67,5.67,0,0,0-5.71,5.55V54.84H138V40.07a5.49,5.49,0,0,0-5.43-5.55h-.06ZM101.35,49.8a4,4,0,0,1-2.8-1.12,4,4,0,1,1,0-5.85,4.05,4.05,0,1,1,2.8,7Z" transform="translate(-2.71 -7.44)"/><path class="cls-2" d="M87.71,61.45A5.71,5.71,0,0,0,93.42,67h39.06a5.54,5.54,0,0,0,5.5-5.56v-.32H87.73Z" transform="translate(-2.71 -7.44)"/><path class="cls-10" d="M132.46,34.52H93.41a5.67,5.67,0,0,0-5.71,5.55V54.84H138V40.07a5.49,5.49,0,0,0-5.43-5.55h-.06ZM101.35,49.8a4,4,0,0,1-2.8-1.12,4,4,0,1,1,0-5.85,4.05,4.05,0,1,1,2.8,7Z" transform="translate(-2.71 -7.44)"/><path class="cls-10" d="M87.71,61.45A5.71,5.71,0,0,0,93.42,67h39.06a5.54,5.54,0,0,0,5.5-5.56v-.32H87.73Z" transform="translate(-2.71 -7.44)"/></g></svg>