<svg id="Layer_1" data-name="Layer 1" xmlns="http://www.w3.org/2000/svg" xmlns:xlink="http://www.w3.org/1999/xlink" viewBox="0 0 115.44 102.93"><defs><style>.cls-1{fill:none;}.cls-2{fill:#fff;}.cls-3{fill:#6e6ebb;}.cls-4{clip-path:url(#clip-path);}.cls-5{clip-path:url(#clip-path-2);}</style><clipPath id="clip-path" transform="translate(-45.91 -61.87)"><path class="cls-1" d="M120.38,141.49a41,41,0,0,0-7.33-37.17l7.64-9.21,13-5.53s17.25,1.25,17.8,1.25,16.52,6.35,17.07,7.44-.18,23.62,0,24.52-10.72,17.07-10.72,17.07l-20.33,6.9Z"/></clipPath><clipPath id="clip-path-2" transform="translate(-45.91 -61.87)"><path class="cls-1" d="M88.05,89.58a40.86,40.86,0,0,1,23.48,13l-2.15.27a30,30,0,0,1,25.85-16.54l-1.5-14.88-8-14.89L96.32,52.14s-16.71,8.19-16.16,9.73,3.09,16.24,3.45,17.51S88.05,89.58,88.05,89.58Z"/></clipPath></defs><circle class="cls-2" cx="35.48" cy="67.45" r="35.48"/><path class="cls-3" d="M96.81,131a8.39,8.39,0,0,0-4.87-2.87q4.14-2.12,3.65-7.18a7.28,7.28,0,0,0-1-3.19,6.4,6.4,0,0,0-2.3-2.17,12.19,12.19,0,0,0-3.14-1.25,24.86,24.86,0,0,0-3.9-.63v-7H80.94v6.83c-.74,0-1.87,0-3.4,0v-6.88H73.26v7c-.62,0-1.52,0-2.71,0l-5.9,0v4.57h3.09a2.21,2.21,0,0,1,2.48,1.89v8a2.72,2.72,0,0,1,.45,0h-.45v11.19a1.48,1.48,0,0,1-1.61,1.42H65.52l-.87,5.09h5.57l1.53,0h1.51V153h4.28v-7l3.4,0v7h4.29v-7.1a33.68,33.68,0,0,0,4-.41,16.44,16.44,0,0,0,3.38-1,8.91,8.91,0,0,0,2.7-1.63,7.7,7.7,0,0,0,1.8-2.47,10.71,10.71,0,0,0,.9-3.48q.38-3.87-1.25-6ZM77.63,118.53h1.1l1.5,0a14.64,14.64,0,0,1,1.61.07,15,15,0,0,1,1.72.22,9.86,9.86,0,0,1,1.53.46,4.1,4.1,0,0,1,1.33.78,3.84,3.84,0,0,1,.85,1.17,3.55,3.55,0,0,1,.35,1.63,3.82,3.82,0,0,1-.25,1.42,2.63,2.63,0,0,1-.75,1.07,7.09,7.09,0,0,1-1,.75,4.48,4.48,0,0,1-1.35.52c-.55.13-1,.23-1.43.3a11.1,11.1,0,0,1-1.53.16l-1.4,0H77.63v-8.55Zm11.7,19a3.81,3.81,0,0,1-.68,1.12,3.87,3.87,0,0,1-1.1.83,9.42,9.42,0,0,1-1.32.59,12,12,0,0,1-1.54.38c-.61.12-1.14.19-1.59.24s-1,.08-1.63.11-1.12,0-1.48,0H77.63v-9.41l1.32,0,1.79,0c.47,0,1.11,0,1.93.08a17.87,17.87,0,0,1,2.06.25,15.78,15.78,0,0,1,1.82.52,5.12,5.12,0,0,1,1.6.85,4.12,4.12,0,0,1,1,1.28,3.69,3.69,0,0,1,.42,1.78,3.63,3.63,0,0,1-.27,1.42Zm0,0" transform="translate(-45.91 -61.87)"/><g class="cls-4"><path class="cls-2" d="M161.35,116.22a24.59,24.59,0,1,1-24.59-24.58A24.58,24.58,0,0,1,161.35,116.22Zm-25.46,6.67,1.5-6.53,3-1.12V112l-2.16.82,2.37-10.29h-8.74l-3.18,13.91-3,1.12v3.22l2.17-.82-1.82,8h20.55l1.26-5Z" transform="translate(-45.91 -61.87)"/></g><g class="cls-5"><path class="cls-2" d="M127.34,80.74a18.87,18.87,0,1,1-18.87-18.87A18.87,18.87,0,0,1,127.34,80.74Zm-20.08-7.81a4.62,4.62,0,0,0,.56,3.81,1.8,1.8,0,0,1-.59,2.57,1.89,1.89,0,0,1-2.63-.74,4.83,4.83,0,0,0-5.69-2.2,4.71,4.71,0,0,0-3.28,5A4.77,4.77,0,0,0,100,85.49,4.87,4.87,0,0,0,104.69,83a1.9,1.9,0,0,1,2.73-.66,1.84,1.84,0,0,1,.46,2.6,3.82,3.82,0,0,0-.65,2.56,4.83,4.83,0,0,0,9.53.64,4.64,4.64,0,0,0-2.2-4.86,5.24,5.24,0,0,0-2.76-.71,1.86,1.86,0,1,1,.06-3.7,4.51,4.51,0,0,0,3.55-1.49,4.37,4.37,0,0,0,.88-5,4.49,4.49,0,0,0-4-2.85C109.71,69.54,107.87,70.87,107.26,72.93Z" transform="translate(-45.91 -61.87)"/></g></svg>