<svg id="Layer_1" data-name="Layer 1" xmlns="http://www.w3.org/2000/svg" xmlns:xlink="http://www.w3.org/1999/xlink" viewBox="0 0 149.5 83.05"><defs><style>.cls-1,.cls-4{fill:none;}.cls-2{fill:#ef712b;}.cls-3{clip-path:url(#clip-path);}.cls-4{stroke:#8c8cf9;stroke-miterlimit:10;}.cls-5{clip-path:url(#clip-path-2);}.cls-6{clip-path:url(#clip-path-3);}</style><clipPath id="clip-path" transform="translate(-33.24 -68.76)"><path class="cls-1" d="M72.17,145l-5.22.69-16.84,2.75L32.69,145l-3.21-10.93-1.55-20.46,6.76-17.17,46.82-1.81H91l1,.46,4.36,2.75,3,3,2.58,3.76H80a7.55,7.55,0,0,0-7.6,7.39Z"/></clipPath><clipPath id="clip-path-2" transform="translate(-33.24 -68.76)"><path class="cls-1" d="M81.89,95.09a67.1,67.1,0,0,1,10,.38c1.33.33,8.33,5.35,9.71,7.26a8.88,8.88,0,0,1,1.6,3.21s32.63-.15,32.85,0,10.17,4.51,10.17,4.51v17.72l13.6-10.08L159,103.34l-46.22-38.2L89,73.39Z"/></clipPath><clipPath id="clip-path-3" transform="translate(-33.24 -68.76)"><path class="cls-1" d="M147.45,129.61c.68-.67,11.38-11.67,11.38-11.67a7.41,7.41,0,0,0,0-10.49l-19-19h42.83l4.38,8.18-.8,45-20.88-5.31-18.09.72Zm11.43-22.16"/></clipPath></defs><path class="cls-2" d="M136.17,108.52h-52a7.55,7.55,0,0,0-7.6,7.39v19.66H143.5V115.91a7.32,7.32,0,0,0-7.33-7.39ZM94.75,128.88A5.39,5.39,0,0,1,91,127.37a5.39,5.39,0,1,1,0-7.78,5.4,5.4,0,1,1,3.73,9.29Zm0,0" transform="translate(-33.24 -68.76)"/><path class="cls-2" d="M76.59,144.37a7.59,7.59,0,0,0,7.6,7.44h52a7.36,7.36,0,0,0,7.33-7.44v-.43H76.59Zm0,0" transform="translate(-33.24 -68.76)"/><g class="cls-3"><path class="cls-2" d="M92.82,98.63h-52a7.55,7.55,0,0,0-7.6,7.39v19.66h66.91V106a7.32,7.32,0,0,0-7.33-7.39ZM51.41,119a5.4,5.4,0,0,1-3.74-1.51,5.39,5.39,0,1,1,0-7.78A5.4,5.4,0,1,1,51.41,119Zm0,0" transform="translate(-33.24 -68.76)"/><path class="cls-2" d="M33.24,134.48a7.59,7.59,0,0,0,7.6,7.44h52a7.36,7.36,0,0,0,7.33-7.44v-.43H33.24Zm0,0" transform="translate(-33.24 -68.76)"/></g><path class="cls-4" d="M90.53,124.92" transform="translate(-33.24 -68.76)"/><g class="cls-5"><path class="cls-2" d="M153.42,107.7,116.66,70.94a7.4,7.4,0,0,0-10.49,0L86.05,91.06a7.52,7.52,0,0,0,0,10.58l3.33,3.43h7.7L89.89,97.8a2.08,2.08,0,0,1-.57-1.45,2,2,0,0,1,.57-1.42l2.66-2.58,12.63,12.72h12.13L98.61,86.28,110,74.83a2,2,0,0,1,1.39-.6,2,2,0,0,1,1.4.57l36.76,36.75a2,2,0,0,1,.57,1.4,2.1,2.1,0,0,1-.63,1.39l-2.08,2v7.7l5.93-5.88a7.42,7.42,0,0,0,0-10.49Zm0,0" transform="translate(-33.24 -68.76)"/></g><g class="cls-6"><path class="cls-2" d="M175.42,89.53h-52a7.55,7.55,0,0,0-7.6,7.39v19.66h66.9V96.92a7.31,7.31,0,0,0-7.32-7.39ZM134,109.88a5.35,5.35,0,0,1-3.73-1.5,5.39,5.39,0,1,1,0-7.78,5.39,5.39,0,1,1,3.73,9.28Zm0,0" transform="translate(-33.24 -68.76)"/><path class="cls-2" d="M115.84,125.38a7.59,7.59,0,0,0,7.6,7.44h52a7.36,7.36,0,0,0,7.32-7.44V125h-66.9Zm0,0" transform="translate(-33.24 -68.76)"/></g></svg>