<svg id="Layer_1" data-name="Layer 1" xmlns="http://www.w3.org/2000/svg" xmlns:xlink="http://www.w3.org/1999/xlink" viewBox="0 0 123.63 97.56"><defs><style>.cls-1{fill:none;}.cls-2{fill:#2754ba;}.cls-3{clip-path:url(#clip-path);}</style><clipPath id="clip-path" transform="translate(0.01 0.04)"><path class="cls-1" d="M49.49,17.68c2.89-.33,11.44,1,10.38,7.13s8.42,42,8.42,42L58.85,79.37l-9.4,9.72,21.73,11.28,30.75-1.7,17.48-16.3,9.33-17L131.63,40l-6.17-24L105.74,4.47,85.9-4.73,67.1-1.57Z"/></clipPath></defs><path class="cls-2" d="M45.64,83.37c-3.66-1.49-5.3-4.06-5-7.2-2.23-1-4.62-1.55-6-3s-1.79-3.71-2.79-6h-.21c-3.19-.06-5.53-1.46-6.65-4.3s-.22-5.34,2.08-7.42Q40.2,43.57,53.27,31.66a19.54,19.54,0,0,0,1.58-1.44,4.29,4.29,0,0,0-.14-5.92,4.84,4.84,0,0,0-6.14-.76,13.81,13.81,0,0,0-1.88,1.53L27,42.88c-5.73,5.19-9.16,4.77-13.2-1.59-1-1.6-2-3.23-3-4.79a5.92,5.92,0,0,0-7.87-2A5.32,5.32,0,0,0,.58,41.65c.1.18.2.35.31.52q4.67,7.63,9.56,15.14a2.64,2.64,0,0,1,.13,3.13q-1.65,2.93-3,6a12.17,12.17,0,0,0,5.88,16.09q7.5,3.75,15.25,7A13.26,13.26,0,0,0,45.64,83.37Z" transform="translate(0.01 0.04)"/><path class="cls-2" d="M44.65,43.37A12.27,12.27,0,0,0,41.85,45c-4.54,4-9,8-13.43,12.13-2.23,2-2.37,4.76-.47,6.69a5,5,0,0,0,7,0c4.56-4.06,9.06-8.19,13.58-12.29a4.34,4.34,0,0,0,1.32-5.29C49,44.37,47.48,43.44,44.65,43.37Z" transform="translate(0.01 0.04)"/><path class="cls-2" d="M34.22,69.12c1,1.23,1.75,2.74,3,3.64a4,4,0,0,0,5-.28q7.59-6.62,15-13.45a4.25,4.25,0,0,0-.1-6l-.06,0a4.76,4.76,0,0,0-6.34-.44c-5,4.35-9.92,8.81-14.78,13.32C35.19,66.52,35,67.68,34.22,69.12Z" transform="translate(0.01 0.04)"/><path class="cls-2" d="M25.23,20.37c0,.7-.26,1.23-.07,1.54.42.65,1.09,1.69,1.57,1.66a2.67,2.67,0,0,0,2-1.42,35.22,35.22,0,0,0,.84-6.78c0-.65-1-1.32-1.59-2-.72.58-1.9,1.06-2.09,1.77A35.27,35.27,0,0,0,25.23,20.37Z" transform="translate(0.01 0.04)"/><path class="cls-2" d="M7.72,23.82a5.1,5.1,0,0,0,1,1.27A41.55,41.55,0,0,0,14,28.74c.73.39,2-.07,3-.14-.27-.92-.23-2.16-.85-2.71a38,38,0,0,0-5.27-3.73,2,2,0,0,0-3.13,1.66Z" transform="translate(0.01 0.04)"/><path class="cls-2" d="M20.11,25.09c1.83-.19,2.52-1.1,2-2.41a48.16,48.16,0,0,0-3-6.48,2.43,2.43,0,0,0-2.19-.76c-.58.2-1.32,1.43-1.13,1.93a64.52,64.52,0,0,0,3.11,6.89C19.12,24.69,19.85,24.9,20.11,25.09Z" transform="translate(0.01 0.04)"/><path class="cls-2" d="M31.43,24.21c.3.35.66,1.12,1.22,1.3a2.31,2.31,0,0,0,2-.35,54.81,54.81,0,0,0,4.5-5.91A2.29,2.29,0,0,0,38.64,17a2.28,2.28,0,0,0-2.18,0c-1.73,2-3.25,4.11-4.83,6.19C31.5,23.37,31.53,23.67,31.43,24.21Z" transform="translate(0.01 0.04)"/><g class="cls-3"><path class="cls-2" d="M77.67,97.52c-1.69-.25-3.39-.43-5.07-.74A42.24,42.24,0,0,1,47.53,82.37,40.73,40.73,0,0,1,37.07,54.2c.36-17.83,8.78-30.94,24.68-39.13a40.22,40.22,0,0,1,14.56-4V8.47l-.72-.07a3.52,3.52,0,0,1-3.1-3.12,9.13,9.13,0,0,1,0-2.09A3.44,3.44,0,0,1,75.85,0q4.5-.08,9,0A3.4,3.4,0,0,1,88.2,3a9.06,9.06,0,0,1-.07,2.65c-.31,1.58-1.59,2.46-3.75,2.73V11a43.26,43.26,0,0,1,25.21,11.18l2.57-2.65c-.78-1.64-.7-2.34.54-3.48a2.15,2.15,0,0,1,3-.19l.19.19c1.17,1.12,2.3,2.27,3.43,3.43a2,2,0,0,1,.56,2.58c-.55,1-1.28,1.85-2.52,1.71a1.71,1.71,0,0,0-1.63.65c-.65.69-1.36,1.33-1.91,1.86,1.68,2.69,3.45,5.17,4.88,7.83A43.31,43.31,0,0,1,86.6,97c-1.12.17-2.25.29-3.38.44Zm2.66-80.9a37.57,37.57,0,1,0,37.52,37.62v-.08A37.57,37.57,0,0,0,80.33,16.62Z" transform="translate(0.01 0.04)"/><path class="cls-2" d="M113.63,53.75h-2.17a5.23,5.23,0,0,0-.16-1.15,4.87,4.87,0,0,0-4.9-3.83H88.7A1.55,1.55,0,0,1,87.23,48a9.89,9.89,0,0,0-8.08-4.23V19.3C97,18.69,114,34.37,113.63,53.75Z" transform="translate(0.01 0.04)"/><path class="cls-2" d="M86,55.05c-.16.35-.29.67-.43,1a6.87,6.87,0,1,1-7.68-9.68,6.74,6.74,0,0,1,7.65,3.75,1.46,1.46,0,0,0,1.62,1h19.4a2,2,0,1,1-.08,3.94H86Z" transform="translate(0.01 0.04)"/></g></svg>