<svg id="Layer_1" data-name="Layer 1" xmlns="http://www.w3.org/2000/svg" xmlns:xlink="http://www.w3.org/1999/xlink" viewBox="0 0 82.99 100.72"><defs><style>.cls-1{fill:none;}.cls-2{clip-path:url(#clip-path);}.cls-3{fill:#3a1e92;}.cls-4{fill:#fff;}.cls-5{clip-path:url(#clip-path-2);}.cls-6{clip-path:url(#clip-path-3);}</style><clipPath id="clip-path" transform="translate(0)"><rect class="cls-1" x="7.56" y="-8.1" width="86.08" height="56.63"/></clipPath><clipPath id="clip-path-2" transform="translate(0)"><path class="cls-1" d="M57.8,49a25.26,25.26,0,0,0-4.51-22.9l4.7-5.66,8-3.44s10.6.77,10.94.77,10.16,3.91,10.49,4.58-.11,14.52,0,15.07S80.84,48,80.84,48L68.33,52.2Z"/></clipPath><clipPath id="clip-path-3" transform="translate(0)"><path class="cls-1" d="M37.93,17a25.2,25.2,0,0,1,14.44,8l-1.32.16A18.44,18.44,0,0,1,66.99,15l-1-9.13-5-9.16L42.99-6s-10.3,5-10,6,1.9,10,2.12,10.77S37.93,17,37.93,17Z"/></clipPath></defs><g class="cls-2"><circle class="cls-3" cx="33.84" cy="41.47" r="21.82"/><path class="cls-4" d="M43.29,42.48a5.11,5.11,0,0,0-3-1.77,4,4,0,0,0,2.24-4.41,4.42,4.42,0,0,0-.62-2A3.881,3.881,0,0,0,40.49,33a8,8,0,0,0-1.93-.77,14.5132,14.5132,0,0,0-2.37-.32V27.53H33.56v4.2H31.47v-4.2H28.83v4.34H23.54v2.8h1.9a1.37,1.37,0,0,1,1.5469,1.1665l.0031.0235h0v4.91h0v6.88a.92.92,0,0,1-.9652.8724L25.99,48.52H24.07l-.53,3.13h5.29V56h2.64V51.71h2.09V56h2.63V51.64a20.7885,20.7885,0,0,0,2.49-.25,10.7641,10.7641,0,0,0,2.08-.6,5.41,5.41,0,0,0,1.66-1,4.52,4.52,0,0,0,1.11-1.52,6.38,6.38,0,0,0,.55-2.14,5,5,0,0,0-.77-3.66ZM31.52,34.87h1.6a8.3408,8.3408,0,0,1,1,0,7.5044,7.5044,0,0,1,1.06.14,5.0843,5.0843,0,0,1,.94.28,2.6,2.6,0,0,1,.82.48,2.4482,2.4482,0,0,1,.52.72,2.28,2.28,0,0,1,.22,1,2.3512,2.3512,0,0,1-.16.87,1.7915,1.7915,0,0,1-.46.66,5.6313,5.6313,0,0,1-.63.46,3.1,3.1,0,0,1-.83.32l-.89.19a7.479,7.479,0,0,1-.94.09H31.52Zm7.2,11.66a2.27,2.27,0,0,1-.42.68,2.32,2.32,0,0,1-.68.52,5.8707,5.8707,0,0,1-.81.36,6.921,6.921,0,0,1-1,.24c-.37.07-.7.11-1,.14l-1,.07H31.52V42.75h3.06a5.4233,5.4233,0,0,1,1.26.15,9.0534,9.0534,0,0,1,1.13.32,3.4,3.4,0,0,1,1,.52,2.68,2.68,0,0,1,.63.79,2.45,2.45,0,0,1,.1,2Z" transform="translate(0)"/><g class="cls-5"><path class="cls-3" d="M82.99,33.42A15.12,15.12,0,1,1,67.86,18.31h0A15.1,15.1,0,0,1,82.99,33.38Zm-15.65,4.1.93-4,1.82-.65v-2l-1.32.5,1.45-6.32H64.85l-2,8.55-1.86.69v2l1.33-.51-1.03,4.84H73.93l.77-3.1Z" transform="translate(0)"/></g><g class="cls-6"><path class="cls-3" d="M62.08,11.6A11.6,11.6,0,1,1,50.48,0h0A11.6,11.6,0,0,1,62.08,11.6ZM49.74,6.8a2.86,2.86,0,0,0,.35,2.35,1.11,1.11,0,0,1-.3,1.53h-.07a1.14,1.14,0,0,1-1.5677-.3762L48.15,10.3a.4305.4305,0,0,1,0-.07,3,3,0,0,0-3.51-1.35,2.88,2.88,0,0,0-2,3.09,2.92,2.92,0,0,0,2.69,2.51A3,3,0,0,0,48.19,13a1.16,1.16,0,0,1,1.5684-.4808l.0016.0008.11.07a1.13,1.13,0,0,1,.3,1.57l0,0h0a2.37,2.37,0,0,0-.4,1.57,3,3,0,0,0,5.86.39,2.85,2.85,0,0,0-1.35-3,3.16,3.16,0,0,0-1.7-.44,1.14,1.14,0,1,1-.2473-2.2665L52.37,10.41h.21a2.8,2.8,0,0,0,2.18-.92,2.69,2.69,0,0,0,.55-3,2.75,2.75,0,0,0-2.43-1.75A3,3,0,0,0,49.74,6.8Z" transform="translate(0)"/></g></g><path class="cls-3" d="M8.9,45.19a24.1916,24.1916,0,0,1-.16-2.95,26.9114,26.9114,0,0,1,.18-3.11H8.63c-5.4.4-8.63,4-8.63,9.73V91c0,6,3.66,9.69,9.68,9.72H65.12c4.39,0,7.81-2,8.86-5.8.76-2.77.68-5.77,1-8.82H63.19a11,11,0,0,1,0-22c3.78-.11,7.57,0,11.31,0,1-7.19-2.87-11.77-9.76-11.78H10.56c-2.9.01-4.57-1.32-4.57-3.61a3.4,3.4,0,0,1,2.7-3.45Z" transform="translate(0)"/><path class="cls-3" d="M68.76,83.65h-5.6a8.51,8.51,0,0,1,0-17c3.88-.08,7.75,0,11.63,0,2.25,0,3.29,1,3.32,3.3V80.34c0,2.25-1.07,3.3-3.3,3.34C72.78,83.68,70.77,83.65,68.76,83.65ZM66.7,75.12a3.1466,3.1466,0,1,0-.0006.0409Z" transform="translate(0)"/></svg>