<svg id="Layer_1" data-name="Layer 1" xmlns="http://www.w3.org/2000/svg" xmlns:xlink="http://www.w3.org/1999/xlink" viewBox="0 0 120.59 126.93"><defs><style>.cls-1{fill:none;}.cls-2{fill:#ef712b;}.cls-3{clip-path:url(#clip-path);}</style><clipPath id="clip-path" transform="translate(-49.1 -52.18)"><polygon class="cls-1" points="94.19 127.94 139.59 127.94 182.39 75.09 128.42 37.83 42.37 60.69 32.66 121.08 50.19 130.6 82.32 117.08 88.09 118.6 94.19 127.94"/></clipPath></defs><path class="cls-2" d="M89.21,126.12a21.86,21.86,0,0,1-.16-2.81,26.33,26.33,0,0,1,.17-3l-.28,0c-5.15.38-8.22,3.84-8.22,9.28q0,20.09,0,40.18c0,5.73,3.49,9.24,9.23,9.27,5.94,0,11.88,0,17.82,0q17.51,0,35,0c4.18,0,7.44-1.91,8.44-5.53.73-2.64.66-5.51,1-8.41-4.12,0-7.68,0-11.24,0a10.48,10.48,0,0,1,0-21c3.6-.1,7.21,0,10.78,0,.94-6.85-2.73-11.21-9.3-11.22q-25.83,0-51.66,0c-2.76,0-4.38-1.3-4.39-3.45A3.24,3.24,0,0,1,89,126.19Z" transform="translate(-49.1 -52.18)"/><path class="cls-2" d="M144.56,162.5c-1.78,0-3.57,0-5.35,0a8.11,8.11,0,0,1,0-16.22c3.7-.08,7.39,0,11.09,0,2.14,0,3.14,1,3.16,3.15q0,5,0,9.9c0,2.15-1,3.14-3.14,3.18C148.39,162.53,146.47,162.5,144.56,162.5Zm-2-8.13a3,3,0,1,0-3.07,3A3,3,0,0,0,142.59,154.37Z" transform="translate(-49.1 -52.18)"/><g class="cls-3"><path class="cls-2" d="M97.23,99.24l39.45-47.06,33,27.7-53,63.22L90,120.75l.24-.55c4.09,1.27,8.17,2.58,12.28,3.79,6,1.75,11.16-1.24,12.58-7.18.92-3.86-.93-7.87-4.92-10.21C106,104.13,101.76,101.8,97.23,99.24Zm43.6-.58a15.3,15.3,0,0,0-15-15.13A13.1,13.1,0,0,0,112.51,96.6a15.15,15.15,0,0,0,15,15.06A12.93,12.93,0,0,0,140.83,98.66Z" transform="translate(-49.1 -52.18)"/><path class="cls-2" d="M61.85,108.58V82C77.43,77.5,92.74,70.9,109,78.69c-3.61,4.33-7.48,9.16-11.63,13.73-.82.91-2.82.64-4.14,1.23-1.59.7-3.93,1.48-4.26,2.68s1.13,3.51,2.43,4.32c5.16,3.22,10.57,6,15.86,9,3.53,2,4.69,4.7,3.35,7.6S106.74,121,103,119.8c-6.36-2-12.76-3.88-19-6.23A17.8,17.8,0,0,1,77.33,109c-2.52-2.79-5.06-3.56-8.54-2.28A69.56,69.56,0,0,1,61.85,108.58Z" transform="translate(-49.1 -52.18)"/><path class="cls-2" d="M49.1,78.06h8v36.17H52.48Z" transform="translate(-49.1 -52.18)"/><path class="cls-2" d="M131.64,103.25a8.93,8.93,0,0,1-1.91,1.4,6.87,6.87,0,0,1-2,.75l-.56-1.66a1.06,1.06,0,0,1,0-.44.86.86,0,0,1,.18-.43,1.11,1.11,0,0,1,.4-.33c.18-.09.37-.17.59-.26s.46-.19.71-.31a3.63,3.63,0,0,0,.74-.47l-2.89-2.65c-.41.31-.83.61-1.28.89a4.67,4.67,0,0,1-1.4.6,3.62,3.62,0,0,1-1.54,0,4.17,4.17,0,0,1-1.7-.81,4,4,0,0,1-1.08-1.23,4.32,4.32,0,0,1-.54-1.61,5.25,5.25,0,0,1,.13-1.87,5.41,5.41,0,0,1,1-1.94l-.87-.79a.89.89,0,0,1-.26-.53.77.77,0,0,1,.16-.61l.71-.94,1.5,1.39a6.29,6.29,0,0,1,1.69-1.14,7.74,7.74,0,0,1,1.61-.5l.45,1.32a1.48,1.48,0,0,1,.08.51.75.75,0,0,1-.16.42,1.16,1.16,0,0,1-.28.25l-.42.26-.5.28a3.62,3.62,0,0,0-.54.36l2.71,2.49c.28-.21.56-.41.85-.6a7.45,7.45,0,0,1,.89-.53,5.34,5.34,0,0,1,.93-.38,3.1,3.1,0,0,1,1-.14,3,3,0,0,1,1,.17,3.94,3.94,0,0,1,1,.57,5.15,5.15,0,0,1,1.27,1.37,4.52,4.52,0,0,1,.64,1.69,5.17,5.17,0,0,1-.08,1.91,6.46,6.46,0,0,1-.87,2l1,.88a.83.83,0,0,1,.1,1.13l-.71.94ZM122.49,97a1.3,1.3,0,0,0,1,.28,3.07,3.07,0,0,0,1.12-.43l-2.31-2.12a3.48,3.48,0,0,0-.31.76,1.75,1.75,0,0,0-.05.63,1.25,1.25,0,0,0,.18.5A1.57,1.57,0,0,0,122.49,97Zm8,.51a1.25,1.25,0,0,0-1-.26,3.15,3.15,0,0,0-1.07.44L131,100A1.8,1.8,0,0,0,130.47,97.48Z" transform="translate(-49.1 -52.18)"/></g></svg>