<svg id="Layer_1" data-name="Layer 1" xmlns="http://www.w3.org/2000/svg" xmlns:xlink="http://www.w3.org/1999/xlink" viewBox="0 0 139.93 108.72"><defs><style>.cls-1,.cls-16,.cls-3,.cls-6,.cls-7{fill:none;}.cls-2{opacity:0.6;}.cls-3{stroke:#f5f3fa;}.cls-3,.cls-6{stroke-width:4px;}.cls-4{fill:#8c8cf9;}.cls-5{fill:#f5f3fa;}.cls-16,.cls-6,.cls-7{stroke:#fbfbfb;}.cls-7{stroke-width:7px;}.cls-8{clip-path:url(#clip-path);}.cls-9{clip-path:url(#clip-path-2);}.cls-10{clip-path:url(#clip-path-3);}.cls-11{clip-path:url(#clip-path-4);}.cls-12{clip-path:url(#clip-path-5);}.cls-13{clip-path:url(#clip-path-6);}.cls-14{clip-path:url(#clip-path-7);}.cls-15{clip-path:url(#clip-path-8);}.cls-16{stroke-miterlimit:10;stroke-width:5px;}</style><clipPath id="clip-path" transform="translate(-38.66 -73.42)"><polygon class="cls-1" points="74.31 77.84 74.31 76.45 72.67 74.81 72.67 77.84 74.31 77.84"/></clipPath><clipPath id="clip-path-2" transform="translate(-38.66 -73.42)"><polygon class="cls-1" points="75.7 76.45 74.31 76.45 72.67 74.81 75.7 74.81 75.7 76.45"/></clipPath><clipPath id="clip-path-3" transform="translate(-38.66 -73.42)"><polygon class="cls-1" points="142.49 76.45 143.88 76.45 145.52 74.81 142.49 74.81 142.49 76.45"/></clipPath><clipPath id="clip-path-4" transform="translate(-38.66 -73.42)"><polygon class="cls-1" points="143.88 77.84 143.88 76.45 145.52 74.81 145.52 77.84 143.88 77.84"/></clipPath><clipPath id="clip-path-5" transform="translate(-38.66 -73.42)"><polygon class="cls-1" points="143.88 151.01 143.88 152.41 145.52 154.04 145.52 151.01 143.88 151.01"/></clipPath><clipPath id="clip-path-6" transform="translate(-38.66 -73.42)"><polygon class="cls-1" points="142.49 152.41 143.88 152.41 145.52 154.04 142.49 154.04 142.49 152.41"/></clipPath><clipPath id="clip-path-7" transform="translate(-38.66 -73.42)"><polygon class="cls-1" points="75.7 152.41 74.31 152.41 72.67 154.04 75.7 154.04 75.7 152.41"/></clipPath><clipPath id="clip-path-8" transform="translate(-38.66 -73.42)"><polygon class="cls-1" points="74.31 151.01 74.31 152.41 72.67 154.04 72.67 151.01 74.31 151.01"/></clipPath></defs><g class="cls-2"><circle class="cls-3" cx="26.4" cy="44.43" r="24.4"/><circle class="cls-4" cx="26.4" cy="44.43" r="24.4"/><path class="cls-5" d="M65.5,134.13l9.39-13.28a.59.59,0,0,0-.29.1c-3,1.73-5.92,3.47-8.89,5.19a.48.48,0,0,0-.27.49c0,2.5,0,5,0,7.5Z" transform="translate(-38.66 -73.42)"/><path class="cls-5" d="M64.82,134.13c0-2.51,0-5,0-7.53a.46.46,0,0,0-.26-.46c-3-1.73-5.94-3.47-8.91-5.21l-.3-.15c.1.15.15.24.21.32l5.13,7.26,4.07,5.77Z" transform="translate(-38.66 -73.42)"/><path class="cls-5" d="M65.46,102.39a.28.28,0,0,0,0,.09c0,3.69,0,7.39,0,11.08,0,.22.11.28.27.35l8.8,3.85.34.14-9.34-15.54Z" transform="translate(-38.66 -73.42)"/><path class="cls-5" d="M55.83,117.73l8.77-3.83c.21-.09.22-.22.22-.41V102.64a2.63,2.63,0,0,0,0-.33l-9.24,15.53Z" transform="translate(-38.66 -73.42)"/><path class="cls-5" d="M65.47,124.29l9.58-5.6-9.58-4.2Z" transform="translate(-38.66 -73.42)"/><path class="cls-5" d="M55.22,118.69l9.58,5.61v-9.81Z" transform="translate(-38.66 -73.42)"/><circle class="cls-6" cx="114.13" cy="44.43" r="23.8"/><circle class="cls-4" cx="114.13" cy="44.43" r="23.8"/><polygon class="cls-5" points="114.36 48.86 115.65 43.24 118.2 42.28 118.2 39.51 116.35 40.22 118.38 31.37 110.87 31.37 108.14 43.32 105.58 44.29 105.58 47.06 107.44 46.35 105.88 53.19 123.55 53.19 124.63 48.86 114.36 48.86"/></g><circle class="cls-7" cx="69.43" cy="39.39" r="28.48"/><circle class="cls-4" cx="69.43" cy="39.39" r="28.48"/><path class="cls-5" d="M121.51,113.72a6.71,6.71,0,0,0-3.93-2.31c2.23-1.14,3.22-3.07,3-5.8a5.82,5.82,0,0,0-.82-2.57,5.13,5.13,0,0,0-1.86-1.75,10.13,10.13,0,0,0-2.54-1,19.62,19.62,0,0,0-3.14-.51V94.11h-3.46v5.5c-.6,0-1.52,0-2.75,0V94.11H102.5v5.66c-.49,0-1.22,0-2.18,0l-4.76,0v3.69h2.49a1.78,1.78,0,0,1,2,1.52v6.45a1.73,1.73,0,0,1,.36,0h-.36v9a1.2,1.2,0,0,1-1.3,1.15H96.26l-.7,4.11h6.94v5.73H106v-5.66l2.74,0v5.64h3.46v-5.73a26.17,26.17,0,0,0,3.27-.34,13.15,13.15,0,0,0,2.73-.77,7.28,7.28,0,0,0,2.18-1.32,6.33,6.33,0,0,0,1.45-2,8.64,8.64,0,0,0,.73-2.81,6.69,6.69,0,0,0-1-4.81ZM106,103.7h.89l1.21,0a11.32,11.32,0,0,1,1.31.06,13,13,0,0,1,1.38.17,7.37,7.37,0,0,1,1.23.38,3.28,3.28,0,0,1,1.08.63,3.1,3.1,0,0,1,.69.94,2.9,2.9,0,0,1,.28,1.31,3.27,3.27,0,0,1-.2,1.15,2.22,2.22,0,0,1-.61.86,5.68,5.68,0,0,1-.83.61,4.13,4.13,0,0,1-1.09.42c-.44.1-.83.19-1.16.24a8.94,8.94,0,0,1-1.23.13l-1.13,0c-.25,0-.6,0-1,0H106v-6.9ZM115.48,119a3.15,3.15,0,0,1-.55.9,3.19,3.19,0,0,1-.89.67,8,8,0,0,1-1.06.47,8.66,8.66,0,0,1-1.25.32c-.49.09-.92.15-1.28.19l-1.32.09-1.19,0H106v-7.6l1.07,0c.59,0,1.07,0,1.45,0s.89,0,1.55.06a14,14,0,0,1,1.66.21,11.89,11.89,0,0,1,1.47.41,4.28,4.28,0,0,1,1.3.69,3.42,3.42,0,0,1,.83,1,3.17,3.17,0,0,1,.12,2.59Zm0,0" transform="translate(-38.66 -73.42)"/><rect class="cls-4" x="34.01" y="68.99" width="1.64" height="4.3"/><rect class="cls-4" x="34.01" y="60.38" width="1.64" height="4.3"/><rect class="cls-4" x="34.01" y="51.77" width="1.64" height="4.3"/><rect class="cls-4" x="34.01" y="43.16" width="1.64" height="4.3"/><rect class="cls-4" x="34.01" y="34.55" width="1.64" height="4.3"/><rect class="cls-4" x="34.01" y="25.95" width="1.64" height="4.3"/><rect class="cls-4" x="34.01" y="17.34" width="1.64" height="4.3"/><rect class="cls-4" x="34.01" y="8.73" width="1.64" height="4.3"/><rect class="cls-4" x="41.49" y="1.39" width="4.45" height="1.64"/><rect class="cls-4" x="50.4" y="1.39" width="4.45" height="1.64"/><rect class="cls-4" x="59.3" y="1.39" width="4.45" height="1.64"/><rect class="cls-4" x="68.21" y="1.39" width="4.45" height="1.64"/><rect class="cls-4" x="77.11" y="1.39" width="4.45" height="1.64"/><rect class="cls-4" x="86.02" y="1.39" width="4.45" height="1.64"/><rect class="cls-4" x="94.92" y="1.39" width="4.45" height="1.64"/><rect class="cls-4" x="105.22" y="8.73" width="1.64" height="4.3"/><rect class="cls-4" x="105.22" y="17.34" width="1.64" height="4.3"/><rect class="cls-4" x="105.22" y="25.95" width="1.64" height="4.3"/><rect class="cls-4" x="105.22" y="34.55" width="1.64" height="4.3"/><rect class="cls-4" x="105.22" y="43.16" width="1.64" height="4.3"/><rect class="cls-4" x="105.22" y="51.77" width="1.64" height="4.3"/><rect class="cls-4" x="105.22" y="60.38" width="1.64" height="4.3"/><rect class="cls-4" x="105.22" y="68.99" width="1.64" height="4.3"/><rect class="cls-4" x="94.92" y="78.99" width="4.45" height="1.64"/><rect class="cls-4" x="86.02" y="78.99" width="4.45" height="1.64"/><rect class="cls-4" x="77.11" y="78.99" width="4.45" height="1.64"/><rect class="cls-4" x="68.21" y="78.99" width="4.45" height="1.64"/><rect class="cls-4" x="59.3" y="78.99" width="4.45" height="1.64"/><rect class="cls-4" x="50.4" y="78.99" width="4.45" height="1.64"/><rect class="cls-4" x="41.49" y="78.99" width="4.45" height="1.64"/><g class="cls-8"><rect class="cls-4" x="34.01" width="1.64" height="4.43"/></g><g class="cls-9"><rect class="cls-4" x="32.61" y="1.39" width="4.43" height="1.64"/></g><g class="cls-10"><rect class="cls-4" x="103.83" y="1.39" width="4.43" height="1.64"/></g><g class="cls-11"><rect class="cls-4" x="105.22" width="1.64" height="4.43"/></g><g class="cls-12"><rect class="cls-4" x="105.22" y="77.6" width="1.64" height="4.43"/></g><g class="cls-13"><rect class="cls-4" x="103.83" y="78.99" width="4.43" height="1.64"/></g><g class="cls-14"><rect class="cls-4" x="32.61" y="78.99" width="4.43" height="1.64"/></g><g class="cls-15"><rect class="cls-4" x="34.01" y="77.6" width="1.64" height="4.43"/></g><path class="cls-16" d="M161.26,171.31l-14.94-18.37-7.71,21.76c-7-19.54-14-38.91-21-58.49l57.24,22.33v.17l-20.4,6.75,15,17.92Z" transform="translate(-38.66 -73.42)"/><path class="cls-4" d="M161.26,171.31l-14.94-18.37-7.71,21.76c-7-19.54-14-38.91-21-58.49l57.24,22.33v.17l-20.4,6.75,15,17.92Z" transform="translate(-38.66 -73.42)"/></svg>