<svg id="Layer_1" data-name="Layer 1" xmlns="http://www.w3.org/2000/svg" viewBox="0 0 74.54 103.4"><defs><style>.cls-1{fill:#fff;}</style></defs><path class="cls-1" d="M134,103.68a15.91,15.91,0,0,0,4.38-11v-1.9A18.29,18.29,0,0,0,120.12,72.5h-2.76V56.77h-9.83V72.5H100V56.77H90.15V72.5H70.26V83.12H83v51.16H72L70.26,144.9H90.15v15.27H100V144.9h7.54v15.27h9.83V144.9H124a20.81,20.81,0,0,0,20.81-20.81V121.9A20.75,20.75,0,0,0,134,103.68ZM100,81.94h13.68a8.77,8.77,0,0,1,8.76,8.77,8.76,8.76,0,0,1-8.76,8.75H100Zm15.86,52.5H100V111.55h15.87a11.45,11.45,0,1,1,0,22.89Z" transform="translate(-70.26 -56.77)"/></svg>