<?xml version="1.0" encoding="utf-8"?>
<!-- Generator: Adobe Illustrator 25.4.1, SVG Export Plug-In . SVG Version: 6.00 Build 0)  -->
<svg version="1.1" id="Layer_1" xmlns="http://www.w3.org/2000/svg" xmlns:xlink="http://www.w3.org/1999/xlink" x="0px" y="0px"
	 viewBox="0 0 74.8 107.9" style="enable-background:new 0 0 74.8 107.9;" xml:space="preserve">
<style type="text/css">
	.st0{fill:#8353E0;}
	.st1{fill:#FFFFFF;}
	.st2{clip-path:url(#SVGID_00000025400873821567744280000003416418232261132450_);}
	.st3{clip-path:url(#SVGID_00000165936312676349903040000007629476909845985161_);}
	.st4{clip-path:url(#SVGID_00000145773618704938063000000015372141280048163488_);fill:#8353E0;}
	.st5{clip-path:url(#SVGID_00000145773618704938063000000015372141280048163488_);fill:#FFFFFF;}
	.st6{clip-path:url(#SVGID_00000145773618704938063000000015372141280048163488_);}
</style>
<circle class="st0" cx="27.1" cy="36.5" r="19.2"/>
<path class="st1" d="M35.5,37.4c-0.7-0.8-1.6-1.4-2.6-1.6c1.5-0.7,2.3-2.3,2-3.9c0-0.6-0.2-1.2-0.5-1.7c-0.3-0.5-0.7-0.9-1.2-1.2
	c-0.5-0.3-1.1-0.5-1.7-0.7c-0.7-0.2-1.4-0.3-2.2-0.3v-3.8h-2.3v3.7h-1.8v-3.7h-2.3V28h-4.6v2.5h1.7c0.6-0.1,1.2,0.4,1.3,1v4.3h0.2
	h-0.2v6.1c0,0.4-0.4,0.8-0.8,0.8c0,0,0,0,0,0h-1.7l-0.5,2.8h4.7v3.8h2.3v-3.8h1.8v3.8h2.3v-3.8c0.7,0,1.5-0.1,2.2-0.2
	c0.6-0.1,1.2-0.3,1.8-0.5c0.5-0.2,1-0.5,1.5-0.9c0.4-0.4,0.8-0.8,1-1.3c0.3-0.6,0.4-1.2,0.5-1.8C36.4,39.5,36.1,38.3,35.5,37.4
	L35.5,37.4z M25.1,30.6h0.6h0.8c0.2,0,0.5,0,0.9,0c0.3,0,0.6,0.1,0.9,0.1c0.3,0.1,0.6,0.1,0.8,0.2c0.3,0.1,0.5,0.2,0.7,0.4
	c0.2,0.2,0.3,0.4,0.5,0.6c0.1,0.3,0.2,0.6,0.2,0.9c0,0.3,0,0.5-0.1,0.8c-0.1,0.2-0.2,0.4-0.4,0.6c-0.2,0.2-0.4,0.3-0.6,0.4
	c-0.2,0.1-0.5,0.2-0.7,0.3l-0.8,0.2c-0.3,0-0.5,0.1-0.8,0.1h-0.8c-0.2,0-0.4,0-0.7,0h-0.5C25.1,35.2,25.1,30.6,25.1,30.6z
	 M31.4,40.9c-0.1,0.2-0.2,0.4-0.4,0.6c-0.2,0.2-0.4,0.3-0.6,0.4c-0.2,0.1-0.5,0.2-0.7,0.3c-0.3,0.1-0.6,0.2-0.8,0.2
	c-0.3,0.1-0.6,0.1-0.9,0.1l-0.9,0.1h-0.8h-1.3v-5h0.7h1c0.2,0,0.6,0,1,0c0.4,0,0.7,0.1,1.1,0.1c0.3,0.1,0.6,0.2,1,0.3
	c0.3,0.1,0.6,0.3,0.9,0.5c0.2,0.2,0.4,0.4,0.6,0.7c0.2,0.3,0.2,0.7,0.2,1C31.6,40.4,31.5,40.7,31.4,40.9L31.4,40.9z"/>
<g>
	<defs>
		<path id="SVGID_1_" d="M48.2,43.1c2-7,0.5-14.5-4-20.1l4.1-5l7.1-3c0,0,9.3,0.7,9.6,0.7s8.9,3.4,9.2,4s-0.1,12.8,0,13.3
			s-5.8,9.2-5.8,9.2l-11,3.7L48.2,43.1z"/>
	</defs>
	<clipPath id="SVGID_00000138548564534677159770000011293131827472949928_">
		<use xlink:href="#SVGID_1_"  style="overflow:visible;"/>
	</clipPath>
	<g style="clip-path:url(#SVGID_00000138548564534677159770000011293131827472949928_);">
		<path class="st0" d="M70.4,29.4c0,7.3-5.9,13.3-13.3,13.3c-7.3,0-13.3-5.9-13.3-13.3c0-7.3,5.9-13.3,13.3-13.3c0,0,0,0,0,0
			C64.4,16.1,70.4,22,70.4,29.4z M56.6,33l0.8-3.5l1.6-0.6v-1.7l-1.2,0.4l1.3-5.6h-4.7l-1.7,7.5l-1.6,0.6v1.7l1.2-0.4l-1,4.3h11.1
			l0.7-2.7L56.6,33z"/>
	</g>
</g>
<g>
	<defs>
		<path id="SVGID_00000183206445354913632890000004751969145923336891_" d="M30.8,15c4.9,0.8,9.4,3.3,12.7,7l-1.2,0.1
			c2.7-5.3,8-8.8,14-8.9l-0.8-8l-4.3-8L35.2-5.3c0,0-9,4.4-8.7,5.3s1.7,8.8,1.9,9.5S30.8,15,30.8,15z"/>
	</defs>
	<clipPath id="SVGID_00000080208607318727505040000014930605336992385412_">
		<use xlink:href="#SVGID_00000183206445354913632890000004751969145923336891_"  style="overflow:visible;"/>
	</clipPath>
	<g style="clip-path:url(#SVGID_00000080208607318727505040000014930605336992385412_);">
		<path class="st0" d="M52,10.2c0,5.6-4.6,10.2-10.2,10.2s-10.2-4.6-10.2-10.2C31.6,4.6,36.2,0,41.8,0C47.4,0,52,4.6,52,10.2
			C52,10.2,52,10.2,52,10.2z M41.2,6c-0.2,0.7-0.1,1.5,0.3,2.1c0.3,0.5,0.2,1.1-0.3,1.4c0,0,0,0,0,0c-0.5,0.3-1.1,0.2-1.4-0.3
			c0,0,0,0,0-0.1c-0.6-1.1-1.9-1.6-3.1-1.2C35.3,8.2,34.6,9.6,35,11c0.3,1,1.2,1.7,2.3,1.8c1,0.1,2-0.4,2.6-1.3
			c0.3-0.5,0.9-0.7,1.3-0.4c0,0,0.1,0,0.1,0.1c0.5,0.3,0.6,0.9,0.3,1.4c0,0,0,0,0,0c-0.3,0.4-0.4,0.9-0.3,1.4
			c0.1,1.4,1.4,2.5,2.8,2.4c1.1-0.1,2.1-0.9,2.3-2c0.2-1-0.3-2.1-1.2-2.6c-0.5-0.3-1-0.4-1.5-0.4c-0.6,0-1-0.4-1-1s0.4-1,1-1
			c0.7,0,1.4-0.3,1.9-0.8c0.7-0.7,0.9-1.8,0.5-2.7c-0.3-0.9-1.2-1.5-2.1-1.5C42.7,4.1,41.6,4.8,41.2,6z"/>
	</g>
</g>
<g>
	<defs>
		<path id="SVGID_00000110443568253433046450000017700629094849878405_" d="M5.1,42.8c3.2,12.1,15.7,19.3,27.8,16.1
			c8.2-2.2,14.4-8.7,16.3-17l3.8,0.8l12.4,0.6l14.1,0.9l-2.3,65.3H-4l2-65.3L5.1,42.8z"/>
	</defs>
	<clipPath id="SVGID_00000018231906970520907790000014661994020470875054_">
		<use xlink:href="#SVGID_00000110443568253433046450000017700629094849878405_"  style="overflow:visible;"/>
	</clipPath>
	
		<rect x="2.8" y="46.3" style="clip-path:url(#SVGID_00000018231906970520907790000014661994020470875054_);fill:#8353E0;" width="69.3" height="57.6"/>
	
		<rect x="9.6" y="53.2" style="clip-path:url(#SVGID_00000018231906970520907790000014661994020470875054_);fill:#FFFFFF;" width="56.5" height="43"/>
	<g style="clip-path:url(#SVGID_00000018231906970520907790000014661994020470875054_);">
		<path class="st0" d="M67,106.4v1.5h-7.7l-0.1-1.4H15.6l-0.1,1.5H7.8l-0.1-1.4c-0.8-0.1-1.7-0.1-2.5-0.2c-3-0.4-5.3-3-5.3-6.1
			c0-2.8,0-5.6,0-8.4V51c0-4.3,2.6-6.9,6.9-6.9h61c4.3,0,6.8,2.6,6.8,6.9c0,16.1-0.1,32.3,0,48.4c0,4.2-2.9,7.3-7.1,7.1L67,106.4z
			 M37.4,103.3h30.5c2.6,0,3.8-1.1,3.8-3.8V51c0-2.6-1.1-3.8-3.8-3.8H6.9c-2.6,0-3.8,1.2-3.8,3.8v48.6c0,2.6,1.2,3.8,3.8,3.8
			L37.4,103.3z"/>
		<path class="st0" d="M37.3,51.9h27.4c1.9,0,2.3,0.4,2.3,2.3v42.2c0,1.8-0.5,2.3-2.2,2.3H10c-1.7,0-2.2-0.5-2.2-2.2V54.2
			c0-1.8,0.4-2.2,2.2-2.2H37.3z M63.8,95.5V55.1H10.9v1c0,4,0.2,7.9-0.1,11.9c-0.1,2.5,0.4,4.5,2.5,5.9c0.1,0.1,0.1,0.1,0.2,0.2
			c0.7,0.6,0.8,1.6,0.2,2.2c-0.1,0.1-0.1,0.1-0.2,0.2c-0.7,0.7-1.4,1.4-2,2.1C11.2,79,11,79.4,11,79.9c0,4.9,0,9.9,0,14.8
			c0,0.3,0,0.6,0.1,0.8L63.8,95.5z"/>
		<path class="st0" d="M54.5,75.3c-0.3,9.7-7.4,17.1-17.1,17C27.2,92.3,20.2,85,20.3,75.3s7.2-17,17.1-17.1S54.3,66.1,54.5,75.3z
			 M46.1,86.2c-0.5-0.6-0.5-1.5,0-2.1c0.7-0.8,1.5-0.5,2.3-0.1c1.6-2,2.7-4.5,2.9-7.1c-0.9-0.2-1.5-0.6-1.6-1.5s0.3-1.3,1.6-1.8
			c-0.3-2.6-1.4-5-3-7c-1,0.6-1.7,0.6-2.3,0.1s-0.7-1.3-0.1-2.4c-2-1.6-4.5-2.7-7.1-2.9c0,0.8-0.7,1.5-1.5,1.5c-1,0-1.4-0.7-1.7-1.5
			c-2.6,0.3-5,1.4-7,3c0.6,1,0.6,1.7,0.1,2.3s-1.2,0.6-2.4,0.1c-1.6,2-2.6,4.4-2.9,7c0.9,0.2,1.5,0.7,1.5,1.6s-0.6,1.4-1.5,1.6
			c0.3,2.6,1.3,5.1,3,7.1c0.6-0.6,1.5-0.6,2.1,0c0.6,0.6,0.7,1.6,0.1,2.2c2,1.7,4.5,2.7,7.1,3c0.2-0.9,0.7-1.5,1.6-1.5
			s1.4,0.7,1.6,1.5C41.6,88.9,44,87.9,46.1,86.2z"/>
		<path class="st0" d="M45.2,75.3c0,4.3-3.5,7.8-7.8,7.7s-7.8-3.5-7.7-7.8c0-4.3,3.5-7.8,7.8-7.7c0,0,0,0,0,0
			C41.7,67.5,45.2,71,45.2,75.3z M42.1,75.3c0-2.6-2.1-4.7-4.7-4.6c-2.6,0-4.7,2.1-4.6,4.7c0,2.6,2.1,4.6,4.6,4.6
			C40,80,42,77.9,42.1,75.3C42,75.3,42,75.3,42.1,75.3L42.1,75.3z"/>
	</g>
</g>
</svg>
