<svg id="Layer_1" data-name="Layer 1" xmlns="http://www.w3.org/2000/svg" xmlns:xlink="http://www.w3.org/1999/xlink" viewBox="0 0 98.62 147.79"><defs><style>.cls-1{fill:none;}.cls-2{fill:#ef712b;}.cls-3{clip-path:url(#clip-path);}.cls-4{fill:#fff;}</style><clipPath id="clip-path" transform="translate(-59.48 -39.38)"><path class="cls-1" d="M66.17,117.63S96.69,88,100.4,86.54a11.58,11.58,0,0,1,7.13-.28l43.25,41.51L164,97.07l-4.56-47L119.63,29.78,69,34.91,51.05,64l2.28,47.63Z"/></clipPath></defs><path class="cls-2" d="M150.78,137.56,109.44,96.22a8.34,8.34,0,0,0-11.79,0L75,118.85a8.46,8.46,0,0,0,0,11.9l3.75,3.85h8.66l-8.08-8.17a2.37,2.37,0,0,1-.65-1.63,2.31,2.31,0,0,1,.65-1.6l3-2.9,14.2,14.3h13.64l-21-21.12L102,100.59a2.23,2.23,0,0,1,3.14,0l41.34,41.33a2.23,2.23,0,0,1,.64,1.58,2.35,2.35,0,0,1-.7,1.56l-2.35,2.28V156l6.67-6.61a8.34,8.34,0,0,0,.06-11.8Zm0,0" transform="translate(-59.48 -39.38)"/><path class="cls-2" d="M131.38,138.48H72.92a8.5,8.5,0,0,0-8.54,8.31v22.12h75.24V146.79a8.23,8.23,0,0,0-8.24-8.31ZM84.8,161.38a6,6,0,0,1-4.19-1.69,6.07,6.07,0,1,1-4.2-10.44,6,6,0,0,1,4.2,1.69,6.06,6.06,0,1,1,4.19,10.44Zm0,0" transform="translate(-59.48 -39.38)"/><path class="cls-2" d="M64.38,178.8a8.54,8.54,0,0,0,8.54,8.37h58.46a8.28,8.28,0,0,0,8.24-8.37v-.48H64.38Zm0,0" transform="translate(-59.48 -39.38)"/><g class="cls-3"><circle class="cls-2" cx="49.31" cy="49.31" r="49.31"/><path class="cls-4" d="M132,90.22a11.17,11.17,0,0,0-6.53-3.84c3.7-1.9,5.33-5.1,4.88-9.63a9.49,9.49,0,0,0-1.36-4.27,8.45,8.45,0,0,0-3.08-2.91,16.54,16.54,0,0,0-4.21-1.68,32.36,32.36,0,0,0-5.23-.84v-9.4h-5.74v9.14c-1,0-2.51,0-4.56.07V57.65h-5.74v9.4c-.82,0-2,0-3.62,0l-7.91,0v6.12H93c1.89,0,3,.84,3.32,2.54v10.7a4.47,4.47,0,0,1,.6,0h-.6v15a2,2,0,0,1-2.16,1.9H90l-1.16,6.83h7.46l2,0,2,0v9.51h5.75v-9.4c1,0,2.56,0,4.55,0v9.36h5.74v-9.51a45.8,45.8,0,0,0,5.43-.56,22.31,22.31,0,0,0,4.54-1.29,12.14,12.14,0,0,0,3.61-2.18,10.27,10.27,0,0,0,2.41-3.32,13.92,13.92,0,0,0,1.21-4.67c.33-3.45-.23-6.12-1.67-8ZM106.24,73.58l1.47,0,2,0q.8,0,2.16.09c.91.08,1.67.18,2.3.3a13.21,13.21,0,0,1,2,.62,5.75,5.75,0,0,1,1.79,1,5.58,5.58,0,0,1,1.14,1.57,4.89,4.89,0,0,1,.46,2.18,5.32,5.32,0,0,1-.33,1.91,3.59,3.59,0,0,1-1,1.43,10.55,10.55,0,0,1-1.38,1,6.11,6.11,0,0,1-1.81.69c-.74.17-1.38.31-1.92.41a16.1,16.1,0,0,1-2.05.21l-1.87.07q-.63,0-1.74,0l-1.28,0V73.58ZM121.93,99a5.2,5.2,0,0,1-.92,1.49,5.09,5.09,0,0,1-1.47,1.12,13.32,13.32,0,0,1-1.77.78,14.47,14.47,0,0,1-2.07.52c-.81.15-1.52.26-2.13.32s-1.34.11-2.18.15-1.51.06-2,.06l-1.79,0-1.38,0V90.78l1.77,0c1,0,1.78,0,2.41,0s1.48,0,2.57.11a23.05,23.05,0,0,1,2.76.34,18.58,18.58,0,0,1,2.45.69A7,7,0,0,1,120.34,93a5.51,5.51,0,0,1,1.38,1.72,5,5,0,0,1,.56,2.38,5.11,5.11,0,0,1-.35,1.91Zm0,0" transform="translate(-59.48 -39.38)"/></g></svg>