<svg id="Layer_1" data-name="Layer 1" xmlns="http://www.w3.org/2000/svg" viewBox="0 0 142.06 101.81"><defs><style>.cls-1{fill:#8c8cf9;}.cls-2{fill:#fbfbfb;}.cls-3{fill:none;stroke:#fbfbfb;stroke-width:9px;}</style></defs><path class="cls-1" d="M145.31,83.41l2.48.47c.84.17,1.68.35,2.52.49a.65.65,0,0,0,.48-.15c1.34-1.22,2.66-2.47,4-3.71a2.41,2.41,0,0,1,3.45,0c1.32,1.24,2.66,2.47,4,3.72a.59.59,0,0,0,.56.14c1.75-.3,3.51-.52,5.23-.9a2.54,2.54,0,0,1,2.89,2.06c.28,1.62.57,3.24.84,4.86a.63.63,0,0,0,.39.54c1.56.73,3.11,1.49,4.67,2.23a2.16,2.16,0,0,1,1.35,1.73,2.47,2.47,0,0,1-.31,1.45c-.75,1.46-1.49,2.93-2.26,4.39a.6.6,0,0,0,.06.71q1.49,2.11,2.93,4.27a2.91,2.91,0,0,1,.42,1,1.94,1.94,0,0,1-1.23,2.27l-3.07,1.45c-.58.27-1.15.55-1.73.81a.53.53,0,0,0-.35.45c-.24,1.62-.5,3.23-.76,4.85a2.6,2.6,0,0,1-1.92,2.14,2.12,2.12,0,0,1-.71,0l-5.54-.92a.69.69,0,0,0-.68.2c-1.27,1.21-2.57,2.4-3.85,3.6a2.37,2.37,0,0,1-3.56,0L151.69,118a.63.63,0,0,0-.61-.19c-1.75.3-3.52.54-5.27.91a2.54,2.54,0,0,1-2.83-2c-.29-1.65-.59-3.31-.87-5a.53.53,0,0,0-.35-.45l-4.54-2.18a2.36,2.36,0,0,1-1.14-3.34c.74-1.46,1.49-2.93,2.25-4.39a.52.52,0,0,0,0-.54c-.74-1.43-1.46-2.87-2.2-4.3-.07-.16-.15-.31-.22-.47A2.08,2.08,0,0,1,137,93.24c.92-.47,1.87-.91,2.8-1.36.67-.32,1.34-.65,2-1a.52.52,0,0,0,.34-.46c.28-1.64.56-3.29.87-4.92a2.36,2.36,0,0,1,1.74-2.05A4.22,4.22,0,0,1,145.31,83.41Z" transform="translate(-36.97 -59.66)"/><path class="cls-2" d="M156.06,93.9a4.14,4.14,0,0,0,.51,3.45,1.63,1.63,0,0,1-.54,2.32,1.7,1.7,0,0,1-2.37-.67,4.39,4.39,0,0,0-5.16-2,4.25,4.25,0,0,0-3,4.55,4.32,4.32,0,0,0,3.93,3.7,4.41,4.41,0,0,0,4.26-2.25,1.72,1.72,0,0,1,2.47-.6,1.67,1.67,0,0,1,.42,2.35,3.47,3.47,0,0,0-.59,2.32,4.36,4.36,0,0,0,8.61.57,4.19,4.19,0,0,0-2-4.39,4.86,4.86,0,0,0-2.5-.65,1.7,1.7,0,0,1-1.73-2.12,1.68,1.68,0,0,1,1.78-1.21,4.1,4.1,0,0,0,3.22-1.36,3.92,3.92,0,0,0,.79-4.5,4,4,0,0,0-3.57-2.58A4.42,4.42,0,0,0,156.06,93.9Z" transform="translate(-36.97 -59.66)"/><path class="cls-1" d="M46.58,83.41l2.48.47c.84.17,1.67.35,2.52.49a.66.66,0,0,0,.48-.15c1.33-1.22,2.66-2.47,4-3.71a2.4,2.4,0,0,1,3.44,0c1.33,1.24,2.67,2.47,4,3.72a.59.59,0,0,0,.56.14c1.74-.3,3.5-.52,5.23-.9a2.53,2.53,0,0,1,2.88,2.06c.29,1.62.57,3.24.85,4.86a.62.62,0,0,0,.39.54c1.56.73,3.11,1.49,4.66,2.23a2.17,2.17,0,0,1,1.36,1.73,2.56,2.56,0,0,1-.32,1.45c-.74,1.46-1.48,2.93-2.25,4.39a.59.59,0,0,0,.06.71c1,1.41,2,2.83,2.92,4.27a2.76,2.76,0,0,1,.43,1A2,2,0,0,1,79,109L76,110.47c-.58.27-1.15.55-1.74.81a.52.52,0,0,0-.34.45c-.24,1.62-.5,3.23-.76,4.85a2.6,2.6,0,0,1-1.92,2.14,2.12,2.12,0,0,1-.71,0l-5.55-.92a.68.68,0,0,0-.67.2c-1.28,1.21-2.57,2.4-3.85,3.6a2.38,2.38,0,0,1-3.57,0L53,118a.64.64,0,0,0-.61-.19c-1.76.3-3.53.54-5.27.91a2.52,2.52,0,0,1-2.83-2c-.3-1.65-.59-3.31-.87-5a.55.55,0,0,0-.35-.45l-4.54-2.18a2.36,2.36,0,0,1-1.14-3.34l2.24-4.39a.52.52,0,0,0,0-.54c-.74-1.43-1.47-2.87-2.2-4.3a5,5,0,0,1-.22-.47,2.07,2.07,0,0,1,1-2.82c.93-.47,1.87-.91,2.81-1.36l2-1a.55.55,0,0,0,.34-.46c.28-1.64.56-3.29.87-4.92A2.36,2.36,0,0,1,46,83.49,4.38,4.38,0,0,1,46.58,83.41Z" transform="translate(-36.97 -59.66)"/><path class="cls-2" d="M65.47,101.62a3.64,3.64,0,0,0-2.16-1.27,2.93,2.93,0,0,0,1.62-3.19,3.17,3.17,0,0,0-.45-1.41,2.88,2.88,0,0,0-1-1,5.45,5.45,0,0,0-1.39-.55A11.18,11.18,0,0,0,60.34,94V90.84H58.43v3l-1.5,0v-3H55V94H51.21v2h1.37a1,1,0,0,1,1.1.84v3.55h0v5A.67.67,0,0,1,53,106H51.59l-.38,2.26H55v3.15h1.91v-3.11h1.5v3.1h1.91v-3.15a14.4,14.4,0,0,0,1.79-.18,7.22,7.22,0,0,0,1.5-.43,3.91,3.91,0,0,0,1.2-.72,3.51,3.51,0,0,0,.8-1.1,4.76,4.76,0,0,0,.4-1.55,3.63,3.63,0,0,0-.56-2.64ZM57,96.11h1.16l.71,0c.31,0,.56.06.77.1a3.62,3.62,0,0,1,.67.21,1.72,1.72,0,0,1,.6.34,1.68,1.68,0,0,1,.37.52,1.53,1.53,0,0,1,.16.72,1.81,1.81,0,0,1-.11.63,1.27,1.27,0,0,1-.34.48,2.73,2.73,0,0,1-.45.33,2.09,2.09,0,0,1-.6.23l-.64.14a5.53,5.53,0,0,1-.68.06l-.62,0H57V96.11Zm5.2,8.41a1.57,1.57,0,0,1-.79.87,5.92,5.92,0,0,1-.59.26,6.11,6.11,0,0,1-.68.17c-.27.05-.51.08-.71.1a6.77,6.77,0,0,1-.72,0c-.28,0-.5,0-.66,0H57V101.8h1.39c.2,0,.49,0,.85,0a6.29,6.29,0,0,1,.91.11,5,5,0,0,1,.81.23,2.48,2.48,0,0,1,.71.37,1.86,1.86,0,0,1,.46.57,1.71,1.71,0,0,1,.19.79,1.61,1.61,0,0,1-.12.63Zm0,0" transform="translate(-36.97 -59.66)"/><path class="cls-3" d="M111.15,63c2.19,2.05,4.4,4.09,6.58,6.15a.93.93,0,0,0,.92.23c2.89-.49,5.79-.86,8.65-1.48a4.18,4.18,0,0,1,4.76,3.4c.47,2.67.94,5.35,1.39,8a1,1,0,0,0,.64.88c2.58,1.21,5.14,2.46,7.71,3.69A3.57,3.57,0,0,1,144,86.71a4.08,4.08,0,0,1-.52,2.39c-1.24,2.42-2.46,4.85-3.72,7.26a1,1,0,0,0,.09,1.16c1.63,2.34,3.25,4.68,4.83,7a4.83,4.83,0,0,1,.7,1.71,3.21,3.21,0,0,1-2,3.75l-5.06,2.39c-1,.45-1.91.91-2.87,1.35a.85.85,0,0,0-.57.74c-.4,2.67-.82,5.33-1.25,8a4.28,4.28,0,0,1-3.17,3.53,3.35,3.35,0,0,1-1.18,0c-3-.49-6.11-1-9.16-1.52a1.18,1.18,0,0,0-1.11.33c-2.11,2-4.24,4-6.36,6a3.93,3.93,0,0,1-5.89,0c-2.13-2-4.28-4-6.41-6a1,1,0,0,0-1-.3c-2.9.49-5.82.88-8.7,1.49A4.18,4.18,0,0,1,86,122.7c-.48-2.73-1-5.46-1.43-8.2a.88.88,0,0,0-.58-.74l-7.5-3.6a3.9,3.9,0,0,1-1.88-5.51c1.23-2.42,2.46-4.84,3.71-7.26a.82.82,0,0,0,0-.88c-1.22-2.37-2.42-4.74-3.63-7.11a6.76,6.76,0,0,1-.36-.77A3.42,3.42,0,0,1,76,84c1.53-.77,3.08-1.5,4.63-2.24,1.11-.54,2.21-1.08,3.32-1.59a.88.88,0,0,0,.56-.75C85,76.67,85.46,74,86,71.25a3.89,3.89,0,0,1,2.86-3.38,7.68,7.68,0,0,1,1-.14l4.09.79c1.39.27,2.78.56,4.17.8a1.08,1.08,0,0,0,.79-.24q3.31-3,6.59-6.13" transform="translate(-36.97 -59.66)"/><path class="cls-1" d="M111.15,63c2.19,2.05,4.4,4.09,6.58,6.15a.93.93,0,0,0,.92.23c2.89-.49,5.79-.86,8.65-1.48a4.18,4.18,0,0,1,4.76,3.4c.47,2.67.94,5.35,1.39,8a1,1,0,0,0,.64.88c2.58,1.21,5.14,2.46,7.71,3.69A3.57,3.57,0,0,1,144,86.71a4.08,4.08,0,0,1-.52,2.39c-1.24,2.42-2.46,4.85-3.72,7.26a1,1,0,0,0,.09,1.16c1.63,2.34,3.25,4.68,4.83,7a4.83,4.83,0,0,1,.7,1.71,3.21,3.21,0,0,1-2,3.75l-5.06,2.39c-1,.45-1.91.91-2.87,1.35a.85.85,0,0,0-.57.74c-.4,2.67-.82,5.33-1.25,8a4.28,4.28,0,0,1-3.17,3.53,3.35,3.35,0,0,1-1.18,0c-3-.49-6.11-1-9.16-1.52a1.18,1.18,0,0,0-1.11.33c-2.11,2-4.24,4-6.36,6a3.93,3.93,0,0,1-5.89,0c-2.13-2-4.28-4-6.41-6a1,1,0,0,0-1-.3c-2.9.49-5.82.88-8.7,1.49A4.18,4.18,0,0,1,86,122.7c-.48-2.73-1-5.46-1.43-8.2a.88.88,0,0,0-.58-.74l-7.5-3.6a3.9,3.9,0,0,1-1.88-5.51c1.23-2.42,2.46-4.84,3.71-7.26a.82.82,0,0,0,0-.88c-1.22-2.37-2.42-4.74-3.63-7.11a6.76,6.76,0,0,1-.36-.77A3.42,3.42,0,0,1,76,84c1.53-.77,3.08-1.5,4.63-2.24,1.11-.54,2.21-1.08,3.32-1.59a.88.88,0,0,0,.56-.75C85,76.67,85.46,74,86,71.25a3.89,3.89,0,0,1,2.86-3.38,7.68,7.68,0,0,1,1-.14l4.09.79c1.39.27,2.78.56,4.17.8a1.08,1.08,0,0,0,.79-.24q3.31-3,6.59-6.13" transform="translate(-36.97 -59.66)"/><path class="cls-1" d="M127.2,161.47Q121,148.71,114.73,136a.62.62,0,0,1,.17-.9c1.77-1.55,3.52-3.14,5.26-4.73a1.07,1.07,0,0,1,1-.28c2,.33,3.91.65,5.87.94a8.92,8.92,0,0,0,9.91-6.81c.53-2,1-4,1.46-6,0-.16.09-.32.18-.65,5.33,10.57,10.61,21,15.94,31.55l-2.88-.38c-4.86-.67-9.72-1.34-14.58-2a.71.71,0,0,0-.83.43q-4.2,7.22-8.44,14.41" transform="translate(-36.97 -59.66)"/><path class="cls-1" d="M89.51,159.37q-3.65-6.42-7.29-12.84a.67.67,0,0,0-.8-.4q-8.55,1.22-17.09,2.39H64c.09-.21.15-.37.23-.52q7.47-15,15-30a.63.63,0,0,1,.1-.2c.13-.11.28-.2.41-.31.1.14.25.27.27.42.24,1.34.46,2.68.68,4,.14.78.23,1.57.42,2.34A9.3,9.3,0,0,0,91.62,131q3-.51,6-.94a.88.88,0,0,1,.65.18c1.8,1.61,3.57,3.26,5.36,4.88a.55.55,0,0,1,.14.77q-6.27,12.81-12.52,25.62" transform="translate(-36.97 -59.66)"/><path class="cls-2" d="M110.26,118.51,123.9,99.22a.8.8,0,0,0-.42.14c-4.31,2.52-8.6,5-12.91,7.55a.7.7,0,0,0-.4.71c0,3.63,0,7.26,0,10.89Z" transform="translate(-36.97 -59.66)"/><path class="cls-2" d="M109.27,118.51c0-3.64,0-7.29,0-10.93a.67.67,0,0,0-.39-.67q-6.47-3.76-12.94-7.57l-.44-.22.31.46q3.73,5.28,7.46,10.55l5.91,8.38Z" transform="translate(-36.97 -59.66)"/><path class="cls-2" d="M110.19,72.4s0,.08,0,.13q0,8.06,0,16.1c0,.31.15.4.39.51l12.78,5.59.51.2L110.28,72.36Z" transform="translate(-36.97 -59.66)"/><path class="cls-2" d="M96.2,94.69l12.74-5.57c.31-.13.33-.32.33-.59q0-7.89,0-15.77c0-.13,0-.25,0-.48L95.79,94.85Z" transform="translate(-36.97 -59.66)"/><path class="cls-2" d="M110.22,104.23l13.92-8.15L110.22,90Z" transform="translate(-36.97 -59.66)"/><path class="cls-2" d="M95.32,96.08l13.92,8.15V90Z" transform="translate(-36.97 -59.66)"/></svg>