<svg id="Layer_1" data-name="Layer 1" xmlns="http://www.w3.org/2000/svg" xmlns:xlink="http://www.w3.org/1999/xlink" viewBox="0 0 78.13 101.54"><defs><style>.cls-1{fill:none;}.cls-2{clip-path:url(#clip-path);}.cls-3{fill:#561e92;}</style><clipPath id="clip-path" transform="translate(0 0)"><rect class="cls-1" y="-11.55" width="78.11" height="60.95"/></clipPath></defs><g class="cls-2"><path class="cls-3" d="M66.11,52.85,74,11.43a6,6,0,0,0-4.79-7L46.53.1a6.11,6.11,0,0,0-7.09,4.84l-.77,3.8,3.51,5.16,1.59-8.14a1.69,1.69,0,0,1,.71-1,1.58,1.58,0,0,1,1.21-.26l2.94.6L45.88,19.37l5.54,8.13,4-21.11L68.36,8.81a1.6,1.6,0,0,1,1.3,1.85L61.82,52.08a1.6,1.6,0,0,1-.68,1,1.69,1.69,0,0,1-1.22.21l-2.31-.47-5.16,3.52,6.65,1.29a6,6,0,0,0,7-4.73v0Z" transform="translate(0 0)"/><path class="cls-3" d="M57.69,41.67,33.94,6.83a6.13,6.13,0,0,0-8.41-1.72l-13.18,9L42.91,58.94l13.18-9a5.93,5.93,0,0,0,1.65-8.22l0-.06ZM25.13,23.21a4.35,4.35,0,0,1-.7-3.19,4.37,4.37,0,1,1,5.21-3.55,4.37,4.37,0,1,1-4.51,6.74Z" transform="translate(0 0)"/><path class="cls-3" d="M6.44,18.12a6.15,6.15,0,0,0-1.51,8.45L28.68,61.4A6,6,0,0,0,37,62.91l.29-.2L6.73,17.92Z" transform="translate(0 0)"/></g><path class="cls-3" d="M8.91,46.05a23.21,23.21,0,0,1-.17-3,26.9,26.9,0,0,1,.19-3.11h-.3c-5.4.4-8.62,4-8.63,9.73V91.82c0,6,3.67,9.69,9.69,9.72H65.12c4.4,0,7.81-2,8.86-5.8.77-2.77.69-5.77,1-8.82-4.32,0-8,0-11.78,0a11,11,0,0,1,0-22c3.78-.11,7.56,0,11.31,0,1-7.18-2.87-11.76-9.76-11.77H10.56C7.67,53.15,6,51.79,6,49.53a3.41,3.41,0,0,1,2.71-3.45Z" transform="translate(0 0)"/><path class="cls-3" d="M68.77,84.5H63.16a8.51,8.51,0,0,1,0-17c3.87-.08,7.75,0,11.63,0,2.25,0,3.29,1,3.31,3.3q.06,5.19,0,10.38c0,2.26-1.06,3.3-3.29,3.35C72.78,84.57,70.78,84.51,68.77,84.5ZM66.71,76a3.15,3.15,0,0,0-3.19-3.13h0a3.13,3.13,0,0,0,0,6.25A3.17,3.17,0,0,0,66.71,76Z" transform="translate(0 0)"/></svg>