<svg id="Layer_1" data-name="Layer 1" xmlns="http://www.w3.org/2000/svg" viewBox="0 0 92.04 113.46"><defs><style>.cls-1{fill:#ef712b;}.cls-2{fill:none;stroke:#fff;stroke-width:4px;}.cls-3{fill:#f5f3fa;}</style></defs><path class="cls-1" d="M148.79,51.75c.25,4.93.66,9.57.68,14.22a77.26,77.26,0,0,1-2.75,20.77c-2.84,10.42-9.39,18.53-16.23,26.46-7.37,8.54-16.51,15-25.67,21.4a2.25,2.25,0,0,1-2.08,0q-9.27-6.59-18.4-13.37a2.29,2.29,0,0,1-.68-2c4.15-14.76,9.67-28.87,18.78-41.44a57.78,57.78,0,0,1,22.1-18.45,92.78,92.78,0,0,1,21.74-7.25C146.92,51.94,147.57,51.9,148.79,51.75Zm-24.15,51.42a19,19,0,1,0-18.48-19.12A19,19,0,0,0,124.64,103.17Z" transform="translate(-61.5 -51.75)"/><path class="cls-1" d="M85.08,153c-8.55,8.51-12.66,11.23-18.62,12.19a31.67,31.67,0,0,1,6.18-21.46l-7.3-.37c2.33-6.1,12.16-9.74,17.88-6.52-7,2.74-6.62,8.62-6.5,14.36,5.44-1.64,11-3.23,11.56-10.53,4.76,3.71,4.57,13.29-.47,19.15Z" transform="translate(-61.5 -51.75)"/><path class="cls-1" d="M90.39,91.53l-7.62,20.3c-6.93-4.17-14.07-3.83-21.27-.25C63.9,100.18,79.15,89.65,90.39,91.53Z" transform="translate(-61.5 -51.75)"/><path class="cls-1" d="M119,153.51c.88-9.56-.76-14.37-6.87-20.38l16.74-13.54C134.08,129.16,130.17,143.92,119,153.51Z" transform="translate(-61.5 -51.75)"/><path class="cls-1" d="M98,142.17c-7.44-1.62-15.76-7.69-19.34-14.09,1.53-.91,3-1.9,4.64-2.71a2,2,0,0,1,1.71.21q6.76,4.8,13.42,9.75a2,2,0,0,1,.65,1.61C98.81,138.65,98.37,140.33,98,142.17Z" transform="translate(-61.5 -51.75)"/><circle class="cls-2" cx="63.6" cy="32.49" r="26.44"/><path class="cls-2" d="M136.19,85.05a6.06,6.06,0,0,0-3.5-2.06,4.74,4.74,0,0,0,2.62-5.16,5.2,5.2,0,0,0-.73-2.29A4.58,4.58,0,0,0,132.93,74a9.52,9.52,0,0,0-2.26-.9,17.23,17.23,0,0,0-2.81-.45v-5h-3.08v4.9c-.53,0-1.34,0-2.44,0V67.59h-3.08v5l-1.94,0-4.24,0v3.28h2.22a1.59,1.59,0,0,1,1.78,1.36V83l.32,0h-.32v8a1.07,1.07,0,0,1-1.16,1H113.7l-.62,3.66h6.18v5.1h3.08v-5l2.44,0v5h3.08v-5.1a22.91,22.91,0,0,0,2.92-.3,12.52,12.52,0,0,0,2.43-.69,6.9,6.9,0,0,0,1.94-1.17,5.56,5.56,0,0,0,1.29-1.78,7.76,7.76,0,0,0,.65-2.51,6,6,0,0,0-.9-4.28ZM122.4,76.13h.79l1.08,0a10.6,10.6,0,0,1,1.16.05,10.1,10.1,0,0,1,1.23.16,7.39,7.39,0,0,1,1.1.33,2.93,2.93,0,0,1,1,.56,2.68,2.68,0,0,1,.61.84,2.58,2.58,0,0,1,.25,1.17,2.8,2.8,0,0,1-.17,1,1.88,1.88,0,0,1-.55.77,4.65,4.65,0,0,1-.74.54,3,3,0,0,1-1,.37c-.39.1-.73.17-1,.22a7.38,7.38,0,0,1-1.1.11l-1,0q-.33,0-.93,0h-.69V76.13Zm8.42,13.63a3.06,3.06,0,0,1-.49.8,3.22,3.22,0,0,1-.8.6,7.08,7.08,0,0,1-.95.42,8.09,8.09,0,0,1-1.11.28c-.43.08-.81.13-1.14.17s-.71.06-1.17.08l-1.06,0h-1.7V85.35l.95,0,1.29,0q.51,0,1.38.06a11.74,11.74,0,0,1,1.48.18,10.64,10.64,0,0,1,1.31.37,3.94,3.94,0,0,1,1.16.61,3.25,3.25,0,0,1,.74.92,2.73,2.73,0,0,1,.3,1.29,2.8,2.8,0,0,1-.19,1Zm0,0" transform="translate(-61.5 -51.75)"/><circle class="cls-1" cx="63.6" cy="32.49" r="26.44"/><path class="cls-3" d="M136.19,85.05a6.06,6.06,0,0,0-3.5-2.06,4.74,4.74,0,0,0,2.62-5.16,5.2,5.2,0,0,0-.73-2.29A4.58,4.58,0,0,0,132.93,74a9.52,9.52,0,0,0-2.26-.9,17.23,17.23,0,0,0-2.81-.45v-5h-3.08v4.9c-.53,0-1.34,0-2.44,0V67.59h-3.08v5l-1.94,0-4.24,0v3.28h2.22a1.59,1.59,0,0,1,1.78,1.36V83l.32,0h-.32v8a1.07,1.07,0,0,1-1.16,1H113.7l-.62,3.66h6.18v5.1h3.08v-5l2.44,0v5h3.08v-5.1a22.91,22.91,0,0,0,2.92-.3,12.52,12.52,0,0,0,2.43-.69,6.9,6.9,0,0,0,1.94-1.17,5.56,5.56,0,0,0,1.29-1.78,7.76,7.76,0,0,0,.65-2.51,6,6,0,0,0-.9-4.28ZM122.4,76.13h.79l1.08,0a10.6,10.6,0,0,1,1.16.05,10.1,10.1,0,0,1,1.23.16,7.39,7.39,0,0,1,1.1.33,2.93,2.93,0,0,1,1,.56,2.68,2.68,0,0,1,.61.84,2.58,2.58,0,0,1,.25,1.17,2.8,2.8,0,0,1-.17,1,1.88,1.88,0,0,1-.55.77,4.65,4.65,0,0,1-.74.54,3,3,0,0,1-1,.37c-.39.1-.73.17-1,.22a7.38,7.38,0,0,1-1.1.11l-1,0q-.33,0-.93,0h-.69V76.13Zm8.42,13.63a3.06,3.06,0,0,1-.49.8,3.22,3.22,0,0,1-.8.6,7.08,7.08,0,0,1-.95.42,8.09,8.09,0,0,1-1.11.28c-.43.08-.81.13-1.14.17s-.71.06-1.17.08l-1.06,0h-1.7V85.35l.95,0,1.29,0q.51,0,1.38.06a11.74,11.74,0,0,1,1.48.18,10.64,10.64,0,0,1,1.31.37,3.94,3.94,0,0,1,1.16.61,3.25,3.25,0,0,1,.74.92,2.73,2.73,0,0,1,.3,1.29,2.8,2.8,0,0,1-.19,1Zm0,0" transform="translate(-61.5 -51.75)"/></svg>