<svg id="Layer_1" data-name="Layer 1" xmlns="http://www.w3.org/2000/svg" viewBox="0 0 274.92 205.07"><defs><style>.cls-1{fill:#fff;}</style></defs><path class="cls-1" d="M152.91,201.79A93.17,93.17,0,0,1,126.76,214a89.46,89.46,0,0,1-24.9,3.47,88.36,88.36,0,0,1-34.24-6.73,91.26,91.26,0,0,1-28.33-18.29,87.05,87.05,0,0,1-19.21-27,81,81,0,0,1,0-66.24,87.05,87.05,0,0,1,19.21-27A91.44,91.44,0,0,1,67.62,53.89a90.39,90.39,0,0,1,59-3.26c2.93.85,6,1.8,8.83,2.9A19.47,19.47,0,0,1,138.36,55l-.49.54a50.69,50.69,0,0,0-4.53,5.48,42.8,42.8,0,0,0-3.6,6.36,49.4,49.4,0,0,0-2.67,7.17,63.46,63.46,0,0,0-1.75,8,56,56,0,0,0-.79,8.67c0,.9,0,1.79.08,2.69a34.17,34.17,0,0,0-4.1-2.26,52.64,52.64,0,0,0-18.65-3.91,45.33,45.33,0,0,0-17.71,3.47,46.82,46.82,0,0,0-14.49,9.46,44.19,44.19,0,0,0,0,63.3,47,47,0,0,0,14.49,9.46,45.33,45.33,0,0,0,17.71,3.47c10.85,0,22.23-5.18,31.17-11.37,7.48-5.18,12.95-10.28,20-15.83,16.87-13.37,32.53-16.56,52.12-16.64l67.8-.25V178H196.68v73.6l-43.56.62V201.65Z" transform="translate(-13 -47.16)"/><path class="cls-1" d="M144.34,130.22V104.43c0-33.48,18.36-53.08,53.81-53.08h87.76a2,2,0,0,1,2,2V93.48a2,2,0,0,1-2,2h-87c-8.54,0-11.63,5-11.63,13.58V113A83.05,83.05,0,0,0,153,124.66C149.9,126.53,144.34,130.22,144.34,130.22Z" transform="translate(-13 -47.16)"/></svg>