<svg id="Layer_1" data-name="Layer 1" xmlns="http://www.w3.org/2000/svg" xmlns:xlink="http://www.w3.org/1999/xlink" viewBox="0 0 124.13 101.56"><defs><style>.cls-1{fill:none;}.cls-2{fill:#10555a;}.cls-3{clip-path:url(#clip-path);}</style><clipPath id="clip-path" transform="translate(-0.03 -0.17)"><path class="cls-1" d="M90.38,17.16,75.74,31.93C74.12,33.58,72,36,72.57,38.1c.36,1.34-4.74,11.08-4.74,11.08V73.64s1.28,2.59,3,3.49a15,15,0,0,0,8.06,1.7c4.06-.12,20.48.26,20.48.26l-18,35.73-52.76-5.11L-6.85,60-8.22,23.29s28.71-20,29.16-20.14,30-8,30-8L82.37,3.41Z"/></clipPath></defs><path class="cls-2" d="M122.69,45.72,97.87,20.9a5,5,0,0,0-7.07,0L77.21,34.53a5.07,5.07,0,0,0,0,7.14L79.46,44h5.23l-4.85-4.91a1.48,1.48,0,0,1,0-2l1.79-1.74,8.53,8.58h8.18L85.69,31.26l7.71-7.73a1.33,1.33,0,0,1,1.88,0L120.1,48.34a1.37,1.37,0,0,1,.38.94,1.34,1.34,0,0,1-.42.94l-1.37,1.31v5.2l4-4a5,5,0,0,0,0-7.07h0Z" transform="translate(-0.03 -0.17)"/><path class="cls-2" d="M111.05,46.27H76a5.11,5.11,0,0,0-5.13,5V64.53H116V51.26a4.94,4.94,0,0,0-4.88-5h-.06ZM83.05,60a3.59,3.59,0,0,1-2.52-1,3.65,3.65,0,1,1,0-5.25A3.64,3.64,0,1,1,83.05,60Z" transform="translate(-0.03 -0.17)"/><path class="cls-2" d="M70.82,70.53a5.13,5.13,0,0,0,5.13,5h35.1a5,5,0,0,0,4.94-5v-.3H70.82Z" transform="translate(-0.03 -0.17)"/><g class="cls-3"><path class="cls-2" d="M101.74,55.66A51,51,0,0,1,.48,57.86v-.2c-.08-.65-.16-1.31-.22-2a4.12,4.12,0,0,0-.07-.92,12.31,12.31,0,0,1-.1-1.37C.09,52.56,0,51.76,0,51s0-1.61.06-2.41c0-.46.06-.91.1-1.37a7,7,0,0,1,.07-.93c.06-.67.14-1.33.23-2a.61.61,0,0,1,0-.19,51,51,0,0,1,101.26,2.2,3.46,3.46,0,0,0,.06.79c0,.49.08,1,.1,1.49,0,.8.07,1.6.07,2.4s0,1.61-.07,2.41c0,.51-.06,1-.1,1.51ZM93,70.86l.21-.46H79.11c-2.53,10.23-7,18.8-12.61,24.41l.22-.07.92-.35,1.17-.46.9-.4c.38-.17.76-.33,1.13-.51l.9-.45L72.82,92l.87-.49,1-.6.87-.54,1-.64c.28-.19.57-.38.84-.58s.65-.45,1-.68l.82-.62.92-.72c.27-.22.54-.44.8-.67l.88-.76.77-.7.84-.8.74-.74c.27-.27.53-.55.79-.83l.71-.78q.39-.42.75-.87c.23-.26.46-.54.68-.81l.71-.9.64-.84.66-.94.6-.87.62-1c.19-.3.38-.6.56-.9s.39-.67.58-1l.51-.93.53-1A8.51,8.51,0,0,0,93,70.86ZM66.69,7.23l-.22-.07c5.62,5.61,10.08,14.17,12.61,24.4h14.1c-.06-.15-.13-.3-.2-.45-.15-.32-.31-.63-.47-1l-.53-1-.51-.93c-.19-.33-.38-.67-.58-1l-.56-.9-.62-1-.6-.87-.66-.94-.64-.84c-.24-.3-.47-.61-.71-.9s-.45-.55-.68-.81-.49-.59-.75-.87L85,19.27c-.24-.26-.52-.56-.79-.83s-.49-.5-.74-.74l-.84-.8-.77-.7-.88-.76c-.26-.23-.53-.45-.8-.66l-.92-.73-.82-.62c-.32-.23-.64-.46-1-.68s-.56-.39-.84-.58l-1-.64L74.69,11l-1-.6L72.8,9.9l-1.08-.55-.9-.45-1.13-.46-.9-.39c-.39-.17-.78-.32-1.17-.47ZM75.51,36H53.22V65.92H75.54A79.73,79.73,0,0,0,76.93,51,80.57,80.57,0,0,0,75.54,36ZM53.19,70.4V97.3c9.48-1.46,17.51-12.09,21.33-26.9ZM74.54,31.53C70.69,16.75,62.69,6.13,53.22,4.67V31.53ZM97.48,51V48.84a4.58,4.58,0,0,0-.07-1c-.07-.3,0-.61-.07-.91a11.84,11.84,0,0,0-.16-1.54v-.11A46.51,46.51,0,0,0,95,36.05H80.13a83.8,83.8,0,0,1,0,29.88H95a46.54,46.54,0,0,0,2.15-9.25v-.06c.07-.52.12-1,.17-1.57l.06-.89c0-.35,0-.7.07-1,0-.72,0-1.42,0-2.13ZM7,65.89h14.9A83.17,83.17,0,0,1,20.55,51,84.09,84.09,0,0,1,21.88,36H7a46.83,46.83,0,0,0-2.13,9.12v.29c-.06.47-.11,1-.15,1.42s-.06.67-.08,1a8.64,8.64,0,0,1-.06,1c0,.71-.06,1.41-.06,2.12s0,1.42.06,2.13a5.71,5.71,0,0,0,.06,1c.06.35,0,.66.08,1s.09,1,.14,1.42v.29A47.57,47.57,0,0,0,7,65.92Zm19.43,0H48.74V36H26.41a81.56,81.56,0,0,0,0,29.88Zm1-34.36H48.74V4.67C39.26,6.13,31.23,16.75,27.41,31.53Zm0,38.84c3.81,14.81,11.85,25.44,21.33,26.9V70.37ZM8.75,31.53h14.1c2.52-10.23,7-18.79,12.6-24.4A46.79,46.79,0,0,0,8.75,31.53Zm26.7,63.25C29.83,89.16,25.37,80.6,22.84,70.37H8.75a46.76,46.76,0,0,0,26.7,24.44Z" transform="translate(-0.03 -0.17)"/></g></svg>