<svg id="Layer_1" data-name="Layer 1" xmlns="http://www.w3.org/2000/svg" xmlns:xlink="http://www.w3.org/1999/xlink" viewBox="0 0 91.26 115.99"><defs><style>.cls-1{fill:none;}.cls-2{fill:#8c8cf9;}.cls-3{clip-path:url(#clip-path);}</style><clipPath id="clip-path" transform="translate(-61.24 -49.17)"><path class="cls-1" d="M143.19,85.09a65,65,0,0,1-7.08,18.56c-3.08,5.41-7.12,9.81-11.26,14.11-5.16,5.36-16.56,12.06-18.09,12.16-1.22.09-12.85-7.74-12.85-7.74a58.86,58.86,0,0,1-16.65-18.94,65.94,65.94,0,0,1-7-19.42L59,87.3v80.48h97.05L154.74,87.3Z"/></clipPath></defs><path class="cls-2" d="M75.05,61.19c12.19.26,23-2.86,31.72-12,8.66,9.17,19.57,12.29,31.74,12a68.65,68.65,0,0,1,.56,11,64.92,64.92,0,0,1-8.74,31.25A58,58,0,0,1,109,124.29c-.74.43-1.49,1.16-2.23,1.15s-1.54-.74-2.3-1.18a58.38,58.38,0,0,1-21.61-21.43,63.23,63.23,0,0,1-7.55-21.71,68.67,68.67,0,0,1-.42-18.94C74.93,61.89,75,61.59,75.05,61.19Zm31.71-7.26-.33.27a37.35,37.35,0,0,1-12.2,7.37,45.74,45.74,0,0,1-15.48,3c-.56,0-.74.2-.74.73s-.11,1.2-.13,1.8a64.83,64.83,0,0,0,4.81,27.73,54.44,54.44,0,0,0,23.58,26.58.87.87,0,0,0,1,0,54.89,54.89,0,0,0,19.73-19c6.22-10.27,8.78-21.5,8.69-33.41,0-1.44-.13-2.88-.21-4.34C124.64,64.29,114.94,61.22,106.76,53.93Z" transform="translate(-61.24 -49.17)"/><path class="cls-2" d="M81.21,67.41c9.53-.47,18.13-3.31,25.54-9.43,1,.74,2,1.52,3,2.22a41.61,41.61,0,0,0,19.45,7c.87.09,1.74.13,2.62.19.36,0,.59.11.61.56.54,14-2.74,26.91-11.61,38.06a49.85,49.85,0,0,1-13.33,11.55,1.15,1.15,0,0,1-1.4,0c-12.55-7.67-20.3-18.76-23.55-33a58,58,0,0,1-1.39-16.41Zm23.26,20.12-5.66-5.65a1.83,1.83,0,0,0-2.76,0c-.94.93-1.87,1.86-2.79,2.8a1.81,1.81,0,0,0,0,2.85l10.22,10.23a1.83,1.83,0,0,0,2.76,0q8.82-8.81,17.62-17.62a1.84,1.84,0,0,0,0-2.95l-2.6-2.6a1.88,1.88,0,0,0-3,0Q111.77,81,105.31,87.48a5.69,5.69,0,0,0-.39.48C104.71,87.76,104.58,87.65,104.47,87.53Z" transform="translate(-61.24 -49.17)"/><g class="cls-3"><path class="cls-2" d="M142.94,163.32v1.82h-9.41l-.16-1.76H80.32l-.15,1.78H70.78l-.09-1.75c-1-.08-2-.07-3-.23a7.51,7.51,0,0,1-6.43-7.43c0-3.43,0-6.86,0-10.29V95.66c0-5.22,3.14-8.36,8.37-8.36h74.47c5.22,0,8.35,3.15,8.35,8.39,0,19.68-.07,39.35.05,59,0,5.1-3.5,8.94-8.6,8.61C143.62,163.31,143.34,163.32,142.94,163.32Zm-36.09-3.79H144c3.21,0,4.62-1.41,4.62-4.6V95.68c0-3.18-1.41-4.58-4.63-4.58H69.65c-3.21,0-4.61,1.4-4.61,4.6v59.24c0,3.19,1.41,4.59,4.63,4.59Z" transform="translate(-61.24 -49.17)"/><path class="cls-2" d="M106.73,96.8h33.41c2.26,0,2.82.55,2.82,2.78v51.47c0,2.19-.57,2.77-2.72,2.77H73.42c-2.1,0-2.69-.59-2.69-2.69V99.55c0-2.21.53-2.75,2.7-2.75Zm32.37,53.14V100.68H74.53v1.21c0,4.83.19,9.67-.07,14.49-.16,3,.46,5.46,3,7.22a2.28,2.28,0,0,1,.22.22,1.94,1.94,0,0,1,0,3c-.82.86-1.73,1.65-2.5,2.55a2.55,2.55,0,0,0-.64,1.53c0,6,0,12,0,18.07,0,.33,0,.66.07,1Z" transform="translate(-61.24 -49.17)"/><path class="cls-2" d="M127.73,125.39c-.37,11.82-9,20.81-20.85,20.73C94.49,146,86,137.19,86,125.3s8.72-20.78,20.91-20.83C119.24,104.42,127.55,114.06,127.73,125.39Zm-10.3,13.25a2,2,0,0,1,0-2.57c.84-.93,1.81-.65,2.78-.16a16.79,16.79,0,0,0,3.59-8.63c-1.06-.24-1.82-.73-1.89-1.86s.41-1.57,1.89-2.18a16.64,16.64,0,0,0-3.61-8.53c-1.22.75-2,.78-2.77.13s-.8-1.55-.07-3a16.82,16.82,0,0,0-8.62-3.58,1.94,1.94,0,0,1-1.88,1.84c-1.21,0-1.75-.81-2.06-1.85a16.7,16.7,0,0,0-8.59,3.65c.74,1.2.76,2,.11,2.77s-1.47.77-3,.08a16.62,16.62,0,0,0-3.55,8.58c1.1.25,1.82.83,1.83,1.93s-.75,1.73-1.84,2A16.82,16.82,0,0,0,93.47,136a1.89,1.89,0,0,1,2.6.05,2,2,0,0,1,.16,2.7,16.65,16.65,0,0,0,8.65,3.63c.25-1.1.84-1.85,2-1.86s1.69.8,2,1.81A15.53,15.53,0,0,0,117.43,138.64Z" transform="translate(-61.24 -49.17)"/><path class="cls-2" d="M116.32,125.34a9.48,9.48,0,1,1-9.45-9.5A9.48,9.48,0,0,1,116.32,125.34Zm-3.79,0a5.69,5.69,0,1,0-5.72,5.71A5.63,5.63,0,0,0,112.53,125.29Z" transform="translate(-61.24 -49.17)"/></g></svg>