<svg id="Layer_1" data-name="Layer 1" xmlns="http://www.w3.org/2000/svg" xmlns:xlink="http://www.w3.org/1999/xlink" viewBox="0 0 124.92 118.96"><defs><style>.cls-1{fill:none;}.cls-2{clip-path:url(#clip-path);}.cls-3{fill:#123962;}.cls-4{fill:#fff;}.cls-5{clip-path:url(#clip-path-2);}.cls-6{clip-path:url(#clip-path-3);}.cls-7{clip-path:url(#clip-path-4);}</style><clipPath id="clip-path" transform="translate(0 0.01)"><rect class="cls-1" x="31.85" y="-8.28" width="88.04" height="57.92"/></clipPath><clipPath id="clip-path-2" transform="translate(0 0.01)"><path class="cls-1" d="M83.23,50.07A25.83,25.83,0,0,0,78.62,26.7l4.81-5.79,8.2-3.48s10.85.78,11.19.78,10.39,4,10.73,4.69-.11,14.85,0,15.42-6.73,10.73-6.73,10.73L94,53.39Z"/></clipPath><clipPath id="clip-path-3" transform="translate(0 0.01)"><path class="cls-1" d="M62.92,17.43a25.73,25.73,0,0,1,14.77,8.15l-1.35.17a18.82,18.82,0,0,1,16.25-10.4L91.65,6,86.59-3.37,68.1-6.14S57.6-1,57.94,0s2,10.22,2.17,11S62.92,17.43,62.92,17.43Z"/></clipPath><clipPath id="clip-path-4" transform="translate(0 0.01)"><path class="cls-1" d="M21.56,82.38h14.6l-.91,9.18s20,9.89,28.44,11.5l8.43,1.62h0v-.75S88.7,92.78,91.12,91a26,26,0,0,0,3.47-2.89l-2.26-5.25,18-5.87L104,53,61.63,51.86s-26.54,1.13-26.38,0-1.16-15.92-1.16-15.92L19.09,38Z"/></clipPath></defs><g class="cls-2"><circle class="cls-3" cx="58.72" cy="42.43" r="22.31"/><path class="cls-4" d="M68.41,43.44a5.3,5.3,0,0,0-3.06-1.8,4.15,4.15,0,0,0,2.29-4.52,4.45,4.45,0,0,0-.64-2,4,4,0,0,0-1.44-1.37,8,8,0,0,0-2-.78,15.45,15.45,0,0,0-2.45-.4V28.16h-2.7v4.29H56.28V28.16h-2.7v4.41H48.17v2.87h1.94a1.39,1.39,0,0,1,1.56,1.19v5a1.31,1.31,0,0,1,.28,0h-.28v7a.93.93,0,0,1-1,.9h-2l-.54,3.2h5.41v4.46h2.7V52.86h2.13v4.39h2.7V52.86a24.2,24.2,0,0,0,2.55-.26A9.71,9.71,0,0,0,65.74,52a5.6,5.6,0,0,0,1.7-1,4.84,4.84,0,0,0,1.13-1.56,6.39,6.39,0,0,0,.57-2.19,5.22,5.22,0,0,0-.79-3.75Zm-12.06-7.8H59a5.93,5.93,0,0,1,1.08.14,7.12,7.12,0,0,1,1,.29,2.73,2.73,0,0,1,.84.49,2.45,2.45,0,0,1,.53.74,2.28,2.28,0,0,1,.22,1,2.74,2.74,0,0,1-.15.9,1.79,1.79,0,0,1-.48.67,4.21,4.21,0,0,1-.64.47,3.26,3.26,0,0,1-.85.33l-.91.19a5.55,5.55,0,0,1-1,.09H56.34V35.64Zm7.36,11.92a2.4,2.4,0,0,1-.43.7,2.2,2.2,0,0,1-.69.52,4.77,4.77,0,0,1-.83.37,5.85,5.85,0,0,1-1,.25c-.38.07-.72.12-1,.15l-1,.07H56.35V43.71h3.17a11.36,11.36,0,0,1,1.29.16A7.56,7.56,0,0,1,62,44.2a3.43,3.43,0,0,1,1,.53,2.63,2.63,0,0,1,.64.8,2.45,2.45,0,0,1,.1,2Z" transform="translate(0 0.01)"/><g class="cls-5"><path class="cls-3" d="M109,34.18A15.46,15.46,0,1,1,93.53,18.72,15.46,15.46,0,0,1,109,34.18Zm-16,4.2,1-4.11,1.87-.7v-2l-1.36.52,1.47-6.5H90.43l-2,8.74L86.56,35v2l1.36-.51-1.14,5H99.7l.79-3.16Z" transform="translate(0 0.01)"/></g><g class="cls-6"><path class="cls-3" d="M87.61,11.86A11.87,11.87,0,1,1,75.74,0,11.86,11.86,0,0,1,87.61,11.86ZM75,7a2.91,2.91,0,0,0,.36,2.4A1.13,1.13,0,0,1,75,10.93L75,11a1.18,1.18,0,0,1-1.62-.4l0-.06a3,3,0,1,0-2.91,4.35,3.1,3.1,0,0,0,3-1.57A1.2,1.2,0,0,1,75,12.82l.09.06a1.14,1.14,0,0,1,.33,1.58l0,0A2.47,2.47,0,0,0,75,16.12a3,3,0,1,0,6,.4,2.9,2.9,0,0,0-1.38-3,3.33,3.33,0,0,0-1.74-.45,1.16,1.16,0,1,1,0-2.32h0a2.88,2.88,0,0,0,2.24-.94,2.76,2.76,0,0,0,.55-3.14,2.81,2.81,0,0,0-2.48-1.81A3.09,3.09,0,0,0,75,7Z" transform="translate(0 0.01)"/></g></g><path class="cls-3" d="M0,87.69H31.12l-.53,6.09a86.71,86.71,0,0,0,13.91,6.76c7,2.51,16.11,6.22,17.86,6.75s2.4.8,2.4.8-6.49,4.37-13.11,5.16a70.63,70.63,0,0,1-16.82,0c-4.37-.53-6.62-.93-6.62-.93L27.55,119Z" transform="translate(0 0.01)"/><path class="cls-3" d="M56,113.78a135.58,135.58,0,0,0,22.9-10.46C87.66,98.15,98.65,89,98.65,89L96.8,85l28.12-8.15-19,27.65-1.33-3.58s-9.53,6.89-20.66,9.14S56,113.78,56,113.78Z" transform="translate(0 0.01)"/><g class="cls-7"><path class="cls-3" d="M33.22,46.22a23.21,23.21,0,0,1-.17-3A26.09,26.09,0,0,1,33.24,40h-.31c-5.52.41-8.82,4.12-8.82,10v43.1c0,6.15,3.75,9.92,9.91,10H90.71c4.49,0,8-2,9.06-5.93.78-2.83.7-5.9,1-9-4.42,0-8.24,0-12,0a11.24,11.24,0,0,1,0-22.48c3.86-.11,7.74,0,11.57,0,1-7.35-2.94-12-10-12H34.87c-3,0-4.7-1.39-4.72-3.7a3.47,3.47,0,0,1,2.77-3.68Z" transform="translate(0 0.01)"/><path class="cls-3" d="M94.44,85.55H88.7a8.7,8.7,0,1,1,0-17.4c4-.08,7.93,0,11.89,0,2.3,0,3.37,1.08,3.39,3.39q.06,5.31,0,10.61c0,2.31-1.08,3.38-3.36,3.42C98.54,85.58,96.49,85.55,94.44,85.55Zm-2.11-8.69A3.22,3.22,0,1,0,89,80.05a3.22,3.22,0,0,0,3.29-3.19Z" transform="translate(0 0.01)"/></g></svg>