<svg id="Layer_1" data-name="Layer 1" xmlns="http://www.w3.org/2000/svg" xmlns:xlink="http://www.w3.org/1999/xlink" viewBox="0 0 154.13 149.99"><defs><style>.cls-1{fill:none;}.cls-2{fill:#d33d35;}.cls-3{clip-path:url(#clip-path);}</style><clipPath id="clip-path" transform="translate(0 0.02)"><path class="cls-1" d="M49.84,125.68c-.52-1,0-31,0-31l32.35-2.54,12.28-10.6L113.05,59.9,62.48-7.7,29.71-8-18,39l4.91,68.3,24.3,18.36Z"/></clipPath></defs><path class="cls-2" d="M122.19,92.94h19.89a13.8,13.8,0,0,1,8.11,2.6,9.31,9.31,0,0,1,2.23,13,9.12,9.12,0,0,1-1.95,2L150,111a8.25,8.25,0,0,1,3.36,7.66c-.36,3-1.65,5.54-4.5,7,3,5.1,2.09,9.61-2.46,12.5a25.46,25.46,0,0,1,1,3.64,6.87,6.87,0,0,1-5.75,7.83,5.32,5.32,0,0,1-.56.06,21.82,21.82,0,0,1-2.8.18H92.36c-2.79,0-4.78-1.35-6.62-3.17a1.05,1.05,0,0,1-.19-.69V100.9a5.31,5.31,0,0,1,2.11-3.81c2.39-2.18,4.82-4.32,7.25-6.46,4.2-3.69,8.32-7.45,12.21-11.48,5.34-5.55,8.6-12.22,10.9-19.45.17-.53.34-1.06.52-1.59,1.26-3.74,4.33-4.54,7.35-4a8.08,8.08,0,0,1,5.71,4.13,15.74,15.74,0,0,1,1.68,10.57,42.31,42.31,0,0,1-5.17,13.73c-1.73,3.17-3.58,6.27-5.38,9.41Z" transform="translate(0 0.02)"/><path class="cls-2" d="M82.19,124.11v22.22A3.38,3.38,0,0,1,79.06,150a3.13,3.13,0,0,1-.53,0c-5.63-.1-11.27,0-16.91,0-2.26,0-3.45-1.2-3.45-3.46V101.72c0-2.29,1.21-3.5,3.51-3.5h17c2.28,0,3.49,1.22,3.49,3.52Z" transform="translate(0 0.02)"/><g class="cls-3"><path class="cls-2" d="M104.19,52.81,54.34,3A10,10,0,0,0,40.2,2.87L40.12,3,12.82,30.24a10.24,10.24,0,0,0,0,14.36l4.53,4.64H27.8L18,39.38a2.81,2.81,0,0,1-.77-2A2.74,2.74,0,0,1,18,35.54L21.65,32l17.13,17.2H55.19L29.87,23.76,45.35,8.22a2.67,2.67,0,0,1,3.79,0L99,58a2.69,2.69,0,0,1,.78,1.9,2.88,2.88,0,0,1-.85,1.89l-2.83,2.72V75l8-8A10.06,10.06,0,0,0,104.19,52.81Z" transform="translate(0 0.02)"/><path class="cls-2" d="M80.81,53.92H10.31A10.24,10.24,0,0,0,0,63.92V90.59H90.74V63.94a9.92,9.92,0,0,0-9.84-10h-.09ZM24.64,81.54a7.31,7.31,0,0,1-5.07-2,7.32,7.32,0,1,1,0-10.55,7.31,7.31,0,1,1,5.07,12.55Z" transform="translate(0 0.02)"/><path class="cls-2" d="M0,102.54a10.29,10.29,0,0,0,10.31,10.08h70.5a10,10,0,0,0,9.93-10.07h0V102H0Z" transform="translate(0 0.02)"/></g></svg>