<svg id="Layer_1" data-name="Layer 1" xmlns="http://www.w3.org/2000/svg" viewBox="0 0 64.39 64.39"><defs><style>.cls-1{fill:#8c8cf9;}.cls-2{fill:#fff;}</style></defs><circle class="cls-1" cx="32.2" cy="32.2" r="32.2"/><path class="cls-2" d="M104.77,74.74a3.64,3.64,0,0,1,.39-.49l13.07-13.07a1.9,1.9,0,0,1,3,0c.88.87,1.76,1.74,2.63,2.62a1.86,1.86,0,0,1,0,3Q115,75.71,106.1,84.61a1.85,1.85,0,0,1-2.79,0Q98.14,79.45,93,74.27a1.84,1.84,0,0,1,0-2.89c.93-.95,1.88-1.89,2.82-2.82a1.85,1.85,0,0,1,2.79,0c1.92,1.9,3.82,3.81,5.73,5.72Z" transform="translate(-76.27 -40.44)"/></svg>