<svg id="Layer_1" data-name="Layer 1" xmlns="http://www.w3.org/2000/svg" viewBox="0 0 349 346.55"><defs><style>.cls-1{fill:none;stroke:#fff;stroke-miterlimit:10;stroke-width:10px;fill-rule:evenodd;}.cls-2{fill:#fff;}</style></defs><path class="cls-1" d="M226.84,67.93c-93.61,0-169.5,75.34-169.5,168.27s75.89,168.28,169.5,168.28,169.5-75.34,169.5-168.28S320.45,67.93,226.84,67.93Z" transform="translate(-52.34 -62.93)"/><path class="cls-2" d="M305.63,209.38c3.62-24.21-14.81-37.26-40-45.92l8.18-32.81-20-5-8,31.94c-5.25-1.31-10.64-2.54-16-3.77l8-32.15-20-5-8.19,32.8c-4.34-1-8.61-2-12.75-3v-.1l-27.54-6.87-5.32,21.33s14.82,3.39,14.5,3.6c8.1,2,9.56,7.37,9.32,11.64l-9.32,37.38a16.8,16.8,0,0,1,2.08.67l-2.11-.52L165.53,266c-1,2.46-3.49,6.14-9.14,4.74.19.3-14.52-3.62-14.52-3.62L132,290l26,6.48c4.84,1.21,9.57,2.48,14.24,3.67l-8.27,33.16,20,5L192,305.43c5.43,1.49,10.74,2.84,15.91,4.14l-8.15,32.67,20,5,8.26-33.1c34,6.44,59.66,3.84,70.44-26.95,8.68-24.8-.44-39.11-18.35-48.44C293.18,235.73,303,227.12,305.63,209.38Zm-45.63,64c-6.17,24.79-47.92,11.39-61.47,8l10.95-44C223,240.81,266.45,247.51,260,273.37ZM266.21,209c-5.64,22.56-40.36,11.1-51.66,8.29l9.95-39.88c11.24,2.81,47.55,8.05,41.68,31.59Z" transform="translate(-52.34 -62.93)"/></svg>