<svg id="Layer_1" data-name="Layer 1" xmlns="http://www.w3.org/2000/svg" viewBox="0 0 349 346.55"><defs><style>.cls-1{fill:none;stroke:#fff;stroke-miterlimit:10;stroke-width:10px;fill-rule:evenodd;}.cls-2{fill:#fff;}</style></defs><path class="cls-1" d="M227.54,67.93C133.93,67.93,58,143.27,58,236.2s75.89,168.28,169.5,168.28S397,329.14,397,236.2,321.16,67.93,227.54,67.93Z" transform="translate(-53.04 -62.93)"/><path class="cls-2" d="M226.88,119.13l.07-7.21,4.33.06-.06,7.19,81.42,123.62,6.56,3.05-2,3.28-3.66-1.7-83.79,36.49,0,3.2-4.33-.06,0-3.21-83.11-38.79-3.69,1.6-1.95-3.33,6.61-2.87,83.62-121.32m2.25-8.7a2.17,2.17,0,0,0-1.86.83L135.77,244a1.7,1.7,0,0,0-.23,1.45,2,2,0,0,0,1.08,1.14l89.91,42a2.65,2.65,0,0,0,1,.22,2.6,2.6,0,0,0,1-.19l90.66-39.48a2,2,0,0,0,1.07-1.11,1.68,1.68,0,0,0-.2-1.46L231,111.31a2.26,2.26,0,0,0-1.87-.88" transform="translate(-53.04 -62.93)"/><path class="cls-2" d="M229.59,300.91l80.72-35.15L229.1,354.63l0,5.47-4.33-.06.05-5.49-79.59-91.08,80.07,37.38v-1.13l4.34.06v1.13m88.51-42.5a2.48,2.48,0,0,0-1,.2l-89.64,39-88.94-41.51a2.35,2.35,0,0,0-1-.22,2.25,2.25,0,0,0-1.65.64,1.69,1.69,0,0,0-.08,2.35l89.39,102.26a2.31,2.31,0,0,0,3.4.05l91.2-99.77a1.69,1.69,0,0,0,0-2.35,2.3,2.3,0,0,0-1.64-.69" transform="translate(-53.04 -62.93)"/><path class="cls-2" d="M228.26,207.82l-2.18.94-.68,75.08,0,3.21,4.33.06,0-3.2.67-75.1-2.15-1m3-95.84-4.33-.06-.07,7.21-.76,85.43,2.18-.94,2.15,1,.77-85.45.06-7.19" transform="translate(-53.04 -62.93)"/><polyline class="cls-2" points="175.26 140.69 173.07 141.63 90.22 177.52 83.61 180.38 85.56 183.72 89.25 182.12 173.03 145.83 175.22 144.88 177.37 145.88 260.48 184.49 264.14 186.19 266.15 182.91 259.59 179.86 177.41 141.69 175.26 140.69"/><polyline class="cls-2" points="176.55 236.85 172.22 236.79 172.21 237.92 171.72 291.62 171.68 297.11 176.01 297.17 176.06 291.7 176.54 237.98 176.55 236.85"/></svg>