<svg id="Layer_1" data-name="Layer 1" xmlns="http://www.w3.org/2000/svg" viewBox="0 0 397.14 397.14"><defs><style>.cls-1{fill:none;stroke:#fff;stroke-miterlimit:10;stroke-width:10px;}.cls-2{fill:#fff;}</style></defs><path class="cls-1" d="M239.43,426.46C346.34,426.46,433,339.8,433,232.89S346.34,39.32,239.43,39.32,45.86,126,45.86,232.89c-.26,106.64,86,193.31,192.62,193.57Z" transform="translate(-40.86 -34.32)"/><path class="cls-2" d="M292.66,263.54c0-28.26-16.93-37.91-50.81-42-24.2-3.24-29-9.69-29-21s8.08-18.54,24.2-18.54c14.51,0,22.59,4.84,26.6,16.93a6,6,0,0,0,5.65,4h12.91a5.51,5.51,0,0,0,5.65-5.38v-1.1a40.28,40.28,0,0,0-36.27-33.07V144.15c0-3.23-2.42-5.65-6.45-6.44H233c-3.23,0-5.65,2.42-6.45,6.44V162.7C202.36,165.93,187,182.06,187,202.23c0,26.6,16.13,37.11,50,41.13,22.59,4,29.84,8.87,29.84,21.78s-11.28,21.78-26.59,21.78c-21,0-28.26-8.87-30.65-21-.83-3.23-3.23-4.83-5.65-4.83H190.26a5.5,5.5,0,0,0-5.65,5.38,1.22,1.22,0,0,0,0,.27v.83c3.23,20.17,16.12,34.69,42.74,38.72v19.33c0,3.23,2.42,5.65,6.44,6.45H245.9c3.23,0,5.65-2.42,6.44-6.45V306.29C276.52,302.24,292.66,285.31,292.66,263.54Z" transform="translate(-40.86 -34.32)"/><path class="cls-2" d="M198.29,348.22c-62.91-22.59-95.17-92.76-71.78-154.86a119.33,119.33,0,0,1,71.78-71.77c3.24-1.61,4.84-4,4.84-8.07V102.23c0-3.23-1.6-5.65-4.84-6.45-.83,0-2.41,0-3.23.83C118.44,120.79,76.49,202.24,100.7,278.88a145.11,145.11,0,0,0,94.36,94.37,4.89,4.89,0,0,0,6.7-1.79,5,5,0,0,0,.56-1.44c.83-.83.83-1.61.83-3.24V355.49C203.13,353.06,200.71,349.84,198.29,348.22ZM283.77,96.58a4.9,4.9,0,0,0-6.7,1.78,4.72,4.72,0,0,0-.55,1.45c-.84.83-.84,1.61-.84,3.23v11.28c0,3.24,2.42,6.45,4.84,8.08,62.91,22.59,95.19,92.76,71.78,154.86A119.28,119.28,0,0,1,280.52,349c-3.23,1.61-4.84,4-4.84,8.08v11.28c0,3.23,1.61,5.65,4.84,6.45.83,0,2.43,0,3.24-.83,76.6-24.18,118.58-105.64,94.38-182.26A146.26,146.26,0,0,0,283.77,96.58Z" transform="translate(-40.86 -34.32)"/></svg>