<svg id="Layer_1" data-name="Layer 1" xmlns="http://www.w3.org/2000/svg" viewBox="0 0 142.84 142.15"><defs><style>.cls-1{fill:#fff;}</style></defs><path class="cls-1" d="M102.36,161.31a54.19,54.19,0,0,1-14-3.88A56.7,56.7,0,0,1,58,127.12a57.25,57.25,0,0,1,0-44.26A56.7,56.7,0,0,1,88.38,52.55a54.59,54.59,0,0,1,14-3.88V33.62a71.42,71.42,0,0,0,0,142.14Zm0,0" transform="translate(-38.04 -33.62)"/><path class="cls-1" d="M116.56,33.62v14.8a56.2,56.2,0,0,1,15.31,3.87,58,58,0,0,1,18.85,12.55,11.4,11.4,0,0,1-8,19.42,10.57,10.57,0,0,1-8-3.38,30.86,30.86,0,0,0-11.29-7.59,36,36,0,0,0-12.89-2.4,33.59,33.59,0,0,0-13.34,2.66A34,34,0,0,0,79,91.67a34.68,34.68,0,0,0,0,26.64,34,34,0,0,0,18.15,18.11,33.42,33.42,0,0,0,13.34,2.67,35.32,35.32,0,0,0,12.8-2.41,32.72,32.72,0,0,0,11.38-7.58,11.33,11.33,0,1,1,16,16,55.55,55.55,0,0,1-18.85,12.65,57.51,57.51,0,0,1-15.31,3.78v14.2a71.42,71.42,0,0,0,0-142.14Zm31.9,83.45a12.39,12.39,0,1,1,12.38-12.38,12.39,12.39,0,0,1-12.38,12.38Zm0,0" transform="translate(-38.04 -33.62)"/></svg>