<svg id="Layer_1" data-name="Layer 1" xmlns="http://www.w3.org/2000/svg" viewBox="0 0 250 250"><defs><style>.cls-1{fill:#010101;}.cls-2{fill:#fff;}</style></defs><rect class="cls-1" width="250" height="250"/><path class="cls-2" d="M151.38,175.28a52.27,52.27,0,0,1-14.7,6.87,50.91,50.91,0,0,1-33.23-1.84A51.18,51.18,0,0,1,87.53,170a48.76,48.76,0,0,1-10.8-15.18,45.52,45.52,0,0,1,0-37.23,48.76,48.76,0,0,1,10.8-15.18,51.36,51.36,0,0,1,15.92-10.28,50.8,50.8,0,0,1,33.17-1.83c1.65.48,3.38,1,5,1.63a10.34,10.34,0,0,1,1.62.85l-.27.3a28.94,28.94,0,0,0-2.55,3.08,24.62,24.62,0,0,0-2,3.57,28,28,0,0,0-1.5,4,33.91,33.91,0,0,0-1,4.47,30.63,30.63,0,0,0-.45,4.87c0,.5,0,1,0,1.51a20.06,20.06,0,0,0-2.31-1.27,29.59,29.59,0,0,0-10.48-2.2,25.41,25.41,0,0,0-10,1.95,26.31,26.31,0,0,0-8.14,5.32,24.82,24.82,0,0,0,0,35.57,26.14,26.14,0,0,0,8.14,5.32,25.41,25.41,0,0,0,10,1.95c6.1,0,12.49-2.91,17.52-6.39,4.2-2.91,7.28-5.78,11.21-8.9,9.48-7.51,18.29-9.3,29.3-9.35l38.1-.14v25.4H176v41.36l-24.48.36V175.2Z" transform="translate(-25 -21)"/><path class="cls-2" d="M146.56,135.06v-14.5c0-18.81,10.32-29.83,30.24-29.83h48.45a2,2,0,0,1,2,2v20.81a2,2,0,0,1-2,2h-48c-4.8,0-6.54,2.83-6.54,7.63v2.18a46.75,46.75,0,0,0-19.29,6.58C149.69,133,146.56,135.06,146.56,135.06Z" transform="translate(-25 -21)"/></svg>